<svg xmlns="http://www.w3.org/2000/svg" xmlns:xlink="http://www.w3.org/1999/xlink" width="190" height="180" viewBox="0 0 190 180">
  <defs>
    <clipPath id="clip-path">
      <rect id="Rectángulo_459144" data-name="Rectángulo 459144" width="190" height="180" transform="translate(180 816)" fill="#d8dec8"/>
    </clipPath>
    <clipPath id="clip-path-2">
      <rect id="Rectángulo_459143" data-name="Rectángulo 459143" width="229.981" height="184.377" fill="none"/>
    </clipPath>
  </defs>
  <g id="Grupo_1190895" data-name="Grupo 1190895" transform="translate(-180 -816)">
    <rect id="Rectángulo_458680" data-name="Rectángulo 458680" width="190" height="180" transform="translate(180 816)" fill="#d8dec8"/>
    <g id="Enmascarar_grupo_1099004" data-name="Enmascarar grupo 1099004" clip-path="url(#clip-path)">
      <g id="Grupo_1190463" data-name="Grupo 1190463" transform="translate(174.588 812.033)">
        <g id="Grupo_1190462" data-name="Grupo 1190462" transform="translate(5.412)" clip-path="url(#clip-path-2)">
          <path id="Trazado_1005820" data-name="Trazado 1005820" d="M5.438,145.243c5.18-20.983,13.04-41.3,25.136-57.041s28.8-26.527,46.117-26.294,34.816,12.759,41.769,32.9c2.643,7.656,4.242,16.9,9.941,21.083,7.264,5.337,16.166-.83,24.472-2.34,13.44-2.444,26.682,8.366,34.2,22.717s10.43,31.715,12.876,48.671L8,184.835Z" transform="translate(-5.417 -12.361)" fill="#bdca88"/>
          <path id="Trazado_1005821" data-name="Trazado 1005821" d="M64.206,153.054a10.33,10.33,0,0,1,13.449-.353q.26-1.589.522-3.178l5.063.393c-.91-5.519,4.084-11.221,9.674-11.048a5.164,5.164,0,0,1,9.457-2.326c5.246-1.414,11.156,3.4,10.835,8.821,2.594-1.6,6.523,1.152,5.913,4.136a9.893,9.893,0,0,1,9.184,8.591c3.884-2.5,9.935.035,10.872,4.559.166-1.909,2.728-2.792,4.486-2.027s2.836,2.52,3.8,4.174a4.7,4.7,0,0,1,8.681,1.794c1.678-2.551,6.474-1.514,6.949,1.5a3.774,3.774,0,0,1,5,5.291c-24.177,6.507-49.763,2.353-74.543-1.225S42.738,165.74,19.323,174.6a11.625,11.625,0,0,1-4.711,1.112c-1.625-.1-3.322-1.183-3.517-2.8s1.878-3.168,3.155-2.158A13.091,13.091,0,0,1,15.192,156a10.315,10.315,0,0,1,11.349-15.973,6.811,6.811,0,0,1,12.438,1.165,3.911,3.911,0,0,1,6.4,3.84,9.237,9.237,0,0,1,12.763,3.809c2.693-1.255,6.3,1.25,6.065,4.212" transform="translate(-6.544 -26.802)" fill="#6c8938"/>
          <path id="Trazado_1005822" data-name="Trazado 1005822" d="M229.163,201.226c-10.85-15.264-34.437-30.158-53.23-27.482-10.451,1.488-20.545,5.992-31.076,5.049-8.169-.731-15.451-4.656-22.927-7.673a109.319,109.319,0,0,0-68.956-3.787C32.241,173.089-5.4,177.289,1.665,201.226Z" transform="translate(-4.49 -32.644)" fill="#a88c6a"/>
          <path id="Trazado_1005823" data-name="Trazado 1005823" d="M234.438,195.225l-5.192-1.274c-12.4-4.467-26.047-3.5-38.956-.963s-25.544,6.591-38.6,8.187c-22.733,2.781-45.6-1.982-68.368-4.455a342.713,342.713,0,0,0-74.92.106A24.7,24.7,0,0,0,0,198.851v78.6H234.438Z" transform="translate(-4.331 -38.109)" fill="#e4cc89"/>
          <path id="Trazado_1005824" data-name="Trazado 1005824" d="M278.739,192.216c1.842,2.363,4.046,4.519,5.268,7.244.011-.068.028-.135.038-.2.627-4.468-1.18-8.445-2.392-12.592-3.5-7.2-3.054-15.917-1.441-23.869,1.768-8.723,4.774-17.305,4.811-26.206.028-6.746-2.147-14.126-7.88-17.683-6.162-3.823-14.687-1.808-20,3.132-2.711,12.712,6.91-.653,9.138,1.892s2.908,6.135,2.708,9.511-1.18,6.649-1.894,9.955c-1.156,5.357-1.5,11.361,1.547,15.915.969,1.447,2.261,2.709,2.891,4.333.743,1.915.464,4.049.351,6.1a33.792,33.792,0,0,0,6.851,22.472" transform="translate(-55.585 -23.345)" fill="#a88c6a"/>
          <path id="Trazado_1005825" data-name="Trazado 1005825" d="M275.831,182.823c-.482-5.681-.468-14.29-.949-19.969-.15-1.766-.348-3.654-1.485-5.013-.584-.7-1.373-1.2-1.992-1.863-1.909-2.059-1.834-5.233-1.4-8.006s1.1-5.713.025-8.306c-.376-.905-.953-1.725-1.24-2.662-.969-3.164,1.589-6.442,1.223-9.731a5.778,5.778,0,0,0-6-4.93c3.549-1.764,7.715-2.989,11.444-1.648a11.594,11.594,0,0,1,5.431,4.412c2.889,4.157,3.608,9.492,3.2,14.538s-1.838,9.944-2.9,14.893a105.109,105.109,0,0,0-1.683,32.955q-1.145-8.425-2.291-16.85a15.809,15.809,0,0,1-.134-5.129,34.818,34.818,0,0,1,1.132-3.569,14.507,14.507,0,0,0,.1-8.17,9.445,9.445,0,0,1-.523-2.367c-.026-1.519.9-2.863,1.589-4.216a15.021,15.021,0,0,0,.436-12.511c1.7,5.47-3.649,10.767-3.628,16.494.006,1.665.472,3.295.594,4.956.207,2.837-.593,5.641-.862,8.474a45.393,45.393,0,0,0,0,6.4c.138,2.964-.22,8.856-.082,11.821" transform="translate(-57.051 -23.987)" fill="#3f1e2b"/>
          <path id="Trazado_1005826" data-name="Trazado 1005826" d="M280.08,196.232c-.138-2.7-.142-5.413-.012-8.115l.744,7.513a27.5,27.5,0,0,0,.383,2.85,20.071,20.071,0,0,0,1.129,3.528,17.986,17.986,0,0,0,1.549,3.061c1.148,1.751,2.768,3.219,3.533,5.168l-2.118-2.406c-1.761-2-3.562-4.066-4.427-6.584a18.2,18.2,0,0,1-.78-5.015" transform="translate(-60.238 -37.564)" fill="#3f1e2b"/>
          <path id="Trazado_1005827" data-name="Trazado 1005827" d="M286.885,126.5q.762,1.864,1.507,3.737a17.4,17.4,0,0,1,.975,2.97,15.613,15.613,0,0,1,.242,2.725,64.691,64.691,0,0,1-1.533,15.564,24.568,24.568,0,0,0-.846,5.2l1.622-6.95a50.519,50.519,0,0,0,1.16-6.092c.1-.936.147-1.877.178-2.818a34.468,34.468,0,0,0-.406-7.484,15.894,15.894,0,0,0-2.9-6.85" transform="translate(-61.618 -25.26)" fill="#3f1e2b"/>
          <path id="Trazado_1005828" data-name="Trazado 1005828" d="M127.574,102.88c-5.99,6.234-7.306,14.774-6.284,22.688S125.4,141.1,127.327,148.9c2.191,8.876,2.85,18.164.161,26.946-.734,2.395-1.717,4.767-1.842,7.236-.17,3.334,1.233,6.563,2.25,9.793,4.118,13.066,2.3,19.643-1,32.865a90.055,90.055,0,0,0,.068,11.055c.2,2.73,3.89,2.32,9.9,1.092.682-5.05-1.5-8.218-1.5-12.01,0-2.816,2.4-1.967,1.91-4.777a262.568,262.568,0,0,1-2.767-39.01c.068-3.1,1.878-5.975,2.06-9.043.16-2.7-.411-5.386-.659-8.081-.789-8.619,1.824-17.372,6.948-24.909,3.142-4.622,7.2-8.809,9.983-13.585A29.692,29.692,0,0,0,155.468,102c-1.157-3.441-3.272-7.007-7.2-8.495-5.536-2.1-11.947.809-16.436,4.208Z" transform="translate(-28.488 -18.531)" fill="#3f1e2b"/>
          <path id="Trazado_1005829" data-name="Trazado 1005829" d="M141.961,18.422a15.435,15.435,0,0,0-6.451-3.577A8.641,8.641,0,0,0,128.4,16.09a6.057,6.057,0,0,0-2.242,6.591c5.264,2.482,9.023,7.433,11.335,12.773s3.357,11.124,4.548,16.819,2.583,11.45,5.491,16.49c3.85,6.672,7.764,10.5,15.157,12.658-4.952-5.953-7.1-12.318-8.487-19.936s.439-15.436-1.354-22.97-5.048-15.01-10.89-20.093" transform="translate(-29.469 -2.912)" fill="#3f1e2b"/>
          <path id="Trazado_1005830" data-name="Trazado 1005830" d="M219.05,111.606c-3.056-.864-6.34-1.654-9.324-.546-3.151,1.17-5.356,4.294-6.487,7.621-2.68,7.881-.2,16.721,3.572,24.085s8.824,14,11.829,21.754c1.353,3.488,2.355,7.3,4.884,9.959,3.416,3.585,9.1,4.46,11.616,8.8,1.791,3.09.16,5.934-.287,9.529-.959,7.729-2.423,15.156-3.381,22.884-.308,2.479,1.259,5.886,0,8-1.936,3.25-1.323,4.116-4.51,5.954s-2.254,6.139-4.7,12.465c3.006.744,6.2,2.605,9.958-.558-.817-2.4-1.2-7.185.563-8.931s-.768-3.321,1.446-4.519c2.311-1.249,3.007-7.16,3.439-9.621,1.395-7.939,1.617-13.308,3.012-21.247.868-4.944,3.464-13.206,2.061-18.009-.973-3.331-4.367-5.34-5.637-8.559-2.319-5.876-2.438-10.309-1.6-16.615s2.272-12.565,2.251-18.933-1.717-13.076-6.145-17.384c-3.432-3.339-8.066-4.858-12.567-6.132" transform="translate(-44.691 -22.068)" fill="#3f1e2b"/>
          <path id="Trazado_1005831" data-name="Trazado 1005831" d="M143.011,38.752c1.228,10.031,4.249,30.706,7.945,37.428s8.984,7.254,15.542,11.236c14.218,8.634,25.981,3.733,42.088,7.892,7.865,2.03,14.877,4.685,19.047,11.657,6.273,10.491,2.921,23.938,5.329,35.922-23.6-6.62-48.661,1.647-73.149.668-11.078-.443-23.089-3.431-29.657-12.362-4.355-5.922-5.608-13.515-6.454-20.818-2.424-20.942-.924-43.7,1.272-64.671,4-.419,14.035-6.533,18.037-6.952" transform="translate(-28.785 -7.738)" fill="#884f3e"/>
          <path id="Trazado_1005832" data-name="Trazado 1005832" d="M125.527,115.723a9.747,9.747,0,0,1,.426-3.565,15.582,15.582,0,0,0-.066-4.213l-.531-4.99c-.363-3.414-.726-6.831-1.316-10.214q-.287,13.289.409,26.575c.25,4.781.624,9.673,2.587,14.04a35.9,35.9,0,0,0,5.449,8.086c-3.269-5.456-6.661-11.437-5.93-17.755.207-1.787.736-3.645.127-5.336a20.869,20.869,0,0,1-1.155-2.627" transform="translate(-29.084 -18.519)" fill="#a88c6a"/>
          <path id="Trazado_1005833" data-name="Trazado 1005833" d="M157.652,97.675a1.693,1.693,0,0,0-.05-1.95l-2.255-4.079a27.706,27.706,0,0,1-2.779,13.433,9.754,9.754,0,0,0-1.347,3.8,18.85,18.85,0,0,0,3.636-5.339q1.481-2.894,2.795-5.87" transform="translate(-34.528 -18.3)" fill="#3f1e2b"/>
          <path id="Trazado_1005834" data-name="Trazado 1005834" d="M158.986,91.422a8.78,8.78,0,0,0,2.267,4.766,6.576,6.576,0,0,0-2.267-4.766" transform="translate(-36.079 -18.256)" fill="#3f1e2b"/>
          <path id="Trazado_1005835" data-name="Trazado 1005835" d="M223.624,129.664c-2.094,4.052-1.555,8.912-.84,13.417s1.532,9.257-.1,13.515l18.525-.511c-4.5-2.932-7.918-7.271-10.608-11.916s-4.715-9.635-6.972-14.5" transform="translate(-48.691 -25.892)" fill="#3f1e2b"/>
          <path id="Trazado_1005836" data-name="Trazado 1005836" d="M152.221,120.28c-1.411,1.326-1.893,3.341-2.271,5.24a151.68,151.68,0,0,0-2.78,23.014c-.085,1.941-.094,4.026.986,5.641,1.552,2.322,4.7,2.811,7.481,3.088,10.442,1.041,20.485,2.138,29.6-3.066.373-6.038,1.917-12.378.618-18.285s-4.5-11.669-9.754-14.675c-5.1-2.921-11.3-2.884-17.179-2.766-2.369.048-4.972.186-6.7,1.809" transform="translate(-33.712 -23.649)" fill="#3f1e2b"/>
          <path id="Trazado_1005837" data-name="Trazado 1005837" d="M133.179,75.982c10.153-8.122,8.705-20.3,11.565-31.078-.4-2.233-.732-4.324-.956-6.154-4,.419-14.036,6.533-18.038,6.952-1.092,10.431-2.011,21.308-2.362,32.182,3,1.076,6.348.745,9.79-1.9" transform="translate(-28.97 -7.738)" fill="#3f1e2b"/>
          <path id="Trazado_1005838" data-name="Trazado 1005838" d="M177.758,101.474a30.25,30.25,0,0,1,6.886,8.029l.379.034a3.669,3.669,0,0,0-.808-2.713A16.2,16.2,0,0,0,182.165,104a11.763,11.763,0,0,0-4.407-2.531" transform="translate(-39.827 -20.263)" fill="#a88c6a"/>
          <path id="Trazado_1005839" data-name="Trazado 1005839" d="M188.258,108.5a4.88,4.88,0,0,0-2.259-2.96,4.276,4.276,0,0,0,2.259,2.96" transform="translate(-41.473 -21.074)" fill="#a88c6a"/>
          <path id="Trazado_1005840" data-name="Trazado 1005840" d="M210.957,109.3c2.529-.023,5.256.014,7.292,1.517.842.621,1.583,1.5,2.616,1.667,1.426.233,2.642-.971,3.583-2.067-11.424-3.181-23.726-1.694-35.205-4.67a7.467,7.467,0,0,0,1.144,2.333,2.532,2.532,0,0,0,2.283,1c.563-.1,1.051-.449,1.6-.6a5.594,5.594,0,0,1,2.8.343,25.811,25.811,0,0,0,6.786.538l7.1-.066" transform="translate(-42.121 -21.117)" fill="#a88c6a"/>
          <path id="Trazado_1005841" data-name="Trazado 1005841" d="M181.251,117.957c-1.056-3.14-2.984-6.392-6.57-7.749-5.05-1.912-16.58-5.473-20.675-2.373l-2.106,1.58c-5.465,5.687-2.762,22.82-1.83,30.041s3.751,14.173,5.508,21.288c2,8.1,2.6,16.571.146,24.582a28.026,28.026,0,0,0-1.681,6.6c-.154,3.041,1.125,5.988,2.054,8.934,3.757,11.92,2.1,17.92-.916,29.983a81.888,81.888,0,0,0,.062,10.085c.186,2.49,3.548,2.117,9.027,1,.622-4.607-1.372-7.5-1.37-10.956,0-2.568,2.186-1.794,1.743-4.358a239.523,239.523,0,0,1-2.525-35.589c.062-2.828,1.713-5.451,1.88-8.25a49.4,49.4,0,0,0-.6-7.372,34.985,34.985,0,0,1,6.338-22.725c2.867-4.216,6.569-8.036,9.108-12.394a27.088,27.088,0,0,0,2.407-22.324" transform="translate(-34 -21.289)" fill="#884f3e"/>
          <path id="Trazado_1005842" data-name="Trazado 1005842" d="M152.619,149.256a33.338,33.338,0,0,0,3.088,10.463c-.591-3.931-1.2-7.93-2.928-11.513a1.374,1.374,0,0,0-.16,1.049" transform="translate(-34.801 -29.595)" fill="#3f1e2b"/>
          <path id="Trazado_1005843" data-name="Trazado 1005843" d="M154.05,142.573c.669,1.223,1.855,2.534,3.2,2.167a3.317,3.317,0,0,0,1.85-2.1c3.593-8.2,4.134-17.367,4.626-26.308a2.149,2.149,0,0,0-.16-1.184,1.457,1.457,0,0,0-1.384-.631,4.274,4.274,0,0,0-1.513.509q.477-2.525.954-5.05a1.133,1.133,0,0,0-.064-.848c-.262-.383-.848-.3-1.275-.112-2.292.989-3.617,3.371-4.659,5.64a44.06,44.06,0,0,0-4.1,13.851,24.318,24.318,0,0,0,2.526,14.07" transform="translate(-34.559 -21.737)" fill="#a88c6a"/>
          <path id="Trazado_1005844" data-name="Trazado 1005844" d="M157.652,154.855a9.638,9.638,0,0,0-.687-.792c-.139-.149-.329-.312-.521-.244s-.237.311-.244.513a6.685,6.685,0,0,0,1.154,3.983c.22.323.616.659.954.463a.783.783,0,0,0,.294-.649,4.88,4.88,0,0,0-.949-3.275" transform="translate(-35.521 -30.712)" fill="#a88c6a"/>
          <path id="Trazado_1005845" data-name="Trazado 1005845" d="M239.008,111.606c-3.056-.864-6.34-1.654-9.324-.546-3.151,1.17-5.356,4.294-6.487,7.621-2.68,7.881-.2,16.721,3.572,24.085s8.824,14,11.829,21.754c1.353,3.488,2.355,7.3,4.884,9.959,3.416,3.585,9.1,4.46,11.615,8.8,1.792,3.09.161,5.934-.286,9.529-.959,7.729-2.423,15.156-3.381,22.884-.308,2.479,1.259,5.886,0,8-1.936,3.25-1.323,4.116-4.51,5.954s-2.254,6.139-4.7,12.465c3.006.744,6.2,2.605,9.958-.558-.817-2.4-1.2-7.185.563-8.931s-.769-3.321,1.446-4.519c2.311-1.249,3.007-7.16,3.439-9.621,1.395-7.939,1.617-13.308,3.012-21.247.868-4.944,3.464-13.206,2.061-18.009-.973-3.331-4.367-5.34-5.637-8.559-2.319-5.876-2.438-10.309-1.6-16.615s2.272-12.565,2.251-18.933-1.717-13.076-6.145-17.384c-3.431-3.339-8.066-4.858-12.567-6.132" transform="translate(-48.676 -22.068)" fill="#884f3e"/>
          <path id="Trazado_1005846" data-name="Trazado 1005846" d="M244.859,173.057a15.929,15.929,0,0,0-2.834-3.616,10.334,10.334,0,0,0,3.425,6.594,3.646,3.646,0,0,0-.591-2.978" transform="translate(-52.66 -33.835)" fill="#3f1e2b"/>
          <path id="Trazado_1005847" data-name="Trazado 1005847" d="M248.512,133.223c-.153-.308-1.058-1.707-1.4-1.7-.022.048-.039.1-.061.146l.125-.642c.473-2.431.929-5.037-.049-7.312s-3.2-3.749-4.75-5.69a45.664,45.664,0,0,0-2.727-3.666,4.2,4.2,0,0,0-4.11-1.387,5.685,5.685,0,0,0-2.365,1.93,45.953,45.953,0,0,0-5.431,7.328,15.427,15.427,0,0,0-2.142,8.743c.316,3.435,2.136,6.514,3.476,9.692,1.077,2.556,1.858,5.231,2.986,7.765a16.082,16.082,0,0,0,4.894,6.611,3.547,3.547,0,0,0,2.591.862,3.479,3.479,0,0,0,2.137-1.687,19.275,19.275,0,0,0,2.352-7.053q.924-4.75,1.848-9.5c0,.058,0,.117,0,.175.022.519.17,1.157.675,1.283.52.13.956-.4,1.194-.88a9.013,9.013,0,0,0,.934-4.012,2.264,2.264,0,0,0-.177-1.007" transform="translate(-49.371 -22.53)" fill="#a88c6a"/>
          <path id="Trazado_1005848" data-name="Trazado 1005848" d="M127.848,22.906a7.477,7.477,0,0,0-4.787,5.32,15.832,15.832,0,0,0,.1,7.405c.509,2.44,1.264,4.832,1.6,7.3.465,3.417-.719,5.735-.84,9.182a14.675,14.675,0,0,0,.888,5.329c.6,1.493,2.432,3.373,4.039,3.463,2.044.114,5.365-2.414,6.027-4.351s.335-2.938.79-4.934c.715-3.142,1.259-6.284,3.2-8.858s4-5.131,5.153-8.138,1.266-6.625-.583-9.264c-1.591-2.271-4.3-3.431-6.866-4.481-2.052-.84-4.278-1.694-6.43-1.16-2.211.548-3.8,2.426-5.232,4.2Z" transform="translate(-28.825 -3.905)" fill="#884f3e"/>
          <path id="Trazado_1005849" data-name="Trazado 1005849" d="M137.033,21.655a7.536,7.536,0,0,0-10.447,1.064,2.167,2.167,0,0,0-.547,1.023.918.918,0,0,0,.463.988c.471.2,1.164-.1,1.445.331.369.567-.706,1.142-.634,1.815.046.43.527.652.792.993.578.743.046,1.789-.263,2.677-.684,1.966-.134,4.115.032,6.19a41.237,41.237,0,0,1-.264,6.2c-.206,2.9-2.812,3.8-1.081,8.122a16.2,16.2,0,0,1-2.094-.026c-.038.4-.067.806-.078,1.232a14.67,14.67,0,0,0,.932,5.321c.614,1.488,2.46,3.353,4.067,3.43,2.045.1,5.344-2.458,5.992-4.4s.311-2.941.749-4.941c.011-.053.022-.106.034-.159-1.838-1.132-4.639-.848-7.424-.608a1.032,1.032,0,0,1,.3-.655,5.9,5.9,0,0,0,1.372-2.888,4.024,4.024,0,0,0-.5-1.988,5.767,5.767,0,0,1-.048-3.894,8.761,8.761,0,0,0,.824-2.563c.016-.671-.242-1.327-.212-2a5.9,5.9,0,0,1,1.174-2.639,12.083,12.083,0,0,0,1.735-6.147,6.192,6.192,0,0,1,.192-2.1c.471-1.287,1.874-1.928,3.124-2.486.434-.194.928-.48.955-.954a1.237,1.237,0,0,0-.591-.946" transform="translate(-29.163 -4)" fill="#a88c6a"/>
          <path id="Trazado_1005850" data-name="Trazado 1005850" d="M133.6,20.6c-.044-.051-.126-.037-.19-.017a9.741,9.741,0,0,0-1.077.4,47.286,47.286,0,0,0-.632,5.391c-.007.12.077.3.174.226a21.73,21.73,0,0,1,1.708-5.809c.032-.062.062-.142.018-.2" transform="translate(-30.63 -4.106)" fill="#3f1e2b"/>
          <path id="Trazado_1005851" data-name="Trazado 1005851" d="M127.4,22.068c.05-3.75-2.467-3.06-4.606-6.843-.427-.755-2.412-2.719-2.407-1.853a19.79,19.79,0,0,0,.736,5.717,9.252,9.252,0,0,0,5.218,6.118Z" transform="translate(-28.371 -2.627)" fill="#884f3e"/>
          <path id="Trazado_1005852" data-name="Trazado 1005852" d="M142.26,22.745c-.395-2.188.919-4.314,2.4-5.974a26.924,26.924,0,0,0,3.563-4.261.338.338,0,0,1,.624.139,13.541,13.541,0,0,1-.387,5.553c-.942,2.966-3.26,5.257-5.5,7.421Z" transform="translate(-32.725 -2.465)" fill="#884f3e"/>
          <path id="Trazado_1005853" data-name="Trazado 1005853" d="M148.605,15.621c.812,1.553.2,3.5-.851,4.908s-2.479,2.479-3.577,3.845a8.29,8.29,0,0,1,1.289-4.8,24.7,24.7,0,0,1,3.139-3.949" transform="translate(-33.118 -3.119)" fill="#3f1e2b"/>
          <path id="Trazado_1005854" data-name="Trazado 1005854" d="M141.353,35.49a2.408,2.408,0,0,1,1.425-1.086.35.35,0,0,1,.436.341,8.236,8.236,0,0,1,.188,2.067,2.076,2.076,0,0,1-.915,1.168c-.086.058-.174.111-.263.162a.819.819,0,0,1-1.233-.649,3.435,3.435,0,0,1,.363-2" transform="translate(-32.482 -6.867)" fill="#3f1e2b"/>
          <path id="Trazado_1005855" data-name="Trazado 1005855" d="M144.9,41.261a9.519,9.519,0,0,0,3.132-9.34,14.973,14.973,0,0,1-1.168,5.67,29.976,29.976,0,0,1-1.965,3.669" transform="translate(-33.266 -6.374)" fill="#3f1e2b"/>
          <path id="Trazado_1005856" data-name="Trazado 1005856" d="M139.13,53.336a2.11,2.11,0,0,0-.1.87,14.76,14.76,0,0,0,1.136-3.862,20.9,20.9,0,0,0-1.038,2.992" transform="translate(-32.091 -10.053)" fill="#3f1e2b"/>
          <path id="Trazado_1005857" data-name="Trazado 1005857" d="M135.232,61.708a.576.576,0,0,0-.805-.442,3.576,3.576,0,0,0-2.07,2.883.557.557,0,0,0,.641.61,2.753,2.753,0,0,0,2.234-3.051" transform="translate(-30.761 -12.224)" fill="#3f1e2b"/>
          <path id="Trazado_1005858" data-name="Trazado 1005858" d="M125.472,61.332c-.108-.26-.284-.55-.566-.565a3.6,3.6,0,0,0-.154,1.866,1.8,1.8,0,0,0,1.188,1.359,6.258,6.258,0,0,0-.468-2.66" transform="translate(-29.23 -12.134)" fill="#3f1e2b"/>
          <rect id="Rectángulo_459133" data-name="Rectángulo 459133" width="171.358" height="8.242" transform="translate(47.177 97.585)" fill="#3f1e2b"/>
          <rect id="Rectángulo_459134" data-name="Rectángulo 459134" width="171.358" height="0.352" transform="translate(47.177 103.697)" fill="#884f3e"/>
          <rect id="Rectángulo_459135" data-name="Rectángulo 459135" width="171.358" height="0.352" transform="translate(47.177 102.224)" fill="#884f3e"/>
          <rect id="Rectángulo_459136" data-name="Rectángulo 459136" width="171.358" height="0.352" transform="translate(47.177 99.067)" fill="#884f3e"/>
          <rect id="Rectángulo_459137" data-name="Rectángulo 459137" width="171.358" height="8.242" transform="translate(47.177 142.634)" fill="#3f1e2b"/>
          <rect id="Rectángulo_459138" data-name="Rectángulo 459138" width="171.358" height="0.352" transform="translate(47.177 148.738)" fill="#884f3e"/>
          <rect id="Rectángulo_459139" data-name="Rectángulo 459139" width="171.358" height="0.352" transform="translate(47.177 147.264)" fill="#884f3e"/>
          <rect id="Rectángulo_459140" data-name="Rectángulo 459140" width="171.358" height="0.352" transform="translate(47.177 144.107)" fill="#884f3e"/>
          <rect id="Rectángulo_459141" data-name="Rectángulo 459141" width="4.008" height="130.522" transform="translate(141.625 92.267)" fill="#3f1e2b"/>
          <rect id="Rectángulo_459142" data-name="Rectángulo 459142" width="4.009" height="130.522" transform="translate(211.019 92.267)" fill="#3f1e2b"/>
          <path id="Trazado_1005859" data-name="Trazado 1005859" d="M185.755,126.494a.855.855,0,1,1-.856-.856.856.856,0,0,1,.856.856" transform="translate(-41.083 -25.088)" fill="#884f3e"/>
          <path id="Trazado_1005860" data-name="Trazado 1005860" d="M185.755,182.192a.855.855,0,1,1-.856-.856.856.856,0,0,1,.856.856" transform="translate(-41.083 -36.21)" fill="#884f3e"/>
          <path id="Trazado_1005861" data-name="Trazado 1005861" d="M185.755,186.138a.855.855,0,1,1-.856-.856.856.856,0,0,1,.856.856" transform="translate(-41.083 -36.998)" fill="#884f3e"/>
          <path id="Trazado_1005862" data-name="Trazado 1005862" d="M272.241,126.494a.856.856,0,1,1-.856-.856.856.856,0,0,1,.856.856" transform="translate(-58.352 -25.088)" fill="#884f3e"/>
          <path id="Trazado_1005863" data-name="Trazado 1005863" d="M272.241,182.192a.856.856,0,1,1-.856-.856.856.856,0,0,1,.856.856" transform="translate(-58.352 -36.21)" fill="#884f3e"/>
          <path id="Trazado_1005864" data-name="Trazado 1005864" d="M272.241,186.138a.856.856,0,1,1-.856-.856.856.856,0,0,1,.856.856" transform="translate(-58.352 -36.998)" fill="#884f3e"/>
          <path id="Trazado_1005865" data-name="Trazado 1005865" d="M77.123,40.749c3.208,3.083,1.708,5.481,4.916,8.565-5.316,1.476-12.867,7.915-17.818,10.35-1.563-3.1-.943-9.051-2.5-12.15,3.256-3.633,10.271-8.768,15.407-6.764" transform="translate(-16.655 -8.047)" fill="#a88c6a"/>
          <path id="Trazado_1005866" data-name="Trazado 1005866" d="M70.226,46.691a19.007,19.007,0,0,0-5.9,4.006,4.363,4.363,0,0,0-1.019,1.517A5.256,5.256,0,0,0,63.58,55.4a38.176,38.176,0,0,1,17.135-8.607,3.537,3.537,0,0,0-1.725-2.2,3.185,3.185,0,0,0-1.434-.083,23.511,23.511,0,0,0-7.33,2.182" transform="translate(-16.941 -8.88)" fill="#3f1e2b"/>
          <path id="Trazado_1005867" data-name="Trazado 1005867" d="M85.1,39.494c-5.759.712-9.9,5.859-15.267,8.066a35.426,35.426,0,0,1-6.588,1.709,23.579,23.579,0,0,0-6.483,2.025,8.935,8.935,0,0,0-4.47,4.922,5.585,5.585,0,0,0,1.737,6.137,8.172,8.172,0,0,0,4.31,1.21,37.455,37.455,0,0,0,25.193-7.68,22.568,22.568,0,0,0,6.908-8.146c.964-2.09,1.4-4.749-.03-6.553-1.206-1.522-3.382-1.93-5.309-1.691" transform="translate(-14.717 -7.874)" fill="#a88c6a"/>
          <path id="Trazado_1005868" data-name="Trazado 1005868" d="M67.106,49.411a54.374,54.374,0,0,0,10.831-5.124,19.96,19.96,0,0,1,6.3-2.659,6.791,6.791,0,0,1,6.3,1.878,4.309,4.309,0,0,0-3.421-3.164,8.851,8.851,0,0,0-4.839.591C76.852,42.922,72.5,47.267,67,49.054c-1.994.648-4.085.94-6.127,1.417a14.016,14.016,0,0,0-5.721,2.487,6.5,6.5,0,0,0-2.588,5.457c.411-3.012,3-5.312,5.784-6.523s5.854-1.6,8.763-2.481" transform="translate(-14.822 -8.029)" fill="#f4b148"/>
          <path id="Trazado_1005869" data-name="Trazado 1005869" d="M77.494,49.35a23.609,23.609,0,0,0-8.729,2.285,13.234,13.234,0,0,0-6.231,6.353,4.585,4.585,0,0,0-.327,3.338A3.76,3.76,0,0,0,64.6,63.443a8.9,8.9,0,0,0,3.269.307A21.469,21.469,0,0,0,77.406,61.2a13.927,13.927,0,0,0,6.4-7.357,3.546,3.546,0,0,0,.038-2.831,3.1,3.1,0,0,0-1.7-1.3,10.624,10.624,0,0,0-4.644-.368" transform="translate(-16.715 -9.837)" fill="#3f1e2b"/>
          <path id="Trazado_1005870" data-name="Trazado 1005870" d="M123.885,152.171a8.968,8.968,0,0,0-.993-1.93l-1.448-2.33a2.775,2.775,0,0,0-.946-1.029c-3.582-8.077-6.556-14.967-9.783-22.169-1.847,2.026-5.147,3.064-7.8,4.039,2.314,7.9,7.7,12.307,12.553,19.048a10.208,10.208,0,0,0-1.105,5.457,2.121,2.121,0,0,0,.987,1.9,2.316,2.316,0,0,0,1.129.074l5.555-.558a3.36,3.36,0,0,0,.518-.086c.128.284.231.58.343.872a2.158,2.158,0,0,0,.715,1.044.959.959,0,0,0,1.184-.023c-.7-1.3-.455-2.908-.911-4.313" transform="translate(-24.883 -24.904)" fill="#fd9f96"/>
          <path id="Trazado_1005871" data-name="Trazado 1005871" d="M112.491,128.7c-.587-1.325-1.176-2.651-1.775-3.988-1.847,2.026-5.148,3.064-7.8,4.04a25.669,25.669,0,0,0,1.923,4.728,19.942,19.942,0,0,0,7.649-4.78" transform="translate(-24.883 -24.904)" fill="#ea827d"/>
          <path id="Trazado_1005872" data-name="Trazado 1005872" d="M124.781,158.334c.072-1.3-2.222-.214-2.477-2.74-.131-1.293-.752.7-2.678-.517-1.1-.7-.736,1.019-.94,2.3-.072.459-1.658,1.914-1.477,2.34a1.315,1.315,0,0,0,1.036.824,2.836,2.836,0,0,0,1.384-.475,3.979,3.979,0,0,1,2.552-.283,3.215,3.215,0,0,0,1.537.192,1.731,1.731,0,0,0,1.061-1.643" transform="translate(-27.734 -30.935)" fill="#ea827d"/>
          <path id="Trazado_1005873" data-name="Trazado 1005873" d="M131.6,214.46h-20.65l-3.263-28.527h27.176Z" transform="translate(-25.835 -37.128)" fill="#dbe0dd"/>
          <path id="Trazado_1005874" data-name="Trazado 1005874" d="M134.691,187.45l.174-1.517H107.688l.174,1.517Z" transform="translate(-25.835 -37.128)" fill="#64414e"/>
          <path id="Trazado_1005875" data-name="Trazado 1005875" d="M135.148,185.356a.5.5,0,0,1-.5.5H107.841a.5.5,0,1,1,0-1h26.806a.5.5,0,0,1,.5.5" transform="translate(-25.766 -36.913)" fill="#fff"/>
          <path id="Trazado_1005876" data-name="Trazado 1005876" d="M135.659,182.835h-.77v-5.551c0-7.543-6.252-16.654-14.017-16.654h-.291c-7.765,0-14.017,9.111-14.017,16.654v5.551h-.77v-5.551c0-8.058,6.459-17.424,14.787-17.424h.291c8.328,0,14.787,9.366,14.787,17.424Z" transform="translate(-25.457 -31.922)" fill="#dbe0dd"/>
          <path id="Trazado_1005877" data-name="Trazado 1005877" d="M116.066,214.267a16.826,16.826,0,0,1-.7-2.826,41.549,41.549,0,0,1-.363-6.135l-.12-12.509a7.143,7.143,0,0,1,.516-3.372,4.486,4.486,0,0,1,1.676-1.713h-7.13q.611,13.329,2.526,26.555Z" transform="translate(-26.287 -37.483)" fill="#fff"/>
          <path id="Trazado_1005878" data-name="Trazado 1005878" d="M134.866,200.229c.031.922.39,1.565.388,2.491a13.756,13.756,0,0,1-.331,2,11.227,11.227,0,0,0-.03,1.854c.035.916.447,1.3.473,2.22.017.588-.351,1.706-.336,2.3.013.515-.236,2.532-.223,3.047l1,.376c.341-8.133,1.539-17.921,1.879-26.054-.531.155-1.742.088-2.271.243-.078.022-.165.062-.207.251a1.179,1.179,0,0,0,.214.929,2.933,2.933,0,0,1,.543.56,2.57,2.57,0,0,1,.281,1.357c-.057,1.1-.682,1.4-.685,2.514,0,.587.185,1.034.231,1.6a4.48,4.48,0,0,1-.436,2.19,4.606,4.606,0,0,0-.492,2.126" transform="translate(-31.25 -37.632)" fill="#64414e"/>
          <path id="Trazado_1005879" data-name="Trazado 1005879" d="M126.394,161.644a18.451,18.451,0,0,0-1.293-2.633c-.153-.274-.371-.585-.683-.568a.571.571,0,0,0-.478.461,1.532,1.532,0,0,0,.049.7c.145.611.337,1.209.527,1.807q.234.73.467,1.459a1.225,1.225,0,0,0,.375.655.739.739,0,0,0,.889-.08,1.148,1.148,0,0,0,.351-.867,2.737,2.737,0,0,0-.2-.937" transform="translate(-29.075 -31.639)" fill="#fd9f96"/>
          <path id="Trazado_1005880" data-name="Trazado 1005880" d="M123.3,164.1a.973.973,0,0,0,.562-.748,2.526,2.526,0,0,0-.295-1.577c-.238-.489-.551-.942-.764-1.443a3.691,3.691,0,0,0-.506-1.018.793.793,0,0,0-1.016-.215c-.317.238-.287.713-.225,1.1a8.114,8.114,0,0,0,.991,3.23,1.8,1.8,0,0,0,.52.555.863.863,0,0,0,.732.113" transform="translate(-28.496 -31.748)" fill="#fd9f96"/>
          <path id="Trazado_1005881" data-name="Trazado 1005881" d="M117.59,162.909a1.934,1.934,0,0,0,.423.586.7.7,0,0,0,.675.157.713.713,0,0,0,.377-.788,2.088,2.088,0,0,0-.42-.838l-.878-1.236a1.488,1.488,0,0,1-.237-.424.508.508,0,0,1,.07-.463.285.285,0,0,0-.335.019.639.639,0,0,0-.2.3,2.344,2.344,0,0,0-.031,1.392,5.742,5.742,0,0,0,.553,1.3" transform="translate(-27.684 -31.921)" fill="#fd9f96"/>
          <path id="Trazado_1005882" data-name="Trazado 1005882" d="M119.409,163.624a1.771,1.771,0,0,0,.67.586.721.721,0,0,0,.826-.146.789.789,0,0,0-.007-.875,5,5,0,0,0-.6-.707,3.311,3.311,0,0,1-.525-.85,2.191,2.191,0,0,0-.446-.8.552.552,0,0,0-.809.013.675.675,0,0,0-.078.372,4.068,4.068,0,0,0,.973,2.407" transform="translate(-27.981 -32.082)" fill="#fd9f96"/>
          <path id="Trazado_1005883" data-name="Trazado 1005883" d="M111.287,119.4c-3.715-9.857-7.683-25.933-13.441-29.748-2.6,1.48-3.654,4.578-4.126,7.534-.532,3.331.3,5.821.751,8.78.439,2.85,2.085,4.121,2.724,7.046,1.315,6.012,2.889,8.117,4.322,10.9,2.432-.9,8.075-2.651,9.77-4.51" transform="translate(-23.011 -17.903)" fill="#d7604c"/>
          <path id="Trazado_1005884" data-name="Trazado 1005884" d="M102.614,130.021l-.1-.373a30.227,30.227,0,0,0,10.108-4.715l.224.313a30.61,30.61,0,0,1-10.236,4.775" transform="translate(-24.803 -24.947)" fill="#351220"/>
          <path id="Trazado_1005885" data-name="Trazado 1005885" d="M77.864,138.86H59.823c-.185.415-.347.836-.49,1.253-2.507,7.378-1.687,15.406-1.245,23.186a258.876,258.876,0,0,1-2.9,53.961,2.684,2.684,0,0,0,1.926,3.02,30.105,30.105,0,0,0,16.222-.271,3.429,3.429,0,0,0,2.447-3.48c-1.564-27.233-1.039-53.078,2.082-77.669" transform="translate(-15.345 -27.728)" fill="#a88c6a"/>
          <path id="Trazado_1005886" data-name="Trazado 1005886" d="M78.192,138.86H60.15c-.185.415-.347.836-.49,1.253-2.507,7.378-1.687,15.406-1.245,23.186a251.678,251.678,0,0,1-1.623,44.666,36.57,36.57,0,0,0,18.919.488,413.428,413.428,0,0,1,2.48-69.593" transform="translate(-15.672 -27.728)" fill="#3f1e2b"/>
          <path id="Trazado_1005887" data-name="Trazado 1005887" d="M96.893,169.565c.466-9.663.952-19.919-2.55-28.736a3.166,3.166,0,0,0-2.952-1.969H82.885a3.206,3.206,0,0,0-3.2,3.14c-.593,24.98,3.188,48.95,2.075,74.012a3.185,3.185,0,0,0,3.066,3.321c3.94.14,8.872.648,12.316-1.818a3.123,3.123,0,0,0,1.259-2.6c-.277-15.9-2.282-29.32-1.509-45.352" transform="translate(-20.231 -27.728)" fill="#a88c6a"/>
          <path id="Trazado_1005888" data-name="Trazado 1005888" d="M98.113,206.6c-.616-12.462-1.854-23.873-1.22-37.04.466-9.663.952-19.92-2.55-28.736a3.166,3.166,0,0,0-2.952-1.969H82.885a3.2,3.2,0,0,0-3.2,3.14c-.531,22.3,2.416,43.793,2.266,65.975a28.378,28.378,0,0,0,16.16-1.37" transform="translate(-20.231 -27.728)" fill="#3f1e2b"/>
          <path id="Trazado_1005889" data-name="Trazado 1005889" d="M65.942,55.97a6.35,6.35,0,0,0-2.754,3.762,1.894,1.894,0,0,0,.362,1.959,5.878,5.878,0,0,1,.732.492c.463.506.1,1.328-.37,1.825s-1.079.986-1.109,1.67a1.849,1.849,0,0,0,1.021,1.512A9,9,0,0,1,65.445,68.2c.7.678.9,1.743,1.581,2.436.982,1,2.614.917,3.964.546s2.711-.967,4.1-.756c1.068.162,2.022.794,3.092.944a4.519,4.519,0,0,0,4.267-2.278c.408-.667.74-1.472,1.458-1.782.739-.321,1.654.006,2.368-.369a2.226,2.226,0,0,0,.972-1.756,7.49,7.49,0,0,1,.351-2.05c.286-.653.876-1.2.911-1.911.039-.808-.664-1.505-.651-2.315.014-.828.776-1.55.637-2.366-.116-.678-.8-1.091-1.16-1.677s-.382-1.317-.733-1.9a3.945,3.945,0,0,0-2.87-1.417l-4.487-.8a3.089,3.089,0,0,0-2.507.275c-.33.268-.575.691-.992.771-.486.094-.913-.328-1.4-.434-.958-.208-1.685.8-2.514,1.327a8.828,8.828,0,0,1-2.779.791,2.676,2.676,0,0,0-2.165,1.7Z" transform="translate(-16.872 -10.109)" fill="#64414e"/>
          <path id="Trazado_1005890" data-name="Trazado 1005890" d="M86.361,83.3q.711-.888,1.349-1.839c-.427-.333-2.447-1.439-2.84-1.81-2.166-2.048-2.294-6.038-2.31-8.643H72.879c-.026,2.391-1.536,7.254-3.334,8.936,4.511,4.3,11.785,7.759,16.816,3.357" transform="translate(-18.218 -14.18)" fill="#fd9f96"/>
          <path id="Trazado_1005891" data-name="Trazado 1005891" d="M85.729,79.652c-2.166-2.048-2.294-6.038-2.31-8.643H73.843c1.183,4.246,4.078,9.384,4.949,13.923A8.773,8.773,0,0,0,87.219,83.3q.711-.888,1.349-1.839c-.427-.333-2.447-1.439-2.84-1.81" transform="translate(-19.077 -14.18)" fill="#ea827d"/>
          <path id="Trazado_1005892" data-name="Trazado 1005892" d="M74.317,71.01c.531,2.478,2.434,6.965,4.555,7.8,1.973,1.128,3.9,1.044,6.2.282-1.44-1.552-1.536-6.038-1.557-8.079Z" transform="translate(-19.171 -14.18)" fill="#3f1e2b"/>
          <path id="Trazado_1005893" data-name="Trazado 1005893" d="M89.435,63.076a1.852,1.852,0,0,0,1.6,1.148,1.642,1.642,0,0,0,.771,2.031,2.011,2.011,0,0,0-.225,2.17,4.682,4.682,0,0,0-3.02,1.478,19.438,19.438,0,0,0,.871-6.827" transform="translate(-22.016 -12.595)" fill="#3f1e2b"/>
          <path id="Trazado_1005894" data-name="Trazado 1005894" d="M84.128,52.812c.481.269.469,1.12,1.022,1.184.595.069,1.156,3.012,1.018,3.434a7.985,7.985,0,0,0-.188,3.275,7.192,7.192,0,0,1-.157,5.4c-.793,1.888-1.138,3.146-1.932,4.8-.219.459-1.66.827-2.186.881a8.75,8.75,0,0,1-7.636-2.976,10.807,10.807,0,0,1-2.931-8.33A9.73,9.73,0,0,1,75.5,53.186a8.693,8.693,0,0,1,8.626-.375" transform="translate(-18.528 -10.352)" fill="#fd9f96"/>
          <path id="Trazado_1005895" data-name="Trazado 1005895" d="M86.271,56.687c-.187-.952-.76-2.649-1.121-2.691-.553-.065-.541-.916-1.022-1.184a8.693,8.693,0,0,0-8.626.375,9.73,9.73,0,0,0-4.363,7.292,10.807,10.807,0,0,0,2.931,8.33c.014.014.029.027.043.042,1.549-3.232.414-7.673,3.177-9.8,1.24-.952.7-2.131,2.142-2.768,1.607-.711,3.97-.255,6.839.4" transform="translate(-18.528 -10.352)" fill="#ea827d"/>
          <path id="Trazado_1005896" data-name="Trazado 1005896" d="M86.559,55.769a1.2,1.2,0,0,1-2.006.483c-.315-.323-.475-.841-.907-.972-.473-.143-.909.273-1.358.479a1.71,1.71,0,0,1-1.806-.268c-.218-.193-.42-.46-.711-.473a1.034,1.034,0,0,0-.522.186,4.763,4.763,0,0,1-2.965.537,2.382,2.382,0,0,1-.308,2.8,11.144,11.144,0,0,1-1.244.941,1.712,1.712,0,0,0-.761,1.3c.014.575.485,1.085.423,1.657-.1.9-1.388,1.254-1.554,2.142-.111.592.336,1.171.271,1.77-.089.834-.581,1.39-.67,2.224-.032.307-.505.653-.786.78-.329.148-.6-.287-.726-.623-.427-1.1-1.213-2.03-1.714-3.1a10.158,10.158,0,0,1-.629-5.4,9.346,9.346,0,0,1,1.98-5.3A9.571,9.571,0,0,1,74.594,52.5a13.693,13.693,0,0,1,7.067-.844,7.275,7.275,0,0,1,5.493,4.174Z" transform="translate(-18.008 -10.282)" fill="#64414e"/>
          <path id="Trazado_1005897" data-name="Trazado 1005897" d="M73.559,61.791a2.628,2.628,0,0,0,1.309-1.461,1.018,1.018,0,0,0,1.1-1.008,2.018,2.018,0,0,0-.741-1.47A2.307,2.307,0,0,1,72.9,59.839a2.064,2.064,0,0,1-.595,2.659,1.809,1.809,0,0,1,.4,2.263,2.717,2.717,0,0,0,.856-2.971" transform="translate(-18.77 -11.552)" fill="#3f1e2b"/>
          <path id="Trazado_1005898" data-name="Trazado 1005898" d="M71.571,70.459a2.065,2.065,0,0,0,.555-2.275,2.664,2.664,0,0,1-2.5,1.475,1.412,1.412,0,0,1-.661,1.4,2.12,2.12,0,0,1-1.588.223,4.091,4.091,0,0,1,.812,2.973,1.9,1.9,0,0,0,2.724-1.417,1.1,1.1,0,0,0,.883-.983,3.216,3.216,0,0,0-.225-1.4" transform="translate(-17.786 -13.615)" fill="#3f1e2b"/>
          <path id="Trazado_1005899" data-name="Trazado 1005899" d="M85.067,67.906a.193.193,0,0,1-.09-.363c.1-.052.263-.119.456-.2.365-.147,1.217-.494,1.268-.718a1.878,1.878,0,0,0-.238-1.121L85.8,63.974a2.958,2.958,0,0,1-.319-1.148,2.886,2.886,0,0,1,.7-1.657.193.193,0,0,1,.315.222,2.577,2.577,0,0,0-.627,1.432,2.637,2.637,0,0,0,.287,1l.667,1.532a2.189,2.189,0,0,1,.26,1.361c-.089.389-.7.667-1.5.988-.178.074-.331.134-.421.182a.194.194,0,0,1-.09.022" transform="translate(-21.28 -12.198)" fill="#351220"/>
          <path id="Trazado_1005900" data-name="Trazado 1005900" d="M80.429,62.056a.58.58,0,0,0-.043.471.369.369,0,0,0,.351.182.642.642,0,0,0,.374-.17,1.049,1.049,0,0,0,.218-1.263.694.694,0,0,0-.576.229,1.7,1.7,0,0,0-.323.551" transform="translate(-20.376 -12.235)" fill="#3f1e2b"/>
          <path id="Trazado_1005901" data-name="Trazado 1005901" d="M88.237,62.316a1.222,1.222,0,0,0-.1-.43.416.416,0,0,0-.342-.246,1.9,1.9,0,0,0-.094.984.359.359,0,0,0,.133.258.272.272,0,0,0,.359-.14.785.785,0,0,0,.039-.427" transform="translate(-21.84 -12.309)" fill="#3f1e2b"/>
          <path id="Trazado_1005902" data-name="Trazado 1005902" d="M79.36,59.84a3.03,3.03,0,0,1,2.76-.607,1.46,1.46,0,0,0,.562.1c.19-.023.383-.183.358-.373a3.185,3.185,0,0,0-4.334,1.172c.239.073.464-.13.654-.294" transform="translate(-20.048 -11.691)" fill="#64414e"/>
          <path id="Trazado_1005903" data-name="Trazado 1005903" d="M89.629,60.511a2.427,2.427,0,0,0-.563-.7,1.02,1.02,0,0,0-.846-.222c-.124.03-.258.12-.25.247a2.153,2.153,0,0,1,1.592.952c.071-.167,0-.107.066-.275" transform="translate(-21.898 -11.894)" fill="#64414e"/>
          <path id="Trazado_1005904" data-name="Trazado 1005904" d="M83.814,71.685a3.4,3.4,0,0,1-1.964-.639.192.192,0,1,1,.228-.309,2.7,2.7,0,0,0,3.052.15.192.192,0,0,1,.231.307,2.538,2.538,0,0,1-1.547.49" transform="translate(-20.66 -14.118)" fill="#351220"/>
          <path id="Trazado_1005905" data-name="Trazado 1005905" d="M90.714,88.29c-1.377-1.847-3.545-3.176-5.373-4.6q-.636.948-1.349,1.839c-5.032,4.4-12.306.944-16.816-3.357-.182.17-.367.337-.553.5-2.16,1.85-4.683,3.343-6.382,5.622A14.733,14.733,0,0,0,57.682,96.9a64.216,64.216,0,0,0,.918,9.075c.631,4.975.2,11.528.8,16.574a4.517,4.517,0,0,0,4.656,3.965l27.507-1.008c.343-6.471-.363-13.112.536-19.531a59.051,59.051,0,0,0,.918-9.075c-.048-3.044-.487-6.174-2.306-8.615" transform="translate(-15.849 -16.409)" fill="#d7604c"/>
          <path id="Trazado_1005906" data-name="Trazado 1005906" d="M70.63,96.648a8.264,8.264,0,0,0-2.7-.212A2.43,2.43,0,0,0,65.9,98.01a4.645,4.645,0,0,0,.586,2.734,11.185,11.185,0,0,1-.505,7.753c-.944,2.474-2.332,4.756-3.306,7.218a23.42,23.42,0,0,0-1.505,11.027c4.492,1.535,9.369,1.453,14.1,1.032s9.459-1.166,14.2-.9c-.531-1.964.065-4.032.546-6.01a53.646,53.646,0,0,0,.461-23.212,3.084,3.084,0,0,0-.747-1.712c-.828-.769-2.142-.451-3.228-.137a35.216,35.216,0,0,1-15.868.841" transform="translate(-16.521 -19.063)" fill="#b24234"/>
          <path id="Trazado_1005907" data-name="Trazado 1005907" d="M80.065,88.8a13.545,13.545,0,0,1-5.476-1.222,21.278,21.278,0,0,1-6.076-4.262l.267-.277a20.913,20.913,0,0,0,5.966,4.187,12.48,12.48,0,0,0,7.1,1.043,8.973,8.973,0,0,0,5.97-3.717l.322.212a9.362,9.362,0,0,1-6.229,3.884,11.092,11.092,0,0,1-1.845.153" transform="translate(-18.012 -16.581)" fill="#351220"/>
          <path id="Trazado_1005908" data-name="Trazado 1005908" d="M38.81,146.183c1.348.435,3.863,3.289,5.211,3.725,1.386-8.2,4.87-16.382,7.921-24.228a48.274,48.274,0,0,0-9.364-3.709,84.068,84.068,0,0,0-3.768,24.213" transform="translate(-12.081 -24.356)" fill="#fd9f96"/>
          <path id="Trazado_1005909" data-name="Trazado 1005909" d="M50.9,130.347c.615-1.567,1.231-3.124,1.831-4.667a48.237,48.237,0,0,0-9.363-3.709c-.217.7-.413,1.408-.611,2.114a39.709,39.709,0,0,1,8.143,6.262" transform="translate(-12.869 -24.356)" fill="#ea827d"/>
          <path id="Trazado_1005910" data-name="Trazado 1005910" d="M60.541,104.473c2.591-4.253,3.836-9.905,1.2-14.132a3.75,3.75,0,0,0-2.6-1.965c-1.545-.15-2.776,1.212-3.691,2.467a92.286,92.286,0,0,0-13.144,25.821c3.288,1.039,7.458,2.944,9.907,3.742.17-.436.59-1.96.763-2.407,2.23-5.753,4.972-9.273,7.563-13.526" transform="translate(-12.779 -17.645)" fill="#d7604c"/>
          <path id="Trazado_1005911" data-name="Trazado 1005911" d="M59.159,113.274l-.289-.255a20.994,20.994,0,0,0,4.159-19.913l.367-.117a21.385,21.385,0,0,1-4.238,20.284" transform="translate(-16.087 -18.569)" fill="#351220"/>
          <path id="Trazado_1005912" data-name="Trazado 1005912" d="M52.514,126.383a55.963,55.963,0,0,0-9.945-4.219l.116-.367A56.338,56.338,0,0,1,52.7,126.044Z" transform="translate(-12.832 -24.321)" fill="#351220"/>
          <path id="Trazado_1005913" data-name="Trazado 1005913" d="M36.709,152.986a3.727,3.727,0,0,1,1.512-1.593,2,2,0,0,1,2.106.126c.61.487.784,1.35,1.317,1.921.458.491,1.146.73,1.57,1.25.545.669.288,2.536-.046,3.332a9.611,9.611,0,0,1-1.381,2.22,15.48,15.48,0,0,0-3.18,5.057,26.656,26.656,0,0,1-2.5-5.985,8.955,8.955,0,0,1,.6-6.328" transform="translate(-11.481 -30.184)" fill="#ea827d"/>
          <path id="Trazado_1005914" data-name="Trazado 1005914" d="M41.46,240.778H38.994V84.31l2.466-.251Z" transform="translate(-12.118 -16.785)" fill="#884f3e"/>
          <path id="Trazado_1005915" data-name="Trazado 1005915" d="M45.826,83.091a6.047,6.047,0,0,0-2.475-.415l-7.737-.112a1.5,1.5,0,0,0-1.954-.034l-.006.006-.6-.009c-3.779-.052-8.062-.117-12,1.347-3.386,1.26-7.553,5.9-10.45,9.095a.8.8,0,0,0,.551,1.34l.02,0a.8.8,0,0,0,.617-.234c2.417-2.431,7.594-6.755,9.957-7.635,2.534-.942,5.647-.9,8.41-.926-2.126,1.855-5.144,5.48-7.53,8.058a.928.928,0,0,0,.686,1.558h.026a.927.927,0,0,0,.631-.246c1.949-1.8,5.617-4.947,8.145-7.105q-.038.9-.078,1.8a.574.574,0,0,0,.749.7l2.809-.1a1.116,1.116,0,0,0,1.346-1.453q-.151-1.571-.3-3.144l6.663.1a3.735,3.735,0,0,1,1.289.153.461.461,0,0,1,.092.056,4.672,4.672,0,0,1-.319.381c-1.177,1.305-1.822,2.385-2.763,3.363-.589.612-2.316,2.723-3.684,4.364a1.017,1.017,0,0,0,.829,1.667h.028a1.013,1.013,0,0,0,.651-.275c.92-.869,3.77-3.485,4.016-3.739.956-1,1.946-2.024,3.155-3.365a3.753,3.753,0,0,0,1.14-2.242,3.094,3.094,0,0,0-1.917-2.952" transform="translate(-6.408 -16.411)" fill="#64414e"/>
          <path id="Trazado_1005916" data-name="Trazado 1005916" d="M38.534,84.961a3.118,3.118,0,0,0,1.623-.684.721.721,0,0,0,.337-.671c-.072-.281-.411-.392-.7-.4a2.5,2.5,0,0,0-1.729.6c-.266.23-.49.62-.3.917a.785.785,0,0,0,.77.241" transform="translate(-11.858 -16.614)" fill="#3f1e2b"/>
          <path id="Trazado_1005917" data-name="Trazado 1005917" d="M36.319,160.444a.772.772,0,0,0,.257.714,2.273,2.273,0,0,0,.686.394l2.415,1.036a2.576,2.576,0,0,1,1,.626,1.326,1.326,0,0,1-.082,1.737c-1.162-.443-2.324-.886-3.506-1.273a2.87,2.87,0,0,1-1.17-.589,1.58,1.58,0,0,1-.4-1.4,2.1,2.1,0,0,1,.8-1.244" transform="translate(-11.418 -32.038)" fill="#fd9f96"/>
          <path id="Trazado_1005918" data-name="Trazado 1005918" d="M36.785,163.809a1.546,1.546,0,0,0,.347,1.936,3.506,3.506,0,0,0,1.971.76,10.512,10.512,0,0,1,2.114.348,2.8,2.8,0,0,0,.114-1.33,16.149,16.149,0,0,0-4.547-1.714" transform="translate(-11.635 -32.71)" fill="#fd9f96"/>
          <path id="Trazado_1005919" data-name="Trazado 1005919" d="M42.219,167.033a.535.535,0,0,0,.011-.638,1.3,1.3,0,0,0-.537-.416,5.078,5.078,0,0,0-3.652-.312.924.924,0,0,0-.1,1.151,1.511,1.511,0,0,0,1.05.619,4.493,4.493,0,0,0,1.251-.035l1.461-.179a.805.805,0,0,0,.513-.19" transform="translate(-11.877 -33.041)" fill="#fd9f96"/>
          <path id="Trazado_1005920" data-name="Trazado 1005920" d="M38.425,168.64a4.394,4.394,0,0,0,1.618.307,2.1,2.1,0,0,0,1.407-.439.561.561,0,0,0,.22-.551.656.656,0,0,0-.462-.351,5.424,5.424,0,0,0-2.609-.2c-.347.06-.76.237-.773.588-.012.312.308.525.6.64" transform="translate(-11.885 -33.414)" fill="#fd9f96"/>
          <path id="Trazado_1005921" data-name="Trazado 1005921" d="M33.97,157.793a4.483,4.483,0,0,0,2.218,2.145,1.139,1.139,0,0,0,.9.226c.479-.165.5-.858.276-1.31a4.718,4.718,0,0,1-.691-1.341,3.143,3.143,0,0,1,.591-1.726,4.3,4.3,0,0,0,0-3.735,7.161,7.161,0,0,0-3.02,3.309,3.411,3.411,0,0,0-.275,2.433" transform="translate(-11.09 -30.363)" fill="#fd9f96"/>
          <path id="Trazado_1005922" data-name="Trazado 1005922" d="M94.181,158.078c-.337-8.627.2-17.338-1.694-24.714a257.65,257.65,0,0,0-4.258-34.519c-6.916-.086-14.5-.164-21.342.872-1.248,9.426-2.875,19.268-6.124,28.2-5.347,8.343-6.768,18.667-7.216,30.158-.514,13.165.818,26.414-.122,39.53a189.59,189.59,0,0,0,41.709-.751c-.251-14.406-.439-25.613-.952-38.778" transform="translate(-14.999 -19.729)" fill="#f4b148"/>
          <path id="Trazado_1005923" data-name="Trazado 1005923" d="M80.148,122.165a12.9,12.9,0,0,0,4.968.231,7.206,7.206,0,0,0,4.306-2.344,7.834,7.834,0,0,0,1.609-3.917,23.373,23.373,0,0,0,.1-4.28q-7.272.475-14.567.431a17.985,17.985,0,0,0,.23,6.555,4.487,4.487,0,0,0,1.066,2.3,4.58,4.58,0,0,0,2.292,1.028" transform="translate(-19.58 -22.336)" fill="#d39346"/>
          <path id="Trazado_1005924" data-name="Trazado 1005924" d="M58.682,142.508a22.486,22.486,0,0,1,2.045-7.248c-5.316,8.334-6.733,18.635-7.18,30.1-.514,13.165.817,26.414-.122,39.53,1.459.122,2.911.222,4.361.316a545.85,545.85,0,0,1,.9-62.7" transform="translate(-14.999 -27.01)" fill="#d39346"/>
          <path id="Trazado_1005925" data-name="Trazado 1005925" d="M73.962,98.435,66.906,83.74c-1,.385-.677.826-1.677,1.21L69.9,100a2.092,2.092,0,0,0,2.757,1.345l.086-.032a2.1,2.1,0,0,0,1.218-2.874" transform="translate(-17.357 -16.722)" fill="#f4b148"/>
          <path id="Trazado_1005926" data-name="Trazado 1005926" d="M96.822,92.083c.125-1.278-.14-3.364-.14-4.648a11.034,11.034,0,0,0-2.615-1.875c.032,4.042.013,7.649-1.43,11.424a1.861,1.861,0,0,0,1.2,2.459l.042.013a1.861,1.861,0,0,0,2.379-1.6l.564-5.77" transform="translate(-22.804 -17.085)" fill="#f4b148"/>
          <path id="Trazado_1005927" data-name="Trazado 1005927" d="M82.057,120.277a6.488,6.488,0,0,1-2.882-.533A5.832,5.832,0,0,1,76.3,116.19a17.109,17.109,0,0,1-.655-4.534l-.011-.209.21.006a93.744,93.744,0,0,0,14.986-.753l.194-.026.022.2c.289,2.5.456,5.328-1.215,7.21-1.566,1.766-4.175,2.039-6.5,2.156-.406.02-.839.041-1.273.041m-6.019-8.433a16.023,16.023,0,0,0,.625,4.224,5.534,5.534,0,0,0,2.677,3.329,6.133,6.133,0,0,0,2.717.5c.425,0,.853-.02,1.253-.041,2.245-.113,4.762-.372,6.229-2.026,1.524-1.717,1.408-4.347,1.143-6.717a93.761,93.761,0,0,1-14.644.736" transform="translate(-19.434 -22.1)" fill="#351220"/>
          <path id="Trazado_1005928" data-name="Trazado 1005928" d="M91.062,134.9a89.533,89.533,0,0,0-21.855,2.454l24.958-.748c-.936-.888-.958-1.152-2.189-1.537Z" transform="translate(-18.151 -26.935)" fill="#d39346"/>
          <path id="Trazado_1005929" data-name="Trazado 1005929" d="M63.273,142.579c-.039.421.527.59.948.6,6.5.213,13.038-.685,19.487.139a29.733,29.733,0,0,0,4.864.462,6.516,6.516,0,0,0,4.456-1.714c.319-.327.6-.846.327-1.216a1.1,1.1,0,0,0-.765-.336,71.485,71.485,0,0,0-28.614,1.514c-.307.081-.674.23-.7.547" transform="translate(-16.966 -27.902)" fill="#d39346"/>
          <path id="Trazado_1005930" data-name="Trazado 1005930" d="M93.679,147.443c-9.821-1.456-20.1-1.437-29.388,2.063-.715.27-1.569.834-1.357,1.568.186.645,1.033.768,1.7.769l15.6.013a2.567,2.567,0,0,1,1.2.2.881.881,0,0,1,.487,1.015,1.289,1.289,0,0,1-.681.6l-3.17,1.657c-.581.3-1.262.83-1.062,1.454.146.454.68.632,1.143.747l4.391,1.087a5.148,5.148,0,0,1,2.006.812,1.757,1.757,0,0,1,.671,1.922c1.435-.5,3.006-.132,4.526-.127s3.295-.6,3.7-2.062a6.355,6.355,0,0,0-.278-2.762,6.83,6.83,0,0,1,2.506-6.484Z" transform="translate(-16.892 -29.26)" fill="#d39346"/>
          <path id="Trazado_1005931" data-name="Trazado 1005931" d="M74.1,101.142a1.057,1.057,0,1,1-1.057-1.057,1.057,1.057,0,0,1,1.057,1.057" transform="translate(-18.706 -19.986)" fill="#884f3e"/>
          <path id="Trazado_1005932" data-name="Trazado 1005932" d="M96.54,100.159c0,.48-.271.869-.607.869s-.607-.389-.607-.869.271-.869.607-.869.607.389.607.869" transform="translate(-23.367 -19.827)" fill="#884f3e"/>
          <path id="Trazado_1005933" data-name="Trazado 1005933" d="M68.973,138.037l-.108-.37A61.156,61.156,0,0,1,92.616,135.6l-.042.382a60.789,60.789,0,0,0-23.6,2.052" transform="translate(-18.083 -27.005)" fill="#351220"/>
          <path id="Trazado_1005934" data-name="Trazado 1005934" d="M88.168,152.664c-1.577,0-3.153-.056-4.719-.169l.027-.383a66.033,66.033,0,0,0,10.12-.057l.032.383c-1.813.15-3.637.226-5.461.226" transform="translate(-20.995 -30.363)" fill="#351220"/>
          <path id="Trazado_1005935" data-name="Trazado 1005935" d="M72.832,221.759c-6.491,0-12.977-.282-19.424-.848l.033-.383a222.9,222.9,0,0,0,41.754-.279l.038.383a223.205,223.205,0,0,1-22.4,1.126" transform="translate(-14.996 -43.981)" fill="#351220"/>
          <path id="Trazado_1005936" data-name="Trazado 1005936" d="M55.12,206.088a463.091,463.091,0,0,1,1.385-59.5l.383.031A462.627,462.627,0,0,0,55.5,206.071Z" transform="translate(-15.256 -29.271)" fill="#351220"/>
        </g>
      </g>
    </g>
  </g>
</svg>
