<svg xmlns="http://www.w3.org/2000/svg" xmlns:xlink="http://www.w3.org/1999/xlink" width="150" height="150" viewBox="0 0 150 150">
  <defs>
    <clipPath id="clip-path">
      <rect id="Rectángulo_459305" data-name="Rectángulo 459305" width="150" height="122.835" fill="none"/>
    </clipPath>
    <clipPath id="clip-path-3">
      <rect id="Rectángulo_459297" data-name="Rectángulo 459297" width="86.913" height="50.18" fill="none"/>
    </clipPath>
    <clipPath id="clip-path-5">
      <rect id="Rectángulo_459299" data-name="Rectángulo 459299" width="74.93" height="43.261" fill="none"/>
    </clipPath>
    <clipPath id="clip-path-6">
      <rect id="Rectángulo_459300" data-name="Rectángulo 459300" width="4.007" height="6.126" fill="none"/>
    </clipPath>
    <clipPath id="clip-path-7">
      <rect id="Rectángulo_459301" data-name="Rectángulo 459301" width="7.73" height="2.87" fill="none"/>
    </clipPath>
    <clipPath id="clip-path-8">
      <rect id="Rectángulo_459302" data-name="Rectángulo 459302" width="1.986" height="2.957" fill="none"/>
    </clipPath>
    <clipPath id="clip-path-9">
      <rect id="Rectángulo_459303" data-name="Rectángulo 459303" width="2.65" height="3.157" fill="none"/>
    </clipPath>
  </defs>
  <g id="Grupo_1190890" data-name="Grupo 1190890" transform="translate(-981 -1114)">
    <g id="Grupo_1190875" data-name="Grupo 1190875" transform="translate(523.289 -4779)">
      <rect id="Rectángulo_459312" data-name="Rectángulo 459312" width="150" height="150" transform="translate(457.711 5893)" fill="none"/>
    </g>
    <g id="Grupo_1190854" data-name="Grupo 1190854" transform="translate(981 1128)">
      <g id="Grupo_1190853" data-name="Grupo 1190853" clip-path="url(#clip-path)">
        <path id="Trazado_1006618" data-name="Trazado 1006618" d="M119.649,146.308v7.726l64.593-37.293v-7.726Z" transform="translate(-34.242 -31.199)" fill="#7a3d23"/>
        <path id="Trazado_1006619" data-name="Trazado 1006619" d="M119.649,146.308v2.943l64.593-37.292v-2.944Z" transform="translate(-34.242 -31.199)" fill="#5a7a01"/>
        <path id="Trazado_1006620" data-name="Trazado 1006620" d="M0,99.906l85.407,49.31V141.49L0,92.18Z" transform="translate(0 -26.381)" fill="#7a3d23"/>
        <path id="Trazado_1006621" data-name="Trazado 1006621" d="M0,95.123l85.407,49.309V141.49L0,92.18Z" transform="translate(0 -26.381)" fill="#637a02"/>
        <path id="Trazado_1006622" data-name="Trazado 1006622" d="M0,77.228l85.407,49.31L150,89.245,64.594,39.935Z" transform="translate(0 -11.429)" fill="#82a002"/>
        <g id="Grupo_1190835" data-name="Grupo 1190835">
          <g id="Grupo_1190834" data-name="Grupo 1190834" clip-path="url(#clip-path)">
            <g id="Grupo_1190833" data-name="Grupo 1190833" transform="translate(61.196 29.187)" style="mix-blend-mode: multiply;isolation: isolate">
              <g id="Grupo_1190832" data-name="Grupo 1190832">
                <g id="Grupo_1190831" data-name="Grupo 1190831" clip-path="url(#clip-path-3)">
                  <path id="Trazado_1006623" data-name="Trazado 1006623" d="M85.731,42.486l84.146,48.583,2.767-1.6L88.5,40.888Z" transform="translate(-85.731 -40.889)" fill="#c1c8e0"/>
                </g>
              </g>
            </g>
          </g>
        </g>
        <path id="Trazado_1006624" data-name="Trazado 1006624" d="M89.56,0,87.283,1.314l2.069,1.195,2.276-1.315Z" transform="translate(-24.979 0)" fill="#e8b969"/>
        <path id="Trazado_1006625" data-name="Trazado 1006625" d="M91.629,42.828,89.56,41.634l-2.276,1.314,2.069,1.194Z" transform="translate(-24.979 -11.915)" fill="#e8b969"/>
        <path id="Trazado_1006626" data-name="Trazado 1006626" d="M89.353,3.035,87.284,1.841V31.56l2.069,1.194Z" transform="translate(-24.98 -0.527)" fill="#d6934b"/>
        <path id="Trazado_1006627" data-name="Trazado 1006627" d="M92.458,1.673V31.392l-2.276,1.314V2.987Z" transform="translate(-25.809 -0.479)" fill="#e3ae52"/>
        <path id="Trazado_1006628" data-name="Trazado 1006628" d="M91.044,29.5,128.956,51.39V49.652L91.044,27.763Z" transform="translate(-26.056 -7.945)" fill="#c98f4d"/>
        <path id="Trazado_1006629" data-name="Trazado 1006629" d="M91.044,27.42,128.956,49.31l1.483-.857L92.527,26.565Z" transform="translate(-26.056 -7.602)" fill="#e8b969"/>
        <path id="Trazado_1006630" data-name="Trazado 1006630" d="M91.044,13.075l37.912,21.889V33.226L91.044,11.337Z" transform="translate(-26.056 -3.244)" fill="#c98f4d"/>
        <path id="Trazado_1006631" data-name="Trazado 1006631" d="M91.044,10.994l37.912,21.889,1.483-.857L92.527,10.138Z" transform="translate(-26.056 -2.901)" fill="#e8b969"/>
        <path id="Trazado_1006632" data-name="Trazado 1006632" d="M148.411,33.978l-2.069-1.194L144.066,34.1l2.069,1.194Z" transform="translate(-41.23 -9.382)" fill="#e8b969"/>
        <path id="Trazado_1006633" data-name="Trazado 1006633" d="M146.135,35.819l-2.069-1.194V64.344l2.069,1.194Z" transform="translate(-41.23 -9.909)" fill="#d6934b"/>
        <path id="Trazado_1006634" data-name="Trazado 1006634" d="M149.241,34.457V64.175l-2.276,1.314V35.771Z" transform="translate(-42.059 -9.861)" fill="#e3ae52"/>
        <path id="Trazado_1006635" data-name="Trazado 1006635" d="M148.411,33.978l-2.069-1.194L144.066,34.1l2.069,1.194Z" transform="translate(-41.23 -9.382)" fill="#e8b969"/>
        <path id="Trazado_1006636" data-name="Trazado 1006636" d="M148.411,75.612l-2.069-1.194-2.276,1.314,2.069,1.194Z" transform="translate(-41.23 -21.297)" fill="#e8b969"/>
        <path id="Trazado_1006637" data-name="Trazado 1006637" d="M146.135,35.819l-2.069-1.194V64.344l2.069,1.194Z" transform="translate(-41.23 -9.909)" fill="#d6934b"/>
        <path id="Trazado_1006638" data-name="Trazado 1006638" d="M149.241,34.457V64.175l-2.276,1.314V35.771Z" transform="translate(-42.059 -9.861)" fill="#e3ae52"/>
        <path id="Trazado_1006639" data-name="Trazado 1006639" d="M147.827,62.285l37.912,21.889V82.436L147.827,60.547Z" transform="translate(-42.306 -17.328)" fill="#c98f4d"/>
        <path id="Trazado_1006640" data-name="Trazado 1006640" d="M147.827,60.2l37.912,21.889,1.483-.857L149.309,59.348Z" transform="translate(-42.306 -16.985)" fill="#e8b969"/>
        <path id="Trazado_1006641" data-name="Trazado 1006641" d="M147.827,45.859l37.912,21.889V66.01L147.827,44.121Z" transform="translate(-42.306 -12.627)" fill="#c98f4d"/>
        <path id="Trazado_1006642" data-name="Trazado 1006642" d="M147.827,43.778l37.912,21.889,1.483-.857L149.309,42.922Z" transform="translate(-42.306 -12.284)" fill="#e8b969"/>
        <path id="Trazado_1006643" data-name="Trazado 1006643" d="M205.194,66.762l-2.069-1.194-2.276,1.314,2.069,1.194Z" transform="translate(-57.48 -18.765)" fill="#e8b969"/>
        <path id="Trazado_1006644" data-name="Trazado 1006644" d="M202.917,68.6l-2.069-1.194V97.127l2.069,1.194Z" transform="translate(-57.48 -19.291)" fill="#d6934b"/>
        <path id="Trazado_1006645" data-name="Trazado 1006645" d="M206.023,67.24V96.959l-2.276,1.314V68.555Z" transform="translate(-58.31 -19.243)" fill="#e3ae52"/>
        <g id="Grupo_1190852" data-name="Grupo 1190852">
          <g id="Grupo_1190851" data-name="Grupo 1190851" clip-path="url(#clip-path)">
            <g id="Grupo_1190838" data-name="Grupo 1190838" transform="translate(33.405 54.982)" style="mix-blend-mode: multiply;isolation: isolate">
              <g id="Grupo_1190837" data-name="Grupo 1190837">
                <g id="Grupo_1190836" data-name="Grupo 1190836" clip-path="url(#clip-path-5)">
                  <path id="Trazado_1006646" data-name="Trazado 1006646" d="M112.074,118.334l6.273-3.622c5.011-2.893,4.377-7.995-1.41-11.336L76.087,79.792c-5.787-3.341-14.622-3.708-19.635-.814L50.18,82.6c-5.012,2.894-4.377,7.995,1.41,11.336l40.85,23.585c5.788,3.341,14.622,3.708,19.635.814" transform="translate(-46.798 -77.026)" fill="#c1c8e0"/>
                </g>
              </g>
            </g>
            <path id="Trazado_1006647" data-name="Trazado 1006647" d="M134.993,99.6a10.577,10.577,0,0,0-1.139-4.177,11.389,11.389,0,0,1-1.4-7.344c.7-4.019-.374-6.449-.143-8.729s-.383-5.047,1.9-4.234,5.257,4.845,6.922,8.118,1.752,8.853,1.139,11.213a26,26,0,0,1-1.665,4.468,78.037,78.037,0,0,1,.088,8.194c-.263,1.658-2.779,3.168-5.144,1.6a15.785,15.785,0,0,1-3.592-3.18s-3.486-5.276-5.107-5.709-4.424-3.107-4.424-3.107-1.489-4.58-1.051-5.533c1.84,1.012,3.2,1.495,3.5,2.174s1.708-.22,2.628.814,2.8,2.875,2.8,2.875,1.095,1.236,2.366,2.421A2.963,2.963,0,0,0,134.9,100.5Z" transform="translate(-34.711 -21.456)" fill="#82260a"/>
            <path id="Trazado_1006648" data-name="Trazado 1006648" d="M80.548,51.234c2.771.919,4.876,5.651,4.876,5.651s5.548,9.638,4.79,11.009-4.03,2.633-4.381,3.235.175,2.58.175,2.58l4.031,2.327s3.62,1.421,5.606,2.165a10.307,10.307,0,0,1,4.206,3.032,7.575,7.575,0,0,1,1.343,3.188,10.683,10.683,0,0,1,1.635,2.888c.235,1.073-1.168.666-2.278.092a22.758,22.758,0,0,1-3.445-2.861c-.176-.168.291-.368-.877-1.779s-2.511-2.321-3.621-2.292-5.491-2.164-8.352-3.75-2.512,1.566-5.725-2.5S78.357,68.555,77.306,66s-3.564-3.666-3.68-7.352-.934-5.835,0-7.439,6.923.021,6.923.021" transform="translate(-20.944 -14.454)" fill="#942f11"/>
            <path id="Trazado_1006649" data-name="Trazado 1006649" d="M124.742,81.748a44.675,44.675,0,0,1-4.047,4.368c-2.595-.37-5.992.222-7.164,2.88s-7.429,5.533-9.841,6.521-8.319-1.188-11.037-2.794-4.472.646-11.143-1.7-8.9-7.195-10.819-7.965-2.471-.465-5-3.553a5.654,5.654,0,0,1-.622-1.017c-2.431-4.9-6.958-19.488-6.5-20.852.494-1.482,4.485-4.027,5.908-4.623s3.72-2.091,6.378-1.78,4.4-.534,7.779,1.846c9.031,6.361,17.916,6.276,22.8,8.188s7.057,1.437,10.024,2.907c8.318,4.122,6.4,5.476,9.245,6.259,4.03,1.11,3.78.074,5.944-.051s-.387,5.17-.016,7.517c.148.924-.746,2.4-1.882,3.85" transform="translate(-16.751 -14.65)" fill="#ad4929"/>
            <path id="Trazado_1006650" data-name="Trazado 1006650" d="M62.641,54.237c-1.806-1.112-2.528.069-3.533,1.453s-2.2,6.179-2.758,8.573a26.632,26.632,0,0,0-.977,7.172,10.336,10.336,0,0,0,1.121,3.635l.256-4.279s1.677-9.578,2.27-10.858,3.621-5.7,3.621-5.7" transform="translate(-15.839 -15.396)" fill="#ad4929"/>
            <path id="Trazado_1006651" data-name="Trazado 1006651" d="M122.2,92.262c-.49,1.966-3.722,5.894-4.64,7.582a10.3,10.3,0,0,1-4.632,4.7c-1.9,1.024-12.36,3.033-17.09-.705s-3.378-3.457-11.087-6.5S65.095,86.465,62.706,83.1a4.1,4.1,0,0,0-2.1-1.258c-1.547-.74-2.029-.443-3.152-1.392-1.519-1.278-2.579-8.386-3.164-11.269s3.168-9.931,3.813-10.9,7.811,2.211,11.027,3.73,14.642,6.981,21.046,8.4,2.856-.7,8.99,2.776c3.789,2.144,11.637,2.2,13.788,3.536a42.981,42.981,0,0,0,.4,5.012c.091.882.163,1.7.163,2.357-.008,4.718,6.407,4.109,8.686,8.172" transform="translate(-15.52 -16.627)" fill="#ad4929"/>
            <path id="Trazado_1006652" data-name="Trazado 1006652" d="M124.759,94.029c-.49,1.966-3.722,5.894-4.64,7.582a10.3,10.3,0,0,1-4.632,4.7c-1.9,1.024-12.36,3.033-17.09-.705s-3.378-3.457-11.087-6.5S67.652,88.233,65.263,84.864a4.1,4.1,0,0,0-2.1-1.258c2.033-6.146,5.68-12.582,7.6-19.334,5.249,3.342,3.651,12.084,3.544,14.279s.4,3.342.008,6.546,12.063,9.454,15.572,11.719,6.875-.387,6.973-4.046,3.572-5.439,3.678-8.631,10.791,6.3,11.043,8.828a20.77,20.77,0,0,1-.236,5.137s-.445,1.983,2.024-.651c-.993-5.2.794-8.836,2.535-13.954.091.882.163,1.7.163,2.357-.008,4.718,6.407,4.109,8.686,8.172" transform="translate(-18.078 -18.394)" fill="#942f11"/>
            <path id="Trazado_1006653" data-name="Trazado 1006653" d="M121.737,102.421a26.066,26.066,0,0,1-1.918,4.362s-.732,9.94-.356,11.574a1.117,1.117,0,0,1,.02.38c-.166,1.5-3.251,2.867-5.435,1.42a29.84,29.84,0,0,1-3.236-2.361s-5.07-2.563-6.736-2.78-4.794-2.5-4.794-2.5.19-.479.443-1.124c.391-1,.934-2.417,1.123-3.03,1.958.764,1.266-.281,1.662.352.186.3.565.218,1.029.143a1.887,1.887,0,0,1,1.68.321c1.049.9,3.161,2.48,3.161,2.48s1.246,1.08,2.662,2.089a2.961,2.961,0,0,0,2.349.735l.087-.9a10.594,10.594,0,0,0-1.135-4.177s-1.5-1.737-1.718-5.81a72.424,72.424,0,0,1,.171-10.264c.2-1.982-.237-4.327,1.139-4.375h0a2.03,2.03,0,0,1,.752.143c2.278.811,5.3-1.306,6.965,1.969s2.828,9.034,2.081,11.356" transform="translate(-28.413 -25.457)" fill="#ad4929"/>
            <path id="Trazado_1006654" data-name="Trazado 1006654" d="M119.483,127.575c-.166,1.5-3.251,2.867-5.434,1.42a29.733,29.733,0,0,1-3.236-2.361s-5.071-2.563-6.736-2.78-4.793-2.5-4.793-2.5.19-.479.443-1.124l1.109-.4c3.644.292,3.964,3.311,7.784,4.561s5.536,1.384,5.932,2.4,1.448,2.171,4.232.957a2.22,2.22,0,0,1,.7-.182" transform="translate(-28.414 -34.295)" fill="#a63513"/>
            <path id="Trazado_1006655" data-name="Trazado 1006655" d="M76.978,99.735a4.751,4.751,0,0,1-1.253-.886,1.436,1.436,0,0,1-.36-.51c-.075-.229.455-.668-.712-2.081s-5.684-3.2-6.78-3.389-2.97-1.966-5.83-3.552S56.4,87.944,55.125,86.2c-2.532-3.461,1.566-4.944.514-7.5a26.745,26.745,0,0,1-2.3-9.434c-.118-3.686,3.074-8.907,4.007-10.513a1.478,1.478,0,0,1,1.238-.593,13.966,13.966,0,0,1,4.774,1.08c2.772,1.392,5.071,3.061,6.34,5.972,1.266,2.891,1.523,7,.226,13.3-.316,1.535-3.765,3.271-4.117,3.872s-2.1,1.285-2.1,1.285,3.393,3.667,5.364,4.458c8.041,3.22,9.674,6.028,10.572,7.215.2.265.02.949.02.949s.1.807.229,1.669c.076.487.158.989.246,1.377.233,1.071-2.053.965-3.164.391" transform="translate(-15.264 -16.644)" fill="#ad4929"/>
            <path id="Trazado_1006656" data-name="Trazado 1006656" d="M83.138,100.8a2.215,2.215,0,0,1-1.435-.486c-1.25-1.187-1.491-5.032-3.592-5.866s-7.78-2.6-9.129-4.256S66.64,88.28,64.663,86.96c2.076-3.525,4.548-2.635,6.823-5.371S73.464,70.316,72.9,68.041a.159.159,0,0,1,.039.008c1.266,2.892,1.523,7.005.226,13.3-.316,1.534-3.765,3.271-4.117,3.872s-2.1,1.286-2.1,1.286,3.393,3.666,5.363,4.458c8.042,3.219,9.675,6.027,10.573,7.215.2.265.02.949.02.949s.1.807.229,1.669" transform="translate(-18.506 -19.472)" fill="#a63513"/>
            <path id="Trazado_1006657" data-name="Trazado 1006657" d="M76.187,97.026l-.463,1.827a1.436,1.436,0,0,1-.36-.51c-.075-.229.455-.668-.712-2.081s-5.683-3.2-6.779-3.389-2.971-1.967-5.83-3.552-5.644-1.373-6.918-3.113c-2.532-3.461,1.566-4.945.514-7.5a26.726,26.726,0,0,1-2.3-9.433c-.119-3.686,3.073-8.907,4.007-10.513a1.478,1.478,0,0,1,1.238-.593A19.921,19.921,0,0,0,55.26,73.1c.593,4.549,2.832,4.909,2.239,6.823s-3.658,3.164-2.041,5.205,3.524,1.617,5.933,2.408a15.445,15.445,0,0,1,5.292,3.129c1.4,1.155,2.452,1.187,4.363,1.618a10.4,10.4,0,0,1,4.845,3.294c.4.617.032.57.076.922a1.5,1.5,0,0,0,.221.53" transform="translate(-15.265 -16.648)" fill="#942f11"/>
            <path id="Trazado_1006658" data-name="Trazado 1006658" d="M160.152,70.258c-.979.046-4.776,1.484-5.29,2.463s-.235,1.91-1.213,3.169,1.89,1.964,3.428,1.637,1.491-1.631,1.91-3.029a7.223,7.223,0,0,1,2.432-3.449c.885-.605-1.267-.791-1.267-.791" transform="translate(-43.915 -20.107)" fill="#ba4f2c"/>
            <g id="Grupo_1190841" data-name="Grupo 1190841" transform="translate(113.345 50.87)" style="mix-blend-mode: multiply;isolation: isolate">
              <g id="Grupo_1190840" data-name="Grupo 1190840">
                <g id="Grupo_1190839" data-name="Grupo 1190839" clip-path="url(#clip-path-6)">
                  <path id="Trazado_1006659" data-name="Trazado 1006659" d="M162.8,71.267c-1.794-.07-3.309,1.572-2.983,2.952s-1.025,2.8-1.025,2.919.319.5.77,0,1.048-4.077,3.239-5.871" transform="translate(-158.788 -71.265)" fill="#eb874b"/>
                </g>
              </g>
            </g>
            <path id="Trazado_1006660" data-name="Trazado 1006660" d="M159.584,104.2a7.212,7.212,0,0,1-2.523,2.276,6.13,6.13,0,0,1-1.359.459,22.069,22.069,0,0,0-2.274.532s-.584.443-2.214-.433a28.047,28.047,0,0,1-3.608-2.49c-2.583-.352-2.067-2.99-3.967-4.272s-3.907-1.662-5.377-4.318a16.459,16.459,0,0,1-1.409-3.2,9.509,9.509,0,0,1-.129-4.91c.7-3.142,1.817-6.15,4.127-7.755s3.757-2.57,5.278-2.806c4.007-.62,5.643-.2,7.06,1.208,3.074,3.055,4.8,7.216,4.7,9.647-.086,2.126.381,8.806,2.022,11.133,1.714,2.429.352,3.861-.324,4.927" transform="translate(-39.054 -22.037)" fill="#ad4929"/>
            <path id="Trazado_1006661" data-name="Trazado 1006661" d="M131.038,85.8c-.355-1.382,1.884-3.944,4.251-3.821s4.131,1.158,6.746,0a2.319,2.319,0,0,1,.348,2.939c-.47.641-1.378,3.46-2.566,3.134s-1.083-1.894-1.4-2.007c-1.165-.416-4.812.81-7.38-.246" transform="translate(-37.491 -23.461)" fill="#ba4f2c"/>
            <path id="Trazado_1006662" data-name="Trazado 1006662" d="M148.913,81.115c-.175.892-1.014,1.382-.647,1.871s1.817.542,1.73,0-.263-1.68-1.084-1.871" transform="translate(-42.406 -23.214)" fill="#f7f7ff"/>
            <path id="Trazado_1006663" data-name="Trazado 1006663" d="M155.316,78.146c-.175.892-1.014,1.382-.647,1.871s1.817.542,1.73,0-.263-1.68-1.084-1.871" transform="translate(-44.238 -22.364)" fill="#f7f7ff"/>
            <g id="Grupo_1190844" data-name="Grupo 1190844" transform="translate(94.311 59.784)" style="mix-blend-mode: multiply;isolation: isolate">
              <g id="Grupo_1190843" data-name="Grupo 1190843">
                <g id="Grupo_1190842" data-name="Grupo 1190842" clip-path="url(#clip-path-7)">
                  <path id="Trazado_1006664" data-name="Trazado 1006664" d="M132.123,86.257c.256-1.095,1.3-2.974,3.355-2.4s2.912,1.22,4.24,1.144c.163.67.326,2.206-.466,1.379s-4.03.688-7.129-.127" transform="translate(-132.123 -83.753)" fill="#eb874b"/>
                </g>
              </g>
            </g>
            <path id="Trazado_1006665" data-name="Trazado 1006665" d="M157.216,112.787a7.911,7.911,0,0,1-1.425.687c-1.326.241-2.208.3-2.208.3s-.427,1.272-2.057.4a8.467,8.467,0,0,1-2.486-1.971c-1.553-.235-3.271-4.084-5.172-5.366s-3.98-1.917-5.451-4.573a16.46,16.46,0,0,1-1.409-3.2c.693.822,1.251,1.031,1.862,1.94.519.779,1.5,2.119,2.424,2,1.012-.129,2.091-.878,2.947-.325.442.286.22,1.284.415,1.771,1.191,3,.009,3.207,2.757,4.882a9.641,9.641,0,0,0,3.272.73,18.257,18.257,0,0,0,2.4.051c.736,0,.3.847.949.461.742-.44.474-1.6,1.359-1.034.6.384.559-.066.9.556l.435-.2a7.317,7.317,0,0,0,.483,2.883" transform="translate(-39.21 -28.351)" fill="#942f11"/>
            <path id="Trazado_1006666" data-name="Trazado 1006666" d="M153.971,95.818a6.307,6.307,0,0,0-.463-1.206c-.732-1.377-2.275-.672-3.276-1.428a10.392,10.392,0,0,1-2.518-3.508c.029.056-.47,1.618-.512,1.838a2.705,2.705,0,0,1-.925,1.8,2.593,2.593,0,0,0-.417.291.954.954,0,0,0-.113,1.017,3.778,3.778,0,0,0,.623.882c1.373,1.672,2.093,4.029,4.037,4.977.984.479.48.832,1.435,1.37,1.258.708.485,2.33,1.823,2.872-.326-.132.678-2.568.535-2.969-.374-1.046.9-2.406.487-3.436-.307-.762-.473-1.667-.715-2.5" transform="translate(-41.684 -25.664)" fill="#a63513"/>
            <path id="Trazado_1006667" data-name="Trazado 1006667" d="M151.137,95.694l-.166-.044c-.752-.2-1.51-.385-2.265-.577a.629.629,0,0,0-.2-.028.423.423,0,0,0-.333.452,1.358,1.358,0,0,0,.211.577,8.418,8.418,0,0,0,1.593,2.6,5.594,5.594,0,0,0,3.2,1,10.539,10.539,0,0,1-.382-1.25,6.73,6.73,0,0,1-.433-1.636,1.789,1.789,0,0,0-.044-.371c-.121-.437-.743-.609-1.186-.725" transform="translate(-42.406 -27.201)" fill="#a63513"/>
            <path id="Trazado_1006668" data-name="Trazado 1006668" d="M151.992,97.061c-.186-.326-1.165-1.188-1.724-1.014s-.14,1.154.373,1.433,1.91.8,1.91.8Z" transform="translate(-42.929 -27.481)" fill="#22222c"/>
            <path id="Trazado_1006669" data-name="Trazado 1006669" d="M165.889,110.338c-.8-.273-1.183,1.007-1.183,1.007s-2.612,1.509-3.775.855a1.968,1.968,0,0,0-2.52.547c-.555.517-1.494-.026-1.8.885s-1.27,1.855-1,2.642a2.326,2.326,0,0,0,1.708,1.407,13.007,13.007,0,0,0,2.1-.046,31.441,31.441,0,0,0,4.6-1.761,4.266,4.266,0,0,0,2.393-3.361c.248-.869.421-1.584-.052-1.879Z" transform="translate(-44.521 -31.566)" fill="#ffa399"/>
            <g id="Grupo_1190847" data-name="Grupo 1190847" transform="translate(114.749 81.738)" style="mix-blend-mode: multiply;isolation: isolate">
              <g id="Grupo_1190846" data-name="Grupo 1190846">
                <g id="Grupo_1190845" data-name="Grupo 1190845" clip-path="url(#clip-path-8)">
                  <path id="Trazado_1006670" data-name="Trazado 1006670" d="M161.02,114.508a3.936,3.936,0,0,0-.245,1.9s.671,1.166,1.579,1.053-.011-.784-.442-1.825-.892-1.125-.892-1.125" transform="translate(-160.755 -114.508)" fill="#eb874b"/>
                </g>
              </g>
            </g>
            <g id="Grupo_1190850" data-name="Grupo 1190850" transform="translate(118.963 79.711)" style="mix-blend-mode: multiply;isolation: isolate">
              <g id="Grupo_1190849" data-name="Grupo 1190849">
                <g id="Grupo_1190848" data-name="Grupo 1190848" clip-path="url(#clip-path-9)">
                  <path id="Trazado_1006671" data-name="Trazado 1006671" d="M168.823,111.67c-.57.7-.425,1.228-.828,2.178a1.944,1.944,0,0,1-1.294.979c.28-.006,1.822-.562,1.967-1.206a19.044,19.044,0,0,1,.641-1.912Z" transform="translate(-166.658 -111.67)" fill="#eb874b"/>
                </g>
              </g>
            </g>
            <path id="Trazado_1006672" data-name="Trazado 1006672" d="M102.032,116.186a2.793,2.793,0,0,0-.506-.617,9.862,9.862,0,0,0-1.607-.89,4.933,4.933,0,0,0-2.266,2.406c-.614,1.619-.36,2.189-.1,2.42s3.385,2.03,3.583,2.1a1.524,1.524,0,0,0,.439.062s-2.043-1.036-1.51-2.715.831-2.391,1.964-2.761" transform="translate(-27.838 -32.819)" fill="#22222c"/>
            <path id="Trazado_1006673" data-name="Trazado 1006673" d="M88.281,110.962c-.186.626-1.768.989-2.658.725a7.47,7.47,0,0,0-2.044-.318H83.2s.666.694.6,1.148a9.646,9.646,0,0,0-.051,1.345,5.062,5.062,0,0,0,3.642,1.813c1.517-.132,1.615-.56,1.55-.907s-.655-3.807-.655-3.807" transform="translate(-23.81 -31.756)" fill="#22222c"/>
            <path id="Trazado_1006674" data-name="Trazado 1006674" d="M115.949,114.9a4.734,4.734,0,0,1-2.962.092c-.989-.4-3.932-1.507-4.648-3.042a6.944,6.944,0,0,0-3.014-2.971c-.036-.007-.064-.047-.079-.118a1.889,1.889,0,0,1,1.681.321c1.048.9,3.16,2.48,3.16,2.48s1.246,1.08,2.662,2.089a2.965,2.965,0,0,0,2.35.736l.087-.9a10.594,10.594,0,0,0-1.136-4.177s-1.5-1.737-1.717-5.81a72.208,72.208,0,0,1,.171-10.264c.2-1.982-.238-4.327,1.139-4.375h0c-1.1,3.825,1.323,7.018.47,11.607s1.483,8.512,2.143,11.344.02,2.783-.311,2.992" transform="translate(-30.12 -25.457)" fill="#a63513"/>
          </g>
        </g>
      </g>
    </g>
  </g>
</svg>
