<svg xmlns="http://www.w3.org/2000/svg" xmlns:xlink="http://www.w3.org/1999/xlink" width="90.184" height="90.184" viewBox="0 0 90.184 90.184">
  <defs>
    <clipPath id="clip-path">
      <rect id="Rectángulo_459158" data-name="Rectángulo 459158" width="67.406" height="49.671" fill="#004e3d"/>
    </clipPath>
  </defs>
  <g id="Grupo_1190075" data-name="Grupo 1190075" transform="translate(-335.332 -4180)">
    <g id="Grupo_1110751" data-name="Grupo 1110751" transform="translate(0.332 -1714)">
      <g id="Grupo_1108938" data-name="Grupo 1108938" transform="translate(335 5894)">
        <g id="Grupo_1073526" data-name="Grupo 1073526" transform="translate(0 0)">
          <g id="Grupo_1072785" data-name="Grupo 1072785" transform="translate(0 0)">
            <path id="Trazado_608385" data-name="Trazado 608385" d="M45.092,0A45.092,45.092,0,1,1,0,45.092,45.092,45.092,0,0,1,45.092,0Z" transform="translate(0 0)" fill="none"/>
          </g>
          <g id="Grupo_1073383" data-name="Grupo 1073383" transform="translate(0 0)">
            <path id="Trazado_608385-2" data-name="Trazado 608385" d="M45.092,0A45.092,45.092,0,1,1,0,45.092,45.092,45.092,0,0,1,45.092,0Z" transform="translate(0 0)" fill="#d8dec8"/>
          </g>
        </g>
      </g>
    </g>
    <g id="Grupo_1190488" data-name="Grupo 1190488" transform="translate(346.721 4197.71)">
      <g id="Grupo_1190487" data-name="Grupo 1190487" clip-path="url(#clip-path)">
        <path id="Trazado_1006058" data-name="Trazado 1006058" d="M15.536,39.328c1.788-1.654,2.713-2.613,5.466-2.276.3-.251.968-6.357,1.574-7.6a.972.972,0,0,1,1.725-.127c.37.768-.372,2.612-.539,3.5-.322,1.709-.609,3.427-.851,5.149,1.791,1.971,3.342,4,6.02,1.872a22.652,22.652,0,0,0,1.6-1.608c.276-.627-.843-4.529-.779-5.636.048-.833.686-1.433,1.458-.931.864.562.962,5.178,1.274,5.373,2.833-.4,4.381.912,6.12,2.883L36.713,34.1c1.145-2.36,2.013-.246,2.562,1.128.7,1.748,1.042,3.728,1.879,5.368,2.023-.31,2.888-2.69,4.772-3.447.111-.5-2.867-4.174-3-4.911-.194-1.047.968-1.647,1.8-.777A39.909,39.909,0,0,1,47.7,36.223a3.765,3.765,0,0,1,.043,1.569c-.132.589-.985,1.172-.983,1.375l3.04,6.15a21.511,21.511,0,0,1,3.132-.822,32.908,32.908,0,0,0,3.493-.041c.354-.124.338-1.9,1.75-1.2,1.024.5-.456,1.894,1.512,2.2.956.15.824-1.344,2.111-.949,1.205.371.175,1.578.144,1.935-.019.22,2.478,2.5,2.972,3.2,6.272,8.81-.052,19.523-10.479,20.088-16.044.87-32.864-.675-48.989,0C2.771,69.7.393,68.172.027,65.384c-.228-1.738,1.049-5.576,1.594-7.406.653-2.193,1.444-4.365,2.243-6.508-2.424-1.608-1.079-4.147-.155-6.214.932-2.087,2.108-4.083,3.153-6.115.141-.3-.263-.22-.4-.381-1.07-1.277-.784-1.99-.114-3.317C6.619,34.909,8.4,32.3,8.4,32.1c0-.372-2.136-1.311-.777-2.278,1.048-.746,1.994,1.208,2.542.007.342-.749-1.6-1.551-1.143-2.639.615-1.46,2.078.106,2.652.79.888-.681,3.019-3.476,4.053-3.535.75-.043,1.117.879.823,1.516-.188.409-2.542,2.324-3.114,2.943-.834.9-5.873,7.523-5.7,8.234.409.4.964.574,1.413.946,1.23,1.02,2.167,2.8,4.019,2.677,1.183-.081,1.605-.729,2.367-1.433m15.186,1.554c-1.871,1.647-3.688,2.526-6.151,1.3-1.757-.872-2.625-3.3-4.8-3.25-1.883.046-2.954,2.394-4.53,3.213-2.747,1.426-4.918.138-6.844-1.881l-3.793,7.9c-.46,1.758.614,1.659,1.544,2.589,1.169,1.17,2.3,3.881,4.029,4.132,2.6.377,3.238-2.017,4.618-3.6,2.375-2.72,5.256-2.747,7.741-.178.2.2.712,1.143,1,.93a11.38,11.38,0,0,1,3.289-4.707c.294-.258,1.524-.958,1.572-1.039.209-.353-.8-1.185.028-1.9,1.156-1.007,1.764.887,1.926.9a10.982,10.982,0,0,0,1.53-.644c.147-.22-.7-1.995,1-1.876,1.139.079.819,1.419.924,1.529.072.076,1.729-.031,2.1,0a13.229,13.229,0,0,1,6.534,2.385c.925.659,1.62,1.491,2.532,2.145a15.14,15.14,0,0,1,3.147-2.607L45,40.27a5.157,5.157,0,0,1-6.631,1.915c-2.054-1.046-2.936-4.295-5.965-2.9-.839.386-1.129,1.11-1.684,1.6M28.256,67.7c-.754-.638-5.326-4.1-2.7-4.813.683-.185,2.389,2.009,3.048,2.527,8.709,6.848,21.074-3.092,16-13.311-4.8-9.674-19.759-6.44-20.23,4.4-.052,1.188.993,4.05-.453,4.272-1.126.173-1.337-1.626-1.4-2.407-.069-.88.221-3.531-.013-4.015a12.056,12.056,0,0,0-2.556-2.841c-2.909-1.507-4.271,2.514-5.833,4A6.707,6.707,0,0,1,11.5,56.922c-.695,2.228-.751,5.254-1.539,7.381a.979.979,0,1,1-1.918-.389l1.369-7.041c-1.949-.645-2.628-2.308-3.8-3.64-.151-.172-.177-.243-.332-.009a33.062,33.062,0,0,0-1.3,3.913,51.113,51.113,0,0,0-1.93,6.82c-.291,2.171.76,3.462,2.9,3.741l11.032-.071c.477-2.617.155-5.5.822-8.1a.945.945,0,0,1,1.7.5L18.158,67.7ZM54.138,46.376a11.135,11.135,0,0,0-7.968,4.162c-.14.281.741,1.856.889,2.313A13.1,13.1,0,0,1,46.1,63.244C52.44,71.95,66.134,66.866,65.286,56a10.74,10.74,0,0,0-11.148-9.621M47.778,67.7l-2.945-2.69L41.887,67.7Z" transform="translate(0 -20.329)" fill="#004e3d"/>
        <path id="Trazado_1006059" data-name="Trazado 1006059" d="M126.614,1.573c.155-.1.6-2.172,1.865-1.066.927.812-.47,1.8,0,2.341.843.964,1.038-.476,1.8-.546a1.2,1.2,0,0,1,1.075,1.219c-.067.443-.735.61-.437,1.1.72.615,3.341,2.719,3.248,3.593-.1.892-1.172.969-1.805.525-.28-.2-.408-.61-.668-.846-5.213-4.734-10.255-7.339-17.471-5.169-.846.254-3.186,1.7-3.41.119-.159-1.125,1.257-1.446,2.105-1.761a17.478,17.478,0,0,1,12.124,0c.4.13,1.236.7,1.574.488" transform="translate(-92.152 0)" fill="#004e3d"/>
        <path id="Trazado_1006060" data-name="Trazado 1006060" d="M84.259,65.445A1.018,1.018,0,0,1,85.9,66.48c-.033.255-1.048,2.938-1.2,3.188-.606,1-1.9.838-1.829-.473a14.607,14.607,0,0,1,1.391-3.75" transform="translate(-68.92 -54.215)" fill="#004e3d"/>
        <path id="Trazado_1006061" data-name="Trazado 1006061" d="M167.939,171.874c.119.075.7.019,1,.1a5.514,5.514,0,0,1,3.721,2.675c.244.435.59,1.716.662,1.778.326.28,3.031-.61,2.778,1.033-.23,1.495-1.984.48-2.633.912a12.682,12.682,0,0,0-.924,2.282c.316.705,1.768,1.006,1.4,2.233-.568,1.9-2.454-.819-2.767-.873-.177-.03-.669.412-.953.521-3.19,1.214-5.839.237-7.442-2.721-.135-.248-.388-1.126-.44-1.16-.426-.276-3.222.558-2.635-1.417.331-1.116,2.342-.385,2.642-.642.088-.075.357-1.884.788-2.164.083-.531-2.319-1.589-1.2-2.708,1.153-1.155,2.067,1.326,2.789,1.122a12.161,12.161,0,0,0,1.1-.6c.318-.449-1.074-3,.83-2.883,1.264.078.947,2.305,1.286,2.518m-.909,2.082a3.711,3.711,0,0,0-2.819,3.248,3.642,3.642,0,0,0,6.77,2.048c1.635-2.781-.853-5.822-3.95-5.3" transform="translate(-132.76 -140.851)" fill="#004e3d"/>
        <path id="Trazado_1006062" data-name="Trazado 1006062" d="M166.734,242.516c.923-.194,1.188.667,1.816,1.144a7.579,7.579,0,0,0,4.711,1.7c.958-.011,2.163-.748,2.755.261a.849.849,0,0,1-.485,1.325c-1.568.7-4.327.284-5.888-.34-1.041-.416-3.163-1.757-3.62-2.782a.967.967,0,0,1,.711-1.308" transform="translate(-138.018 -201.679)" fill="#004e3d"/>
        <path id="Trazado_1006063" data-name="Trazado 1006063" d="M65.029,148.5c.834-.177,1.257.419,1.19,1.183a41.379,41.379,0,0,1-1.184,4.554,1,1,0,0,1-1.946-.421,35.265,35.265,0,0,1,1.226-4.675.935.935,0,0,1,.714-.641" transform="translate(-52.469 -123.484)" fill="#004e3d"/>
        <path id="Trazado_1006064" data-name="Trazado 1006064" d="M297.442,169.7a3.9,3.9,0,0,1,.368,2.205c.043.195,1.591.5,1.674.435.416-.308.645-2.448,1.987-1.884,1.515.637-.288,2.3-.291,2.823,0,.169,1.044,1.384,1.246,1.784a5.7,5.7,0,0,1-.024,5.285c.038.448,2.246,1.023,1.558,2.438-.722,1.487-2.292-.734-2.717-.818-.351-.07-1.645,1.146-2.248.987,1.12,3.559-2.205,4.1-1.868.35-1.24-.231-4-.989-3.683-2.618.291-1.514,1.99.037,2.572.279a3.611,3.611,0,1,0-1.537-5.306c-.553.843-.567,2.633-2.008,1.951-1.675-.794.992-4.07,2.1-4.722.376-.222,1.346-.485,1.4-.54.091-.1-.524-2.087.04-2.65a1.354,1.354,0,0,1,1.435,0" transform="translate(-242.804 -140.968)" fill="#004e3d"/>
        <path id="Trazado_1006065" data-name="Trazado 1006065" d="M365.638,198.366c1.245-.354,1.418,1.019,1.539,1.926.138,1.034.4,4.355-1.49,3.51-.894-.4-.318-1.5-.326-2.182-.01-.848-.892-2.921.276-3.253" transform="translate(-303.601 -164.935)" fill="#004e3d"/>
      </g>
    </g>
  </g>
</svg>
