<svg xmlns="http://www.w3.org/2000/svg" xmlns:xlink="http://www.w3.org/1999/xlink" width="295" height="236" viewBox="0 0 295 236">
  <defs>
    <clipPath id="clip-path">
      <rect id="Rectángulo_459151" data-name="Rectángulo 459151" width="295" height="236" fill="#d8dec8"/>
    </clipPath>
    <clipPath id="clip-path-2">
      <rect id="Rectángulo_459150" data-name="Rectángulo 459150" width="353.766" height="283.616" fill="none"/>
    </clipPath>
  </defs>
  <g id="Grupo_1190897" data-name="Grupo 1190897" transform="translate(-180 -19262)">
    <g id="Grupo_1190895" data-name="Grupo 1190895" transform="translate(-148 41)">
      <rect id="Rectángulo_458927" data-name="Rectángulo 458927" width="295" height="236" transform="translate(328 19221)" fill="#d8dec8"/>
      <g id="Enmascarar_grupo_1099005" data-name="Enmascarar grupo 1099005" transform="translate(328 19221)" clip-path="url(#clip-path)">
        <g id="Grupo_1190465" data-name="Grupo 1190465" transform="translate(-29.383 -47.615)">
          <g id="Grupo_1190464" data-name="Grupo 1190464" transform="translate(0)" clip-path="url(#clip-path-2)">
            <path id="Trazado_1005937" data-name="Trazado 1005937" d="M3.145,172.424C9.22,136.244,51.7,98.412,71.637,72.764s47.126-43.41,75.468-43.029,56.974,20.879,68.353,53.838c4.325,12.527,6.942,27.651,16.267,34.5,11.886,8.733,26.453-1.357,40.047-3.829,21.994-4,43.664,13.691,55.973,37.175s17.068,51.9,21.07,79.647L2.356,226.892Z" transform="translate(-5.45 6.87)" fill="#bdca88"/>
            <path id="Trazado_1005938" data-name="Trazado 1005938" d="M280.853,150.679a11.75,11.75,0,0,0-14.1,1.5,10.118,10.118,0,0,0-3.985-11.609,8.31,8.31,0,0,0-10.994-10.991c-5.692-8.866-20.443-9.668-27.064-1.471a9.656,9.656,0,0,0-17.337,5.739c-3.568-4.475-12.263-2.124-13.09,3.539a20.486,20.486,0,0,0-24.319,1.989,15.895,15.895,0,0,0-26.535-.655c-3.672-4.8-9.961-6.616-15.808-8.147l-11.78-3.084c-4.312-1.129-8.727-2.268-13.17-1.9s-9,2.535-11.027,6.5a13.845,13.845,0,0,0-24.058,7.342c-1.7-3.948-7.526-4.138-11.2-1.913s-6.17,5.979-9.609,8.558c-5.189,3.889-13.16,6.058-14.006,12.487a43.039,43.039,0,0,0-4.219,42.008c87.829,3.666,175.784,7.332,263.606,3.485q-.031-23.866-.062-47.73Z" transform="translate(-0.233 28.289)" fill="#6c8938"/>
            <path id="Trazado_1005939" data-name="Trazado 1005939" d="M29.565,189.668a5.933,5.933,0,0,1,2.316-11.556,6.134,6.134,0,0,1,9.138-7.425c-.81-6.191,5.931-12.063,11.953-10.41a10.9,10.9,0,0,1,19.321-2.316,8.151,8.151,0,0,1,14.384,6.458,5.155,5.155,0,0,1,8.385,5.691,11.768,11.768,0,0,1,14.076,4.618c4.732-2.408,11.354,1.192,11.906,6.473a8.079,8.079,0,0,1,14.977.916,4.389,4.389,0,1,1,8.619-1.562,6.541,6.541,0,0,1,11.477-6,6.089,6.089,0,0,1,9.508-7.531,6.755,6.755,0,1,1,13.012-3.632,9.11,9.11,0,0,1,17.227,2.909,6.326,6.326,0,0,1,10.176,6.25,3.859,3.859,0,1,1,5.449,4.369,4.208,4.208,0,0,1,7.8,2.719c2.109-3.891,8.683-4.032,10.955-.233-1.435-3.638,4.125-7.46,7.009-4.817-4.051-1.4-4.572-8.123-.784-10.129a2.953,2.953,0,1,1,1.943-5.439,6.372,6.372,0,0,1,10.154-7.18,9.132,9.132,0,0,1,17.337,5.592,6.975,6.975,0,0,1,10.44,8.992c4.477.286,6.088,7.657,2.137,9.785,3.8-2.018,8.978,2.71,7.314,6.68a5.056,5.056,0,0,1,3.367,9.479c-53.3-12.779-109.3,22.942-162.659,10.427-15.853-3.718-30.422-11.528-45.89-16.613s-33.072-7.231-47.553.211Z" transform="translate(-0.107 33.777)" fill="#655c5b"/>
            <path id="Trazado_1005940" data-name="Trazado 1005940" d="M292.412,173.742v-8.951L281.6,142.5l-28.086-16.423h-5.763l-28.8,16.423-10.811,22.287v8.951Z" transform="translate(42.102 29.134)" fill="#a88c6a"/>
            <path id="Trazado_1005941" data-name="Trazado 1005941" d="M279.89,145.182,253.029,128.37h-5.512l-27.549,16.813L209.628,168v29.782h80.6V168Z" transform="translate(42.446 29.663)" fill="#3f1e2b"/>
            <rect id="Rectángulo_459145" data-name="Rectángulo 459145" width="80.602" height="0.689" transform="translate(252.074 215.505)" fill="#884f3e"/>
            <rect id="Rectángulo_459146" data-name="Rectángulo 459146" width="80.602" height="0.689" transform="translate(252.074 205.861)" fill="#884f3e"/>
            <path id="Trazado_1005942" data-name="Trazado 1005942" d="M289.511,159.387H210.219l-.313.688h79.918Z" transform="translate(42.511 36.831)" fill="#884f3e"/>
            <path id="Trazado_1005943" data-name="Trazado 1005943" d="M284.32,151.553H213.768l-.311.689h71.176Z" transform="translate(43.331 35.021)" fill="#884f3e"/>
            <path id="Trazado_1005944" data-name="Trazado 1005944" d="M279.13,143.72H217.318l-.311.688h62.435Z" transform="translate(44.151 33.21)" fill="#884f3e"/>
            <path id="Trazado_1005945" data-name="Trazado 1005945" d="M263.758,135.886H228.3l-1.129.689h37.686Z" transform="translate(46.501 31.4)" fill="#884f3e"/>
            <rect id="Rectángulo_459147" data-name="Rectángulo 459147" width="42.248" height="25.832" transform="translate(271.937 198.169)" fill="#884f3e"/>
            <rect id="Rectángulo_459148" data-name="Rectángulo 459148" width="1.378" height="25.832" transform="translate(292.371 198.169)" fill="#3f1e2b"/>
            <rect id="Rectángulo_459149" data-name="Rectángulo 459149" width="9.873" height="9.873" transform="translate(286.861 176.586)" fill="#dda55b"/>
            <path id="Trazado_1005946" data-name="Trazado 1005946" d="M341.03,183.417H210.39a132.585,132.585,0,0,0-17.521,2.318C181.307,188.085,169.7,189.37,158,188.5c-19.941-1.482-39.3-9.2-58.783-15.14s-39.8-10.138-59.345-4.541c-15.606,4.47-30.708,16.3-39.572,33.92V209.9H361.12v-4.064c-5.457-8.818-15.469-18.493-20.09-22.419" transform="translate(-5.925 38.402)" fill="#dda55b"/>
            <path id="Trazado_1005947" data-name="Trazado 1005947" d="M361.121,349.68V203.915c-20.419-13.616-44.481-15.93-67.386-13.675-26.12,2.572-51.892,10.494-78.068,11.592-38.709,1.624-76.806-11.685-115.241-18.129C66.632,178.037,30.591,178.348,0,197.353V349.68Z" transform="translate(-5.994 41.708)" fill="#e0e8b1"/>
            <path id="Trazado_1005948" data-name="Trazado 1005948" d="M215.285,200.093a19.426,19.426,0,0,0-8.462-13.293,16.583,16.583,0,0,1,8.859,6.067,15.983,15.983,0,0,1-1.284-5.418q1.446,2.3,2.894,4.61a10.722,10.722,0,0,1,2.057-8.028,15.01,15.01,0,0,0,.384,8.046,8.808,8.808,0,0,1,4.225-7.1,10.316,10.316,0,0,0-2.212,6.645,10.337,10.337,0,0,1,5.761-4.951,6.993,6.993,0,0,0-2.513,4.6,10.46,10.46,0,0,1,6.4-3.926,9.049,9.049,0,0,0-3.1,3.58l4.82-3.448a9.6,9.6,0,0,0-1.626,3.411l5.4-3.358a1.251,1.251,0,0,0-.047,1.988,1.5,1.5,0,0,0,2.052-.451,1.868,1.868,0,0,0-.25-2.179,11.756,11.756,0,0,0,3.893,2.547,9.4,9.4,0,0,0-1.263-4.134l2.412,3.216q.286-2.066.574-4.134l1.721,3.33a6.531,6.531,0,0,1,3.288-5.3q-1.016,2.859-2.033,5.715A14.029,14.029,0,0,1,253.561,183a12.74,12.74,0,0,0-3.813,5.162,15.539,15.539,0,0,1,8.03-4.2l-4.5,2.982a33.807,33.807,0,0,1,9.116-1.528,8.869,8.869,0,0,0-4.846,2.263,16.851,16.851,0,0,1,7.6-1.238l-2.181,1.378,4.8-1.154-.5,1.5a4.76,4.76,0,0,0,3.707-3.336q.129,1.553.257,3.107l2.526-2.755q-.345,1.492-.689,2.985a5.878,5.878,0,0,1,3.789-1.492l-1.034,1.951,3.891-.585-.923,1.145,3.575.242-1.053,1.152a7.043,7.043,0,0,1,4.258,3.078c-11.589-2.081-23.505-1.236-35.182.291s-23.285,3.729-35.043,4.358Z" transform="translate(41.798 42.151)" fill="#e0e8b1"/>
            <path id="Trazado_1005949" data-name="Trazado 1005949" d="M113.964,215.663c14.53.1,28.859,3.7,43.388,3.942,13.134.217,26.142-2.317,39.035-4.841,14.892-2.914,29.856-5.838,45.018-6.425,8.077-.313,16.548-.044,23.747-3.718-12.913-5.695-27.576-5.939-41.614-4.5s-27.925,4.461-42.029,4.962c-19.308.684-38.426-3.366-57.621-5.562S84.535,197.123,66.9,205a12.019,12.019,0,0,0-4.955,3.431c-1.214,1.63-1.535,4.1-.212,5.638a6.494,6.494,0,0,0,3.462,1.744c15.821,4.029,32.448-.265,48.773-.155" transform="translate(8.072 45.802)" fill="#bdca88"/>
            <path id="Trazado_1005950" data-name="Trazado 1005950" d="M358.161,344.991V255.143c-12.605,2.782-27.767,4.77-37.889-3.74-25.978-21.841-58.709-21.181-88.847-15.012s-60.254,17.17-90.615,13.594C110.918,246.464,83,229.067,54.566,215.943c-17.543-8.1-36.2-14.57-54.566-15.158V344.991Z" transform="translate(-5.994 46.397)" fill="#e4cc89"/>
            <path id="Trazado_1005951" data-name="Trazado 1005951" d="M217.4,217.315a17.588,17.588,0,0,0-10.324-6.468,11.979,11.979,0,0,1,14.006,4.892q-.884-3.359-1.768-6.718,2.292,2.984,4.582,5.971a9.369,9.369,0,0,1,5.21-7.064q-.945,3.256-1.89,6.509a16.6,16.6,0,0,1,7.583-5.185,7.469,7.469,0,0,0-3.544,5.637l6.006-2.435a6.286,6.286,0,0,0-1.039,3.949l5.743-3.211a4.655,4.655,0,0,0,2.627,3.515q.164-4.1.33-8.193a7.537,7.537,0,0,0,2.881,4.91A9.827,9.827,0,0,1,250.263,209q.124,2.823.246,5.648l4.421-3.192q-1.6,2.438-3.2,4.876l7.575-2.245-4.184,4.278a6.181,6.181,0,0,1,5.812,1.326l-7.228.116Z" transform="translate(41.857 48.048)" fill="#bdca88"/>
            <path id="Trazado_1005952" data-name="Trazado 1005952" d="M60.712,231.289A32.349,32.349,0,0,0,42.121,213.6,18.218,18.218,0,0,1,61.5,226.1a44.326,44.326,0,0,0-5.516-14.857,31.494,31.494,0,0,1,12.067,13.143,13.714,13.714,0,0,1,8.908-12.369,17.123,17.123,0,0,0-6.67,14.1,21.849,21.849,0,0,1,12.681-9.87c-1.252,1.184-2.75,2.073-4.076,3.175a7.435,7.435,0,0,0-2.818,4.2,3.644,3.644,0,0,0,2.234,4.151c1.658.47,3.632-1.306,2.977-2.9a12.624,12.624,0,0,0,2.971,6.13,17.05,17.05,0,0,0,4.007-9.828,15.02,15.02,0,0,0,4.954,7.491,25.522,25.522,0,0,1,1.092-11.035,27.345,27.345,0,0,1,4.637,10.294,13.632,13.632,0,0,1,5.672-9.961q-1.413,5.161-2.828,10.323a18.715,18.715,0,0,1,9.248-8.48,29.455,29.455,0,0,0-7.265,9.826l11.1-5.636q-2.465,4.316-4.929,8.631a30.188,30.188,0,0,0,10.172-5.478l-1.27,3.7,7.805-7.852q.155,3.527.311,7.055l3.549-5.323q0,2.663,0,5.326a18.325,18.325,0,0,1,10.289-4.269q-1.952,2.31-3.9,4.623a25.187,25.187,0,0,1,11-4.26l-4.26,5.678a19.069,19.069,0,0,1,10.293-3.544q-.532,1.241-1.065,2.481a39.722,39.722,0,0,1,17.383,1.319q-33.993,2.75-68.136,2.667Z" transform="translate(3.739 48.815)" fill="#e4cc89"/>
            <path id="Trazado_1005953" data-name="Trazado 1005953" d="M204.329,88.519c-3.683-6.864-11.792-11.728-19.341-9.806l-11.694,7.165c-3.305,9.056-6.633,18.2-7.874,27.763s-.238,19.7,4.663,28.006c3.557,6.024,9.011,10.862,11.9,17.231,2.75,6.051,2.932,12.91,3.068,19.554q.046,2.221.091,4.44a9.361,9.361,0,0,0-.5,6.863,14.514,14.514,0,0,0,.676,1.847q.135,6.557.268,13.117a30.682,30.682,0,0,1-2.117,9.6,7.939,7.939,0,0,0-.927,4.029c.271,1.764,1.794,3.012,2.876,4.432a9.548,9.548,0,0,1,.554.813l.181,8.839,13.362.384a17.465,17.465,0,0,0-3.059-9.49,33.929,33.929,0,0,1-3.218-4.25c-1.261-2.446-1.075-5.355-.859-8.1q.674-8.542,1.347-17.082c.448-.692.9-1.384,1.321-2.087,1.561-2.584,2.847-5.548,2.43-8.538-.316-2.264-1.565-4.285-2.408-6.41q.55-6.956,1.1-13.914c.771-9.781,1.551-19.617,3.957-29.13,1.909-7.553,4.831-14.841,6.354-22.479s1.529-15.938-2.154-22.8" transform="translate(32.119 18.091)" fill="#a8b2ab"/>
            <path id="Trazado_1005954" data-name="Trazado 1005954" d="M126.321,110.045c-.128-3.405-.273-6.892-1.565-10.046s-3.985-5.957-7.364-6.394l-8.1-2.291a31.491,31.491,0,0,0-30.1,37.585c1.4,7.081,5.228,13.713,5.221,20.931,0,4.391-1.439,8.637-2.211,12.958-1.029,5.768-.874,11.673-.716,17.531q.314,11.63.627,23.262c.073,2.68.163,5.441,1.258,7.889,1.3,2.9,4.933,4.983,6.86,7.506a3.683,3.683,0,0,1,.794,2.036,17.093,17.093,0,0,1-.321,3.181c-.015.118-.028.239-.041.361s-.022.228-.032.345c-.018.249-.032.5-.033.769,0,.055,0,.114,0,.171,0,.236.014.48.034.732.006.087.015.175.023.263.034.318.079.643.149.986l15.121-.356c-1.5-4.182-2.583-9.514-3.947-10.057-.506-.2-.979-.405-1.431-.612l-.114-.054c-.437-.2-.854-.408-1.257-.622a24.766,24.766,0,0,1-5.221-3.784c-5.88-5.338-5.534-14.516-4.731-22.417.627-6.165,1.349-12.607,4.8-17.757,4.949-7.39,14.285-10.4,20.794-16.462,5.935-5.526,9.249-13.408,10.676-21.391s1.128-16.16.822-24.265" transform="translate(12.173 21.101)" fill="#3f1e2b"/>
            <path id="Trazado_1005955" data-name="Trazado 1005955" d="M245.291,94.4c-13.217-6.938-7.128-2.119-20.155-8.922l-6.279-6.608c-8.409-8.835-22.611-8.261-34.665-6.383s-23.5,6.653-35.544,8.6c-20.7,3.35-41.88-1.8-62.783-.193-6.435.5-13.565,2.1-17.09,7.5-2.428,3.725-2.572,8.439-2.638,12.884Q65.783,125,65.43,148.715c8.421-1.9,19.273.179,26.548,4.826s13.01,5.6,19.824,10.9,18.145,7.443,26.764,7.929c14.894.841,22.873-1.768,37.683-3.554,10.144-1.224,20.841,2.081,30.457-1.374,18.229-6.549,23.074-32.6,40.987-39.321-.686-8.392-1.716-25.336-2.4-33.729" transform="translate(9.125 16.485)" fill="#dbe0dd"/>
            <path id="Trazado_1005956" data-name="Trazado 1005956" d="M162.132,92.878c-.712,6.839-7.348,11.74-9.206,18.359s-3.312,13.536-2.313,20.337c1.315,8.971,6.722,16.776,9.5,25.407a7.47,7.47,0,0,0,1.445,3,6.708,6.708,0,0,0,3.983,1.563,54.619,54.619,0,0,0,15.773.425,27.846,27.846,0,0,0,14.359-6.149,31.882,31.882,0,0,1-3.4-11.825c-.664-7.782,1.539-15.478,3.238-23.1s2.878-15.752.263-23.11c-1.156,5.472-6.383,9.346-11.837,10.585s-11.142.347-16.652-.618c-2.737-.479-5.766-1.16-7.32-3.463Z" transform="translate(28.734 21.462)" fill="#a8b2ab"/>
            <path id="Trazado_1005957" data-name="Trazado 1005957" d="M182.224,154.91c-10.376,2.612-21.287,2.012-31.9.666s-21.17-3.424-31.865-3.717c-6.053-.166-12.359.2-17.891-2.266-2.532-1.126-5-3.149-5.295-5.9a10.7,10.7,0,0,1,.693-4.123,96.852,96.852,0,0,0,3.861-21.475c2.49,7.78,8.358,14.188,15.3,18.488s14.933,6.653,22.966,8.145c11.79,2.189,24.246,2.562,35.512-1.549a31.97,31.97,0,0,0,8.618,11.735" transform="translate(16.014 27.288)" fill="#a8b2ab"/>
            <path id="Trazado_1005958" data-name="Trazado 1005958" d="M98.706,96.481a62.965,62.965,0,0,1,1.608,56.57,53.4,53.4,0,0,0-12.26-5.987c5.035-7.128,7.346-15.843,8.477-24.5s1.176-17.417,2.175-26.087" transform="translate(14.353 22.295)" fill="#a8b2ab"/>
            <path id="Trazado_1005959" data-name="Trazado 1005959" d="M219.44,125.463c-.687-8.393-1.717-25.337-2.4-33.729-13.182-6.921-7.164-2.147-20.059-8.871,6.141,13.116-28.2,48.589,6.425,55.684,7.938-7.933,6.442-9.35,16.037-13.084" transform="translate(37.379 19.148)" fill="#a8b2ab"/>
            <path id="Trazado_1005960" data-name="Trazado 1005960" d="M201.854,118.723c.382,3.272,1.579,6.7,4.3,8.557l8.426-3.893a35.165,35.165,0,0,1-9.625-29.019c-1.025,8.151-4.056,16.194-3.1,24.354" transform="translate(40.608 21.807)" fill="#3f1e2b"/>
            <path id="Trazado_1005961" data-name="Trazado 1005961" d="M49.492,116.933c-2.71,11.174-1.7,22.857-1.87,34.354a95.358,95.358,0,0,1-.83,11.7h2.386c.329-2.694.521-5.406.619-8.092.394-10.576-.422-21.248,1.289-31.693.827-5.051,2.323-10.16,5.563-14.123s8.54-6.554,13.533-5.435q.319-5.817.64-11.632c-11.154,2.8-18.623,13.747-21.331,24.922" transform="translate(4.818 21.262)" fill="#dbe0dd"/>
            <path id="Trazado_1005962" data-name="Trazado 1005962" d="M52.817,144.463a1.543,1.543,0,0,0-2.8-.678,67.4,67.4,0,0,0-4.578,7.911,71.979,71.979,0,0,0-7.313,12.49c-2.884,6.611-4.239,14.135-2.339,21.095-.632-6.215,1.435-12.337,4.143-18.019a68.672,68.672,0,0,0-.276,29.474q1.97-2.779,3.666-5.736a31.591,31.591,0,0,0,.63,10.769c-.43-6.464,2.074-12.715,4.342-18.784a59.335,59.335,0,0,0,3.058-10.311,70.185,70.185,0,0,1-3.474,16.184c3.712-6.272,5.216-13.654,5.433-20.939a80.579,80.579,0,0,0-.231-8.446,74.135,74.135,0,0,0-.26-15.009" transform="translate(2.072 33.071)" fill="#64414e"/>
            <path id="Trazado_1005963" data-name="Trazado 1005963" d="M98.335,83.559c3.962.513,7.119,3.8,8.634,7.5s1.684,7.785,1.834,11.776c.358,9.5.71,19.089-.963,28.448s-5.56,18.6-12.516,25.078c-7.631,7.107-18.577,10.636-24.379,19.3-4.043,6.036-4.891,13.59-5.625,20.818-.942,9.263-1.346,20.023,5.547,26.281a27.892,27.892,0,0,0,9.405,5.946c1.6.636,2.87,6.888,4.626,11.79l-17.728.417c-1.021-4.975,1.584-7.415-.676-10.371s-6.521-5.4-8.041-8.8c-1.285-2.87-1.391-6.107-1.476-9.249l-.735-27.273c-.185-6.866-.367-13.789.841-20.55.9-5.067,2.588-10.046,2.593-15.193.007-8.461-4.481-16.237-6.122-24.539a36.919,36.919,0,0,1,35.29-44.063Z" transform="translate(6.225 18.688)" fill="#bfc1c0"/>
            <path id="Trazado_1005964" data-name="Trazado 1005964" d="M64.537,213.446l17.728-.417c-1.757-4.9-3.027-11.154-4.628-11.79a32.553,32.553,0,0,1-3.285-1.509,86.215,86.215,0,0,1-9.562,5.734c.164,2.1-.993,4.376-.254,7.982" transform="translate(8.861 46.153)" fill="#64414e"/>
            <path id="Trazado_1005965" data-name="Trazado 1005965" d="M80.085,142.832a40.007,40.007,0,0,1,.062-4.484c.393-2.413,2.029-4.4,3.264-6.509a16.5,16.5,0,0,0,1.9-13.072c-1.368-4.324-5.35-7.9-9.881-8.087-7.656-.314-13.489,8.248-21.149,8.045l-.776-.266c1.7,8.149,6.038,15.807,6.031,24.13,0,4.8-1.46,9.45-2.391,14.164,4.875-.321,9.861-.7,14.3-2.728,4.508-2.064,8.4-6.242,8.642-11.194" transform="translate(6.369 25.574)" fill="#3f1e2b"/>
            <path id="Trazado_1005966" data-name="Trazado 1005966" d="M80.424,82.033C74.6,83.047,70.214,87.728,66.285,92.144a28.323,28.323,0,0,0-5.257,7.366A73.8,73.8,0,0,1,81.145,85.455c1.049-.5,2.313-1.395,1.949-2.5-.324-.977-1.655-1.1-2.67-.926" transform="translate(8.108 18.94)" fill="#fff"/>
            <path id="Trazado_1005967" data-name="Trazado 1005967" d="M79.768,83.233l6.808-2.127-.007-.372a11.465,11.465,0,0,1-2.657.106,6.063,6.063,0,0,0-2.616.378,2.444,2.444,0,0,0-1.528,2.015" transform="translate(12.439 18.656)" fill="#fff"/>
            <path id="Trazado_1005968" data-name="Trazado 1005968" d="M144.388,113.343c-3.623-6.269-11.156-8.914-18.066-11.078-3.213-1.007-6.916-1.96-9.769-.17-2.488,1.562-3.454,4.832-3.108,7.75.5,4.215,3.218,7.83,6.194,10.857s6.335,5.741,8.693,9.271c1.314,1.966,2.569,4.37,4.88,4.876a6.051,6.051,0,0,0,3.193-.346,14.613,14.613,0,0,0,7.984-21.16" transform="translate(20.205 23.36)" fill="#3f1e2b"/>
            <path id="Trazado_1005969" data-name="Trazado 1005969" d="M175.948,85.865a28.263,28.263,0,0,1,5.416-2.838,11.542,11.542,0,0,0,4.853-3.619c1.154-1.687,1.415-4.133.118-5.712-7.107-3.079-15.339-2-22.744.275s-14.482,5.665-22.078,7.183c-1.438.288-3.192.779-3.5,2.216a3.685,3.685,0,0,0,.8,2.572,51.168,51.168,0,0,0,7.061,9.66,17.2,17.2,0,0,0,10.472,5.323,15.154,15.154,0,0,0,12.6-5.838c2.436-3.017,3.926-6.862,7-9.222" transform="translate(25.889 16.59)" fill="#3f1e2b"/>
            <path id="Trazado_1005970" data-name="Trazado 1005970" d="M81.521,92.1c-.273,4.5,3.563,8.066,7.063,10.911,2.255,1.833,4.9,3.778,7.769,3.32,2.83-.453,4.73-3.062,6.308-5.454a22.289,22.289,0,0,0,2.926-5.492,7.512,7.512,0,0,0-.436-6.045c-1.107-1.845-3.164-2.882-5.171-3.661-3.549-1.38-7.463-2.265-11.163-1.364s-7.066,3.983-7.3,7.784" transform="translate(12.84 19.4)" fill="#3f1e2b"/>
            <path id="Trazado_1005971" data-name="Trazado 1005971" d="M228.6,73.354a35.455,35.455,0,0,1,3.256,6.491,13.5,13.5,0,0,1,1.077,6.752,6.13,6.13,0,0,1-4.09,5.1c-2.227.6-4.954-.992-5.039-3.3a11.313,11.313,0,0,0,2.515-12.958c-.659-1.358-1.63-2.745-1.349-4.228a2.354,2.354,0,0,1,2.158.405,6.125,6.125,0,0,1,1.471,1.737" transform="translate(45.721 16.429)" fill="#884f3e"/>
            <path id="Trazado_1005972" data-name="Trazado 1005972" d="M232.162,80.6a13.275,13.275,0,0,1-5.843,8.9,4.01,4.01,0,0,0,1.936,0,6.135,6.135,0,0,0,4.091-5.1,10.485,10.485,0,0,0-.185-3.805" transform="translate(46.303 18.624)" fill="#3f1e2b"/>
            <path id="Trazado_1005973" data-name="Trazado 1005973" d="M228.81,73.911l-2.8,1.358c.111.261.209.524.3.793l2.919-1.417c-.137-.246-.275-.491-.416-.734" transform="translate(46.232 17.079)" fill="#351220"/>
            <path id="Trazado_1005974" data-name="Trazado 1005974" d="M230.068,76.048a12.883,12.883,0,0,0-3.5,1.106c.047.3.085.595.108.894a11.984,11.984,0,0,1,3.773-1.19c-.122-.272-.252-.54-.379-.809" transform="translate(46.36 17.573)" fill="#351220"/>
            <path id="Trazado_1005975" data-name="Trazado 1005975" d="M231.594,79.273c-.094-.287-.193-.57-.3-.852a18.334,18.334,0,0,0-4.605.538c-.014.3-.041.6-.078.9a17.53,17.53,0,0,1,4.98-.582" transform="translate(46.371 18.121)" fill="#351220"/>
            <path id="Trazado_1005976" data-name="Trazado 1005976" d="M232.437,84.2c.033-.212.049-.425.065-.638a12.928,12.928,0,0,0-6.265-2.1c-.094.275-.2.545-.311.811a12.055,12.055,0,0,1,6.446,2.22c.02-.1.05-.2.065-.3" transform="translate(46.212 18.825)" fill="#351220"/>
            <path id="Trazado_1005977" data-name="Trazado 1005977" d="M254.308,131.113c-1.2,1.365-6.5,3.634-11.7,2.65-4.828-.913-8.929-4.25-13.724-5.329-3.911-.881-7.979-.62-11.97-.992s-8.181-1.539-10.8-4.573-3.16-7.383-2.828-11.386.746-7.1.884-11.113c.124-3.633-.474-9.385,1.7-12.3,1.5-2,4.663-3.081,7-3.973,5.647-2.156,12.013-3.317,17.567-.936,5.21,2.232,8.038,7.731,11.484,12.231,3.405,4.447,8.631,10.865,11.673,15.569,4.422,6.84,2.793,12.276.709,20.149" transform="translate(40.961 18.912)" fill="#dbe0dd"/>
            <path id="Trazado_1005978" data-name="Trazado 1005978" d="M218.328,96.507c.089-.662.1-1.488-.48-1.821-.713-.409-1.524.327-2.008.992a4.8,4.8,0,0,0-.97,1.9,1.509,1.509,0,0,0,2.793,1.128,4.9,4.9,0,0,0,.665-2.2" transform="translate(43.651 21.853)" fill="#3f1e2b"/>
            <path id="Trazado_1005979" data-name="Trazado 1005979" d="M228.386,93.462c.393,1.172.17,2.545.84,3.584.741,1.151,2.266,1.443,3.618,1.657s2.883.581,3.531,1.788c.511.954.314,2.2.937,3.084a6.2,6.2,0,0,0,1.547,1.247,1.89,1.89,0,0,1,.938,1.653c-.138.96-1.465,1.662-1.122,2.569a1.109,1.109,0,0,0,1.192.6c.475-.06,1.72.1,2.122-.158,2.063-1.331,3.361-2.458,5.425-3.788-2.929-5.339-9.846-10.006-13.427-15.744-1.315-2.106-2.588-4.347-4.623-5.771a10.972,10.972,0,0,0-7.025-1.688,30.047,30.047,0,0,0-7.161,1.64,6.223,6.223,0,0,0-1.941.886,1.923,1.923,0,0,0,.313,3.448,6.417,6.417,0,0,0,2.04.526l6.366.906a14.051,14.051,0,0,1,3.765.9,4.746,4.746,0,0,1,2.665,2.669" transform="translate(43.065 19.055)" fill="#fff"/>
            <path id="Trazado_1005980" data-name="Trazado 1005980" d="M212.826,91.57c-.847,1.469-2.482,2.273-3.661,3.49-2.639,2.724-2.642,7.013-4.3,10.424a34.813,34.813,0,0,1-1.327-9.149,11.739,11.739,0,0,1,3.427-8.353c1.3-1.178,3.264-1.946,4.8-1.107a3.5,3.5,0,0,1,1.058,4.7" transform="translate(41.036 19.993)" fill="#3f1e2b"/>
            <path id="Trazado_1005981" data-name="Trazado 1005981" d="M212.644,87.01a1.941,1.941,0,0,0-1.248-2.268,4.3,4.3,0,0,0-2.8.086c-4.713,1.429-8.128,5.769-9.557,10.48s-1.147,9.772-.446,14.646c2.886-.387,5.107-2.854,6.244-5.532s1.442-5.625,2.117-8.455,1.847-5.727,4.191-7.452c.581-.427,1.266-.825,1.5-1.506" transform="translate(39.762 19.536)" fill="#dbe0dd"/>
            <path id="Trazado_1005982" data-name="Trazado 1005982" d="M199.083,106.871a.694.694,0,0,0,.517-.114,11.742,11.742,0,0,0,5.043-6.008,30.65,30.65,0,0,0,1.772-7.778l-.9.1a7.057,7.057,0,0,1-1.03,4.741,29.2,29.2,0,0,1-3.009,3.93,13.519,13.519,0,0,0-2.6,4.187c-.116.341-.137.833.207.942" transform="translate(39.944 21.484)" fill="#fff"/>
            <path id="Trazado_1005983" data-name="Trazado 1005983" d="M252.542,109.819a2.006,2.006,0,0,0-1.485-.867c-.095-.018-.191-.032-.287-.048-.463-.92-.976-1.817-1.487-2.678-1.172-1.975-2.839-4.22-5.126-4.013-2.2.2-3.467,2.541-5.307,3.757-2.84,1.877-7.2,1.135-9.277,3.834-1.166,1.514-1.146,3.622-.836,5.508s.858,3.788.564,5.677a17.086,17.086,0,0,0-.629,3.523c.143,2.535,2.756,4.178,5.2,4.878a19.288,19.288,0,0,0,11.976-.47c1.838-.687,3.744-1.881,4.167-3.8.218-.982,0-2.012.127-3.011.214-1.748,1.416-3.208,1.973-4.879a8.29,8.29,0,0,0,.047-4.714,6.444,6.444,0,0,0,.464-1.384,1.988,1.988,0,0,0-.08-1.316" transform="translate(46.82 23.616)" fill="#fd9f96"/>
            <path id="Trazado_1005984" data-name="Trazado 1005984" d="M235.071,111.6a2.386,2.386,0,0,0-1.589,1.844,2.147,2.147,0,0,0,1.506,1.882,3.136,3.136,0,0,0,3.166-.409,2.219,2.219,0,0,0,.33-3c-.806-.923-2.3-.822-3.413-.314" transform="translate(47.958 25.699)" fill="#3f1e2b"/>
            <path id="Trazado_1005985" data-name="Trazado 1005985" d="M236.793,109.5a2.775,2.775,0,0,0-4.645,2.818c.048.137.126.286.266.319.186.044.341-.134.455-.286a8.663,8.663,0,0,1,3.923-2.851" transform="translate(47.617 25.105)" fill="#f9c3c0"/>
            <path id="Trazado_1005986" data-name="Trazado 1005986" d="M232.816,119.249c1.972.35,3.25,2.335,5.127,3.037a6.272,6.272,0,0,0,3.836-.025c1.252-.346,2.44-.9,3.681-1.285a8.934,8.934,0,0,0,2.756-1.1,2.182,2.182,0,0,0,.854-2.6c-1.679,1.371-3.461,2.791-5.6,3.16a9.716,9.716,0,0,1-5.063-.736c-1.613-.617-3.144-1.437-4.774-2.005a2.367,2.367,0,0,0-1.491-.156.9.9,0,0,0-.6,1.19c.235.414.8.446,1.27.528" transform="translate(47.492 27.098)" fill="#3f1e2b"/>
            <path id="Trazado_1005987" data-name="Trazado 1005987" d="M213.1,93.478a2.654,2.654,0,0,0,.528-2.452c-.409-.808-1.469-.953-2.349-1.165-4.134-.99-6.672-5.454-6.85-9.7-.156-3.735,1.1-7.346,2.5-10.837a.913.913,0,0,0-1.17-1.19,5.67,5.67,0,0,0-2.074,1.37,14.327,14.327,0,0,0-2.327,3.589,41.526,41.526,0,0,0-3.782,9.09,14.193,14.193,0,0,0,.732,9.639,12.5,12.5,0,0,0,5.877,5.516,6.574,6.574,0,0,0,3.9.751c2.308-.415,3.8-2.609,5.018-4.61" transform="translate(39.546 15.731)" fill="#884f3e"/>
            <path id="Trazado_1005988" data-name="Trazado 1005988" d="M206.763,93.664c-9.849-4.924-7.593-17.545-2.087-25.092a6.072,6.072,0,0,0-.989.816,14.349,14.349,0,0,0-2.327,3.589,41.526,41.526,0,0,0-3.782,9.09,14.193,14.193,0,0,0,.732,9.639,12.5,12.5,0,0,0,5.877,5.516,6.574,6.574,0,0,0,3.9.751,6.128,6.128,0,0,0,3.633-2.556,43.771,43.771,0,0,1-4.954-1.754" transform="translate(39.546 15.846)" fill="#3f1e2b"/>
            <path id="Trazado_1005989" data-name="Trazado 1005989" d="M210.481,85.973c-.274-.071-.552-.135-.816-.2a14.193,14.193,0,0,1-5.541,8.051,6.265,6.265,0,0,0,1.1.2,15.074,15.074,0,0,0,5.259-8.056" transform="translate(41.174 19.821)" fill="#351220"/>
            <path id="Trazado_1005990" data-name="Trazado 1005990" d="M208.435,85.208a7.536,7.536,0,0,1-.72-.47,13.158,13.158,0,0,1-6.884,7.23c.257.2.521.387.793.564a14.041,14.041,0,0,0,6.812-7.324" transform="translate(40.414 19.581)" fill="#351220"/>
            <path id="Trazado_1005991" data-name="Trazado 1005991" d="M204.961,80.373a17.367,17.367,0,0,1-7.836,1.955c-.02.282-.037.564-.042.847a18.217,18.217,0,0,0,8.151-2.007c-.1-.261-.191-.527-.273-.8" transform="translate(39.547 18.572)" fill="#351220"/>
            <path id="Trazado_1005992" data-name="Trazado 1005992" d="M204.286,78.054c-.012-.288,0-.574,0-.861-2.087.426-4.2.762-6.312,1.016-.1.291-.19.582-.276.878,2.2-.254,4.407-.591,6.584-1.03v0" transform="translate(39.69 17.838)" fill="#351220"/>
            <path id="Trazado_1005993" data-name="Trazado 1005993" d="M204.244,74.927c.052-.277.111-.553.172-.827a16.145,16.145,0,0,0-4.753.021c-.151.31-.3.62-.451.933a15.306,15.306,0,0,1,5.031-.127" transform="translate(40.04 17.085)" fill="#351220"/>
            <path id="Trazado_1005994" data-name="Trazado 1005994" d="M204.567,72.9q.12-.4.25-.805a11.747,11.747,0,0,0-3.809-.652q-.223.419-.44.841a10.845,10.845,0,0,1,4,.617" transform="translate(40.353 16.51)" fill="#351220"/>
            <path id="Trazado_1005995" data-name="Trazado 1005995" d="M194.167,88.859c-3.872-7.215-4.65-11.28-12.585-9.258L159.131,99.434c-3.475,9.52-4.561,5.784-5.866,15.834s-.25,20.713,4.9,29.44c3.738,6.333,9.472,11.418,12.514,18.114,2.891,6.361,3.081,13.57,3.225,20.557q.046,2.334.095,4.667a9.849,9.849,0,0,0-.523,7.215,15.549,15.549,0,0,0,.71,1.94q.142,6.9.282,13.789a32.224,32.224,0,0,1-2.225,10.094,8.334,8.334,0,0,0-.975,4.235c.284,1.854,1.886,3.166,3.024,4.658a10.242,10.242,0,0,1,.582.854q.1,4.646.191,9.292l14.045.4a18.36,18.36,0,0,0-3.216-9.977c-1.108-1.508-2.526-2.8-3.383-4.468-1.326-2.572-1.13-5.628-.9-8.513q.709-8.978,1.417-17.956c.47-.728.942-1.455,1.389-2.194,1.641-2.716,2.992-5.832,2.553-8.975-.332-2.38-1.645-4.506-2.53-6.739q.576-7.313,1.154-14.625c.81-10.283,1.63-20.623,4.159-30.622,2.008-7.939,5.078-15.6,6.68-23.632s1.607-16.754-2.265-23.969" transform="translate(29.304 18.274)" fill="#dbe0dd"/>
            <path id="Trazado_1005996" data-name="Trazado 1005996" d="M182.134,77.929a8.5,8.5,0,0,0-2.939,3.589,41.973,41.973,0,0,0-3.629,28.76,12.1,12.1,0,0,0,1.727,4.333,5.065,5.065,0,0,0,3.914,2.266c2.213.014,3.969-1.813,5.269-3.606A43.354,43.354,0,0,0,193.622,96.9a25.169,25.169,0,0,0,.437-9.958,12.862,12.862,0,0,0-5.12-8.327c-2-1.341-4.731-1.906-6.805-.687" transform="translate(34.326 17.852)" fill="#fff"/>
            <path id="Trazado_1005997" data-name="Trazado 1005997" d="M178.3,113.558a21.5,21.5,0,0,0,1.181,8.962c.307.858.952,1.86,1.845,1.684.667-.132,1.011-.861,1.236-1.5a43.871,43.871,0,0,0,2.232-9.785,1.587,1.587,0,0,0-.2-1.22,1.262,1.262,0,0,0-1.445-.158,14.548,14.548,0,0,1-1.387.705c-.5.154-3.262,1.795-3.457,1.312" transform="translate(35.192 25.74)" fill="#fff"/>
            <path id="Trazado_1005998" data-name="Trazado 1005998" d="M181.474,124.819a3.017,3.017,0,0,0-.947-2.111,4.709,4.709,0,0,0-.886,1.334,1.6,1.6,0,0,0,.154,1.533.98.98,0,0,0,1.412.143,1.257,1.257,0,0,0,.267-.9" transform="translate(35.488 28.355)" fill="#fff"/>
          </g>
        </g>
      </g>
    </g>
  </g>
</svg>
