<svg xmlns="http://www.w3.org/2000/svg" xmlns:xlink="http://www.w3.org/1999/xlink" width="124" height="124" viewBox="0 0 124 124">
  <defs>
    <clipPath id="clip-path">
      <rect id="Rectángulo_459161" data-name="Rectángulo 459161" width="65.537" height="65.414" fill="#004e3d"/>
    </clipPath>
  </defs>
  <g id="Grupo_1190137" data-name="Grupo 1190137" transform="translate(-1234.5 -458)">
    <g id="Elipse_12108" data-name="Elipse 12108" transform="translate(1241.5 465)" fill="#f3bc5b" stroke="rgba(255,255,255,0.4)" stroke-width="7">
      <circle cx="55" cy="55" r="55" stroke="none"/>
      <circle cx="55" cy="55" r="58.5" fill="none"/>
    </g>
    <g id="Grupo_1190494" data-name="Grupo 1190494" transform="translate(1263.732 487.293)">
      <g id="Grupo_1190493" data-name="Grupo 1190493" clip-path="url(#clip-path)">
        <path id="Trazado_1006076" data-name="Trazado 1006076" d="M54.03,8.175a30.554,30.554,0,0,1,6.139-.333c5.541.353,5.995,2.451,4.608,7.4a13.662,13.662,0,0,1-4.2,6.917c-.268.237-1.221.726-1.252.973a21.788,21.788,0,0,0,.687,2.369c.133.207.774.55,1.053.909.732.943,4.285,11.688,4.414,13.085a8.1,8.1,0,0,1-.911,5.135c-.838,1.32-2.978,2.828-4.543,1.955-.405-.226-1-1.284-1.556-.938-.142.088-1.229,2.495-1.522,2.973a19.049,19.049,0,0,1-1.93,2.65l.08.242c2.631-2.036,4.172-.786,4.753,2.118C62.014,64.475,47.476,70,41.821,60.661a28.56,28.56,0,0,1-18.106,0c-4.527,7.67-16.449,5.625-18.054-3.218-.58-3.2.395-9.3,4.784-5.929l.08-.242a19.049,19.049,0,0,1-1.93-2.65c-.293-.478-1.381-2.885-1.522-2.973-.553-.346-1.151.712-1.556.938-1.566.873-3.705-.635-4.543-1.955A8.1,8.1,0,0,1,.062,39.5c.129-1.4,3.682-12.142,4.414-13.085.279-.36.92-.7,1.053-.909a21.787,21.787,0,0,0,.687-2.369c-.031-.246-.984-.736-1.252-.973a14.148,14.148,0,0,1-4.5-8.1C-.515,9.539.6,8.168,5.213,7.85a30.578,30.578,0,0,1,6.294.324c-.458-1.03-1.176-1.984-1.664-3C9.091,3.62,7.87,1.4,9.921.292c1.074-.582,2.447-.06,3.585.243A31.6,31.6,0,0,1,20.6,3.6c1.02-.4,1.9-1.047,2.9-1.506a21.694,21.694,0,0,1,18.538,0c1,.46,1.883,1.1,2.9,1.506A29.353,29.353,0,0,1,53.078.273c1.03-.211,1.66-.529,2.641.08,2.748,1.7-.935,5.805-1.689,7.822M52.723,50.534c.879-.715,3.853-5.083,3.765-5.963-.03-.3-1.078-1.236-1.343-1.776-1.342-2.737-.247-7.435-.659-10.462a14.111,14.111,0,0,1-2.767-19.2l-.05-.212C45.6,5.109,35.292-.733,25.409,3.762c-.4.526,5.473,1.654,5.809,1.793A4.519,4.519,0,0,1,33.91,9.568c.32,3.572-.232,7.583,0,11.2,6.156-.116,16.408,4.455,13.7,12.147-2.162,6.145-11.719,7.905-17.38,7.314-6.583-.688-15.343-5.036-11.9-13a13.351,13.351,0,0,0-7.578-3.494A12.863,12.863,0,0,0,8.5,23.57c-.379.133-.29,1.046-.573,1.374,1.812.778,2.89,1.694,3.084,3.76a85.5,85.5,0,0,1,0,11.607,8.31,8.31,0,0,1-.57,2.373c-.268.59-1.366,1.6-1.395,1.887-.093.935,2.894,5.1,3.686,5.962.143-.753-.336-1.511-.4-2.228-.295-3.518,4.628-2.6,6.689-1.776,4.929,1.962,7.008,7.142,5.732,12.175a27.623,27.623,0,0,0,16.017,0c-1.715-5.992,2.272-12.431,8.594-12.911,3.848-.292,4.333,1.33,3.352,4.74M50.919,8.5c1.392-1.993,3.027-3.951,3.6-6.377A32.56,32.56,0,0,0,47,4.908c-.211.3,1.838,1.786,2.127,2.039S50.667,8.676,50.919,8.5M18.539,4.908c-2.4-1.1-4.85-2.359-7.521-2.619A19.267,19.267,0,0,0,14.7,8.5l3.6-3.1ZM31.624,20.769l0-11.535a2.04,2.04,0,0,0-.664-1.3c-.744-.612-3.1-.865-4.208-1.189a30.88,30.88,0,0,1-4.044-1.622,31.922,31.922,0,0,0-13.5,16.214,18.445,18.445,0,0,1,10.528,4c3.1-3.084,7.575-4.4,11.88-4.567M12.816,10.63c-1.014-.1-2.013-.384-3.027-.49a23.27,23.27,0,0,0-6.5.2c-1.649.4-.979,1.944-.7,3.231a11.589,11.589,0,0,0,4.419,7.356,6.255,6.255,0,0,0,.745-2.013c-.02-.1-1.2-1-1.479-1.341-2.956-3.609-1.559-5.937,3.02-5.637.43.028,2.236.458,2.381.4.2-.077,1.29-1.559,1.137-1.711m45.632,10.3c2.565-1.616,3.874-4.461,4.5-7.358.277-1.289.957-2.833-.7-3.231a23.27,23.27,0,0,0-6.5-.2c-1.013.106-2.013.392-3.027.49-.153.152.937,1.635,1.137,1.711.128.049,2.229-.394,2.7-.41,4.425-.149,5.483,2.122,2.774,5.553a19.052,19.052,0,0,0-1.519,1.6c-.1.4.614,1.371.636,1.847M6.928,14.227A5.93,5.93,0,0,0,8.809,17c.268-.649,1.335-1.882,1.483-2.444a.294.294,0,0,0-.175-.333Zm51.681,0H55.419a.294.294,0,0,0-.175.333c.129.5,1.252,1.813,1.483,2.444a5.847,5.847,0,0,0,1.881-2.777m-4.09,15.046c-.1-2.215,1.125-3.563,3.087-4.329a43.194,43.194,0,0,0-4.474-9.9,11.556,11.556,0,0,0,1.388,14.228m-23.256-6.33C26.6,23.265,16.562,26.86,20.5,33.12c4.163,6.62,19.492,6.538,24.2.483,2.74-3.52.179-6.9-3.1-8.667a19.953,19.953,0,0,0-10.34-1.993M8.727,37.45V28.21c0-.862-2.233-1.4-2.589-.3L3.011,37.051c-.127.5.364.072.4.072H7.5c.163,0,1.143.424,1.227.327M56.81,28.21v9.24c.341.036.987-.327,1.227-.327h4.089c.036,0,.527.424.4-.072L59.4,27.91a1.473,1.473,0,0,0-2.589.3M8.7,39.763c-.459-.723-5.407-.634-6.258-.009-.612.45-.178,2.577.141,3.264.2.434,1.213,1.643,1.644,1.624.662-.029-.488-3.383,1.3-3.265a1.622,1.622,0,0,1,.99.655c.181.4-.111,1.436.326,1.3a4.106,4.106,0,0,0,1.589-1.52A3.616,3.616,0,0,0,8.7,39.763m50.231,3.574c-.221-.918.264-2.135,1.352-1.936,1.343.245.46,2.371.853,3.086.14.255.2.087.357.024,1.642-.685,2.127-3,1.777-4.611-.787-.931-6.04-.766-6.44-.137-.589.926.84,3.521,2.1,3.574M14.451,48.083c.466,1.871,1.3,3.835,1.27,5.765-1.54,3.8-5.118-.171-7.393-1.021-1.8,3.8.469,8.622,4.4,9.979A7.664,7.664,0,0,0,22.471,52.9a7.575,7.575,0,0,0-8.021-4.816m36.635,0A7.586,7.586,0,0,0,43.6,59.415c3.995,7.092,15.073,3.7,14.176-4.854-.033-.313-.274-1.666-.563-1.731-.756-.17-3.964,3.209-6.131,2.537-2.584-.8-.368-5.55.009-7.285" transform="translate(0 0)" fill="#004e3d"/>
        <path id="Trazado_1006077" data-name="Trazado 1006077" d="M177.2,260.033a4.407,4.407,0,0,1,5.036,4.872c-.454,2.753-3.793,3.043-6.015,2.563-4.5-.972-2.887-6.884.979-7.435m.492,2.113c-1.186.138-2.428,1.572-1.844,2.753.3.615,2.462.561,3.094.473,2.276-.315.741-3.458-1.25-3.226" transform="translate(-145.123 -217.469)" fill="#004e3d"/>
        <path id="Trazado_1006078" data-name="Trazado 1006078" d="M246.505,80.056c1.438,1.17-1.332,2.644-1.249,3.117.542.781,2.109,1.524,1.468,2.648-1.055,1.847-2.7-1.142-3.174-1.06-2.5,3.218-4.809.915-1.588-1.588.094-.537-2.727-1.838-1.146-3.1,1.245-.99,2.315,1.484,2.853,1.39.735-.563,1.765-2.283,2.837-1.41" transform="translate(-201.027 -66.76)" fill="#004e3d"/>
        <path id="Trazado_1006079" data-name="Trazado 1006079" d="M121,79.8c1.012-.3,1.735,1.111,2.439,1.6.477.083,1.912-2.641,3.079-1.291.946,1.094-.781,2.117-1.372,2.879-.08.459,2.861,2.093,1.062,3.177-1.093.659-1.893-.945-2.65-1.47-.477-.083-1.912,2.641-3.079,1.291-.946-1.094.781-2.117,1.372-2.879.087-.5-2.09-1.47-1.54-2.672A2.245,2.245,0,0,1,121,79.8" transform="translate(-100.543 -66.687)" fill="#004e3d"/>
        <path id="Trazado_1006080" data-name="Trazado 1006080" d="M149.978,160.029c2.338-.389,3.719,2.121,3.807,4.138.068,1.57-.975,4.207-2.711,4.479-4.762.747-5.1-7.95-1.1-8.617m.453,2.143c-1.371,0-1.348,4.364,0,4.364,1.4,0,1.446-4.364,0-4.364" transform="translate(-123.14 -133.823)" fill="#004e3d"/>
        <path id="Trazado_1006081" data-name="Trazado 1006081" d="M216.469,159.878c4.549-.924,5.171,8.033,1.095,8.615-4.624.661-4.969-7.828-1.095-8.615m.617,2.145c-1.489,0-1.375,4.364,0,4.364,1.347,0,1.371-4.364,0-4.364" transform="translate(-178.839 -133.675)" fill="#004e3d"/>
      </g>
    </g>
  </g>
</svg>
