<svg xmlns="http://www.w3.org/2000/svg" xmlns:xlink="http://www.w3.org/1999/xlink" width="124" height="124" viewBox="0 0 124 124">
  <defs>
    <clipPath id="clip-path">
      <rect id="Rectángulo_459162" data-name="Rectángulo 459162" width="73.489" height="56.056" fill="#004e3d"/>
    </clipPath>
  </defs>
  <g id="Grupo_1190138" data-name="Grupo 1190138" transform="translate(-1234.5 -458)">
    <g id="Elipse_12108" data-name="Elipse 12108" transform="translate(1241.5 465)" fill="#f3bc5b" stroke="rgba(255,255,255,0.4)" stroke-width="7">
      <circle cx="55" cy="55" r="55" stroke="none"/>
      <circle cx="55" cy="55" r="58.5" fill="none"/>
    </g>
    <g id="Grupo_1190496" data-name="Grupo 1190496" transform="translate(1259.755 491.971)">
      <g id="Grupo_1190495" data-name="Grupo 1190495" clip-path="url(#clip-path)">
        <path id="Trazado_1006082" data-name="Trazado 1006082" d="M3.567,59.583A4.632,4.632,0,0,1,0,55.065c0-4.076,5.128-12.514,7.987-15.479.763-.792,3.05-2.4,3.448-3.089a40.456,40.456,0,0,0,1.36-5.926L8.863,20.627c.243-2.386,1.337-4.622,1.723-7,.4.159,2.025.332,2.1.687l-1.141,4.312c.131.167,3.461-1.544,3.948-1.539.661.007.7,1.408,1.04,1.833l-5.2,2.132,3.273,8.2,6.3,2.6a1.666,1.666,0,0,0,1.214-.434,39.229,39.229,0,0,0,2.447-4.282,34.7,34.7,0,0,0,.244-3.6c.069-1.647-.32-5.118.08-6.457.132-.443,3.881-5.687,4.236-5.713a7.068,7.068,0,0,1,1.618,1.2l-2.673,3.748,4.615-.191v2.117l-5.77.19c-.036,1.761.049,3.533.009,5.3-.022.981-.542,2.552-.018,3.463a47.439,47.439,0,0,0,3.522,3.4c1.172.532,4.519.69,6.182,1.124a29.867,29.867,0,0,1,9.208,4.25c1.576,1.108,4.589,4.335,6.205,4.562,2.89.405,3.779-1.378,6.2-2.322.234-1.659.379-3.353.668-5,.1-.548.266-2.214.594-2.482a9.707,9.707,0,0,1,4.071.006c.774.549.588,4.422.947,4.438.445-.542,2.544-4.616,2.884-4.616h4.038c.213,0,.481.778.485,1.052.044,2.678-1.453,6.393-1.348,9.229,5.06,5.628,3.354,14.833-3.717,17.824-4.527,1.915-9.223.232-13.674.938-1.531.243-5.282,2.245-7.121,2.876-11.2,3.844-22.664,2.55-34.333,2.6a3.3,3.3,0,0,1-1.72-5.489c-2-.2-4.512.275-6.441,0M27.5,30.742l-1.632-1.728c-.222.054-1.038,1.755-.867,1.921Zm-9.614,2.119-3.266-1.156-.576,3.076Zm44.027-.386c-.41-.266-.723.252-.832.607-.4,1.306-.235,3.059-.7,4.39l2.116,0a41.868,41.868,0,0,0-.581-5m6.867.031c-.649.182-3.026,4.879-3.633,5.795-1.376,2.075-1.916,1.075-4.094,1.289-2.339.23-3.387,1.6-5.216,2.474-5.436,2.6-8.584-2.861-12.7-5.323-14.554-8.7-32.324-2.433-39.122,12.715-.85,1.893-3.431,7.018-.359,7.925l59.138.1A9.044,9.044,0,0,0,69.96,43.563c-.5-.789-1.253-1.361-1.7-2.16L69.6,32.935c-.008-.473-.44-.535-.815-.43M47.307,59.583H14.141a23.543,23.543,0,0,0-2.2,1.261c-.915.695-1.06,1.7.127,2.158,11.516-.229,23.22,1.371,34.184-2.838.3-.113.962-.263,1.054-.581" transform="translate(0 -9.185)" fill="#004e3d"/>
        <path id="Trazado_1006083" data-name="Trazado 1006083" d="M305.25.025a5.013,5.013,0,0,1-.43,2.552c-.317.588-1.379,1.2-1.445,1.8-.114,1.047,2.06,1.9,1.865,3.988-.126,1.349-1.929,2.675-1.874,3.262.046.482,1.206,1.354,1.534,2.11a4.259,4.259,0,0,1,.35,2.247c-.344-.056-2.043.076-2.117,0a11.8,11.8,0,0,0-.04-1.21c-.3-1.053-1.868-1.409-1.844-3.311.022-1.72,1.99-2.744,1.855-3.608-.139-.88-1.951-1.583-1.846-3.456.093-1.664,1.508-2.117,1.79-3.017a11.212,11.212,0,0,0,.085-1.358c.074-.076,1.773.057,2.117,0" transform="translate(-243.331 0)" fill="#004e3d"/>
        <path id="Trazado_1006084" data-name="Trazado 1006084" d="M350.369.025a5.488,5.488,0,0,1-.345,2.445c-.355.728-1.493,1.191-1.493,2.074,0,1.061,1.924,1.588,1.825,3.626-.074,1.533-1.807,2.687-1.835,3.292-.032.713.815,1.145,1.161,1.65a4.27,4.27,0,0,1,.686,2.872c-.344-.056-2.043.076-2.117,0a11.954,11.954,0,0,0-.038-1.212c-.229-.779-1.75-1.412-1.816-3.142-.073-1.93,1.966-2.878,1.825-3.775-.156-.987-1.961-1.4-1.765-3.571.16-1.766,1.413-1.954,1.709-2.9a11.221,11.221,0,0,0,.085-1.358c.074-.076,1.773.057,2.117,0" transform="translate(-279.798 0)" fill="#004e3d"/>
        <path id="Trazado_1006085" data-name="Trazado 1006085" d="M103.443,149.8l-.181,3.644c1.463.462,5.544-.2,6.189,1.405.36.9.088,4.219-.533,4.943a2.526,2.526,0,0,1-2.115.592C101,160.2,94.989,159.141,89.146,159c-3.3-.454-3.293-1.642-3.2-4.684.092-2.871.371-6.971.783-9.791A2.9,2.9,0,0,1,89.69,142.1c2.723.038,5.555.573,8.277.773,3,.22,6.044.26,9.033.58,1.41.151,3.154.038,3.37,1.821.111.913-.084,3.7-.693,4.314-1.209,1.226-4.587.055-6.233.208m4.8-4.026-19.021-1.46c-.433.214-.51,1.9-.578,2.508-.265,2.387-.5,5.29-.586,7.682a6.986,6.986,0,0,0,.1,2.034l19.129,1.714.2-2.3-7.776-.588c-2.179-.548-2.16-2.425-2.028-4.311.18-2.581.944-3.81,3.755-3.567l6.624.585ZM101.33,149.6c-1.765-.494-1.7,1.76-1.548,2.99.112.906.556.65,1.356.665Z" transform="translate(-69.404 -114.779)" fill="#004e3d"/>
        <path id="Trazado_1006086" data-name="Trazado 1006086" d="M225.114,181c3.837-.8,5.294,4.173,2.108,5.566-4.163,1.822-5.818-4.8-2.108-5.566m.1,2.117a1.035,1.035,0,0,0,1.409,1.506c1.2-.859-.455-2.453-1.409-1.506" transform="translate(-180.167 -146.135)" fill="#004e3d"/>
        <path id="Trazado_1006087" data-name="Trazado 1006087" d="M319.357,181.264c.829-.12,1.443.967,1.883,1.506.5.124,1.775-2.482,2.8-1.072.837,1.156-1.073,1.726-1.14,2.547-.057.694,2.089,1.617,1.04,2.763-1.071,1.17-2.143-1.269-2.681-1.155-.464.624-1.615,2.113-2.442,1.068-.954-1.206,1.069-2.036,1.157-2.545.034-.193-2.772-2.8-.614-3.113" transform="translate(-257.297 -146.406)" fill="#004e3d"/>
        <path id="Trazado_1006088" data-name="Trazado 1006088" d="M45.419,205.186a1.178,1.178,0,0,1,1,.267,34.19,34.19,0,0,1,2.974,2.6c.976,1.167.057,2.409-1.308,1.692a35.444,35.444,0,0,1-3.109-2.656c-.549-.69-.532-1.721.441-1.9" transform="translate(-36.037 -165.716)" fill="#004e3d"/>
      </g>
    </g>
  </g>
</svg>
