<svg xmlns="http://www.w3.org/2000/svg" xmlns:xlink="http://www.w3.org/1999/xlink" width="124" height="124" viewBox="0 0 124 124">
  <defs>
    <clipPath id="clip-path">
      <rect id="Rectángulo_459164" data-name="Rectángulo 459164" width="58.466" height="58.455" fill="#004e3d"/>
    </clipPath>
  </defs>
  <g id="Grupo_1190152" data-name="Grupo 1190152" transform="translate(-1234.5 -458)">
    <g id="Elipse_12108" data-name="Elipse 12108" transform="translate(1241.5 465)" fill="#f3bc5b" stroke="rgba(255,255,255,0.4)" stroke-width="7">
      <circle cx="55" cy="55" r="55" stroke="none"/>
      <circle cx="55" cy="55" r="58.5" fill="none"/>
    </g>
    <g id="Grupo_1190500" data-name="Grupo 1190500" transform="translate(1261.787 490.772)">
      <g id="Grupo_1190499" data-name="Grupo 1190499" clip-path="url(#clip-path)">
        <path id="Trazado_1006094" data-name="Trazado 1006094" d="M13.755,32.007a16.559,16.559,0,0,1-2.645-.162A13.838,13.838,0,0,1,4.482,29.08,12.639,12.639,0,0,1,6.352,8.46,14.444,14.444,0,0,1,10.76,6.878a11.04,11.04,0,0,1,2.995,0V2.422c0-.764,2.06-2.594,3-2.409L46.23.042C50.44,3.856,54.456,8.024,58.4,12.13l.07,43.185a3.368,3.368,0,0,1-3.141,3.141H16.891a3.523,3.523,0,0,1-2.615-1.475,9.091,9.091,0,0,1-.52-.941ZM44.727,2.349H16.9c-.2,0-.749.54-.8.807a29.3,29.3,0,0,0,.06,4.169,12.608,12.608,0,0,1,1.449,23.638c-.376.174-1.378.375-1.49.7l.113,23.946a1.331,1.331,0,0,0,1.1.509H54.888a1.308,1.308,0,0,0,1.235-.811V13.745H45.531a3.077,3.077,0,0,1-.8-.8Zm9.642,9.058-7.3-7.3v7.3ZM11.417,9.216A10.277,10.277,0,0,0,4.839,26.093c5.755,6.734,16.939,3.25,17.828-5.482H12.221c-.069,0-.8-.636-.8-.8Zm11.249,9.058a10.278,10.278,0,0,0-8.912-9.058v9.058Z" transform="translate(0 0)" fill="#004e3d"/>
        <path id="Trazado_1006095" data-name="Trazado 1006095" d="M147.538,227.315a3.486,3.486,0,0,1-5.921-1.936,14.46,14.46,0,0,1,.207-2.243l-3.209-3.961c-.364-.27-1.326.051-1.915.016-.351-.021-.9-.263-1.02-.25-.361.038-3.48,3.866-4.092,4.338.336,1.435.4,3-.768,4.087a3.481,3.481,0,0,1-5.564-4,3.883,3.883,0,0,1,2.834-2c1.317-.1,1.289.812,2.411-.357s2.094-2.486,3.286-3.588c.212-.427-.153-.82-.209-1.249a3.571,3.571,0,0,1,2.849-3.847,3.51,3.51,0,0,1,3.734,5.006l3.41,4.2c.343.22.985-.16,1.465-.172.364-.009.817.217,1.089.093l7.683-8.266c-.153-.829-.6-1.275-.521-2.26.3-3.484,5.124-4.4,6.578-1.317a3.467,3.467,0,0,1-4,4.93l-7.178,7.561c-1.082,1.322-.385.94-.234,2.282a3.628,3.628,0,0,1-.912,2.927m8.924-17.158c-1.213.265-.851,2.323.486,2.1a1.081,1.081,0,1,0-.486-2.1m-19.575,4.532c-1.535.141-.948,2.834.675,1.994a1.069,1.069,0,0,0-.675-1.994m-8.509,9.091a1.106,1.106,0,0,0,0,2.208,1.106,1.106,0,0,0,0-2.208m16.655,0a1.106,1.106,0,0,0,0,2.208,1.106,1.106,0,0,0,0-2.208" transform="translate(-106.661 -177.391)" fill="#004e3d"/>
        <path id="Trazado_1006096" data-name="Trazado 1006096" d="M219.023,125.642a1.746,1.746,0,0,1,.5-.3l18.3.037a1.2,1.2,0,0,1-.5,2.264H219.926a1.259,1.259,0,0,1-.9-2.006" transform="translate(-186.816 -107.034)" fill="#004e3d"/>
        <path id="Trazado_1006097" data-name="Trazado 1006097" d="M219.714,156.09l17.65-.034a1.172,1.172,0,0,1,0,2.344H219.972a1.174,1.174,0,0,1-.258-2.31" transform="translate(-186.863 -133.257)" fill="#004e3d"/>
        <path id="Trazado_1006098" data-name="Trazado 1006098" d="M206.144,79.658a1.189,1.189,0,0,1-.746.35c-4.207.24-6.271.144-12.284,0a1.175,1.175,0,0,1,0-2.347c6.433-.138,7.9-.026,12.278,0a1.169,1.169,0,0,1,.749,2" transform="translate(-163.952 -66.258)" fill="#004e3d"/>
        <path id="Trazado_1006099" data-name="Trazado 1006099" d="M192.439,49.033a1.19,1.19,0,0,1,.6-2.006h12.579c1.456.372,1.114,2.181-.3,2.348a114.686,114.686,0,0,1-11.844,0,1.816,1.816,0,0,1-1.042-.347" transform="translate(-164.028 -40.157)" fill="#004e3d"/>
        <path id="Trazado_1006100" data-name="Trazado 1006100" d="M188.167,125.015a1.188,1.188,0,1,1,.666,2.281c-1.48.308-2.081-1.95-.666-2.281" transform="translate(-159.99 -106.711)" fill="#004e3d"/>
        <path id="Trazado_1006101" data-name="Trazado 1006101" d="M188.289,155.919a1.188,1.188,0,1,1,.666,2.281,1.188,1.188,0,0,1-.666-2.281" transform="translate(-160.112 -133.088)" fill="#004e3d"/>
        <path id="Trazado_1006102" data-name="Trazado 1006102" d="M31.952,125.016c1.815-.4,1.477,1.963,1.912,3.14a5.9,5.9,0,0,0,4.085,3.512c.938.237,2.482-.053,2.384,1.429-.115,1.749-3.151.913-4.184.517a8.361,8.361,0,0,1-4.328-4.146c-.433-.987-1.424-4.113.131-4.452" transform="translate(-26.564 -106.714)" fill="#004e3d"/>
      </g>
    </g>
  </g>
</svg>
