<svg xmlns="http://www.w3.org/2000/svg" xmlns:xlink="http://www.w3.org/1999/xlink" width="150" height="150" viewBox="0 0 150 150">
  <defs>
    <clipPath id="clip-path">
      <rect id="Rect치ngulo_459065" data-name="Rect치ngulo 459065" width="150" height="127.22" fill="none"/>
    </clipPath>
  </defs>
  <g id="Grupo_1190871" data-name="Grupo 1190871" transform="translate(-457.711 -5893)">
    <rect id="Rect치ngulo_459312" data-name="Rect치ngulo 459312" width="150" height="150" transform="translate(457.711 5893)" fill="none"/>
    <g id="Grupo_1190322" data-name="Grupo 1190322" transform="translate(457.711 5905.177)">
      <g id="Grupo_1190321" data-name="Grupo 1190321" transform="translate(0 0)" clip-path="url(#clip-path)">
        <path id="Trazado_1004743" data-name="Trazado 1004743" d="M72.923,8.911a9.4,9.4,0,0,1,3.212-3.384,5.89,5.89,0,0,1,4.731-.587,5.534,5.534,0,0,1,2.165,1.208A3.305,3.305,0,0,1,84.049,8.6a3.36,3.36,0,0,1-3.7,3.088,4.014,4.014,0,0,1-2.375-.86,3.3,3.3,0,0,1-1.1-2.322,7.178,7.178,0,0,1,1.392-4.424,8.581,8.581,0,0,1,3.414-3A11.517,11.517,0,0,1,85.971,0c-2.654,1.2-5.354,2.272-6.832,4.658a6.5,6.5,0,0,0-1.115,3.751,2.185,2.185,0,0,0,2.4,2.018,2.079,2.079,0,0,0,2.286-1.879c.039-1.083-1-1.942-2.238-2.281-2.5-.851-5.086.951-6.407,3.25Z" transform="translate(57.222 -0.001)" fill="#fe9696"/>
        <path id="Trazado_1004744" data-name="Trazado 1004744" d="M31.537,71.985s-9.343,12.534-9.727,17.654-3.6,9.213-2.888,10.494,3.655,3.457,3.655,3.457a16.435,16.435,0,0,1,5.656-2.688c3.432-.9,8.3,2.174,18.279-.769s9.982-8.388,13.439-9.377,23.064,1.315,45-11.611,34.736-33.277,28.848-38.91S137.156,26,104.953,32.352,31.537,71.985,31.537,71.985" transform="translate(14.768 23.63)" fill="#001f18"/>
        <path id="Trazado_1004745" data-name="Trazado 1004745" d="M36.357,70.634c-1.024,5.376-1.667,10.241-.767,12.288a5.144,5.144,0,0,1,.334,1.117,8.509,8.509,0,0,1-.207,3.489l-2-1.151s-1.97,2.561-2.868,4.1-4.735,2.941-5.5,2.941,0-3.327,0-3.327-1.794,2.557-2.431,1.28c-.4-.8.546-3.594,1.72-6.048a17.805,17.805,0,0,1,2.118-3.552C28.42,79.849,32,65.643,29.445,62.7s-7.483-7.476-6.623-14.1,7.135-9.83,10.333-13.926a18.034,18.034,0,0,0,3.712-7.806,10.427,10.427,0,0,1,2.688,6.4s-.384,19.582,1.537,21.118-3.714,10.878-4.735,16.253" transform="translate(17.83 21.079)" fill="#fe9e9e"/>
        <path id="Trazado_1004746" data-name="Trazado 1004746" d="M35.671,62.391l-2-1.151s-1.97,2.561-2.868,4.1-4.735,2.941-5.5,2.941,0-3.325,0-3.325-1.794,2.557-2.431,1.278c-.4-.8.546-3.593,1.72-6.047,0,0,2.418,2.879,5.192,2.718,2.127-.123,4.915-2.779,6.093-4a8.48,8.48,0,0,1-.207,3.491" transform="translate(17.875 46.218)" fill="#671f1e"/>
        <path id="Trazado_1004747" data-name="Trazado 1004747" d="M12.02,23.12c1.044,3.8,8.822,8.765,10.035,8.931s1.685,1.629,0,2.781-5.716,5.759-5.716,5.759a69.316,69.316,0,0,1-5.086-7.2C9.428,30.223,10.2,24.464,7.988,21.1s-3.355-6.02-2.42-5.481,5.4,3.659,6.452,7.5" transform="translate(4.112 12.204)" fill="#f89a9a"/>
        <path id="Trazado_1004748" data-name="Trazado 1004748" d="M75.737,57.882c-.867,1.854-1.894,9.077-2.615,13.839-.314,2.108-.573,3.732-.73,4.2-.514,1.535-1.838-1.521-1.838-1.521s-1.49,3.955-2.516,5.106-4.223,2.557-5.5,2.431-1.124-2.258-1.124-2.258l-1.628-.43c-1.624-.43,1.217-3.2,1.6-4.865a4.926,4.926,0,0,1,.341-.917c.88-1.863,3.018-4.758,3.882-6.379,1.026-1.919,2.431-7.806,2.431-7.806a26.245,26.245,0,0,1-9.468-8.063c-4.224-5.759-7.042-17.4-7.042-17.4-.23-.9,1.217-3.714,6.209-19.168S72.422,3.133,72.422,3.133s6.719,7.437,9.216,16.56-5.759,21.836-7.922,26.494,3.264,9.023,2.02,11.7" transform="translate(40.415 2.106)" fill="#ffa1a1"/>
        <path id="Trazado_1004749" data-name="Trazado 1004749" d="M69.7,41.367c-.314,2.108-.573,3.732-.73,4.2-.514,1.535-1.838-1.521-1.838-1.521s-1.49,3.955-2.515,5.106-4.224,2.557-5.5,2.431-1.126-2.258-1.126-2.258l-1.628-.43c-1.624-.43,1.217-3.2,1.6-4.865a4.867,4.867,0,0,1,.343-.917,3.222,3.222,0,0,0,2.922,3.095c2.784.193,4.612-2.734,5.906-3.095A7.949,7.949,0,0,0,69.7,41.367" transform="translate(43.836 32.46)" fill="#671f1e"/>
        <path id="Trazado_1004750" data-name="Trazado 1004750" d="M90.687,68.707C73.217,78.49,49.677,85.89,35.465,82.652a21.466,21.466,0,0,1-3.925-1.274C18.118,75.426,18.886,42.6,18.886,42.6S37.893,25.51,43.845,23.591s10.751-2.5,16.125-5.952S94.143.744,101.822,2.664s17.854-.191,22.078,17.854a23.461,23.461,0,0,1,.607,4.678c.477,16.637-16.273,33.684-33.82,43.511" transform="translate(14.813 1.943)" fill="#fe9e9e"/>
        <path id="Trazado_1004751" data-name="Trazado 1004751" d="M86.593,59.4c-17.47,9.784-45.788,19.851-62.2,12.768-1.824-9.6,5.375-17.71,5.375-17.71S45.64,35.563,51.592,33.643,65.475,32.956,70.85,29.5,105.024,12.6,112.7,14.525c2.411.6,5.069.807,7.71,1.364.477,16.637-16.273,33.684-33.82,43.511" transform="translate(18.907 11.251)" fill="#fe9696"/>
        <path id="Trazado_1004752" data-name="Trazado 1004752" d="M52.037,54.748l-.227.13c.061,2.5-1.794,8-8.7,12.671S34.273,69.788,27.874,69.6s-11.9,3.582-17.852,2.945S.293,67.1.038,64.732c-.1-.949.009-1.33.241-1.471.344-.207.949.127,1.485-.066.9-.318,10.433-13.373,11.2-16.253s-.576-6.527,0-7.87,5.566-6.336,8.063-9.6S32.739,24.1,32.739,24.1c2.111,0,2.814,1.41,4.542,3.9.88,1.271,4.51,3.937,7.956,6.643,3.323,2.609,6.47,5.252,6.8,6.732.676,3.005,0,13.373,0,13.373" transform="translate(0 18.907)" fill="#ffa1a1"/>
        <path id="Trazado_1004753" data-name="Trazado 1004753" d="M52.037,50.366l-.227.13c.061,2.5-1.794,8-8.7,12.671s-8.832,2.238-15.232,2.047S15.971,68.8,10.021,68.16.293,62.718.038,60.35c-.1-.949.009-1.33.241-1.471,1.838.96,6.544,4.1,8.174,3.2s12.1-16.883,15.646-18.1,3.641-.646,4.892-2.854,9.243-14.19,16.246-10.858c3.325,2.607,6.47,5.252,6.8,6.732.676,3.005,0,13.373,0,13.373" transform="translate(0 23.289)" fill="#fe9e9e"/>
        <path id="Trazado_1004754" data-name="Trazado 1004754" d="M36.861,37.631c-2.113,4.289-5.57,7.3-10.881,5.122-4.647-1.9-7.783-5.568-8.488-8.343a4.586,4.586,0,0,1-.152-1.13c0-.318.832-3.389,4.865-4.349S32.314,32,36.477,32.129c1.519.046,2.261.223,2.486.634.4.717-.764,2.151-2.1,4.869" transform="translate(13.607 22.586)" fill="#ff9c9c"/>
        <path id="Trazado_1004755" data-name="Trazado 1004755" d="M36.794,36.318c-2.113,4.289-5.57,7.3-10.881,5.122-4.647-1.9-7.772-5.572-8.488-8.343a4.373,4.373,0,0,1,3.3-2.474c4.674-1.085,11.959,3.58,14.936,2.431a15.971,15.971,0,0,0,3.234-1.6c.4.717-.764,2.151-2.1,4.869" transform="translate(13.673 23.899)" fill="#f89a9a"/>
        <path id="Trazado_1004756" data-name="Trazado 1004756" d="M12.939,40.668s.684.016,1.488-1.344,1.476-.48,2.682-.336a2.283,2.283,0,0,0,1.729-.318s-1.431,1.983-2.823,2.272a7.006,7.006,0,0,1-3.077-.275" transform="translate(10.153 30.269)" fill="#070709"/>
        <path id="Trazado_1004757" data-name="Trazado 1004757" d="M14.62,39.388a.29.29,0,1,1-.291-.289.291.291,0,0,1,.291.289" transform="translate(11.017 30.68)" fill="#ffe5e5"/>
        <path id="Trazado_1004758" data-name="Trazado 1004758" d="M86.955,64.359c-.867,1.854-1.894,9.077-2.615,13.839-.316,2.108-.573,3.732-.73,4.2-.514,1.535-1.838-1.521-1.838-1.521s-1.49,3.955-2.516,5.106-4.223,2.557-5.5,2.431-1.124-2.258-1.124-2.258L71,85.731c-1.624-.43,1.217-3.2,1.6-4.865a4.927,4.927,0,0,1,.341-.917c.88-1.863,3.018-4.758,3.883-6.379,1.024-1.919,2.429-7.806,2.429-7.806A26.223,26.223,0,0,1,69.788,57.7c-4.224-5.759-7.042-17.4-7.042-17.4-.23-.9,1.217-3.714,6.209-19.168S83.64,9.61,83.64,9.61s6.719,7.437,9.216,16.56S87.1,48.006,84.934,52.664s3.264,9.023,2.02,11.7" transform="translate(49.218 7.189)" fill="#ffa1a1"/>
        <path id="Trazado_1004759" data-name="Trazado 1004759" d="M80.918,47.844c-.314,2.108-.571,3.732-.73,4.2-.514,1.535-1.838-1.521-1.838-1.521s-1.49,3.955-2.515,5.106-4.224,2.557-5.5,2.431-1.124-2.258-1.124-2.258l-1.628-.43c-1.624-.43,1.217-3.2,1.6-4.865a5,5,0,0,1,.343-.917,3.222,3.222,0,0,0,2.922,3.095c2.784.193,4.612-2.734,5.906-3.095a7.949,7.949,0,0,0,2.568-1.751" transform="translate(52.639 37.542)" fill="#671f1e"/>
        <path id="Trazado_1004760" data-name="Trazado 1004760" d="M45.352,75.828c-1.024,5.376-1.667,10.241-.767,12.288a5.143,5.143,0,0,1,.334,1.117,8.509,8.509,0,0,1-.207,3.489l-2-1.151s-1.97,2.561-2.868,4.1-4.735,2.941-5.5,2.941,0-3.327,0-3.327-1.794,2.557-2.431,1.28c-.4-.8.544-3.594,1.72-6.048a17.8,17.8,0,0,1,2.118-3.552C37.415,85.043,41,70.837,38.44,67.892s-7.483-7.476-6.623-14.1,7.135-9.83,10.333-13.926a18.034,18.034,0,0,0,3.712-7.806,10.427,10.427,0,0,1,2.688,6.4s-.384,19.582,1.537,21.118-3.714,10.878-4.735,16.253" transform="translate(24.888 25.154)" fill="#fe9e9e"/>
        <path id="Trazado_1004761" data-name="Trazado 1004761" d="M44.666,67.584l-2-1.151s-1.969,2.561-2.868,4.1-4.733,2.941-5.5,2.941,0-3.325,0-3.325-1.792,2.557-2.431,1.28c-.4-.8.546-3.594,1.72-6.048,0,0,2.418,2.879,5.192,2.718,2.127-.123,4.915-2.779,6.093-4a8.48,8.48,0,0,1-.207,3.491" transform="translate(24.934 50.293)" fill="#671f1e"/>
        <path id="Trazado_1004762" data-name="Trazado 1004762" d="M.188,48.068s-.875-2.725,1.717-1.324,5.583,2.452,7.31,5.14,2.88,5.311-.767,4.032-7.369-5.07-8.26-7.847" transform="translate(0.036 36.365)" fill="#fe9696"/>
      </g>
    </g>
  </g>
</svg>
