<svg xmlns="http://www.w3.org/2000/svg" xmlns:xlink="http://www.w3.org/1999/xlink" width="90.184" height="90.184" viewBox="0 0 90.184 90.184">
  <defs>
    <clipPath id="clip-path">
      <rect id="Rectángulo_459156" data-name="Rectángulo 459156" width="61.965" height="62.034" fill="#004e3d"/>
    </clipPath>
  </defs>
  <g id="Grupo_1189542" data-name="Grupo 1189542" transform="translate(-335.332 -4180)">
    <g id="Grupo_1110751" data-name="Grupo 1110751" transform="translate(0.332 -1714)">
      <g id="Grupo_1108938" data-name="Grupo 1108938" transform="translate(335 5894)">
        <g id="Grupo_1073526" data-name="Grupo 1073526" transform="translate(0 0)">
          <g id="Grupo_1072785" data-name="Grupo 1072785" transform="translate(0 0)">
            <path id="Trazado_608385" data-name="Trazado 608385" d="M45.092,0A45.092,45.092,0,1,1,0,45.092,45.092,45.092,0,0,1,45.092,0Z" transform="translate(0 0)" fill="none"/>
          </g>
          <g id="Grupo_1073383" data-name="Grupo 1073383" transform="translate(0 0)">
            <path id="Trazado_608385-2" data-name="Trazado 608385" d="M45.092,0A45.092,45.092,0,1,1,0,45.092,45.092,45.092,0,0,1,45.092,0Z" transform="translate(0 0)" fill="#d8dec8"/>
          </g>
        </g>
      </g>
    </g>
    <g id="Grupo_1190482" data-name="Grupo 1190482" transform="translate(349.441 4194.075)">
      <g id="Grupo_1190481" data-name="Grupo 1190481" clip-path="url(#clip-path)">
        <path id="Trazado_1006045" data-name="Trazado 1006045" d="M61.136,62.925l9.758,9.836c1.11,1.161-1.643,2.609-2.552,3.179-19.95,12.494-45.016-4.7-40.616-27.759a21.337,21.337,0,0,1,1.224-4.352.866.866,0,0,1,1.586-.1c.422.638-.292,1.832-.491,2.589-3.011,11.462,1.5,23.111,11.934,28.872a25.294,25.294,0,0,0,26.9-1.733L58.546,63.105c-2.461.209-4.03,2.247-6.4,2.989-7.821,2.447-15.839.742-16.42-8.662-.3-4.851.055-9.854,4.5-12.708L33.95,38.451c-.18-.077-1.807,3.051-2.157,3.262a.9.9,0,0,1-1.414-.941,25.975,25.975,0,0,1,2.884-4.4.951.951,0,0,1,1.388.142L41.933,43.8c1.506-.021,3.1-.71,4.641-.236.07-.268-.11-.31-.23-.465-2.435-3.151-6.614-6.072-9.217-9.215-.93-1.068.557-1.8,1.345-2.372,21.093-15.455,49.872,6.518,40.6,31.3-.678,1.81-2.866,6.121-4.236,7.381a.911.911,0,0,1-1.382.013l-7.28-7.28ZM47.195,45.266H44.019c-2.009,0-4.69,2.309-5.557,4.047-1.254,2.513-1.277,9.157-.127,11.705,2.226,4.932,7.968,4.691,12.457,3.568,3.192-.8,4.772-3.259,8.4-3.526,3.994-.294,8.356.22,12.389.021,1.117.072.857,1.844-.146,1.844H68.881l5.264,5.267a27.381,27.381,0,0,0,4.45-10.5,25.018,25.018,0,0,0-27.74-29.134,26.77,26.77,0,0,0-11.715,4.63l10.013,10.05a4.918,4.918,0,0,1,4.889-.4c.88.385,1.875,1.4,2.748,1.589,1.234.261,4.627-.225,5.363.214a.927.927,0,0,1-.353,1.68,27.791,27.791,0,0,1-4.613.032c-2.734-.271-4.445-3.638-7.13-1.4a26.72,26.72,0,0,0-3.207,4.382,1.6,1.6,0,0,0,.751,2.108c2.077,1.118,3.006-2.061,5.248-2.006,2.077.051,3.968,3.142,2,3.263-.715.044-.852-.579-1.3-.927a29.2,29.2,0,0,1-1.7,8.6c-.253.632-.332,1.338-1.169,1.326a.922.922,0,0,1-.766-.48c-.293-.651.708-2.868.928-3.712a24.553,24.553,0,0,0,.848-5.579c-1.989,2.429-6.214,2-6.776-1.353-.4-2.386,1.615-3.361,2.286-5.308" transform="translate(-23.002 -22.279)" fill="#004e3d"/>
        <path id="Trazado_1006046" data-name="Trazado 1006046" d="M52.17,10.963C36.175-5.866,7.64,1.982,2.583,24.534-2.673,47.972,21,67.477,42.991,57.663a29.7,29.7,0,0,1,3.3-1.642.948.948,0,0,1,.665,1.583,23.351,23.351,0,0,1-3.347,1.763C24.606,67.817,2.5,55.272.2,34.663-2.516,10.292,22.648-7.631,44.776,3.255c19.691,9.688,23.2,36.58,6.682,51.1a9.062,9.062,0,0,1-2.092,1.484c-.86.057-1.214-.458-.94-1.264a26.582,26.582,0,0,1,2.8-2.464,29.3,29.3,0,0,0,.942-41.149" transform="translate(0 0)" fill="#004e3d"/>
        <path id="Trazado_1006047" data-name="Trazado 1006047" d="M267.184,143.452l6.623-.03a.933.933,0,0,1-.16,1.846,41.413,41.413,0,0,1-6.178,0c-1.072-.167-1.371-1.457-.285-1.816" transform="translate(-225.221 -121.206)" fill="#004e3d"/>
        <path id="Trazado_1006048" data-name="Trazado 1006048" d="M170.294,80.319c.259.259.2.892.153,1.239a36.936,36.936,0,0,1-1.388,4.81c-.509,1.188-1.848.785-1.817-.259.616-1.541.824-3.864,1.532-5.292.292-.589.983-1.035,1.52-.5" transform="translate(-141.335 -67.673)" fill="#004e3d"/>
        <path id="Trazado_1006049" data-name="Trazado 1006049" d="M235.955,80.3c.642-.61,1.576-.025,1.5.945a40.592,40.592,0,0,1-1.506,5.166c-.586,1.049-1.826.75-1.725-.476a32.9,32.9,0,0,1,1.339-4.712,4.048,4.048,0,0,1,.393-.923" transform="translate(-197.937 -67.648)" fill="#004e3d"/>
        <path id="Trazado_1006050" data-name="Trazado 1006050" d="M203.182,80.275a.942.942,0,0,1,1.258,1.091,53.846,53.846,0,0,1-1.554,5.276c-.521.99-1.783.64-1.657-.723a31.742,31.742,0,0,1,1.372-4.828c.118-.295.244-.713.58-.816" transform="translate(-170.051 -67.792)" fill="#004e3d"/>
      </g>
    </g>
  </g>
</svg>
