<svg xmlns="http://www.w3.org/2000/svg" xmlns:xlink="http://www.w3.org/1999/xlink" width="80" height="80" viewBox="0 0 80 80">
  <defs>
    <clipPath id="clip-path">
      <rect id="Rect치ngulo_459050" data-name="Rect치ngulo 459050" width="58.171" height="60.111" fill="#f3bc5b"/>
    </clipPath>
  </defs>
  <g id="Grupo_1188346" data-name="Grupo 1188346" transform="translate(-704.52 -3293.691)">
    <g id="Grupo_1183033" data-name="Grupo 1183033" transform="translate(524.852 -2227.309)">
      <rect id="Rect치ngulo_402006" data-name="Rect치ngulo 402006" width="80" height="80" rx="5" transform="translate(179.668 5521)" fill="#004e3d"/>
    </g>
    <g id="Grupo_1190282" data-name="Grupo 1190282" transform="translate(715.434 3301.636)">
      <g id="Grupo_1190281" data-name="Grupo 1190281" clip-path="url(#clip-path)">
        <path id="Trazado_1004623" data-name="Trazado 1004623" d="M30.109,232.5c.358.21,3.794-.69,4.417-.895,2.373-.781,4.866-2.717,7.459-2.6A63.677,63.677,0,0,1,51.74,231.8a3.072,3.072,0,0,1,2,2.676c.714.705,8.167-3.171,9.357-3.786,1.534-.794,5.447-3.429,6.844-3.582a3.241,3.241,0,0,1,3.078,4.852c-.588,1.038-4.454,4.209-5.6,5.168-5.239,4.369-12.616,10.305-19.771,9.714-3.854-.318-7.437-1.457-11.65-1.594a42.7,42.7,0,0,0-5.454.035c-.423.14-.5,1.5-2.163,1.722-1.909.26-4.05.1-4.311-2.192-.418-3.656.244-8.183.083-11.925A2.307,2.307,0,0,1,25.92,231.3a15.247,15.247,0,0,1,2.969.041c.781.176,1.007,1.035,1.221,1.161m.317,10.987c3.57.045,7.31-.029,10.859.355,4.107.445,7.242,2.132,11.487.713,4.962-1.659,14.646-9.082,18.277-12.98,1.207-1.3.653-2.757-1.068-2.668-4.891,2.382-9.691,5.876-15,7.261a8.217,8.217,0,0,0-1.382.208c-.342.157-.557.717-.933,1.01-2.059,1.6-5.8-.275-8.207-.431-.751-.049-1.6.388-2.123-.169a.825.825,0,0,1-.067-1.144c1.011-1.392,6.831.811,8.555.609,1.613-.189,1.645-2.107.182-2.837a67.815,67.815,0,0,0-8.859-2.623c-2.148-.188-3.764,1.217-5.6,1.958a28.953,28.953,0,0,1-6.124,1.557Zm-1.968,1.741c.506-.311.051-10.467.177-11.871-.153-.468-2.547-.377-2.724-.124l-.052,11.73c.141.446,2.468.346,2.6.265" transform="translate(-19.703 -186.989)" fill="#f3bc5b"/>
        <path id="Trazado_1004624" data-name="Trazado 1004624" d="M89.537.023a.944.944,0,0,1,.7.106l14.83,7.777c.475.257.837.589.772,1.171-.752,7.738,2.14,17.564-3.195,24.022-2.2,2.666-7.751,6.293-10.783,8.29-.8.526-1.819,1.543-2.735,1-6.235-4.874-14.853-8.109-15.446-17.221l.1-16.694.67-.566Zm0,1.943-14,7.385-.094,15.815c.6,7.988,8.446,10.925,13.9,15.245l.472.163c5.571-4.259,13.646-7.371,14.25-15.409.373-4.96-.3-10.371,0-15.38l-.293-.59L90.1,2.028a.643.643,0,0,0-.561-.062" transform="translate(-60.668 -0.001)" fill="#f3bc5b"/>
        <path id="Trazado_1004625" data-name="Trazado 1004625" d="M266.974,90.759c-.318.322.108.291.261.352a18.321,18.321,0,0,1,4.944,2.475c3.727,3.012,2.2,6.051-1.379,8.15-1.246.731-6.557,2.943-7.762,2.587a.986.986,0,0,1-.308-1.475c.2-.2,3.162-.915,3.805-1.139,1.662-.579,6.255-2.48,6.052-4.64-.155-1.661-4.03-3.936-5.525-4.195-.532-.092-.066.5-.077.8-.1,2.578-4.338-1.843-4.425-2.671a1.423,1.423,0,0,1,.219-.914,39.136,39.136,0,0,1,3.978-1.058c.55-.067,1.183-.124,1.282.586.147,1.054-.833.905-1.064,1.14" transform="translate(-216.163 -73.28)" fill="#f3bc5b"/>
        <path id="Trazado_1004626" data-name="Trazado 1004626" d="M11.563,94.755a1.046,1.046,0,0,1-.135,1.459,41.011,41.011,0,0,1-4.28,1.371c-1.617.614-5.706,2.416-5.361,4.55.293,1.809,4.083,3.7,5.757,4.057-.422-.971-.073-1.914,1.111-1.553a27.973,27.973,0,0,1,2.993,3.012c.282.648.2,1.09-.447,1.405a19.878,19.878,0,0,1-4.414.99c-1.047-.31-.3-1.94.756-1.821-2.242-1.039-4.946-1.87-6.538-3.881-3.735-4.719,3.87-7.987,7.383-9.05.576-.174,2.786-.885,3.173-.539" transform="translate(0 -77.946)" fill="#f3bc5b"/>
        <path id="Trazado_1004627" data-name="Trazado 1004627" d="M130.524,107a2.73,2.73,0,0,1,1.982,4.983c-.29.217-.74.219-.964.449-.207.213-.824,1.906-1.119,2.413-3.623,6.231-12.988,7.163-17.412,1.283-.538-.715-2.036-3.09-.365-3.183.986-.055.947.909,1.428,1.59a8.808,8.808,0,0,0,14.871-.638c1.343-2.359.359-1.462-.356-2.929A2.771,2.771,0,0,1,130.524,107m.17,1.752a.982.982,0,0,0,.454,1.885.982.982,0,1,0-.454-1.885" transform="translate(-92.121 -88.068)" fill="#f3bc5b"/>
        <path id="Trazado_1004628" data-name="Trazado 1004628" d="M95.909,67.794c.089-.088.7-1.852.96-2.307a10.758,10.758,0,0,1,14.215-4.219c.664.343,2.24,1.129,1.483,2.082-.616.775-2.913-.9-3.822-1.155a9.048,9.048,0,0,0-9.689,3.184c-.353.459-1.536,2.38-1.259,2.81.114.177.551.31.841.757a2.738,2.738,0,1,1-3.806-.727c.3-.193,1-.35,1.077-.425m1.235,2.027c-.821-.815-2.408.256-1.451,1.363.921,1.066,2.234-.585,1.451-1.363" transform="translate(-77.105 -49.478)" fill="#f3bc5b"/>
        <path id="Trazado_1004629" data-name="Trazado 1004629" d="M135.911,75.817a1.018,1.018,0,0,1,1.012-.135c.744.336,2.535,2.831,3.445,3.451.148.1.183.243.442.172a.742.742,0,0,1,.174-.437c3.312-3.534,6.184-7.8,9.375-11.471a.923.923,0,0,1,1.3,1.3c-3.388,3.682-6.275,8.065-9.619,11.748-.33.364-.992,1.2-1.455,1.13-.808-.117-3.795-3.835-4.73-4.471a1.152,1.152,0,0,1,.052-1.291" transform="translate(-111.724 -55.296)" fill="#f3bc5b"/>
      </g>
    </g>
  </g>
</svg>
