<svg xmlns="http://www.w3.org/2000/svg" xmlns:xlink="http://www.w3.org/1999/xlink" width="295" height="232" viewBox="0 0 295 232">
  <defs>
    <clipPath id="clip-path">
      <rect id="Rectángulo_459062" data-name="Rectángulo 459062" width="258.406" height="196.424" fill="none"/>
    </clipPath>
    <clipPath id="clip-path-2">
      <path id="Trazado_1004630" data-name="Trazado 1004630" d="M112.85,42.351,9.824,101.836a26.513,26.513,0,0,0-3.894,2.716L0,104.772v11.26c-.019,6.453,4.689,13.263,13.9,18.579l74.885,43.236c9.166,5.292,20.9,8.011,32.029,8.025H121c9.2-.014,17.987-1.88,24.554-5.674l103.026-59.481c6.522-3.764,9.752-8.79,9.82-14.064h0V95.171l-4.652.173a35.437,35.437,0,0,0-9.246-7.4L169.623,44.706c-9.19-5.305-20.961-8.025-32.118-8.025-9.242,0-18.061,1.863-24.656,5.67" transform="translate(-0.001 -36.681)" fill="none"/>
    </clipPath>
    <linearGradient id="linear-gradient" y1="1" x2="0.005" y2="1" gradientUnits="objectBoundingBox">
      <stop offset="0" stop-color="#789401"/>
      <stop offset="0.425" stop-color="#789401"/>
      <stop offset="0.444" stop-color="#7d9b01"/>
      <stop offset="0.506" stop-color="#8dae01"/>
      <stop offset="0.549" stop-color="#93b501"/>
      <stop offset="1" stop-color="#93b501"/>
    </linearGradient>
    <clipPath id="clip-path-4">
      <rect id="Rectángulo_459052" data-name="Rectángulo 459052" width="139.141" height="80.335" fill="none"/>
    </clipPath>
    <clipPath id="clip-path-5">
      <rect id="Rectángulo_459053" data-name="Rectángulo 459053" width="107.052" height="61.807" fill="none"/>
    </clipPath>
    <clipPath id="clip-path-6">
      <rect id="Rectángulo_459054" data-name="Rectángulo 459054" width="5.331" height="8.15" fill="none"/>
    </clipPath>
    <clipPath id="clip-path-7">
      <rect id="Rectángulo_459055" data-name="Rectángulo 459055" width="10.284" height="3.818" fill="none"/>
    </clipPath>
    <clipPath id="clip-path-8">
      <rect id="Rectángulo_459056" data-name="Rectángulo 459056" width="3.366" height="3.611" fill="none"/>
    </clipPath>
    <clipPath id="clip-path-9">
      <rect id="Rectángulo_459057" data-name="Rectángulo 459057" width="2.265" height="4.698" fill="none"/>
    </clipPath>
    <clipPath id="clip-path-10">
      <rect id="Rectángulo_459058" data-name="Rectángulo 459058" width="121.095" height="68.885" fill="none"/>
    </clipPath>
    <clipPath id="clip-path-11">
      <rect id="Rectángulo_459059" data-name="Rectángulo 459059" width="24.214" height="13.98" fill="none"/>
    </clipPath>
    <clipPath id="clip-path-12">
      <rect id="Rectángulo_459060" data-name="Rectángulo 459060" width="42.828" height="27.211" fill="none"/>
    </clipPath>
  </defs>
  <g id="Grupo_1188463" data-name="Grupo 1188463" transform="translate(-600.256 -404)">
    <rect id="Rectángulo_35929" data-name="Rectángulo 35929" width="295" height="232" transform="translate(600.256 404)" fill="#d8dec8"/>
    <g id="Grupo_1190315" data-name="Grupo 1190315" transform="translate(618.256 421.788)">
      <g id="Grupo_1190314" data-name="Grupo 1190314" clip-path="url(#clip-path)">
        <g id="Grupo_1190284" data-name="Grupo 1190284" transform="translate(0.001 47.234)">
          <g id="Grupo_1190283" data-name="Grupo 1190283" clip-path="url(#clip-path-2)">
            <rect id="Rectángulo_459051" data-name="Rectángulo 459051" width="258.424" height="149.191" transform="translate(-0.019 -0.001)" fill="url(#linear-gradient)"/>
          </g>
        </g>
        <g id="Grupo_1190313" data-name="Grupo 1190313">
          <g id="Grupo_1190312" data-name="Grupo 1190312" clip-path="url(#clip-path)">
            <path id="Trazado_1004631" data-name="Trazado 1004631" d="M248.582,100.617,145.556,160.1c-14.55,8.4-39.97,7.349-56.772-2.351L13.9,114.511C4.69,109.2-.018,102.385,0,95.933v5.751c-.019,6.453,4.689,13.263,13.9,18.579L88.784,163.5c16.8,9.7,42.222,10.755,56.772,2.353l103.026-59.483c6.522-3.765,9.752-8.791,9.82-14.066h0v-5.75h0c-.068,5.273-3.3,10.3-9.82,14.064" transform="translate(0 24.901)" fill="#7a3d23"/>
            <path id="Trazado_1004632" data-name="Trazado 1004632" d="M219.3,83.806,144.41,40.57c-16.8-9.7-42.218-10.755-56.773-2.355l63.992,113.737V158l71.74-41.419c6.567-3.791,9.8-8.859,9.824-14.172V96.361a44.413,44.413,0,0,0-13.9-12.555" transform="translate(25.213 9.363)" fill="#875937"/>
            <path id="Trazado_1004633" data-name="Trazado 1004633" d="M248.582,111.884,145.556,171.366c-14.551,8.4-39.97,7.349-56.772-2.351L13.9,125.779C-2.9,116.078-4.727,101.4,9.824,93L112.85,33.518c14.554-8.4,39.97-7.345,56.772,2.356l74.886,43.234c16.8,9.7,18.625,24.376,4.074,32.776" transform="translate(0 8.012)" fill="#a6cc02"/>
            <path id="Trazado_1004634" data-name="Trazado 1004634" d="M235.323,79.109,160.438,35.873c-16.8-9.7-42.218-10.755-56.773-2.355L31.926,74.939,167.657,153.3l71.74-41.419c14.551-8.4,12.728-23.076-4.074-32.776" transform="translate(9.185 8.012)" fill="#a26b42"/>
            <g id="Grupo_1190287" data-name="Grupo 1190287" transform="translate(43.453 79.85)" style="mix-blend-mode: multiply;isolation: isolate">
              <g id="Grupo_1190286" data-name="Grupo 1190286">
                <g id="Grupo_1190285" data-name="Grupo 1190285" clip-path="url(#clip-path-4)">
                  <path id="Trazado_1004635" data-name="Trazado 1004635" d="M33.745,64.567l134.713,77.778,4.43-2.557L38.174,62.01Z" transform="translate(-33.745 -62.01)" fill="#c1c8e0"/>
                </g>
              </g>
            </g>
            <g id="Grupo_1190290" data-name="Grupo 1190290" transform="translate(106.584 60.966)" style="mix-blend-mode: multiply;isolation: isolate">
              <g id="Grupo_1190289" data-name="Grupo 1190289">
                <g id="Grupo_1190288" data-name="Grupo 1190288" clip-path="url(#clip-path-5)">
                  <path id="Trazado_1004636" data-name="Trazado 1004636" d="M96.164,106.444l-8.7-5.025c-6.952-4.015-6.073-11.092,1.956-15.728l59.771-34.508c8.029-4.636,20.288-5.144,27.241-1.129l8.7,5.025c6.954,4.014,6.074,11.092-1.956,15.727l-59.77,34.509c-8.029,4.636-20.288,5.144-27.241,1.129" transform="translate(-82.771 -47.345)" fill="#c1c8e0"/>
                </g>
              </g>
            </g>
            <path id="Trazado_1004637" data-name="Trazado 1004637" d="M92.209,58.833c-1.261-7.735-3.638-7.577-4-12.864s4.874-13.447,4.5-19.12S103.4,14.737,105.446,15.295s7.181,2.781,6.566,13.386,3.13,10.818-2.228,26.091c-1.262,3.6-4.556,12.345-4.463,16.623s-1.883,4.8-1.921,7.121-.751,7.393,0,11.345.626,4.7.457,6.091-3.464,2.548-5.788,2.13-3.582-1.72-3.161-2.951.789-4.951,1.534-6.44,1.348-11.669.419-13.482-.685-3.407-.073-6.356-4.576-10.018-4.576-10.018" transform="translate(25.373 4.39)" fill="#942f11"/>
            <path id="Trazado_1004638" data-name="Trazado 1004638" d="M71.512,18.442c1.3.062,6.354,1.974,7.039,3.276s.312,2.542,1.613,4.216-2.515,2.613-4.561,2.179-1.983-2.17-2.541-4.029a9.6,9.6,0,0,0-3.236-4.589c-1.178-.8,1.686-1.052,1.686-1.052" transform="translate(20.007 5.306)" fill="#ba4f2c"/>
            <g id="Grupo_1190293" data-name="Grupo 1190293" transform="translate(90.035 24.704)" style="mix-blend-mode: multiply;isolation: isolate">
              <g id="Grupo_1190292" data-name="Grupo 1190292">
                <g id="Grupo_1190291" data-name="Grupo 1190291" clip-path="url(#clip-path-6)">
                  <path id="Trazado_1004639" data-name="Trazado 1004639" d="M69.92,19.188c2.386-.093,4.4,2.091,3.967,3.929S75.251,26.843,75.251,27s-.424.671-1.022,0-1.395-5.425-4.309-7.811" transform="translate(-69.919 -19.185)" fill="#eb874b"/>
                </g>
              </g>
            </g>
            <path id="Trazado_1004640" data-name="Trazado 1004640" d="M91.545,30.5c5.4.256,13.8,1.008,20.782,1.688.54,4.425,1.079,7.868-2.543,18.194-1.262,3.6-4.557,12.346-4.463,16.624s-1.883,4.8-1.921,7.12-.752,7.393,0,11.345.626,4.7.456,6.091c-.107.88-1.456,1.662-3.022,2.017.08-8.88-.335-8.451.467-9.073.842-.653-.215-7.485,0-9.3s-.147-6.928-1.9-8.554c-.742-.69-1.7-1.662-2.584-2.619.108-3.148-4.613-9.589-4.613-9.589a22.912,22.912,0,0,0-2.564-7.8c-.489-1.628-.971-3.267-1.416-4.844-.005-.072-.013-.142-.018-.216-.174-2.569,1.554-6.778,3.335-11.079" transform="translate(25.374 8.776)" fill="#82260a"/>
            <path id="Trazado_1004641" data-name="Trazado 1004641" d="M99.034,76.175c2.537-.97,2.179-1.077,3.264-1.2a11.484,11.484,0,0,1,.076,3.873c-.17,1.395-3.464,2.55-5.789,2.131S93,79.259,93.424,78.027a27.427,27.427,0,0,0,.692-3.325c-.2,1.156,1.758,2.682,4.919,1.473" transform="translate(26.855 21.492)" fill="#33373b"/>
            <path id="Trazado_1004642" data-name="Trazado 1004642" d="M129.313,30.467c.417,3.393,3.526,6.092,5.318,8.495a47.13,47.13,0,0,1,4.13,11.739c.371,1.087-.1,3.02,0,5.036s.833,7.238.922,7.654a6.929,6.929,0,0,1-.216,2.418c-.1.424-.237,1.219-.335,2.074a8.965,8.965,0,0,0,.045,3c.38,1.205,1.489,1.257,2.85,1.377S146.2,70.741,146.117,70a22.275,22.275,0,0,1,0-2.56c.014-.558-.618-3.251-.662-5.862s-1.31-4.412-1.265-6.175,1.576-6.468,1.925-12.231-.588-4.012-1.409-5.859a5.48,5.48,0,0,1-.39-4.971c.721-2.47,1.138-7.811,1.042-12.416s1.3-7.811,1.532-12.6,5.56-1.265-.2-6.829C144.859-1.1,135.882,1.523,133.429,2.99s-3.4,2.516-4.016,5.13c-2.745,11.669-.516,18.955-.1,22.347" transform="translate(36.844 0)" fill="#82260a"/>
            <path id="Trazado_1004643" data-name="Trazado 1004643" d="M136.279,55.321c-.126,1.257,1.733,1.961,3.094,2.081s4.464-1.686,4.382-2.429a22.881,22.881,0,0,1,0-2.56,2.732,2.732,0,0,0-2.153.854c-1.489,1.2-4.9-.068-4.75-1.042a3.763,3.763,0,0,1-.081.634c-.118,1.1-.413,1.751-.492,2.462" transform="translate(39.206 15.025)" fill="#33373b"/>
            <path id="Trazado_1004644" data-name="Trazado 1004644" d="M136.825,56.006a2.981,2.981,0,0,1,1.207-.861s.2,1.388.173,1.559-1.379-.7-1.379-.7" transform="translate(39.364 15.865)" fill="#fff"/>
            <path id="Trazado_1004645" data-name="Trazado 1004645" d="M77.064,51.983a67.124,67.124,0,0,0,6.092,6.576c3.906-.559,9.022.334,10.784,4.336s11.185,8.329,14.815,9.816,12.525-1.789,16.616-4.207,13.48-2.417,23.521-5.95,13.4-10.831,16.289-11.991,3.719-.7,7.528-5.349a8.438,8.438,0,0,0,.937-1.532c3.66-7.379,7.93-31.005,7.245-33.058-.743-2.232-5.623-5.424-7.945-5.52S163.985-.23,159.982.239a26.471,26.471,0,0,0-12.6,4.231c-5.3,3.258-13.086,9.642-20.436,12.522s-13.346,1.073-17.813,3.285C96.613,26.482,99.5,28.522,95.218,29.7c-6.066,1.671-7.784,1.709-11.042,1.523s-9.389,11.433-9.946,14.967c-.223,1.391,1.123,3.616,2.834,5.795" transform="translate(21.349 0.06)" fill="#ad4929"/>
            <path id="Trazado_1004646" data-name="Trazado 1004646" d="M93.112,36.849c2.542,1.116,3.41,6.943,3.41,9.928s2.957,2.129,5.685,5.291,1.816,5.858,5.4,7.936,5.032,1.115,5.715,0,2.541-4.8,2.727-6.617.868-2.9,1.459-5.152,16.781-10.114,18.334-15.486c1.507,1.974,2.167,4.3,2.91,6.024a16.692,16.692,0,0,1,.93,6.834c-.185,2,1.209,6.137,3.022,6.648s6.059-1.8,10.94-4.681,5.672-5.717,6.648-7.561,2.789-3.549,3.254-5.084a18.85,18.85,0,0,0,.591-6.2s6.881-5.658,13.353-5.535c-1.286,5.6-2.812,10.985-4.246,13.875a8.366,8.366,0,0,1-.937,1.532c-3.809,4.65-4.65,4.189-7.528,5.349s-6.247,8.458-16.288,11.991-19.431,3.532-23.522,5.95-12.993,5.7-16.615,4.208-13.046-5.823-14.816-9.817-6.879-4.893-10.784-4.336a67.379,67.379,0,0,1-6.092-6.575c-.376-.48-.73-.962-1.06-1.437,4.148-4.4,15.44-8,17.51-7.086" transform="translate(21.751 6.672)" fill="#942f11"/>
            <path id="Trazado_1004647" data-name="Trazado 1004647" d="M137.446,49.583c-.176-1.375,2.257-4.153,5.582-6.149s2.224-4.266,5.014-7.154a12.232,12.232,0,0,1,5.641-3.49s-.279,8.286-4.5,13.805-10.786,4.5-11.743,2.987" transform="translate(39.54 9.434)" fill="#ffa399"/>
            <path id="Trazado_1004648" data-name="Trazado 1004648" d="M137.958,45.15v4.414a.968.968,0,1,0,1.91,0V45.15Z" transform="translate(39.69 12.99)" fill="#ffa399"/>
            <path id="Trazado_1004649" data-name="Trazado 1004649" d="M145.292,47.5a.987.987,0,1,0,1.953,0V43.088h-1.953Z" transform="translate(41.8 12.396)" fill="#ffa399"/>
            <path id="Trazado_1004650" data-name="Trazado 1004650" d="M140.459,49.487a.987.987,0,1,0,1.953,0V45.073h-1.953Z" transform="translate(40.41 12.967)" fill="#ffa399"/>
            <path id="Trazado_1004651" data-name="Trazado 1004651" d="M147.184,39.848v4.414c0,.622.38,1.128.847,1.128s.849-.506.849-1.128V39.848Z" transform="translate(42.345 11.464)" fill="#ffa399"/>
            <path id="Trazado_1004652" data-name="Trazado 1004652" d="M143.24,44.488V48.9c0,.622.38,1.128.847,1.128s.849-.506.849-1.128V44.488Z" transform="translate(41.21 12.799)" fill="#ffa399"/>
            <path id="Trazado_1004653" data-name="Trazado 1004653" d="M63.475,59a9.6,9.6,0,0,0,3.356,3.027,8.124,8.124,0,0,0,1.809.61A4.053,4.053,0,0,1,71.2,64.14s.776.588,2.945-.576a37.393,37.393,0,0,0,4.8-3.313c3.437-.469,7.426-4.177,9.954-5.883s5.2-2.21,7.156-5.743a21.914,21.914,0,0,0,1.874-4.256,12.63,12.63,0,0,0,.171-6.531c-.93-4.181-2.417-8.182-5.489-10.318s-5-3.419-7.022-3.732c-5.331-.825-7.509-.267-9.392,1.607-4.09,4.064-4.414,10.4-5.434,13.469s-3.114,11.5-4.968,13.075C62.773,54.5,62.576,57.578,63.475,59" transform="translate(18.126 6.737)" fill="#ad4929"/>
            <path id="Trazado_1004654" data-name="Trazado 1004654" d="M98,32.174c.473-1.838-2.507-5.245-5.656-5.083s-5.5,1.539-8.974,0A3.084,3.084,0,0,0,82.9,31c.625.852,1.832,4.6,3.414,4.17s1.441-2.52,1.859-2.669c1.55-.554,6.4,1.078,9.819-.328" transform="translate(23.71 7.793)" fill="#ba4f2c"/>
            <path id="Trazado_1004655" data-name="Trazado 1004655" d="M81.447,26.449c.232,1.187,1.348,1.839.86,2.489s-2.418.721-2.3,0,.349-2.235,1.441-2.489" transform="translate(23.016 7.609)" fill="#f7f7ff"/>
            <path id="Trazado_1004656" data-name="Trazado 1004656" d="M76.724,24.26c.232,1.187,1.348,1.838.86,2.489s-2.418.721-2.3,0,.348-2.235,1.441-2.489" transform="translate(21.657 6.98)" fill="#f7f7ff"/>
            <g id="Grupo_1190296" data-name="Grupo 1190296" transform="translate(110.406 36.563)" style="mix-blend-mode: multiply;isolation: isolate">
              <g id="Grupo_1190295" data-name="Grupo 1190295">
                <g id="Grupo_1190294" data-name="Grupo 1190294" clip-path="url(#clip-path-7)">
                  <path id="Trazado_1004657" data-name="Trazado 1004657" d="M96.023,31.725c-.341-1.455-1.736-3.957-4.463-3.186s-3.875,1.622-5.641,1.521c-.216.891-.434,2.933.621,1.836s5.362.914,9.484-.171" transform="translate(-85.739 -28.394)" fill="#eb874b"/>
                </g>
              </g>
            </g>
            <path id="Trazado_1004658" data-name="Trazado 1004658" d="M65.976,57.344a10.525,10.525,0,0,0,1.9.914,4.187,4.187,0,0,1,2.467,1.2s.568,1.692,2.736.528a11.3,11.3,0,0,0,3.309-2.623c2.065-.312,8.558-4.834,11.087-6.54s5.765-3.347,7.721-6.88a21.923,21.923,0,0,0,1.875-4.256c-.922,1.093-1.665,1.373-2.479,2.582-.689,1.035-1.989,2.819-3.224,2.663-1.346-.171-2.781-1.168-3.92-.431-.588.38-.292,1.709-.554,2.355-1.584,3.988-4.687,4.467-8.346,6.7a7.254,7.254,0,0,1-2.905.976,24.317,24.317,0,0,1-3.184-.256c-.975-.1-.514,1.08-1.32.483-.922-.682-.409-2.188-1.659-1.552-.843.428-.731-.164-1.268.614l-.55-.321c-.209,1.387-1.1,2.557-1.684,3.846" transform="translate(18.981 11.418)" fill="#942f11"/>
            <path id="Trazado_1004659" data-name="Trazado 1004659" d="M76,40.933a8.355,8.355,0,0,1,.617-1.6c.973-1.832,3.026-.895,4.359-1.9a13.833,13.833,0,0,0,3.351-4.667c-.039.076.625,2.153.681,2.447a3.6,3.6,0,0,0,1.23,2.4,3.292,3.292,0,0,1,.555.388,1.27,1.27,0,0,1,.151,1.352,4.977,4.977,0,0,1-.831,1.173c-1.825,2.225-2.784,5.362-5.371,6.623-1.31.637-2.86.679-4.13,1.393-1.674.943-2.631,2.93-4.412,3.652.434-.176,1.084-3.246,1.275-3.779q.746-2.088,1.574-4.144c.408-1.013.628-2.217.952-3.33" transform="translate(20.772 9.426)" fill="#a63513"/>
            <path id="Trazado_1004660" data-name="Trazado 1004660" d="M79.434,37.587l.221-.058c1-.272,2.009-.513,3.013-.769a.8.8,0,0,1,.264-.036.563.563,0,0,1,.443.6,1.8,1.8,0,0,1-.281.766,11.192,11.192,0,0,1-2.118,3.463,7.443,7.443,0,0,1-4.264,1.33,13.962,13.962,0,0,0,.507-1.664,8.835,8.835,0,0,0,.577-2.176,2.436,2.436,0,0,1,.058-.494c.162-.579.989-.81,1.579-.963" transform="translate(22.07 10.565)" fill="#a63513"/>
            <path id="Trazado_1004661" data-name="Trazado 1004661" d="M146.038,40.785c.417,3.393,3.526,6.093,5.318,8.495a47.129,47.129,0,0,1,4.13,11.739c.372,1.087-.1,3.02,0,5.036s.833,7.238.922,7.654a6.9,6.9,0,0,1-.216,2.418,21,21,0,0,0-.334,2.074,8.936,8.936,0,0,0,.044,3c.38,1.205,1.487,1.257,2.85,1.377s4.172-1.518,4.091-2.261a22.268,22.268,0,0,1,0-2.56c.014-.558-.618-3.25-.662-5.862s-1.31-4.41-1.265-6.175.907-5.715,1.255-11.477c.348-5.747.081-4.764-.739-6.612a5.48,5.48,0,0,1-.39-4.971,44.9,44.9,0,0,0,1.58-12.068c-.1-4.6,1.3-7.811,1.532-12.6s-.256-6.715-6.014-12.279c-2.686-.447-3.177.677-5.119,2.775a54.614,54.614,0,0,0-5.943,6.554c-7.216,9.573-1.459,22.353-1.042,25.745" transform="translate(41.276 1.615)" fill="#ad4929"/>
            <path id="Trazado_1004662" data-name="Trazado 1004662" d="M151.333,46.025c-1.792-2.4-4.9-5.1-5.318-8.495-.279-2.275-4.137-9.542-1.617-20.6.9.628.506,6.411.506,6.411.761,7.653,2.552,13.238,5.022,16.1s2.874,3.7,4.794,4.291,1.736.806,1.328,3.533.693,2.851,1.382,7.377-.932,2.967-1.356,6.633,1.383,2.815,1.87,4.864a42,42,0,0,1,.8,6.6c.09,1.7-.528,5.959-.425,6.539-1.168-.106-2.1-.26-2.435-1.339a8.932,8.932,0,0,1-.045-3,20.933,20.933,0,0,1,.335-2.074,6.929,6.929,0,0,0,.216-2.418c-.09-.416-.834-5.638-.923-7.654s.372-3.951,0-5.036a47.1,47.1,0,0,0-4.128-11.739" transform="translate(41.298 4.87)" fill="#942f11"/>
            <path id="Trazado_1004663" data-name="Trazado 1004663" d="M152.708,64.588c-.126,1.257,1.733,1.961,3.094,2.081s4.464-1.686,4.383-2.43a22.253,22.253,0,0,1,0-2.559,2.733,2.733,0,0,0-2.154.854c-1.49,1.2-4.9-.068-4.75-1.042a3.761,3.761,0,0,1-.081.634c-.118,1.1-.413,1.751-.492,2.462" transform="translate(43.932 17.691)" fill="#33373b"/>
            <path id="Trazado_1004664" data-name="Trazado 1004664" d="M153.255,65.274a2.981,2.981,0,0,1,1.207-.861s.2,1.388.173,1.559-1.379-.7-1.379-.7" transform="translate(44.091 18.532)" fill="#fff"/>
            <path id="Trazado_1004665" data-name="Trazado 1004665" d="M111.355,65.328c-2.552-7.409-3-4.262-3.482-9.539s2.081-18.095,1.574-23.755,8.021-8.219,10.079-7.711,8.586,5.353,8.223,15.97.35,16.023-3.078,24.408c-1.765,4.322-4.13,9.83-3.934,14.1s-1.768,4.839-1.751,7.165-.576,9.013.269,12.945.738,4.679.6,6.078-3.4,2.632-5.735,2.269-3.622-1.635-3.231-2.877.672-4.969,1.38-6.475,1.07-13.3.1-15.093-.376-5.738.165-8.7-1.178-8.789-1.178-8.789" transform="translate(31.017 6.979)" fill="#ad4929"/>
            <path id="Trazado_1004666" data-name="Trazado 1004666" d="M112.876,105.457c.191-2,1.095-4.6,2.112-5.568s.323-3.017.453-3.835c.312-1.973.476-1.348,0-5.719s-.8-6.091.22-6.928,2.586-4.04,1.628-8.461c-.485-2.238,1.859-6.091,2.789-8.741s-2.65-1.906-.791-6.648,2.4.246,4.045-5.536,2.264-14.409,2.139-19.68a26.915,26.915,0,0,0-.353-3.728,20.553,20.553,0,0,1,1.173,7.851c-.363,10.616.35,16.023-3.078,24.408-1.765,4.322-4.13,9.83-3.935,14.1s-1.767,4.84-1.75,7.165-.576,9.013.269,12.945.738,4.681.6,6.079c-.133,1.356-3.208,2.552-5.523,2.291" transform="translate(32.474 8.807)" fill="#942f11"/>
            <path id="Trazado_1004667" data-name="Trazado 1004667" d="M115.782,85.245c2.514-1.03,2.153-1.128,3.236-1.277a11.494,11.494,0,0,1,.166,3.871c-.136,1.4-3.4,2.631-5.735,2.268s-3.622-1.634-3.231-2.875a27.5,27.5,0,0,0,.612-3.342c-.176,1.16,1.821,2.64,4.952,1.356" transform="translate(31.689 24.135)" fill="#33373b"/>
            <path id="Trazado_1004668" data-name="Trazado 1004668" d="M78.649,38.824c.249-.434,1.55-1.581,2.293-1.348s.187,1.535-.5,1.906S77.9,40.444,77.9,40.444Z" transform="translate(22.413 10.773)" fill="#22222c"/>
            <path id="Trazado_1004669" data-name="Trazado 1004669" d="M63.881,47.156c1.095-.254,1.431,1.492,1.431,1.492s3.253,2.349,4.88,1.641,2.6.305,3.263,1.064,1.98.167,2.264,1.414a6.737,6.737,0,0,1-.08,3.6,3.1,3.1,0,0,1-2.273,1.872,17.3,17.3,0,0,1-2.789-.062c-1.232-.173-2.493-1.885-5.652-3.141-2.476-.984-1.821-3.884-2.032-5.067s-.344-2.153.322-2.48Z" transform="translate(18.045 13.559)" fill="#ffa399"/>
            <g id="Grupo_1190299" data-name="Grupo 1190299" transform="translate(86.776 65.497)" style="mix-blend-mode: multiply;isolation: isolate">
              <g id="Grupo_1190298" data-name="Grupo 1190298">
                <g id="Grupo_1190297" data-name="Grupo 1190297" clip-path="url(#clip-path-8)">
                  <path id="Trazado_1004670" data-name="Trazado 1004670" d="M70.55,50.864a5.243,5.243,0,0,1,.068,2.543,5.187,5.187,0,0,1-2.842,1.055c-1.208-.151.73-.909,1.441-2.229s1.333-1.369,1.333-1.369" transform="translate(-67.389 -50.864)" fill="#eb874b"/>
                </g>
              </g>
            </g>
            <g id="Grupo_1190302" data-name="Grupo 1190302" transform="translate(81.471 61.978)" style="mix-blend-mode: multiply;isolation: isolate">
              <g id="Grupo_1190301" data-name="Grupo 1190301">
                <g id="Grupo_1190300" data-name="Grupo 1190300" clip-path="url(#clip-path-9)">
                  <path id="Trazado_1004671" data-name="Trazado 1004671" d="M63.917,48.145c.659,1.007.4,1.683.8,2.994s1.079,1.7.707,1.689a3.157,3.157,0,0,1-1.566-2.081,25.51,25.51,0,0,0-.591-2.617Z" transform="translate(-63.269 -48.131)" fill="#eb874b"/>
                </g>
              </g>
            </g>
            <path id="Trazado_1004672" data-name="Trazado 1004672" d="M42.079,34.7l-3.312-1.911-3.644,2.1L38.435,36.8Z" transform="translate(10.105 9.433)" fill="#e8b969"/>
            <path id="Trazado_1004673" data-name="Trazado 1004673" d="M42.079,64.583l-3.312-1.911-3.644,2.1,3.312,1.912Z" transform="translate(10.105 18.031)" fill="#e8b969"/>
            <path id="Trazado_1004674" data-name="Trazado 1004674" d="M38.435,36.331l-3.312-1.912V72.9l3.312,1.912Z" transform="translate(10.105 9.902)" fill="#d6934b"/>
            <path id="Trazado_1004675" data-name="Trazado 1004675" d="M41.339,34.27V72.754l-3.644,2.1V36.374Z" transform="translate(10.845 9.859)" fill="#e3ae52"/>
            <path id="Trazado_1004676" data-name="Trazado 1004676" d="M38.46,58.059,99.155,93.1V90.319L38.46,55.276Z" transform="translate(11.065 15.903)" fill="#c98f4d"/>
            <path id="Trazado_1004677" data-name="Trazado 1004677" d="M38.46,55.582,99.155,90.626l2.375-1.371-60.7-35.042Z" transform="translate(11.065 15.597)" fill="#e8b969"/>
            <path id="Trazado_1004678" data-name="Trazado 1004678" d="M38.46,45.629,99.155,80.673V77.89L38.46,42.847Z" transform="translate(11.065 12.327)" fill="#c98f4d"/>
            <path id="Trazado_1004679" data-name="Trazado 1004679" d="M38.46,43.153,99.155,78.2l2.375-1.371-60.7-35.042Z" transform="translate(11.065 12.021)" fill="#e8b969"/>
            <path id="Trazado_1004680" data-name="Trazado 1004680" d="M92.471,63.792l-3.312-1.912-3.644,2.1L88.827,65.9Z" transform="translate(24.602 17.803)" fill="#e8b969"/>
            <path id="Trazado_1004681" data-name="Trazado 1004681" d="M88.827,65.425l-3.312-1.912V102l3.312,1.912Z" transform="translate(24.602 18.273)" fill="#d6934b"/>
            <path id="Trazado_1004682" data-name="Trazado 1004682" d="M91.731,63.364v38.484l-3.644,2.1V65.468Z" transform="translate(25.342 18.23)" fill="#e3ae52"/>
            <path id="Trazado_1004683" data-name="Trazado 1004683" d="M92.471,63.792l-3.312-1.912-3.644,2.1L88.827,65.9Z" transform="translate(24.602 17.803)" fill="#e8b969"/>
            <path id="Trazado_1004684" data-name="Trazado 1004684" d="M92.471,93.677l-3.312-1.912-3.644,2.1,3.312,1.912Z" transform="translate(24.602 26.401)" fill="#e8b969"/>
            <path id="Trazado_1004685" data-name="Trazado 1004685" d="M88.827,65.425l-3.312-1.912V102l3.312,1.912Z" transform="translate(24.602 18.273)" fill="#d6934b"/>
            <path id="Trazado_1004686" data-name="Trazado 1004686" d="M91.731,63.364v38.484l-3.644,2.1V65.468Z" transform="translate(25.342 18.23)" fill="#e3ae52"/>
            <path id="Trazado_1004687" data-name="Trazado 1004687" d="M88.852,87.152,149.546,122.2v-2.783L88.852,84.371Z" transform="translate(25.563 24.273)" fill="#c98f4d"/>
            <path id="Trazado_1004688" data-name="Trazado 1004688" d="M88.852,84.677l60.694,35.043,2.375-1.371-60.7-35.042Z" transform="translate(25.563 23.967)" fill="#e8b969"/>
            <path id="Trazado_1004689" data-name="Trazado 1004689" d="M88.852,74.723l60.694,35.043v-2.783L88.852,71.941Z" transform="translate(25.563 20.697)" fill="#c98f4d"/>
            <path id="Trazado_1004690" data-name="Trazado 1004690" d="M88.852,72.247l60.694,35.043,2.375-1.371-60.7-35.042Z" transform="translate(25.563 20.391)" fill="#e8b969"/>
            <path id="Trazado_1004691" data-name="Trazado 1004691" d="M142.863,92.886l-3.312-1.912-3.644,2.1,3.312,1.912Z" transform="translate(39.1 26.173)" fill="#e8b969"/>
            <path id="Trazado_1004692" data-name="Trazado 1004692" d="M139.218,94.519l-3.312-1.912v38.484L139.218,133Z" transform="translate(39.1 26.643)" fill="#d6934b"/>
            <path id="Trazado_1004693" data-name="Trazado 1004693" d="M142.123,92.458v38.484l-3.644,2.1V94.562Z" transform="translate(39.84 26.6)" fill="#e3ae52"/>
            <g id="Grupo_1190305" data-name="Grupo 1190305" transform="translate(41.934 93.331)" style="mix-blend-mode: multiply;isolation: isolate">
              <g id="Grupo_1190304" data-name="Grupo 1190304">
                <g id="Grupo_1190303" data-name="Grupo 1190303" clip-path="url(#clip-path-10)">
                  <path id="Trazado_1004694" data-name="Trazado 1004694" d="M48.219,72.479l-1.379.8-1.1-.8L32.566,80.088l105.441,61.276h2.475l13.178-7.61Z" transform="translate(-32.565 -72.479)" fill="#c1c8e0"/>
                </g>
              </g>
            </g>
            <path id="Trazado_1004695" data-name="Trazado 1004695" d="M147.913,131.792,42.472,70.517l.422-4.928,105.441,61.275Z" transform="translate(12.219 18.87)" fill="#9ea4b7"/>
            <path id="Trazado_1004696" data-name="Trazado 1004696" d="M148.241,127.183,42.8,65.908l2.474-1.429,105.442,61.275Z" transform="translate(12.314 18.55)" fill="#a7adc2"/>
            <path id="Trazado_1004697" data-name="Trazado 1004697" d="M142.2,134.94,36.758,73.664l7.358-4.249,105.441,61.276Z" transform="translate(10.575 19.971)" fill="#6177c2"/>
            <path id="Trazado_1004698" data-name="Trazado 1004698" d="M46.56,66.7l-.422,4.928L42.374,73.8l-4.043-2.35Z" transform="translate(11.028 19.189)" fill="#717684"/>
            <path id="Trazado_1004699" data-name="Trazado 1004699" d="M141.253,139.709,35.812,78.434l-.636-6.276,105.442,61.275Z" transform="translate(10.12 20.76)" fill="#8a8fa0"/>
            <path id="Trazado_1004700" data-name="Trazado 1004700" d="M139.928,131.983,34.487,70.708l2.474-1.429L142.4,130.555Z" transform="translate(9.922 19.931)" fill="#a7adc2"/>
            <path id="Trazado_1004701" data-name="Trazado 1004701" d="M139.936,134.45,34.5,73.175l-.008-2.787,105.441,61.275Z" transform="translate(9.922 20.251)" fill="#949aac"/>
            <path id="Trazado_1004702" data-name="Trazado 1004702" d="M129.549,112.064l.008,2.787-.88.509-.606,6.992-10.178,5.877-.635-6.276-.881.507-.008-2.787Z" transform="translate(33.479 32.241)" fill="#717684"/>
            <path id="Trazado_1004703" data-name="Trazado 1004703" d="M127.075,113.493l-2.475-1.429-8.23,4.752,2.475,1.429Z" transform="translate(33.479 32.241)" fill="#a7adc2"/>
            <path id="Trazado_1004704" data-name="Trazado 1004704" d="M47.113,67.017l-2.475-1.428-8.23,4.75,2.475,1.429Z" transform="translate(10.475 18.87)" fill="#a7adc2"/>
            <g id="Grupo_1190308" data-name="Grupo 1190308" transform="translate(43.996 128.521)" style="mix-blend-mode: multiply;isolation: isolate">
              <g id="Grupo_1190307" data-name="Grupo 1190307">
                <g id="Grupo_1190306" data-name="Grupo 1190306" clip-path="url(#clip-path-11)">
                  <path id="Trazado_1004705" data-name="Trazado 1004705" d="M54.86,111.755c-4.713,2.721-12.379,2.708-17.121-.031s-4.767-7.163-.054-9.886,12.379-2.707,17.121.031,4.767,7.165.054,9.886" transform="translate(-34.166 -99.807)" fill="#c1c8e0"/>
                </g>
              </g>
            </g>
            <path id="Trazado_1004706" data-name="Trazado 1004706" d="M43.585,99.236a3.739,3.739,0,0,0-.952,1,4.541,4.541,0,0,0-.243,2.405c.1.415,1.146.667,1.736.725,1.293.124,2.666.143,2.666.143a4.309,4.309,0,0,1,1.119-.534,10.231,10.231,0,0,1,2.2.751,24.177,24.177,0,0,0,5.9.542c2.17-.2,2.009-1.285,2.009-1.285s.161-1.395-.52-1.736a18.712,18.712,0,0,0-3.6-.25Z" transform="translate(12.178 28.55)" fill="#161b29"/>
            <path id="Trazado_1004707" data-name="Trazado 1004707" d="M43.447,97.939a10.27,10.27,0,0,0-.729,3.2,1.605,1.605,0,0,0,.5,1.2,12.931,12.931,0,0,0,3.333.618,34.566,34.566,0,0,1,5.9,1.127c1.613.381,4.719.166,4.914-.219a3.294,3.294,0,0,0,.1-1.3s-.062-1.5-1.116-1.852-6.919-2.171-6.919-2.171l-3.143-2.5Z" transform="translate(12.29 27.632)" fill="#404759"/>
            <path id="Trazado_1004708" data-name="Trazado 1004708" d="M39.51,73.878a43.484,43.484,0,0,0,2.06,8.564c.8,2.23,1.226,5.511,2.453,7.691s6.6,2.116,7.272,1.016,1.42-5.876,1.42-5.876-3.527-14.4-4-15.706S47.5,59.917,47.5,59.917L39.51,63.089Z" transform="translate(11.367 17.238)" fill="#295ea9"/>
            <path id="Trazado_1004709" data-name="Trazado 1004709" d="M43.55,79.63a21.165,21.165,0,0,0-1.214,6c-.184,2.271.494,17.653.386,18.717s1.724,1.437,3.694,1.356,3.742-.823,3.9-1.508,1.881-21.78,1.59-24.316-8.361-.247-8.361-.247" transform="translate(12.171 22.637)" fill="#295ea9"/>
            <path id="Trazado_1004710" data-name="Trazado 1004710" d="M33.553,103.907c-.72.325-.867,0-1.222.747a5.726,5.726,0,0,0-.2,2.284,12.617,12.617,0,0,0,1.272,1.245c.236.117,1.164.492,1.164.492s1.138,2.3,2.479,2.9a9.647,9.647,0,0,0,4.649.867,4.359,4.359,0,0,0,2.638-.879,4.137,4.137,0,0,0-.062-1.465c-.376-.8-2.86-2.255-2.86-2.255Z" transform="translate(9.234 29.894)" fill="#161b29"/>
            <path id="Trazado_1004711" data-name="Trazado 1004711" d="M70.191,40.13a18.885,18.885,0,0,1,1.4,4.258c-.021.4-15.066,5.434-17.012,5.363s-2.931-4.695-2.472-5.564,2.384-1.071,3.694-1.328,14.393-2.73,14.393-2.73" transform="translate(14.958 11.545)" fill="#5c92ff"/>
            <path id="Trazado_1004712" data-name="Trazado 1004712" d="M56.278,50.328c-.295.157-4.567-.639-5.453-.2s-.815,1.156-2.132,1.241S45.18,39.36,46.476,38.493s5.7.021,6.75.407,4.491,6.123,3.052,11.428" transform="translate(13.257 10.969)" fill="#5c92ff"/>
            <path id="Trazado_1004713" data-name="Trazado 1004713" d="M66.589,43.932a1.544,1.544,0,0,0,1.8.51c.983-.322,3.441-1.366,3.661-1.841a.844.844,0,0,0-.252-.9l-.85.086s.512-.447.73-.44a24.681,24.681,0,0,0,3.912.124c.487-.192.1-1.277.1-1.277s.494-.121.523-.554a.436.436,0,0,0-.42-.464,50.459,50.459,0,0,0-5-.87,5.178,5.178,0,0,0-2.23.958,18.826,18.826,0,0,1-2.3,1.342s-1.472,2.645.328,3.326" transform="translate(18.9 11.02)" fill="#ffa399"/>
            <path id="Trazado_1004714" data-name="Trazado 1004714" d="M33.125,100.536c-.066.959-.644,4.515-.716,5.224s.305,1,.852,1.737,2,1.76,2.43,2.769,2.055,2.171,4.343,2.34,4.11-.3,4.032-1.368a6.189,6.189,0,0,0-.38-1.782s-4.434-4.218-4.861-5.228-1.383-3.255-1.383-3.255Z" transform="translate(9.322 28.924)" fill="#404759"/>
            <path id="Trazado_1004715" data-name="Trazado 1004715" d="M34.573,57.933c-1.2,2.168-3.333,5.69-3.828,9.659s.225,9.322,1.086,13.288.446,10.161.341,11.646S40.784,98,41.2,96.04c.279-1.328,3.014-16.056,3.533-17.032s1.91-2.237,2.387-3.73.055-11.162-1.46-12.811-11.083-4.533-11.083-4.533" transform="translate(8.799 16.667)" fill="#2c6bb8"/>
            <path id="Trazado_1004716" data-name="Trazado 1004716" d="M32.013,61.606a9.279,9.279,0,0,0-.877,2.382c-.38,1.557,1.993,4.049,5.759,5.2a12.607,12.607,0,0,0,10.133-.8,19.438,19.438,0,0,0,3.326-1.88l.162-4.278Z" transform="translate(8.946 17.724)" fill="#1d2329"/>
            <path id="Trazado_1004717" data-name="Trazado 1004717" d="M36.927,70.915a3.09,3.09,0,0,1-1.008-.236c-.577-.214-5.559-2.5-5.153-3.953.233-.843,1.534-4.637,1.589-4.8l1.057.363c-.014.037-1.234,3.6-1.538,4.613a14.7,14.7,0,0,0,4.869,2.877c.282-.882.889-3.486,1.244-5.107l.127-.578L44.2,65.814v.422c0,1.213-.009,4.081-.106,4.512l-1.088-.238c.045-.255.073-2.087.077-3.853l-4.137-1.167c-.312,1.4-1,4.4-1.284,5a.744.744,0,0,1-.738.42" transform="translate(8.844 17.817)" fill="#2c6bb8"/>
            <path id="Trazado_1004718" data-name="Trazado 1004718" d="M40.981,89.788c-.3,2.026-1.261,18.581-1.116,20.84a5.676,5.676,0,0,1-6.871-1.142c-.4-.648-1.68-14.328-1.664-16.8s1.343-13.019,1.343-13.019Z" transform="translate(9.014 22.919)" fill="#2c6bb8"/>
            <path id="Trazado_1004719" data-name="Trazado 1004719" d="M53.077,37.635a10.773,10.773,0,0,0-6.071,2.283c-1.5,1.437-5.8,6.093-6.91,9.206s-7.774,17.672-8.53,19.6,5.273,5.35,8.267,5.787c5.578.815,8.942-1.755,9.817-3.021S53.7,63.04,55.639,57.567c2.147-6.057,4.027-12.189,3.2-15.123s-5.764-4.81-5.764-4.81" transform="translate(9.063 10.828)" fill="#4280ff"/>
            <path id="Trazado_1004720" data-name="Trazado 1004720" d="M48.38,36.658A8.083,8.083,0,0,1,47.27,40c-.56.692-.806.806-.834,1.785s2.053,4.647,3.056,5.356,1.87-.23,2.262-.658,1.789-1.735,2.873-1.6,2.546.388,3.34-.068,2.1-3.222,2.239-3.886c.756-.086,1.256.057,1-1.114a3.005,3.005,0,0,1,.224-2.22c.251-.628,1.123-4.629-.215-5.255S48.38,36.658,48.38,36.658" transform="translate(13.359 9.288)" fill="#ffa399"/>
            <path id="Trazado_1004721" data-name="Trazado 1004721" d="M61.126,35.957a2.045,2.045,0,0,0-.581,1.624,4.461,4.461,0,0,1-.176,1.383,3.968,3.968,0,0,0-1.686,1.325,20.2,20.2,0,0,0-.877,1.968l-1.436-.51a1.326,1.326,0,0,0-1.208-1.687c-1.57-.183-2.185,1.508-3.289,2.027a3,3,0,0,1-2.785.045,3.708,3.708,0,0,1-1.4-1.858,13.9,13.9,0,0,1-.267-5.648c.336-3.1,1.807-4,3.389-4.4,1.709-1.65,4.668-1.746,6.646-.985S61.591,31.1,62.59,33.3c.6,1.316-.764,2.569-.907,2.672s-.558-.01-.558-.01" transform="translate(13.602 8.281)" fill="#1c2134"/>
            <path id="Trazado_1004722" data-name="Trazado 1004722" d="M54.094,37.35c-.394-.142-1.1.473-1.3,1.339a2.117,2.117,0,0,0,.565,2.044c.4.25.756-1.465.846-1.9s.254-1.352-.107-1.482" transform="translate(15.171 10.74)" fill="#ffa399"/>
            <path id="Trazado_1004723" data-name="Trazado 1004723" d="M46.612,47.255c-2.771-2.2-6.415-3.316-8.205,2.541-.8,2.61-2.855,13.839-3.2,16.95s5.428,2.932,7.563-1.669,4.873-10.347,4.96-13.048.008-3.881-1.116-4.773" transform="translate(10.124 13.084)" fill="#5c92ff"/>
            <path id="Trazado_1004724" data-name="Trazado 1004724" d="M56.526,62.008c-.076-.133,7.621.771,7.621.771l-2.065.71-5.837,1.294L48.738,63.9l1.656-1.592Z" transform="translate(14.022 17.836)" fill="#161b29"/>
            <path id="Trazado_1004725" data-name="Trazado 1004725" d="M49.638,66.414a7.265,7.265,0,0,0,1.942.816,17.9,17.9,0,0,0,3.645-.625,16.538,16.538,0,0,0,2.754-1.2,3.235,3.235,0,0,0,.67-.617s1.449-.305,1.724-.869-.006-.858-.006-.858l-3.316,1.051-2.384-.148s-1.195-1.118-1.862-1-2.887.518-3.181.955a6.94,6.94,0,0,0,.013,2.493" transform="translate(14.241 18.113)" fill="#ffa399"/>
            <path id="Trazado_1004726" data-name="Trazado 1004726" d="M52.476,64.993a6.291,6.291,0,0,0,1.584-.416c.476-.091,2.476,0,2.994-.024s.658-.961.121-1.2a29.369,29.369,0,0,0-3.284-.332A4.85,4.85,0,0,0,51.8,62.87c-.734.174-2.238.116-2.538.458s3.212,1.665,3.212,1.665" transform="translate(14.168 18.069)" fill="#ffa399"/>
            <path id="Trazado_1004727" data-name="Trazado 1004727" d="M36.474,59.42c-.6.967-1.68,3.433-1.185,4.709s3.72,2.246,8.98,3.214a52.033,52.033,0,0,0,9.991,1.011c.352-.089,1.41-2.042.216-3.9a2.014,2.014,0,0,0-1.51-1.116c-.5-.019-9.086-2.917-10.187-3.433s-6.306-.483-6.306-.483" transform="translate(10.116 17.095)" fill="#5c92ff"/>
            <g id="Grupo_1190311" data-name="Grupo 1190311" transform="translate(190.855 97.956)" style="mix-blend-mode: multiply;isolation: isolate">
              <g id="Grupo_1190310" data-name="Grupo 1190310">
                <g id="Grupo_1190309" data-name="Grupo 1190309" clip-path="url(#clip-path-12)">
                  <path id="Trazado_1004728" data-name="Trazado 1004728" d="M148.214,87.058l28.1,16.224h14.727l-23.8-27.212Z" transform="translate(-148.214 -76.071)" fill="#c1c8e0"/>
                </g>
              </g>
            </g>
            <path id="Trazado_1004729" data-name="Trazado 1004729" d="M181.473,103.672,200.5,92.684V74.712L181.473,85.7Z" transform="translate(52.209 21.495)" fill="#ffba17"/>
            <path id="Trazado_1004730" data-name="Trazado 1004730" d="M159.651,73.1l28.1,16.224,19.031-10.988-28.1-16.224Z" transform="translate(45.931 17.87)" fill="#ed9507"/>
            <path id="Trazado_1004731" data-name="Trazado 1004731" d="M159.651,88.619l28.1,16.224V86.869l-28.1-16.224Z" transform="translate(45.931 20.325)" fill="#ffc626"/>
            <path id="Trazado_1004732" data-name="Trazado 1004732" d="M170.036,79.1l1.356.783,19.031-10.988-1.356-.783Z" transform="translate(48.919 19.595)" fill="#a15902"/>
            <path id="Trazado_1004733" data-name="Trazado 1004733" d="M170.036,94.614l1.356.783V77.424l-1.356-.783Z" transform="translate(48.919 22.049)" fill="#a15902"/>
            <path id="Trazado_1004734" data-name="Trazado 1004734" d="M195.97,82.3l-1.356.783-28.1-16.224,1.355-.783Z" transform="translate(47.906 19.01)" fill="#a15902"/>
            <path id="Trazado_1004735" data-name="Trazado 1004735" d="M189.692,96.647l-1.356.783V79.457l1.356-.783Z" transform="translate(54.184 22.634)" fill="#a15902"/>
            <path id="Trazado_1004736" data-name="Trazado 1004736" d="M181.473,89.088,200.5,78.1V60.127L181.473,71.115Z" transform="translate(52.209 17.298)" fill="#ffba17"/>
            <path id="Trazado_1004737" data-name="Trazado 1004737" d="M159.651,58.516l28.1,16.224,19.031-10.988-28.1-16.224Z" transform="translate(45.931 13.674)" fill="#ffda38"/>
            <path id="Trazado_1004738" data-name="Trazado 1004738" d="M159.651,74.035l28.1,16.224V72.285l-28.1-16.224Z" transform="translate(45.931 16.129)" fill="#ffc626"/>
            <path id="Trazado_1004739" data-name="Trazado 1004739" d="M170.036,64.512l1.356.783,19.031-10.988-1.356-.783Z" transform="translate(48.919 15.399)" fill="#a15902"/>
            <path id="Trazado_1004740" data-name="Trazado 1004740" d="M170.036,80.03l1.356.783V62.839l-1.356-.783Z" transform="translate(48.919 17.854)" fill="#a15902"/>
            <path id="Trazado_1004741" data-name="Trazado 1004741" d="M195.97,67.714l-1.356.783-28.1-16.224,1.355-.783Z" transform="translate(47.906 14.814)" fill="#a15902"/>
            <path id="Trazado_1004742" data-name="Trazado 1004742" d="M189.692,82.063l-1.356.783V64.872l1.356-.783Z" transform="translate(54.184 18.438)" fill="#a15902"/>
          </g>
        </g>
      </g>
    </g>
  </g>
</svg>
