<svg xmlns="http://www.w3.org/2000/svg" xmlns:xlink="http://www.w3.org/1999/xlink" width="150" height="150" viewBox="0 0 150 150">
  <defs>
    <clipPath id="clip-path">
      <rect id="Rectángulo_459311" data-name="Rectángulo 459311" width="150" height="122.835" fill="none"/>
    </clipPath>
    <clipPath id="clip-path-3">
      <rect id="Rectángulo_459306" data-name="Rectángulo 459306" width="86.913" height="50.18" fill="none"/>
    </clipPath>
    <clipPath id="clip-path-5">
      <rect id="Rectángulo_459308" data-name="Rectángulo 459308" width="59.56" height="34.387" fill="none"/>
    </clipPath>
  </defs>
  <g id="Grupo_1190889" data-name="Grupo 1190889" transform="translate(-467 -1114)">
    <g id="Grupo_1190875" data-name="Grupo 1190875" transform="translate(9.289 -4779)">
      <rect id="Rectángulo_459312" data-name="Rectángulo 459312" width="150" height="150" transform="translate(457.711 5893)" fill="none"/>
    </g>
    <g id="Grupo_1190869" data-name="Grupo 1190869" transform="translate(467 1128)">
      <g id="Grupo_1190868" data-name="Grupo 1190868" clip-path="url(#clip-path)">
        <path id="Trazado_1006675" data-name="Trazado 1006675" d="M119.649,146.308v7.726l64.593-37.293v-7.726Z" transform="translate(-34.242 -31.199)" fill="#7a3d23"/>
        <path id="Trazado_1006676" data-name="Trazado 1006676" d="M119.649,146.308v2.943l64.593-37.292v-2.944Z" transform="translate(-34.242 -31.199)" fill="#5a7a01"/>
        <path id="Trazado_1006677" data-name="Trazado 1006677" d="M0,99.906l85.407,49.309V141.49L0,92.181Z" transform="translate(0 -26.381)" fill="#7a3d23"/>
        <path id="Trazado_1006678" data-name="Trazado 1006678" d="M0,95.123l85.407,49.31V141.49L0,92.18Z" transform="translate(0 -26.381)" fill="#637a02"/>
        <path id="Trazado_1006679" data-name="Trazado 1006679" d="M0,77.228l85.407,49.31L150,89.245,64.594,39.935Z" transform="translate(0 -11.429)" fill="#82a002"/>
        <g id="Grupo_1190859" data-name="Grupo 1190859">
          <g id="Grupo_1190858" data-name="Grupo 1190858" clip-path="url(#clip-path)">
            <g id="Grupo_1190857" data-name="Grupo 1190857" transform="translate(61.196 29.187)" style="mix-blend-mode: multiply;isolation: isolate">
              <g id="Grupo_1190856" data-name="Grupo 1190856">
                <g id="Grupo_1190855" data-name="Grupo 1190855" clip-path="url(#clip-path-3)">
                  <path id="Trazado_1006680" data-name="Trazado 1006680" d="M85.731,42.486l84.146,48.583,2.767-1.6L88.5,40.888Z" transform="translate(-85.731 -40.889)" fill="#c1c8e0"/>
                </g>
              </g>
            </g>
          </g>
        </g>
        <path id="Trazado_1006681" data-name="Trazado 1006681" d="M89.56,0,87.283,1.314l2.069,1.195,2.276-1.315Z" transform="translate(-24.979 0)" fill="#e8b969"/>
        <path id="Trazado_1006682" data-name="Trazado 1006682" d="M91.629,42.828,89.56,41.634l-2.276,1.314,2.069,1.194Z" transform="translate(-24.98 -11.915)" fill="#e8b969"/>
        <path id="Trazado_1006683" data-name="Trazado 1006683" d="M89.353,3.035,87.284,1.841V31.56l2.069,1.194Z" transform="translate(-24.98 -0.527)" fill="#d6934b"/>
        <path id="Trazado_1006684" data-name="Trazado 1006684" d="M92.458,1.673V31.392l-2.276,1.314V2.987Z" transform="translate(-25.809 -0.479)" fill="#e3ae52"/>
        <path id="Trazado_1006685" data-name="Trazado 1006685" d="M91.044,29.5,128.956,51.39V49.652L91.044,27.763Z" transform="translate(-26.056 -7.945)" fill="#c98f4d"/>
        <path id="Trazado_1006686" data-name="Trazado 1006686" d="M91.044,27.42,128.956,49.31l1.483-.857L92.527,26.565Z" transform="translate(-26.056 -7.602)" fill="#e8b969"/>
        <path id="Trazado_1006687" data-name="Trazado 1006687" d="M91.044,13.075l37.912,21.889V33.226L91.044,11.337Z" transform="translate(-26.056 -3.244)" fill="#c98f4d"/>
        <path id="Trazado_1006688" data-name="Trazado 1006688" d="M91.044,10.994l37.912,21.889,1.483-.857L92.527,10.138Z" transform="translate(-26.056 -2.901)" fill="#e8b969"/>
        <path id="Trazado_1006689" data-name="Trazado 1006689" d="M148.411,33.978l-2.069-1.194L144.066,34.1l2.069,1.194Z" transform="translate(-41.23 -9.382)" fill="#e8b969"/>
        <path id="Trazado_1006690" data-name="Trazado 1006690" d="M146.135,35.819l-2.069-1.194V64.344l2.069,1.194Z" transform="translate(-41.23 -9.909)" fill="#d6934b"/>
        <path id="Trazado_1006691" data-name="Trazado 1006691" d="M149.241,34.457V64.175l-2.276,1.314V35.771Z" transform="translate(-42.059 -9.861)" fill="#e3ae52"/>
        <path id="Trazado_1006692" data-name="Trazado 1006692" d="M148.411,33.978l-2.069-1.194L144.066,34.1l2.069,1.194Z" transform="translate(-41.23 -9.382)" fill="#e8b969"/>
        <path id="Trazado_1006693" data-name="Trazado 1006693" d="M148.411,75.612l-2.069-1.194-2.276,1.314,2.069,1.194Z" transform="translate(-41.23 -21.297)" fill="#e8b969"/>
        <path id="Trazado_1006694" data-name="Trazado 1006694" d="M146.135,35.819l-2.069-1.194V64.344l2.069,1.194Z" transform="translate(-41.23 -9.909)" fill="#d6934b"/>
        <path id="Trazado_1006695" data-name="Trazado 1006695" d="M149.241,34.457V64.175l-2.276,1.314V35.771Z" transform="translate(-42.059 -9.861)" fill="#e3ae52"/>
        <path id="Trazado_1006696" data-name="Trazado 1006696" d="M147.827,62.285l37.912,21.889V82.436L147.827,60.547Z" transform="translate(-42.306 -17.328)" fill="#c98f4d"/>
        <path id="Trazado_1006697" data-name="Trazado 1006697" d="M147.827,60.2l37.912,21.889,1.483-.857L149.309,59.348Z" transform="translate(-42.306 -16.985)" fill="#e8b969"/>
        <path id="Trazado_1006698" data-name="Trazado 1006698" d="M147.827,45.859l37.912,21.889V66.01L147.827,44.121Z" transform="translate(-42.306 -12.627)" fill="#c98f4d"/>
        <path id="Trazado_1006699" data-name="Trazado 1006699" d="M147.827,43.778l37.912,21.889,1.483-.857L149.309,42.922Z" transform="translate(-42.306 -12.284)" fill="#e8b969"/>
        <path id="Trazado_1006700" data-name="Trazado 1006700" d="M205.194,66.762l-2.069-1.194-2.276,1.314,2.069,1.194Z" transform="translate(-57.48 -18.765)" fill="#e8b969"/>
        <path id="Trazado_1006701" data-name="Trazado 1006701" d="M202.918,68.6l-2.069-1.194V97.127l2.069,1.194Z" transform="translate(-57.48 -19.291)" fill="#d6934b"/>
        <path id="Trazado_1006702" data-name="Trazado 1006702" d="M206.023,67.241V96.959l-2.276,1.314V68.555Z" transform="translate(-58.31 -19.243)" fill="#e3ae52"/>
        <g id="Grupo_1190867" data-name="Grupo 1190867">
          <g id="Grupo_1190866" data-name="Grupo 1190866" clip-path="url(#clip-path)">
            <g id="Grupo_1190862" data-name="Grupo 1190862" transform="translate(27.787 43.822)" style="mix-blend-mode: multiply;isolation: isolate">
              <g id="Grupo_1190861" data-name="Grupo 1190861">
                <g id="Grupo_1190860" data-name="Grupo 1190860" clip-path="url(#clip-path-5)">
                  <path id="Trazado_1006703" data-name="Trazado 1006703" d="M42.539,94.31l-1.069-.617c-3.772-2.178-3.294-6.016,1.061-8.53L80.1,63.474c4.355-2.514,11-2.79,14.775-.612l1.069.617c3.771,2.177,3.294,6.016-1.061,8.53L57.313,93.7c-4.354,2.514-11,2.79-14.774.612" transform="translate(-38.927 -61.392)" fill="#c1c8e0"/>
                </g>
              </g>
            </g>
            <path id="Trazado_1006704" data-name="Trazado 1006704" d="M98.946,21.73a2.888,2.888,0,0,1,1.238-.152,6.774,6.774,0,0,1,3.36,1.051,7.679,7.679,0,0,1,1.51,1.316,8.217,8.217,0,0,1,.676.869c.132.195.3.68.48.807L104.748,24.6a9.533,9.533,0,0,1,2.061,4.491,8.911,8.911,0,0,0,.393,2.357c.343.7.767,1.348,1.137,2.032.317.585.762,1.088,1.1,1.666a6.08,6.08,0,0,1-1.211-1.323,5.278,5.278,0,0,0,.891,2.1,8.876,8.876,0,0,1,1.1,4.442,21.468,21.468,0,0,1-.69-2.217,20.694,20.694,0,0,1,.054,3.621,5.714,5.714,0,0,0,.211,3.33c-.153-.348-.48-.555-.677-.869a7.523,7.523,0,0,1-.526-1.024,3.377,3.377,0,0,0-.2.964,2.194,2.194,0,0,0,.041.866,4.017,4.017,0,0,1-.492-1.879,10.42,10.42,0,0,0-.14,5.055,5.062,5.062,0,0,0-.46-.781c-.135-.278-.226-.572-.35-.854a6.606,6.606,0,0,1-.551-1.8,7.884,7.884,0,0,0-.252-.886c-.122-.5-.479-3.985-.55-4.5a15.722,15.722,0,0,0-.87-3.558c-.218-.557-.481-3.78-.805-4.283-.288-.446-.774-.856-.819-1.421a12.365,12.365,0,0,1,.009,1.789,13.3,13.3,0,0,1-.852-2.837A8.286,8.286,0,0,0,101.6,26.4a3.979,3.979,0,0,0-2.286-1.862,2.221,2.221,0,0,0-1.457.059c-.529.237-.778.805-1.288,1.064-1.049.534-1.62-.951-.917-1.652a4.184,4.184,0,0,1,1.32-.728,1.1,1.1,0,0,0,.388-.248,4.3,4.3,0,0,1,1.59-1.3" transform="translate(-27.285 -6.173)" fill="#28304a"/>
            <path id="Trazado_1006705" data-name="Trazado 1006705" d="M95.694,24.242a.776.776,0,0,1,.057-.062,4.172,4.172,0,0,1,1.319-.728,1.114,1.114,0,0,0,.388-.248,6.37,6.37,0,0,1,1.09-1.038,1.441,1.441,0,0,0,1,.948,4.1,4.1,0,0,0,.624.092,5.117,5.117,0,0,1,1.959.331,3.419,3.419,0,0,1,1.094.983,13.818,13.818,0,0,1,2.275,4.111l-.794.025a8.573,8.573,0,0,0,2.286,4.55,2.012,2.012,0,0,0,1.176,2.251,6.569,6.569,0,0,0,.922.4c.045.078.089.155.132.233a8.876,8.876,0,0,1,1.1,4.442,21.294,21.294,0,0,1-.69-2.217,20.688,20.688,0,0,1,.054,3.62,5.717,5.717,0,0,0,.212,3.331c-.154-.348-.481-.555-.677-.87a7.6,7.6,0,0,1-.526-1.023,3.371,3.371,0,0,0-.2.964,2.208,2.208,0,0,0,.04.866,4.009,4.009,0,0,1-.491-1.88,10.423,10.423,0,0,0-.141,5.056,4.912,4.912,0,0,0-.459-.781c-.135-.278-.226-.572-.349-.854a6.642,6.642,0,0,1-.552-1.8,7.733,7.733,0,0,0-.251-.886c-.121-.5-.478-3.985-.55-4.5A15.765,15.765,0,0,0,104.871,36c-.218-.557-.481-3.78-.806-4.282-.288-.447-.774-.856-.818-1.421a12.365,12.365,0,0,1,.009,1.789,13.3,13.3,0,0,1-.853-2.837,8.294,8.294,0,0,0-.7-2.676,3.983,3.983,0,0,0-2.286-1.862,2.219,2.219,0,0,0-1.456.059c-.529.237-.778.8-1.288,1.064a.989.989,0,0,1-.368.111,3.788,3.788,0,0,1-.607-1.7" transform="translate(-27.386 -6.344)" fill="#1c2134"/>
            <path id="Trazado_1006706" data-name="Trazado 1006706" d="M106.12,34.158a2.3,2.3,0,0,1-.393-.787c-.016-.081-.033-.3.059-.345a.157.157,0,0,1,.063-.013.621.621,0,0,1,.355.042,2.206,2.206,0,0,0,.248.148,1.7,1.7,0,0,1,.589.52c.36.42.676,3.561.943,4.047a8.137,8.137,0,0,1,.977,3.186c.066.751.028,1.507.076,2.259a46.266,46.266,0,0,0,1.693,8.35c-1.408-2.042-1.874-4.569-2.266-7.018a6.685,6.685,0,0,1-.069.913,8.127,8.127,0,0,0,.062.977c.08.671.236,1.326.372,1.986a11.62,11.62,0,0,1-1.321-3.012,8.546,8.546,0,0,1-.067-3.421,4.875,4.875,0,0,0-.575,1.795,8.924,8.924,0,0,1,.157-2.6,11.088,11.088,0,0,0,.258-2.858,7.792,7.792,0,0,0-.374-1.857c-.132-.43-.22-.886-.392-1.3a5.7,5.7,0,0,0-.393-1.011" transform="translate(-30.254 -9.446)" fill="#1c2134"/>
            <path id="Trazado_1006707" data-name="Trazado 1006707" d="M80.36,59.757c.2,1.011,3.141.318,3.326-.541.17-.79-.111-1.3.143-2.027h0a1.615,1.615,0,0,1,.079-.2,56.74,56.74,0,0,0,1.258-6.561c.246-1.483,2.388-5.77,1.753-7.1s.669-5.492.527-6.494S90.6,33.01,90.6,25.682c0-1.153-2.359-4.179-5.067-.217s-2.91,4.606-3.134,7.914a35.814,35.814,0,0,0,.887,11.191,28.934,28.934,0,0,1-.533,4.8c-.411,1.368.316,4.4-.77,6.37-.267.484-.515.914-.731,1.3h0c-.658,1.178-1.039,1.954-.885,2.716" transform="translate(-22.988 -6.722)" fill="#82260a"/>
            <path id="Trazado_1006708" data-name="Trazado 1006708" d="M46.3,48.582l-.127.482a28.957,28.957,0,0,0-.726,3.628c-.466,3.771-.443,9.893.486,11.756s.9,10.809.935,11.485a15.916,15.916,0,0,1-.958,3c-.067.182.216.727.13.9a11.456,11.456,0,0,0-1.008,2.2c-.109,1.65,4.012.986,4.064.136.006-.084.009-.173.009-.264.021-.84-.084-1.946-.084-1.946s.017-.088.046-.235h0a12.993,12.993,0,0,1,.309-2.457c.389-1.072-.218-1.849-.273-4.021,0-.081.154-4.311.154-4.413,0-.991,1.053-3.321,1-5.436a40.048,40.048,0,0,1,.7-7.144,40.02,40.02,0,0,1,1.839-5.04s.021-1.665-.148-3.6c-.208-2.412-.709-5.243-1.9-5.8-2.267-1.064-.071.6-1.353,1.039a9.548,9.548,0,0,1-3.205-.181s.641,4,.118,5.915" transform="translate(-12.888 -11.865)" fill="#942f11"/>
            <path id="Trazado_1006709" data-name="Trazado 1006709" d="M48.214,83.2c.47.041.929.076,1.378.11.021-.841-.084-1.946-.084-1.946s.018-.088.047-.235l0,0a12.98,12.98,0,0,1,.309-2.456c.389-1.073-.218-1.849-.274-4.022,0-.081.155-4.311.155-4.413,0-.991,1.053-3.321,1-5.436a40.046,40.046,0,0,1,.7-7.144c.925-.286,2.007-.667,3.274-1.151a23.693,23.693,0,0,0,6.4-3.467c-2.147,1.207-7.054,1.838-6.955-.473a19.383,19.383,0,0,0-1.274-6.2,8.767,8.767,0,0,1,.243,2.651c-.01.454-.04.969-.1,1.554-.236,2.419-5.933-.188-6.167,2.191A27.551,27.551,0,0,0,47.887,63.7c.743,1.9,1.939,2.044,1.076,5.073s-.052,7.49-.171,8.138.272.871.131,1.877-.388,1.9-.709,4.418" transform="translate(-13.373 -13.27)" fill="#82260a"/>
            <path id="Trazado_1006710" data-name="Trazado 1006710" d="M45.034,97.379c-.109,1.65,4.012.986,4.064.136a18.493,18.493,0,0,0-.075-2.209s.017-.089.047-.235c-.459.832-2.634.6-3.028.1a11.435,11.435,0,0,0-1.009,2.2" transform="translate(-12.888 -27.208)" fill="#222021"/>
            <path id="Trazado_1006711" data-name="Trazado 1006711" d="M27.91,42.469c.219.051.922-.454.922-.454s0,.393.687.012c.071-.039.148-.085.233-.142.922-.607.582-1.285.735-1.526a14.888,14.888,0,0,1,1.952-3.264c.833-.76,2.11-3.688,2.418-3.84s.92.348,1.163,1.141a14.436,14.436,0,0,0,1.555,2.412c.172.243.35.492.529.74.6.849,1.2,1.7,1.546,2.328.756,1.362,1.981,2.516,1.989,3.033,0,.1,0,.2,0,.308,0,.173.016.552.053,1.034.109,1.415-.537,4.57.085,5.32.794.959,2.251,1.167,7.863-1.717.266-.136.541-.28.824-.43l.1-.052c1.5-.791,2.868-1.451,4.124-2.042,3.986-1.877,6.8-3.042,8.627-5.3,2.413-2.979,3.226-4.983,4.343-6.033a26.129,26.129,0,0,1,2.187-1.528,22.739,22.739,0,0,0,2.245-1.707,7.927,7.927,0,0,0,2.742-4.027c.812-3.717.986-2.493-.393-3.382s-3.336-1.524-9.325,2.74c0,0-5.836,3.58-7.679,4.2s-6.294-.36-7.587-.767-9.444-4.463-10.784-5.1-4.1-.9-5.243-.373-1.954,1.027-3.05,3.828.1,4.4-.93,6.345a26.347,26.347,0,0,0-2.331,6.177c-.216,1.36.176,2.015.4,2.064" transform="translate(-7.856 -6.499)" fill="#ad4929"/>
            <path id="Trazado_1006712" data-name="Trazado 1006712" d="M31.9,34.415c-.387.749-.355,1.368-.671,1.871-.109.174.107.721.009.9a31.764,31.764,0,0,0-1.7,4.765c.233.084.971-1.625,1.659-2.668s.41-1.977.735-2.144.6-.238.285-1.056a5.263,5.263,0,0,1-.319-1.665" transform="translate(-8.453 -9.849)" fill="#c0c3c6"/>
            <path id="Trazado_1006713" data-name="Trazado 1006713" d="M75.8,34.423s-.121.542-.316,1.4A26.437,26.437,0,0,0,73.3,37.354c-1.118,1.048-1.93,3.054-4.344,6.032S62.4,47.442,56.1,50.775s-7.854,3.149-8.688,2.146c-.622-.749.024-3.905-.085-5.321,0,0,.957,3.377,2.912,3.875s4.654-1.565,4.654-1.565l2.312-5.825a32.618,32.618,0,0,1-.434,3.875c-.212.53,1.021.351,1.021.351A15.633,15.633,0,0,0,66.365,44.6c3.642-3.361,5.4-7.144,6.231-7.624a37.687,37.687,0,0,0,3.2-2.557" transform="translate(-13.491 -9.851)" fill="#942f11"/>
            <path id="Trazado_1006714" data-name="Trazado 1006714" d="M34.4,24.744s-1.046-2.629-1.021-2.727c.186-.726,1.6.458,1.934.726.228.183,1,.855,1.475,1.269a.6.6,0,0,1,.11.779c-.1.163-.181.382-.316.463-.578.344-1,.387-1.328.141a5.716,5.716,0,0,1-.853-.65" transform="translate(-9.552 -6.234)" fill="#82260a"/>
            <path id="Trazado_1006715" data-name="Trazado 1006715" d="M47.2,54.9c.652,1.563,5.691,5.158,10.147,6.621a14.2,14.2,0,0,0,1.8.473l.008,0c.116.022.229.041.34.059l.764-11.185.6-8.8s-6.3,2.411-10.32,4.1l-.347.146a12.63,12.63,0,0,0-2.934,1.441,4.8,4.8,0,0,1-.054.687c-.166,1.508-.62,4.977,0,6.453" transform="translate(-13.417 -12.04)" fill="#ad4929"/>
            <path id="Trazado_1006716" data-name="Trazado 1006716" d="M80.36,73.208c.2,1.011,3.141.318,3.326-.541.17-.79-.111-1.3.143-2.027-1.593.916-2.643,1.078-2.581-.15h0c-.658,1.178-1.039,1.954-.885,2.716" transform="translate(-22.988 -20.174)" fill="#222021"/>
            <path id="Trazado_1006717" data-name="Trazado 1006717" d="M89.354,22.694c8.951-.618,9.441,5.8,9.441,5.8s2.741,9.44-3.611,8.275-8.754-6.738-8.288-8.208,2.458-5.867,2.458-5.867" transform="translate(-24.852 -6.483)" fill="#ad4929"/>
            <path id="Trazado_1006718" data-name="Trazado 1006718" d="M93.792,24.445c7.92-.824,8.783,5.359,8.754,8.741-.018,2.071-4.864,6.857-5.959,6.731-6.416-.74-3.708-6.587-3.241-8.056s.446-7.416.446-7.416" transform="translate(-26.438 -6.974)" fill="#ad4929"/>
            <path id="Trazado_1006719" data-name="Trazado 1006719" d="M30.346,43.646a2.4,2.4,0,0,0,.762,1.812c.219.051.922-.456.922-.456s0,.313.485.113a2.785,2.785,0,0,0,.435-.243,4.125,4.125,0,0,0,1.34-1.176,28.406,28.406,0,0,1,2.555-2.916c.4-.365,1.261-1.018,2.085-1.615.9-.652,1.745-1.238,1.905-1.318.306-.152.92.349,1.164,1.141.085.281,2.193,2.051,3.456,3.409.19.207.389.42.593.637,1.565,1.678,3.4,3.618,4.548,4.961.012.012.023.024.034.036l.065.075c.288.34.528.64.7.882a3.522,3.522,0,0,1,.223.34c.9,1.622.855,1.976.855,2.655,0,.174.016.551.053,1.033.109,1.415.4,3.74,1.024,4.489a1.633,1.633,0,0,0,.857.565l.008,0a5.229,5.229,0,0,0,3.468.612c.309-.048.915-1.638,1.243-1.788.884-.395,1.912-.9,3.111-1.538a23.7,23.7,0,0,0,5.938-4.213l0,0a55.041,55.041,0,0,0,3.933-4.894c2.412-2.977,3.224-4.984,4.344-6.032a26.534,26.534,0,0,1,2.184-1.53c1.946-1.326,4.448-.045,4.987-2.519.813-3.717.989-5.707-.393-6.595s-3.334-1.524-9.324,2.74c0,0-.395.016-.989.069-1.318.122-3.609.434-4.715,1.194-1.6,1.1-5.291,4.294-6.584,3.885s-15.236-7.806-16.576-8.442-4.1-.906-5.243-.373-1.954,1.027-3.05,3.826-2.673,4.248-3.7,6.2S30.6,41.62,30.382,42.982a3.27,3.27,0,0,0-.036.665" transform="translate(-8.683 -8.118)" fill="#ad4929"/>
            <path id="Trazado_1006720" data-name="Trazado 1006720" d="M34.088,34.964a3.22,3.22,0,0,0-.87,1.163,10.339,10.339,0,0,0-.467,1.469A17.728,17.728,0,0,1,31.48,40.86q-.4.782-.871,1.522a2.362,2.362,0,0,1-.463.612c-.218.173-.5.258-.72.433-.447.357-.981,1.484-.652,2.041.308.525,1.186.571,1.716.66a6.561,6.561,0,0,0,2.576-.25c.572-.161,1.278-1.308,1.68-1.738l1.886-2.022a3.411,3.411,0,0,0,.987-1.548c.029-.138-.957.146-1.02.173a1.589,1.589,0,0,0-.423.246,16.467,16.467,0,0,1-1.713,1.094.263.263,0,0,1-.086.041A.215.215,0,0,1,34.17,42a1.012,1.012,0,0,1-.065-.67,5.4,5.4,0,0,1,1.186-3.039,10.673,10.673,0,0,0,1.825-2.346,2.047,2.047,0,0,0,.241-1.1,1.026,1.026,0,0,0-.64-.872,1.5,1.5,0,0,0-.946.1,5.279,5.279,0,0,0-1.684.893" transform="translate(-8.206 -9.71)" fill="#a63513"/>
            <path id="Trazado_1006721" data-name="Trazado 1006721" d="M62.5,57.187c3.381.226,7.053.208,9.785-1.8.742-.545,3.5-.874,4.676-2.56,1.488-2.125,3.251-5.5,4.5-7.78a11.172,11.172,0,0,0,.98-3.493c.216-1.306,1.031-2.661,1.376-3.943a8.321,8.321,0,0,1,2.019-4.087c-.194.954-.464,3.059-.085,3.935.121.28,1.25-.1,1.347.186a1.972,1.972,0,0,1,.072.732,14.128,14.128,0,0,1-.874,2.819,6.016,6.016,0,0,0-.649.5c-1.119,1.048-1.932,3.054-4.344,6.031s-3.58,5.775-9.876,9.11c-8.7,4.6-3.736,3.8-7.823,2.713h-.006a1.565,1.565,0,0,1-.571-.288,2.441,2.441,0,0,1-.525-2.074" transform="translate(-17.867 -9.595)" fill="#942f11"/>
            <path id="Trazado_1006722" data-name="Trazado 1006722" d="M32.612,47.827a.959.959,0,0,0,.543.537,2.753,2.753,0,0,0,.435-.243,4.124,4.124,0,0,0,1.34-1.176,28.483,28.483,0,0,1,2.555-2.916c.4-.365,1.261-1.018,2.086-1.615.6.849,1.2,1.7,1.546,2.328.756,1.362,1.981,2.516,1.989,3.033-.166,1.508-.62,4.977,0,6.452.652,1.563,5.691,5.158,10.147,6.621-.271-1.4-.652-2.772-1.029-4.147-.093-.333.9-.817.752-1.126a7.084,7.084,0,0,1-.8-3.531A8.836,8.836,0,0,1,50.011,53a1.817,1.817,0,0,1-1.475.036,1.659,1.659,0,0,1-.528-.421,2.242,2.242,0,0,1-.488-1.873,4.49,4.49,0,0,1,1.653-2.269c.091-.082.191-.186.172-.307s-.151-.191-.266-.239a7.073,7.073,0,0,1-1.569-.853A3.152,3.152,0,0,1,46.592,46c-.214-.428-.51-.8-.74-1.225-.5-.924-.817-1.935-1.322-2.857-.407-.742-2.381-2.474-3.333-2.163a5.571,5.571,0,0,0-2.155,1.919,7.659,7.659,0,0,1-.679.745,8.367,8.367,0,0,0-.819.7,7.834,7.834,0,0,0-.7,1.226,6.824,6.824,0,0,1-.6.813,5.263,5.263,0,0,1-1.394,1.327,4.178,4.178,0,0,1-1.958.438c.1.227-.237.409-.3.65a.416.416,0,0,0,.02.249" transform="translate(-9.324 -11.367)" fill="#942f11"/>
            <path id="Trazado_1006723" data-name="Trazado 1006723" d="M59.409,54.443c0,.162.008.33.012.5.034,1.19-.1,6.317.089,7.51a60.891,60.891,0,0,0,1.933,9.239c.72,1.954.594,9.883.612,10.559a6.843,6.843,0,0,1-.972,2.724c-.1.168.071.541-.007.72a11.47,11.47,0,0,0-.917,2.244c-.041,1.653,4.049.82,4.066-.031,0-.084,0-.173,0-.264-.014-.84-.163-1.941-.163-1.941s.014-.089.037-.236v0a6.973,6.973,0,0,1,.429-1.805c.419-1.061-.166-1.854-.161-4.027,0-.081.276-3.358.278-3.46.028-.991,1.034-2.936,1.212-5.045.108-1.272,1.182-7.142,1.419-8.652a40.044,40.044,0,0,1,1.218-5.225s-.181-1.655-.582-3.558c-.5-2.369-1.336-5.119-2.59-5.533a5.824,5.824,0,0,0-5.344.819,6.036,6.036,0,0,0-1.157,1.046,25.785,25.785,0,0,1,.587,4.421" transform="translate(-16.834 -13.691)" fill="#ad4929"/>
            <path id="Trazado_1006724" data-name="Trazado 1006724" d="M64.454,88.89c.471.021.932.038,1.382.053C65.822,88.1,65.672,87,65.672,87s.014-.089.037-.236l0,0a6.914,6.914,0,0,1,.429-1.805c.418-1.061-.167-1.854-.161-4.027,0-.081.276-3.359.278-3.461.028-.991,1.034-2.936,1.212-5.045.108-1.272,1.181-7.142,1.419-8.652.883-.4,1.911-.9,3.111-1.538a23.7,23.7,0,0,0,5.938-4.214c-1.986,1.458-6.781,2.675-6.961.369a19.378,19.378,0,0,0-2.012-6,8.783,8.783,0,0,1,.561,2.6c.044.452.077.967.091,1.555a25.771,25.771,0,0,1-1.972,9.017,6.081,6.081,0,0,0-.7,2.421,26.655,26.655,0,0,1-1.427,8c-.946,3-.263,6.539-.4,7.183s.247.879.078,1.879a19.267,19.267,0,0,0-.74,3.847" transform="translate(-18.446 -14.993)" fill="#942f11"/>
            <path id="Trazado_1006725" data-name="Trazado 1006725" d="M52.769,28.774a9.91,9.91,0,0,1-2.8-.848c.133.051.3.269.445.348.164.09,1.475.857,1.645.939A7.327,7.327,0,0,0,56,29.884l-.686.353c.052.147.243.176.4.182l1.7.056q-.076.066-.156.128a4.81,4.81,0,0,1-4.34.657A3.354,3.354,0,0,0,54.21,32a3.438,3.438,0,0,1-1.332-.141,14.188,14.188,0,0,1-1.856-.353c-.443-.158-2.036-1.1-2.471-1.3a9.4,9.4,0,0,1-2.815-1.972A17.212,17.212,0,0,0,47.22,30a7.533,7.533,0,0,1-2.911-2.478,4.594,4.594,0,0,0-.5-.655,5.881,5.881,0,0,0-3.783-1.289,3.13,3.13,0,0,0-.81.1c-.235.052-.462-.01-.682.132a1.453,1.453,0,0,0-.409.452,5.2,5.2,0,0,0-.49.957c-.031-.331-.077-.662-.137-.989.006.031-.166.187-.192.216-.072.083-.143.166-.213.251a4.7,4.7,0,0,0-.378.533,3.035,3.035,0,0,0-.26.58,3.612,3.612,0,0,0-.11.67,3,3,0,0,1-.36-1.189c-.187.4-.5.726-.717,1.107a5.6,5.6,0,0,0-.518,1.479.7.7,0,0,0-.046-.2c-.018-.08-.034-.16-.048-.24-.029-.16-.053-.321-.071-.483a3.307,3.307,0,0,1-.034-.892,8.451,8.451,0,0,0-.727,1.046,5.4,5.4,0,0,1,.46-1.926,4.223,4.223,0,0,1,.41-.829,2.454,2.454,0,0,1,.538-.569,1.13,1.13,0,0,0-.356.034,2.909,2.909,0,0,0-.62.315.151.151,0,0,0-.061.065.056.056,0,0,0,0,.031c-.009-.046.08-.173.1-.215.039-.077.079-.153.121-.228.083-.147.18-.278.272-.419a10.3,10.3,0,0,1,.71-1.07A4.232,4.232,0,0,1,38,22.86a13.071,13.071,0,0,1,3.281-.106l-1.7.5a16.073,16.073,0,0,1,5.321.667l-1.688-.128a24.541,24.541,0,0,0,3.765,1.417,7.341,7.341,0,0,1,1.817.673,2.781,2.781,0,0,1-1.106-.087,4.2,4.2,0,0,1,.652.389,5.757,5.757,0,0,1,.676.367,15.083,15.083,0,0,0,3.755,2.224" transform="translate(-9.681 -6.496)" fill="#28304a"/>
            <path id="Trazado_1006726" data-name="Trazado 1006726" d="M38.146,36.5s-.615-.6-1.071-.358c-.911.481-.812,1.149-.812,1.149a2.008,2.008,0,0,0,.94-.06,2.523,2.523,0,0,0,.943-.732" transform="translate(-10.377 -10.328)" fill="#22222c"/>
            <path id="Trazado_1006727" data-name="Trazado 1006727" d="M34.066,47.009s-1.4,2.694-1.488,2.949a.319.319,0,0,0,.084.379l.724-1.425.68-1.752Z" transform="translate(-9.316 -13.453)" fill="#050507"/>
            <path id="Trazado_1006728" data-name="Trazado 1006728" d="M36.613,27.3c.086-1.169,1.281-1.888,2.333-2.406a2.943,2.943,0,0,0-1.4.4c1.55-1.218,3.768-.879,5.7-.48a1.411,1.411,0,0,0-1.258-.682,7.962,7.962,0,0,1,1.614-.419,9.93,9.93,0,0,1,2.091.494l-1.688-.128A24.467,24.467,0,0,0,47.771,25.5a7.34,7.34,0,0,1,1.817.673,2.782,2.782,0,0,1-1.106-.087,4.2,4.2,0,0,1,.652.389,5.758,5.758,0,0,1,.676.367,15.083,15.083,0,0,0,3.755,2.224,9.91,9.91,0,0,1-2.8-.848c.133.051.3.269.445.348.164.09,1.475.857,1.645.939a7.328,7.328,0,0,0,3.947.672l-.686.353c.052.147.243.176.4.182l1.7.057c-.051.044-.1.086-.156.128a4.81,4.81,0,0,1-4.34.657,3.354,3.354,0,0,0,1.294.739,3.438,3.438,0,0,1-1.332-.141,14.328,14.328,0,0,1-1.856-.352c-.443-.158-2.036-1.1-2.47-1.3a9.417,9.417,0,0,1-2.816-1.972,17.135,17.135,0,0,0,1.484,1.761A7.533,7.533,0,0,1,45.1,27.811a4.593,4.593,0,0,0-.5-.655,5.881,5.881,0,0,0-3.783-1.289,3.13,3.13,0,0,0-.81.1c-.235.052-.462-.01-.681.132a1.446,1.446,0,0,0-.41.452,5.182,5.182,0,0,0-.49.958c-.031-.332-.077-.662-.137-.99.006.031-.166.187-.192.216-.072.083-.143.166-.213.251a4.7,4.7,0,0,0-.378.533,3.036,3.036,0,0,0-.26.58,3.612,3.612,0,0,0-.11.67,3,3,0,0,1-.36-1.189,2.573,2.573,0,0,1-.138.249,2.035,2.035,0,0,1-.034-.518" transform="translate(-10.477 -6.787)" fill="#1c2134"/>
            <path id="Trazado_1006729" data-name="Trazado 1006729" d="M41.366,28.639s-1.25-2.62-.835-3.2c.268-.373,1.719.884,1.972,1.233s1.727,1.517,1.807,2.187c.055.462-.912.874-1.292.921-.422.051-.471-.533-.743-.76-.348-.291-.866-.261-.909-.383" transform="translate(-11.575 -7.261)" fill="#82260a"/>
            <path id="Trazado_1006730" data-name="Trazado 1006730" d="M102.816,49.431c0,1.2-.884,7.155-.884,7.6s.273,3.542.227,4.3a3.965,3.965,0,0,1-.59,1.591,10.13,10.13,0,0,0-.249,1.838,3.8,3.8,0,0,1-.736,1.663,13.83,13.83,0,0,0-.673,1.6s-2.38-.37-2.38-.812a16.348,16.348,0,0,1,.853-2.913c.174-.468.3-.816.33-.889a5.9,5.9,0,0,0,.136-1.669,13.842,13.842,0,0,1,.363-2.318,17.9,17.9,0,0,0,.067-3.947,14.479,14.479,0,0,1-.794-3.241,10.863,10.863,0,0,0-1.248-3.448,31.5,31.5,0,0,1-1.885-2.846A16.607,16.607,0,0,1,93.924,43c-.123-.639-.116-6.171,1.2-8.806s5.165-4.448,6.414-3.763a2.432,2.432,0,0,1,1.293,1.911,27.454,27.454,0,0,1-.393,8.282,28.036,28.036,0,0,0-.626,5.3c.312,1.8,1,2.705,1,3.5" transform="translate(-26.866 -8.669)" fill="#ad4929"/>
            <path id="Trazado_1006731" data-name="Trazado 1006731" d="M94.664,37.077a1.22,1.22,0,0,1,.038.148,7.053,7.053,0,0,1-.123,1.236c-.014.65.032,1.307.048,1.957a36.516,36.516,0,0,0,.59,4.409c.375,1.974,2.106,3.952,3.217,5.626a11.172,11.172,0,0,1,1.915,3.266c.155.61-.793.163-.755.769a4.578,4.578,0,0,0,.589,1.769,4.081,4.081,0,0,1,.522,2.209,10.64,10.64,0,0,1-.027,1.873c-.13.8-.413,1.553-.562,2.338a10.9,10.9,0,0,0-.069,2.368c.011.407-.535,3.443.692,2.622.1.356.2.71.321,1.061a5.054,5.054,0,0,1-1.24,1.23s-2.38-.37-2.38-.812a16.348,16.348,0,0,1,.853-2.913c.174-.468.3-.816.33-.889a5.927,5.927,0,0,0,.136-1.669,13.843,13.843,0,0,1,.363-2.318,17.9,17.9,0,0,0,.067-3.947,14.479,14.479,0,0,1-.794-3.241,10.856,10.856,0,0,0-1.248-3.448,31.5,31.5,0,0,1-1.885-2.846,18.578,18.578,0,0,1-1.43-2.927c-.651-2.854-.058-5.051.831-7.87" transform="translate(-26.775 -10.611)" fill="#a63513"/>
            <path id="Trazado_1006732" data-name="Trazado 1006732" d="M102.807,80.194c.166.4-.158.977-1.431,1.452-1.413.527-2.38-.37-2.38-.812a16.35,16.35,0,0,1,.853-2.914s.3.929,1.741.868a1.729,1.729,0,0,0,1.195-.4,11.276,11.276,0,0,0,.022,1.809" transform="translate(-28.331 -22.3)" fill="#222021"/>
            <path id="Trazado_1006733" data-name="Trazado 1006733" d="M32.057,46.992c.823-.252.975.66,1.241,1.6s.071,1.014-.338,1.444a2.111,2.111,0,0,1-1.992.608c-1.144-.084-2.28-1.685-2.28-1.685Z" transform="translate(-8.21 -13.436)" fill="#7d341e"/>
            <path id="Trazado_1006734" data-name="Trazado 1006734" d="M30.274,49.944a4.907,4.907,0,0,1-2.827-1.577c-.388-.4-.508-.711-.373-2.02a4.755,4.755,0,0,1,1.031-2.3c-.176.557-.077.767.267,1a3.432,3.432,0,0,0,3.066.488c.73-.118,1.216-.2,1.548.549s-.777,1.333-.971,1.941-.653,1.8-1.741,1.924" transform="translate(-7.733 -12.606)" fill="#7d341e"/>
            <path id="Trazado_1006735" data-name="Trazado 1006735" d="M30.7,48.459a.281.281,0,0,0-.434.3c.032.124.07.277.113.462s-.284.508-.291.647c-.02.377.147.428.4.44.4.02,1.141-.618,1.049-.859a2.944,2.944,0,0,0-.835-.99" transform="translate(-8.611 -13.854)" fill="#1e1d1b"/>
            <path id="Trazado_1006736" data-name="Trazado 1006736" d="M60.7,103.019c-.041,1.653,4.049.82,4.067-.03a18.5,18.5,0,0,0-.166-2.2s.014-.089.037-.237c-.424.851-2.607.712-3.021.228a11.472,11.472,0,0,0-.917,2.244" transform="translate(-17.37 -28.775)" fill="#222021"/>
            <path id="Trazado_1006737" data-name="Trazado 1006737" d="M47.324,92.112a.846.846,0,0,1,0-.134c-.037.007-.034.046,0,.134" transform="translate(-13.536 -26.323)" fill="#222021"/>
            <path id="Trazado_1006738" data-name="Trazado 1006738" d="M83.795,59.777a2.363,2.363,0,0,0,.318-.345,1.344,1.344,0,0,0-.318.345" transform="translate(-23.981 -17.009)" fill="#9a4025"/>
            <path id="Trazado_1006739" data-name="Trazado 1006739" d="M70.6,52.059c.012.024.046.092.1.191a1.665,1.665,0,0,0-.1-.191" transform="translate(-20.206 -14.899)" fill="#9a4025"/>
            <g id="Grupo_1190865" data-name="Grupo 1190865" transform="translate(65.362 67.021)" style="mix-blend-mode: multiply;isolation: isolate">
              <g id="Grupo_1190864" data-name="Grupo 1190864">
                <g id="Grupo_1190863" data-name="Grupo 1190863" clip-path="url(#clip-path-5)">
                  <path id="Trazado_1006740" data-name="Trazado 1006740" d="M95.18,126.809l-1.069-.617c-3.772-2.178-3.294-6.016,1.061-8.53l37.568-21.69c4.355-2.514,11-2.79,14.775-.612l1.069.617c3.771,2.177,3.294,6.016-1.061,8.53L109.954,126.2c-4.354,2.514-11,2.79-14.774.612" transform="translate(-91.567 -93.891)" fill="#c1c8e0"/>
                </g>
              </g>
            </g>
            <path id="Trazado_1006741" data-name="Trazado 1006741" d="M151.587,54.229a2.893,2.893,0,0,1,1.239-.152,6.776,6.776,0,0,1,3.36,1.051,7.7,7.7,0,0,1,1.51,1.316,8.215,8.215,0,0,1,.676.869c.133.195.3.68.48.807L157.389,57.1a9.539,9.539,0,0,1,2.061,4.491,8.884,8.884,0,0,0,.394,2.357c.343.7.767,1.348,1.137,2.031.317.585.762,1.088,1.1,1.666a6.08,6.08,0,0,1-1.211-1.323,5.268,5.268,0,0,0,.891,2.1,8.875,8.875,0,0,1,1.1,4.442,21.294,21.294,0,0,1-.69-2.217,20.627,20.627,0,0,1,.054,3.621,5.715,5.715,0,0,0,.212,3.33c-.154-.348-.48-.555-.677-.869a7.609,7.609,0,0,1-.527-1.024,3.4,3.4,0,0,0-.2.964,2.207,2.207,0,0,0,.04.866,4.017,4.017,0,0,1-.491-1.879,10.408,10.408,0,0,0-.141,5.055,5,5,0,0,0-.459-.781c-.135-.278-.227-.572-.35-.854a6.631,6.631,0,0,1-.552-1.8,8.032,8.032,0,0,0-.251-.886c-.122-.5-.479-3.985-.551-4.5a15.72,15.72,0,0,0-.869-3.558c-.218-.557-.481-3.78-.806-4.283-.288-.446-.774-.856-.818-1.421a12.374,12.374,0,0,1,.009,1.789,13.3,13.3,0,0,1-.852-2.837,8.285,8.285,0,0,0-.705-2.676,3.981,3.981,0,0,0-2.286-1.862,2.221,2.221,0,0,0-1.457.059c-.529.237-.778.805-1.288,1.064-1.05.534-1.62-.951-.917-1.652a4.184,4.184,0,0,1,1.32-.728,1.111,1.111,0,0,0,.388-.248,4.294,4.294,0,0,1,1.59-1.3" transform="translate(-42.35 -15.474)" fill="#28304a"/>
            <path id="Trazado_1006742" data-name="Trazado 1006742" d="M148.334,56.741a.767.767,0,0,1,.057-.062,4.172,4.172,0,0,1,1.319-.728,1.114,1.114,0,0,0,.388-.248,6.371,6.371,0,0,1,1.09-1.038,1.441,1.441,0,0,0,1,.948,4.1,4.1,0,0,0,.624.092,5.117,5.117,0,0,1,1.959.331,3.42,3.42,0,0,1,1.094.983,13.816,13.816,0,0,1,2.275,4.111l-.794.025a8.573,8.573,0,0,0,2.286,4.55,2.012,2.012,0,0,0,1.176,2.251,6.571,6.571,0,0,0,.922.4c.045.078.089.155.132.233a8.876,8.876,0,0,1,1.1,4.442,21.3,21.3,0,0,1-.69-2.217,20.687,20.687,0,0,1,.054,3.62,5.717,5.717,0,0,0,.212,3.331c-.154-.348-.481-.555-.677-.87a7.64,7.64,0,0,1-.526-1.023,3.371,3.371,0,0,0-.2.964,2.208,2.208,0,0,0,.04.866,4.009,4.009,0,0,1-.491-1.88,10.424,10.424,0,0,0-.141,5.056,4.912,4.912,0,0,0-.459-.781c-.135-.278-.226-.572-.349-.854a6.666,6.666,0,0,1-.552-1.8,7.739,7.739,0,0,0-.251-.886c-.121-.5-.478-3.984-.55-4.5a15.764,15.764,0,0,0-.869-3.559c-.218-.557-.481-3.78-.806-4.282-.288-.447-.774-.856-.818-1.421a12.365,12.365,0,0,1,.009,1.789,13.3,13.3,0,0,1-.853-2.837,8.294,8.294,0,0,0-.7-2.676,3.983,3.983,0,0,0-2.286-1.862,2.219,2.219,0,0,0-1.456.059c-.529.237-.778.8-1.288,1.064a.989.989,0,0,1-.368.111,3.787,3.787,0,0,1-.607-1.7" transform="translate(-42.451 -15.644)" fill="#1c2134"/>
            <path id="Trazado_1006743" data-name="Trazado 1006743" d="M158.761,66.657a2.3,2.3,0,0,1-.393-.787c-.016-.081-.033-.3.059-.345a.158.158,0,0,1,.063-.013.621.621,0,0,1,.355.042,2.209,2.209,0,0,0,.248.148,1.7,1.7,0,0,1,.589.52c.36.42.676,3.561.943,4.047a8.137,8.137,0,0,1,.977,3.186c.066.751.028,1.507.076,2.259a46.268,46.268,0,0,0,1.693,8.35c-1.408-2.042-1.874-4.569-2.266-7.018a6.687,6.687,0,0,1-.069.913,8.123,8.123,0,0,0,.062.977c.08.67.236,1.326.372,1.986a11.619,11.619,0,0,1-1.321-3.012,8.546,8.546,0,0,1-.067-3.421,4.874,4.874,0,0,0-.575,1.795,8.923,8.923,0,0,1,.157-2.6,11.089,11.089,0,0,0,.258-2.858,7.793,7.793,0,0,0-.374-1.857c-.132-.43-.22-.886-.392-1.3a5.7,5.7,0,0,0-.393-1.011" transform="translate(-45.319 -18.747)" fill="#1c2134"/>
            <path id="Trazado_1006744" data-name="Trazado 1006744" d="M133,92.256c.2,1.011,3.141.318,3.326-.541.17-.79-.111-1.3.143-2.027h0a1.612,1.612,0,0,1,.079-.2,56.731,56.731,0,0,0,1.258-6.561c.246-1.483,2.388-5.77,1.753-7.1s.669-5.492.527-6.494,3.147-3.832,3.147-11.16c0-1.153-2.359-4.179-5.067-.217s-2.91,4.606-3.134,7.914a35.814,35.814,0,0,0,.887,11.191,28.934,28.934,0,0,1-.533,4.8c-.411,1.368.316,4.4-.77,6.37-.267.484-.515.914-.731,1.3h0c-.658,1.178-1.039,1.954-.885,2.716" transform="translate(-38.053 -16.023)" fill="#82260a"/>
            <path id="Trazado_1006745" data-name="Trazado 1006745" d="M98.942,81.081l-.127.482a28.955,28.955,0,0,0-.726,3.628c-.466,3.771-.443,9.893.486,11.756s.9,10.809.935,11.485a15.919,15.919,0,0,1-.958,3c-.067.182.216.727.13.9a11.457,11.457,0,0,0-1.008,2.2c-.108,1.65,4.012.986,4.064.136.006-.084.009-.173.009-.264.021-.84-.084-1.946-.084-1.946s.017-.088.046-.235h0a12.992,12.992,0,0,1,.309-2.457c.389-1.072-.218-1.849-.273-4.021,0-.081.154-4.311.154-4.413,0-.991,1.053-3.321,1-5.436a40.049,40.049,0,0,1,.7-7.144,40.019,40.019,0,0,1,1.839-5.04s.021-1.665-.148-3.6c-.208-2.412-.709-5.243-1.9-5.8-2.267-1.064-.071.6-1.353,1.039a9.553,9.553,0,0,1-3.206-.181s.642,4,.118,5.915" transform="translate(-27.952 -21.166)" fill="#942f11"/>
            <path id="Trazado_1006746" data-name="Trazado 1006746" d="M100.855,115.7c.47.041.929.076,1.378.11.021-.841-.084-1.946-.084-1.946s.018-.088.047-.235l0,0a12.98,12.98,0,0,1,.309-2.456c.389-1.073-.218-1.849-.274-4.022,0-.081.155-4.311.155-4.413,0-.991,1.053-3.321,1-5.436a40.115,40.115,0,0,1,.7-7.144c.925-.286,2.007-.667,3.274-1.151a23.693,23.693,0,0,0,6.4-3.467c-2.147,1.207-7.054,1.838-6.955-.473a19.383,19.383,0,0,0-1.274-6.2,8.766,8.766,0,0,1,.243,2.651c-.01.454-.04.969-.1,1.554-.236,2.419-5.932-.188-6.167,2.191A27.551,27.551,0,0,0,100.528,96.2c.743,1.9,1.939,2.044,1.076,5.073s-.052,7.49-.171,8.138.272.871.131,1.877-.388,1.9-.709,4.418" transform="translate(-28.438 -22.57)" fill="#82260a"/>
            <path id="Trazado_1006747" data-name="Trazado 1006747" d="M97.675,129.878c-.109,1.65,4.012.986,4.064.136a18.494,18.494,0,0,0-.075-2.209s.017-.089.047-.235c-.459.832-2.634.6-3.028.1a11.435,11.435,0,0,0-1.009,2.2" transform="translate(-27.953 -36.509)" fill="#222021"/>
            <path id="Trazado_1006748" data-name="Trazado 1006748" d="M80.55,74.968c.219.051.922-.454.922-.454s0,.393.687.012c.071-.039.148-.085.233-.142.922-.607.582-1.285.735-1.526a14.887,14.887,0,0,1,1.952-3.264c.833-.76,2.11-3.688,2.418-3.84s.92.348,1.163,1.141a14.434,14.434,0,0,0,1.555,2.412c.172.243.35.492.529.74.6.849,1.2,1.7,1.546,2.328.756,1.362,1.981,2.516,1.989,3.033,0,.1,0,.2,0,.308,0,.173.016.552.053,1.034.109,1.415-.537,4.57.085,5.32.794.959,2.251,1.167,7.863-1.717.266-.136.541-.28.824-.43l.1-.053c1.5-.79,2.868-1.45,4.124-2.041,3.986-1.877,6.8-3.042,8.627-5.3,2.413-2.979,3.226-4.984,4.343-6.033a26.131,26.131,0,0,1,2.187-1.528,22.739,22.739,0,0,0,2.245-1.707,7.927,7.927,0,0,0,2.742-4.027c.812-3.717.986-2.493-.393-3.382s-3.336-1.524-9.325,2.74c0,0-5.836,3.58-7.679,4.2s-6.294-.36-7.587-.767-9.444-4.463-10.784-5.1-4.1-.9-5.243-.373-1.954,1.027-3.05,3.828.1,4.4-.93,6.345A26.347,26.347,0,0,0,80.155,72.9c-.216,1.36.176,2.015.4,2.064" transform="translate(-22.921 -15.8)" fill="#ad4929"/>
            <path id="Trazado_1006749" data-name="Trazado 1006749" d="M84.536,66.914c-.387.749-.355,1.368-.671,1.871-.109.174.107.721.009.9a31.762,31.762,0,0,0-1.7,4.765c.233.084.971-1.625,1.659-2.668s.41-1.977.735-2.144.6-.238.285-1.056a5.263,5.263,0,0,1-.319-1.665" transform="translate(-23.518 -19.15)" fill="#c0c3c6"/>
            <path id="Trazado_1006750" data-name="Trazado 1006750" d="M128.439,66.923s-.121.541-.316,1.4a26.579,26.579,0,0,0-2.185,1.53c-1.118,1.049-1.93,3.054-4.344,6.032s-6.558,4.057-12.853,7.389-7.854,3.149-8.688,2.146c-.622-.749.024-3.905-.085-5.321,0,0,.957,3.377,2.912,3.875s4.654-1.565,4.654-1.565l2.312-5.825a32.619,32.619,0,0,1-.434,3.875c-.212.53,1.021.351,1.021.351A15.633,15.633,0,0,0,119,77.1c3.642-3.361,5.4-7.144,6.231-7.625a37.714,37.714,0,0,0,3.2-2.556" transform="translate(-28.555 -19.152)" fill="#942f11"/>
            <path id="Trazado_1006751" data-name="Trazado 1006751" d="M87.04,57.243s-1.046-2.629-1.021-2.727c.186-.726,1.6.458,1.934.726.228.183,1,.855,1.475,1.269a.6.6,0,0,1,.11.779c-.1.163-.181.382-.316.463-.578.344-1,.387-1.328.141a5.717,5.717,0,0,1-.853-.65" transform="translate(-24.617 -15.535)" fill="#82260a"/>
            <path id="Trazado_1006752" data-name="Trazado 1006752" d="M99.838,87.4c.652,1.563,5.691,5.158,10.147,6.621a14.2,14.2,0,0,0,1.8.473l.008,0c.116.022.229.041.34.059l.764-11.185.6-8.8s-6.3,2.411-10.32,4.1l-.347.146a12.629,12.629,0,0,0-2.934,1.441,4.8,4.8,0,0,1-.054.687c-.166,1.508-.62,4.977,0,6.453" transform="translate(-28.482 -21.341)" fill="#ad4929"/>
            <path id="Trazado_1006753" data-name="Trazado 1006753" d="M133,105.707c.2,1.011,3.141.318,3.326-.541.17-.79-.111-1.3.143-2.027-1.592.916-2.643,1.078-2.581-.15h0c-.658,1.178-1.039,1.954-.885,2.716" transform="translate(-38.053 -29.474)" fill="#222021"/>
            <path id="Trazado_1006754" data-name="Trazado 1006754" d="M141.994,55.193c8.951-.618,9.441,5.8,9.441,5.8s2.741,9.44-3.611,8.275-8.754-6.738-8.288-8.208,2.458-5.867,2.458-5.867" transform="translate(-39.917 -15.784)" fill="#ad4929"/>
            <path id="Trazado_1006755" data-name="Trazado 1006755" d="M146.432,56.944c7.92-.824,8.783,5.359,8.754,8.741-.018,2.072-4.864,6.857-5.959,6.731-6.416-.74-3.708-6.587-3.241-8.056s.446-7.416.446-7.416" transform="translate(-41.503 -16.275)" fill="#ad4929"/>
            <path id="Trazado_1006756" data-name="Trazado 1006756" d="M82.987,76.145a2.4,2.4,0,0,0,.762,1.812c.219.051.922-.456.922-.456s0,.313.485.113a2.786,2.786,0,0,0,.435-.243A4.124,4.124,0,0,0,86.93,76.2a28.407,28.407,0,0,1,2.555-2.916c.4-.365,1.261-1.018,2.085-1.615.9-.652,1.745-1.238,1.905-1.318.306-.152.92.349,1.164,1.141.085.281,2.194,2.051,3.456,3.409.19.207.389.42.593.637,1.565,1.678,3.4,3.618,4.548,4.961.012.012.023.024.033.036s.044.051.065.075c.288.34.529.64.7.882a3.662,3.662,0,0,1,.223.34c.9,1.622.855,1.976.855,2.655,0,.174.016.551.053,1.033.109,1.415.4,3.74,1.024,4.489a1.635,1.635,0,0,0,.857.565l.008,0a5.228,5.228,0,0,0,3.468.612c.309-.048.915-1.638,1.243-1.788.884-.395,1.912-.9,3.111-1.538a23.7,23.7,0,0,0,5.938-4.213l0,0a55.167,55.167,0,0,0,3.933-4.894c2.412-2.977,3.224-4.984,4.344-6.032a26.536,26.536,0,0,1,2.184-1.53c1.946-1.326,4.448-.045,4.987-2.519.813-3.717.989-5.707-.393-6.595s-3.333-1.524-9.324,2.74c0,0-.4.016-.989.069-1.317.122-3.609.434-4.714,1.194-1.6,1.1-5.291,4.294-6.584,3.885s-15.236-7.806-16.576-8.442-4.1-.906-5.243-.373-1.954,1.027-3.05,3.826-2.673,4.248-3.7,6.2-2.448,2.949-2.669,4.311a3.27,3.27,0,0,0-.036.665" transform="translate(-23.749 -17.419)" fill="#ad4929"/>
            <path id="Trazado_1006757" data-name="Trazado 1006757" d="M86.728,67.463a3.22,3.22,0,0,0-.87,1.163,10.338,10.338,0,0,0-.467,1.469,17.727,17.727,0,0,1-1.271,3.264q-.4.782-.871,1.522a2.363,2.363,0,0,1-.463.612c-.218.173-.5.258-.72.433-.447.357-.981,1.484-.652,2.041.308.525,1.187.571,1.716.66a6.56,6.56,0,0,0,2.576-.25c.572-.161,1.278-1.308,1.68-1.738l1.886-2.022a3.41,3.41,0,0,0,.987-1.548c.029-.138-.956.146-1.02.173a1.59,1.59,0,0,0-.423.246A16.463,16.463,0,0,1,87.1,74.581a.262.262,0,0,1-.086.041.215.215,0,0,1-.208-.121,1.012,1.012,0,0,1-.065-.67,5.4,5.4,0,0,1,1.186-3.039,10.674,10.674,0,0,0,1.825-2.346,2.047,2.047,0,0,0,.241-1.1,1.026,1.026,0,0,0-.64-.872,1.5,1.5,0,0,0-.946.1,5.278,5.278,0,0,0-1.684.893" transform="translate(-23.271 -19.011)" fill="#a63513"/>
            <path id="Trazado_1006758" data-name="Trazado 1006758" d="M115.136,89.686c3.381.226,7.053.208,9.785-1.8.742-.545,3.5-.874,4.676-2.56,1.488-2.125,3.251-5.5,4.5-7.78a11.172,11.172,0,0,0,.98-3.493c.216-1.306,1.031-2.661,1.376-3.943a8.32,8.32,0,0,1,2.019-4.087c-.194.954-.464,3.059-.085,3.935.121.28,1.25-.1,1.347.186a1.972,1.972,0,0,1,.072.732,14.128,14.128,0,0,1-.874,2.819,6.022,6.022,0,0,0-.649.5c-1.119,1.048-1.932,3.054-4.344,6.031s-3.58,5.775-9.876,9.11c-8.7,4.6-3.736,3.8-7.823,2.713h-.006a1.565,1.565,0,0,1-.571-.288,2.441,2.441,0,0,1-.525-2.074" transform="translate(-32.932 -18.896)" fill="#942f11"/>
            <path id="Trazado_1006759" data-name="Trazado 1006759" d="M85.252,80.326a.959.959,0,0,0,.543.537,2.754,2.754,0,0,0,.435-.243,4.125,4.125,0,0,0,1.34-1.176,28.482,28.482,0,0,1,2.555-2.916c.4-.365,1.261-1.018,2.086-1.615.6.849,1.2,1.7,1.546,2.328.756,1.362,1.981,2.516,1.989,3.033-.166,1.508-.62,4.977,0,6.452.652,1.563,5.691,5.158,10.147,6.621-.271-1.4-.652-2.772-1.029-4.147-.093-.333.9-.817.752-1.126a7.084,7.084,0,0,1-.8-3.531,8.835,8.835,0,0,1-2.167.952,1.817,1.817,0,0,1-1.475.036,1.66,1.66,0,0,1-.528-.421,2.242,2.242,0,0,1-.488-1.873,4.49,4.49,0,0,1,1.653-2.269c.091-.082.191-.186.172-.307s-.151-.191-.266-.239a7.073,7.073,0,0,1-1.569-.853,3.152,3.152,0,0,1-.918-1.071c-.214-.428-.51-.8-.74-1.225-.5-.924-.817-1.935-1.322-2.857-.407-.742-2.381-2.474-3.333-2.163a5.571,5.571,0,0,0-2.155,1.919,7.659,7.659,0,0,1-.679.745,8.365,8.365,0,0,0-.819.7,7.833,7.833,0,0,0-.7,1.226,6.823,6.823,0,0,1-.6.813,5.263,5.263,0,0,1-1.394,1.327,4.177,4.177,0,0,1-1.958.438c.1.227-.237.409-.3.65a.416.416,0,0,0,.02.249" transform="translate(-24.389 -20.668)" fill="#942f11"/>
            <path id="Trazado_1006760" data-name="Trazado 1006760" d="M112.049,86.942c0,.162.008.33.012.5.034,1.19-.1,6.317.089,7.51a60.789,60.789,0,0,0,1.934,9.239c.72,1.954.593,9.883.611,10.559a6.843,6.843,0,0,1-.972,2.724c-.1.168.071.541-.007.72a11.471,11.471,0,0,0-.917,2.244c-.041,1.653,4.049.82,4.066-.031,0-.084,0-.173,0-.264-.014-.84-.163-1.941-.163-1.941s.014-.089.037-.236v0a6.972,6.972,0,0,1,.429-1.805c.419-1.061-.166-1.854-.161-4.027,0-.081.276-3.358.278-3.46.028-.991,1.034-2.936,1.212-5.045.108-1.272,1.182-7.142,1.419-8.652a40.044,40.044,0,0,1,1.218-5.225s-.181-1.655-.582-3.558c-.5-2.369-1.336-5.119-2.59-5.533a5.824,5.824,0,0,0-5.344.819,6.037,6.037,0,0,0-1.157,1.046,25.707,25.707,0,0,1,.587,4.421" transform="translate(-31.899 -22.992)" fill="#ad4929"/>
            <path id="Trazado_1006761" data-name="Trazado 1006761" d="M117.094,121.389c.471.021.932.038,1.382.053-.014-.84-.164-1.941-.164-1.941s.014-.089.037-.236l0,0a6.913,6.913,0,0,1,.429-1.805c.418-1.061-.167-1.854-.161-4.027,0-.081.276-3.359.278-3.461.028-.991,1.034-2.936,1.212-5.045.108-1.272,1.181-7.142,1.419-8.652.883-.4,1.911-.9,3.111-1.538a23.7,23.7,0,0,0,5.937-4.214c-1.986,1.458-6.781,2.675-6.961.369a19.378,19.378,0,0,0-2.012-6,8.783,8.783,0,0,1,.561,2.6c.044.452.077.966.091,1.555a25.771,25.771,0,0,1-1.972,9.017,6.081,6.081,0,0,0-.7,2.421,26.655,26.655,0,0,1-1.427,8c-.946,3-.263,6.539-.4,7.183s.247.879.078,1.879a19.267,19.267,0,0,0-.74,3.847" transform="translate(-33.511 -24.294)" fill="#942f11"/>
            <path id="Trazado_1006762" data-name="Trazado 1006762" d="M105.409,61.273a9.91,9.91,0,0,1-2.8-.848c.133.051.3.269.445.348.164.09,1.475.857,1.645.939a7.328,7.328,0,0,0,3.947.672l-.686.353c.052.147.243.176.4.182l1.7.056q-.076.066-.156.128a4.81,4.81,0,0,1-4.34.657,3.354,3.354,0,0,0,1.294.739,3.438,3.438,0,0,1-1.332-.141A14.187,14.187,0,0,1,103.662,64c-.443-.158-2.036-1.1-2.47-1.3a9.4,9.4,0,0,1-2.815-1.972A17.213,17.213,0,0,0,99.86,62.5a7.533,7.533,0,0,1-2.911-2.478,4.593,4.593,0,0,0-.5-.655,5.881,5.881,0,0,0-3.783-1.289,3.13,3.13,0,0,0-.81.1c-.235.052-.462-.01-.682.132a1.464,1.464,0,0,0-.41.452,5.239,5.239,0,0,0-.49.957c-.031-.331-.077-.662-.137-.989.006.031-.166.187-.192.216-.072.083-.143.166-.213.251a4.7,4.7,0,0,0-.378.533,3.036,3.036,0,0,0-.26.58,3.612,3.612,0,0,0-.11.67,3,3,0,0,1-.36-1.189c-.187.4-.5.726-.717,1.107a5.6,5.6,0,0,0-.518,1.479.7.7,0,0,0-.046-.2c-.018-.08-.034-.16-.048-.24-.029-.16-.053-.321-.071-.483a3.307,3.307,0,0,1-.034-.892,8.451,8.451,0,0,0-.727,1.046,5.4,5.4,0,0,1,.46-1.926,4.223,4.223,0,0,1,.41-.829,2.454,2.454,0,0,1,.538-.569,1.13,1.13,0,0,0-.356.034,2.909,2.909,0,0,0-.62.315.151.151,0,0,0-.061.065.056.056,0,0,0,0,.031c-.009-.046.08-.173.1-.215.039-.077.079-.153.121-.228.083-.147.18-.278.272-.419a10.3,10.3,0,0,1,.71-1.07,4.232,4.232,0,0,1,2.6-1.432,13.071,13.071,0,0,1,3.281-.106l-1.7.5a16.073,16.073,0,0,1,5.321.667l-1.688-.128a24.541,24.541,0,0,0,3.765,1.417,7.34,7.34,0,0,1,1.817.673,2.768,2.768,0,0,1-1.106-.088,4.26,4.26,0,0,1,.652.39,5.756,5.756,0,0,1,.676.367,15.083,15.083,0,0,0,3.755,2.224" transform="translate(-24.746 -15.797)" fill="#28304a"/>
            <path id="Trazado_1006763" data-name="Trazado 1006763" d="M90.786,69s-.615-.6-1.071-.358c-.911.481-.812,1.149-.812,1.149a2.008,2.008,0,0,0,.94-.06A2.523,2.523,0,0,0,90.786,69" transform="translate(-25.442 -19.629)" fill="#22222c"/>
            <path id="Trazado_1006764" data-name="Trazado 1006764" d="M86.706,79.508s-1.4,2.694-1.488,2.949a.319.319,0,0,0,.084.379l.724-1.425.68-1.752Z" transform="translate(-24.381 -22.754)" fill="#050507"/>
            <path id="Trazado_1006765" data-name="Trazado 1006765" d="M89.253,59.8c.086-1.169,1.281-1.888,2.333-2.406a2.943,2.943,0,0,0-1.4.4c1.55-1.218,3.768-.879,5.7-.48a1.411,1.411,0,0,0-1.258-.682,7.962,7.962,0,0,1,1.614-.419,9.93,9.93,0,0,1,2.091.494l-1.688-.128A24.467,24.467,0,0,0,100.411,58a7.34,7.34,0,0,1,1.817.673,2.782,2.782,0,0,1-1.106-.087,4.2,4.2,0,0,1,.652.389,5.757,5.757,0,0,1,.676.367,15.083,15.083,0,0,0,3.755,2.224,9.909,9.909,0,0,1-2.8-.848c.133.051.3.269.445.348.164.09,1.475.857,1.645.939a7.328,7.328,0,0,0,3.947.672l-.686.353c.052.147.243.176.4.182l1.7.057c-.051.044-.1.086-.156.128a4.81,4.81,0,0,1-4.34.657,3.354,3.354,0,0,0,1.294.739,3.438,3.438,0,0,1-1.332-.141,14.329,14.329,0,0,1-1.856-.352c-.443-.158-2.036-1.1-2.47-1.3a9.417,9.417,0,0,1-2.816-1.972,17.135,17.135,0,0,0,1.484,1.761,7.533,7.533,0,0,1-2.911-2.478,4.594,4.594,0,0,0-.5-.655,5.881,5.881,0,0,0-3.783-1.289,3.13,3.13,0,0,0-.81.1c-.235.052-.462-.01-.681.132a1.446,1.446,0,0,0-.41.452,5.181,5.181,0,0,0-.49.958c-.031-.332-.077-.662-.137-.99.006.031-.166.187-.192.216-.072.083-.143.166-.213.252a4.625,4.625,0,0,0-.378.532,3.036,3.036,0,0,0-.26.58,3.612,3.612,0,0,0-.11.67,3,3,0,0,1-.36-1.189,2.572,2.572,0,0,1-.138.249,2.036,2.036,0,0,1-.034-.518" transform="translate(-25.542 -16.088)" fill="#1c2134"/>
            <path id="Trazado_1006766" data-name="Trazado 1006766" d="M94.006,61.138s-1.25-2.62-.835-3.2c.268-.373,1.719.884,1.972,1.233S96.87,60.69,96.95,61.36c.055.462-.912.874-1.292.921-.422.051-.471-.533-.743-.76-.348-.291-.866-.261-.909-.383" transform="translate(-26.64 -16.562)" fill="#82260a"/>
            <path id="Trazado_1006767" data-name="Trazado 1006767" d="M155.456,81.93c0,1.2-.884,7.155-.884,7.6s.273,3.542.227,4.3a3.965,3.965,0,0,1-.59,1.591,10.129,10.129,0,0,0-.249,1.838,3.8,3.8,0,0,1-.736,1.663,13.832,13.832,0,0,0-.673,1.6s-2.38-.37-2.38-.812a16.348,16.348,0,0,1,.853-2.913c.174-.468.3-.816.331-.889a5.9,5.9,0,0,0,.136-1.669,13.851,13.851,0,0,1,.363-2.318,17.9,17.9,0,0,0,.067-3.947,14.479,14.479,0,0,1-.794-3.241,10.862,10.862,0,0,0-1.248-3.448,31.5,31.5,0,0,1-1.885-2.846,16.606,16.606,0,0,1-1.43-2.927c-.123-.639-.116-6.171,1.2-8.806s5.165-4.448,6.414-3.763a2.432,2.432,0,0,1,1.293,1.911,27.455,27.455,0,0,1-.393,8.282,28.036,28.036,0,0,0-.626,5.3c.312,1.8,1,2.705,1,3.5" transform="translate(-41.93 -17.969)" fill="#ad4929"/>
            <path id="Trazado_1006768" data-name="Trazado 1006768" d="M147.305,69.576a1.359,1.359,0,0,1,.037.148,6.985,6.985,0,0,1-.123,1.236c-.014.65.032,1.307.048,1.957a36.511,36.511,0,0,0,.59,4.409c.375,1.974,2.106,3.952,3.218,5.626a11.213,11.213,0,0,1,1.915,3.266c.154.61-.794.163-.755.769a4.554,4.554,0,0,0,.589,1.769,4.087,4.087,0,0,1,.522,2.209,10.574,10.574,0,0,1-.028,1.873c-.129.8-.413,1.553-.562,2.338a10.947,10.947,0,0,0-.069,2.368c.012.407-.535,3.443.692,2.622q.147.534.321,1.061a5.066,5.066,0,0,1-1.24,1.23s-2.381-.37-2.381-.812a16.413,16.413,0,0,1,.853-2.913c.175-.468.3-.816.331-.889a5.949,5.949,0,0,0,.137-1.669,13.759,13.759,0,0,1,.363-2.318,17.857,17.857,0,0,0,.068-3.947,14.439,14.439,0,0,1-.794-3.241,10.862,10.862,0,0,0-1.248-3.448,31.617,31.617,0,0,1-1.886-2.847,18.509,18.509,0,0,1-1.429-2.927c-.651-2.854-.059-5.051.831-7.87" transform="translate(-41.84 -19.912)" fill="#a63513"/>
            <path id="Trazado_1006769" data-name="Trazado 1006769" d="M155.447,112.693c.166.4-.158.977-1.431,1.452-1.413.527-2.38-.37-2.38-.812a16.351,16.351,0,0,1,.853-2.914s.3.929,1.741.868a1.729,1.729,0,0,0,1.195-.4,11.277,11.277,0,0,0,.022,1.809" transform="translate(-43.396 -31.6)" fill="#222021"/>
            <path id="Trazado_1006770" data-name="Trazado 1006770" d="M84.7,79.491c.823-.252.975.66,1.241,1.6s.071,1.014-.338,1.444a2.111,2.111,0,0,1-1.992.608c-1.144-.084-2.28-1.685-2.28-1.685Z" transform="translate(-23.275 -22.737)" fill="#7d341e"/>
            <path id="Trazado_1006771" data-name="Trazado 1006771" d="M82.914,82.443a4.907,4.907,0,0,1-2.827-1.577c-.388-.4-.508-.711-.373-2.02a4.755,4.755,0,0,1,1.031-2.3c-.176.557-.077.767.267,1a3.432,3.432,0,0,0,3.066.488c.73-.118,1.216-.2,1.548.549s-.777,1.333-.971,1.941-.653,1.8-1.741,1.924" transform="translate(-22.798 -21.907)" fill="#7d341e"/>
            <path id="Trazado_1006772" data-name="Trazado 1006772" d="M83.342,80.958a.281.281,0,0,0-.434.3c.032.124.07.277.113.462s-.284.508-.291.647c-.02.377.147.428.4.44.4.02,1.141-.618,1.049-.859a2.944,2.944,0,0,0-.835-.99" transform="translate(-23.676 -23.155)" fill="#1e1d1b"/>
            <path id="Trazado_1006773" data-name="Trazado 1006773" d="M113.336,135.518c-.041,1.653,4.049.82,4.067-.03a18.5,18.5,0,0,0-.166-2.2s.014-.089.037-.237c-.424.851-2.607.712-3.021.228a11.428,11.428,0,0,0-.917,2.244" transform="translate(-32.435 -38.076)" fill="#222021"/>
            <path id="Trazado_1006774" data-name="Trazado 1006774" d="M99.964,124.611a.845.845,0,0,1,0-.134c-.037.007-.034.046,0,.134" transform="translate(-28.601 -35.624)" fill="#222021"/>
            <path id="Trazado_1006775" data-name="Trazado 1006775" d="M136.435,92.276a2.365,2.365,0,0,0,.318-.345,1.344,1.344,0,0,0-.318.345" transform="translate(-39.046 -26.309)" fill="#9a4025"/>
            <path id="Trazado_1006776" data-name="Trazado 1006776" d="M123.244,84.559l.1.191a1.668,1.668,0,0,0-.1-.191" transform="translate(-35.271 -24.2)" fill="#9a4025"/>
          </g>
        </g>
      </g>
    </g>
  </g>
</svg>
