<svg xmlns="http://www.w3.org/2000/svg" xmlns:xlink="http://www.w3.org/1999/xlink" width="124" height="124" viewBox="0 0 124 124">
  <defs>
    <clipPath id="clip-path">
      <rect id="Rectángulo_459153" data-name="Rectángulo 459153" width="68.933" height="68.926" fill="#004e3d"/>
    </clipPath>
  </defs>
  <g id="Grupo_1189843" data-name="Grupo 1189843" transform="translate(-1234.5 -458)">
    <g id="Elipse_12108" data-name="Elipse 12108" transform="translate(1241.5 465)" fill="#f3bc5b" stroke="rgba(255,255,255,0.4)" stroke-width="7">
      <circle cx="55" cy="55" r="55" stroke="none"/>
      <circle cx="55" cy="55" r="58.5" fill="none"/>
    </g>
    <g id="Grupo_1190471" data-name="Grupo 1190471" transform="translate(1262.034 482.504)">
      <g id="Grupo_1190468" data-name="Grupo 1190468" clip-path="url(#clip-path)">
        <path id="Trazado_1006013" data-name="Trazado 1006013" d="M19.991,279.872V275.65c0-2.164,2.873-4.495,4.929-4.72,2.844-.311,6.272,2.106,6.272,5.065v3.877h6.548v-3.877c0-2.959,3.428-5.376,6.272-5.065,2.056.225,4.929,2.556,4.929,4.72v4.222H55.4a1.729,1.729,0,0,0,.258-.258v-4.481a9.821,9.821,0,0,1,1.064-2.038,5.56,5.56,0,0,1,9.342.766,10.6,10.6,0,0,1,.623,1.617V290.9h2.241v2.241H0V290.9H2.241V275.478a10.6,10.6,0,0,1,.623-1.617,5.56,5.56,0,0,1,9.342-.766,9.821,9.821,0,0,1,1.064,2.038v4.481a1.729,1.729,0,0,0,.258.258ZM4.481,290.9h6.462a1.729,1.729,0,0,0,.258-.259V276.512c0-.058-.212-.989-.255-1.124a3.318,3.318,0,0,0-4.767-1.83c-.535.308-1.7,1.486-1.7,2.092Zm24.471,0V276.167a11.312,11.312,0,0,0-.447-1.276,3.338,3.338,0,0,0-5.729-.247,9.7,9.7,0,0,0-.545,1.179V290.9Zm17.75,0V275.822a9.7,9.7,0,0,0-.545-1.179,3.338,3.338,0,0,0-5.729.247,11.312,11.312,0,0,0-.447,1.276V290.9Zm17.75,0V275.65c0-.606-1.164-1.784-1.7-2.092a3.318,3.318,0,0,0-4.767,1.83c-.043.135-.255,1.066-.255,1.124v14.131a1.728,1.728,0,0,0,.258.259ZM19.991,284.18c-.077-.477.179-1.927-.161-2.165-.476-.333-5.309.077-6.277-.051-.535.175-.189,1.728-.283,2.216Zm17.75-2.24H31.192v2.24h6.548Zm17.922,2.24c-.094-.488.252-2.041-.283-2.216-.968.128-5.8-.282-6.277.051-.341.238-.085,1.688-.161,2.165Zm-35.672,2.24H13.529a1.73,1.73,0,0,0-.258.258V290.9h6.721Zm17.75,0H31.192V290.9h6.548ZM55.663,290.9v-4.222a1.73,1.73,0,0,0-.258-.258H48.942V290.9Z" transform="translate(0 -224.216)" fill="#004e3d"/>
        <path id="Trazado_1006014" data-name="Trazado 1006014" d="M147.287,4.82A9.044,9.044,0,0,1,157.2,4.8c.314-.021,1.594-3.834,2-4.352,1.255-1.594,3.3,1.484,3.729,2.6a7.611,7.611,0,0,1,.213,4.7c1.2-.191,4.174-1.32,5.221-1,1.117.341.488,2.78.2,3.581a8.111,8.111,0,0,1-5,4.649c-.34,14.027-22.176,14.044-22.388,0a7.546,7.546,0,0,1-5.387-5.813c-.82-4.446,3.434-1.438,5.811-1.592a6.343,6.343,0,0,1,.618-5.5c2.995-4.786,3.9-.045,5.071,2.742M144.352,3.27c-.26-.252-.3.082-.385.22a4.621,4.621,0,0,0,.045,4.26,8.2,8.2,0,0,0,1.491-1.46,24.52,24.52,0,0,0-1.15-3.02m16.115,0a15.041,15.041,0,0,0-1.26,2.874c0,.366,1.092,1.15,1.26,1.6a3.731,3.731,0,0,0,0-4.474m.084,15.333c2.687-6.116-3.815-15-10.628-12.612-4.239,1.488-8.258,8.385-5.654,12.609a9.974,9.974,0,0,1,14.908-1.463c.507.466.795,1.089,1.374,1.467M142.46,10.164,138.152,9.3a5.109,5.109,0,0,0,3.363,3.44ZM166.585,9.3l-4.481.861,1.027,2.51A5.278,5.278,0,0,0,166.585,9.3M151.21,16.759a8.047,8.047,0,0,0-4.619,2.447c-1.21,1.408-1.071,1.671.465,2.644,3.525,2.234,9.135,1.981,11.928-1.286a7.646,7.646,0,0,0-7.775-3.8" transform="translate(-112.301 0)" fill="#004e3d"/>
        <path id="Trazado_1006015" data-name="Trazado 1006015" d="M1.123,109.7c2.944-.409,5.233,1.247,7.305,3.082a15.75,15.75,0,0,1,6.695-.844c.694.073,2.639.842,2.922.8.265-.042,1.978-1.591,2.541-1.925a6.914,6.914,0,0,1,4.382-1.134c.627.118,1.122,1.928,1.245,2.546a8.005,8.005,0,0,1-.75,5.359c-.253.488-1.13,1.482-1.2,1.738a17.253,17.253,0,0,0,.28,2.326,11.952,11.952,0,0,1-1.011,4.692c-.255.614-1.079,1.794-1.2,2.251a17.006,17.006,0,0,0-.057,1.839,5.715,5.715,0,0,1-3.05,4.187c-1.7.813-7.545.75-9.607.573a5.577,5.577,0,0,1-5.059-4.763c-.087-.549.053-1.114-.057-1.666a12.745,12.745,0,0,0-1.027-1.9A13.985,13.985,0,0,1,2.3,122.693c-.056-.778.276-2.646.148-3.071-.07-.23-.968-1.16-1.209-1.555a8.491,8.491,0,0,1-.115-8.368m1.634,2.228c-.948,1.589-.418,3.94.669,5.328a14.279,14.279,0,0,1,3.013-3.185c-.452-.631-3.049-2.341-3.682-2.144m21.083-.007c-.415-.292-3.279,1.4-3.608,1.978.659.61,1.373,1.138,1.98,1.807.506.559.789,1.735,1.326.813a5.924,5.924,0,0,0,.3-4.6m-2.58,14.3c1.021-2.637,1.6-5.052.205-7.7-2.863-5.443-11.607-5.873-15.339-1.146-2.172,2.752-1.874,5.788-.544,8.845a6.051,6.051,0,0,1,5.73-2.027c.643.108,1.76.927,2.109.928.292,0,.849-.492,1.2-.629a5.948,5.948,0,0,1,6.637,1.727m-8.094,2.067a3.4,3.4,0,0,0-4.257-1.754,3.321,3.321,0,0,0,.887,6.415,49.4,49.4,0,0,0,7.722-.047c3.056-.557,3.56-5.359.3-6.42-1.968-.64-3.162.423-4.4,1.8Z" transform="translate(-0.065 -90.725)" fill="#004e3d"/>
        <path id="Trazado_1006016" data-name="Trazado 1006016" d="M283.077,124.727c-.1-.313-4.533-2.56-5.165-3.106-1.715-1.484,2.036-3.439,3.23-3.826.441-.143,2.168-.341,2.256-.414.05-.042.238-.919.4-1.238a11.388,11.388,0,0,1,1.68-2.295c-1.341-1.6-2.279-3.2-.846-5.142,1.112-1.5,2.77-2.333,4.592-1.5.354.162.729.592,1.046.678,1.168.317,1.668-.625,2.661-.874,3.8-.956,6.686,4.309,3.074,6.695-.1.325.187.2.335.38.86,1.048,2.245,3.047,2.245,4.439V132.74l-4.395-2.869-3.446,2.119-3.275-2.123-4.394,2.873Zm4.259-15.563a2.268,2.268,0,0,0-1.175,1.6,3.421,3.421,0,0,0,1.349,1.612c.372.1,2.575-.654,3.389-.646.857.008,2.628.724,3.116.674a1.816,1.816,0,0,0,1.125-2.5c-1.217-1.794-2.416.138-3.868.268a5.44,5.44,0,0,1-1.349-.047c-.883-.18-1.566-1.27-2.587-.962m9.01,19.44V118.523a11.215,11.215,0,0,0-.79-1.8,5.531,5.531,0,0,0-9.416-.139,8.109,8.109,0,0,0-.823,1.762v10.081c.716-.094,1.607-1.29,2.288-1.18.652.106,2.73,2.027,3.136,2.04.832-.141,2.812-2.079,3.452-2.06.378.011,2.078,1.476,2.153,1.372m-13.27-6.722c.316-2.76-.452-2.529-2.408-1.291.293.279,2.226,1.479,2.408,1.291" transform="translate(-229.654 -88.457)" fill="#004e3d"/>
        <path id="Trazado_1006017" data-name="Trazado 1006017" d="M245.948,296.971a1.116,1.116,0,1,1,.438,2.183c-1.162.183-1.848-1.893-.438-2.183" transform="translate(-202.911 -245.765)" fill="#004e3d"/>
        <path id="Trazado_1006018" data-name="Trazado 1006018" d="M142.8,296.943c2.248-.463,1.433,3.092-.29,1.942a1.05,1.05,0,0,1,.29-1.942" transform="translate(-117.511 -245.737)" fill="#004e3d"/>
        <path id="Trazado_1006019" data-name="Trazado 1006019" d="M348.28,296.98a1.15,1.15,0,0,1,1.868.729c.147,2.395-3.475.789-1.868-.729" transform="translate(-287.921 -245.586)" fill="#004e3d"/>
        <path id="Trazado_1006020" data-name="Trazado 1006020" d="M40.757,296.98c1.607,1.518-2.015,3.124-1.868.729a1.15,1.15,0,0,1,1.868-.729" transform="translate(-32.184 -245.586)" fill="#004e3d"/>
        <path id="Trazado_1006021" data-name="Trazado 1006021" d="M245.955,57.876a1.132,1.132,0,0,1,.611,2.18,1.132,1.132,0,0,1-.611-2.18" transform="translate(-202.92 -47.857)" fill="#004e3d"/>
        <path id="Trazado_1006022" data-name="Trazado 1006022" d="M207.32,58.016a1.116,1.116,0,1,1,.291,2.212,1.116,1.116,0,0,1-.291-2.212" transform="translate(-170.83 -48)" fill="#004e3d"/>
        <path id="Trazado_1006023" data-name="Trazado 1006023" d="M213.55,109.764c2.334-.688,1.776,2.94-.01,2.008a1.1,1.1,0,0,1,.01-2.008" transform="translate(-176.204 -90.776)" fill="#004e3d"/>
        <path id="Trazado_1006024" data-name="Trazado 1006024" d="M238.882,111.506c-.937-.993.621-2.614,1.675-1.591s-.627,2.7-1.675,1.591" transform="translate(-197.477 -90.704)" fill="#004e3d"/>
        <path id="Trazado_1006025" data-name="Trazado 1006025" d="M91.3,161.075c1.9-.273,1.557,3.048-.429,2.083-.872-.423-.494-1.95.429-2.083" transform="translate(-74.8 -133.304)" fill="#004e3d"/>
        <path id="Trazado_1006026" data-name="Trazado 1006026" d="M52.764,161.255a1.106,1.106,0,0,1,.145,2.207,1.106,1.106,0,0,1-.145-2.207" transform="translate(-42.828 -133.465)" fill="#004e3d"/>
        <path id="Trazado_1006027" data-name="Trazado 1006027" d="M91.457,219.262a1.117,1.117,0,0,1,.309,2.19,1.117,1.117,0,1,1-.309-2.19" transform="translate(-74.801 -181.476)" fill="#004e3d"/>
        <path id="Trazado_1006028" data-name="Trazado 1006028" d="M52.764,219.255a1.106,1.106,0,0,1,.145,2.207,1.106,1.106,0,0,1-.145-2.207" transform="translate(-42.828 -181.47)" fill="#004e3d"/>
        <path id="Trazado_1006029" data-name="Trazado 1006029" d="M336.313,167.869c1.718-.51,2.044,2.242.334,2.154a1.116,1.116,0,0,1-.334-2.154" transform="translate(-277.77 -138.888)" fill="#004e3d"/>
      </g>
    </g>
  </g>
</svg>
