<svg xmlns="http://www.w3.org/2000/svg" xmlns:xlink="http://www.w3.org/1999/xlink" width="124" height="124" viewBox="0 0 124 124">
  <defs>
    <clipPath id="clip-path">
      <rect id="Rectángulo_459152" data-name="Rectángulo 459152" width="67.379" height="67.418" fill="#004e3d"/>
    </clipPath>
  </defs>
  <g id="Grupo_1190470" data-name="Grupo 1190470" transform="translate(-738 -1964)">
    <g id="Grupo_1189842" data-name="Grupo 1189842" transform="translate(-496.5 1506)">
      <g id="Elipse_12108" data-name="Elipse 12108" transform="translate(1241.5 465)" fill="#f3bc5b" stroke="rgba(255,255,255,0.4)" stroke-width="7">
        <circle cx="55" cy="55" r="55" stroke="none"/>
        <circle cx="55" cy="55" r="58.5" fill="none"/>
      </g>
    </g>
    <g id="Grupo_1190467" data-name="Grupo 1190467" transform="translate(766.31 1992.291)">
      <g id="Grupo_1190466" data-name="Grupo 1190466" clip-path="url(#clip-path)">
        <path id="Trazado_1005999" data-name="Trazado 1005999" d="M65.121,0V47.783c0,.079.961.137,1.451.547a3.539,3.539,0,0,1,.808,1.277v17.81H2.22V49.26c0-.334,1.345-1.477,1.651-1.477H6.564V43.961A11.332,11.332,0,0,1,.746,29.716c.4-1.069,1.457-2.277,1.737-3.128.674-2.046-.178-5.442,2.047-6.641,1.574-.848,2.86-.041,4.119.9V8.688H3.35A10.42,10.42,0,0,1,2.275,8.2,4.35,4.35,0,0,1,1.988.723,14.189,14.189,0,0,1,3.7,0ZM63.035,2.259H3.7a3.073,3.073,0,0,0-1.1.808A2.241,2.241,0,0,0,3.2,6.229a8,8,0,0,0,.843.374H63.035ZM12.993,8.688H10.908V21.893l2.085-.174Zm15.291,0H15.252V21.807c0,.1.263.26.426.263.649.012,2.653-2.176,3.7-2.395,1.132-.237,1.727.3,2.4.292a10.9,10.9,0,0,1,1.384-.344c2.06-.065,3.883,2.523,4.691,2.458.153-.012.438-.17.438-.274Zm4.344,0H30.369V21.72l2.259.174Zm15.117,0H34.713V20.851c.788-.255,1.32-1.067,2.182-1.2,1.034-.165,1.652.332,2.252.32.292-.006.552-.282.874-.323a3.314,3.314,0,0,1,2.08.334c.684.332,2.437,1.974,2.812,2.06.578.133,2.1-.524,2.832-.319Zm4.344,0H50V21.807c0,.858,2.085-.691,2.085-.869Zm10.947,0H54.348V19.635c0,.056.87-.028,1.115.015,3.237.566,2.115,4.867,2.886,7.017.378,1.055,1.828,2.384,1.907,3.741h2.78Zm-55.6,13.9c-.041-.06-1.157-.761-1.225-.787C5.1,21.377,5.049,23.648,5,24.326c.517-.574,1.788-.883,2.25-1.31.12-.111.294-.258.179-.424M20.29,23.63c-.172-.65.491-1.436-.09-1.911a4.064,4.064,0,0,0-1.647,1.215Zm4.518-1.039c-.041-.06-1.157-.761-1.225-.787-1.1-.428-1.158,1.844-1.205,2.521.517-.574,1.788-.883,2.25-1.31.12-.111.294-.258.179-.424M37.666,23.63c-.172-.65.491-1.436-.09-1.911a4.064,4.064,0,0,0-1.647,1.215Zm4.518-1.039c-.041-.06-1.157-.761-1.225-.787-1.1-.428-1.158,1.844-1.205,2.521.517-.574,1.788-.883,2.25-1.31.12-.111.294-.258.179-.424m13.553,1.56c.124-2.419-.628-3.151-2.431-1.3ZM19.921,26.089a19.687,19.687,0,0,0-1.945-1.1C10.3,21.6.255,27.152,2.519,36.1c1.418,5.605,7.945,8.241,13.259,7.08.839-.183,3.837-1.349,4.259-2,.173-.265.023-.263-.091-.441-.41-.646-1.124-1.164-1.222-2l-2.1,1.458c-4.051,2.807-14.447.159-11.934-6.026,1.7-4.19,9.59-4.769,12.82-2.035a12.09,12.09,0,0,1,1.532-4.291c.2-.375,1.138-1.328.88-1.765m17.376,0a19.687,19.687,0,0,0-1.945-1.1C27.671,21.6,17.63,27.152,19.894,36.1c1.418,5.605,7.945,8.241,13.259,7.08.839-.183,3.837-1.349,4.259-2,.173-.265.023-.263-.091-.441-.41-.646-1.124-1.164-1.222-2L34,40.206c-4.051,2.807-14.447.159-11.934-6.026,1.7-4.19,9.59-4.769,12.82-2.035a12.09,12.09,0,0,1,1.532-4.291c.2-.375,1.138-1.328.88-1.765m8.845-2.062c-7.44.841-12.193,9.3-7.08,15.5,5.381,6.523,17.484,4.659,19.375-3.9,1.622-7.344-5.535-12.364-12.295-11.6M10.7,32.715c-4.67.57-5.919,4.882-.866,6.156,2.1.529,7.19.1,7.5-2.662.337-3.038-4.4-3.766-6.63-3.494m17.376,0c-4.67.57-5.919,4.882-.866,6.156,2.1.529,7.19.1,7.5-2.662.337-3.038-4.4-3.766-6.63-3.494m34.964-.048H60.777V35.36a14.193,14.193,0,0,1-1.6,4.137,13.46,13.46,0,0,1-11.435,6.2v6.429h8.688c.12-.46-.027-2.085-.608-2.085H50V47.783h5.821a6.6,6.6,0,0,1,1.362.55,3.913,3.913,0,0,1,1.5,3.8h2.086V49.608a3.539,3.539,0,0,1,.808-1.277c.49-.41,1.451-.469,1.451-.547ZM26.025,47.783V45.09c0-.247-3.913-1.693-4.255-2.487A14.163,14.163,0,0,1,8.649,45v7.124h8.688c.12-.46-.027-2.085-.608-2.085H10.908V47.783h5.821a6.6,6.6,0,0,1,1.362.55,3.913,3.913,0,0,1,1.5,3.8h2.086V49.608a2.9,2.9,0,0,1,1.824-1.824Zm19.635,0c-.085-.5.192-2.1-.167-2.353a14.4,14.4,0,0,0-1.608-.3,13.692,13.692,0,0,1-4.74-2.523,14.123,14.123,0,0,1-10.862,2.921v6.6h8.688c.124-.544-.044-2.085-.782-2.085H30.369V47.783h5.995a8.146,8.146,0,0,1,1.292.619c1.34.918,1.534,2.183,1.4,3.726h2.26V49.26c0-.334,1.345-1.477,1.651-1.477Zm-39.1,2.259H4.305V65.159H6.564Zm19.461,0H23.94V65.159h2.085Zm19.635,0H43.4V65.159H45.66Zm19.461,0H63.035V65.159h2.085ZM21.681,54.386H8.649V58.73H21.681Zm19.635,0H28.284V58.73H41.316Zm19.461,0H47.745V58.73H60.777Zm-39.1,6.429H8.649v4.344H21.681Zm19.635,0H28.284v4.344H41.316Zm19.461,0H47.745v4.344H60.777Z" transform="translate(0)" fill="#004e3d"/>
        <path id="Trazado_1006000" data-name="Trazado 1006000" d="M231.714,175.126c3.707-.351,9.674,1.942,8.325,6.588-1.059,3.647-6.094,4.7-9.368,4.083-8.22-1.544-7.146-9.894,1.042-10.671m-.35,2.256c-4.67.57-5.919,4.882-.866,6.155,2.1.529,7.19.1,7.5-2.661.337-3.038-4.4-3.766-6.63-3.494" transform="translate(-185.916 -144.668)" fill="#004e3d"/>
        <path id="Trazado_1006001" data-name="Trazado 1006001" d="M276.1,150.111a1.088,1.088,0,0,1,.919,1.8c-1.367,1.512-2.856-1.5-.919-1.8" transform="translate(-227.356 -124.02)" fill="#004e3d"/>
        <path id="Trazado_1006002" data-name="Trazado 1006002" d="M251.1,150.111a1.088,1.088,0,0,1,.919,1.8c-1.367,1.512-2.856-1.5-.919-1.8" transform="translate(-206.7 -124.02)" fill="#004e3d"/>
        <path id="Trazado_1006003" data-name="Trazado 1006003" d="M176.1,150.111a1.088,1.088,0,0,1,.919,1.8c-1.367,1.512-2.856-1.5-.919-1.8" transform="translate(-144.732 -124.02)" fill="#004e3d"/>
        <path id="Trazado_1006004" data-name="Trazado 1006004" d="M151.1,150.111a1.088,1.088,0,0,1,.919,1.8c-1.367,1.512-2.856-1.5-.919-1.8" transform="translate(-124.076 -124.02)" fill="#004e3d"/>
        <path id="Trazado_1006005" data-name="Trazado 1006005" d="M51.1,150.111a1.088,1.088,0,0,1,.919,1.8c-1.367,1.512-2.856-1.5-.919-1.8" transform="translate(-41.452 -124.02)" fill="#004e3d"/>
        <path id="Trazado_1006006" data-name="Trazado 1006006" d="M76.1,150.111a1.088,1.088,0,0,1,.919,1.8c-1.367,1.512-2.856-1.5-.919-1.8" transform="translate(-62.108 -124.02)" fill="#004e3d"/>
        <path id="Trazado_1006007" data-name="Trazado 1006007" d="M176.1,200.111a1.088,1.088,0,0,1,.919,1.8c-1.367,1.512-2.856-1.5-.919-1.8" transform="translate(-144.732 -165.332)" fill="#004e3d"/>
        <path id="Trazado_1006008" data-name="Trazado 1006008" d="M151.1,200.111a1.088,1.088,0,0,1,.919,1.8c-1.367,1.512-2.856-1.5-.919-1.8" transform="translate(-124.076 -165.332)" fill="#004e3d"/>
        <path id="Trazado_1006009" data-name="Trazado 1006009" d="M51.1,200.111a1.088,1.088,0,0,1,.919,1.8c-1.367,1.512-2.856-1.5-.919-1.8" transform="translate(-41.452 -165.332)" fill="#004e3d"/>
        <path id="Trazado_1006010" data-name="Trazado 1006010" d="M76.1,200.111a1.088,1.088,0,0,1,.919,1.8c-1.367,1.512-2.856-1.5-.919-1.8" transform="translate(-62.108 -165.332)" fill="#004e3d"/>
        <path id="Trazado_1006011" data-name="Trazado 1006011" d="M251.1,200.111a1.088,1.088,0,0,1,.919,1.8c-1.367,1.512-2.856-1.5-.919-1.8" transform="translate(-206.7 -165.332)" fill="#004e3d"/>
        <path id="Trazado_1006012" data-name="Trazado 1006012" d="M276.1,200.111a1.088,1.088,0,0,1,.919,1.8c-1.367,1.512-2.856-1.5-.919-1.8" transform="translate(-227.356 -165.332)" fill="#004e3d"/>
      </g>
    </g>
  </g>
</svg>
