<svg xmlns="http://www.w3.org/2000/svg" xmlns:xlink="http://www.w3.org/1999/xlink" width="150" height="150" viewBox="0 0 150 150">
  <defs>
    <clipPath id="clip-path">
      <rect id="Rect치ngulo_459066" data-name="Rect치ngulo 459066" width="117.185" height="130.397" fill="none"/>
    </clipPath>
  </defs>
  <g id="Grupo_1190870" data-name="Grupo 1190870" transform="translate(-964.711 -5893)">
    <rect id="Rect치ngulo_459313" data-name="Rect치ngulo 459313" width="150" height="150" transform="translate(964.711 5893)" fill="none"/>
    <g id="Grupo_1190324" data-name="Grupo 1190324" transform="translate(981.521 5902)">
      <g id="Grupo_1190323" data-name="Grupo 1190323" transform="translate(0 0)" clip-path="url(#clip-path)">
        <path id="Trazado_1004763" data-name="Trazado 1004763" d="M100.424,60.2c0,6.633-4.384,13.265-13.148,18.326-17.53,10.121-45.954,10.121-63.487,0-8.766-5.063-13.148-11.7-13.148-18.328s4.384-13.265,13.148-18.326c17.533-10.123,45.956-10.123,63.487,0,8.766,5.06,13.148,11.7,13.148,18.328" transform="translate(13.747 44.283)" fill="#474c3a"/>
        <path id="Trazado_1004764" data-name="Trazado 1004764" d="M36.541,43.745a33.561,33.561,0,0,1-3.413,9.044c-2.219,3.5-7,1.62-8.617,1.877a2.894,2.894,0,0,0-2.134,1.194H24.17c1.366,0,.878.252,2.828.875a21.309,21.309,0,0,0,2.707.252s-5.193,1.446-7.327,2.251-2.413,1.21-2.473,1.911.768,0,.768,0a12.287,12.287,0,0,0,3.669.314c1.364-.227,7.85-3.128,7.85-3.128a7.882,7.882,0,0,1-1.707,3.754C29.2,63.283,29.2,66.27,29.2,66.27l1.024-1.194a2.5,2.5,0,0,0,1.964-.855c.765-.937,2.047-4.1,3.156-5.459s5.631-3.158,6.568-3.328,1.623-1.279,1.451-1.536.921.374.921.374.445-1.909-1.774-1.568-2.874,1.689-4.779,2.3a9.377,9.377,0,0,1-2.473.6s5.29-6.653,6.568-11.432S42,33.934,40.807,32.994s-4.18,7.68-3.924,9.044-.341,1.707-.341,1.707" transform="translate(25.71 42.532)" fill="#ffa039"/>
        <path id="Trazado_1004765" data-name="Trazado 1004765" d="M114.117,12.544c-2.817,6.672-6.4,17.934-10.238,21.007s-2.049,8.957-3.839,11.26S96.756,72.247,87.754,81.669,81.1,98.491,65.23,92.129,40.915,82.693,35.8,79.111c-2.379-1.664-5.753-7.251-8.475-13.6C24.18,58.186,21.9,49.846,23,45.325,25.044,36.877,24.26,32.859,8.9,30.9-1.253,29.6,2.777,19.216,2.777,19.216S8.408,5.735,18.9,7.271,48.593,24.847,48.593,24.847s16.637-.511,21.5,0,14.333,1.024,17.15,0S96.456,4.371,98.76,3.092c2.248-1.249,1.572,3.342,1.538,3.575.2-.28,4.643-6.078,6.91-6.649,1.471-.369-.3,4.575-.3,4.575l-2.764,3.594c.4-.559,7.889-11.063,6.642-4.584-1.279,6.656-3.839,16.126-3.839,16.126s9.981-13.857,7.167-7.185" transform="translate(2.568 -0.001)" fill="#e5aa5c"/>
        <path id="Trazado_1004766" data-name="Trazado 1004766" d="M52.586,37.291c.16.126,5.785,4.533,4.733,5.757s-8.86-1.206-9.1-1.279l.949.548a69.528,69.528,0,0,0,5.64,7.339c2.567,2.73,3.575,5.459,1.041,5.083-1.923-.284-8.038-4.238-10.886-6.138A12.518,12.518,0,0,1,49,53.24c1.368,3.241,5.035,7.678,5.035,7.678s.768,0-3.626.967c-4.274.942-10.774-5.876-11.122-6.236.325.566,6.9,12.1,3.312,12.479-3.672.387-8.271-6.869-8.271-6.358s2.047,7.678-.853,6.142c-1.4-.743-4.146-3.642-6.6-6.436-.568-1.325-1.109-2.681-1.6-4.043C23.021,51.267,21.655,45,22.553,41.295c2.047-8.448-7.5-14.59-20.221-15.871V15.186S7.963,1.705,18.458,3.241,48.149,20.817,48.149,20.817l5.885,6.548s1.964.449,1.817,3.351c-.03.605-.167.912-.367,1.018,1.73,1.572,3.91,3.768,4.776,5.555,1.522,3.131-7.485.064-7.675,0" transform="translate(3.013 4.029)" fill="#ffc97b"/>
        <path id="Trazado_1004767" data-name="Trazado 1004767" d="M46.184,30.046c-3.392-.066-9.9-4.577-9.9-4.577S46.528,39.548,44.479,41s-10.666-9.814-10.666-9.814,5.716,18.239,1.964,18.846-7.254-15.775-7.254-15.775,1.707,16.724-1.448,18.172c-.545.252-1.16,0-1.8-.58-2.251-6.17-3.617-12.433-2.718-16.142,2.047-8.445-6.9-13.3-20.221-15.869V18.311c4.481-4.219,13.714-12.2,18.429-10.675,6.314,2.049,16.721,16.808,20.475,18.942s8.342,3.532,4.948,3.468" transform="translate(3.013 9.617)" fill="#e5aa5c"/>
        <path id="Trazado_1004768" data-name="Trazado 1004768" d="M42.323,47.083a33.561,33.561,0,0,1-3.413,9.044c-2.219,3.5-7,1.62-8.617,1.877A2.894,2.894,0,0,0,28.16,59.2h1.792c1.366,0,.878.252,2.828.875a21.31,21.31,0,0,0,2.707.252s-5.193,1.446-7.327,2.251-2.413,1.21-2.473,1.911.768,0,.768,0a12.234,12.234,0,0,0,3.669.312c1.364-.225,7.847-3.126,7.847-3.126a7.87,7.87,0,0,1-1.705,3.754c-1.279,1.194-1.279,4.18-1.279,4.18l1.022-1.194a2.5,2.5,0,0,0,1.962-.855c.77-.937,2.049-4.093,3.158-5.459s5.631-3.158,6.568-3.328,1.623-1.279,1.451-1.536.921.374.921.374.445-1.909-1.774-1.568-2.874,1.689-4.779,2.3a9.377,9.377,0,0,1-2.473.6s5.29-6.653,6.568-11.432.172-10.238-1.024-11.177-4.18,7.68-3.924,9.044-.341,1.707-.341,1.707" transform="translate(33.179 46.844)" fill="#ffa039"/>
        <path id="Trazado_1004769" data-name="Trazado 1004769" d="M4.659,25.485s2.846-1.7,2.746-4.517,7.9-9.857,10.82-10.494,1.451-3.839,1.451-3.839S23.514,1.684,18.309,1s-6.568.768-7.763,1.536S7.047,1.856,5.6,4.585A21.373,21.373,0,0,0,3.719,9.107S1.5,11.667,1.672,12.6s.426,2.3.426,2.3S.735,16.359,1.077,17.214a16.333,16.333,0,0,1,.587,1.877s-1.357.341-1.1,1.448,1.792,2.647,1.792,2.9a19.912,19.912,0,0,0,.683,2.083Z" transform="translate(0.686 1.066)" fill="#de3a39"/>
        <path id="Trazado_1004770" data-name="Trazado 1004770" d="M7.523,18.83s2.388,1.279,2.049,3.156-2.049,3.754,1.705,4.437,6.312,2.475,7.251.683-.511-4.779.341-5.12a16.825,16.825,0,0,0,2.9-2.3s-5.29.426-4.265-1.705,4.265-3.328,4.265-6.4-2.9.853-2.9.853-5.885,3.5-9.64,1.792-6.4-2.984-6.74-2.049S7.523,18.83,7.523,18.83" transform="translate(3.196 13.439)" fill="#d23634"/>
        <path id="Trazado_1004771" data-name="Trazado 1004771" d="M4.14,11.551a1,1,0,0,1,1.733-.121A3.559,3.559,0,0,0,8.16,13.038c2.219.341,3.667.768,3.839,2.047.071.536.818.743,1.659.8a1,1,0,0,1,.513,1.815,13.238,13.238,0,0,1-4.05,1.9,52.911,52.911,0,0,0-8.656,3.681A1,1,0,0,1,0,22.405c-.011-1.868.149-4.8,1.162-5.869A24.766,24.766,0,0,0,4.14,11.551" transform="translate(0.001 14.198)" fill="#614f4e"/>
        <path id="Trazado_1004772" data-name="Trazado 1004772" d="M6.259,13.437c.044-.257-.128-4.18,2.175-4.779a2.2,2.2,0,0,1,3.03,2.049c.085.937-.727,3.413-2.773,3.241s-2.432-.511-2.432-.511" transform="translate(8.086 11.026)" fill="#ff9247"/>
        <path id="Trazado_1004773" data-name="Trazado 1004773" d="M7.364,12.24c-.488-.282-.488-1.2,0-2.04S8.643,8.9,9.131,9.178s.488,1.2,0,2.042-1.279,1.3-1.767,1.02" transform="translate(9.041 11.749)" fill="#070709"/>
        <path id="Trazado_1004774" data-name="Trazado 1004774" d="M29.1,25.852s-6.486,4.1,5.118,9.213S42.24,46.5,50.432,37.8,61.863,26.194,62.2,22.439s.513,0-.341,3.754a15.027,15.027,0,0,1-4.776,8.191c-2.219,2.047-5.973,10.066-9.9,10.066s-9.9-8.189-14.336-8.7-9.381-5.29-3.752-9.9" transform="translate(34.344 26.98)" fill="#d89a50"/>
        <path id="Trazado_1004775" data-name="Trazado 1004775" d="M40.973,21.059s9.3-20.563,9.3-17.15-9.3,17.15-9.3,17.15" transform="translate(52.931 4.557)" fill="#fcd499"/>
        <path id="Trazado_1004776" data-name="Trazado 1004776" d="M41.457,23.3c1.655-1.742,8.727-19.731,11.7-19.731s-.782,7.453-3.511,11.374S41.457,23.3,41.457,23.3" transform="translate(53.556 4.616)" fill="#fcd499"/>
        <path id="Trazado_1004777" data-name="Trazado 1004777" d="M42.249,21.389S53.915,10.766,54.682,7.312s2.221-.722,1.176,3.733S42.249,21.389,42.249,21.389" transform="translate(54.58 7.427)" fill="#fcd499"/>
        <path id="Trazado_1004778" data-name="Trazado 1004778" d="M2.816,14.27s1.62-1.792,2.56-1.492.683,1.109.257,1.235-2.817.257-2.817.257" transform="translate(3.638 16.464)" fill="#696060"/>
      </g>
    </g>
  </g>
</svg>
