<svg xmlns="http://www.w3.org/2000/svg" xmlns:xlink="http://www.w3.org/1999/xlink" width="124" height="124" viewBox="0 0 124 124">
  <defs>
    <clipPath id="clip-path">
      <rect id="Rectángulo_459123" data-name="Rectángulo 459123" width="50.04" height="62.888" fill="#004e3d"/>
    </clipPath>
  </defs>
  <g id="Grupo_1189273" data-name="Grupo 1189273" transform="translate(-1234.5 -458)">
    <g id="Elipse_12108" data-name="Elipse 12108" transform="translate(1241.5 465)" fill="#f3bc5b" stroke="rgba(255,255,255,0.4)" stroke-width="7">
      <circle cx="55" cy="55" r="55" stroke="none"/>
      <circle cx="55" cy="55" r="58.5" fill="none"/>
    </g>
    <g id="Grupo_1190442" data-name="Grupo 1190442" transform="translate(1447.48 410.556)">
      <g id="Grupo_1190441" data-name="Grupo 1190441" transform="translate(-176 78)" clip-path="url(#clip-path)">
        <path id="Trazado_1005709" data-name="Trazado 1005709" d="M36.843,26.262c-.066.1-.318,1.862-.452,2.3a12.208,12.208,0,0,1-2.633,4.445c-.342.341-2.031,1.458-2.1,1.671a7.614,7.614,0,0,0,.079,2.376,6.11,6.11,0,0,0,2.345.653c.31-.02.859-.731,1.572-.762a20.109,20.109,0,0,1,3.3.606c.662.274.851,1.035,1.168,1.191a19.893,19.893,0,0,0,2.013.346,11.353,11.353,0,0,1,7.115,7.04c.882,2.725.925,10.689.622,13.687a3.139,3.139,0,0,1-3.216,3.076H3.234A3.141,3.141,0,0,1,.175,59.813C-.146,56.64-.1,48.371,1,45.54a11.643,11.643,0,0,1,6.213-6.212c.726-.267,2.372-.4,2.713-.59.265-.15.519-.92,1.169-1.19a20.169,20.169,0,0,1,3.3-.606c.713.031,1.262.743,1.572.762.107.007,1.975-.354,2.1-.407.459-.194.459-2.23.324-2.622-.073-.212-1.762-1.33-2.1-1.671a12.208,12.208,0,0,1-2.633-4.445c-.134-.436-.387-2.2-.452-2.3-.043-.064-1.106-.316-1.444-.523-1.608-.987-1.75-3.6-.924-5.119.164-.3.559-.548.63-.785a8.427,8.427,0,0,0-.037-2.259c-.592-.3-1.33-.08-2.017-.185a5.014,5.014,0,0,1-3.88-4.471c-.053-2.621,4.193-.91,5.736-1.619.786-3.566.145-6.963,3.135-9.6C17.865-1.362,21.54.7,25.581.608c3.685-.081,6.588-1.8,9.9.941a7.119,7.119,0,0,1,2.557,4.52c.174.883.459,4.826.744,5.233.383.547,4.756-.382,5.413.563,1.039,1.493-.741,4.274-2.174,5.022-1.211.633-2.163.447-3.4.689a9.052,9.052,0,0,0-.065,2.13c.079.413.865.994,1.028,1.8.357,1.768.037,3.638-1.708,4.444a9.776,9.776,0,0,0-1.029.31m-.025-14.81C36.37,8.067,36.7,3.383,32.725,2.1c-2.173-.7-5.4.41-7.78.4C22.47,2.494,19.39,1.326,17.1,2.194c-3.8,1.441-3.4,5.908-3.874,9.259h2.281c.477,0,.477,1.73,0,1.73H7.565c.028,1.648,1.621,2.4,3.069,2.514,9.294-.485,19.256.653,28.472.01,1.6-.112,3.279-.661,3.374-2.524H18.967c-.717,0-.717-1.73,0-1.73ZM14.8,17.429H13.384v2.2c0,.075,1.219.168,1.415.472Zm18.559,0H16.687v4.011a4.718,4.718,0,0,1-.477.781c-1.174,1-2.617-1.282-3.61-.79-.5.246-.4,2.1-.144,2.509.514.815,2.03-.021,2.419.884.234.545.25,2.188.471,2.989,2.507,9.07,16.7,9.159,19.317.123.245-.847.26-2.541.506-3.112.436-1.014,2.341.181,2.583-1.349.082-.519.2-2.063-.53-2.1-1.156-.06-2.278,1.791-3.387.847a4.724,4.724,0,0,1-.477-.781Zm3.3,0H35.246V20.1c.2-.3,1.415-.4,1.415-.472ZM29.74,35.674a12.446,12.446,0,0,1-9.435,0,8.307,8.307,0,0,1-.3,2.41c.668.463,4.74,4.559,5.074,4.5l4.9-4.394c.24-.384-.518-1.878-.241-2.514M14.17,48.727V38.819l-2.359.472v9.437Zm21.7-9.909v9.909h2.359c.054-.819-.381-2.937,1-2.79,1.354.144.787,3.435.888,4.439.238,2.357,2.986,3.982,2.986,6.45v4.168H47.12c.3,0,.962-.79.868-1.176-.187-3.448.236-7.128,0-10.548-.294-4.308-3.409-8.289-7.871-8.566.017.717.157,2.567-.743,2.808a.992.992,0,0,1-1.141-.687c-.124-.65.154-3.238-.024-3.514Zm-12.9,4.718c.049-.293-.2-.454-.388-.632-1.3-1.262-2.78-2.363-4.02-3.7-.279-.127-1.676.086-1.725.322a22.957,22.957,0,0,0,1.822,2.893c1.311,1.577,2.408,1.534,4.311,1.113m4.091,0c1.824.46,3.063.4,4.311-1.113A23.154,23.154,0,0,0,33.2,39.53c-.049-.236-1.446-.449-1.725-.322-1.24,1.333-2.718,2.434-4.02,3.7-.184.178-.437.339-.388.632M9.924,40.706c-4.461.3-7.575,4.236-7.87,8.565-.233,3.419.19,7.1,0,10.548-.093.386.57,1.176.868,1.176H6.936V56.827a12.7,12.7,0,0,1,.6-2.073c.472-1.076,2.388-2.9,2.388-3.9Zm24.063,1.258c-1.359,1.967-2.693,3.818-5.383,3.732-1.111-.035-2.462-.751-3.5-.755-1.844-.007-3.053,1.151-5.241.534-1.974-.556-2.641-2.048-3.8-3.511v6.763h17.93Zm7.235,19.031V56.67c0-1.062-1.746-2.855-2.26-3.873-.363-.72-.476-2.063-1.27-2.191l-25.457.047c-.672.13-.794,1.512-1.126,2.169-.516,1.024-2.287,2.713-2.287,3.847v4.325Z" transform="translate(0 -0.001)" fill="#004e3d"/>
        <path id="Trazado_1005710" data-name="Trazado 1005710" d="M91.1,331.837a.944.944,0,1,1,.264,1.862c-.889.049-1.5-1.6-.264-1.862" transform="translate(-76.182 -279.622)" fill="#004e3d"/>
        <path id="Trazado_1005711" data-name="Trazado 1005711" d="M216.565,331.665c1.787-.509,1.481,2.414-.073,1.741a.951.951,0,0,1,.073-1.741" transform="translate(-181.992 -279.451)" fill="#004e3d"/>
      </g>
    </g>
  </g>
</svg>
