<svg xmlns="http://www.w3.org/2000/svg" xmlns:xlink="http://www.w3.org/1999/xlink" width="124" height="124" viewBox="0 0 124 124">
  <defs>
    <clipPath id="clip-path">
      <rect id="Rect치ngulo_459125" data-name="Rect치ngulo 459125" width="57.809" height="57.753" fill="#004e3d"/>
    </clipPath>
  </defs>
  <g id="Grupo_1189274" data-name="Grupo 1189274" transform="translate(-1234.5 -458)">
    <g id="Elipse_12108" data-name="Elipse 12108" transform="translate(1241.5 465)" fill="#f3bc5b" stroke="rgba(255,255,255,0.4)" stroke-width="7">
      <circle cx="55" cy="55" r="55" stroke="none"/>
      <circle cx="55" cy="55" r="58.5" fill="none"/>
    </g>
    <g id="Grupo_1190444" data-name="Grupo 1190444" transform="translate(1267.595 491.123)">
      <g id="Grupo_1190443" data-name="Grupo 1190443" clip-path="url(#clip-path)">
        <path id="Trazado_1005712" data-name="Trazado 1005712" d="M37.248,13.055h2.086a14.463,14.463,0,0,1-.59,2.613c-.5,1.368-1.37,1.258-.308,2.531a7.642,7.642,0,0,0,4.25,2.306H57.809v1.788H42.09c-1.093,0-3.474-1.343-4.324-2.082-.37-.322-1.4-1.736-1.513-1.773-.4-.134-1.32.3-1.836.131l.008-1.782a2.4,2.4,0,0,0,2.525-1.943,4.165,4.165,0,0,0-2.907.593c-.217.183-.465.7-.608.736a4.86,4.86,0,0,1-1.54-.822c-.188-.785,2.666-2.665,3.567-2.3-.021-.129.038-.363-.009-.436-.08-.123-2.412-.781-2.755-1.017-.205.032-1.923,2.984-2.3,3.168s-.964.014-1.4.089a3.744,3.744,0,0,0-3.264,2.7c-.641,2.135-.092,3.479-1.962,5.338-.464.461-2.009,1.375-2.2,1.821s-.224,3.4.261,3.387l2.682-2.676,1.256,1.284c.056.327-2.812,2.745-2.671,2.883,3.121,1.089,3.593-2.11,5.526-3.338,1.865-1.185,4.945-.9,4.9-3.961h1.937a4.959,4.959,0,0,1-2.839,4.4c1.134,1.887.646,3.938,1.5,5.878,1.992-.3,1.43-2.3,2.08-3.8a4.815,4.815,0,0,1,3.953-2.751,10.112,10.112,0,0,0,1.312-.029c.309-.095.438-.578.693-.8,1.9-1.64,3.992-1.2,5.588.536.767.835.732.584,1.618,1.209,1.747,1.232,1.769,3.533,3.027,4.273a11.6,11.6,0,0,0,1.17.469h4.246v1.788H52.967a6.551,6.551,0,0,1-2.39-1.335c-.829-.848-.883-1.7-1.378-2.644-.082-.156-.505-.834-.7-.79a4.536,4.536,0,0,1-1.121,3.2,22.732,22.732,0,0,1-2.392,1.642.5.5,0,0,1-.439.014,18.593,18.593,0,0,1-2.071-1.37,4.567,4.567,0,0,1-1.5-4.234,2.827,2.827,0,0,0-2.985,1.412c-.789,1.545-.06,3.132-1.883,4.375-.392.267-2.482,1.12-2.558,1.24-.466.746,1.145,5.394,2.3,5.9,2.368-.612,5.5-.5,7.762-1.274a4.781,4.781,0,0,0,3.03-4.2l1.782-.008a6.013,6.013,0,0,1-1.345,3.946c-.2.264-.811.691-.867.927s.378,1.736.421,2.208c.063.7-.04,1.454,0,2.158H57.809V57.753H0V44.642H5.662V39.129H1.639C2.1,37.111,2.4,35,4.485,34c.42-.2,1.222-.3,1.47-.467.308-.2.579-1.37,1.027-1.668.1-.355-.353-1.13-.408-1.621a3.805,3.805,0,0,1,4.062-4.215c.641.061,1.519.705,2.092.3.31-.22-.455-5.052-.516-5.819l-.995.108L3.52,25.41C3.183,25.352.53,20.437.031,19.8l.038-.635c1.415-2.5,2.28-5.32,3.63-7.845.234-.438,1.46-2.105,1.5-2.24C5.312,8.63,2.883,5.187,2.56,4.487a14.369,14.369,0,0,1,21.207.372c2.063,2.4,2.909,5.523,4.491,8.172,1.146.3,1.461-.42,2.021-1.209a7.666,7.666,0,0,0,1.016-1.815c.37-1.05.278-2.393.63-3.244a2.176,2.176,0,0,1,3.535-.486,11.559,11.559,0,0,1,1.789,4.32ZM11.622,2.031c-.943-.14-1.762.4-2.682.447L10.5,5.605c.107-.5,1.3-3.387,1.117-3.574m5.067,3.575,1.635-2.459c0-.288-2.647-1.1-2.828-.967a6.776,6.776,0,0,1,1.193,3.425M32.853,44.642H44.7V41.886c0-.078-.2-.334-.164-.507-3.018.565-6.11.946-9.151,1.488-.705-.042-1.869-1.763-2.235-2.394a10.966,10.966,0,0,1-1.41-4.1,16.545,16.545,0,0,1-.009-2.506c.051-.212.773-.171.733-.594-.016-.172-.434-.87-.534-1.263-.236-.933-.24-4.12-1.229-4.578-.931-.431-2.761,2.56-3.446,3.119-4.256,3.475-8.952-1.326-7.544-6.2.555-1.921,2.927-2.13,3.5-4.039-1.865-3.824-2.508-9-5.925-11.8-.421-.345-2.242-1.3-2.313-1.412-.124-.2-.119-1.782-.3-2.385a7.174,7.174,0,0,0-.925-1.749c-.071-.09-.108-.409-.339-.188-.275.262-1.27,4.43-1.517,4.594-6.2.669-7.279,7.244-9.744,11.793a.667.667,0,0,0-.038.484c.191.759,1.627,2.4,1.983,3.239l6.527-4.049c1.756-.69,3.568.322,5.173-.936.357-.28,1.042-1.38,1.129-1.4a10.8,10.8,0,0,1,1.548.505c.246.169.084.163.028.319a5.21,5.21,0,0,1-4.261,3.163,42.538,42.538,0,0,0,.531,5.657,3.748,3.748,0,0,1,1.657,6.5c.822,1.146.936,3.42,1.732,4.455.118.154.819.138.893.074a4.9,4.9,0,0,1,.188-.628,5.58,5.58,0,0,1,8.472-1.814c2.964,2.371,1.424,4.487,2.606,7.228.315.732,1.765,2.528,2.533,2.682M7.3,3.371c-.2-.148-1.95,1.172-2.224,1.436C4.987,5.1,6.387,7.12,6.639,7.542L8.653,6.411Zm11.049,3.7a3.547,3.547,0,0,1,.428.239c.424.409.8.868,1.262,1.239l2.606-2.124c-.451-.39-2.227-2.454-2.735-2.3a9.791,9.791,0,0,0-1.561,2.949m16.964,3.449c-.135-.513-.937-3.034-1.411-3.09a2.423,2.423,0,0,0-.362.128c-.066.105-.075,1.99-.146,2.351ZM23.837,8.139c-.28-.2-2.308,1.734-2.66,2.031a12.9,12.9,0,0,0,1.112,2.279,13.969,13.969,0,0,0,2.727-1.427c.156-.541-1.1-2.225-1.179-2.882m2.513,5.787c.125-.215-.345-1.14-.5-1.152a20.8,20.8,0,0,0-2.843,1.473c-.223.349.8,2.135.83,2.682l1.408-2.24c.127-.231,1.052-.679,1.1-.763M44.514,26.047c-1.719.238-1.771,2.094-1.608,3.475.074.629,1.225,1.873,1.867,1.854a5.421,5.421,0,0,0,1.19-.741c1.321-1.3.858-4.908-1.449-4.588M8.493,30.487a6.033,6.033,0,0,1,5.1-.261c.791.309,1.855,1.52,2.164.156A1.847,1.847,0,0,0,13.4,28.026c-.488.13-1.007.829-1.262.829s-.773-.7-1.262-.829c-1.686-.448-2.693.86-2.388,2.461M14.75,42.854a9.013,9.013,0,0,1,1.785-4.838c-1.3-2.719-1.443-6.606-5.441-6.341-1.559.1-3.645,1.744-3.645,3.357v9.61h14.6c.114-.571-2.42-1.788-2.607-1.788ZM29.8,44.642a8.865,8.865,0,0,1-1.786-4.1c-.058-.579.051-1.185-.019-1.769a3.738,3.738,0,0,0-6.542-2.105c-1.22,1.415-.877,2.932-.866,4.673,1.686.7,2.989,1.493,3.626,3.3ZM5.661,35.554a2.606,2.606,0,0,0-1.638,1.637l1.64,0ZM18.623,39.13a1.92,1.92,0,0,0-1.489,1.786h1.49Zm-14.9,7.449H1.937v9.238H3.725Zm5.662,0H5.662V50.3H9.387Zm3.725,0H11.174v9.238h1.937Zm5.513,0H14.9V50.3h3.725Zm3.725,0H20.561v9.238h1.788Zm5.662,0H24.286V50.3h3.725Zm3.725,0H29.8v9.238h1.937Zm5.513,0H33.523V50.3h3.725Zm3.725,0H39.185v9.238h1.788Zm5.662,0H42.91V50.3h3.725Zm3.725,0H48.423v9.238h1.937Zm5.513,0H52.147V50.3h3.725ZM9.387,52.092H5.662v3.725H9.387Zm9.238,0H14.9v3.725h3.725Zm9.387,0H24.286v3.725h3.725Zm9.238,0H33.523v3.725h3.725Zm9.387,0H42.91v3.725h3.725Zm9.238,0H52.147v3.725h3.725Z" transform="translate(0 0)" fill="#004e3d"/>
        <path id="Trazado_1005713" data-name="Trazado 1005713" d="M188.713,124.673c1.31-.238,1.464,1.835.251,1.911a.974.974,0,0,1-.251-1.911" transform="translate(-159.996 -106.081)" fill="#004e3d"/>
        <path id="Trazado_1005714" data-name="Trazado 1005714" d="M263.463,212.511a.929.929,0,0,1,.68,1.727.929.929,0,0,1-.68-1.727" transform="translate(-223.724 -180.801)" fill="#004e3d"/>
        <path id="Trazado_1005715" data-name="Trazado 1005715" d="M63.713,74.673c1.31-.238,1.464,1.835.251,1.911a.974.974,0,0,1-.251-1.911" transform="translate(-53.62 -63.531)" fill="#004e3d"/>
        <rect id="Rect치ngulo_459124" data-name="Rect치ngulo 459124" width="1.788" height="3.725" transform="translate(9.387 39.129)" fill="#004e3d"/>
        <path id="Trazado_1005716" data-name="Trazado 1005716" d="M63.713,224.673c1.31-.238,1.464,1.835.251,1.911a.974.974,0,0,1-.251-1.911" transform="translate(-53.62 -191.182)" fill="#004e3d"/>
        <path id="Trazado_1005717" data-name="Trazado 1005717" d="M151.2,249.735a.931.931,0,0,1,.714,1.617c-1.218,1.1-2.3-1.376-.714-1.617" transform="translate(-127.998 -212.519)" fill="#004e3d"/>
      </g>
    </g>
  </g>
</svg>
