<svg xmlns="http://www.w3.org/2000/svg" xmlns:xlink="http://www.w3.org/1999/xlink" width="150" height="150" viewBox="0 0 150 150">
  <defs>
    <clipPath id="clip-path">
      <rect id="Rectángulo_459233" data-name="Rectángulo 459233" width="119.485" height="137.66" fill="none"/>
    </clipPath>
    <clipPath id="clip-path-3">
      <path id="Trazado_1006361" data-name="Trazado 1006361" d="M51.619,23c-21.1,12.18-38.134,41.7-38.065,65.94.034,12.038,4.285,20.511,11.139,24.5l10.517,6.1,54.1-93.094-10.515-6.1a19.746,19.746,0,0,0-10.04-2.577c-5.158,0-10.977,1.683-17.132,5.236" transform="translate(-13.554 -17.767)" fill="none"/>
    </clipPath>
    <linearGradient id="linear-gradient" x1="0.032" y1="1.007" x2="0.044" y2="1.007" gradientUnits="objectBoundingBox">
      <stop offset="0" stop-color="#2aa0eb"/>
      <stop offset="0.01" stop-color="#299ee9"/>
      <stop offset="0.127" stop-color="#268bda"/>
      <stop offset="0.25" stop-color="#2480d0"/>
      <stop offset="0.384" stop-color="#247dce"/>
      <stop offset="0.597" stop-color="#1f75c6"/>
      <stop offset="0.91" stop-color="#1262b3"/>
      <stop offset="1" stop-color="#0e5bac"/>
    </linearGradient>
    <clipPath id="clip-path-5">
      <path id="Trazado_1006364" data-name="Trazado 1006364" d="M22.2,76.666C21.237,80,20.39,85.14,20.276,92.892a73.092,73.092,0,0,1,2.558-16.058C29.227,51.344,57.492,15.385,82.66,22.949a23.235,23.235,0,0,0-7.927-1.367c-22.241,0-46.845,29.8-52.537,55.084" transform="translate(-20.276 -21.582)" fill="none"/>
    </clipPath>
    <linearGradient id="linear-gradient-2" x1="-0.133" y1="1.245" x2="-0.118" y2="1.245" gradientUnits="objectBoundingBox">
      <stop offset="0" stop-color="#2aa0eb"/>
      <stop offset="0.386" stop-color="#2895e2"/>
      <stop offset="1" stop-color="#247dce"/>
    </linearGradient>
    <clipPath id="clip-path-7">
      <rect id="Rectángulo_459227" data-name="Rectángulo 459227" width="6.307" height="3.642" fill="none"/>
    </clipPath>
    <clipPath id="clip-path-8">
      <path id="Trazado_1006404" data-name="Trazado 1006404" d="M50.027,26.776l-7.743-4.47,0,.415L50.037,27.2V27l.094.055,3.339-6.141-.158-.18Z" transform="translate(-42.283 -20.736)" fill="none"/>
    </clipPath>
    <linearGradient id="linear-gradient-3" x1="-5.249" y1="8.664" x2="-5.124" y2="8.664" gradientUnits="objectBoundingBox">
      <stop offset="0" stop-color="#b6b2ae"/>
      <stop offset="1" stop-color="#bcb8b4"/>
    </linearGradient>
    <clipPath id="clip-path-10">
      <path id="Trazado_1006410" data-name="Trazado 1006410" d="M49.063,68.989V88.025l23.013,13.288L72.09,96.4,67.219,64.34Z" transform="translate(-49.063 -64.34)" fill="none"/>
    </clipPath>
    <linearGradient id="linear-gradient-4" x1="-1.581" y1="0.938" x2="-1.544" y2="0.938" xlink:href="#linear-gradient-3"/>
  </defs>
  <g id="Grupo_1190892" data-name="Grupo 1190892" transform="translate(-982 -12082)">
    <g id="Grupo_1190875" data-name="Grupo 1190875" transform="translate(524.289 6189)">
      <rect id="Rectángulo_459312" data-name="Rectángulo 459312" width="150" height="150" transform="translate(457.711 5893)" fill="none"/>
    </g>
    <g id="Grupo_1190666" data-name="Grupo 1190666" transform="translate(997 12088)">
      <g id="Grupo_1190665" data-name="Grupo 1190665" clip-path="url(#clip-path)">
        <g id="Grupo_1190645" data-name="Grupo 1190645" transform="translate(0 0)">
          <g id="Grupo_1190644" data-name="Grupo 1190644" clip-path="url(#clip-path)">
            <path id="Trazado_1006360" data-name="Trazado 1006360" d="M98.419,98.536,77.313,90.857c8.474-9.009,6.122-20.511-7.072-28.129-16.069-9.276-42.122-9.276-58.19,0s-16.069,24.319,0,33.6,42.12,9.278,58.19,0c.13-.075.25-.153.379-.23l2.757,1.591h2.156l3.675,2.122h2.157l3.675,2.123H87.2l3.675,2.122h2.157l3.675,2.122h3.062Z" transform="translate(0 31.485)" fill="#919c70"/>
          </g>
        </g>
        <g id="Grupo_1190647" data-name="Grupo 1190647" transform="translate(21.205 27.797)">
          <g id="Grupo_1190646" data-name="Grupo 1190646" clip-path="url(#clip-path-3)">
            <rect id="Rectángulo_459224" data-name="Rectángulo 459224" width="126.049" height="116.55" transform="translate(-44.138 76.33) rotate(-60)" fill="url(#linear-gradient)"/>
          </g>
        </g>
        <g id="Grupo_1190649" data-name="Grupo 1190649" transform="translate(0 0)">
          <g id="Grupo_1190648" data-name="Grupo 1190648" clip-path="url(#clip-path)">
            <path id="Trazado_1006362" data-name="Trazado 1006362" d="M58.34,26.9c9.226-5.327,17.7-6.452,24.319-4C91.17,26.051,96.615,35.11,96.654,48.746c.069,24.233-16.975,53.754-38.065,65.931s-38.245,2.4-38.314-21.835S37.244,39.084,58.34,26.9" transform="translate(11.446 12.232)" fill="#247dce"/>
            <path id="Trazado_1006363" data-name="Trazado 1006363" d="M56.848,29.5c8.312-4.8,15.946-5.812,21.908-3.606,7.668,2.838,12.573,11,12.607,23.283.063,21.831-15.292,48.427-34.291,59.4S22.618,110.733,22.557,88.9s15.285-48.43,34.291-59.4" transform="translate(12.734 13.989)" fill="#fff7f0"/>
          </g>
        </g>
        <g id="Grupo_1190651" data-name="Grupo 1190651" transform="translate(31.722 33.766)">
          <g id="Grupo_1190650" data-name="Grupo 1190650" clip-path="url(#clip-path-5)">
            <rect id="Rectángulo_459226" data-name="Rectángulo 459226" width="99.347" height="95.896" transform="matrix(0.584, -0.812, 0.812, 0.584, -36.735, 44.9)" fill="url(#linear-gradient-2)"/>
          </g>
        </g>
        <g id="Grupo_1190656" data-name="Grupo 1190656" transform="translate(0 0)">
          <g id="Grupo_1190655" data-name="Grupo 1190655" clip-path="url(#clip-path)">
            <path id="Trazado_1006365" data-name="Trazado 1006365" d="M65.49,40.541c.588.047.8.8.455,1.677a2.711,2.711,0,0,1-1.076,1.345,1.074,1.074,0,0,1-.618.164c-.588-.058-.8-.8-.457-1.69a2.688,2.688,0,0,1,1.069-1.33,1.083,1.083,0,0,1,.627-.167" transform="translate(35.921 22.886)" fill="#afaaa5"/>
            <path id="Trazado_1006366" data-name="Trazado 1006366" d="M62.184,30.9c.692-.4,1.248-.081,1.25.7a2.723,2.723,0,0,1-1.242,2.151c-.681.394-1.238.077-1.239-.718A2.719,2.719,0,0,1,62.184,30.9" transform="translate(34.41 17.346)" fill="#afaaa5"/>
            <path id="Trazado_1006367" data-name="Trazado 1006367" d="M62.25,53.576c.429-.247.846-.232,1.08.088a2.085,2.085,0,0,1-.444,2.209,2.31,2.31,0,0,1-.62.551c-.429.247-.846.23-1.08-.088a2.088,2.088,0,0,1,.444-2.211,2.3,2.3,0,0,1,.62-.549" transform="translate(34.446 30.15)" fill="#afaaa5"/>
            <path id="Trazado_1006368" data-name="Trazado 1006368" d="M55.048,66.049c.692-.4,1.248-.081,1.25.713A2.719,2.719,0,0,1,55.056,68.9c-.681.394-1.238.077-1.239-.706a2.722,2.722,0,0,1,1.231-2.147" transform="translate(30.381 37.19)" fill="#afaaa5"/>
            <path id="Trazado_1006369" data-name="Trazado 1006369" d="M54.954,29.61c-.432.25-.853.238-1.08-.094a2.068,2.068,0,0,1,.444-2.211,2.336,2.336,0,0,1,.616-.541c.43-.249.848-.235,1.083.092a2.088,2.088,0,0,1-.444,2.209,2.313,2.313,0,0,1-.62.544" transform="translate(30.317 15.013)" fill="#afaaa5"/>
            <path id="Trazado_1006370" data-name="Trazado 1006370" d="M45.68,29.253c.6.053.8.8.466,1.683a2.691,2.691,0,0,1-1.069,1.331,1.09,1.09,0,0,1-.627.166c-.6-.041-.8-.8-.455-1.677a2.667,2.667,0,0,1,1.072-1.336,1.083,1.083,0,0,1,.613-.167" transform="translate(24.742 16.513)" fill="#afaaa5"/>
            <path id="Trazado_1006371" data-name="Trazado 1006371" d="M45.808,74.619c.6.053.8.8.466,1.683a2.691,2.691,0,0,1-1.069,1.331,1.093,1.093,0,0,1-.627.166c-.6-.041-.8-.8-.455-1.69a2.685,2.685,0,0,1,1.07-1.328,1.056,1.056,0,0,1,.615-.163" transform="translate(24.814 42.124)" fill="#afaaa5"/>
            <path id="Trazado_1006372" data-name="Trazado 1006372" d="M35.31,77.445c.429-.247.851-.233,1.084.084a2.105,2.105,0,0,1-.455,2.217,2.265,2.265,0,0,1-.621.554c-.427.246-.845.233-1.078-.092a2.106,2.106,0,0,1,.455-2.215,2.239,2.239,0,0,1,.615-.548" transform="translate(19.237 43.624)" fill="#afaaa5"/>
            <path id="Trazado_1006373" data-name="Trazado 1006373" d="M28,50.633c.429-.247.85-.236,1.076.1a2.068,2.068,0,0,1-.444,2.211,2.372,2.372,0,0,1-.616.543c-.43.247-.85.235-1.083-.094a2.085,2.085,0,0,1,.455-2.215,2.294,2.294,0,0,1,.612-.54" transform="translate(15.107 28.488)" fill="#afaaa5"/>
            <path id="Trazado_1006374" data-name="Trazado 1006374" d="M28.067,73.313c.681-.393,1.238-.075,1.241.707a2.728,2.728,0,0,1-1.233,2.145c-.692.4-1.248.083-1.25-.712a2.722,2.722,0,0,1,1.242-2.14" transform="translate(15.144 41.293)" fill="#afaaa5"/>
            <path id="Trazado_1006375" data-name="Trazado 1006375" d="M26.009,63.335c.6.041.8.8.455,1.677a2.691,2.691,0,0,1-1.072,1.342,1.046,1.046,0,0,1-.613.161c-.6-.052-.809-.8-.466-1.683a2.688,2.688,0,0,1,1.069-1.33,1.083,1.083,0,0,1,.627-.167" transform="translate(13.633 35.754)" fill="#afaaa5"/>
            <path id="Trazado_1006376" data-name="Trazado 1006376" d="M35.209,41.006c-.681.393-1.238.075-1.241-.707A2.728,2.728,0,0,1,35.2,38.154c.681-.393,1.238-.077,1.239.718a2.719,2.719,0,0,1-1.231,2.134" transform="translate(19.176 21.444)" fill="#afaaa5"/>
            <path id="Trazado_1006377" data-name="Trazado 1006377" d="M51.478,52.284a.366.366,0,0,0-.472.2L35.622,89.872a.362.362,0,0,0,.2.471.362.362,0,0,0,.472-.2L51.675,52.757a.363.363,0,0,0-.2-.472" transform="translate(20.094 29.502)" fill="#ce2e2e"/>
            <path id="Trazado_1006378" data-name="Trazado 1006378" d="M45.492,57.644l.976,3.156c12.723-9.929,16.9-14.824,16.934-16.2.038-1.452-4.775,1.2-17.911,13.042" transform="translate(25.682 24.976)" fill="#2d2727"/>
            <path id="Trazado_1006379" data-name="Trazado 1006379" d="M47.7,51.308a2.058,2.058,0,0,0-2.106.2,6.523,6.523,0,0,0-2.952,5.113,2.089,2.089,0,0,0,.845,1.9l1.687.973,4.213-7.209Z" transform="translate(24.072 28.848)" fill="#2d2727"/>
            <path id="Trazado_1006380" data-name="Trazado 1006380" d="M47.941,51.448a2.065,2.065,0,0,0-2.107.2,6.527,6.527,0,0,0-2.952,5.113,2.089,2.089,0,0,0,.846,1.9l.365.21a2.085,2.085,0,0,1-.846-1.9A6.527,6.527,0,0,1,46.2,51.853a2.062,2.062,0,0,1,2.106-.2Z" transform="translate(24.208 28.927)" fill="#ce2e2e"/>
            <path id="Trazado_1006381" data-name="Trazado 1006381" d="M43.717,57.239c0,1.882,1.322,2.646,2.952,1.7a6.524,6.524,0,0,0,2.952-5.113c0-1.882-1.322-2.646-2.952-1.7a6.524,6.524,0,0,0-2.952,5.113" transform="translate(24.68 29.2)" fill="#443d3c"/>
            <path id="Trazado_1006382" data-name="Trazado 1006382" d="M46.9,64.019c.931-47.2-4.077-44.414-3.084,2.4a14.862,14.862,0,0,1,3.084-2.4" transform="translate(24.659 16.902)" fill="#2d2727"/>
            <path id="Trazado_1006383" data-name="Trazado 1006383" d="M44,6.383c-.307,1.162-1.615,6.837-.718,9.167.474,1.234,5.357,6.712,5.992,7.929.39.749,3.359-.729,2.915-1.654l-4.78-7.442s1.114-5.2.846-7.829c-.091-.906-.993-2.4-2.253-2.3-1,.074-1.784,1.3-2,2.132" transform="translate(24.262 2.398)" fill="#8691c7"/>
            <path id="Trazado_1006384" data-name="Trazado 1006384" d="M45.6,39.38c1,.659,3.235.69,3.658-.62.2-.61-1.106-4.37-1.3-5.476-.055-.316-.15-.871-.15-.871-.1-.1-.437-.133-.569-.175a6.5,6.5,0,0,0-2.086.232c-.3.025-.274,2.054-.271,2.256.02,1.233-.064,4.141.717,4.654" transform="translate(25.338 18.172)" fill="#e08c38"/>
            <path id="Trazado_1006385" data-name="Trazado 1006385" d="M45.533,38.96c1,.659,3.235.69,3.658-.62.2-.61-1.02-4.373-1.213-5.479-.055-.316-.15-.871-.15-.871-.1-.1-.523-.13-.656-.172a6.5,6.5,0,0,0-2.086.232c-.3.025-.274,2.054-.271,2.256.02,1.233-.064,4.141.717,4.654" transform="translate(25.299 17.935)" fill="#211d1d"/>
            <path id="Trazado_1006386" data-name="Trazado 1006386" d="M52.052,31.363a2.854,2.854,0,0,1,.322-.851L49.03,29.379c-.263.906-1.064,1.272-1.292,2.065-.224.77.485,1.347,4.032,3.96,1.818,1.338,2.6,1.574,3.325,1.4A1.071,1.071,0,0,0,56,35.683c.022-1.342-3.791-3.65-3.947-4.32" transform="translate(26.928 16.586)" fill="#211d1d"/>
            <path id="Trazado_1006387" data-name="Trazado 1006387" d="M56.027,35.133a1.137,1.137,0,0,1-.737.483c-.728.174-1.507-.061-3.325-1.4C48.806,31.89,47.922,31.284,47.9,30.5a4,4,0,0,0-.225.466c-.12.416.072.668.795,1.322.615.557,1.726,1.31,3.357,2.511,1.818,1.339,2.578,1.539,3.3,1.364a1.064,1.064,0,0,0,.9-1.036" transform="translate(26.894 17.222)" fill="#e08c38"/>
            <path id="Trazado_1006388" data-name="Trazado 1006388" d="M49.973,17.907l-1.148-1.926-10.54,2.19c-.1,4.816.18,5.961.9,7.3.878,1.627,7.464,7.48,7.464,8.114.113,2.362,1.08,4.431,1.557,8.043.471,1.571,3.611.792,3.611-.3,0-3.783-.288-9.583-.421-10.205s-3.015-6.022-3.015-6.022a69.549,69.549,0,0,0,8.261,4.609c-1.261,1.668-1.355,4.076-2.552,7.705-.3,1.02,3.052,2.544,3.5,1.51.483-1.134,2.869-6.371,4.378-10.711A2.2,2.2,0,0,0,60.946,25.7c-2.026-1.685-8.168-5.8-10.974-7.791" transform="translate(21.602 9.022)" fill="#3a3338"/>
            <path id="Trazado_1006389" data-name="Trazado 1006389" d="M37.9,8.984c-2,1.668,1.452,8.81,1.452,11.412,0,2.716-.643,4.626-.551,5.584.23,2.4,11.426,1.081,11.066-2.621a48.17,48.17,0,0,1,.424-11.021c.69-2.666.815-8.006-1.07-7.963-1.2.027-8.5,2.259-11.321,4.609" transform="translate(21.046 2.47)" fill="#8691c7"/>
            <path id="Trazado_1006390" data-name="Trazado 1006390" d="M44.588,4.985a8.938,8.938,0,0,0-3.713,1.263c-1.892.954.454,6.346,4.45,7.186,2.52-5.576.092-8.492-.737-8.448" transform="translate(22.7 2.814)" fill="#eee"/>
            <path id="Trazado_1006391" data-name="Trazado 1006391" d="M41.413,9.543A3.314,3.314,0,0,0,43.3,10.619l1.078,1.718.415-2.186c.771,0,.959-3.267,1.015-4.711a2.24,2.24,0,0,0-.127-.972,2.127,2.127,0,0,0-.846-.882,3.384,3.384,0,0,0-1.635-.6.928.928,0,0,0-.732.224,1.181,1.181,0,0,0-.232.5A22.232,22.232,0,0,1,40.99,7.01a2.4,2.4,0,0,0,.424,2.533" transform="translate(23.026 1.687)" fill="#f2a883"/>
            <path id="Trazado_1006392" data-name="Trazado 1006392" d="M43.485,9.167l-1.979,1.263s-2.111-3.694-.332-4.87c-.305,1.239,1.258,3.359,2.311,3.608" transform="translate(22.842 3.139)" fill="#fff"/>
            <path id="Trazado_1006393" data-name="Trazado 1006393" d="M43.348,8.365l1.646.091s-.415-1.025-.959-2.306c.113,1.7-.687,2.215-.687,2.215" transform="translate(24.471 3.472)" fill="#fff"/>
            <path id="Trazado_1006394" data-name="Trazado 1006394" d="M47.99,4.494c.061-.562.175-1.419-.272-1.771-.693-.546-2.455-1.3-5.517.056a3.445,3.445,0,0,0-1.067.972,1.413,1.413,0,0,0-.382,1.189c.023.961-.156,1.353,1.073,3.016a13.492,13.492,0,0,0,2.921,2.788,1.863,1.863,0,0,0,1.38.288c.44-.084.912-.474,1.112-1.488.153-.773.527-2.979.751-5.05" transform="translate(23.005 1.137)" fill="#fbbd9e"/>
            <path id="Trazado_1006395" data-name="Trazado 1006395" d="M42.951,7.336c.125.293.441.446.5.21.192-.806.21-1.522,1.99-1.694.99-.1,2.475-.318,2.907-.981a3.015,3.015,0,0,0,.266-2.32,3.723,3.723,0,0,0-4.3-2.508,2.726,2.726,0,0,0-1.784.846,1.24,1.24,0,0,0-1.292.335C39.849,2.359,40.155,6,40.612,6.956A6.874,6.874,0,0,0,41.84,8.711c-.15-.66-.825-2.031-.1-2.419a.72.72,0,0,1,.826.078c.183.158.3.746.39.965" transform="translate(22.709 0.001)" fill="#724a2f"/>
            <path id="Trazado_1006396" data-name="Trazado 1006396" d="M49.658,15.647c-.261-.466-2.8.828-2.5,1.371.074.135.146.241.2.327.443.732,2.905-.563,2.511-1.286-.02-.039-.052-.1-.2-.411" transform="translate(26.607 8.777)" fill="#eee"/>
            <path id="Trazado_1006397" data-name="Trazado 1006397" d="M47.239,27.058l11.055-6.424,0,.2L47.239,27.256Z" transform="translate(26.668 11.649)" fill="#c9c6c1"/>
            <path id="Trazado_1006398" data-name="Trazado 1006398" d="M42.284,24.058l11.055-6.424L61.08,22.1,50.027,28.528Z" transform="translate(23.871 9.955)" fill="#ece7e2"/>
            <g id="Grupo_1190654" data-name="Grupo 1190654" transform="translate(70.429 29.891)" opacity="0.1" style="mix-blend-mode: multiply;isolation: isolate">
              <g id="Grupo_1190653" data-name="Grupo 1190653">
                <g id="Grupo_1190652" data-name="Grupo 1190652" clip-path="url(#clip-path-7)">
                  <path id="Trazado_1006399" data-name="Trazado 1006399" d="M51.263,20.664l-3.548,2.048a.312.312,0,0,1-.288,0l-2.351-1.358a.087.087,0,0,1,0-.166l3.548-2.048a.312.312,0,0,1,.288,0L51.263,20.5a.088.088,0,0,1,0,.167" transform="translate(-45.016 -19.105)" fill="#c9c6c1"/>
                </g>
              </g>
            </g>
            <path id="Trazado_1006400" data-name="Trazado 1006400" d="M45.075,21.23l3.548-2.048a.312.312,0,0,1,.288,0l2.351,1.358a.115.115,0,0,1,.056.061c.013-.036-.006-.077-.056-.1l-2.351-1.358a.321.321,0,0,0-.288,0l-3.548,2.05a.091.091,0,0,0-.056.1.118.118,0,0,1,.056-.063" transform="translate(25.413 10.785)" fill="#c9c6c1"/>
            <path id="Trazado_1006401" data-name="Trazado 1006401" d="M45.939,24.955l-.479.275a.189.189,0,0,1-.169,0l-.4-.232a.052.052,0,0,1,0-.1l.479-.277a.189.189,0,0,1,.169,0l.4.233a.052.052,0,0,1,0,.1m.771-.543-.4-.233a.186.186,0,0,0-.167,0l-.479.277a.051.051,0,0,0,0,.1l.4.232a.186.186,0,0,0,.167,0l.479-.275a.051.051,0,0,0,0-.1m.773-.446-.4-.233a.189.189,0,0,0-.169,0l-.479.277a.052.052,0,0,0,0,.1l.4.232a.189.189,0,0,0,.169,0l.479-.275a.052.052,0,0,0,0-.1m.771-.446-.4-.233a.186.186,0,0,0-.167,0l-.479.277a.051.051,0,0,0,0,.1l.4.232a.176.176,0,0,0,.167,0l.479-.275a.051.051,0,0,0,0-.1m.773-.446-.4-.233a.189.189,0,0,0-.169,0l-.479.277a.052.052,0,0,0,0,.1l.4.233a.189.189,0,0,0,.169,0l.479-.277a.052.052,0,0,0,0-.1m.771-.446-.4-.232a.176.176,0,0,0-.167,0l-.479.275a.051.051,0,0,0,0,.1l.4.233a.186.186,0,0,0,.167,0l.479-.277a.051.051,0,0,0,0-.1m.773-.446-.4-.232a.189.189,0,0,0-.169,0l-.479.275a.052.052,0,0,0,0,.1l.4.233a.189.189,0,0,0,.169,0l.479-.277a.052.052,0,0,0,0-.1m.771-.446-.4-.232a.189.189,0,0,0-.169,0l-.477.275a.051.051,0,0,0,0,.1l.4.233a.186.186,0,0,0,.167,0l.479-.277a.051.051,0,0,0,0-.1m.773-.446-.4-.232a.189.189,0,0,0-.169,0l-.479.275a.052.052,0,0,0,0,.1l.4.233a.189.189,0,0,0,.169,0l.479-.277a.052.052,0,0,0,0-.1m1.02-.59-.4-.232a.189.189,0,0,0-.169,0l-.726.419a.051.051,0,0,0,0,.1l.4.233a.186.186,0,0,0,.167,0l.728-.421c.047-.027.047-.069,0-.1m2.9.771-.4-.232a.18.18,0,0,0-.169,0l-.477.275a.051.051,0,0,0,0,.1l.4.233a.189.189,0,0,0,.169,0l.479-.277a.052.052,0,0,0,0-.1m.771-.446-.4-.232a.186.186,0,0,0-.167,0l-.479.275a.051.051,0,0,0,0,.1l.4.233a.186.186,0,0,0,.167,0l.479-.277a.051.051,0,0,0,0-.1m.773-.446-.4-.232a.189.189,0,0,0-.169,0l-.479.275a.052.052,0,0,0,0,.1l.4.233a.189.189,0,0,0,.169,0l.479-.277a.052.052,0,0,0,0-.1m-.839,1.3-.4-.233a.189.189,0,0,0-.169,0l-.477.277a.051.051,0,0,0,0,.1l.4.232a.186.186,0,0,0,.167,0l.479-.275a.051.051,0,0,0,0-.1m.771-.446-.4-.233a.186.186,0,0,0-.167,0l-.479.277a.051.051,0,0,0,0,.1l.4.232a.189.189,0,0,0,.169,0l.477-.275a.051.051,0,0,0,0-.1m.773-.446-.4-.233a.189.189,0,0,0-.169,0l-.477.277a.051.051,0,0,0,0,.1l.4.232a.186.186,0,0,0,.167,0l.479-.275a.051.051,0,0,0,0-.1m-11.38,4.127-.4-.232a.186.186,0,0,0-.167,0l-.728.419a.051.051,0,0,0,0,.1l.4.233a.186.186,0,0,0,.167,0l.728-.419c.047-.028.047-.07,0-.1m.773-.444-.4-.233a.189.189,0,0,0-.169,0l-.479.277c-.045.027-.045.069,0,.1l.4.232a.186.186,0,0,0,.167,0l.479-.275c.047-.028.047-.07,0-.1m.771-.446-.4-.233a.186.186,0,0,0-.167,0l-.479.277a.051.051,0,0,0,0,.1l.4.232a.189.189,0,0,0,.169,0l.477-.275c.047-.028.047-.07,0-.1m.773-.446-.4-.233a.189.189,0,0,0-.169,0l-.479.277a.052.052,0,0,0,0,.1l.4.232a.186.186,0,0,0,.167,0l.479-.275a.051.051,0,0,0,0-.1m.771-.446-.4-.233a.186.186,0,0,0-.167,0l-.479.277a.051.051,0,0,0,0,.1l.4.232a.18.18,0,0,0,.169,0l.477-.275a.051.051,0,0,0,0-.1m.773-.446-.4-.233a.189.189,0,0,0-.169,0l-.479.277a.052.052,0,0,0,0,.1l.4.232a.186.186,0,0,0,.167,0l.479-.275a.051.051,0,0,0,0-.1m.771-.446-.4-.232a.176.176,0,0,0-.167,0l-.479.275a.051.051,0,0,0,0,.1l.4.232a.18.18,0,0,0,.169,0l.477-.275a.051.051,0,0,0,0-.1M52.311,22l-.4-.232a.18.18,0,0,0-.169,0l-.479.275a.052.052,0,0,0,0,.1l.4.233a.189.189,0,0,0,.169,0l.479-.277a.052.052,0,0,0,0-.1m.771-.446-.4-.232a.176.176,0,0,0-.167,0l-.479.275a.051.051,0,0,0,0,.1l.4.233a.189.189,0,0,0,.169,0l.477-.277a.051.051,0,0,0,0-.1m.773-.446-.4-.232a.189.189,0,0,0-.169,0l-.479.275a.052.052,0,0,0,0,.1l.4.233a.189.189,0,0,0,.169,0l.479-.277a.052.052,0,0,0,0-.1m-6.515,4.562-.4-.232a.186.186,0,0,0-.167,0l-.479.275c-.047.028-.047.07,0,.1l.4.232a.189.189,0,0,0,.169,0l.477-.277a.051.051,0,0,0,0-.1m.773-.446-.4-.232a.189.189,0,0,0-.169,0l-.477.277c-.047.027-.047.069,0,.1l.4.232a.186.186,0,0,0,.167,0l.479-.275c.047-.028.047-.07,0-.1m.771-.444-.4-.233a.186.186,0,0,0-.167,0l-.479.277a.051.051,0,0,0,0,.1l.4.232a.189.189,0,0,0,.169,0l.477-.275c.047-.028.047-.07,0-.1m.773-.446-.4-.233a.189.189,0,0,0-.169,0l-.477.277a.051.051,0,0,0,0,.1l.4.232a.186.186,0,0,0,.167,0l.479-.275c.047-.028.047-.07,0-.1m-.917,2.145-.4-.232a.176.176,0,0,0-.167,0l-.479.275a.051.051,0,0,0,0,.1l.4.233a.189.189,0,0,0,.169,0l.477-.277a.051.051,0,0,0,0-.1m.773-.446-.4-.232a.189.189,0,0,0-.169,0l-.479.275a.052.052,0,0,0,0,.1l.4.233a.186.186,0,0,0,.167,0l.479-.277a.052.052,0,0,0,0-.1m.771-.446-.4-.232a.186.186,0,0,0-.167,0l-.479.275a.051.051,0,0,0,0,.1l.4.233a.189.189,0,0,0,.169,0l.477-.277a.051.051,0,0,0,0-.1m.773-.446-.4-.232a.189.189,0,0,0-.169,0l-.479.275a.052.052,0,0,0,0,.1l.4.233a.186.186,0,0,0,.167,0l.479-.277a.052.052,0,0,0,0-.1m4.877-2.815-.4-.233a.189.189,0,0,0-.169,0l-.726.421c-.047.027-.047.069,0,.1l.4.232a.186.186,0,0,0,.167,0l.728-.419c.047-.028.047-.07,0-.1m-5.506,1.561-.4-.233a.186.186,0,0,0-.167,0l-.479.277a.051.051,0,0,0,0,.1l.4.232a.189.189,0,0,0,.169,0l.477-.275a.051.051,0,0,0,0-.1m.773-.446-.4-.233a.189.189,0,0,0-.169,0l-.477.277a.051.051,0,0,0,0,.1l.4.232a.186.186,0,0,0,.167,0l.479-.275a.051.051,0,0,0,0-.1m.771-.446-.4-.233a.186.186,0,0,0-.167,0l-.479.277a.051.051,0,0,0,0,.1l.4.232a.189.189,0,0,0,.169,0l.477-.275a.051.051,0,0,0,0-.1m.773-.446-.4-.232a.18.18,0,0,0-.169,0l-.479.275a.052.052,0,0,0,0,.1l.4.232a.176.176,0,0,0,.167,0l.479-.275a.051.051,0,0,0,0-.1m.771-.446-.4-.232a.176.176,0,0,0-.167,0l-.479.275a.051.051,0,0,0,0,.1l.4.232a.18.18,0,0,0,.169,0l.477-.275a.051.051,0,0,0,0-.1m1.022-.59-.4-.232a.189.189,0,0,0-.169,0l-.728.419a.052.052,0,0,0,0,.1l.4.233a.186.186,0,0,0,.167,0l.728-.421a.051.051,0,0,0,0-.1m-6.23,4.415-.4-.232a.189.189,0,0,0-.169,0l-.726.419a.051.051,0,0,0,0,.1l.4.233a.186.186,0,0,0,.167,0l.728-.421a.051.051,0,0,0,0-.1m.773-.446-.4-.232a.186.186,0,0,0-.167,0l-.479.275c-.045.028-.045.07,0,.1l.4.233a.189.189,0,0,0,.169,0l.479-.277a.052.052,0,0,0,0-.1m.771-.446-.4-.232a.189.189,0,0,0-.169,0l-.477.275c-.047.028-.047.07,0,.1l.4.233a.186.186,0,0,0,.167,0l.479-.277c.047-.027.047-.069,0-.1m.771-.446-.4-.232a.186.186,0,0,0-.167,0l-.479.275a.053.053,0,0,0,0,.1l.4.232a.189.189,0,0,0,.169,0l.477-.277c.047-.027.047-.069,0-.1m.773-.446-.4-.232a.189.189,0,0,0-.169,0l-.477.277c-.047.027-.047.069,0,.1l.4.232a.186.186,0,0,0,.167,0l.479-.275c.047-.028.047-.07,0-.1M54.93,22.91l-.4-.232a.186.186,0,0,0-.167,0l-3.577,2.064a.051.051,0,0,0,0,.1l.4.233a.189.189,0,0,0,.169,0l3.575-2.065a.051.051,0,0,0,0-.1m-2.761.789-.4-.233a.189.189,0,0,0-.169,0l-.479.277a.052.052,0,0,0,0,.1l.4.232a.189.189,0,0,0,.169,0l.477-.275a.051.051,0,0,0,0-.1m.773-.446-.4-.233a.189.189,0,0,0-.169,0l-.477.277a.051.051,0,0,0,0,.1l.4.232a.186.186,0,0,0,.167,0l.479-.275a.051.051,0,0,0,0-.1m.771-.446-.4-.233a.189.189,0,0,0-.169,0l-.479.277a.051.051,0,0,0,0,.1l.4.232a.189.189,0,0,0,.169,0l.477-.275a.051.051,0,0,0,0-.1m.773-.446-.4-.233a.189.189,0,0,0-.169,0l-.477.277a.051.051,0,0,0,0,.1l.4.232a.186.186,0,0,0,.167,0l.479-.275a.051.051,0,0,0,0-.1m.771-.446-.4-.233a.186.186,0,0,0-.167,0l-.479.277a.051.051,0,0,0,0,.1l.4.233a.189.189,0,0,0,.169,0l.477-.277a.051.051,0,0,0,0-.1m-1.335-1.663-.4-.232a.189.189,0,0,0-.169,0l-.477.275a.051.051,0,0,0,0,.1l.4.233a.186.186,0,0,0,.167,0l.479-.277a.051.051,0,0,0,0-.1m.771-.446-.4-.232a.186.186,0,0,0-.167,0l-.479.275a.051.051,0,0,0,0,.1l.4.233a.189.189,0,0,0,.169,0l.477-.277a.051.051,0,0,0,0-.1m.773-.446-.4-.232a.189.189,0,0,0-.169,0l-.477.275c-.047.028-.047.07,0,.1l.4.233a.186.186,0,0,0,.167,0l.479-.277c.047-.027.047-.069,0-.1m.7.407-.4-.232a.189.189,0,0,0-.169,0l-.477.275a.051.051,0,0,0,0,.1l.4.233a.186.186,0,0,0,.167,0l.479-.277a.051.051,0,0,0,0-.1m.684.375-.393-.227a.156.156,0,0,0-.139,0l-.676.383a.129.129,0,0,1-.117,0L55,19.993a.226.226,0,0,0-.21,0l-1.211.7a.063.063,0,0,0,0,.12l1.056.61a.232.232,0,0,0,.208,0l2.01-1.161a.063.063,0,0,0,0-.12" transform="translate(25.322 10.788)" fill="#fbfffb"/>
            <path id="Trazado_1006402" data-name="Trazado 1006402" d="M50.638,23.168l11.055-6.424-3.339,6.141L47.3,29.309Z" transform="translate(26.702 9.453)" fill="#c9c6c1"/>
            <path id="Trazado_1006403" data-name="Trazado 1006403" d="M49.332,23.054,60.387,16.63l.158.178L49.49,23.234Z" transform="translate(27.849 9.389)" fill="#ece7e2"/>
          </g>
        </g>
        <g id="Grupo_1190658" data-name="Grupo 1190658" transform="translate(66.153 32.442)">
          <g id="Grupo_1190657" data-name="Grupo 1190657" clip-path="url(#clip-path-8)">
            <rect id="Rectángulo_459229" data-name="Rectángulo 459229" width="12.479" height="12.479" transform="matrix(0.707, -0.707, 0.707, 0.707, -3.231, 3.231)" fill="url(#linear-gradient-3)"/>
          </g>
        </g>
        <g id="Grupo_1190660" data-name="Grupo 1190660" transform="translate(0 0)">
          <g id="Grupo_1190659" data-name="Grupo 1190659" clip-path="url(#clip-path)">
            <path id="Trazado_1006405" data-name="Trazado 1006405" d="M48.43,21.152c.239.6,1.23.523,1.43.485.432-.081,1.31-.43,1.347-.782a6.115,6.115,0,0,0-.463-3.361,5.5,5.5,0,0,0-1.09-1.516c-.563-.5-2.381.671-2.294,1.153.023.136.36,1,.529,1.74a13.677,13.677,0,0,0,.541,2.281" transform="translate(26.735 8.952)" fill="#fbbd9e"/>
            <path id="Trazado_1006406" data-name="Trazado 1006406" d="M36.531,13.024a58.63,58.63,0,0,0-1.042,7.918c.569,1.59,7.718,7.264,7.807,7.33.834.616,2.75-1.621,2.222-2.211-1.823-1.993-5.72-6.571-5.72-6.571.447-2.672.887-4.287,1.461-6.934C41.708,10.488,41.95,6.9,39.812,7c-1.69.08-2.882,4.024-3.281,6.02" transform="translate(20.026 3.953)" fill="#8691c7"/>
            <path id="Trazado_1006407" data-name="Trazado 1006407" d="M38.294,17.482c.375-2.331.956-4.623,1.455-6.929-.014,0-.452,1.715-.452,1.715-.147.571-.278,1.148-.415,1.723-.271,1.151-.515,2.311-.721,3.476a.119.119,0,0,0,.027.1c.94,1.111,1.924,2.179,2.883,3.27l1.446,1.627,1.477,1.6c.011-.009-5.7-6.579-5.7-6.579" transform="translate(21.543 5.958)" fill="#939ed7"/>
            <path id="Trazado_1006408" data-name="Trazado 1006408" d="M42.587,19.263c-.38-.375-2.458,1.571-2.025,2.012.106.108.207.191.28.258.627.582,2.635-1.347,2.056-1.932-.031-.031-.078-.083-.311-.338" transform="translate(22.865 10.848)" fill="#eee"/>
            <path id="Trazado_1006409" data-name="Trazado 1006409" d="M46.8,20.445a8.9,8.9,0,0,0-1.092-.451,26.968,26.968,0,0,1-3.043-.4c-.646-.246-2.258,1.466-1.765,1.741a5.436,5.436,0,0,1,.929.784,1.719,1.719,0,0,0,.85.33,8.929,8.929,0,0,0,1.1.125c.294.014.5.045.648.3a2.516,2.516,0,0,1,.216.43.66.66,0,0,0,.3.382c.4.219,1.851-.7,2.048-1a2.8,2.8,0,0,0-.194-2.245" transform="translate(23.036 11.046)" fill="#fbbd9e"/>
          </g>
        </g>
        <g id="Grupo_1190662" data-name="Grupo 1190662" transform="translate(76.761 100.662)">
          <g id="Grupo_1190661" data-name="Grupo 1190661" clip-path="url(#clip-path-10)">
            <rect id="Rectángulo_459231" data-name="Rectángulo 459231" width="42.426" height="42.426" transform="translate(-18.487 18.487) rotate(-45)" fill="url(#linear-gradient-4)"/>
          </g>
        </g>
        <g id="Grupo_1190664" data-name="Grupo 1190664" transform="translate(0 0)">
          <g id="Grupo_1190663" data-name="Grupo 1190663" clip-path="url(#clip-path)">
            <path id="Trazado_1006411" data-name="Trazado 1006411" d="M52.316,73.326l19.708-11.47-.011,3.807L52.305,77.133Z" transform="translate(29.528 34.921)" fill="#cfcbc7"/>
            <path id="Trazado_1006412" data-name="Trazado 1006412" d="M49.063,71.45l19.708-11.47,5.085,2.935-19.71,11.47Z" transform="translate(27.698 33.861)" fill="#ede8e4"/>
            <path id="Trazado_1006413" data-name="Trazado 1006413" d="M55.181,77.417l19.708-11.47-.011,3.807L55.17,81.224Z" transform="translate(31.145 37.23)" fill="#cfcbc7"/>
            <path id="Trazado_1006414" data-name="Trazado 1006414" d="M52.306,75.76,72.014,64.29l4.493,2.592L56.8,78.354Z" transform="translate(29.528 36.294)" fill="#ede8e4"/>
            <path id="Trazado_1006415" data-name="Trazado 1006415" d="M58.049,81.511l19.708-11.47-.011,3.807L58.038,85.317Z" transform="translate(32.764 39.541)" fill="#cfcbc7"/>
            <path id="Trazado_1006416" data-name="Trazado 1006416" d="M55.17,79.851l19.708-11.47,4.5,2.6-19.71,11.47Z" transform="translate(31.145 38.604)" fill="#ede8e4"/>
            <path id="Trazado_1006417" data-name="Trazado 1006417" d="M60.914,85.6l19.708-11.47-.011,3.807L60.9,89.408Z" transform="translate(34.382 41.851)" fill="#cfcbc7"/>
            <path id="Trazado_1006418" data-name="Trazado 1006418" d="M58.039,83.944l19.708-11.47,4.493,2.594L62.53,86.538Z" transform="translate(32.765 40.915)" fill="#ede8e4"/>
            <path id="Trazado_1006419" data-name="Trazado 1006419" d="M60.9,88.035l19.708-11.47L85.1,79.158,65.395,90.629Z" transform="translate(34.382 43.224)" fill="#ede8e4"/>
            <path id="Trazado_1006420" data-name="Trazado 1006420" d="M63.778,89.693l19.708-11.47-.011,3.807L63.767,93.5Z" transform="translate(35.999 44.16)" fill="#cfcbc7"/>
          </g>
        </g>
      </g>
    </g>
  </g>
</svg>
