<svg id="Grupo_1189298" data-name="Grupo 1189298" xmlns="http://www.w3.org/2000/svg" xmlns:xlink="http://www.w3.org/1999/xlink" width="85" height="85" viewBox="0 0 85 85">
  <defs>
    <clipPath id="clip-path">
      <rect id="Rectángulo_453606" data-name="Rectángulo 453606" width="85" height="85" fill="#004e3d"/>
    </clipPath>
  </defs>
  <g id="Grupo_1175104" data-name="Grupo 1175104" clip-path="url(#clip-path)">
    <path id="Trazado_928326" data-name="Trazado 928326" d="M41.393,85.336h0a.432.432,0,1,1,.434-.432.432.432,0,0,1-.434.432m2.6,0h0a.432.432,0,1,1,.434-.432.432.432,0,0,1-.434.432m-5.2-.155a.449.449,0,0,1-.141-.023.434.434,0,1,1,.141.023m7.788,0a.432.432,0,0,1-.136-.842.443.443,0,0,1,.573.409.432.432,0,0,1-.388.43l-.049,0m-10.369-.31a.452.452,0,0,1-.074-.007.432.432,0,0,1-.363-.427.44.44,0,0,1,.541-.418.432.432,0,0,1-.1.852m12.949-.007a.435.435,0,1,1,.109-.014.47.47,0,0,1-.109.014m-15.506-.467a.5.5,0,0,1-.074-.006.432.432,0,0,1-.363-.427.44.44,0,0,1,.541-.418.432.432,0,0,1-.1.851m18.063-.009a.435.435,0,1,1,.109-.014.47.47,0,0,1-.109.014m2.522-.634a.434.434,0,1,1,.141-.024l-.036.011a.442.442,0,0,1-.105.013m-23.216,0a.432.432,0,0,1,.21-.838Zm-2.37-.772a.43.43,0,0,1-.137-.022.461.461,0,0,1-.061-.025.432.432,0,1,1,.2.048m28.066-.015a.432.432,0,0,1-.194-.818.483.483,0,0,1,.061-.025.432.432,0,0,1,.3.811.421.421,0,0,1-.163.032m-30.5-.925a.434.434,0,0,1-.137-.023.482.482,0,0,1-.06-.025.431.431,0,1,1,.2.048m32.916-.015a.432.432,0,0,1-.194-.818.458.458,0,0,1,.061-.025.432.432,0,0,1,.3.811.422.422,0,0,1-.163.032M23.861,80.945a.433.433,0,1,1,.1-.853.459.459,0,0,1,.139.062.432.432,0,0,1-.24.791m37.64-.013a.435.435,0,1,1,.244-.075.436.436,0,0,1-.244.075M21.568,79.713a.433.433,0,1,1,.133-.844.46.46,0,0,1,.106.052.432.432,0,0,1-.24.792M63.789,79.7a.435.435,0,1,1,.243-.075.492.492,0,0,1-.106.052.434.434,0,0,1-.137.022M19.354,78.34a.428.428,0,0,1-.237-.072l0,0a.428.428,0,1,1,.241.075M66,78.33a.434.434,0,1,1,.243-.075l0,0A.43.43,0,0,1,66,78.33M17.232,76.836a.426.426,0,0,1-.239-.073.442.442,0,0,1-.07-.057.432.432,0,1,1,.309.129m50.885-.01a.432.432,0,0,1-.305-.738.444.444,0,0,1,.07-.057.432.432,0,1,1,.236.795M15.205,75.2a.428.428,0,0,1-.239-.073.44.44,0,0,1-.123-.123.432.432,0,1,1,.362.2m54.937-.011a.432.432,0,0,1-.359-.671.451.451,0,0,1,.123-.123.432.432,0,1,1,.236.794M13.28,73.45a.428.428,0,0,1-.3-.126l0,0a.429.429,0,1,1,.306.129m58.783-.009a.434.434,0,1,1,.309-.13l0,0a.43.43,0,0,1-.305.127M11.471,71.584a.433.433,0,1,1,.236-.795.455.455,0,0,1,.123.123.432.432,0,0,1-.359.672m62.4-.011a.435.435,0,1,1,.362-.2.451.451,0,0,1-.123.123.43.43,0,0,1-.239.073m-64.1-1.962a.433.433,0,1,1,.236-.8.451.451,0,0,1,.123.123.432.432,0,0,1-.359.672M75.569,69.6a.435.435,0,1,1,.362-.2.457.457,0,0,1-.123.123.429.429,0,0,1-.239.072M8.206,67.536a.428.428,0,0,1-.357-.191l0,0a.431.431,0,1,1,.36.195m68.933-.014a.425.425,0,0,1-.239-.073.433.433,0,1,1,.6-.123l0,0a.431.431,0,0,1-.36.193M6.767,65.37a.429.429,0,0,1-.358-.192l0,0a.43.43,0,1,1,.36.195m71.811-.017a.432.432,0,0,1-.359-.671.432.432,0,1,1,.721.475l0,0a.431.431,0,0,1-.36.192M5.466,63.123a.431.431,0,0,1-.36-.193.46.46,0,0,1-.062-.139.432.432,0,1,1,.422.332M79.883,63.1a.422.422,0,0,1-.105-.013.432.432,0,0,1-.314-.524.459.459,0,0,1,.062-.139.432.432,0,1,1,.358.676M4.3,60.8a.431.431,0,0,1-.36-.192.458.458,0,0,1-.061-.139A.432.432,0,1,1,4.3,60.8m76.741-.03a.443.443,0,0,1-.105-.013.432.432,0,0,1-.314-.524.441.441,0,0,1,.062-.139.432.432,0,1,1,.358.676M3.289,58.408a.434.434,0,1,1,.385-.629.46.46,0,0,1,.025.061.432.432,0,0,1-.41.569m78.773-.038a.425.425,0,0,1-.193-.046.434.434,0,1,1,.6-.253.487.487,0,0,1-.025.061.431.431,0,0,1-.386.239M2.42,55.953a.429.429,0,0,1-.408-.294c0-.011-.008-.025-.01-.036a.432.432,0,1,1,.54.312.421.421,0,0,1-.122.018m80.508-.042a.443.443,0,0,1-.105-.013.432.432,0,0,1-.314-.524l.838.21a.432.432,0,0,1-.419.328m.41-.3h0Zm.3-2.2a.423.423,0,0,1-.105-.013.432.432,0,0,1-.314-.524l.838.21a.432.432,0,0,1-.418.327m.41-.3h0ZM1.3,53.153a.432.432,0,1,1,.819-.274Zm-.145-2.241a.432.432,0,0,1-.419-.328.471.471,0,0,1-.014-.109.433.433,0,1,1,.538.424.443.443,0,0,1-.105.013m83.04-.045a.432.432,0,0,1-.432-.432.45.45,0,0,1,.014-.109.432.432,0,1,1,.418.541M.754,48.341a.434.434,0,1,1,.409-.573.462.462,0,0,1,.023.141.432.432,0,0,1-.432.432M84.588,48.3a.421.421,0,0,1-.137-.023.434.434,0,1,1,.569-.414A.457.457,0,0,1,85,48a.432.432,0,0,1-.41.3M.514,45.75a.434.434,0,1,1,.409-.573.458.458,0,0,1,.023.141.432.432,0,0,1-.432.432M84.825,45.7a.434.434,0,1,1,.433-.436.457.457,0,0,1-.023.141.432.432,0,0,1-.41.3M.432,43.147A.43.43,0,0,1,0,42.718v0a.432.432,0,1,1,.432.434M84.9,43.1a.432.432,0,0,1-.432-.432.5.5,0,0,1,0-.05.479.479,0,0,1,0-.049.432.432,0,1,1,.864,0v0a.389.389,0,0,0,0,.094v0a.432.432,0,0,1-.432.432M.508,40.549h0a.432.432,0,0,1-.432-.432A.446.446,0,0,1,.1,39.976a.432.432,0,1,1,.409.573m84.311-.144a.433.433,0,0,1-.41-.3.457.457,0,0,1-.023-.141.431.431,0,1,1,.432.437M.742,37.958h0a.432.432,0,0,1-.432-.432.457.457,0,0,1,.023-.141.432.432,0,1,1,.409.573m83.835-.143a.432.432,0,0,1-.41-.3.45.45,0,0,1-.023-.141.432.432,0,1,1,.433.437M1.135,35.387a.443.443,0,0,1-.105-.013.434.434,0,1,1,.537-.424.45.45,0,0,1-.014.109.432.432,0,0,1-.418.328m83.04-.142a.434.434,0,1,1,.418-.541.471.471,0,0,1,.014.109.432.432,0,0,1-.432.432m-.56-2.541a.433.433,0,1,1,.409-.573.361.361,0,0,1,.01.036.432.432,0,0,1-.314.524.443.443,0,0,1-.105.013m-81.51-.191L1.267,32.3a.432.432,0,1,1,.838.209M82.9,30.2a.433.433,0,1,1,.409-.573c0,.011.008.025.01.036a.431.431,0,0,1-.314.524.424.424,0,0,1-.105.014M2.812,30.009l-.837-.21a.432.432,0,1,1,.837.21m.443-2.128a.432.432,0,0,1-.415-.551A.469.469,0,0,1,2.9,27.2a.432.432,0,1,1,.358.676m78.776-.131a.431.431,0,0,1-.36-.192.468.468,0,0,1-.058-.125.432.432,0,1,1,.417.317M4.267,25.481a.426.426,0,0,1-.214-.057.434.434,0,1,1,.626-.242.491.491,0,0,1-.037.082.431.431,0,0,1-.375.218m76.746-.12a.434.434,0,1,1,.373-.651.487.487,0,0,1,.037.081.433.433,0,0,1-.41.569M5.427,23.148a.434.434,0,1,1,.418-.317.461.461,0,0,1-.058.124.431.431,0,0,1-.36.192m74.421-.111a.434.434,0,1,1,.358-.676.468.468,0,0,1,.058.125.432.432,0,0,1-.3.534.427.427,0,0,1-.119.017M6.728,20.891a.432.432,0,0,1-.359-.67l0,0a.432.432,0,1,1,.356.673m71.816-.1a.433.433,0,1,1,.356-.675l0,0a.432.432,0,0,1-.359.671M8.166,18.72a.431.431,0,0,1-.359-.669l0,0a.432.432,0,1,1,.357.673M77.1,18.626a.433.433,0,1,1,.356-.676l0,0a.432.432,0,0,1-.359.672M9.733,16.644a.432.432,0,0,1-.359-.671.443.443,0,0,1,.086-.1.432.432,0,1,1,.273.767m65.8-.089a.432.432,0,0,1-.276-.1.465.465,0,0,1-.086-.1.432.432,0,1,1,.362.2M11.424,14.666a.432.432,0,0,1-.337-.7l.035-.039a.432.432,0,1,1,.3.741m62.411-.084a.43.43,0,0,1-.305-.127l-.035-.039a.432.432,0,1,1,.34.165M13.234,12.8a.435.435,0,1,1,.34-.165.533.533,0,0,1-.064.065.43.43,0,0,1-.276.1m58.788-.079a.433.433,0,1,1,.273-.767.505.505,0,0,1,.064.065.432.432,0,0,1-.337.7M15.154,11.041a.435.435,0,1,1,.308-.129l-.032.029a.431.431,0,0,1-.276.1M70.1,10.967a.433.433,0,1,1,.273-.766l.032.029a.432.432,0,0,1-.305.737m-52.92-1.56a.435.435,0,1,1,.28-.1l-.041.03a.426.426,0,0,1-.239.073m50.892-.07a.433.433,0,1,1,.236-.794l.041.03a.432.432,0,0,1-.277.764M19.3,7.9a.431.431,0,0,1-.242-.789l0,0A.432.432,0,1,1,19.3,7.9m46.646-.064a.429.429,0,0,1-.239-.072.432.432,0,1,1,.475-.721l0,0a.432.432,0,0,1-.24.791M21.5,6.527a.432.432,0,0,1-.239-.792.547.547,0,0,1,.05-.029.432.432,0,1,1,.189.821m42.227-.061a.43.43,0,0,1-.193-.046.511.511,0,0,1-.05-.029.431.431,0,1,1,.243.075M23.79,5.291a.432.432,0,0,1-.2-.817l0,0a.432.432,0,1,1,.192.819m37.644-.055a.429.429,0,0,1-.193-.046.432.432,0,1,1,.382-.775l0,0a.432.432,0,0,1-.193.818M26.144,4.2a.432.432,0,0,1-.193-.818.478.478,0,0,1,.092-.034.432.432,0,1,1,.1.853m32.923-.052a.423.423,0,0,1-.105-.013A.472.472,0,0,1,58.87,4.1a.432.432,0,1,1,.2.047M28.718,3.23l-.3-.809a.432.432,0,1,1,.3.809m27.918-.019a.428.428,0,0,1-.151-.028.432.432,0,0,1,.284-.816l.019.007a.432.432,0,0,1-.151.837M31.043,2.466a.432.432,0,0,1-.14-.841l.036-.011a.432.432,0,0,1,.21.839.426.426,0,0,1-.106.013m23.114-.038a.439.439,0,0,1-.1-.013l.209-.839a.432.432,0,0,1-.1.851m-20.592-.6a.432.432,0,0,1-.108-.85l.038-.008a.432.432,0,0,1,.142.852.483.483,0,0,1-.072.006M51.634,1.8a.422.422,0,0,1-.071-.006L51.7.941a.432.432,0,0,1-.071.859m-15.44-.455L36.117.919,36.064.49a.432.432,0,0,1,.129.854m12.883-.016A.424.424,0,0,1,49,1.323a.432.432,0,0,1,.12-.855l.022,0a.432.432,0,0,1-.071.858M38.7,1.03a.432.432,0,0,1-.053-.861.442.442,0,0,1,.49.428.432.432,0,0,1-.4.431l-.039,0m7.8-.013a.457.457,0,0,1-.058,0,.431.431,0,1,1,.058,0M36.117.919h0ZM41.293.867A.432.432,0,0,1,41.272,0a.426.426,0,0,1,.452.36.433.433,0,0,1-.355.5.514.514,0,0,1-.075.006m2.606,0h-.025a.432.432,0,0,1-.411-.432A.441.441,0,0,1,43.97.005.432.432,0,0,1,43.9.863" transform="translate(0 0)" fill="#004e3d"/>
    <path id="Trazado_928327" data-name="Trazado 928327" d="M53.428,88.816h0a.432.432,0,1,1,.434-.432.432.432,0,0,1-.434.432m2.6-.05a.432.432,0,0,1-.137-.842.444.444,0,0,1,.573.409.432.432,0,0,1-.388.43.375.375,0,0,1-.048,0m-5.191-.095a.457.457,0,0,1-.141-.023.434.434,0,1,1,.141.023m7.78-.15a.432.432,0,0,1-.136-.842.444.444,0,0,1,.573.409.432.432,0,0,1-.388.429.375.375,0,0,1-.048,0m-10.358-.189a.466.466,0,0,1-.074-.007.432.432,0,0,1-.362-.426.44.44,0,0,1,.541-.418.432.432,0,0,1-.1.851m12.921-.249a.435.435,0,1,1,.109-.014.471.471,0,0,1-.109.014m-15.574-.3a.432.432,0,1,1,.209-.838Zm18.1-.334a.434.434,0,1,1,.141-.024l-.036.011a.443.443,0,0,1-.105.013M43.1,87.06a.432.432,0,0,1,.21-.838Zm23.06-.431a.432.432,0,0,1-.194-.818.5.5,0,0,1,.06-.025.432.432,0,0,1,.3.811.423.423,0,0,1-.163.032M40.776,86.16a.434.434,0,0,1-.137-.023.546.546,0,0,1-.06-.025.432.432,0,1,1,.2.048m27.782-.538a.435.435,0,1,1,.244-.075.458.458,0,0,1-.139.061.423.423,0,0,1-.105.013m-30.143-.559a.433.433,0,1,1,.1-.853.449.449,0,0,1,.139.062.432.432,0,0,1-.24.791m32.455-.627a.435.435,0,1,1,.243-.075.457.457,0,0,1-.106.052.434.434,0,0,1-.137.023m-34.726-.647a.428.428,0,0,1-.237-.072l0,0a.429.429,0,1,1,.241.075m36.942-.712A.434.434,0,1,1,73.33,83l0,0a.43.43,0,0,1-.239.073m-39.109-.73a.428.428,0,0,1-.237-.072l0,0a.43.43,0,1,1,.241.075m41.216-.793a.432.432,0,0,1-.305-.738.444.444,0,0,1,.07-.057.432.432,0,1,1,.236.795m-43.265-.807a.43.43,0,0,1-.239-.073.448.448,0,0,1-.123-.122.432.432,0,1,1,.362.2m45.253-.87a.432.432,0,0,1-.359-.672.448.448,0,0,1,.123-.122.432.432,0,0,1,.527.683.436.436,0,0,1-.291.112M30,79a.427.427,0,0,1-.3-.126l0,0A.429.429,0,1,1,30,79m49.036-.941a.435.435,0,1,1,.361-.2.444.444,0,0,1-.122.123.43.43,0,0,1-.239.073m-50.821-.948a.433.433,0,1,1,.236-.795.451.451,0,0,1,.123.123.432.432,0,0,1-.359.671M80.753,76.1a.435.435,0,1,1,.362-.2.451.451,0,0,1-.123.123.43.43,0,0,1-.239.073M26.575,75.086a.428.428,0,0,1-.357-.192l0,0a.429.429,0,1,1,.36.2m55.74-1.07a.432.432,0,0,1-.359-.672.432.432,0,1,1,.721.475l0,0a.43.43,0,0,1-.359.193M25.092,72.951a.428.428,0,0,1-.357-.192l0,0a.429.429,0,1,1,.36.2m58.624-1.128a.423.423,0,0,1-.137-.023.432.432,0,0,1-.273-.547.49.49,0,0,1,.052-.106.432.432,0,1,1,.357.675M23.777,70.71a.432.432,0,0,1-.36-.192.458.458,0,0,1-.061-.139.432.432,0,1,1,.421.331m61.171-1.18a.424.424,0,0,1-.105-.014.431.431,0,0,1-.314-.524.458.458,0,0,1,.061-.139.432.432,0,1,1,.358.676M22.633,68.377a.434.434,0,1,1,.385-.629.484.484,0,0,1,.025.061.432.432,0,0,1-.273.546.42.42,0,0,1-.137.023M86,67.149a.427.427,0,0,1-.192-.046.434.434,0,1,1,.6-.253.479.479,0,0,1-.025.06.432.432,0,0,1-.387.239M21.671,65.963a.434.434,0,1,1,.384-.629.458.458,0,0,1,.025.06.433.433,0,0,1-.41.569m65.2-1.268a.443.443,0,0,1-.105-.013.432.432,0,0,1-.314-.524l.838.21a.432.432,0,0,1-.419.328m.41-.3h0Zm-66.391-.917a.429.429,0,0,1-.408-.293c0-.011-.008-.025-.01-.036a.432.432,0,1,1,.54.312.42.42,0,0,1-.122.018m66.659-1.294a.432.432,0,0,1-.432-.432.449.449,0,0,1,.014-.109.432.432,0,1,1,.418.541M20.308,60.946a.432.432,0,0,1-.419-.328.471.471,0,0,1-.014-.109.432.432,0,1,1,.538.424.443.443,0,0,1-.105.013m67.73-1.317a.432.432,0,0,1-.432-.432.467.467,0,0,1,.014-.109.432.432,0,1,1,.418.541M19.916,58.374a.434.434,0,1,1,.409-.573.457.457,0,0,1,.023.141.431.431,0,0,1-.432.432m68.413-1.33a.434.434,0,1,1,.432-.436.461.461,0,0,1-.023.141.433.433,0,0,1-.41.3m-68.61-1.266a.43.43,0,0,1-.432-.43v0a.432.432,0,1,1,.432.434m68.707-1.334a.432.432,0,0,1-.432-.432c0-.014,0-.027,0-.041s0-.027,0-.041a.432.432,0,0,1,.864,0v0c0,.013,0,.026,0,.039s0,.025,0,.038v0a.432.432,0,0,1-.432.432m-68.71-1.268a.43.43,0,0,1-.432-.43v0a.432.432,0,1,1,.432.434m68.608-1.413a.432.432,0,0,1-.41-.3.457.457,0,0,1-.023-.141.431.431,0,1,1,.432.436M19.906,50.585h0a.432.432,0,0,1-.432-.432.457.457,0,0,1,.023-.141.432.432,0,1,1,.409.573m68.12-1.406a.434.434,0,1,1,.418-.541.45.45,0,0,1,.014.109.432.432,0,0,1-.432.432M20.293,48.013A.443.443,0,0,1,20.188,48a.434.434,0,1,1,.537-.424.45.45,0,0,1-.014.109.432.432,0,0,1-.418.328m67.241-1.388a.434.434,0,1,1,.418-.541.47.47,0,0,1,.014.109.432.432,0,0,1-.432.432m-66.241-1.48-.838-.21a.432.432,0,0,1,.838.21m65.556-1.03a.433.433,0,1,1,.409-.573c0,.011.008.025.01.036a.431.431,0,0,1-.314.524.417.417,0,0,1-.1.013M21.644,42.993a.433.433,0,0,1-.41-.569.589.589,0,0,1,.025-.06.432.432,0,1,1,.384.629m64.332-1.327a.431.431,0,0,1-.386-.239.488.488,0,0,1-.025-.061.432.432,0,1,1,.412.3M22.6,40.573a.433.433,0,0,1-.41-.569.481.481,0,0,1,.025-.06.432.432,0,1,1,.384.629m62.315-1.281a.434.434,0,1,1,.358-.676.468.468,0,0,1,.058.125.432.432,0,0,1-.3.534.443.443,0,0,1-.119.017M23.743,38.232a.434.434,0,1,1,.418-.317.449.449,0,0,1-.058.124.431.431,0,0,1-.36.192M83.684,37a.434.434,0,1,1,.358-.676.46.46,0,0,1,.058.124.432.432,0,0,1-.3.534.425.425,0,0,1-.119.017m-58.626-1.02a.431.431,0,0,1-.359-.669l0,0a.432.432,0,1,1,.356.673m57.223-1.169a.433.433,0,1,1,.356-.675l0,0a.432.432,0,0,1-.359.672m-55.743-.97a.432.432,0,0,1-.359-.671.466.466,0,0,1,.086-.1.433.433,0,1,1,.273.767m54.177-1.108a.43.43,0,0,1-.276-.1.443.443,0,0,1-.086-.1.432.432,0,1,1,.361.2m-52.54-.915a.432.432,0,0,1-.337-.7l.035-.039a.432.432,0,1,1,.3.741M79,30.784a.43.43,0,0,1-.305-.127.453.453,0,0,1-.035-.039.432.432,0,1,1,.34.165M29.96,29.93a.434.434,0,1,1,.34-.165.565.565,0,0,1-.064.065.431.431,0,0,1-.276.1m47.179-.964a.433.433,0,1,1,.273-.767.5.5,0,0,1,.064.065.432.432,0,0,1-.337.7m-45.258-.789a.439.439,0,1,1,.276-.1.43.43,0,0,1-.276.1m43.267-.886a.428.428,0,0,1-.255-.084.432.432,0,0,1,.492-.71l.041.03a.432.432,0,0,1-.277.764m-41.22-.718a.435.435,0,1,1,.28-.1l-.041.03a.43.43,0,0,1-.239.073m39.108-.8A.429.429,0,0,1,72.8,25.7a.432.432,0,1,1,.475-.721l0,0a.432.432,0,0,1-.24.792m-36.947-.643a.432.432,0,0,1-.24-.791.515.515,0,0,1,.05-.029.432.432,0,1,1,.19.821m34.726-.713a.43.43,0,0,1-.193-.046.467.467,0,0,1-.05-.029.431.431,0,1,1,.243.075M38.356,23.85a.432.432,0,0,1-.2-.817l0,0a.432.432,0,1,1,.192.819M68.5,23.231a.428.428,0,0,1-.151-.028l-.046-.02a.432.432,0,1,1,.2.047m-27.791-.481a.432.432,0,0,1-.194-.818.452.452,0,0,1,.092-.034.432.432,0,0,1,.261.822.419.419,0,0,1-.159.031m25.39-.524a.423.423,0,0,1-.105-.013.492.492,0,0,1-.092-.034.432.432,0,1,1,.2.047M43.292,21.8l-.3-.809a.432.432,0,1,1,.3.809m20.336-.394a.436.436,0,0,1-.1-.013l.209-.839a.432.432,0,0,1-.1.851M45.635,21.1a.432.432,0,0,1-.108-.85l.038-.008a.432.432,0,1,1,.07.858M61.1,20.782a.455.455,0,0,1-.084-.008.432.432,0,0,1,.133-.853.452.452,0,0,1,.088.019.432.432,0,0,1-.137.842m-12.929-.222a.434.434,0,1,1,.141-.023.453.453,0,0,1-.088.02.4.4,0,0,1-.054,0m10.366-.212a.423.423,0,0,1-.072-.006.432.432,0,0,1,.12-.856l.022,0a.432.432,0,0,1-.071.858m-7.79-.132a.432.432,0,0,1-.053-.861.44.44,0,0,1,.49.428.432.432,0,0,1-.4.43l-.039,0m5.2-.106h-.025a.431.431,0,0,1-.411-.431.442.442,0,0,1,.507-.426.432.432,0,0,1-.071.858m-2.6-.044a.432.432,0,1,1,0-.864h0a.432.432,0,1,1,0,.864" transform="translate(-11.392 -11.34)" fill="#004e3d"/>
    <path id="Trazado_928328" data-name="Trazado 928328" d="M65.8,92.206h0a.432.432,0,1,1,.434-.432.432.432,0,0,1-.434.432m-2.578-.059a.461.461,0,0,1-.141-.023.434.434,0,1,1,.141.023m5.145-.126a.432.432,0,0,1-.137-.842.444.444,0,0,1,.573.409.432.432,0,0,1-.388.43.378.378,0,0,1-.048,0m-7.705-.18a.457.457,0,0,1-.074-.007.432.432,0,0,1-.362-.427.44.44,0,0,1,.541-.418.432.432,0,0,1-.1.851m10.247-.253a.435.435,0,1,1,.141-.023.459.459,0,0,1-.141.023m-12.875-.314a.432.432,0,0,1,.21-.838ZM73.4,90.911a.433.433,0,1,1,.141-.023l-.036.01a.443.443,0,0,1-.105.013M55.694,90.5a.431.431,0,0,1-.137-.023.486.486,0,0,1-.061-.025.431.431,0,1,1,.2.048m20.118-.5a.432.432,0,0,1-.194-.818.463.463,0,0,1,.061-.025.432.432,0,0,1,.3.812.423.423,0,0,1-.163.032m-22.484-.529a.433.433,0,1,1,.1-.853.449.449,0,0,1,.139.061.432.432,0,0,1-.24.792m24.794-.616a.435.435,0,1,1,.243-.075.451.451,0,0,1-.106.052.431.431,0,0,1-.137.023m-27.049-.638a.428.428,0,0,1-.238-.072l0,0a.429.429,0,1,1,.241.075m29.239-.726a.434.434,0,1,1,.243-.075l0,0a.43.43,0,0,1-.239.073m-31.36-.739a.429.429,0,0,1-.239-.072.468.468,0,0,1-.07-.057.433.433,0,1,1,.309.129m33.407-.83A.433.433,0,0,1,82,85.244a.444.444,0,0,1,.123-.122.432.432,0,1,1,.236.794m-35.379-.832a.428.428,0,0,1-.239-.073.445.445,0,0,1-.123-.123.432.432,0,1,1,.362.2m37.268-.925a.435.435,0,1,1,.362-.2.445.445,0,0,1-.123.123.43.43,0,0,1-.239.073M45.176,83.24a.433.433,0,1,1,.236-.8.451.451,0,0,1,.123.123.432.432,0,0,1-.359.672m40.782-1.013a.435.435,0,1,1,.362-.2.455.455,0,0,1-.123.123.426.426,0,0,1-.239.073m-42.4-1a.428.428,0,0,1-.357-.192l0,0a.429.429,0,1,1,.36.2m43.919-1.089a.432.432,0,0,1-.359-.671.432.432,0,1,1,.721.475l0,0a.431.431,0,0,1-.36.192M42.14,79.075a.432.432,0,0,1-.36-.193.467.467,0,0,1-.052-.106.432.432,0,1,1,.412.3m46.644-1.157a.443.443,0,0,1-.105-.013.432.432,0,0,1-.314-.524.458.458,0,0,1,.061-.139.432.432,0,1,1,.358.676M40.937,76.794a.431.431,0,0,1-.36-.193.458.458,0,0,1-.061-.139.432.432,0,1,1,.421.332m48.935-1.215a.427.427,0,0,1-.192-.046.434.434,0,1,1,.6-.254.552.552,0,0,1-.025.061.432.432,0,0,1-.387.239M39.96,74.406a.433.433,0,1,1,.137-.023.432.432,0,0,1-.137.023m50.768-1.26a.424.424,0,0,1-.105-.014.431.431,0,0,1-.314-.524l.837.21a.432.432,0,0,1-.418.328m.41-.3h0Zm-51.919-.913a.429.429,0,0,1-.408-.294c0-.011-.008-.025-.011-.036a.43.43,0,1,1,.418.33m52.124-1.292a.432.432,0,0,1-.432-.432.47.47,0,0,1,.014-.109.432.432,0,1,1,.418.541M38.725,69.4a.432.432,0,0,1-.419-.328.47.47,0,0,1-.014-.109.432.432,0,1,1,.538.423.443.443,0,0,1-.105.013m52.988-1.316a.434.434,0,1,1,.433-.436.457.457,0,0,1-.023.141.432.432,0,0,1-.41.3M38.475,66.835a.434.434,0,1,1,.409-.573.458.458,0,0,1,.023.141.432.432,0,0,1-.432.432m53.361-1.324a.432.432,0,0,1-.432-.432c0-.012,0-.025,0-.036s0-.028,0-.042a.432.432,0,0,1,.864,0v0c0,.011,0,.023,0,.035s0,.026,0,.039v0a.432.432,0,0,1-.432.432M38.471,64.254a.43.43,0,0,1-.432-.43v0a.432.432,0,1,1,.432.434m53.235-1.4a.432.432,0,0,1-.41-.3.458.458,0,0,1-.023-.141.432.432,0,1,1,.433.437M38.713,61.688a.443.443,0,0,1-.105-.013.434.434,0,1,1,.538-.423.467.467,0,0,1-.014.109.432.432,0,0,1-.419.328M91.329,60.3a.434.434,0,1,1,.418-.541.45.45,0,0,1,.014.109.432.432,0,0,1-.432.432M39.622,58.823l-.838-.21a.432.432,0,0,1,.838.21M90.707,57.8a.433.433,0,1,1,.409-.573c0,.011.008.025.011.036a.432.432,0,0,1-.314.524.443.443,0,0,1-.105.013M39.935,56.682a.433.433,0,0,1-.41-.569.455.455,0,0,1,.025-.06.432.432,0,1,1,.385.629M89.846,55.37a.432.432,0,0,1-.387-.239.556.556,0,0,1-.025-.061.432.432,0,1,1,.6.253.428.428,0,0,1-.192.046M40.9,54.291a.435.435,0,1,1,.421-.332.458.458,0,0,1-.061.139.431.431,0,0,1-.36.193m47.848-1.258a.433.433,0,1,1,.357-.675.451.451,0,0,1,.052.106.432.432,0,0,1-.41.569M42.1,52.006a.435.435,0,1,1,.412-.3.485.485,0,0,1-.052.106.431.431,0,0,1-.36.193m45.337-1.191a.433.433,0,1,1,.356-.676l0,0a.432.432,0,0,1-.359.672m-43.925-.971a.431.431,0,0,1-.359-.669c.007-.011.017-.024.025-.034a.432.432,0,1,1,.334.7m42.4-1.112a.432.432,0,1,1,.332-.156.428.428,0,0,1-.332.156m-40.79-.9a.432.432,0,0,1-.337-.7l.035-.039a.432.432,0,1,1,.3.741M84.2,46.8a.433.433,0,1,1,.273-.767.505.505,0,0,1,.064.065.432.432,0,0,1-.337.7m-37.276-.823a.434.434,0,1,1,.34-.165.564.564,0,0,1-.064.065.431.431,0,0,1-.276.1m35.383-.93a.433.433,0,1,1,.273-.767c.01.009.023.02.032.029a.432.432,0,0,1-.305.737M48.89,44.314a.435.435,0,1,1,.28-.1.5.5,0,0,1-.041.03.427.427,0,0,1-.239.073m31.363-.825a.429.429,0,0,1-.239-.072.432.432,0,1,1,.475-.721l0,0a.432.432,0,0,1-.24.791m-29.246-.646a.432.432,0,0,1-.24-.791.469.469,0,0,1,.05-.029.432.432,0,1,1,.19.821m27.053-.712a.428.428,0,0,1-.213-.056.432.432,0,0,1,.4-.764.547.547,0,0,1,.05.029.432.432,0,0,1-.24.791m-24.8-.549a.432.432,0,0,1-.2-.817l0,0a.432.432,0,1,1,.192.819m22.486-.59a.429.429,0,0,1-.152-.028l-.045-.02a.432.432,0,1,1,.2.047m-20.127-.445a.432.432,0,0,1-.194-.818.492.492,0,0,1,.092-.034.432.432,0,0,1,.26.822.425.425,0,0,1-.159.031m17.714-.466a.428.428,0,0,1-.151-.028.432.432,0,0,1,.284-.816l.019.007a.432.432,0,0,1-.151.836m-15.26-.337a.432.432,0,0,1-.14-.841l.036-.011a.432.432,0,0,1,.21.839.446.446,0,0,1-.106.013m12.771-.333a.4.4,0,0,1-.054,0,.5.5,0,0,1-.087-.02.433.433,0,1,1,.141.023m-10.257-.225a.434.434,0,1,1,.141-.023.452.452,0,0,1-.088.02.4.4,0,0,1-.054,0m7.715-.2a.432.432,0,1,1,.049-.861l.022,0a.432.432,0,0,1-.071.858m-5.155-.113a.432.432,0,0,1-.053-.861.443.443,0,0,1,.49.428.432.432,0,0,1-.4.431l-.039,0M65.73,38.8a.432.432,0,1,1,0-.864h0a.432.432,0,1,1,0,.864" transform="translate(-22.471 -22.407)" fill="#004e3d"/>
    <path id="Trazado_928329" data-name="Trazado 928329" d="M75.116,95.682a.461.461,0,0,1-.141-.023.433.433,0,0,1-.273-.547.426.426,0,0,1,.458-.293.432.432,0,0,1-.043.862m2.571,0a.432.432,0,0,1-.137-.842.444.444,0,0,1,.573.409.432.432,0,0,1-.388.43l-.048,0m-5.122-.343a.456.456,0,0,1-.074-.006.433.433,0,0,1-.363-.427.441.441,0,0,1,.541-.418.432.432,0,0,1-.1.851m7.673-.007a.436.436,0,1,1,.109-.014.467.467,0,0,1-.109.014m-10.157-.685a.434.434,0,0,1-.137-.023.478.478,0,0,1-.06-.025.432.432,0,1,1,.2.047m12.637-.009a.432.432,0,0,1-.193-.818.484.484,0,0,1,.06-.025.432.432,0,1,1,.133.844m-15-1.016a.436.436,0,0,1-.422-.539.431.431,0,0,1,.523-.314.449.449,0,0,1,.139.062.432.432,0,0,1-.24.791m17.361-.014a.435.435,0,1,1,.243-.075.46.46,0,0,1-.106.052.435.435,0,0,1-.137.023M65.515,92.282a.428.428,0,0,1-.237-.072l0,0a.429.429,0,1,1,.241.075m21.761-.016a.434.434,0,1,1,.243-.075l0,0a.429.429,0,0,1-.239.073M63.517,90.657a.43.43,0,0,1-.239-.073.451.451,0,0,1-.123-.123.432.432,0,1,1,.362.2m25.755-.018a.432.432,0,0,1-.359-.672.457.457,0,0,1,.123-.123.432.432,0,1,1,.236.795M61.758,88.777a.433.433,0,1,1,.237-.795.448.448,0,0,1,.122.123.432.432,0,0,1-.359.672m29.273-.021a.435.435,0,1,1,.362-.2.463.463,0,0,1-.123.123.429.429,0,0,1-.239.072M60.267,86.675a.428.428,0,0,1-.357-.192l0,0a.431.431,0,1,1,.36.195m32.25-.023a.432.432,0,0,1-.359-.672.432.432,0,1,1,.721.475l0,0a.432.432,0,0,1-.36.193m-33.438-2.26a.434.434,0,1,1,.385-.629.505.505,0,0,1,.025.06.433.433,0,0,1-.41.569M93.7,84.365a.425.425,0,0,1-.193-.046.434.434,0,1,1,.6-.253.487.487,0,0,1-.025.061.431.431,0,0,1-.386.239m-35.493-2.4a.429.429,0,0,1-.408-.293c0-.011-.008-.025-.01-.036a.432.432,0,1,1,.54.312.421.421,0,0,1-.122.018m36.356-.028a.437.437,0,0,1-.1-.013.431.431,0,0,1-.314-.524l.838.209a.432.432,0,0,1-.419.328m.41-.3h0Zm-37.29-2.192a.434.434,0,1,1,.409-.573.457.457,0,0,1,.023.141.432.432,0,0,1-.432.432m37.4-.031a.434.434,0,1,1,.432-.437.457.457,0,0,1-.023.141.432.432,0,0,1-.41.3m-37.58-2.541a.43.43,0,0,1-.432-.43v0a.432.432,0,1,1,.432.434m37.754-.029a.432.432,0,0,1-.432-.432c0-.012,0-.025,0-.036s0-.024,0-.036a.432.432,0,0,1,.864,0v0c0,.011,0,.023,0,.034s0,.023,0,.034v0a.432.432,0,0,1-.432.432M57.677,74.3h0a.432.432,0,0,1-.432-.432.458.458,0,0,1,.023-.141.432.432,0,1,1,.409.573m37.4-.1a.433.433,0,0,1-.41-.3.461.461,0,0,1-.023-.141.432.432,0,1,1,.432.436m-.531-2.521a.433.433,0,1,1,.409-.573.364.364,0,0,1,.011.036.432.432,0,0,1-.314.524.443.443,0,0,1-.105.013m-35.936-.23-.838-.21a.432.432,0,1,1,.838.21m.437-2.1a.433.433,0,0,1-.41-.569.482.482,0,0,1,.025-.06.432.432,0,1,1,.384.629m34.629-.095a.432.432,0,0,1-.386-.239.478.478,0,0,1-.025-.06.431.431,0,1,1,.411.3m-33.447-2.2A.425.425,0,0,1,60,66.986a.43.43,0,0,1-.121-.6l0,0a.432.432,0,1,1,.719.479.435.435,0,0,1-.362.194m32.254-.083a.433.433,0,1,1,.357-.675l0,0a.432.432,0,0,1-.359.672M61.715,64.953a.432.432,0,0,1-.359-.672.451.451,0,0,1,.123-.123.433.433,0,1,1,.236.8m29.278-.077a.43.43,0,0,1-.239-.073.45.45,0,0,1-.123-.123.432.432,0,1,1,.362.2M63.47,63.067a.434.434,0,1,1,.362-.2.45.45,0,0,1-.123.122.43.43,0,0,1-.239.073M89.23,63a.435.435,0,0,1-.363-.674.431.431,0,0,1,.6-.12.448.448,0,0,1,.123.122A.432.432,0,0,1,89.23,63M65.464,61.433a.431.431,0,0,1-.242-.789l0,0a.432.432,0,1,1,.238.792m21.764-.055a.429.429,0,0,1-.239-.073.432.432,0,1,1,.475-.721l0,0a.432.432,0,0,1-.24.791M67.657,60.09a.435.435,0,1,1,.243-.075.406.406,0,0,1-.05.029.427.427,0,0,1-.193.046m17.367-.047a.433.433,0,0,1-.388-.626.429.429,0,0,1,.577-.194l0,0a.432.432,0,0,1-.194.818M70.171,59.027l-.3-.809a.432.432,0,1,1,.3.809m12.488-.005a.428.428,0,0,1-.151-.028.432.432,0,0,1,.284-.816l.019.007a.432.432,0,0,1-.151.836m-10.166-.666a.434.434,0,1,1,.142-.023.465.465,0,0,1-.088.019.4.4,0,0,1-.054,0m7.682-.021a.419.419,0,0,1-.083-.009.432.432,0,0,1,.133-.853.452.452,0,0,1,.088.019.432.432,0,0,1-.137.842M75.043,58a.432.432,0,0,1-.053-.861.442.442,0,0,1,.49.428.432.432,0,0,1-.4.431l-.039,0m2.581-.007H77.6a.432.432,0,0,1-.411-.432.44.44,0,0,1,.507-.426.432.432,0,0,1-.071.858" transform="translate(-33.718 -33.739)" fill="#004e3d"/>
  </g>
</svg>
