<svg xmlns="http://www.w3.org/2000/svg" xmlns:xlink="http://www.w3.org/1999/xlink" width="80" height="80" viewBox="0 0 80 80">
  <defs>
    <clipPath id="clip-path">
      <rect id="Rect치ngulo_459068" data-name="Rect치ngulo 459068" width="65.801" height="42.768" fill="#f3bc5b"/>
    </clipPath>
  </defs>
  <g id="Grupo_1188667" data-name="Grupo 1188667" transform="translate(-704.52 -3293.691)">
    <g id="Grupo_1183033" data-name="Grupo 1183033" transform="translate(524.852 -2227.309)">
      <rect id="Rect치ngulo_402006" data-name="Rect치ngulo 402006" width="80" height="80" rx="5" transform="translate(179.668 5521)" fill="#004e3d"/>
    </g>
    <g id="Grupo_1190329" data-name="Grupo 1190329" transform="translate(711.619 3312.307)">
      <g id="Grupo_1190328" data-name="Grupo 1190328" clip-path="url(#clip-path)">
        <path id="Trazado_1004779" data-name="Trazado 1004779" d="M1.931,25.226H40.176V2.492c0-.054-.217-.249-.164-.41H12.518c-.437,0-.952-1.451.086-1.884L39.93.112A2.554,2.554,0,0,1,42.145,2V4.544H58.478a2.939,2.939,0,0,1,1.6,1.03c1.835,4.344,3.905,8.617,5.5,13.046-.34,5.762.6,12.354.051,18.021-.318,3.3-4.972,1.627-7.121,2.071a7.128,7.128,0,0,1-12.851-.006c-1.7-.152-3.559.128-5.239-.014-1.822-.154-1-1.976-.157-1.976H45.1l.164-2.626H33.528a5.241,5.241,0,0,1-1.556-1.071c-1.432-1.586-2.524-4.2-4.025-5.823H1.931v9.52H7.183v-2.38c0-1.012,1.655-3.265,2.476-3.926A6.977,6.977,0,0,1,20.97,36.716H35.5c1.362-.136,1.824,1.8.5,1.977l-15.406.023c-.334.1-1.192,1.633-1.583,2.028a7.018,7.018,0,0,1-10.024-.168c-.352-.378-1.142-1.775-1.423-1.86-1.68-.323-5.193.45-6.567-.327a2.166,2.166,0,0,1-.957-1.177L0,1.874A2.568,2.568,0,0,1,1.722.15,41.9,41.9,0,0,1,8.258.1c1.962.18,1.018,1.977.649,1.977H2.177a1.647,1.647,0,0,0-.246.246ZM59.052,8.319c-.047-.332-.631-1.806-.9-1.806h-16V32.12h4.1a6.805,6.805,0,0,1,10.263-1.645c.356.3,1.363,1.645,1.473,1.645h5.663V29.165H58.97c-.814,0-1.472-.947-1.559-1.724-.1-.9-.127-4.3.324-4.928a2.73,2.73,0,0,1,.742-.571h5.17V19.809H54.21c-.431,0-1.66-1.055-2.054-1.393-.649-.557-3.036-2.723-3.2-3.362a32.006,32.006,0,0,1-.068-5.494c.063-.4.707-1.24,1.058-1.24Zm.985,1.97H50.845v4.186c0,.25,3.354,2.822,3.693,3.365h8.617Zm3.611,13.624H59.38v3.119h4.268ZM40.176,32.12V27.442a1.647,1.647,0,0,0-.246-.246H30.491c.95,1.244,1.948,3.4,2.979,4.49.115.121.422.435.55.435ZM13.549,30.852c-6.349.618-5.516,10.333.769,9.969,6.637-.383,5.965-10.624-.769-9.969m37.913,0c-6.293.767-5.376,10.239.77,9.976,6.808-.291,5.948-10.795-.77-9.976m12.186,3.24h-4.76c-.08.929.378,1.72,0,2.626h4.76Z" transform="translate(0 0)" fill="#f3bc5b"/>
        <path id="Trazado_1004780" data-name="Trazado 1004780" d="M69.483,27.782c.861-.124,1.138.468,1.2,1.194a137.658,137.658,0,0,1,0,15.445,1.008,1.008,0,0,1-1.892.4L68.7,28.646a.93.93,0,0,1,.782-.865" transform="translate(-57.423 -23.208)" fill="#f3bc5b"/>
        <path id="Trazado_1004781" data-name="Trazado 1004781" d="M140.644,27.851c.71-.059,1.02.391,1.034,1.026.122,5.437.019,10.743,0,15.611-.157,1.221-1.977,1.409-1.986-.329-.025-4.763.061-10.348.005-15.276a.975.975,0,0,1,.948-1.032" transform="translate(-116.758 -23.275)" fill="#f3bc5b"/>
        <path id="Trazado_1004782" data-name="Trazado 1004782" d="M34.427,45.255c-.378.376-1.475.3-1.642-.332-.293-5.287-.033-10.653-.133-15.97.154-1.184,1.813-1.454,1.986-.164-.336,5.053.419,10.618,0,15.609-.021.254-.029.676-.21.857" transform="translate(-27.282 -23.351)" fill="#f3bc5b"/>
        <path id="Trazado_1004783" data-name="Trazado 1004783" d="M175.606,45.255a1.419,1.419,0,0,1-.21-.857c-.131-4.926-.024-10.758,0-15.609.173-1.29,1.832-1.02,1.986.164l0,15.441a1.086,1.086,0,0,1-1.77.86" transform="translate(-146.553 -23.351)" fill="#f3bc5b"/>
        <path id="Trazado_1004784" data-name="Trazado 1004784" d="M105.486,27.8c.673-.1,1.278.713,1.2,1.361.145,5.049.476,10.253-.008,14.944-.17,1.647-1.856,1.551-1.979.5V28.667a.939.939,0,0,1,.784-.868" transform="translate(-87.514 -23.228)" fill="#f3bc5b"/>
        <path id="Trazado_1004785" data-name="Trazado 1004785" d="M211.43,45.246a1.224,1.224,0,0,1-.7.209c-.9-.018-1.01-.637-1.073-1.394a140.643,140.643,0,0,1,0-14.947c.025-1.294,1.8-1.711,1.981-.333a147.276,147.276,0,0,1,0,15.609c-.022.255-.028.675-.21.856" transform="translate(-175.069 -23.342)" fill="#f3bc5b"/>
        <path id="Trazado_1004786" data-name="Trazado 1004786" d="M70.221,200.444c4.8-.989,5.048,6.324.3,5.692-3.076-.41-3.01-5.134-.3-5.692m.487,1.962a.949.949,0,0,0,.141,1.78.929.929,0,1,0-.141-1.78" transform="translate(-57.01 -167.466)" fill="#f3bc5b"/>
        <path id="Trazado_1004787" data-name="Trazado 1004787" d="M304.458,201.3a2.969,2.969,0,0,1,.307,3.887,2.908,2.908,0,0,1-5.1-2.642c.469-2.012,3.352-2.6,4.8-1.245m-2.694,2.858c.854.852,2.384-.692,1.2-1.448-1.122-.717-1.852.8-1.2,1.448" transform="translate(-250.387 -167.65)" fill="#f3bc5b"/>
      </g>
    </g>
  </g>
</svg>
