<svg xmlns="http://www.w3.org/2000/svg" xmlns:xlink="http://www.w3.org/1999/xlink" width="90.184" height="90.184" viewBox="0 0 90.184 90.184">
  <defs>
    <clipPath id="clip-path">
      <rect id="Rectángulo_459157" data-name="Rectángulo 459157" width="67.908" height="51.541" fill="#004e3d"/>
    </clipPath>
  </defs>
  <g id="Grupo_1190076" data-name="Grupo 1190076" transform="translate(-335.332 -4180)">
    <g id="Grupo_1110751" data-name="Grupo 1110751" transform="translate(0.332 -1714)">
      <g id="Grupo_1108938" data-name="Grupo 1108938" transform="translate(335 5894)">
        <g id="Grupo_1073526" data-name="Grupo 1073526" transform="translate(0 0)">
          <g id="Grupo_1072785" data-name="Grupo 1072785" transform="translate(0 0)">
            <path id="Trazado_608385" data-name="Trazado 608385" d="M45.092,0A45.092,45.092,0,1,1,0,45.092,45.092,45.092,0,0,1,45.092,0Z" transform="translate(0 0)" fill="none"/>
          </g>
          <g id="Grupo_1073383" data-name="Grupo 1073383" transform="translate(0 0)">
            <path id="Trazado_608385-2" data-name="Trazado 608385" d="M45.092,0A45.092,45.092,0,1,1,0,45.092,45.092,45.092,0,0,1,45.092,0Z" transform="translate(0 0)" fill="#d8dec8"/>
          </g>
        </g>
      </g>
    </g>
    <g id="Grupo_1190485" data-name="Grupo 1190485" transform="translate(346.47 4197.835)">
      <g id="Grupo_1190484" data-name="Grupo 1190484" clip-path="url(#clip-path)">
        <path id="Trazado_1006051" data-name="Trazado 1006051" d="M32.686,72.788c11.618-.524,24.592,6.664,32.247,15.075.844.927,3.091,3.437,2.97,4.661-.137,1.38-3.487,4.9-4.584,5.968-8.313,8.092-20.341,14.331-32.211,13.339-10.184-.851-22.842-8.269-29.239-16.144-1.828-2.25-2.689-3-.833-5.6A41.877,41.877,0,0,1,8.675,82.6a29.52,29.52,0,0,1,3.6-2.528,1.029,1.029,0,0,1,1.232,1.067c-.05.775-2.569,2.236-3.3,2.824a51.656,51.656,0,0,0-6.3,5.77c-.378.427-2,2.311-1.887,2.724a22.031,22.031,0,0,0,2.4,3.06c6.367,7.018,16.991,13.3,26.519,14.274,11.042,1.133,22.3-4.65,30.172-11.98,1.022-.952,4.2-4.11,4.631-5.243.074-.2.128-.209.045-.444a20.981,20.981,0,0,0-2.124-2.649c-11.316-12.588-27.49-18.456-43.633-11.5-.933.4-4.355,2.8-4.477.61C15.511,77.859,17,77.2,17.587,76.9a38.258,38.258,0,0,1,15.1-4.108" transform="translate(0 -60.394)" fill="#004e3d"/>
        <path id="Trazado_1006052" data-name="Trazado 1006052" d="M116.517,124.49c.73-.768,2.015.255,2.882.515,15.516,4.653,24.516-15.469,11.846-23.914-11.621-7.745-25.987,5.36-19.221,17.691.381.7,2.181,2.873,2.24,3.208a1.02,1.02,0,0,1-1.1,1.273c-1.112-.161-3.377-4.323-3.794-5.4-5.739-14.81,12.277-27.6,24.268-17.469,12.816,10.833,1.758,31.352-14.279,26.687-.829-.241-4.144-1.223-2.846-2.59" transform="translate(-89.871 -80.317)" fill="#004e3d"/>
        <path id="Trazado_1006053" data-name="Trazado 1006053" d="M143,121.491a12.2,12.2,0,0,1,5.44.584c.761.274,2.652,1.125,1.564,2.171-.726.7-3.034-.651-4.164-.761-9.429-.914-14.407,10.419-7.225,16.4,7.516,6.263,18.4-1.88,14.426-11.026-.393-.906-1.9-2.458-.72-3.147,1.28-.747,2.361,1.85,2.744,2.823a11.312,11.312,0,0,1-16.391,13.841c-9.034-5.4-6.006-19.653,4.326-20.888" transform="translate(-110.659 -100.771)" fill="#004e3d"/>
        <path id="Trazado_1006054" data-name="Trazado 1006054" d="M170.135,161.646a3.134,3.134,0,0,1,3.31,4.5c-.183.375-4.845,5.089-5.314,5.395a3.31,3.31,0,0,1-2.922.218,27.2,27.2,0,0,1-4.182-3.977,3.067,3.067,0,0,1,4.061-4.4c.588.318.833.849,1.413,1.1,1.1-.873,2.154-2.588,3.633-2.836m.34,2.024c-1.039.189-2.97,3.448-4.108,3.372-.9-.06-1.841-1.914-2.57-2.04a1.057,1.057,0,0,0-1.233,1.411,40.232,40.232,0,0,0,3.271,3.359,1.216,1.216,0,0,0,1.124.085c.955-.31,3.652-3.759,4.62-4.556a1.066,1.066,0,0,0-1.1-1.631" transform="translate(-133.209 -134.132)" fill="#004e3d"/>
        <path id="Trazado_1006055" data-name="Trazado 1006055" d="M184.166,0a3.174,3.174,0,0,1,3.124,2.9,21.9,21.9,0,0,1-.213,5.41,3.061,3.061,0,0,1-5.92-.977c-.1-1.095-.129-4.663.261-5.532A3.4,3.4,0,0,1,184.166,0m-.156,2a1.023,1.023,0,0,0-.8.919,28.024,28.024,0,0,0-.019,4.417,1.048,1.048,0,0,0,2.045.158,29.013,29.013,0,0,0,.007-4.419c-.081-.7-.468-1.215-1.237-1.075" transform="translate(-150.313 0.001)" fill="#004e3d"/>
        <path id="Trazado_1006056" data-name="Trazado 1006056" d="M245.124,13.342a3.148,3.148,0,0,1,5.393,2.066c0,.954-2.064,4.611-2.734,5.439a3.058,3.058,0,0,1-5.306-2.927,42.1,42.1,0,0,1,2.646-4.578m1.758,1.164a.739.739,0,0,0-.367.312c-.2.246-2.046,3.479-2.094,3.685-.308,1.332.94,2.1,1.74,1.23a43.268,43.268,0,0,0,2.271-4.027c.193-.975-.666-1.472-1.55-1.2" transform="translate(-201.125 -10.288)" fill="#004e3d"/>
        <path id="Trazado_1006057" data-name="Trazado 1006057" d="M110.8,12.537a3.147,3.147,0,0,1,2.6.549,23.13,23.13,0,0,1,3.093,4.9,3.053,3.053,0,0,1-4.71,3.52c-.908-.673-3.385-5.058-3.323-6.2a3.178,3.178,0,0,1,2.342-2.769m.335,2.035a.982.982,0,0,0-.6,1.2,43.008,43.008,0,0,0,2.271,4.027c.847.919,2.216.012,1.643-1.474-.111-.287-1.92-3.39-2.068-3.54a1.274,1.274,0,0,0-1.248-.209" transform="translate(-90.022 -10.349)" fill="#004e3d"/>
      </g>
    </g>
  </g>
</svg>
