<svg xmlns="http://www.w3.org/2000/svg" xmlns:xlink="http://www.w3.org/1999/xlink" width="90.184" height="90.184" viewBox="0 0 90.184 90.184">
  <defs>
    <clipPath id="clip-path">
      <rect id="Rectángulo_459159" data-name="Rectángulo 459159" width="58.59" height="58.584" fill="#004e3d"/>
    </clipPath>
  </defs>
  <g id="Grupo_1190077" data-name="Grupo 1190077" transform="translate(-335.332 -4180)">
    <g id="Grupo_1110751" data-name="Grupo 1110751" transform="translate(0.332 -1714)">
      <g id="Grupo_1108938" data-name="Grupo 1108938" transform="translate(335 5894)">
        <g id="Grupo_1073526" data-name="Grupo 1073526" transform="translate(0 0)">
          <g id="Grupo_1072785" data-name="Grupo 1072785" transform="translate(0 0)">
            <path id="Trazado_608385" data-name="Trazado 608385" d="M45.092,0A45.092,45.092,0,1,1,0,45.092,45.092,45.092,0,0,1,45.092,0Z" transform="translate(0 0)" fill="none"/>
          </g>
          <g id="Grupo_1073383" data-name="Grupo 1073383" transform="translate(0 0)">
            <path id="Trazado_608385-2" data-name="Trazado 608385" d="M45.092,0A45.092,45.092,0,1,1,0,45.092,45.092,45.092,0,0,1,45.092,0Z" transform="translate(0 0)" fill="#d8dec8"/>
          </g>
        </g>
      </g>
    </g>
    <g id="Grupo_1190491" data-name="Grupo 1190491" transform="translate(351.129 4195.8)">
      <g id="Grupo_1190490" data-name="Grupo 1190490" clip-path="url(#clip-path)">
        <path id="Trazado_1006066" data-name="Trazado 1006066" d="M46.689,55.2c-2.828-2.7-5.6-5.448-8.336-8.235-.358-.068-1.613.812-2.074,1.024-17.846,8.184-37.4-5.03-36.23-24.6C.773,11.331,11.16.837,23.241.058A25.31,25.31,0,0,1,46.924,38.241c2.941,3.345,6.7,6.3,9.6,9.633a8.048,8.048,0,0,1,1.811,2.874,6.079,6.079,0,0,1-9.312,6.728A18.689,18.689,0,0,1,46.689,55.2M23.934,2.043C5.9,3.205-4.237,23.607,6.225,38.557,16.7,53.527,39.738,51.041,46.708,34.187,53.216,18.454,40.938.947,23.934,2.043m21.78,38.086a34.584,34.584,0,0,1-5.584,5.584l2.681,2.8,5.7-5.584a15.272,15.272,0,0,0-2.8-2.8m4.345,4.2-5.732,5.732c2.825,2.184,6.378,8.787,10.578,5.735,2.16-1.569,2.076-4.2.487-6.14-1.51-1.844-3.751-3.5-5.333-5.326" transform="translate(0.001 0)" fill="#004e3d"/>
        <path id="Trazado_1006067" data-name="Trazado 1006067" d="M44.362,25.245c17.295-1.416,29.264,16.77,20.416,31.887C56.69,70.95,36.437,71,28.27,57.234c-7.824-13.191.767-30.734,16.092-31.989m.969,1.938A19.233,19.233,0,0,0,30.76,57.329c8.867,12.809,28.684,10.063,33.831-4.584,4.506-12.822-5.66-26.525-19.261-25.561" transform="translate(-21.235 -21.101)" fill="#004e3d"/>
        <path id="Trazado_1006068" data-name="Trazado 1006068" d="M73.217,85.862a2.371,2.371,0,0,1-.827-2.57c3.367-6.607,7.365-12.91,10.977-19.4a3.064,3.064,0,0,1,5.112,0c3.12,6.006,7.245,11.815,10.291,17.82.681,1.343,1.119,2.187.213,3.612a2.93,2.93,0,0,1-2.31,1.406c-7.647.247-12.531.317-21.5,0a3.1,3.1,0,0,1-1.957-.87M85.554,64.625c-.348.1-.689.745-.891,1.05-3.6,5.414-6.4,11.841-9.974,17.328-.533,1.033-.174,1.688.969,1.792,7.578-.047,13.369-.047,20.532,0A1.089,1.089,0,0,0,97.159,83c-3.617-5.473-6.392-12.044-10.036-17.427-.409-.6-.683-1.217-1.569-.95" transform="translate(-60.664 -52.42)" fill="#004e3d"/>
        <path id="Trazado_1006069" data-name="Trazado 1006069" d="M150.613,106.443a1.148,1.148,0,0,1,1.092.459,46.039,46.039,0,0,1,.07,5.726c-.19,1.207-1.769,1.248-1.931-.148a36.514,36.514,0,0,1,.006-5.331.984.984,0,0,1,.763-.705" transform="translate(-125.556 -89.236)" fill="#004e3d"/>
        <path id="Trazado_1006070" data-name="Trazado 1006070" d="M146.764,164.224a1.788,1.788,0,1,1,.732,3.491c-2.136.291-2.707-3.035-.732-3.491" transform="translate(-122.036 -137.637)" fill="#004e3d"/>
      </g>
    </g>
  </g>
</svg>
