<svg xmlns="http://www.w3.org/2000/svg" xmlns:xlink="http://www.w3.org/1999/xlink" width="150" height="150" viewBox="0 0 150 150">
  <defs>
    <clipPath id="clip-path">
      <rect id="Rectángulo_459084" data-name="Rectángulo 459084" width="143.778" height="111.766" fill="none"/>
    </clipPath>
    <clipPath id="clip-path-3">
      <rect id="Rectángulo_459076" data-name="Rectángulo 459076" width="138.235" height="65.675" fill="none"/>
    </clipPath>
    <clipPath id="clip-path-4">
      <rect id="Rectángulo_459077" data-name="Rectángulo 459077" width="7.475" height="13.131" fill="none"/>
    </clipPath>
    <clipPath id="clip-path-5">
      <rect id="Rectángulo_459078" data-name="Rectángulo 459078" width="14.416" height="20.378" fill="none"/>
    </clipPath>
    <clipPath id="clip-path-6">
      <rect id="Rectángulo_459079" data-name="Rectángulo 459079" width="36.543" height="20.12" fill="none"/>
    </clipPath>
    <clipPath id="clip-path-7">
      <rect id="Rectángulo_459082" data-name="Rectángulo 459082" width="25.104" height="35.619" fill="none"/>
    </clipPath>
    <clipPath id="clip-path-8">
      <rect id="Rectángulo_459080" data-name="Rectángulo 459080" width="19.996" height="34.404" fill="none"/>
    </clipPath>
    <clipPath id="clip-path-9">
      <rect id="Rectángulo_459081" data-name="Rectángulo 459081" width="19.186" height="33.585" fill="none"/>
    </clipPath>
  </defs>
  <g id="Grupo_1190876" data-name="Grupo 1190876" transform="translate(-466.711 -13905)">
    <g id="Grupo_1190874" data-name="Grupo 1190874" transform="translate(9 8012)">
      <rect id="Rectángulo_459312" data-name="Rectángulo 459312" width="150" height="150" transform="translate(457.711 5893)" fill="none"/>
    </g>
    <g id="Grupo_1190373" data-name="Grupo 1190373" transform="translate(469.711 13924)">
      <g id="Grupo_1190372" data-name="Grupo 1190372" clip-path="url(#clip-path)">
        <g id="Grupo_1190371" data-name="Grupo 1190371">
          <g id="Grupo_1190370" data-name="Grupo 1190370" clip-path="url(#clip-path)">
            <g id="Grupo_1190351" data-name="Grupo 1190351" transform="translate(5.544 46.091)" style="mix-blend-mode: multiply;isolation: isolate">
              <g id="Grupo_1190350" data-name="Grupo 1190350">
                <g id="Grupo_1190349" data-name="Grupo 1190349" clip-path="url(#clip-path-3)">
                  <path id="Trazado_1005010" data-name="Trazado 1005010" d="M12.968,120.168l-2.716,2.03s-4.415,2.923,1.094,4.836l26.634,9s11.831,3.514,21.378-2.937l85.552-47.722s4.658-2.326-.6-3.338l-4.07-.05V71.314Z" transform="translate(-8.578 -71.314)" fill="#939292"/>
                </g>
              </g>
            </g>
            <path id="Trazado_1005011" data-name="Trazado 1005011" d="M129.772,137.071,125,135.8a2.345,2.345,0,0,1-1.1-1.22c-.642-2.749-1.125-4.158.032-7.067,1.732-4.354,5.453-6.961,8.311-5.825s3.772,5.589,2.04,9.941c-1.077,2.7-2.581,4.567-4.508,5.445" transform="translate(-43.585 -42.945)" fill="#131312"/>
            <path id="Trazado_1005012" data-name="Trazado 1005012" d="M168.794,113.854l-4.772-1.275a2.345,2.345,0,0,1-1.1-1.22c-.642-2.749-1.125-4.158.033-7.067,1.731-4.354,5.452-6.961,8.311-5.825s3.772,5.589,2.04,9.941c-1.076,2.706-2.58,4.568-4.508,5.445" transform="translate(-57.387 -34.733)" fill="#131312"/>
            <path id="Trazado_1005013" data-name="Trazado 1005013" d="M190.684,100.5l-4.772-1.275a2.336,2.336,0,0,1-1.1-1.22c-.642-2.749-1.126-4.158.032-7.067,1.732-4.354,5.453-6.961,8.311-5.825s3.772,5.589,2.04,9.941c-1.076,2.706-2.58,4.568-4.508,5.445" transform="translate(-65.129 -30.01)" fill="#131312"/>
            <path id="Trazado_1005014" data-name="Trazado 1005014" d="M48.114,48.7V97.079l42.323,15.886L90.341,65Z" transform="translate(-17.018 -17.226)" fill="#8c8b8b"/>
            <path id="Trazado_1005015" data-name="Trazado 1005015" d="M116.307,0,48.114,31.476l42.228,16.3,63.882-34.61Z" transform="translate(-17.018 0)" fill="#d2d1d1"/>
            <path id="Trazado_1005016" data-name="Trazado 1005016" d="M177.333,20.4,113.45,54.987l.1,47.966,63.787-38.975Z" transform="translate(-40.127 -7.214)" fill="#bababa"/>
            <path id="Trazado_1005017" data-name="Trazado 1005017" d="M113.6,56.671v1.783l63.787-35.267V21.824Z" transform="translate(-40.179 -7.719)" fill="#fff"/>
            <path id="Trazado_1005018" data-name="Trazado 1005018" d="M113.6,60.327V62.11l63.787-35.268V25.481Z" transform="translate(-40.179 -9.013)" fill="#fff"/>
            <path id="Trazado_1005019" data-name="Trazado 1005019" d="M113.6,63.985v1.783L177.385,30.5V29.138Z" transform="translate(-40.179 -10.306)" fill="#fff"/>
            <path id="Trazado_1005020" data-name="Trazado 1005020" d="M113.6,67.642v1.783l63.787-35.268V32.8Z" transform="translate(-40.179 -11.6)" fill="#fff"/>
            <path id="Trazado_1005021" data-name="Trazado 1005021" d="M113.6,71.3v1.783l63.787-35.267V36.453Z" transform="translate(-40.179 -12.893)" fill="#fff"/>
            <path id="Trazado_1005022" data-name="Trazado 1005022" d="M113.6,74.957v1.783l63.787-35.268V40.11Z" transform="translate(-40.179 -14.187)" fill="#fff"/>
            <path id="Trazado_1005023" data-name="Trazado 1005023" d="M113.6,78.613V80.4l63.787-35.268V43.767Z" transform="translate(-40.179 -15.48)" fill="#fff"/>
            <path id="Trazado_1005024" data-name="Trazado 1005024" d="M113.6,82.271v1.782l63.787-35.267V47.424Z" transform="translate(-40.179 -16.774)" fill="#fff"/>
            <path id="Trazado_1005025" data-name="Trazado 1005025" d="M113.6,85.928v1.783l63.787-35.268V51.082Z" transform="translate(-40.179 -18.067)" fill="#fff"/>
            <path id="Trazado_1005026" data-name="Trazado 1005026" d="M113.6,89.585v1.783L177.385,56.1V54.739Z" transform="translate(-40.179 -19.361)" fill="#fff"/>
            <path id="Trazado_1005027" data-name="Trazado 1005027" d="M113.6,93.243v1.783l63.787-35.268V58.4Z" transform="translate(-40.179 -20.654)" fill="#fff"/>
            <path id="Trazado_1005028" data-name="Trazado 1005028" d="M113.6,96.9v1.783l63.787-35.267V62.053Z" transform="translate(-40.179 -21.948)" fill="#fff"/>
            <path id="Trazado_1005029" data-name="Trazado 1005029" d="M113.6,100.557v1.782l63.787-35.266V65.709Z" transform="translate(-40.179 -23.241)" fill="#fff"/>
            <path id="Trazado_1005030" data-name="Trazado 1005030" d="M113.6,104.61v1.783l63.787-35.664V69.368Z" transform="translate(-40.179 -24.535)" fill="#fff"/>
            <path id="Trazado_1005031" data-name="Trazado 1005031" d="M113.6,108.7v1.783l63.787-36.094V73.025Z" transform="translate(-40.179 -25.829)" fill="#fff"/>
            <path id="Trazado_1005032" data-name="Trazado 1005032" d="M113.6,113.183v1.782l63.787-36.921V76.682Z" transform="translate(-40.179 -27.122)" fill="#fff"/>
            <path id="Trazado_1005033" data-name="Trazado 1005033" d="M113.6,117.667v1.783L177.385,81.7V80.339Z" transform="translate(-40.179 -28.416)" fill="#fff"/>
            <path id="Trazado_1005034" data-name="Trazado 1005034" d="M113.6,122.151v1.783l63.787-38.576V84Z" transform="translate(-40.179 -29.709)" fill="#fff"/>
            <path id="Trazado_1005035" data-name="Trazado 1005035" d="M14.566,86.042,6.994,88.161S2.161,89.188,2.2,95.7H4.727s.137-4.119,3.7-4.83l5.121-.786Z" transform="translate(-0.779 -30.433)" fill="#191818"/>
            <path id="Trazado_1005036" data-name="Trazado 1005036" d="M4.434,108.53,0,107.32V98.935l4.434,1.21Z" transform="translate(0 -34.993)" fill="#222"/>
            <path id="Trazado_1005037" data-name="Trazado 1005037" d="M6.86,100.66l.47-.269v7.957l-.47.7Z" transform="translate(-2.426 -35.508)" fill="#0d0d0c"/>
            <path id="Trazado_1005038" data-name="Trazado 1005038" d="M0,98.841l.625-.171L4.9,99.782l-.47.269Z" transform="translate(0 -34.899)" fill="#323233"/>
            <path id="Trazado_1005039" data-name="Trazado 1005039" d="M87.116,154.479,82.344,153.2a2.341,2.341,0,0,1-1.1-1.22c-.641-2.749-1.125-4.158.033-7.067,1.731-4.354,5.453-6.961,8.311-5.825s3.772,5.588,2.04,9.941c-1.076,2.706-2.58,4.568-4.508,5.446" transform="translate(-28.498 -49.102)" fill="#131312"/>
            <path id="Trazado_1005040" data-name="Trazado 1005040" d="M93.721,80.393,75.97,90.018s-4.814,1.448-5.242,9.234l-2.976,33.8s-.594,3.85,6.269-.332l19.7-11.585Z" transform="translate(-23.959 -28.435)" fill="#fff"/>
            <path id="Trazado_1005041" data-name="Trazado 1005041" d="M16.121,124.941s24.122,11.522,33.021,8.269l6.849-44.744L20.437,76.006c-4.625.528-5.642,6.378-5.642,6.378s-5.314,20.16-2.918,35.56a6.862,6.862,0,0,0,4.245,7" transform="translate(-3.981 -26.883)" fill="#fff"/>
            <path id="Trazado_1005042" data-name="Trazado 1005042" d="M48.863,137.723l.011,6.259c-12.058,2.224-37.441-10.214-37.441-10.214" transform="translate(-4.044 -47.313)" fill="none" stroke="#a3a3a3" stroke-linejoin="round" stroke-width="1.139"/>
            <path id="Trazado_1005043" data-name="Trazado 1005043" d="M42.871,60.134,22.409,71.156,57.366,84.216l20.322-11.01Z" transform="translate(-7.926 -21.269)" fill="#313031"/>
            <path id="Trazado_1005044" data-name="Trazado 1005044" d="M90.982,87.9l-9.391,5.177a10.805,10.805,0,0,0-5.62,8.748l-1.931,14.389a.367.367,0,0,0,.16.354.366.366,0,0,0,.388.014l16.394-9.36Z" transform="translate(-26.187 -31.092)" fill="#222"/>
            <path id="Trazado_1005045" data-name="Trazado 1005045" d="M90.754,90.571l-7.606,4.218-.022.011a9.772,9.772,0,0,0-5.021,7.883l-1.768,13.175,14.416-8.265Z" transform="translate(-27 -32.034)" fill="#77c7df"/>
            <g id="Grupo_1190354" data-name="Grupo 1190354" transform="translate(55.312 60.753)" style="mix-blend-mode: soft-light;isolation: isolate">
              <g id="Grupo_1190353" data-name="Grupo 1190353">
                <g id="Grupo_1190352" data-name="Grupo 1190352" clip-path="url(#clip-path-4)">
                  <path id="Trazado_1005046" data-name="Trazado 1005046" d="M87.043,97.3a4.322,4.322,0,0,0-.559.329,17.182,17.182,0,0,0-.674,2.679,14.59,14.59,0,0,0-.187,3.535,3.935,3.935,0,0,0,.755,2.25c1.122,1.3,3.392,1.205,4.864.66a5.506,5.506,0,0,0,1.526-.863,8.47,8.47,0,0,1,.29-1.215V94l-6,3.291Z" transform="translate(-85.582 -94.001)" fill="#fff"/>
                </g>
              </g>
            </g>
            <g id="Grupo_1190357" data-name="Grupo 1190357" transform="translate(49.338 63.445)" style="mix-blend-mode: multiply;isolation: isolate">
              <g id="Grupo_1190356" data-name="Grupo 1190356">
                <g id="Grupo_1190355" data-name="Grupo 1190355" clip-path="url(#clip-path-5)">
                  <path id="Trazado_1005047" data-name="Trazado 1005047" d="M88.669,110.481c-1.969.628-5.034.825-6.541-.918a5.2,5.2,0,0,1-1.113-2.775,17.294,17.294,0,0,1,.111-4.7,23.876,23.876,0,0,1,.917-3.924,10.051,10.051,0,0,0-3.937,7.2l-1.768,13.175,14.343-8.225c.006-.2.023-.521.074-.918a7.122,7.122,0,0,1-2.086,1.081" transform="translate(-76.338 -98.165)" fill="#77c7df"/>
                </g>
              </g>
            </g>
            <path id="Trazado_1005048" data-name="Trazado 1005048" d="M69.347,132.027l24.281-14.363" transform="translate(-24.528 -41.617)" fill="none" stroke="#a3a3a3" stroke-linejoin="round" stroke-width="1.139"/>
            <path id="Trazado_1005049" data-name="Trazado 1005049" d="M15.487,128.419a3.248,3.248,0,0,0,1.353,3.615s16.412,6.835,24.37,8.032a1.921,1.921,0,0,0,1.37-2.7Z" transform="translate(-5.437 -45.421)" fill="#313031"/>
            <path id="Trazado_1005050" data-name="Trazado 1005050" d="M20.42,76.006c-4.8.089-6.165,6.378-6.165,6.378a110.755,110.755,0,0,0-3.024,26.469s23.794,11,34.2,10.746c3.35.075,3.692-1.878,3.692-1.878a134.791,134.791,0,0,1,2-22.854c1.057-6.064,4.847-6.4,4.847-6.4S22.393,79.157,20.42,76.006" transform="translate(-3.965 -26.883)" fill="#222"/>
            <path id="Trazado_1005051" data-name="Trazado 1005051" d="M47.355,118.111s-.115,2.193-3.462,1.69c-.564-.085-22.891-5.172-32.7-11.419-.363-11.313,3.045-23.26,3.045-23.26s.7-2.108,2.453-1.269c10.01,4.791,29.735,9.279,29.735,9.279s3.087.284,2.539,4.69a153.717,153.717,0,0,0-1.612,20.288" transform="translate(-3.95 -29.589)" fill="#77c7df"/>
            <g id="Grupo_1190360" data-name="Grupo 1190360" transform="translate(7.218 70.167)" style="mix-blend-mode: multiply;isolation: isolate">
              <g id="Grupo_1190359" data-name="Grupo 1190359">
                <g id="Grupo_1190358" data-name="Grupo 1190358" clip-path="url(#clip-path-6)">
                  <path id="Trazado_1005052" data-name="Trazado 1005052" d="M44.072,121.608a11,11,0,0,1-4.3.829c-3.537.058-15.81-3.367-19.1-4.7a15.331,15.331,0,0,1-6.87-4.938,22.83,22.83,0,0,1-2.195-4.075l-.072-.16a65.393,65.393,0,0,0-.346,8.627c9.806,6.247,32.134,11.334,32.7,11.419,3.346.5,3.462-1.69,3.462-1.69.083-2.975.21-5.63.356-7.964a10.939,10.939,0,0,1-3.639,2.649" transform="translate(-11.168 -108.567)" fill="#77c7df"/>
                </g>
              </g>
            </g>
            <path id="Trazado_1005053" data-name="Trazado 1005053" d="M24.555,134.165a.482.482,0,0,1-.618.286l-2.289-.843a.481.481,0,0,1,.332-.9l2.289.842a.482.482,0,0,1,.286.618" transform="translate(-7.546 -46.926)" fill="#fff"/>
            <path id="Trazado_1005054" data-name="Trazado 1005054" d="M47.016,141.874a.481.481,0,0,1-.6.313l-2.323-.739a.482.482,0,0,1,.292-.918l2.324.74a.482.482,0,0,1,.312.6" transform="translate(-15.475 -49.697)" fill="#fff"/>
            <path id="Trazado_1005055" data-name="Trazado 1005055" d="M11.941,140.382l4.771,1.982s1.167-3.308-5.114-5.766c0,0-.449.131.338,3.69" transform="translate(-4.057 -48.314)" fill="#222"/>
            <path id="Trazado_1005056" data-name="Trazado 1005056" d="M15.34,140.218a1.134,1.134,0,1,1-1.134-1.134,1.135,1.135,0,0,1,1.134,1.134" transform="translate(-4.623 -49.193)" fill="#d2d1d1"/>
            <path id="Trazado_1005057" data-name="Trazado 1005057" d="M15,140.335a.662.662,0,0,0,.7.162.855.855,0,0,0-.745-1.218A.79.79,0,0,0,15,140.335" transform="translate(-5.226 -49.262)" fill="#fff"/>
            <path id="Trazado_1005058" data-name="Trazado 1005058" d="M14.154,140.535a1.227,1.227,0,0,1-.092-1.435,1.134,1.134,0,1,0,1.066,1.782.97.97,0,0,1-.974-.346" transform="translate(-4.623 -49.199)" fill="#bababa"/>
            <path id="Trazado_1005059" data-name="Trazado 1005059" d="M17.682,142.284a.767.767,0,1,1-.767-.767.768.768,0,0,1,.767.767" transform="translate(-5.711 -50.054)" fill="#d2d1d1"/>
            <path id="Trazado_1005060" data-name="Trazado 1005060" d="M17.454,142.361a.447.447,0,0,0,.472.109.578.578,0,0,0-.5-.823.532.532,0,0,0,.033.714" transform="translate(-6.119 -50.1)" fill="#fff"/>
            <path id="Trazado_1005061" data-name="Trazado 1005061" d="M16.881,142.5a.83.83,0,0,1-.063-.971.767.767,0,1,0,.722,1.205.655.655,0,0,1-.659-.234" transform="translate(-5.711 -50.057)" fill="#bababa"/>
            <path id="Trazado_1005062" data-name="Trazado 1005062" d="M13.129,138.435a.594.594,0,1,1-.593-.594.593.593,0,0,1,.593.594" transform="translate(-4.224 -48.754)" fill="#fca01f"/>
            <path id="Trazado_1005063" data-name="Trazado 1005063" d="M63.971,153.843v3.51L56.5,155.705s.375-3.668,7.473-1.863" transform="translate(-19.983 -54.237)" fill="#222"/>
            <path id="Trazado_1005064" data-name="Trazado 1005064" d="M61.981,154.483A1.232,1.232,0,1,0,63.7,154.2a1.233,1.233,0,0,0-1.719.282" transform="translate(-21.841 -54.458)" fill="#d2d1d1"/>
            <path id="Trazado_1005065" data-name="Trazado 1005065" d="M62.954,155.172a.717.717,0,0,1-.717-.3.911.911,0,0,1,.157-.37.93.93,0,0,1,1.27-.232.855.855,0,0,1-.71.9" transform="translate(-22.013 -54.51)" fill="#fff"/>
            <path id="Trazado_1005066" data-name="Trazado 1005066" d="M62.831,155.689a1.333,1.333,0,0,0,.99-1.208,1.231,1.231,0,1,1-2.069.9,1.052,1.052,0,0,0,1.079.311" transform="translate(-21.841 -54.639)" fill="#bababa"/>
            <path id="Trazado_1005067" data-name="Trazado 1005067" d="M59.129,154.991a.833.833,0,1,0,1.163-.192.833.833,0,0,0-1.163.192" transform="translate(-20.858 -54.696)" fill="#d2d1d1"/>
            <path id="Trazado_1005068" data-name="Trazado 1005068" d="M59.787,155.455a.484.484,0,0,1-.485-.2.627.627,0,0,1,.966-.407.579.579,0,0,1-.48.609" transform="translate(-20.975 -54.731)" fill="#fff"/>
            <path id="Trazado_1005069" data-name="Trazado 1005069" d="M59.7,155.8a.9.9,0,0,0,.669-.817.833.833,0,1,1-1.4.607.713.713,0,0,0,.731.21" transform="translate(-20.858 -54.818)" fill="#bababa"/>
            <path id="Trazado_1005070" data-name="Trazado 1005070" d="M65.83,154.556a.645.645,0,1,0,.9-.149.645.645,0,0,0-.9.149" transform="translate(-23.241 -54.57)" fill="#fca01f"/>
            <path id="Trazado_1005071" data-name="Trazado 1005071" d="M22.069,143.889c5.786,2.722,15.2,5.552,17.567,6.245v5.277c-4.529-1.189-15.233-5.556-17.567-6.517Zm-.736-1.18v6.678s14.669,6.1,19.039,6.953v-6.758s-12.762-3.66-19.039-6.873" transform="translate(-7.545 -50.475)" fill="#a3a3a3"/>
            <path id="Trazado_1005072" data-name="Trazado 1005072" d="M22.868,145.59v.641s10.9,4.578,17.055,5.958v-.641s-13.033-3.776-17.055-5.958" transform="translate(-8.088 -51.494)" fill="#bababa"/>
            <path id="Trazado_1005073" data-name="Trazado 1005073" d="M22.868,147.319v.641s11.057,4.537,17.055,5.96v-.642S26.89,149.5,22.868,147.319" transform="translate(-8.088 -52.106)" fill="#bababa"/>
            <path id="Trazado_1005074" data-name="Trazado 1005074" d="M22.868,149.047v.642s10.9,4.578,17.055,5.959v-.642s-13.033-3.777-17.055-5.959" transform="translate(-8.088 -52.717)" fill="#bababa"/>
            <path id="Trazado_1005075" data-name="Trazado 1005075" d="M22.868,150.777v.641s11.281,4.532,17.055,5.959v-.642s-13.033-3.777-17.055-5.958" transform="translate(-8.088 -53.329)" fill="#bababa"/>
            <path id="Trazado_1005076" data-name="Trazado 1005076" d="M72.689,102.852l-7.573,2.119s-4.832,1.026-4.792,7.541h2.526s.137-4.118,3.7-4.83l5.121-.786Z" transform="translate(-21.337 -36.378)" fill="#222"/>
            <path id="Trazado_1005077" data-name="Trazado 1005077" d="M62.557,125.341l-4.434-1.21v-8.385l4.434,1.209Z" transform="translate(-20.558 -40.939)" fill="#222"/>
            <path id="Trazado_1005078" data-name="Trazado 1005078" d="M64.983,117.471l.469-.268v7.956l-.469.7Z" transform="translate(-22.984 -41.454)" fill="#0d0d0c"/>
            <path id="Trazado_1005079" data-name="Trazado 1005079" d="M58.123,115.653l.625-.171,4.278,1.113-.469.268Z" transform="translate(-20.558 -40.845)" fill="#323233"/>
            <path id="Trazado_1005080" data-name="Trazado 1005080" d="M69.364,141.717c7.842-5.282,16.241-9.65,24.43-14.353" transform="translate(-24.534 -45.048)" fill="none" stroke="#a3a3a3" stroke-linejoin="round" stroke-width="0.397"/>
            <line id="Línea_27031" data-name="Línea 27031" y2="17.011" transform="translate(59.619 81.656)" fill="none" stroke="#a3a3a3" stroke-linejoin="round" stroke-width="0.397"/>
            <path id="Trazado_1005081" data-name="Trazado 1005081" d="M83.488,150.07s-1.727-9.512,5.677-13.452c0,0,7.054-4.62,8.3,4.766Z" transform="translate(-29.468 -47.919)" fill="#131312"/>
            <path id="Trazado_1005082" data-name="Trazado 1005082" d="M96.726,148.227c-1.732,4.353-5.453,6.961-8.311,5.824s-3.771-5.589-2.04-9.942,5.454-6.961,8.311-5.824,3.772,5.588,2.04,9.941" transform="translate(-30.24 -48.817)" fill="#303030"/>
            <path id="Trazado_1005083" data-name="Trazado 1005083" d="M95.837,149.68c-.9,2.276-2.85,3.639-4.345,3.044s-1.971-2.921-1.066-5.2,2.85-3.639,4.344-3.045,1.972,2.922,1.066,5.2" transform="translate(-31.821 -51.054)" fill="#131312"/>
            <path id="Trazado_1005084" data-name="Trazado 1005084" d="M95.96,149.251c-.8,2.011-2.519,3.217-3.84,2.691s-1.743-2.582-.943-4.594,2.519-3.217,3.841-2.692,1.743,2.583.942,4.595" transform="translate(-32.105 -51.121)" fill="#d2d1d1"/>
            <path id="Trazado_1005085" data-name="Trazado 1005085" d="M95.96,149.251c-.8,2.011-2.519,3.217-3.84,2.691s-1.743-2.582-.943-4.594,2.519-3.217,3.841-2.692,1.743,2.583.942,4.595" transform="translate(-32.105 -51.121)" fill="#d2d1d1"/>
            <path id="Trazado_1005086" data-name="Trazado 1005086" d="M95.679,149.462c-.536,1.345-1.638,2.17-2.462,1.843s-1.059-1.686-.524-3.031,1.637-2.17,2.462-1.842,1.059,1.684.524,3.03" transform="translate(-32.683 -51.767)" fill="#757474"/>
            <path id="Trazado_1005087" data-name="Trazado 1005087" d="M95.222,145.493a.274.274,0,1,1-.273-.274.274.274,0,0,1,.273.274" transform="translate(-33.486 -51.363)" fill="#d2d1d1"/>
            <path id="Trazado_1005088" data-name="Trazado 1005088" d="M95.141,145.521a.163.163,0,0,0,.169.039.213.213,0,0,0,.019-.088.207.207,0,0,0-.2-.207.191.191,0,0,0,.012.255" transform="translate(-33.632 -51.38)" fill="#fff"/>
            <path id="Trazado_1005089" data-name="Trazado 1005089" d="M94.937,145.569a.3.3,0,0,1-.023-.346.274.274,0,1,0,.257.43.233.233,0,0,1-.235-.083" transform="translate(-33.486 -51.365)" fill="#bababa"/>
            <path id="Trazado_1005090" data-name="Trazado 1005090" d="M97.225,145.352a.274.274,0,1,1-.274-.274.275.275,0,0,1,.274.274" transform="translate(-34.194 -51.313)" fill="#d2d1d1"/>
            <path id="Trazado_1005091" data-name="Trazado 1005091" d="M97.144,145.379a.161.161,0,0,0,.169.039.218.218,0,0,0,.019-.088.207.207,0,0,0-.2-.207.192.192,0,0,0,.012.255" transform="translate(-34.34 -51.33)" fill="#fff"/>
            <path id="Trazado_1005092" data-name="Trazado 1005092" d="M96.939,145.428a.3.3,0,0,1-.022-.347.274.274,0,0,0,.035.546.272.272,0,0,0,.222-.116.235.235,0,0,1-.235-.083" transform="translate(-34.194 -51.314)" fill="#bababa"/>
            <path id="Trazado_1005093" data-name="Trazado 1005093" d="M98.576,146.988a.274.274,0,1,1-.274-.274.274.274,0,0,1,.274.274" transform="translate(-34.672 -51.892)" fill="#d2d1d1"/>
            <path id="Trazado_1005094" data-name="Trazado 1005094" d="M98.494,147.016a.158.158,0,0,0,.169.039.216.216,0,0,0,.019-.087.208.208,0,0,0-.2-.207.191.191,0,0,0,.012.255" transform="translate(-34.817 -51.909)" fill="#fff"/>
            <path id="Trazado_1005095" data-name="Trazado 1005095" d="M98.29,147.064a.3.3,0,0,1-.023-.347.274.274,0,1,0,.258.43.234.234,0,0,1-.235-.083" transform="translate(-34.672 -51.893)" fill="#bababa"/>
            <path id="Trazado_1005096" data-name="Trazado 1005096" d="M98.8,149.471a.274.274,0,1,1-.273-.275.273.273,0,0,1,.273.275" transform="translate(-34.75 -52.77)" fill="#d2d1d1"/>
            <path id="Trazado_1005097" data-name="Trazado 1005097" d="M98.715,149.5a.158.158,0,0,0,.167.039.21.21,0,0,0,.02-.087.207.207,0,0,0-.2-.207.191.191,0,0,0,.013.255" transform="translate(-34.895 -52.787)" fill="#fff"/>
            <path id="Trazado_1005098" data-name="Trazado 1005098" d="M98.51,149.547a.3.3,0,0,1-.023-.347.274.274,0,1,0,.258.43.234.234,0,0,1-.235-.083" transform="translate(-34.75 -52.771)" fill="#bababa"/>
            <path id="Trazado_1005099" data-name="Trazado 1005099" d="M98.152,151.48a.274.274,0,1,1-.274-.273.274.274,0,0,1,.274.273" transform="translate(-34.522 -53.481)" fill="#d2d1d1"/>
            <path id="Trazado_1005100" data-name="Trazado 1005100" d="M98.071,151.508a.158.158,0,0,0,.168.039.207.207,0,0,0-.18-.295.191.191,0,0,0,.012.255" transform="translate(-34.668 -53.497)" fill="#fff"/>
            <path id="Trazado_1005101" data-name="Trazado 1005101" d="M97.866,151.557a.3.3,0,0,1-.023-.346.274.274,0,1,0,.258.43.235.235,0,0,1-.235-.084" transform="translate(-34.522 -53.483)" fill="#bababa"/>
            <path id="Trazado_1005102" data-name="Trazado 1005102" d="M97.09,153.406a.274.274,0,1,1-.274-.275.274.274,0,0,1,.274.275" transform="translate(-34.146 -54.162)" fill="#d2d1d1"/>
            <path id="Trazado_1005103" data-name="Trazado 1005103" d="M97.008,153.434a.16.16,0,0,0,.168.039.2.2,0,0,0,.02-.087.207.207,0,0,0-.2-.207.191.191,0,0,0,.012.255" transform="translate(-34.292 -54.179)" fill="#fff"/>
            <path id="Trazado_1005104" data-name="Trazado 1005104" d="M96.8,153.482a.3.3,0,0,1-.023-.347.274.274,0,1,0,.258.43.234.234,0,0,1-.235-.083" transform="translate(-34.146 -54.163)" fill="#bababa"/>
            <path id="Trazado_1005105" data-name="Trazado 1005105" d="M95.222,154.781a.274.274,0,1,1-.273-.274.274.274,0,0,1,.273.274" transform="translate(-33.486 -54.648)" fill="#d2d1d1"/>
            <path id="Trazado_1005106" data-name="Trazado 1005106" d="M95.141,154.809a.159.159,0,0,0,.169.039.205.205,0,0,0,.019-.087.208.208,0,0,0-.2-.207.19.19,0,0,0,.012.255" transform="translate(-33.632 -54.665)" fill="#fff"/>
            <path id="Trazado_1005107" data-name="Trazado 1005107" d="M94.937,154.856a.3.3,0,0,1-.023-.346.274.274,0,1,0,.257.43.234.234,0,0,1-.235-.084" transform="translate(-33.486 -54.649)" fill="#bababa"/>
            <path id="Trazado_1005108" data-name="Trazado 1005108" d="M93.318,154.923a.274.274,0,1,1-.274-.274.274.274,0,0,1,.274.274" transform="translate(-32.812 -54.699)" fill="#d2d1d1"/>
            <path id="Trazado_1005109" data-name="Trazado 1005109" d="M93.237,154.95a.161.161,0,0,0,.168.039.211.211,0,0,0,.02-.087.207.207,0,0,0-.2-.207.192.192,0,0,0,.012.255" transform="translate(-32.958 -54.715)" fill="#fff"/>
            <path id="Trazado_1005110" data-name="Trazado 1005110" d="M93.032,155a.3.3,0,0,1-.023-.346.274.274,0,1,0,.257.43.232.232,0,0,1-.235-.083" transform="translate(-32.812 -54.7)" fill="#bababa"/>
            <path id="Trazado_1005111" data-name="Trazado 1005111" d="M91.943,153.548a.274.274,0,1,1-.273-.274.273.273,0,0,1,.273.274" transform="translate(-32.326 -54.212)" fill="#d2d1d1"/>
            <path id="Trazado_1005112" data-name="Trazado 1005112" d="M91.862,153.575a.161.161,0,0,0,.169.039.218.218,0,0,0,.019-.087.207.207,0,0,0-.2-.207.19.19,0,0,0,.012.255" transform="translate(-32.472 -54.229)" fill="#fff"/>
            <path id="Trazado_1005113" data-name="Trazado 1005113" d="M91.658,153.623a.3.3,0,0,1-.022-.346.274.274,0,1,0,.257.43.234.234,0,0,1-.235-.084" transform="translate(-32.326 -54.213)" fill="#bababa"/>
            <path id="Trazado_1005114" data-name="Trazado 1005114" d="M91.581,151.248a.274.274,0,1,1-.274-.274.274.274,0,0,1,.274.274" transform="translate(-32.198 -53.399)" fill="#d2d1d1"/>
            <path id="Trazado_1005115" data-name="Trazado 1005115" d="M91.5,151.276a.16.16,0,0,0,.169.039.216.216,0,0,0,.019-.087.207.207,0,0,0-.2-.207.192.192,0,0,0,.012.255" transform="translate(-32.343 -53.415)" fill="#fff"/>
            <path id="Trazado_1005116" data-name="Trazado 1005116" d="M91.294,151.324a.3.3,0,0,1-.023-.347.274.274,0,1,0,.257.43.233.233,0,0,1-.235-.083" transform="translate(-32.198 -53.4)" fill="#bababa"/>
            <path id="Trazado_1005117" data-name="Trazado 1005117" d="M92.193,148.953a.274.274,0,1,1-.273-.274.274.274,0,0,1,.273.274" transform="translate(-32.414 -52.587)" fill="#d2d1d1"/>
            <path id="Trazado_1005118" data-name="Trazado 1005118" d="M92.112,148.981a.158.158,0,0,0,.168.039.215.215,0,0,0,.019-.087.206.206,0,0,0-.2-.206.19.19,0,0,0,.012.254" transform="translate(-32.56 -52.604)" fill="#fff"/>
            <path id="Trazado_1005119" data-name="Trazado 1005119" d="M91.907,149.028a.3.3,0,0,1-.023-.346.274.274,0,1,0,.258.43.233.233,0,0,1-.235-.084" transform="translate(-32.414 -52.588)" fill="#bababa"/>
            <path id="Trazado_1005120" data-name="Trazado 1005120" d="M93.357,146.894a.274.274,0,1,1-.273-.273.275.275,0,0,1,.273.273" transform="translate(-32.826 -51.859)" fill="#d2d1d1"/>
            <path id="Trazado_1005121" data-name="Trazado 1005121" d="M93.276,146.922a.159.159,0,0,0,.168.039.2.2,0,0,0,.019-.088.208.208,0,0,0-.2-.207.191.191,0,0,0,.012.255" transform="translate(-32.972 -51.875)" fill="#fff"/>
            <path id="Trazado_1005122" data-name="Trazado 1005122" d="M93.072,146.971a.3.3,0,0,1-.022-.346.274.274,0,1,0,.257.43.234.234,0,0,1-.235-.084" transform="translate(-32.826 -51.861)" fill="#bababa"/>
            <path id="Trazado_1005123" data-name="Trazado 1005123" d="M95.53,149.683c-.383.962-1.171,1.553-1.762,1.318s-.758-1.205-.375-2.168,1.172-1.554,1.762-1.318.758,1.206.375,2.168" transform="translate(-32.96 -52.157)" fill="#e8e8e8"/>
            <g id="Grupo_1190369" data-name="Grupo 1190369" transform="translate(12.456 54.151)" style="mix-blend-mode: soft-light;isolation: isolate">
              <g id="Grupo_1190368" data-name="Grupo 1190368">
                <g id="Grupo_1190367" data-name="Grupo 1190367" clip-path="url(#clip-path-7)">
                  <path id="Trazado_1005124" data-name="Trazado 1005124" d="M19.56,83.9a2.352,2.352,0,0,0-.288-.114l18.334,33.939q.855.248,1.662.465L21.036,84.578c-.494-.218-.987-.443-1.477-.679" transform="translate(-19.272 -83.785)" fill="#77c7df"/>
                  <g id="Grupo_1190363" data-name="Grupo 1190363" style="mix-blend-mode: soft-light;isolation: isolate">
                    <g id="Grupo_1190362" data-name="Grupo 1190362">
                      <g id="Grupo_1190361" data-name="Grupo 1190361" clip-path="url(#clip-path-8)">
                        <path id="Trazado_1005125" data-name="Trazado 1005125" d="M19.56,83.9a2.352,2.352,0,0,0-.288-.114l18.334,33.939q.855.248,1.662.465L21.036,84.578c-.494-.218-.987-.443-1.477-.679" transform="translate(-19.272 -83.785)" fill="#fff"/>
                      </g>
                    </g>
                  </g>
                  <path id="Trazado_1005126" data-name="Trazado 1005126" d="M24.383,86.034l18.142,33.329q.54.137,1.044.257L25.486,86.477q-.551-.217-1.1-.443" transform="translate(-21.08 -84.581)" fill="#77c7df"/>
                  <g id="Grupo_1190366" data-name="Grupo 1190366" transform="translate(3.303 1.453)" style="mix-blend-mode: soft-light;isolation: isolate">
                    <g id="Grupo_1190365" data-name="Grupo 1190365">
                      <g id="Grupo_1190364" data-name="Grupo 1190364" clip-path="url(#clip-path-9)">
                        <path id="Trazado_1005127" data-name="Trazado 1005127" d="M24.383,86.034l18.142,33.329q.54.137,1.044.257L25.486,86.477q-.551-.217-1.1-.443" transform="translate(-24.383 -86.034)" fill="#fff"/>
                      </g>
                    </g>
                  </g>
                  <path id="Trazado_1005128" data-name="Trazado 1005128" d="M41.851,92.114l9.479,30.017c.368.081.714.154,1.032.219L42.936,92.5c-.359-.125-.721-.252-1.084-.385" transform="translate(-27.258 -86.731)" fill="#77c7df"/>
                </g>
              </g>
            </g>
            <path id="Trazado_1005129" data-name="Trazado 1005129" d="M187.056,96.093s-1.727-9.512,5.678-13.451c0,0,7.053-4.622,8.295,4.764Z" transform="translate(-66.099 -28.828)" fill="#131312"/>
            <path id="Trazado_1005130" data-name="Trazado 1005130" d="M200.293,94.249c-1.732,4.354-5.452,6.961-8.311,5.825s-3.772-5.589-2.041-9.942,5.453-6.961,8.311-5.824,3.772,5.588,2.04,9.941" transform="translate(-66.872 -29.725)" fill="#303030"/>
            <path id="Trazado_1005131" data-name="Trazado 1005131" d="M199.4,95.7c-.9,2.276-2.85,3.639-4.344,3.045s-1.972-2.921-1.066-5.2,2.85-3.64,4.345-3.045,1.971,2.921,1.066,5.2" transform="translate(-68.452 -31.962)" fill="#131312"/>
            <path id="Trazado_1005132" data-name="Trazado 1005132" d="M199.527,95.273c-.8,2.012-2.52,3.217-3.84,2.692s-1.744-2.582-.944-4.594,2.52-3.218,3.841-2.691,1.743,2.581.943,4.593" transform="translate(-68.737 -32.029)" fill="#d2d1d1"/>
            <path id="Trazado_1005133" data-name="Trazado 1005133" d="M199.527,95.273c-.8,2.012-2.52,3.217-3.84,2.692s-1.744-2.582-.944-4.594,2.52-3.218,3.841-2.691,1.743,2.581.943,4.593" transform="translate(-68.737 -32.029)" fill="#d2d1d1"/>
            <path id="Trazado_1005134" data-name="Trazado 1005134" d="M199.246,95.483c-.535,1.346-1.638,2.17-2.462,1.843s-1.059-1.686-.524-3.031,1.637-2.17,2.462-1.843,1.059,1.686.524,3.031" transform="translate(-69.315 -32.675)" fill="#757474"/>
            <path id="Trazado_1005135" data-name="Trazado 1005135" d="M198.79,91.516a.274.274,0,1,1-.273-.274.274.274,0,0,1,.273.274" transform="translate(-70.117 -32.272)" fill="#d2d1d1"/>
            <path id="Trazado_1005136" data-name="Trazado 1005136" d="M198.709,91.543a.16.16,0,0,0,.168.039.2.2,0,0,0,.02-.087.207.207,0,0,0-.2-.207.191.191,0,0,0,.012.255" transform="translate(-70.263 -32.288)" fill="#fff"/>
            <path id="Trazado_1005137" data-name="Trazado 1005137" d="M198.5,91.592a.3.3,0,0,1-.023-.346.274.274,0,1,0,.257.43.235.235,0,0,1-.235-.083" transform="translate(-70.118 -32.273)" fill="#bababa"/>
            <path id="Trazado_1005138" data-name="Trazado 1005138" d="M200.793,91.374a.274.274,0,1,1-.273-.274.274.274,0,0,1,.273.274" transform="translate(-70.826 -32.222)" fill="#d2d1d1"/>
            <path id="Trazado_1005139" data-name="Trazado 1005139" d="M200.712,91.4a.158.158,0,0,0,.167.039.2.2,0,0,0,.02-.087.207.207,0,0,0-.2-.207.19.19,0,0,0,.012.255" transform="translate(-70.971 -32.238)" fill="#fff"/>
            <path id="Trazado_1005140" data-name="Trazado 1005140" d="M200.507,91.45a.3.3,0,0,1-.023-.346.274.274,0,1,0,.258.429.232.232,0,0,1-.235-.083" transform="translate(-70.826 -32.223)" fill="#bababa"/>
            <path id="Trazado_1005141" data-name="Trazado 1005141" d="M202.143,93.011a.274.274,0,1,1-.274-.274.274.274,0,0,1,.274.274" transform="translate(-71.303 -32.801)" fill="#d2d1d1"/>
            <path id="Trazado_1005142" data-name="Trazado 1005142" d="M202.062,93.038a.16.16,0,0,0,.169.04.211.211,0,0,0,.019-.088.206.206,0,0,0-.2-.206.19.19,0,0,0,.012.254" transform="translate(-71.449 -32.817)" fill="#fff"/>
            <path id="Trazado_1005143" data-name="Trazado 1005143" d="M201.857,93.087a.3.3,0,0,1-.022-.347.274.274,0,0,0,.034.546.272.272,0,0,0,.223-.116.234.234,0,0,1-.235-.083" transform="translate(-71.303 -32.802)" fill="#bababa"/>
            <path id="Trazado_1005144" data-name="Trazado 1005144" d="M202.363,95.493a.274.274,0,1,1-.273-.274.273.273,0,0,1,.273.274" transform="translate(-71.381 -33.678)" fill="#d2d1d1"/>
            <path id="Trazado_1005145" data-name="Trazado 1005145" d="M202.282,95.521a.159.159,0,0,0,.168.039.2.2,0,0,0,.019-.087.206.206,0,0,0-.2-.207.191.191,0,0,0,.012.255" transform="translate(-71.527 -33.695)" fill="#fff"/>
            <path id="Trazado_1005146" data-name="Trazado 1005146" d="M202.078,95.568a.3.3,0,0,1-.022-.346.274.274,0,1,0,.257.43.233.233,0,0,1-.235-.083" transform="translate(-71.381 -33.68)" fill="#bababa"/>
            <path id="Trazado_1005147" data-name="Trazado 1005147" d="M201.72,97.5a.274.274,0,1,1-.275-.274.274.274,0,0,1,.275.274" transform="translate(-71.153 -34.389)" fill="#d2d1d1"/>
            <path id="Trazado_1005148" data-name="Trazado 1005148" d="M201.638,97.531a.159.159,0,0,0,.168.039.206.206,0,0,0-.18-.293.189.189,0,0,0,.012.254" transform="translate(-71.299 -34.406)" fill="#fff"/>
            <path id="Trazado_1005149" data-name="Trazado 1005149" d="M201.434,97.579a.3.3,0,0,1-.023-.346.274.274,0,1,0,.258.43.235.235,0,0,1-.235-.084" transform="translate(-71.154 -34.391)" fill="#bababa"/>
            <path id="Trazado_1005150" data-name="Trazado 1005150" d="M200.657,99.428a.274.274,0,1,1-.274-.274.273.273,0,0,1,.274.274" transform="translate(-70.778 -35.07)" fill="#d2d1d1"/>
            <path id="Trazado_1005151" data-name="Trazado 1005151" d="M200.576,99.456a.159.159,0,0,0,.168.039.2.2,0,0,0,.019-.087.207.207,0,0,0-.2-.207.19.19,0,0,0,.012.255" transform="translate(-70.923 -35.087)" fill="#fff"/>
            <path id="Trazado_1005152" data-name="Trazado 1005152" d="M200.372,99.5a.3.3,0,0,1-.023-.346.274.274,0,1,0,.258.43.233.233,0,0,1-.235-.084" transform="translate(-70.778 -35.072)" fill="#bababa"/>
            <path id="Trazado_1005153" data-name="Trazado 1005153" d="M198.79,100.8a.274.274,0,1,1-.273-.274.274.274,0,0,1,.273.274" transform="translate(-70.117 -35.557)" fill="#d2d1d1"/>
            <path id="Trazado_1005154" data-name="Trazado 1005154" d="M198.709,100.831a.158.158,0,0,0,.168.039.2.2,0,0,0,.02-.087.207.207,0,0,0-.2-.207.191.191,0,0,0,.012.255" transform="translate(-70.263 -35.573)" fill="#fff"/>
            <path id="Trazado_1005155" data-name="Trazado 1005155" d="M198.5,100.879a.3.3,0,0,1-.023-.346.274.274,0,1,0,.257.43.234.234,0,0,1-.235-.084" transform="translate(-70.118 -35.558)" fill="#bababa"/>
            <path id="Trazado_1005156" data-name="Trazado 1005156" d="M196.886,100.945a.274.274,0,1,1-.275-.274.274.274,0,0,1,.275.274" transform="translate(-69.443 -35.607)" fill="#d2d1d1"/>
            <path id="Trazado_1005157" data-name="Trazado 1005157" d="M196.8,100.973a.16.16,0,0,0,.168.039.218.218,0,0,0,.019-.087.207.207,0,0,0-.2-.207.19.19,0,0,0,.012.255" transform="translate(-69.589 -35.623)" fill="#fff"/>
            <path id="Trazado_1005158" data-name="Trazado 1005158" d="M196.6,101.021a.3.3,0,0,1-.023-.347.274.274,0,1,0,.258.431.233.233,0,0,1-.235-.084" transform="translate(-69.444 -35.608)" fill="#bababa"/>
            <path id="Trazado_1005159" data-name="Trazado 1005159" d="M195.511,99.569a.274.274,0,1,1-.273-.273.274.274,0,0,1,.273.273" transform="translate(-68.958 -35.12)" fill="#d2d1d1"/>
            <path id="Trazado_1005160" data-name="Trazado 1005160" d="M195.43,99.6a.159.159,0,0,0,.169.039.216.216,0,0,0,.019-.087.207.207,0,0,0-.2-.207.189.189,0,0,0,.012.255" transform="translate(-69.103 -35.137)" fill="#fff"/>
            <path id="Trazado_1005161" data-name="Trazado 1005161" d="M195.225,99.645a.3.3,0,0,1-.022-.346.274.274,0,1,0,.257.43.233.233,0,0,1-.235-.084" transform="translate(-68.958 -35.122)" fill="#bababa"/>
            <path id="Trazado_1005162" data-name="Trazado 1005162" d="M195.149,97.27a.274.274,0,1,1-.274-.275.274.274,0,0,1,.274.275" transform="translate(-68.829 -34.307)" fill="#d2d1d1"/>
            <path id="Trazado_1005163" data-name="Trazado 1005163" d="M195.068,97.3a.159.159,0,0,0,.168.039.218.218,0,0,0,.019-.087.205.205,0,0,0-.2-.206.189.189,0,0,0,.012.254" transform="translate(-68.975 -34.324)" fill="#fff"/>
            <path id="Trazado_1005164" data-name="Trazado 1005164" d="M194.862,97.346A.3.3,0,0,1,194.84,97a.274.274,0,1,0,.257.43.233.233,0,0,1-.235-.084" transform="translate(-68.829 -34.308)" fill="#bababa"/>
            <path id="Trazado_1005165" data-name="Trazado 1005165" d="M195.761,94.976a.274.274,0,1,1-.275-.274.275.275,0,0,1,.275.274" transform="translate(-69.045 -33.496)" fill="#d2d1d1"/>
            <path id="Trazado_1005166" data-name="Trazado 1005166" d="M195.679,95a.159.159,0,0,0,.168.039.207.207,0,0,0-.18-.294.19.19,0,0,0,.012.255" transform="translate(-69.191 -33.512)" fill="#fff"/>
            <path id="Trazado_1005167" data-name="Trazado 1005167" d="M195.474,95.051a.3.3,0,0,1-.022-.346.274.274,0,1,0,.257.43.235.235,0,0,1-.235-.084" transform="translate(-69.046 -33.497)" fill="#bababa"/>
            <path id="Trazado_1005168" data-name="Trazado 1005168" d="M196.925,92.917a.274.274,0,1,1-.273-.274.274.274,0,0,1,.273.274" transform="translate(-69.458 -32.767)" fill="#d2d1d1"/>
            <path id="Trazado_1005169" data-name="Trazado 1005169" d="M196.844,92.945a.161.161,0,0,0,.168.039.207.207,0,0,0-.18-.295.191.191,0,0,0,.012.255" transform="translate(-69.603 -32.784)" fill="#fff"/>
            <path id="Trazado_1005170" data-name="Trazado 1005170" d="M196.64,92.993a.3.3,0,0,1-.023-.346.274.274,0,1,0,.257.43.234.234,0,0,1-.235-.084" transform="translate(-69.458 -32.769)" fill="#bababa"/>
            <path id="Trazado_1005171" data-name="Trazado 1005171" d="M199.1,95.7c-.383.964-1.172,1.554-1.762,1.319s-.758-1.206-.375-2.168,1.172-1.554,1.762-1.319.758,1.206.375,2.168" transform="translate(-69.591 -33.065)" fill="#e8e8e8"/>
            <path id="Trazado_1005172" data-name="Trazado 1005172" d="M126.143,132.662s-1.727-9.511,5.677-13.452c0,0,7.054-4.621,8.3,4.765Z" transform="translate(-44.554 -41.762)" fill="#131312"/>
            <path id="Trazado_1005173" data-name="Trazado 1005173" d="M139.382,130.819c-1.732,4.354-5.453,6.961-8.311,5.825s-3.772-5.589-2.04-9.942,5.453-6.961,8.311-5.824,3.771,5.588,2.04,9.941" transform="translate(-45.327 -42.659)" fill="#303030"/>
            <path id="Trazado_1005174" data-name="Trazado 1005174" d="M138.492,132.272c-.9,2.275-2.85,3.639-4.345,3.045s-1.971-2.922-1.066-5.2,2.85-3.64,4.344-3.045,1.972,2.922,1.066,5.2" transform="translate(-46.908 -44.896)" fill="#131312"/>
            <path id="Trazado_1005175" data-name="Trazado 1005175" d="M138.615,131.842c-.8,2.013-2.519,3.217-3.84,2.692s-1.744-2.583-.944-4.594,2.519-3.217,3.841-2.692,1.743,2.583.942,4.594" transform="translate(-47.192 -44.963)" fill="#d2d1d1"/>
            <path id="Trazado_1005176" data-name="Trazado 1005176" d="M138.615,131.842c-.8,2.013-2.519,3.217-3.84,2.692s-1.744-2.583-.944-4.594,2.519-3.217,3.841-2.692,1.743,2.583.942,4.594" transform="translate(-47.192 -44.963)" fill="#d2d1d1"/>
            <path id="Trazado_1005177" data-name="Trazado 1005177" d="M138.333,132.053c-.535,1.346-1.637,2.17-2.462,1.843s-1.059-1.686-.523-3.03,1.637-2.17,2.462-1.843,1.059,1.685.523,3.031" transform="translate(-47.77 -45.609)" fill="#757474"/>
            <path id="Trazado_1005178" data-name="Trazado 1005178" d="M137.878,128.085a.274.274,0,1,1-.273-.274.274.274,0,0,1,.273.274" transform="translate(-48.573 -45.206)" fill="#d2d1d1"/>
            <path id="Trazado_1005179" data-name="Trazado 1005179" d="M137.8,128.113a.16.16,0,0,0,.168.04.2.2,0,0,0,.019-.088.207.207,0,0,0-.2-.207.19.19,0,0,0,.012.255" transform="translate(-48.719 -45.223)" fill="#fff"/>
            <path id="Trazado_1005180" data-name="Trazado 1005180" d="M137.592,128.16a.3.3,0,0,1-.023-.346.274.274,0,1,0,.257.43.234.234,0,0,1-.235-.084" transform="translate(-48.573 -45.207)" fill="#bababa"/>
            <path id="Trazado_1005181" data-name="Trazado 1005181" d="M139.881,127.942a.274.274,0,1,1-.273-.273.274.274,0,0,1,.273.273" transform="translate(-49.281 -45.156)" fill="#d2d1d1"/>
            <path id="Trazado_1005182" data-name="Trazado 1005182" d="M139.8,127.972a.161.161,0,0,0,.168.039.21.21,0,0,0,.019-.087.2.2,0,0,0-.2-.206.189.189,0,0,0,.012.254" transform="translate(-49.427 -45.173)" fill="#fff"/>
            <path id="Trazado_1005183" data-name="Trazado 1005183" d="M139.595,128.02a.3.3,0,0,1-.022-.346.274.274,0,1,0,.257.43.234.234,0,0,1-.235-.083" transform="translate(-49.281 -45.158)" fill="#bababa"/>
            <path id="Trazado_1005184" data-name="Trazado 1005184" d="M141.231,129.58a.274.274,0,1,1-.274-.273.274.274,0,0,1,.274.273" transform="translate(-49.759 -45.735)" fill="#d2d1d1"/>
            <path id="Trazado_1005185" data-name="Trazado 1005185" d="M141.149,129.608a.161.161,0,0,0,.168.039.2.2,0,0,0,.021-.088.208.208,0,0,0-.2-.207.191.191,0,0,0,.012.255" transform="translate(-49.904 -45.752)" fill="#fff"/>
            <path id="Trazado_1005186" data-name="Trazado 1005186" d="M140.945,129.656a.3.3,0,0,1-.023-.346.274.274,0,1,0,.258.43.233.233,0,0,1-.235-.083" transform="translate(-49.759 -45.736)" fill="#bababa"/>
            <path id="Trazado_1005187" data-name="Trazado 1005187" d="M141.451,132.061a.274.274,0,1,1-.273-.274.274.274,0,0,1,.273.274" transform="translate(-49.837 -46.612)" fill="#d2d1d1"/>
            <path id="Trazado_1005188" data-name="Trazado 1005188" d="M141.369,132.09a.162.162,0,0,0,.169.039.208.208,0,0,0-.18-.294.19.19,0,0,0,.012.255" transform="translate(-49.982 -46.629)" fill="#fff"/>
            <path id="Trazado_1005189" data-name="Trazado 1005189" d="M141.165,132.138a.3.3,0,0,1-.023-.346.274.274,0,1,0,.258.43.235.235,0,0,1-.235-.084" transform="translate(-49.837 -46.614)" fill="#bababa"/>
            <path id="Trazado_1005190" data-name="Trazado 1005190" d="M140.807,134.072a.274.274,0,1,1-.274-.273.275.275,0,0,1,.274.273" transform="translate(-49.609 -47.324)" fill="#d2d1d1"/>
            <path id="Trazado_1005191" data-name="Trazado 1005191" d="M140.726,134.1a.158.158,0,0,0,.168.039.207.207,0,0,0-.18-.294.19.19,0,0,0,.012.255" transform="translate(-49.754 -47.341)" fill="#fff"/>
            <path id="Trazado_1005192" data-name="Trazado 1005192" d="M140.522,134.148a.3.3,0,0,1-.023-.346.274.274,0,1,0,.258.43.234.234,0,0,1-.235-.083" transform="translate(-49.609 -47.325)" fill="#bababa"/>
            <path id="Trazado_1005193" data-name="Trazado 1005193" d="M139.744,136a.274.274,0,1,1-.273-.274.273.273,0,0,1,.273.274" transform="translate(-49.233 -48.005)" fill="#d2d1d1"/>
            <path id="Trazado_1005194" data-name="Trazado 1005194" d="M139.663,136.026a.158.158,0,0,0,.168.039.207.207,0,0,0-.18-.294.19.19,0,0,0,.012.255" transform="translate(-49.379 -48.021)" fill="#fff"/>
            <path id="Trazado_1005195" data-name="Trazado 1005195" d="M139.459,136.073a.3.3,0,0,1-.023-.346.274.274,0,1,0,.258.43.234.234,0,0,1-.235-.084" transform="translate(-49.233 -48.006)" fill="#bababa"/>
            <path id="Trazado_1005196" data-name="Trazado 1005196" d="M137.878,137.373a.274.274,0,1,1-.273-.275.274.274,0,0,1,.273.275" transform="translate(-48.573 -48.491)" fill="#d2d1d1"/>
            <path id="Trazado_1005197" data-name="Trazado 1005197" d="M137.8,137.4a.162.162,0,0,0,.168.039.2.2,0,0,0,.019-.088.207.207,0,0,0-.2-.207.191.191,0,0,0,.012.255" transform="translate(-48.719 -48.508)" fill="#fff"/>
            <path id="Trazado_1005198" data-name="Trazado 1005198" d="M137.592,137.449a.3.3,0,0,1-.023-.347.274.274,0,1,0,.257.43.235.235,0,0,1-.235-.083" transform="translate(-48.573 -48.492)" fill="#bababa"/>
            <path id="Trazado_1005199" data-name="Trazado 1005199" d="M135.973,137.515a.274.274,0,1,1-.274-.274.274.274,0,0,1,.274.274" transform="translate(-47.899 -48.541)" fill="#d2d1d1"/>
            <path id="Trazado_1005200" data-name="Trazado 1005200" d="M135.892,137.542a.159.159,0,0,0,.169.04.22.22,0,0,0,.019-.087.206.206,0,0,0-.2-.207.191.191,0,0,0,.012.255" transform="translate(-48.045 -48.558)" fill="#fff"/>
            <path id="Trazado_1005201" data-name="Trazado 1005201" d="M135.687,137.591a.3.3,0,0,1-.023-.346.274.274,0,1,0,.257.43.233.233,0,0,1-.235-.083" transform="translate(-47.899 -48.543)" fill="#bababa"/>
            <path id="Trazado_1005202" data-name="Trazado 1005202" d="M134.6,136.14a.274.274,0,1,1-.273-.274.274.274,0,0,1,.273.274" transform="translate(-47.413 -48.055)" fill="#d2d1d1"/>
            <path id="Trazado_1005203" data-name="Trazado 1005203" d="M134.517,136.167a.16.16,0,0,0,.168.039.2.2,0,0,0,.02-.087.207.207,0,0,0-.2-.207.19.19,0,0,0,.012.255" transform="translate(-47.558 -48.071)" fill="#fff"/>
            <path id="Trazado_1005204" data-name="Trazado 1005204" d="M134.313,136.216a.3.3,0,0,1-.022-.346.274.274,0,1,0,.257.43.233.233,0,0,1-.235-.083" transform="translate(-47.413 -48.057)" fill="#bababa"/>
            <path id="Trazado_1005205" data-name="Trazado 1005205" d="M134.237,133.839a.274.274,0,1,1-.274-.273.275.275,0,0,1,.274.273" transform="translate(-47.285 -47.242)" fill="#d2d1d1"/>
            <path id="Trazado_1005206" data-name="Trazado 1005206" d="M134.154,133.867a.161.161,0,0,0,.169.039.218.218,0,0,0,.019-.087.207.207,0,0,0-.2-.207.191.191,0,0,0,.012.255" transform="translate(-47.43 -47.258)" fill="#fff"/>
            <path id="Trazado_1005207" data-name="Trazado 1005207" d="M133.95,133.915a.3.3,0,0,1-.023-.346.274.274,0,1,0,.257.43.233.233,0,0,1-.235-.084" transform="translate(-47.285 -47.243)" fill="#bababa"/>
            <path id="Trazado_1005208" data-name="Trazado 1005208" d="M134.847,131.545a.274.274,0,1,1-.273-.274.274.274,0,0,1,.273.274" transform="translate(-47.501 -46.43)" fill="#d2d1d1"/>
            <path id="Trazado_1005209" data-name="Trazado 1005209" d="M134.767,131.572a.159.159,0,0,0,.168.039.206.206,0,0,0-.18-.293.189.189,0,0,0,.012.254" transform="translate(-47.647 -46.446)" fill="#fff"/>
            <path id="Trazado_1005210" data-name="Trazado 1005210" d="M134.562,131.621a.3.3,0,0,1-.023-.346.274.274,0,1,0,.258.43.233.233,0,0,1-.235-.083" transform="translate(-47.502 -46.431)" fill="#bababa"/>
            <path id="Trazado_1005211" data-name="Trazado 1005211" d="M136.013,129.486a.274.274,0,1,1-.274-.274.275.275,0,0,1,.274.274" transform="translate(-47.913 -45.702)" fill="#d2d1d1"/>
            <path id="Trazado_1005212" data-name="Trazado 1005212" d="M135.931,129.514a.158.158,0,0,0,.168.04.2.2,0,0,0,.02-.087.207.207,0,0,0-.2-.207.191.191,0,0,0,.012.254" transform="translate(-48.059 -45.719)" fill="#fff"/>
            <path id="Trazado_1005213" data-name="Trazado 1005213" d="M135.727,129.562a.3.3,0,0,1-.023-.346.274.274,0,1,0,.258.43.234.234,0,0,1-.235-.083" transform="translate(-47.913 -45.703)" fill="#bababa"/>
            <path id="Trazado_1005214" data-name="Trazado 1005214" d="M138.186,132.275c-.383.962-1.172,1.553-1.762,1.318s-.758-1.205-.376-2.168,1.172-1.553,1.762-1.318.758,1.206.375,2.168" transform="translate(-48.047 -46)" fill="#e8e8e8"/>
            <path id="Trazado_1005215" data-name="Trazado 1005215" d="M165.166,109.446s-1.727-9.512,5.677-13.452c0,0,7.054-4.62,8.3,4.765Z" transform="translate(-58.357 -33.55)" fill="#131312"/>
            <path id="Trazado_1005216" data-name="Trazado 1005216" d="M178.4,107.6c-1.732,4.354-5.452,6.961-8.311,5.825s-3.772-5.589-2.04-9.942,5.453-6.962,8.311-5.824,3.771,5.587,2.04,9.941" transform="translate(-59.13 -34.448)" fill="#303030"/>
            <path id="Trazado_1005217" data-name="Trazado 1005217" d="M177.515,109.057c-.905,2.276-2.851,3.639-4.344,3.045s-1.973-2.922-1.067-5.2,2.85-3.64,4.345-3.045,1.972,2.921,1.066,5.2" transform="translate(-60.71 -36.685)" fill="#131312"/>
            <path id="Trazado_1005218" data-name="Trazado 1005218" d="M177.638,108.627c-.8,2.012-2.52,3.217-3.84,2.692s-1.743-2.582-.943-4.594,2.52-3.217,3.84-2.691,1.744,2.581.943,4.593" transform="translate(-60.994 -36.752)" fill="#d2d1d1"/>
            <path id="Trazado_1005219" data-name="Trazado 1005219" d="M177.638,108.627c-.8,2.012-2.52,3.217-3.84,2.692s-1.743-2.582-.943-4.594,2.52-3.217,3.84-2.691,1.744,2.581.943,4.593" transform="translate(-60.994 -36.752)" fill="#d2d1d1"/>
            <path id="Trazado_1005220" data-name="Trazado 1005220" d="M177.356,108.837c-.535,1.346-1.638,2.17-2.462,1.843s-1.059-1.685-.524-3.03,1.638-2.17,2.462-1.843,1.059,1.686.524,3.031" transform="translate(-61.572 -37.398)" fill="#757474"/>
            <path id="Trazado_1005221" data-name="Trazado 1005221" d="M176.9,104.868a.274.274,0,1,1-.273-.274.274.274,0,0,1,.273.274" transform="translate(-62.375 -36.994)" fill="#d2d1d1"/>
            <path id="Trazado_1005222" data-name="Trazado 1005222" d="M176.819,104.9a.159.159,0,0,0,.168.039.2.2,0,0,0,.02-.087.207.207,0,0,0-.2-.207.191.191,0,0,0,.012.255" transform="translate(-62.521 -37.011)" fill="#fff"/>
            <path id="Trazado_1005223" data-name="Trazado 1005223" d="M176.615,104.944a.3.3,0,0,1-.023-.346.274.274,0,1,0,.257.43.234.234,0,0,1-.235-.084" transform="translate(-62.375 -36.996)" fill="#bababa"/>
            <path id="Trazado_1005224" data-name="Trazado 1005224" d="M178.9,104.727a.274.274,0,1,1-.273-.274.274.274,0,0,1,.273.274" transform="translate(-63.083 -36.945)" fill="#d2d1d1"/>
            <path id="Trazado_1005225" data-name="Trazado 1005225" d="M178.822,104.755a.162.162,0,0,0,.168.039.2.2,0,0,0,.019-.088.206.206,0,0,0-.2-.207.191.191,0,0,0,.012.255" transform="translate(-63.229 -36.961)" fill="#fff"/>
            <path id="Trazado_1005226" data-name="Trazado 1005226" d="M178.617,104.8a.3.3,0,0,1-.022-.346.274.274,0,1,0,.257.429.234.234,0,0,1-.235-.083" transform="translate(-63.083 -36.946)" fill="#bababa"/>
            <path id="Trazado_1005227" data-name="Trazado 1005227" d="M180.254,106.364a.274.274,0,1,1-.274-.274.274.274,0,0,1,.274.274" transform="translate(-63.561 -37.523)" fill="#d2d1d1"/>
            <path id="Trazado_1005228" data-name="Trazado 1005228" d="M180.173,106.392a.161.161,0,0,0,.168.039.207.207,0,0,0-.18-.295.192.192,0,0,0,.012.255" transform="translate(-63.707 -37.54)" fill="#fff"/>
            <path id="Trazado_1005229" data-name="Trazado 1005229" d="M179.968,106.439a.3.3,0,0,1-.022-.346.274.274,0,1,0,.257.431.235.235,0,0,1-.235-.085" transform="translate(-63.561 -37.525)" fill="#bababa"/>
            <path id="Trazado_1005230" data-name="Trazado 1005230" d="M180.474,108.846a.274.274,0,1,1-.273-.274.275.275,0,0,1,.273.274" transform="translate(-63.639 -38.401)" fill="#d2d1d1"/>
            <path id="Trazado_1005231" data-name="Trazado 1005231" d="M180.393,108.873a.16.16,0,0,0,.168.04.207.207,0,0,0-.18-.294.189.189,0,0,0,.012.254" transform="translate(-63.784 -38.418)" fill="#fff"/>
            <path id="Trazado_1005232" data-name="Trazado 1005232" d="M180.188,108.922a.3.3,0,0,1-.022-.346.274.274,0,1,0,.257.43.234.234,0,0,1-.235-.083" transform="translate(-63.639 -38.403)" fill="#bababa"/>
            <path id="Trazado_1005233" data-name="Trazado 1005233" d="M179.83,110.856a.274.274,0,1,1-.273-.274.274.274,0,0,1,.273.274" transform="translate(-63.411 -39.112)" fill="#d2d1d1"/>
            <path id="Trazado_1005234" data-name="Trazado 1005234" d="M179.749,110.884a.16.16,0,0,0,.168.039.207.207,0,0,0-.181-.295.192.192,0,0,0,.013.255" transform="translate(-63.557 -39.129)" fill="#fff"/>
            <path id="Trazado_1005235" data-name="Trazado 1005235" d="M179.544,110.933a.3.3,0,0,1-.023-.346.274.274,0,1,0,.258.43.233.233,0,0,1-.235-.084" transform="translate(-63.411 -39.114)" fill="#bababa"/>
            <path id="Trazado_1005236" data-name="Trazado 1005236" d="M178.767,112.781a.274.274,0,1,1-.273-.273.274.274,0,0,1,.273.273" transform="translate(-63.035 -39.794)" fill="#d2d1d1"/>
            <path id="Trazado_1005237" data-name="Trazado 1005237" d="M178.687,112.81a.158.158,0,0,0,.168.039.208.208,0,0,0,.019-.087.206.206,0,0,0-.2-.206.19.19,0,0,0,.012.254" transform="translate(-63.181 -39.81)" fill="#fff"/>
            <path id="Trazado_1005238" data-name="Trazado 1005238" d="M178.482,112.857a.3.3,0,0,1-.023-.346.274.274,0,1,0,.258.43.234.234,0,0,1-.235-.084" transform="translate(-63.036 -39.795)" fill="#bababa"/>
            <path id="Trazado_1005239" data-name="Trazado 1005239" d="M176.9,114.157a.274.274,0,1,1-.273-.274.274.274,0,0,1,.273.274" transform="translate(-62.375 -40.28)" fill="#d2d1d1"/>
            <path id="Trazado_1005240" data-name="Trazado 1005240" d="M176.819,114.186a.162.162,0,0,0,.168.039.2.2,0,0,0,.02-.088.206.206,0,0,0-.2-.206.191.191,0,0,0,.012.255" transform="translate(-62.521 -40.297)" fill="#fff"/>
            <path id="Trazado_1005241" data-name="Trazado 1005241" d="M176.615,114.232a.3.3,0,0,1-.023-.346.274.274,0,1,0,.257.43.233.233,0,0,1-.235-.084" transform="translate(-62.375 -40.281)" fill="#bababa"/>
            <path id="Trazado_1005242" data-name="Trazado 1005242" d="M175,114.3a.274.274,0,1,1-.274-.274.275.275,0,0,1,.274.274" transform="translate(-61.701 -40.33)" fill="#d2d1d1"/>
            <path id="Trazado_1005243" data-name="Trazado 1005243" d="M174.915,114.326a.161.161,0,0,0,.168.04.213.213,0,0,0,.019-.088.207.207,0,0,0-.2-.207.19.19,0,0,0,.012.255" transform="translate(-61.847 -40.346)" fill="#fff"/>
            <path id="Trazado_1005244" data-name="Trazado 1005244" d="M174.71,114.375a.3.3,0,0,1-.023-.346.274.274,0,1,0,.257.43.234.234,0,0,1-.235-.083" transform="translate(-61.701 -40.331)" fill="#bababa"/>
            <path id="Trazado_1005245" data-name="Trazado 1005245" d="M173.622,112.923a.274.274,0,1,1-.274-.273.274.274,0,0,1,.274.273" transform="translate(-61.215 -39.844)" fill="#d2d1d1"/>
            <path id="Trazado_1005246" data-name="Trazado 1005246" d="M173.54,112.95a.16.16,0,0,0,.169.039.215.215,0,0,0,.019-.087.207.207,0,0,0-.2-.207.192.192,0,0,0,.012.255" transform="translate(-61.361 -39.86)" fill="#fff"/>
            <path id="Trazado_1005247" data-name="Trazado 1005247" d="M173.336,113a.3.3,0,0,1-.023-.346.274.274,0,1,0,.258.43.235.235,0,0,1-.235-.084" transform="translate(-61.215 -39.845)" fill="#bababa"/>
            <path id="Trazado_1005248" data-name="Trazado 1005248" d="M173.259,110.623a.274.274,0,1,1-.274-.274.275.275,0,0,1,.274.274" transform="translate(-61.087 -39.03)" fill="#d2d1d1"/>
            <path id="Trazado_1005249" data-name="Trazado 1005249" d="M173.177,110.651a.161.161,0,0,0,.169.039.207.207,0,0,0-.18-.295.192.192,0,0,0,.012.255" transform="translate(-61.233 -39.047)" fill="#fff"/>
            <path id="Trazado_1005250" data-name="Trazado 1005250" d="M172.973,110.7a.3.3,0,0,1-.023-.346.274.274,0,1,0,.257.43.234.234,0,0,1-.235-.083" transform="translate(-61.087 -39.031)" fill="#bababa"/>
            <path id="Trazado_1005251" data-name="Trazado 1005251" d="M173.871,108.329a.274.274,0,1,1-.274-.274.274.274,0,0,1,.274.274" transform="translate(-61.303 -38.219)" fill="#d2d1d1"/>
            <path id="Trazado_1005252" data-name="Trazado 1005252" d="M173.79,108.357a.161.161,0,0,0,.168.04.221.221,0,0,0,.019-.088.206.206,0,0,0-.2-.207.191.191,0,0,0,.012.255" transform="translate(-61.449 -38.235)" fill="#fff"/>
            <path id="Trazado_1005253" data-name="Trazado 1005253" d="M173.584,108.4a.3.3,0,0,1-.022-.346.274.274,0,1,0,.258.43.235.235,0,0,1-.236-.084" transform="translate(-61.303 -38.22)" fill="#bababa"/>
            <path id="Trazado_1005254" data-name="Trazado 1005254" d="M175.035,106.27a.274.274,0,1,1-.273-.274.274.274,0,0,1,.273.274" transform="translate(-61.716 -37.49)" fill="#d2d1d1"/>
            <path id="Trazado_1005255" data-name="Trazado 1005255" d="M174.954,106.3a.158.158,0,0,0,.168.039.193.193,0,0,0,.019-.087.207.207,0,0,0-.2-.207.191.191,0,0,0,.012.255" transform="translate(-61.861 -37.507)" fill="#fff"/>
            <path id="Trazado_1005256" data-name="Trazado 1005256" d="M174.75,106.347a.3.3,0,0,1-.023-.346.274.274,0,1,0,.258.43.235.235,0,0,1-.235-.084" transform="translate(-61.716 -37.492)" fill="#bababa"/>
            <path id="Trazado_1005257" data-name="Trazado 1005257" d="M177.209,109.059c-.383.963-1.172,1.552-1.762,1.318s-.757-1.205-.375-2.168,1.172-1.554,1.762-1.318.758,1.205.375,2.168" transform="translate(-61.849 -37.788)" fill="#e8e8e8"/>
          </g>
        </g>
      </g>
    </g>
  </g>
</svg>
