<svg xmlns="http://www.w3.org/2000/svg" xmlns:xlink="http://www.w3.org/1999/xlink" width="150" height="150" viewBox="0 0 150 150">
  <defs>
    <clipPath id="clip-path">
      <rect id="Rectángulo_459075" data-name="Rectángulo 459075" width="140.853" height="125.14" fill="none"/>
    </clipPath>
    <clipPath id="clip-path-3">
      <rect id="Rectángulo_459069" data-name="Rectángulo 459069" width="137.308" height="79.276" fill="none"/>
    </clipPath>
    <clipPath id="clip-path-5">
      <rect id="Rectángulo_459071" data-name="Rectángulo 459071" width="34.155" height="20.094" fill="none"/>
    </clipPath>
    <clipPath id="clip-path-6">
      <rect id="Rectángulo_459072" data-name="Rectángulo 459072" width="34.154" height="20.092" fill="none"/>
    </clipPath>
  </defs>
  <g id="Grupo_1190877" data-name="Grupo 1190877" transform="translate(-974.711 -13905)">
    <g id="Grupo_1190875" data-name="Grupo 1190875" transform="translate(517 8012)">
      <rect id="Rectángulo_459312" data-name="Rectángulo 459312" width="150" height="150" transform="translate(457.711 5893)" fill="none"/>
    </g>
    <g id="Grupo_1190348" data-name="Grupo 1190348" transform="translate(979.711 13917)">
      <g id="Grupo_1190347" data-name="Grupo 1190347" clip-path="url(#clip-path)">
        <g id="Grupo_1190335" data-name="Grupo 1190335" transform="translate(0 0.001)">
          <g id="Grupo_1190334" data-name="Grupo 1190334" clip-path="url(#clip-path)">
            <g id="Grupo_1190333" data-name="Grupo 1190333" transform="translate(2.453 45.864)" opacity="0.3">
              <g id="Grupo_1190332" data-name="Grupo 1190332">
                <g id="Grupo_1190331" data-name="Grupo 1190331" clip-path="url(#clip-path-3)">
                  <path id="Trazado_1004788" data-name="Trazado 1004788" d="M119.445,37.853l-13.717-7.92L1.6,90.049l33.181,19.161L138.909,49.092,126.2,41.754" transform="translate(-1.601 -29.933)"/>
                </g>
              </g>
            </g>
          </g>
        </g>
        <path id="Trazado_1004789" data-name="Trazado 1004789" d="M62.772,17.749,101.9,47.5l2.9-1.676V38.655L65.675,16.074Z" transform="translate(33.41 8.555)" fill="#121214"/>
        <path id="Trazado_1004790" data-name="Trazado 1004790" d="M62.772,17.167l0,7.172L101.9,46.922l0-7.174Z" transform="translate(33.41 9.137)"/>
        <path id="Trazado_1004791" data-name="Trazado 1004791" d="M16.682,52.122,51.891,72.441,52.956,61.97l-36.273-19.6Z" transform="translate(8.879 22.551)" fill="#121214"/>
        <path id="Trazado_1004792" data-name="Trazado 1004792" d="M39.661,78.026l63-36.374.04-9.776-63.041,36.4Z" transform="translate(21.109 16.966)"/>
        <path id="Trazado_1004793" data-name="Trazado 1004793" d="M15.265,44.912,54.386,67.5V64.338L15.265,41.748Z" transform="translate(8.125 22.22)" fill="#303033"/>
        <path id="Trazado_1004794" data-name="Trazado 1004794" d="M75.657,39.781l.222,1.079,6.78,3.915.348-2.438-2.669-3.262Z" transform="translate(40.268 20.797)" fill="#121214"/>
        <g id="Grupo_1190346" data-name="Grupo 1190346" transform="translate(0 0.001)">
          <g id="Grupo_1190345" data-name="Grupo 1190345" clip-path="url(#clip-path)">
            <path id="Trazado_1004795" data-name="Trazado 1004795" d="M77.5,40.687a16.032,16.032,0,0,0-7.228,12.52c0,4.617,3.25,6.477,7.228,4.165A15.9,15.9,0,0,0,84.738,44.86c0-4.609-3.227-6.486-7.243-4.172" transform="translate(37.4 21.127)" fill="#333"/>
            <path id="Trazado_1004796" data-name="Trazado 1004796" d="M78.215,37.644c-1.293-.7-3.058-.573-5.01.542a16.015,16.015,0,0,0-7.237,12.538c0,2.211.749,3.789,1.97,4.589l6.576,3.8c-1.206-.794-1.957-2.381-1.957-4.583a16.032,16.032,0,0,1,7.226-12.52c1.995-1.137,3.775-1.256,5.075-.535l-6.635-3.832Z" transform="translate(35.111 19.805)" fill="#474747"/>
            <path id="Trazado_1004797" data-name="Trazado 1004797" d="M77.3,40.573a15.949,15.949,0,0,0-7.211,12.52c0,3.449,1.969,4.581,1.969,4.581l.27.176c-1.206-.794-1.957-2.381-1.957-4.583a16.038,16.038,0,0,1,7.226-12.521c1.995-1.135,3.775-1.255,5.075-.535l-.34-.2c-1.295-.688-3.077-.573-5.032.561" transform="translate(37.302 21.069)" fill="#575757"/>
            <path id="Trazado_1004798" data-name="Trazado 1004798" d="M75.9,39.764a15.991,15.991,0,0,0-7.229,12.517c0,3.452,1.969,4.6,1.969,4.6l.271.153h.029c-1.232-.785-1.987-2.363-1.987-4.569A15.992,15.992,0,0,1,76.2,39.931c1.974-1.134,3.757-1.25,5.076-.512l-.355-.21c-1.292-.688-3.066-.57-5.018.555" transform="translate(36.551 20.641)" fill="#2b2b2b"/>
            <path id="Trazado_1004799" data-name="Trazado 1004799" d="M74.466,38.928a15.929,15.929,0,0,0-7.251,12.515c0,3.444,1.981,4.58,1.981,4.58l.288.178c-1.217-.794-1.955-2.357-1.955-4.578A15.959,15.959,0,0,1,74.751,39.1c1.984-1.154,3.778-1.256,5.067-.536l-.348-.2c-1.305-.688-3.066-.576-5,.562" transform="translate(35.775 20.192)" fill="#2b2b2b"/>
            <path id="Trazado_1004800" data-name="Trazado 1004800" d="M81.843,39.778c-.477-.164-2.173-.6-2.173-.6l-.746.671-2.346.245-.454,1.27-1.921.273L74.011,43.4l-1.882.568.169,1.849-1.63.958.323,1.767-1.324,1.252.565,1.646L69.263,53l.933,1.374-.424.984L71.05,56.65l.083.464.215.138-.172-.614L69.963,55.4l.449-.981L69.514,53l.961-1.477-.556-1.681L71.261,48.6l-.349-1.736,1.624-.941-.141-1.865,1.866-.556.169-1.725,1.924-.274.447-1.278,2.331-.239.752-.691s1.587.432,1.993.558a3.648,3.648,0,0,1,.748.285l-.282-.133a3.409,3.409,0,0,0-.5-.228" transform="translate(36.865 20.852)" fill="#333"/>
            <path id="Trazado_1004801" data-name="Trazado 1004801" d="M80.331,38.912c-.464-.175-2.193-.616-2.193-.616l-.722.657-2.355.264L74.608,40.5l-1.923.26-.195,1.759-1.882.568.178,1.848-1.624.964.317,1.757-1.328,1.258.564,1.643-.975,1.561L68.7,53.5l-.434.987,1.273,1.295.07.466.237.116-.175-.607-1.207-1.229.45-.985-.918-1.417.95-1.5-.538-1.664,1.338-1.241L69.4,45.985l1.633-.91-.15-1.892,1.892-.561.139-1.71,1.937-.3.446-1.256,2.317-.247.765-.676s1.594.423,2,.556a3.388,3.388,0,0,1,.751.3l-.293-.165a3.313,3.313,0,0,0-.5-.208" transform="translate(36.055 20.382)" fill="#333"/>
            <path id="Trazado_1004802" data-name="Trazado 1004802" d="M79.327,38.266a2.848,2.848,0,0,0-.5-.227c-.463-.167-2.2-.613-2.2-.613l-.735.685-2.352.253L73.1,39.631l-1.912.283L71,41.663l-1.888.573.167,1.839-1.632.952.34,1.776-1.339,1.247.57,1.647-.975,1.574.932,1.371-.421.982,1.272,1.287.092.464.227.127-.179-.6-1.22-1.249.454-.973-.9-1.408.959-1.483L66.9,48.106l1.336-1.252L67.9,45.135l1.613-.935-.129-1.865,1.871-.564.152-1.733,1.952-.29.434-1.263,2.3-.251.785-.677s1.572.44,2,.553a3.27,3.27,0,0,1,.739.316l-.29-.176Z" transform="translate(35.257 19.919)" fill="#333"/>
            <path id="Trazado_1004803" data-name="Trazado 1004803" d="M76.761,42.167a11.365,11.365,0,0,0-5.113,8.879c0,3.274,2.291,4.594,5.113,2.971A11.312,11.312,0,0,0,81.9,45.124c0-3.271-2.294-4.581-5.141-2.957" transform="translate(38.134 22.072)" fill="#1f1f1f"/>
            <path id="Trazado_1004804" data-name="Trazado 1004804" d="M76.534,42.624a9.9,9.9,0,0,0-4.46,7.762c0,2.85,1.986,4.019,4.46,2.589a9.915,9.915,0,0,0,4.491-7.761c0-2.861-2.007-4.013-4.491-2.591" transform="translate(38.361 22.362)" fill="#919191"/>
            <path id="Trazado_1004805" data-name="Trazado 1004805" d="M75.53,44.667a3.523,3.523,0,0,0-1.569,2.752c0,1.014.7,1.422,1.569.909a3.5,3.5,0,0,0,1.592-2.746c0-1-.716-1.413-1.592-.915" transform="translate(39.365 23.661)" fill="#707070"/>
            <path id="Trazado_1004806" data-name="Trazado 1004806" d="M75.129,45.5a.89.89,0,0,0-.414.719c0,.271.182.375.414.234a.918.918,0,0,0,.424-.722c0-.26-.193-.365-.424-.231" transform="translate(39.766 24.187)" fill="#575757"/>
            <path id="Trazado_1004807" data-name="Trazado 1004807" d="M74.758,45.277a.535.535,0,0,1-.074.378.468.468,0,0,1-.336.265c.018.048.018.084.08.107.11.057.3-.047.417-.244s.116-.418,0-.475a.184.184,0,0,0-.087-.032" transform="translate(39.572 24.098)" fill="#4f4f4f"/>
            <path id="Trazado_1004808" data-name="Trazado 1004808" d="M74.432,45.55a.52.52,0,0,0-.078.372.471.471,0,0,0,.334-.267.526.526,0,0,0,.074-.378.462.462,0,0,0-.329.273" transform="translate(39.569 24.098)" fill="#2b2b2b"/>
            <path id="Trazado_1004809" data-name="Trazado 1004809" d="M74.762,46.337a.528.528,0,0,1-.066.375c-.1.153-.227.26-.336.26a.1.1,0,0,0,.077.1c.1.081.287-.026.415-.222s.126-.415,0-.5a.311.311,0,0,0-.09-.014" transform="translate(39.578 24.662)" fill="#4f4f4f"/>
            <path id="Trazado_1004810" data-name="Trazado 1004810" d="M74.441,46.6a.518.518,0,0,0-.075.369c.107,0,.231-.107.334-.259a.521.521,0,0,0,.066-.375.417.417,0,0,0-.325.265" transform="translate(39.574 24.662)" fill="#2b2b2b"/>
            <path id="Trazado_1004811" data-name="Trazado 1004811" d="M75.677,45.8a.516.516,0,0,1-.072.368.441.441,0,0,1-.323.265.183.183,0,0,0,.064.1c.115.074.3-.031.417-.228s.123-.42,0-.5a.335.335,0,0,0-.086-.011" transform="translate(40.068 24.374)" fill="#4f4f4f"/>
            <path id="Trazado_1004812" data-name="Trazado 1004812" d="M75.351,46.053a.505.505,0,0,0-.064.377.441.441,0,0,0,.323-.265.516.516,0,0,0,.072-.368.49.49,0,0,0-.331.256" transform="translate(40.063 24.374)" fill="#2b2b2b"/>
            <path id="Trazado_1004813" data-name="Trazado 1004813" d="M75.682,44.742a.541.541,0,0,1-.084.374.429.429,0,0,1-.323.262.12.12,0,0,0,.07.107c.121.064.3-.057.408-.241s.12-.429,0-.492c0-.011-.044-.011-.07-.011" transform="translate(40.064 23.813)" fill="#4f4f4f"/>
            <path id="Trazado_1004814" data-name="Trazado 1004814" d="M75.35,45a.214.214,0,1,0,.254.112.547.547,0,0,0,.083-.374A.444.444,0,0,0,75.35,45" transform="translate(40.058 23.813)" fill="#2b2b2b"/>
            <path id="Trazado_1004815" data-name="Trazado 1004815" d="M75.067,44.188a1.189,1.189,0,0,1-.962.172c.29.378.774.441,1.348.106a3.465,3.465,0,0,0,1.569-2.43c-.133.028-.293.052-.467.1a3.53,3.53,0,0,1-1.488,2.05" transform="translate(39.442 22.372)" fill="#575757"/>
            <path id="Trazado_1004816" data-name="Trazado 1004816" d="M73.967,43.826a1.066,1.066,0,0,0,.211.5,1.2,1.2,0,0,0,.962-.172,3.53,3.53,0,0,0,1.488-2.05,5.334,5.334,0,0,0-1.1.478,7.329,7.329,0,0,0-1.56,1.246" transform="translate(39.368 22.408)" fill="#2b2b2b"/>
            <path id="Trazado_1004817" data-name="Trazado 1004817" d="M74.352,48.232h-.041a1.9,1.9,0,0,1,.074,1.713,2.452,2.452,0,0,1-1.682-.224,2.349,2.349,0,0,0,2.075.495c.317-.921.153-1.747-.424-1.984" transform="translate(38.695 25.67)" fill="#575757"/>
            <path id="Trazado_1004818" data-name="Trazado 1004818" d="M72.479,49.368a1.935,1.935,0,0,0,.342.366,2.452,2.452,0,0,0,1.682.224,1.912,1.912,0,0,0-.074-1.718c-.6-.176-1.381.3-1.951,1.128" transform="translate(38.576 25.656)" fill="#2b2b2b"/>
            <path id="Trazado_1004819" data-name="Trazado 1004819" d="M73.222,45.045a1.687,1.687,0,0,1,.147,1.442,3.622,3.622,0,0,1-1.295,2V49a3.443,3.443,0,0,0,1.7-2.225c.213-.9-.029-1.564-.552-1.725" transform="translate(38.361 23.974)" fill="#575757"/>
            <path id="Trazado_1004820" data-name="Trazado 1004820" d="M73.036,45.026a8.929,8.929,0,0,0-.962,3.466,3.622,3.622,0,0,0,1.295-2,1.687,1.687,0,0,0-.147-1.442.663.663,0,0,0-.185-.028" transform="translate(38.361 23.964)" fill="#2b2b2b"/>
            <path id="Trazado_1004821" data-name="Trazado 1004821" d="M77.907,46.08a11.023,11.023,0,0,1-2.105,3.15,1.4,1.4,0,0,0,.153.521A10.552,10.552,0,0,0,78.4,46.108a.865.865,0,0,0-.489-.028" transform="translate(40.345 24.512)" fill="#575757"/>
            <path id="Trazado_1004822" data-name="Trazado 1004822" d="M76.379,47.273a3.124,3.124,0,0,0-.573,1.949,10.981,10.981,0,0,0,2.105-3.15,2.582,2.582,0,0,0-1.532,1.2" transform="translate(40.341 24.521)" fill="#2b2b2b"/>
            <path id="Trazado_1004823" data-name="Trazado 1004823" d="M77.424,42.455a3.649,3.649,0,0,1,.645,2.288c0,.089,0,.164,0,.239a1.426,1.426,0,0,1-1.186.325c.325.429.939.414,1.584-.054v-.224a3.473,3.473,0,0,0-.973-2.663.2.2,0,0,0-.069.089" transform="translate(40.92 22.548)" fill="#575757"/>
            <path id="Trazado_1004824" data-name="Trazado 1004824" d="M76.8,44.978a1,1,0,0,0,.165.3,1.425,1.425,0,0,0,1.186-.325c0-.075,0-.15,0-.239a3.658,3.658,0,0,0-.645-2.288,3.039,3.039,0,0,0-.709,2.554" transform="translate(40.835 22.579)" fill="#2b2b2b"/>
            <path id="Trazado_1004825" data-name="Trazado 1004825" d="M79.835,36.8c-1.56-1.108-3.82-1.065-6.3.365-4.378,2.53-8.083,8.611-8.432,13.848a.378.378,0,0,0,.155.378l7.152,4.131.959-3.895,2.173-4.618,3.478-4.031,3.766-2.125,3.851-.144-6.8-3.909Z" transform="translate(34.652 19.175)" fill="#bcbec0"/>
            <path id="Trazado_1004826" data-name="Trazado 1004826" d="M78.229,39.876c-4.378,2.527-8.081,8.611-8.43,13.848-.023.339.188.5.472.366a1.133,1.133,0,0,0,.552-.863c.306-4.6,3.561-9.944,7.407-12.166s7.1-.634,7.408,3.613c.021.3.245.4.51.25l.041-.025a1.126,1.126,0,0,0,.47-.91c-.348-4.836-4.051-6.642-8.43-4.114" transform="translate(37.149 20.616)" fill="#939598"/>
            <path id="Trazado_1004827" data-name="Trazado 1004827" d="M40.8,60.421l3.814-2.2V55.053l-3.814,2.2Z" transform="translate(21.714 29.301)" fill="#121214"/>
            <path id="Trazado_1004828" data-name="Trazado 1004828" d="M89.831,37.369l1.351-.78V17.415l-1.351.777Z" transform="translate(47.812 9.268)" fill="#663f30"/>
            <path id="Trazado_1004829" data-name="Trazado 1004829" d="M62.811,2.593l41.4,23.9,1.35-.778-41.4-23.9Z" transform="translate(33.431 0.965)" fill="#965d47"/>
            <path id="Trazado_1004830" data-name="Trazado 1004830" d="M62.811,21.5l41.4,23.9V26.224l-41.4-23.9Z" transform="translate(33.431 1.236)" fill="#804f3c"/>
            <path id="Trazado_1004831" data-name="Trazado 1004831" d="M62.811,6.868l41.4,23.9v-.555l-41.4-23.9Z" transform="translate(33.431 3.36)" fill="#965d47"/>
            <path id="Trazado_1004832" data-name="Trazado 1004832" d="M62.811,10.921l41.4,23.9v-.555l-41.4-23.9Z" transform="translate(33.431 5.518)" fill="#965d47"/>
            <path id="Trazado_1004833" data-name="Trazado 1004833" d="M15.487,53.5v4.922l1.353.78v-4.92l72.512-41.87L88,11.626Z" transform="translate(8.243 6.187)" fill="#965d47"/>
            <path id="Trazado_1004834" data-name="Trazado 1004834" d="M16.37,58.926,88.882,17.055V12.136L16.37,54.006Z" transform="translate(8.713 6.459)" fill="#663f30"/>
            <path id="Trazado_1004835" data-name="Trazado 1004835" d="M15.487,49.621v4.92l1.353.781V50.4L89.352,8.533,88,7.751Z" transform="translate(8.243 4.125)" fill="#965d47"/>
            <path id="Trazado_1004836" data-name="Trazado 1004836" d="M16.37,55.051l72.512-41.87V8.261L16.37,50.131Z" transform="translate(8.713 4.396)" fill="#663f30"/>
            <path id="Trazado_1004837" data-name="Trazado 1004837" d="M15.487,45.746v4.92l1.353.781V46.526L89.352,4.657,88,3.876Z" transform="translate(8.243 2.062)" fill="#965d47"/>
            <path id="Trazado_1004838" data-name="Trazado 1004838" d="M16.37,51.175,88.882,9.305V4.385L16.37,46.255Z" transform="translate(8.713 2.333)" fill="#663f30"/>
            <path id="Trazado_1004839" data-name="Trazado 1004839" d="M15.487,41.87v4.92l1.353.781V42.65L89.352.78,88,0Z" transform="translate(8.243 -0.001)" fill="#965d47"/>
            <path id="Trazado_1004840" data-name="Trazado 1004840" d="M16.37,47.3,88.882,5.43V.509L16.37,42.38Z" transform="translate(8.713 0.27)" fill="#663f30"/>
            <path id="Trazado_1004841" data-name="Trazado 1004841" d="M16.37,57.218,56.42,80.339l72.51-41.87L88.882,15.346Z" transform="translate(8.713 8.167)" fill="#5e5e5e"/>
            <path id="Trazado_1004842" data-name="Trazado 1004842" d="M17.164,57.657l1.068.611L90.742,16.4l-1.066-.611Z" transform="translate(9.135 8.402)" fill="#4f4f4f"/>
            <path id="Trazado_1004843" data-name="Trazado 1004843" d="M18.579,58.483l1.066.611L92.157,17.222l-1.066-.608Z" transform="translate(9.888 8.842)" fill="#4f4f4f"/>
            <path id="Trazado_1004844" data-name="Trazado 1004844" d="M19.987,59.28l1.068.611,72.51-41.873L92.5,17.41Z" transform="translate(10.638 9.266)" fill="#4f4f4f"/>
            <path id="Trazado_1004845" data-name="Trazado 1004845" d="M21.4,60.106l1.068.611L94.981,18.846l-1.068-.61Z" transform="translate(11.391 9.705)" fill="#4f4f4f"/>
            <path id="Trazado_1004846" data-name="Trazado 1004846" d="M22.714,60.861l1.066.611L96.292,19.6l-1.066-.611Z" transform="translate(12.089 10.107)" fill="#4f4f4f"/>
            <path id="Trazado_1004847" data-name="Trazado 1004847" d="M24.128,61.688l1.068.61,72.512-41.87-1.068-.611Z" transform="translate(12.842 10.546)" fill="#4f4f4f"/>
            <path id="Trazado_1004848" data-name="Trazado 1004848" d="M25.537,62.484l1.068.611,72.51-41.87-1.066-.613Z" transform="translate(13.592 10.97)" fill="#4f4f4f"/>
            <path id="Trazado_1004849" data-name="Trazado 1004849" d="M26.951,63.311l1.066.61,72.513-41.87-1.068-.611Z" transform="translate(14.345 11.41)" fill="#4f4f4f"/>
            <path id="Trazado_1004850" data-name="Trazado 1004850" d="M28.293,64.09l1.068.61,72.512-41.87-1.068-.61Z" transform="translate(15.059 11.826)" fill="#4f4f4f"/>
            <path id="Trazado_1004851" data-name="Trazado 1004851" d="M29.708,64.918l1.068.61,72.512-41.87-1.069-.61Z" transform="translate(15.812 12.266)" fill="#4f4f4f"/>
            <path id="Trazado_1004852" data-name="Trazado 1004852" d="M31.117,65.715l1.066.61L104.7,24.453l-1.068-.608Z" transform="translate(16.562 12.691)" fill="#4f4f4f"/>
            <path id="Trazado_1004853" data-name="Trazado 1004853" d="M32.531,66.54l1.068.613,72.512-41.872-1.068-.611Z" transform="translate(17.315 13.13)" fill="#4f4f4f"/>
            <path id="Trazado_1004854" data-name="Trazado 1004854" d="M33.844,67.294l1.066.613,72.512-41.872-1.068-.611Z" transform="translate(18.013 13.531)" fill="#4f4f4f"/>
            <path id="Trazado_1004855" data-name="Trazado 1004855" d="M35.258,68.122l1.066.61,72.512-41.87-1.066-.611Z" transform="translate(18.766 13.971)" fill="#4f4f4f"/>
            <path id="Trazado_1004856" data-name="Trazado 1004856" d="M36.666,68.92l1.068.608,72.512-41.869-1.068-.613Z" transform="translate(19.515 14.395)" fill="#4f4f4f"/>
            <path id="Trazado_1004857" data-name="Trazado 1004857" d="M38.081,69.745l1.066.61,72.513-41.872-1.068-.61Z" transform="translate(20.268 14.835)" fill="#4f4f4f"/>
            <path id="Trazado_1004858" data-name="Trazado 1004858" d="M39.514,70.57l1.068.61,72.512-41.87-1.068-.611Z" transform="translate(21.031 15.274)" fill="#4f4f4f"/>
            <path id="Trazado_1004859" data-name="Trazado 1004859" d="M40.929,71.4l1.068.61,72.512-41.872-1.068-.611Z" transform="translate(21.784 15.714)" fill="#4f4f4f"/>
            <g id="Grupo_1190338" data-name="Grupo 1190338" transform="translate(92.947 28.857)" opacity="0.3">
              <g id="Grupo_1190337" data-name="Grupo 1190337">
                <g id="Grupo_1190336" data-name="Grupo 1190336" clip-path="url(#clip-path-5)">
                  <path id="Trazado_1004860" data-name="Trazado 1004860" d="M82.9,25.331c-8.988-5.191-18.583-7.807-21.436-5.845s2.125,7.756,11.113,12.946,18.583,7.807,21.435,5.846S91.89,30.521,82.9,25.331" transform="translate(-60.661 -18.834)"/>
                </g>
              </g>
            </g>
            <path id="Trazado_1004861" data-name="Trazado 1004861" d="M83.709,22.419c0-.734-6.235-1.592-5.7-1.065.1.11.188.225.28.339-.766-.061-1.267-.031-1.1.135,1.632,1.849,2.067,4.71,3.138,6.488,1.054,3.032-.673,2.887-.561,3.728.127,1.379,2.1,1.587,2.1,1.587a1.364,1.364,0,0,0,1.333-1.312c0-.581-.676-1.215-.769-1.983s.466-1.828.463-2.421a14.7,14.7,0,0,1-.21-2.268c.1-.823.861-.978,1.031-3.228" transform="translate(41.064 11.278)" fill="#fcc"/>
            <path id="Trazado_1004862" data-name="Trazado 1004862" d="M71.72,18.119a18.491,18.491,0,0,0-1.336-4.188L66.63,15.987l.009.021-.919.5s3.1,6.29,3.264,8.217A4.359,4.359,0,0,1,68.1,27c-.136,1.261,2.035,1.175,2.035,1.175.794.086.924-.34.913-.527a10.428,10.428,0,0,1-.014-2.962c.245-2.367.85-5.424.683-6.564" transform="translate(34.979 7.414)" fill="#e6b8b8"/>
            <path id="Trazado_1004863" data-name="Trazado 1004863" d="M80.1,13.909c-4.522-2.105-9.457-4.4-10.937-4.6-3.136-.251-5.147,1.126-6.725,1.713C60.256,12.282,59,12.944,58.6,14.332c-.65,1.572.057,2.807-.28,3.418-.49-.247-1.22.317-1.465.826-.288.633-.086,2.081.89,1.96a6.822,6.822,0,0,0,2.93,2.154c3.647,1.813,3.181-.645,7.5,1.024s3.527,4.021,9.7,7.326c2.945,1.7,5.177,1.439,7.228,1.578,6.756.875,9.259-2.566,9.478-3.5a11.446,11.446,0,0,0-3.112-8.6c-2.032-2.4-6.438-4.313-11.36-6.612" transform="translate(30.197 4.937)" fill="#fcc"/>
            <path id="Trazado_1004864" data-name="Trazado 1004864" d="M60.426,10.819c-.65-.493-1.339-1.183-1.37-1.024-.008.454,1.388,1.946,2.317,3.147.824,1.068.812,1.187.812,1.187a1.457,1.457,0,0,0,.4-2.105c-.424-.729-1.451-.667-2.159-1.206" transform="translate(31.432 5.2)" fill="#fcc"/>
            <path id="Trazado_1004865" data-name="Trazado 1004865" d="M79.211,16.556c1.358,1.908-.539,1.952-.792,1.892-.8.025-.408,1.689.688,1.273.32-.208,2.479-1.305.1-3.166" transform="translate(41.511 8.811)" fill="#e6b8b8"/>
            <path id="Trazado_1004866" data-name="Trazado 1004866" d="M69.306,19.511a18.458,18.458,0,0,0-1.338-4.188l-3.751,2.058a.057.057,0,0,0,.011.02l-.922.507s3.106,6.287,3.265,8.217a4.345,4.345,0,0,1-.881,2.263c-.138,1.26,2.038,1.174,2.038,1.174.789.086.924-.339.912-.524a10.406,10.406,0,0,1-.012-2.963c.242-2.361.846-5.424.679-6.564" transform="translate(33.694 8.155)" fill="#fcc"/>
            <path id="Trazado_1004867" data-name="Trazado 1004867" d="M81.295,23.814c0-.735-6.235-1.594-5.7-1.066.1.11.187.225.277.343-.763-.063-1.264-.034-1.1.13,1.632,1.848,2.064,4.71,3.136,6.488,1.057,3.034-.671,2.885-.558,3.733.126,1.373,2.095,1.584,2.095,1.584a1.368,1.368,0,0,0,1.335-1.315c0-.578-.676-1.214-.768-1.978s.467-1.829.46-2.424a14.7,14.7,0,0,1-.207-2.266c.1-.824.861-.979,1.03-3.228" transform="translate(39.78 12.02)" fill="#fcc"/>
            <path id="Trazado_1004868" data-name="Trazado 1004868" d="M57.918,12.148c-.645-.493-1.244-1.119-1.275-.959a16.644,16.644,0,0,0,1.744,3.443c.273.345.69,1.387,1.02,1.186.147-.074,1.649-.7.662-2.019-.426-.729-1.442-1.111-2.151-1.65" transform="translate(30.148 5.941)" fill="#e6b8b8"/>
            <path id="Trazado_1004869" data-name="Trazado 1004869" d="M58.218,14.458c-.061,0-.093.081-.078.187s.084.195.142.2.1-.078.078-.185-.08-.2-.142-.2" transform="translate(30.943 7.695)"/>
            <g id="Grupo_1190341" data-name="Grupo 1190341" transform="translate(53.046 39.353)" opacity="0.3">
              <g id="Grupo_1190340" data-name="Grupo 1190340">
                <g id="Grupo_1190339" data-name="Grupo 1190339" clip-path="url(#clip-path-6)">
                  <path id="Trazado_1004870" data-name="Trazado 1004870" d="M67.971,26.336c-2.85-1.963-12.449.654-21.436,5.841S32.573,43.164,35.424,45.124s12.448-.654,21.436-5.845,13.962-10.985,11.11-12.943" transform="translate(-34.62 -25.684)"/>
                </g>
              </g>
            </g>
            <path id="Trazado_1004871" data-name="Trazado 1004871" d="M51.894,27.393l-.067.329.375-.09-.1-.375Z" transform="translate(27.584 14.507)" fill="#947676"/>
            <path id="Trazado_1004872" data-name="Trazado 1004872" d="M55.554,19.948c.054-.319.093-.665.121-1.05,0-.732-6.232,5.606-5.7,5.522a2.2,2.2,0,0,1,.99.17c-.162.21-.224.326-.147.316a1.527,1.527,0,0,1,.883.253c.7.843.941,2.141,1.952,2.441,1.3,1.912-.579,3.009-.887,4.269a.323.323,0,0,0,.066.334l.264-.279s-.061.431,0,.45a.981.981,0,0,0,.55,0,3.091,3.091,0,0,0,1.842-1.066A3.84,3.84,0,0,0,56,29.877c0-.572-.418-.7-.515-1.353s.519-2.407.515-3-.607-.794-.515-1.725.86-1.972,1.03-4.419c0-.181-.388.077-.964.564" transform="translate(26.581 10.027)" fill="#e6b8b8"/>
            <path id="Trazado_1004873" data-name="Trazado 1004873" d="M39.645,34.518l-.064.328.374-.089-.095-.375Z" transform="translate(21.066 18.299)" fill="#947676"/>
            <path id="Trazado_1004874" data-name="Trazado 1004874" d="M42.43,25.812l-.253.429a5.165,5.165,0,0,0-.725-.994L38.465,30.99s.208.28.5.717l-.07.118s.388.475.878,1.154a8.781,8.781,0,0,1,1.286,3.061,12.206,12.206,0,0,1-.973,3.323.619.619,0,0,0,.087.345l.25-.308s-.089.469-.041.492a1.1,1.1,0,0,0,.683.035s1.854-.1,2.033-1.172a19.473,19.473,0,0,1,.072-2.761c.245-2.648.768-6.592.6-7.54a5.432,5.432,0,0,0-1.338-2.642" transform="translate(20.473 13.437)" fill="#e6b8b8"/>
            <path id="Trazado_1004875" data-name="Trazado 1004875" d="M63.3,15.148h-.009c-.025,0-.047-.009-.074-.012-2.036-.049-6.442,3.124-11.362,6.512-4.522,3.112-9.459,6.518-10.939,8.027A43.176,43.176,0,0,0,34.05,40.495c-.68,1.517,1.488,3.454-.93,7.436-.208-.032-.72.294-.591.545.248.562.522.55.89.93.239.291.789.693,1.086.63A11.8,11.8,0,0,0,39.4,48.344c3.647-2.4,3.181-4.318,7.493-7.634s3.532-.052,9.7-3.87c2.947-1.7,5.179-4.538,7.229-6.769,2.911-3.163,4.7-5.559,4.958-6.976,0,0,.735-3.817-.869-5.407A9.076,9.076,0,0,0,63.3,15.148" transform="translate(17.302 8.055)" fill="#fcc"/>
            <path id="Trazado_1004876" data-name="Trazado 1004876" d="M32.521,36.92c.248.562.521.549.889.929.239.291.791.694,1.086.63.515-.256-1.344-2.006-1.975-1.558" transform="translate(17.309 19.611)" fill="#cfa5a5"/>
            <path id="Trazado_1004877" data-name="Trazado 1004877" d="M35.4,31.175c-.426-.241-1.214.066-1.918.346-.647.256-1.244.466-1.273.657-.009.466,1.655.061,2.582.19a1.01,1.01,0,0,1,.921.8s.5-1.532-.311-1.989" transform="translate(17.141 16.546)" fill="#fcc"/>
            <path id="Trazado_1004878" data-name="Trazado 1004878" d="M42.045,35.9l-.064.326.371-.09-.093-.375Z" transform="translate(22.344 19.035)" fill="#c29b9b"/>
            <path id="Trazado_1004879" data-name="Trazado 1004879" d="M44.829,27.2l-.256.429a5.213,5.213,0,0,0-.717-.994l-2.991,5.744s.205.277.5.717l-.07.12s.386.472.875,1.149a8.829,8.829,0,0,1,1.286,3.064,12.22,12.22,0,0,1-.968,3.323.586.586,0,0,0,.086.342l.248-.306s-.092.467-.041.49a1.07,1.07,0,0,0,.682.037s1.857-.1,2.033-1.172a19.381,19.381,0,0,1,.074-2.763c.244-2.646.765-6.592.6-7.537A5.437,5.437,0,0,0,44.829,27.2" transform="translate(21.75 14.174)" fill="#fcc"/>
            <path id="Trazado_1004880" data-name="Trazado 1004880" d="M53.839,28.53l-.066.326.372-.089-.093-.377Z" transform="translate(28.62 15.11)" fill="#c29b9b"/>
            <path id="Trazado_1004881" data-name="Trazado 1004881" d="M57.5,21.085c.054-.323.1-.667.121-1.051,0-.737-6.235,5.6-5.7,5.519a2.243,2.243,0,0,1,.99.173c-.161.208-.224.325-.147.314a1.52,1.52,0,0,1,.878.251c.709.843.945,2.144,1.957,2.442,1.3,1.917-.578,3.011-.89,4.267a.334.334,0,0,0,.069.336l.26-.279s-.057.431.009.45a.984.984,0,0,0,.547,0,3.084,3.084,0,0,0,1.843-1.066,3.857,3.857,0,0,0,.513-1.433c0-.573-.417-.7-.51-1.354a29.2,29.2,0,0,1,.51-2.992c0-.588-.61-.8-.513-1.73s.861-1.966,1.027-4.416c0-.184-.388.075-.962.565" transform="translate(27.617 10.63)" fill="#fcc"/>
            <path id="Trazado_1004882" data-name="Trazado 1004882" d="M37.53,32.427a2.489,2.489,0,0,0-1.909.1c-.647.256-1.25.711-1.281.9-.011.466,1.655.061,2.585.192a1.94,1.94,0,0,1,1.267.958s.152-1.7-.662-2.156" transform="translate(18.277 17.18)" fill="#e6b8b8"/>
            <path id="Trazado_1004883" data-name="Trazado 1004883" d="M36.17,34.361a.485.485,0,0,0-.245.359c0,.121.11.158.245.078a.477.477,0,0,0,.244-.359c0-.123-.109-.158-.244-.078" transform="translate(19.121 18.265)"/>
            <path id="Trazado_1004884" data-name="Trazado 1004884" d="M54.244,14.282c1.644.414-.642,2.864-.642,2.864l1.027.207s2.494-4.14-.385-3.071" transform="translate(28.529 7.507)" fill="#fcc"/>
            <path id="Trazado_1004885" data-name="Trazado 1004885" d="M33.372,37.312s.27.553.4.493-.4-.493-.4-.493" transform="translate(17.762 19.858)" fill="#7d6464"/>
            <path id="Trazado_1004886" data-name="Trazado 1004886" d="M32.819,37.014s.07.362.3.392c.147.017-.3-.392-.3-.392" transform="translate(17.468 19.7)" fill="#7d6464"/>
            <g id="Grupo_1190344" data-name="Grupo 1190344" transform="translate(67.082 50.977)" opacity="0.3">
              <g id="Grupo_1190343" data-name="Grupo 1190343">
                <g id="Grupo_1190342" data-name="Grupo 1190342" clip-path="url(#clip-path-6)">
                  <path id="Trazado_1004887" data-name="Trazado 1004887" d="M77.131,33.923c-2.852-1.963-12.446.654-21.436,5.842S41.733,50.753,44.584,52.711s12.448-.654,21.436-5.845,13.962-10.985,11.11-12.943" transform="translate(-43.78 -33.27)"/>
                </g>
              </g>
            </g>
            <path id="Trazado_1004888" data-name="Trazado 1004888" d="M61.054,34.98l-.067.328.374-.089-.093-.375Z" transform="translate(32.46 18.545)" fill="#947676"/>
            <path id="Trazado_1004889" data-name="Trazado 1004889" d="M64.715,27.535c.054-.32.093-.667.121-1.05,0-.734-6.232,5.606-5.7,5.521a2.181,2.181,0,0,1,.988.173c-.161.207-.222.326-.146.314a1.513,1.513,0,0,1,.883.253c.706.841.939,2.139,1.952,2.441,1.3,1.912-.579,3.009-.887,4.267a.322.322,0,0,0,.066.334l.264-.279s-.061.432,0,.452a1,1,0,0,0,.549,0A3.088,3.088,0,0,0,64.649,38.9a3.909,3.909,0,0,0,.516-1.434c-.006-.573-.42-.7-.516-1.353s.519-2.407.516-3-.608-.794-.516-1.727.858-1.97,1.03-4.416c0-.182-.388.075-.964.562" transform="translate(31.457 14.065)" fill="#e6b8b8"/>
            <path id="Trazado_1004890" data-name="Trazado 1004890" d="M48.805,42.1l-.064.328.374-.089-.093-.375Z" transform="translate(25.942 22.336)" fill="#947676"/>
            <path id="Trazado_1004891" data-name="Trazado 1004891" d="M51.59,33.4l-.251.429a5.1,5.1,0,0,0-.725-.994l-2.988,5.743s.208.279.5.716l-.069.118s.386.475.876,1.154a8.763,8.763,0,0,1,1.286,3.061,12.166,12.166,0,0,1-.973,3.325.618.618,0,0,0,.089.342l.25-.3s-.092.467-.044.49a1.115,1.115,0,0,0,.685.037s1.854-.1,2.033-1.172a19.815,19.815,0,0,1,.072-2.764c.247-2.645.766-6.59.6-7.539A5.431,5.431,0,0,0,51.59,33.4" transform="translate(25.349 17.475)" fill="#e6b8b8"/>
            <path id="Trazado_1004892" data-name="Trazado 1004892" d="M72.462,22.736h-.009l-.075-.014c-2.036-.048-6.442,3.124-11.36,6.514-4.522,3.11-9.459,6.517-10.939,8.026a43.17,43.17,0,0,0-6.869,10.821c-.679,1.515,1.489,3.454-.929,7.434-.21-.032-.72.294-.593.547.25.561.524.549.889.929.242.29.792.694,1.088.63a11.8,11.8,0,0,0,4.894-1.692c3.645-2.4,3.179-4.318,7.493-7.632s3.53-.055,9.7-3.872c2.947-1.7,5.179-4.537,7.229-6.766,2.911-3.167,4.7-5.562,4.96-6.978,0,0,.734-3.818-.869-5.409a9.06,9.06,0,0,0-4.609-2.537" transform="translate(22.177 12.093)" fill="#fcc"/>
            <path id="Trazado_1004893" data-name="Trazado 1004893" d="M41.681,44.507c.25.561.524.549.89.929.241.29.791.694,1.088.63.513-.256-1.345-2.007-1.978-1.558" transform="translate(22.184 23.649)" fill="#cfa5a5"/>
            <path id="Trazado_1004894" data-name="Trazado 1004894" d="M44.558,38.761c-.426-.239-1.212.069-1.918.349-.647.254-1.244.464-1.273.656-.009.467,1.655.06,2.582.19a1.011,1.011,0,0,1,.921.8s.5-1.534-.311-1.992" transform="translate(22.017 20.584)" fill="#fcc"/>
            <path id="Trazado_1004895" data-name="Trazado 1004895" d="M51.207,43.491l-.067.326.372-.089-.093-.377Z" transform="translate(27.219 23.073)" fill="#c29b9b"/>
            <path id="Trazado_1004896" data-name="Trazado 1004896" d="M53.99,34.783l-.256.429a5.239,5.239,0,0,0-.719-.994l-2.991,5.746s.205.276.5.717l-.07.118s.386.472.876,1.151a8.834,8.834,0,0,1,1.286,3.061,12.221,12.221,0,0,1-.97,3.326.582.582,0,0,0,.086.34l.25-.306s-.093.469-.041.49a1.055,1.055,0,0,0,.68.037s1.857-.1,2.035-1.172a19.076,19.076,0,0,1,.074-2.761c.244-2.646.765-6.593.595-7.539a5.442,5.442,0,0,0-1.335-2.643" transform="translate(26.625 18.212)" fill="#fcc"/>
            <path id="Trazado_1004897" data-name="Trazado 1004897" d="M63,36.116l-.066.328.372-.09-.093-.377Z" transform="translate(33.496 19.148)" fill="#c29b9b"/>
            <path id="Trazado_1004898" data-name="Trazado 1004898" d="M66.661,28.672c.054-.322.1-.667.121-1.051,0-.737-6.235,5.6-5.7,5.519a2.254,2.254,0,0,1,.988.172c-.161.21-.221.326-.146.314a1.521,1.521,0,0,1,.878.254c.711.843.945,2.142,1.957,2.439,1.305,1.918-.579,3.014-.889,4.269a.33.33,0,0,0,.069.336l.259-.279s-.058.429.009.45a.985.985,0,0,0,.547,0A3.093,3.093,0,0,0,66.6,40.032a3.88,3.88,0,0,0,.515-1.433c-.006-.573-.418-.7-.515-1.354a29.63,29.63,0,0,1,.515-2.992c-.006-.588-.611-.8-.515-1.73s.86-1.967,1.028-4.416c0-.182-.389.074-.964.565" transform="translate(32.492 14.669)" fill="#fcc"/>
            <path id="Trazado_1004899" data-name="Trazado 1004899" d="M46.692,40.015a2.475,2.475,0,0,0-1.909.1,2.6,2.6,0,0,0-1.282.9c-.009.467,1.656.061,2.586.192a1.94,1.94,0,0,1,1.267.958s.152-1.7-.662-2.154" transform="translate(23.153 21.218)" fill="#e6b8b8"/>
            <path id="Trazado_1004900" data-name="Trazado 1004900" d="M45.332,41.947a.485.485,0,0,0-.247.36c0,.121.11.158.247.078a.484.484,0,0,0,.242-.36c0-.123-.109-.158-.242-.078" transform="translate(23.996 22.303)"/>
            <path id="Trazado_1004901" data-name="Trazado 1004901" d="M63.4,21.869c1.646.415-.64,2.862-.64,2.862l1.025.21s2.5-4.142-.385-3.072" transform="translate(33.405 11.545)" fill="#fcc"/>
            <path id="Trazado_1004902" data-name="Trazado 1004902" d="M42.532,44.9s.27.552.4.49-.4-.49-.4-.49" transform="translate(22.637 23.896)" fill="#7d6464"/>
            <path id="Trazado_1004903" data-name="Trazado 1004903" d="M41.98,44.6s.069.362.3.392c.147.018-.3-.392-.3-.392" transform="translate(22.344 23.737)" fill="#7d6464"/>
            <path id="Trazado_1004904" data-name="Trazado 1004904" d="M41.626,65.916l1.351-.78V40.98l-1.351.778Z" transform="translate(22.155 21.811)" fill="#663f30"/>
            <path id="Trazado_1004905" data-name="Trazado 1004905" d="M14.606,26.16l41.4,23.9,1.35-.778-41.4-23.9Z" transform="translate(7.774 13.507)" fill="#965d47"/>
            <path id="Trazado_1004906" data-name="Trazado 1004906" d="M14.606,50.045l41.4,23.9V49.79l-41.4-23.9Z" transform="translate(7.774 13.779)" fill="#543428"/>
            <path id="Trazado_1004907" data-name="Trazado 1004907" d="M14.606,33.686l41.4,23.9v-.553l-41.4-23.9Z" transform="translate(7.774 17.633)" fill="#663f30"/>
            <path id="Trazado_1004908" data-name="Trazado 1004908" d="M14.606,29.633l41.4,23.9v-.555l-41.4-23.9Z" transform="translate(7.774 15.475)" fill="#663f30"/>
            <path id="Trazado_1004909" data-name="Trazado 1004909" d="M14.606,37.74l41.4,23.9v-.556l-41.4-23.9Z" transform="translate(7.774 19.79)" fill="#663f30"/>
            <path id="Trazado_1004910" data-name="Trazado 1004910" d="M41.624,68.588v4.919l1.354.781v-4.92l72.51-41.87-1.353-.78Z" transform="translate(22.154 14.22)" fill="#965d47"/>
            <path id="Trazado_1004911" data-name="Trazado 1004911" d="M42.508,74.017l72.51-41.87V27.226L42.508,69.1Z" transform="translate(22.624 14.49)" fill="#663f30"/>
            <path id="Trazado_1004912" data-name="Trazado 1004912" d="M41.624,64.712v4.92l1.354.781V65.491l72.51-41.87-1.353-.78Z" transform="translate(22.154 12.157)" fill="#965d47"/>
            <path id="Trazado_1004913" data-name="Trazado 1004913" d="M42.508,70.142l72.51-41.87V23.351l-72.51,41.87Z" transform="translate(22.624 12.428)" fill="#663f30"/>
            <path id="Trazado_1004914" data-name="Trazado 1004914" d="M41.624,60.835v4.92l1.354.783V61.617l72.51-41.87-1.353-.781Z" transform="translate(22.154 10.093)" fill="#965d47"/>
            <path id="Trazado_1004915" data-name="Trazado 1004915" d="M42.508,66.266l72.51-41.87V19.475L42.508,61.346Z" transform="translate(22.624 10.365)" fill="#663f30"/>
            <path id="Trazado_1004916" data-name="Trazado 1004916" d="M41.624,56.96v4.92l1.354.781v-4.92l72.51-41.87-1.353-.781Z" transform="translate(22.154 8.031)" fill="#965d47"/>
            <path id="Trazado_1004917" data-name="Trazado 1004917" d="M42.508,62.39l72.51-41.87V15.6L42.508,57.47Z" transform="translate(22.624 8.302)" fill="#663f30"/>
            <path id="Trazado_1004918" data-name="Trazado 1004918" d="M40.666,48.948l2.482,1.46V48.655l-2.482-1.462Z" transform="translate(21.644 25.118)" fill="#4d4d4d"/>
            <path id="Trazado_1004919" data-name="Trazado 1004919" d="M43.488,48.27l-1.509-.849-1.313.757,2.482,1.46,6.422-3.7-1.04-.587Z" transform="translate(21.644 24.134)" fill="#787878"/>
            <path id="Trazado_1004920" data-name="Trazado 1004920" d="M42.286,51.187l6.422-3.708V45.728l-6.422,3.707Z" transform="translate(22.506 24.338)" fill="#5e5e5e"/>
            <path id="Trazado_1004921" data-name="Trazado 1004921" d="M40.666,56.671l2.482,1.462V56.378l-2.482-1.459Z" transform="translate(21.644 29.23)" fill="#4d4d4d"/>
            <path id="Trazado_1004922" data-name="Trazado 1004922" d="M43.488,56l-1.509-.847-1.313.754,2.482,1.46,6.422-3.706-1.04-.585Z" transform="translate(21.644 28.246)" fill="#787878"/>
            <path id="Trazado_1004923" data-name="Trazado 1004923" d="M42.286,58.913l6.422-3.706V53.453l-6.422,3.7Z" transform="translate(22.506 28.449)" fill="#5e5e5e"/>
            <path id="Trazado_1004924" data-name="Trazado 1004924" d="M87.075,23.266l1.014.585V22.1l-1.014-.584Z" transform="translate(46.345 11.449)" fill="#4d4d4d"/>
            <path id="Trazado_1004925" data-name="Trazado 1004925" d="M92.649,19.744,87.075,22.96l1.013.584,6.42-3.706-1.859-1.045Z" transform="translate(46.345 10.002)" fill="#787878"/>
            <path id="Trazado_1004926" data-name="Trazado 1004926" d="M87.736,24.936l6.419-3.706V19.475l-6.419,3.706Z" transform="translate(46.697 10.365)" fill="#5e5e5e"/>
            <path id="Trazado_1004927" data-name="Trazado 1004927" d="M87.075,31.049l1.014.584V29.88L87.075,29.3Z" transform="translate(46.345 15.591)" fill="#4d4d4d"/>
            <path id="Trazado_1004928" data-name="Trazado 1004928" d="M92.649,27.525l-5.574,3.218,1.013.584,6.42-3.706-1.859-1.045Z" transform="translate(46.345 14.144)" fill="#787878"/>
            <path id="Trazado_1004929" data-name="Trazado 1004929" d="M87.736,32.718l6.419-3.706V27.257l-6.419,3.706Z" transform="translate(46.697 14.507)" fill="#5e5e5e"/>
            <path id="Trazado_1004930" data-name="Trazado 1004930" d="M.274,45.461l2.911,1.682.512-.288L.785,45.166Z" transform="translate(0.146 24.039)" fill="#303033"/>
            <path id="Trazado_1004931" data-name="Trazado 1004931" d="M2.174,53.851l.512-.293v-7.29l-.512.288Z" transform="translate(1.157 24.625)"/>
            <path id="Trazado_1004932" data-name="Trazado 1004932" d="M.274,52.652l2.911,1.684v-7.3L.274,45.359Z" transform="translate(0.146 24.141)" fill="#121214"/>
            <path id="Trazado_1004933" data-name="Trazado 1004933" d="M2.481,50.312a.616.616,0,0,0-.273.475.193.193,0,0,0,.081.176l1.4.791.372-.662-1.393-.786a.184.184,0,0,0-.19.006" transform="translate(1.175 26.762)" fill="#1f1f1f"/>
            <path id="Trazado_1004934" data-name="Trazado 1004934" d="M3.395,50.833a.621.621,0,0,0-.27.472c0,.167.126.233.27.153a.621.621,0,0,0,.268-.467c0-.172-.12-.242-.268-.158" transform="translate(1.663 27.036)" fill="#080808"/>
            <path id="Trazado_1004935" data-name="Trazado 1004935" d="M0,63.174l.8.458,7.223-4.157-.809-.469Z" transform="translate(0 31.405)" fill="#bcbec0"/>
            <path id="Trazado_1004936" data-name="Trazado 1004936" d="M10.677,39.311c-7.01,4.045-9.613,20.334-9.613,22.72V83.2l31.789,18.355,1.459-3.4s-1.451-28.175,7.211-37.479L58.1,48.64,26.309,30.285s-13.3,7.677-15.632,9.026" transform="translate(0.566 16.118)" fill="#ff8400"/>
            <path id="Trazado_1004937" data-name="Trazado 1004937" d="M1.6,57.841l30.138,17.4c.4-3.889,2.729-15.842,8.032-20.645L9.631,37.194C4.33,42,2,53.951,1.6,57.841" transform="translate(0.852 19.796)" fill="#121214"/>
            <path id="Trazado_1004938" data-name="Trazado 1004938" d="M9.536,37.809l-.2-.116C4.92,42.245,2.7,51.761,2.01,56.408L31.193,73.255c.041-.271.086-.556.138-.861L2.772,55.91c.667-4.447,2.723-13.35,6.765-18.1" transform="translate(1.07 20.061)" fill="#174666"/>
            <path id="Trazado_1004939" data-name="Trazado 1004939" d="M2.507,55.868,31.066,72.354C31.888,67.477,34.1,58.789,38.25,54.5L9.272,37.768c-4.042,4.75-6.1,13.654-6.765,18.1" transform="translate(1.334 20.101)" fill="#3576ab"/>
            <path id="Trazado_1004940" data-name="Trazado 1004940" d="M2.536,55.842l1.817,1.051.665-.386A7.036,7.036,0,0,0,6.94,54.621l5.053-7.591a7.1,7.1,0,0,1,1.921-1.886L16.767,43.5v-1.44L9.509,37.864c-4.178,3.947-6.38,14.673-6.973,17.978" transform="translate(1.35 20.152)" fill="#48a0e8"/>
            <path id="Trazado_1004941" data-name="Trazado 1004941" d="M24.932,67.564V81l5.032-2.9,4.514-7.379,8.02-4.63V57.422Z" transform="translate(13.27 30.562)"/>
            <path id="Trazado_1004942" data-name="Trazado 1004942" d="M34.764,65.353a16.055,16.055,0,0,0-7.24,12.54c0,4.624,3.256,6.489,7.24,4.174a15.931,15.931,0,0,0,7.254-12.535c0-4.617-3.231-6.5-7.254-4.178" transform="translate(14.649 34.254)" fill="#333"/>
            <path id="Trazado_1004943" data-name="Trazado 1004943" d="M35.485,62.3c-1.3-.7-3.064-.573-5.02.544a16.035,16.035,0,0,0-7.249,12.56c0,2.217.751,3.8,1.974,4.6l6.589,3.808c-1.209-.792-1.961-2.386-1.961-4.592a16.055,16.055,0,0,1,7.24-12.54c2-1.14,3.782-1.26,5.082-.536L35.494,62.3Z" transform="translate(12.357 32.929)" fill="#474747"/>
            <path id="Trazado_1004944" data-name="Trazado 1004944" d="M34.565,65.236a15.979,15.979,0,0,0-7.226,12.543c0,3.455,1.974,4.591,1.974,4.591l.271.175c-1.209-.792-1.961-2.386-1.961-4.591a16.056,16.056,0,0,1,7.24-12.541c2-1.138,3.782-1.26,5.082-.536l-.34-.2c-1.3-.688-3.083-.573-5.04.561" transform="translate(14.551 34.195)" fill="#575757"/>
            <path id="Trazado_1004945" data-name="Trazado 1004945" d="M33.167,64.428a16.016,16.016,0,0,0-7.241,12.538c0,3.46,1.972,4.6,1.972,4.6l.273.153H28.2c-1.232-.786-1.987-2.367-1.987-4.577a16.012,16.012,0,0,1,7.257-12.552c1.975-1.135,3.762-1.253,5.086-.513l-.357-.208c-1.295-.691-3.071-.575-5.027.555" transform="translate(13.799 33.767)" fill="#2b2b2b"/>
            <path id="Trazado_1004946" data-name="Trazado 1004946" d="M31.728,63.588a15.963,15.963,0,0,0-7.264,12.537c0,3.452,1.989,4.589,1.989,4.589l.288.178c-1.221-.794-1.96-2.361-1.96-4.586a15.994,15.994,0,0,1,7.232-12.541c1.99-1.155,3.786-1.26,5.078-.538l-.349-.2c-1.307-.69-3.071-.578-5.014.562" transform="translate(13.021 33.316)" fill="#2b2b2b"/>
            <path id="Trazado_1004947" data-name="Trazado 1004947" d="M39.118,64.442c-.477-.165-2.176-.6-2.176-.6l-.749.673-2.349.247-.454,1.273-1.926.273-.193,1.761-1.883.57.167,1.852-1.632.961.325,1.77-1.325,1.253.565,1.649-.971,1.569.935,1.376-.426.985,1.282,1.292.081.464.215.138-.172-.616-1.214-1.24.449-.982-.9-1.417.962-1.482-.558-1.682,1.345-1.246-.351-1.738L29.8,70.6l-.143-1.868,1.869-.558.17-1.728,1.929-.274.446-1.279,2.337-.241.752-.693s1.589.432,2,.559a3.711,3.711,0,0,1,.751.285l-.285-.132a3,3,0,0,0-.5-.23" transform="translate(14.113 33.978)" fill="#333"/>
            <path id="Trazado_1004948" data-name="Trazado 1004948" d="M37.605,63.572c-.464-.176-2.2-.616-2.2-.616l-.723.657-2.36.264-.455,1.287-1.926.262-.195,1.762-1.885.568.178,1.852-1.627.965.317,1.761L25.4,73.594l.567,1.644L24.992,76.8l.956,1.387-.435.988,1.276,1.3.072.467.237.118-.176-.608-1.207-1.232.452-.987-.922-1.419.955-1.5-.539-1.667L27,72.4l-.348-1.747,1.636-.912-.15-1.9,1.9-.561.138-1.713,1.943-.3.446-1.258,2.32-.248.766-.676s1.6.421,2.006.556a3.327,3.327,0,0,1,.752.3l-.294-.167a3.311,3.311,0,0,0-.5-.208" transform="translate(13.302 33.507)" fill="#333"/>
            <path id="Trazado_1004949" data-name="Trazado 1004949" d="M36.6,62.926a2.807,2.807,0,0,0-.5-.228c-.464-.167-2.2-.614-2.2-.614l-.739.686-2.357.256-.443,1.267-1.917.285-.192,1.751-1.892.575.17,1.84L24.9,69.7l.34,1.779L23.9,72.726l.573,1.65-.978,1.575.936,1.374L24,78.311,25.278,79.6l.092.464.227.127-.179-.6L24.2,78.339l.454-.975-.9-1.413.959-1.485-.553-1.682,1.339-1.255-.34-1.724,1.62-.936L26.638,67l1.875-.565.152-1.736,1.957-.29.432-1.264,2.3-.254.788-.677s1.575.441,2,.553a3.258,3.258,0,0,1,.74.317l-.29-.176Z" transform="translate(12.503 33.043)" fill="#333"/>
            <path id="Trazado_1004950" data-name="Trazado 1004950" d="M34.029,66.833a11.392,11.392,0,0,0-5.124,8.9c0,3.277,2.3,4.6,5.124,2.976a11.333,11.333,0,0,0,5.15-8.908c0-3.277-2.3-4.591-5.15-2.963" transform="translate(15.384 35.2)" fill="#1f1f1f"/>
            <path id="Trazado_1004951" data-name="Trazado 1004951" d="M33.8,67.292a9.916,9.916,0,0,0-4.468,7.775c0,2.856,1.989,4.028,4.468,2.6a9.931,9.931,0,0,0,4.5-7.776c0-2.865-2.01-4.019-4.5-2.6" transform="translate(15.612 35.491)" fill="#919191"/>
            <path id="Trazado_1004952" data-name="Trazado 1004952" d="M32.8,69.338A3.526,3.526,0,0,0,31.223,72.1c0,1.014.7,1.423,1.572.91a3.507,3.507,0,0,0,1.6-2.752c0-1-.717-1.414-1.6-.916" transform="translate(16.618 36.792)" fill="#707070"/>
            <path id="Trazado_1004953" data-name="Trazado 1004953" d="M32.393,70.176a.891.891,0,0,0-.415.722c0,.27.182.375.415.233a.912.912,0,0,0,.424-.722c0-.26-.192-.366-.424-.233" transform="translate(17.02 37.319)" fill="#575757"/>
            <path id="Trazado_1004954" data-name="Trazado 1004954" d="M32.021,69.95a.533.533,0,0,1-.074.378.464.464,0,0,1-.336.265c.018.047.018.086.08.109.11.057.3-.047.418-.245s.118-.417,0-.475a.19.19,0,0,0-.089-.032" transform="translate(16.825 37.23)" fill="#4f4f4f"/>
            <path id="Trazado_1004955" data-name="Trazado 1004955" d="M31.695,70.223a.518.518,0,0,0-.078.371.468.468,0,0,0,.334-.265.526.526,0,0,0,.074-.378.46.46,0,0,0-.329.273" transform="translate(16.822 37.23)" fill="#2b2b2b"/>
            <path id="Trazado_1004956" data-name="Trazado 1004956" d="M32.027,71.011a.541.541,0,0,1-.067.378.5.5,0,0,1-.336.257.1.1,0,0,0,.077.1c.1.081.288-.025.415-.222s.127-.417,0-.5a.256.256,0,0,0-.089-.015" transform="translate(16.832 37.794)" fill="#4f4f4f"/>
            <path id="Trazado_1004957" data-name="Trazado 1004957" d="M31.7,71.276a.516.516,0,0,0-.077.371c.109,0,.234-.109.336-.257a.541.541,0,0,0,.067-.378.416.416,0,0,0-.326.265" transform="translate(16.828 37.794)" fill="#2b2b2b"/>
            <path id="Trazado_1004958" data-name="Trazado 1004958" d="M32.942,70.471a.517.517,0,0,1-.07.369.443.443,0,0,1-.325.265.17.17,0,0,0,.064.1c.116.072.306-.031.418-.23s.123-.42,0-.5a.339.339,0,0,0-.087-.011" transform="translate(17.323 37.507)" fill="#4f4f4f"/>
            <path id="Trazado_1004959" data-name="Trazado 1004959" d="M32.616,70.728a.5.5,0,0,0-.064.377.443.443,0,0,0,.325-.265.525.525,0,0,0,.07-.369.49.49,0,0,0-.331.257" transform="translate(17.318 37.507)" fill="#2b2b2b"/>
            <path id="Trazado_1004960" data-name="Trazado 1004960" d="M32.947,69.413a.53.53,0,0,1-.084.374.429.429,0,0,1-.323.265.117.117,0,0,0,.07.106c.123.066.3-.055.409-.239s.118-.431,0-.493c0-.012-.044-.012-.072-.012" transform="translate(17.319 36.944)" fill="#4f4f4f"/>
            <path id="Trazado_1004961" data-name="Trazado 1004961" d="M32.615,69.678a.43.43,0,0,0-.07.374.431.431,0,0,0,.323-.264.541.541,0,0,0,.084-.374.443.443,0,0,0-.337.264" transform="translate(17.313 36.944)" fill="#2b2b2b"/>
            <path id="Trazado_1004962" data-name="Trazado 1004962" d="M32.332,68.857a1.2,1.2,0,0,1-.964.173c.288.378.774.441,1.35.106A3.472,3.472,0,0,0,34.29,66.7c-.135.026-.294.052-.469.1a3.535,3.535,0,0,1-1.489,2.053" transform="translate(16.695 35.5)" fill="#575757"/>
            <path id="Trazado_1004963" data-name="Trazado 1004963" d="M31.229,68.494a1.1,1.1,0,0,0,.213.5,1.2,1.2,0,0,0,.964-.173A3.536,3.536,0,0,0,33.9,66.769a5.332,5.332,0,0,0-1.1.477,7.46,7.46,0,0,0-1.563,1.249" transform="translate(16.621 35.537)" fill="#2b2b2b"/>
            <path id="Trazado_1004964" data-name="Trazado 1004964" d="M31.616,72.909h-.041a1.906,1.906,0,0,1,.074,1.716,2.458,2.458,0,0,1-1.687-.224,2.363,2.363,0,0,0,2.081.495c.316-.922.152-1.75-.426-1.987" transform="translate(15.946 38.805)" fill="#575757"/>
            <path id="Trazado_1004965" data-name="Trazado 1004965" d="M29.738,74.047a2,2,0,0,0,.343.368,2.452,2.452,0,0,0,1.685.225,1.913,1.913,0,0,0-.074-1.721c-.6-.178-1.382.3-1.955,1.128" transform="translate(15.828 38.791)" fill="#2b2b2b"/>
            <path id="Trazado_1004966" data-name="Trazado 1004966" d="M30.482,69.716a1.689,1.689,0,0,1,.147,1.445,3.636,3.636,0,0,1-1.3,2v.51a3.447,3.447,0,0,0,1.7-2.226c.211-.9-.031-1.569-.555-1.73" transform="translate(15.612 37.105)" fill="#575757"/>
            <path id="Trazado_1004967" data-name="Trazado 1004967" d="M30.3,69.7a8.912,8.912,0,0,0-.962,3.474,3.631,3.631,0,0,0,1.3-2,1.7,1.7,0,0,0-.147-1.445A.666.666,0,0,0,30.3,69.7" transform="translate(15.612 37.096)" fill="#2b2b2b"/>
            <path id="Trazado_1004968" data-name="Trazado 1004968" d="M35.177,70.755a10.985,10.985,0,0,1-2.11,3.155,1.378,1.378,0,0,0,.155.521,10.562,10.562,0,0,0,2.445-3.647.844.844,0,0,0-.49-.029" transform="translate(17.6 37.645)" fill="#575757"/>
            <path id="Trazado_1004969" data-name="Trazado 1004969" d="M33.645,71.949a3.145,3.145,0,0,0-.573,1.952,11.012,11.012,0,0,0,2.108-3.155,2.586,2.586,0,0,0-1.535,1.2" transform="translate(17.596 37.653)" fill="#2b2b2b"/>
            <path id="Trazado_1004970" data-name="Trazado 1004970" d="M34.693,67.122a3.66,3.66,0,0,1,.647,2.292c0,.089,0,.164,0,.241a1.429,1.429,0,0,1-1.187.325c.325.431.942.412,1.587-.055V69.7a3.5,3.5,0,0,0-.973-2.669.212.212,0,0,0-.07.089" transform="translate(18.176 35.677)" fill="#575757"/>
            <path id="Trazado_1004971" data-name="Trazado 1004971" d="M34.067,69.65a.989.989,0,0,0,.167.3,1.424,1.424,0,0,0,1.187-.325c0-.077,0-.152,0-.239a3.657,3.657,0,0,0-.647-2.292,3.05,3.05,0,0,0-.711,2.559" transform="translate(18.09 35.708)" fill="#2b2b2b"/>
            <path id="Trazado_1004972" data-name="Trazado 1004972" d="M21.812,74.011V95.175l7.683-4.436V86.019s2.246-10.012,5.928-12.137L47.06,67.163v-24.9s-13.3,7.678-15.635,9.025c-7.008,4.048-9.613,20.336-9.613,22.722" transform="translate(11.609 22.494)" fill="#ba6000"/>
            <path id="Trazado_1004973" data-name="Trazado 1004973" d="M44.822,58.2a.283.283,0,0,0-.291.025L32.9,64.946c-3.941,2.275-6.224,12.272-6.319,12.7-.046.2.006.36.12.412l1.077.624,3.57-9.785,1.716-2.036,12.894-7.992-1.131-.66Z" transform="translate(14.137 30.962)" fill="#303033"/>
            <path id="Trazado_1004974" data-name="Trazado 1004974" d="M45.252,58.645,33.616,65.362c-3.941,2.275-6.222,12.272-6.317,12.7-.063.282.058.473.273.424a.441.441,0,0,0,.116-.049.9.9,0,0,0,.385-.556c.023-.1,2.2-9.653,5.544-11.581L45.252,59.58a.9.9,0,0,0,.4-.7c0-.257-.182-.362-.4-.233" transform="translate(14.521 31.183)"/>
            <path id="Trazado_1004975" data-name="Trazado 1004975" d="M43.958,62.679l-9.812,5.665c-3.143,1.814-5.223,8.547-5.5,9.488L23,81.089V68.906H22.5V81.966l6.576-3.8.029-.1c.02-.074,2.165-7.479,5.3-9.287l10.064-5.81V50.121h-.506Z" transform="translate(11.974 26.676)" fill="#944f00"/>
            <path id="Trazado_1004976" data-name="Trazado 1004976" d="M43.031,44.357,31.239,51.165c-6.06,3.5-8.6,19.771-8.7,20.436a1.084,1.084,0,0,0,.218,1.043.965.965,0,0,0,1.14-.04l1.685-.975A7.884,7.884,0,0,0,27.75,69.5L32.8,61.906a6.341,6.341,0,0,1,1.669-1.638l8.558-4.94a3.282,3.282,0,0,0,1.482-2.57V45.214c0-.944-.663-1.328-1.482-.857" transform="translate(11.975 23.501)" fill="#121214"/>
            <path id="Trazado_1004977" data-name="Trazado 1004977" d="M36.587,56.437l-2.852,1.647a7.1,7.1,0,0,0-1.92,1.886l-5.055,7.591a7.059,7.059,0,0,1-1.921,1.886l-1.684.973a1.131,1.131,0,0,1-.374.138c.106.382.507.46.962.2l1.681-.971A7.081,7.081,0,0,0,27.347,67.9L32.4,60.309a7.138,7.138,0,0,1,1.918-1.886l2.853-1.647V46.741l-.587.34Z" transform="translate(12.126 24.877)" fill="#174666"/>
            <path id="Trazado_1004978" data-name="Trazado 1004978" d="M22.787,69.99a1.02,1.02,0,0,0,0,.45,1.127,1.127,0,0,0,.375-.138l1.682-.973a7.106,7.106,0,0,0,1.923-1.886l5.053-7.591a7.137,7.137,0,0,1,1.918-1.886L36.6,56.319V46.963l-5.5,3.176c-5.792,3.345-8.309,19.85-8.309,19.85" transform="translate(12.116 24.995)" fill="#2b5e85"/>
            <path id="Trazado_1004979" data-name="Trazado 1004979" d="M38.011,44.5a1.034,1.034,0,0,1,.08.424v7.546a2.4,2.4,0,0,1-1.077,1.868L32.7,56.827v.68l4.9-2.829a2.4,2.4,0,0,0,1.079-1.866V45.264c0-.516-.277-.8-.668-.763" transform="translate(17.406 23.683)" fill="#174666"/>
            <path id="Trazado_1004980" data-name="Trazado 1004980" d="M37.6,44.64l-4.9,2.827v9.359l4.31-2.488A2.4,2.4,0,0,0,38.09,52.47V44.923a1.033,1.033,0,0,0-.08-.424,1,1,0,0,0-.411.141" transform="translate(17.406 23.684)" fill="#2b5e85"/>
            <path id="Trazado_1004981" data-name="Trazado 1004981" d="M36.043,56.057l-1.062.614a2.342,2.342,0,0,0-1.137,1.765c0,.608.51.812,1.137.452l1.062-.613a2.349,2.349,0,0,0,1.135-1.767c0-.608-.51-.812-1.135-.452" transform="translate(18.013 29.74)" fill="#121214"/>
            <path id="Trazado_1004982" data-name="Trazado 1004982" d="M1.6,62.567,30.785,79.348V68.693L1.6,51.914Z" transform="translate(0.852 27.63)" fill="#303033"/>
            <path id="Trazado_1004983" data-name="Trazado 1004983" d="M1.6,52.989l29.185,16.78v-.794L1.6,52.194Z" transform="translate(0.852 27.779)" fill="#121214"/>
            <path id="Trazado_1004984" data-name="Trazado 1004984" d="M1.6,53.98,30.785,70.76v-.794L1.6,53.185Z" transform="translate(0.852 28.307)" fill="#121214"/>
            <path id="Trazado_1004985" data-name="Trazado 1004985" d="M1.6,54.971,30.785,71.752v-.8L1.6,54.175Z" transform="translate(0.852 28.834)" fill="#121214"/>
            <path id="Trazado_1004986" data-name="Trazado 1004986" d="M1.6,55.962,30.785,72.743v-.8L1.6,55.167Z" transform="translate(0.852 29.361)" fill="#121214"/>
            <path id="Trazado_1004987" data-name="Trazado 1004987" d="M1.6,56.952,30.785,73.733v-.8L1.6,56.158Z" transform="translate(0.852 29.889)" fill="#121214"/>
            <path id="Trazado_1004988" data-name="Trazado 1004988" d="M1.6,57.943,30.785,74.724V73.93L1.6,57.149Z" transform="translate(0.852 30.416)" fill="#121214"/>
            <path id="Trazado_1004989" data-name="Trazado 1004989" d="M1.6,58.934,30.785,75.715v-.794L1.6,58.14Z" transform="translate(0.852 30.944)" fill="#121214"/>
            <path id="Trazado_1004990" data-name="Trazado 1004990" d="M1.6,52.016,30.785,68.8l.509-.294L2.109,51.722Z" transform="translate(0.852 27.528)" fill="#535359"/>
            <path id="Trazado_1004991" data-name="Trazado 1004991" d="M20.648,73.622l.509-.294V62.673l-.509.294Z" transform="translate(10.99 33.357)" fill="#121214"/>
            <path id="Trazado_1004992" data-name="Trazado 1004992" d="M10.657,60.052l1.191,3.055.244-.141V60.6L10.9,59.911Z" transform="translate(5.672 31.887)" fill="#535359"/>
            <path id="Trazado_1004993" data-name="Trazado 1004993" d="M10.657,62.371l1.191.688V60.69L10.657,60Z" transform="translate(5.672 31.936)" fill="#a7a9ac"/>
            <path id="Trazado_1004994" data-name="Trazado 1004994" d="M10.757,62.087l.829.48V60.718l-.829-.477Z" transform="translate(5.725 32.063)" fill="#e31b25"/>
            <path id="Trazado_1004995" data-name="Trazado 1004995" d="M0,66.444l33.421,19.3V80.1L0,61.726Z" transform="translate(0 32.853)" fill="#a7a9ac"/>
            <path id="Trazado_1004996" data-name="Trazado 1004996" d="M.523,62.188,33.142,81.026V80.1L1.334,61.721Z" transform="translate(0.279 32.85)" fill="#bcbec0"/>
            <path id="Trazado_1004997" data-name="Trazado 1004997" d="M21.812,79.558v.924l7.223-4.157V71.606L21.812,74.84Z" transform="translate(11.609 38.111)" fill="#939598"/>
            <path id="Trazado_1004998" data-name="Trazado 1004998" d="M21.812,75v.924l7.223-4.158-.809-.467Z" transform="translate(11.609 37.949)" fill="#a7a9ac"/>
            <path id="Trazado_1004999" data-name="Trazado 1004999" d="M15.316,70.777,24,75.786V72.092l-8.679-5.01Z" transform="translate(8.152 35.703)" fill="#ba6000"/>
            <path id="Trazado_1005000" data-name="Trazado 1005000" d="M15.729,70.42l3.3,1.9v-2.8l-3.3-1.9Z" transform="translate(8.372 35.992)" fill="#e6dab0"/>
            <path id="Trazado_1005001" data-name="Trazado 1005001" d="M18.4,71.964l3.3,1.9v-2.8l-3.3-1.9Z" transform="translate(9.795 36.813)" fill="#e6dab0"/>
            <path id="Trazado_1005002" data-name="Trazado 1005002" d="M1.876,63.017l8.677,5.01v-3.7l-8.677-5.01Z" transform="translate(0.999 31.572)" fill="#ba6000"/>
            <path id="Trazado_1005003" data-name="Trazado 1005003" d="M2.289,62.661l3.3,1.9v-2.8l-3.3-1.9Z" transform="translate(1.218 31.862)" fill="#e6dab0"/>
            <path id="Trazado_1005004" data-name="Trazado 1005004" d="M4.961,64.2l3.3,1.9v-2.8l-3.3-1.9Z" transform="translate(2.641 32.683)" fill="#e6dab0"/>
            <path id="Trazado_1005005" data-name="Trazado 1005005" d="M24.087,62.757a.615.615,0,0,0-.267.463.2.2,0,0,0,.077.182L25.3,64.2l.371-.663-1.391-.783a.192.192,0,0,0-.2.008" transform="translate(12.678 33.385)"/>
            <path id="Trazado_1005006" data-name="Trazado 1005006" d="M25.007,63.215a.575.575,0,0,0-.271.455c0,.175.123.247.271.161a.605.605,0,0,0,.268-.469c0-.17-.121-.236-.268-.147" transform="translate(13.166 33.624)" fill="#ff6a00"/>
            <path id="Trazado_1005007" data-name="Trazado 1005007" d="M24.723,59.57l2.908,1.689.51-.293-2.907-1.689Z" transform="translate(13.159 31.55)" fill="#303033"/>
            <path id="Trazado_1005008" data-name="Trazado 1005008" d="M26.622,67.964l.51-.3V60.38l-.51.293Z" transform="translate(14.169 32.136)"/>
            <path id="Trazado_1005009" data-name="Trazado 1005009" d="M24.723,66.767l2.908,1.682V61.156l-2.908-1.687Z" transform="translate(13.159 31.651)" fill="#121214"/>
          </g>
        </g>
      </g>
    </g>
  </g>
</svg>
