<svg xmlns="http://www.w3.org/2000/svg" xmlns:xlink="http://www.w3.org/1999/xlink" width="150" height="150" viewBox="0 0 150 150">
  <defs>
    <clipPath id="clip-path">
      <rect id="Rectángulo_459200" data-name="Rectángulo 459200" width="121.644" height="128.977" fill="none"/>
    </clipPath>
    <clipPath id="clip-path-2">
      <rect id="Rectángulo_459182" data-name="Rectángulo 459182" width="121.645" height="128.976" fill="none"/>
    </clipPath>
    <clipPath id="clip-path-3">
      <rect id="Rectángulo_459181" data-name="Rectángulo 459181" width="65.148" height="37.615" fill="none"/>
    </clipPath>
    <clipPath id="clip-path-5">
      <rect id="Rectángulo_459183" data-name="Rectángulo 459183" width="12.278" height="10.081" fill="none"/>
    </clipPath>
    <clipPath id="clip-path-7">
      <rect id="Rectángulo_459185" data-name="Rectángulo 459185" width="8.049" height="10.905" fill="none"/>
    </clipPath>
    <clipPath id="clip-path-9">
      <rect id="Rectángulo_459187" data-name="Rectángulo 459187" width="13.237" height="17.263" fill="none"/>
    </clipPath>
    <clipPath id="clip-path-11">
      <rect id="Rectángulo_459189" data-name="Rectángulo 459189" width="7.415" height="13.562" fill="none"/>
    </clipPath>
    <clipPath id="clip-path-13">
      <rect id="Rectángulo_459191" data-name="Rectángulo 459191" width="5.123" height="13.54" fill="none"/>
    </clipPath>
    <clipPath id="clip-path-14">
      <rect id="Rectángulo_459192" data-name="Rectángulo 459192" width="3.734" height="16.681" fill="none"/>
    </clipPath>
    <clipPath id="clip-path-16">
      <rect id="Rectángulo_459194" data-name="Rectángulo 459194" width="1.551" height="8.052" fill="none"/>
    </clipPath>
    <clipPath id="clip-path-18">
      <rect id="Rectángulo_459196" data-name="Rectángulo 459196" width="31.863" height="26.159" fill="none"/>
    </clipPath>
    <clipPath id="clip-path-20">
      <rect id="Rectángulo_459198" data-name="Rectángulo 459198" width="20.889" height="28.297" fill="none"/>
    </clipPath>
  </defs>
  <g id="Grupo_1190886" data-name="Grupo 1190886" transform="translate(-982 -17244)">
    <g id="Grupo_1190875" data-name="Grupo 1190875" transform="translate(524.289 11351)">
      <rect id="Rectángulo_459312" data-name="Rectángulo 459312" width="150" height="150" transform="translate(457.711 5893)" fill="none"/>
    </g>
    <g id="Grupo_1190580" data-name="Grupo 1190580" transform="translate(1000.189 17250)">
      <g id="Grupo_1190579" data-name="Grupo 1190579" clip-path="url(#clip-path)">
        <g id="Grupo_1190535" data-name="Grupo 1190535" transform="translate(0 0.001)">
          <g id="Grupo_1190534" data-name="Grupo 1190534" clip-path="url(#clip-path-2)">
            <g id="Grupo_1190533" data-name="Grupo 1190533" transform="translate(27.033 83.395)" opacity="0.3">
              <g id="Grupo_1190532" data-name="Grupo 1190532">
                <g id="Grupo_1190531" data-name="Grupo 1190531" clip-path="url(#clip-path-3)">
                  <path id="Trazado_1006238" data-name="Trazado 1006238" d="M72.52,49.856H60.09L16.161,75.218V82.4l8.787,5.075h12.43L81.307,62.109V54.931Z" transform="translate(-16.16 -49.856)"/>
                </g>
              </g>
            </g>
          </g>
        </g>
        <path id="Trazado_1006239" data-name="Trazado 1006239" d="M66.934,48.83,64.3,47.309l-3.6-.559-3.6.559L54.455,48.83l-.967,2.081.967,2.079,2.635,1.524,3.6.557,3.6-.557,2.638-1.524.965-2.079Z" transform="translate(35.984 31.451)" fill="#853e2a"/>
        <path id="Trazado_1006240" data-name="Trazado 1006240" d="M63.2,46.313,60.3,45.441l-2.889.872-3.349,3.4L60.3,51.544l6.241-1.833Z" transform="translate(36.372 30.57)" fill="#853e2a"/>
        <g id="Grupo_1190540" data-name="Grupo 1190540" transform="translate(0 0.001)">
          <g id="Grupo_1190539" data-name="Grupo 1190539" clip-path="url(#clip-path-2)">
            <g id="Grupo_1190538" data-name="Grupo 1190538" transform="translate(91.327 76.212)" opacity="0.3">
              <g id="Grupo_1190537" data-name="Grupo 1190537">
                <g id="Grupo_1190536" data-name="Grupo 1190536" clip-path="url(#clip-path-5)">
                  <path id="Trazado_1006241" data-name="Trazado 1006241" d="M65.95,49.658h0v0L62.739,46.4l-2.773-.836,2.2,1.686-1.889.84-2.633-.452,2.666.855,2.215-.743,1.793,2.32-3.153,1.644-4.51-.087L54.6,50.6l1.942,1.348,4.63.3L64.8,50.907l.726,1.763-2.235,1.788-3.329,1.184,3.456-.535,2.529-1.46.925-1.994Z" transform="translate(-54.597 -45.562)"/>
                </g>
              </g>
            </g>
          </g>
        </g>
        <path id="Trazado_1006242" data-name="Trazado 1006242" d="M61.516,47.4l-2.263.636L56.587,47.4,55.9,46.66v1.193l.888.953,2.648.186Z" transform="translate(37.606 31.39)" fill="#944e39"/>
        <path id="Trazado_1006243" data-name="Trazado 1006243" d="M54.226,48.575l1.962,1.661,5.13.468,2.516-.721-1.191,1.191-1.656.992-3.959-.338-2.047-.754Z" transform="translate(36.48 32.678)" fill="#944e39"/>
        <g id="Grupo_1190545" data-name="Grupo 1190545" transform="translate(0 0.001)">
          <g id="Grupo_1190544" data-name="Grupo 1190544" clip-path="url(#clip-path-2)">
            <g id="Grupo_1190543" data-name="Grupo 1190543" transform="translate(92.264 65.307)" opacity="0.3">
              <g id="Grupo_1190542" data-name="Grupo 1190542">
                <g id="Grupo_1190541" data-name="Grupo 1190541" clip-path="url(#clip-path-7)">
                  <path id="Trazado_1006244" data-name="Trazado 1006244" d="M56.489,49l-1.332-2.864,1.618-5.687-.631,5.01Z" transform="translate(-55.158 -38.096)" fill="#9fb366"/>
                  <path id="Trazado_1006245" data-name="Trazado 1006245" d="M60.333,48.881l-1.328-2.865,1.614-5.687-.629,5.012Z" transform="translate(-52.569 -38.177)" fill="#9fb366"/>
                  <path id="Trazado_1006246" data-name="Trazado 1006246" d="M58.476,49.068,56.915,45.71l1.362-6.668-.2,5.875Z" transform="translate(-53.975 -39.043)" fill="#9fb366"/>
                </g>
              </g>
            </g>
          </g>
        </g>
        <path id="Trazado_1006247" data-name="Trazado 1006247" d="M0,66.068l5.368,1.589,3.725-2.238,1.1-.023.012-1.678L9,63.057l-.738.415-4.336-.5Z" transform="translate(0 42.364)" fill="#211a1a"/>
        <path id="Trazado_1006248" data-name="Trazado 1006248" d="M4.277,65.179l-3.1.1,3.381.652,2.713-1.582Z" transform="translate(0.791 43.286)" fill="#db585a"/>
        <path id="Trazado_1006249" data-name="Trazado 1006249" d="M41.648,52.75l1.7-.895-.366-1.435-1.169.443Z" transform="translate(28.018 33.919)" fill="#211a1a"/>
        <path id="Trazado_1006250" data-name="Trazado 1006250" d="M42.42,49.088l-.893,2.885.2,1.673.637-1.383.052,1.857,4.09-.2,1.725-2.409-.9-2.178Z" transform="translate(27.937 33.023)" fill="#685750"/>
        <path id="Trazado_1006251" data-name="Trazado 1006251" d="M50.41,22.036V38.141l1.644,9.541L50.8,58.072,52.188,65.6,51.7,66.842l-.045,1.494L50.41,70.2l-3.568.4-.094-2.509.868-2.691-.378-7.191L44.37,49.1l-7.031-8.712-2.245-6.47L37.537,25.2,44.2,20.845Z" transform="translate(23.609 14.023)" fill="#211a1a"/>
        <path id="Trazado_1006252" data-name="Trazado 1006252" d="M58.619,46.618V42.069l-2.272-3.938-3.939-2.273H47.86l-3.939,2.273-2.273,3.938v4.548l2.273,3.939,3.939,2.272h4.548l3.939-2.272Z" transform="translate(28.018 24.123)" fill="#ffa096"/>
        <path id="Trazado_1006253" data-name="Trazado 1006253" d="M48.484,44.034l-.507.667.7,5.137.669.509.831-.115.507-.667-.7-5.135-.667-.507Z" transform="translate(32.276 29.548)" fill="#ffa096"/>
        <path id="Trazado_1006254" data-name="Trazado 1006254" d="M49.334,42.681l-.375.751L50.6,48.348l.749.373.8-.264.373-.753L50.88,42.788l-.749-.373Z" transform="translate(32.937 28.534)" fill="#ffa096"/>
        <path id="Trazado_1006255" data-name="Trazado 1006255" d="M46.06,44.034l.509.667-.7,5.137-.667.509-.831-.115-.507-.667.7-5.135.667-.507Z" transform="translate(29.506 29.548)" fill="#ffa096"/>
        <path id="Trazado_1006256" data-name="Trazado 1006256" d="M47.543,44.556l.594.592.013,5.184-.592.594-.838,0-.594-.59-.013-5.184.592-.6Z" transform="translate(31.022 29.974)" fill="#ffa096"/>
        <path id="Trazado_1006257" data-name="Trazado 1006257" d="M45.553,42.681l.375.751-1.641,4.916-.751.373-.8-.264-.373-.753,1.643-4.916.749-.373Z" transform="translate(28.501 28.534)" fill="#ffa096"/>
        <path id="Trazado_1006258" data-name="Trazado 1006258" d="M19.493,66.007l1.7-.9-.365-1.432-1.171.443Z" transform="translate(13.114 42.838)" fill="#211a1a"/>
        <path id="Trazado_1006259" data-name="Trazado 1006259" d="M20.27,62.346l-.9,2.885.206,1.673.641-1.385.049,1.86,4.09-.2,1.723-2.405-.9-2.18Z" transform="translate(13.031 41.942)" fill="#685750"/>
        <path id="Trazado_1006260" data-name="Trazado 1006260" d="M27.482,38.485l2.733,7.621L27.842,65.12l-.025,12.935-.759,1.387L27.29,80.8l-1.256,1.863-3.56.4-.1-2.507,1-2.84.326-9.694-1.223-1.353.049-5.773-6.3-11.08V43.343L19.8,35.287Z" transform="translate(10.922 23.739)" fill="#211a1a"/>
        <path id="Trazado_1006261" data-name="Trazado 1006261" d="M50.906,58.094l1.7-.893-.366-1.437-1.171.445Z" transform="translate(34.246 37.515)" fill="#211a1a"/>
        <path id="Trazado_1006262" data-name="Trazado 1006262" d="M51.679,54.433l-.893,2.89.2,1.668.639-1.38.049,1.858,4.092-.2,1.725-2.41-.9-2.178Z" transform="translate(34.165 36.619)" fill="#685750"/>
        <path id="Trazado_1006263" data-name="Trazado 1006263" d="M65.975,35.514V36.8l1.668,1.174,4.851.3,4.766-1.206L73.6,35.219l-4.475-.269Z" transform="translate(44.384 23.512)" fill="#362c29"/>
        <path id="Trazado_1006264" data-name="Trazado 1006264" d="M43.082,18.469,51.939,20.3l7.382,6.2L64.613,40.5l8.911,5.676,7.853.428,1.056.719-1.056.567h-8.25L62.758,42.344l-4.891-8.185Z" transform="translate(28.983 12.425)" fill="#362c29"/>
        <g id="Grupo_1190550" data-name="Grupo 1190550" transform="translate(0 0.001)">
          <g id="Grupo_1190549" data-name="Grupo 1190549" clip-path="url(#clip-path-2)">
            <g id="Grupo_1190548" data-name="Grupo 1190548" transform="translate(77.093 34.867)" opacity="0.3">
              <g id="Grupo_1190547" data-name="Grupo 1190547">
                <g id="Grupo_1190546" data-name="Grupo 1190546" clip-path="url(#clip-path-9)">
                  <path id="Trazado_1006265" data-name="Trazado 1006265" d="M46.088,20.845l8.181,2.76,5.055,7.273-.166,7.23-.659-1.1Z" transform="translate(-46.088 -20.845)"/>
                </g>
              </g>
            </g>
          </g>
        </g>
        <path id="Trazado_1006266" data-name="Trazado 1006266" d="M7.313,74.355l5.344-24.947,12.014-7.986,15.71-10.033,6.489-3.979,9.648-1.862,2.216-5.418,8.954-1.661,5.028,3.974,7.823,3.442,4.59,6.689-3.506,5.744v9.108l-3.262,8.834L62.876,65.347,46.584,75.08l-11.089-.361-8.578,7.3L21.573,93.36,6.5,88.678Z" transform="translate(4.376 12.424)" fill="#362c29"/>
        <path id="Trazado_1006267" data-name="Trazado 1006267" d="M18.708,60.523,29,55.435l9.66.395.738-5.41H28.553l-6.99,4.254Z" transform="translate(12.585 33.919)" fill="#fff"/>
        <path id="Trazado_1006268" data-name="Trazado 1006268" d="M31.562,64.4l-2.3-6.84,15.217-6.1,8.658-10.823,10.879-2.972-.958,5.667L49.226,56.485Z" transform="translate(19.683 25.345)" fill="#fff"/>
        <path id="Trazado_1006269" data-name="Trazado 1006269" d="M42.5,19.461l5.9,1.159,3.844,5.227,1.9,10.416-4.234,5.808-7.405.791-2.914-1.947-.691-5.84-3.464-5.94-4.8-2.4Z" transform="translate(20.61 13.092)" fill="#fff"/>
        <g id="Grupo_1190555" data-name="Grupo 1190555" transform="translate(0 0.001)">
          <g id="Grupo_1190554" data-name="Grupo 1190554" clip-path="url(#clip-path-2)">
            <g id="Grupo_1190553" data-name="Grupo 1190553" transform="translate(74.193 56.877)" opacity="0.3">
              <g id="Grupo_1190552" data-name="Grupo 1190552">
                <g id="Grupo_1190551" data-name="Grupo 1190551" clip-path="url(#clip-path-11)">
                  <path id="Trazado_1006270" data-name="Trazado 1006270" d="M44.354,34l1.184,7.328,5.513,6.234.718-.679-3.71-8.063Z" transform="translate(-44.354 -34.003)"/>
                </g>
              </g>
            </g>
          </g>
        </g>
        <path id="Trazado_1006271" data-name="Trazado 1006271" d="M59.667,27.379V43.484l1.649,9.543L60.061,63.413l1.385,7.527-.483,1.245-.043,1.494-1.253,1.865-3.565.4-.1-2.509.865-2.691L56.5,63.547,53.626,54.44,46.6,45.727l-2.243-6.47,2.441-8.708,6.669-4.356Z" transform="translate(29.839 17.621)" fill="#362c29"/>
        <path id="Trazado_1006272" data-name="Trazado 1006272" d="M28.753,71.351l1.694-.892-.366-1.437-1.171.443Z" transform="translate(19.343 46.434)" fill="#211a1a"/>
        <path id="Trazado_1006273" data-name="Trazado 1006273" d="M29.526,67.69l-.9,2.885.206,1.671.636-1.383.052,1.86,4.09-.2,1.726-2.409-.9-2.18Z" transform="translate(19.26 45.538)" fill="#685750"/>
        <g id="Grupo_1190563" data-name="Grupo 1190563" transform="translate(0 0.001)">
          <g id="Grupo_1190562" data-name="Grupo 1190562" clip-path="url(#clip-path-2)">
            <g id="Grupo_1190558" data-name="Grupo 1190558" transform="translate(41.538 76.021)" opacity="0.3">
              <g id="Grupo_1190557" data-name="Grupo 1190557">
                <g id="Grupo_1190556" data-name="Grupo 1190556" clip-path="url(#clip-path-13)">
                  <path id="Trazado_1006274" data-name="Trazado 1006274" d="M29.955,58.987l-.99-.042-4.133-6.728,1.106-6.77,2.511,3.827Z" transform="translate(-24.832 -45.448)"/>
                </g>
              </g>
            </g>
            <g id="Grupo_1190561" data-name="Grupo 1190561" transform="translate(53.889 71.162)" opacity="0.3">
              <g id="Grupo_1190560" data-name="Grupo 1190560">
                <g id="Grupo_1190559" data-name="Grupo 1190559" clip-path="url(#clip-path-14)">
                  <path id="Trazado_1006275" data-name="Trazado 1006275" d="M33.821,59.224l-1.1-10.635-.5-6.045,3.734,7.5-1,8.678Z" transform="translate(-32.216 -42.543)"/>
                </g>
              </g>
            </g>
          </g>
        </g>
        <path id="Trazado_1006276" data-name="Trazado 1006276" d="M36.74,43.829l2.735,7.623L37.1,70.469,37.076,83.4l-.758,1.387.229,1.353-1.255,1.868-3.561.393-.1-2.507,1-2.84.326-9.688-1.223-1.355.049-5.776-6.3-11.082V48.688l3.566-8.058Z" transform="translate(17.15 27.334)" fill="#362c29"/>
        <path id="Trazado_1006277" data-name="Trazado 1006277" d="M10.183,44.21l7.511-1.521L27.452,44.7,29.589,51.5l5.443,1.822,4.851-6.831-.89-7.23.89-8.809-1.977-4.255L17.694,35.7Z" transform="translate(6.851 17.621)" fill="#fff"/>
        <path id="Trazado_1006278" data-name="Trazado 1006278" d="M5.771,75l-.351,1.1,1.4,2.228,4.94.189.841-1.76L10.786,75Z" transform="translate(3.646 50.455)" fill="#ff6b6e"/>
        <path id="Trazado_1006279" data-name="Trazado 1006279" d="M7.779,60.866,4.772,64.849l-.047,2.236.893,3.151L4.611,73.142l1.43,3.938.269,3.667,0,4.473,1.465,2.464,4.341.191,4.806-5.937,2.892-5.661,3.073-4.771-.045-5.957-7.33-5.741Z" transform="translate(3.102 40.236)" fill="#362c29"/>
        <path id="Trazado_1006280" data-name="Trazado 1006280" d="M4.611,70.539,7.1,74.778l.676,2.889v3.7l.676-3.3.132-3.068,2.477-3.334.838-4.476L8.686,63.677l-3.963.806Z" transform="translate(3.102 42.838)" fill="#fff"/>
        <path id="Trazado_1006281" data-name="Trazado 1006281" d="M7.675,70.787h2.22l3.427-1.592-3.1,2.384Z" transform="translate(5.163 46.55)" fill="#0a0808"/>
        <g id="Grupo_1190568" data-name="Grupo 1190568" transform="translate(0 0.001)">
          <g id="Grupo_1190567" data-name="Grupo 1190567" clip-path="url(#clip-path-2)">
            <g id="Grupo_1190566" data-name="Grupo 1190566" transform="translate(9.808 109.053)" opacity="0.2">
              <g id="Grupo_1190565" data-name="Grupo 1190565">
                <g id="Grupo_1190564" data-name="Grupo 1190564" clip-path="url(#clip-path-16)">
                  <path id="Trazado_1006282" data-name="Trazado 1006282" d="M7.084,73.246,5.863,68.81,7.415,65.2l-.761,3.862Z" transform="translate(-5.864 -65.194)"/>
                </g>
              </g>
            </g>
          </g>
        </g>
        <path id="Trazado_1006283" data-name="Trazado 1006283" d="M14.081,65.687l4.142,1.432,2.016,5.067-4.6-1.1-2.7-3.573-.79-.3-.266-1.353L13.179,64.8Z" transform="translate(7.997 43.592)" fill="#211a1a"/>
        <path id="Trazado_1006284" data-name="Trazado 1006284" d="M13.149,66.522l2.8.659,2.2,2.967-2.912-.917Z" transform="translate(8.846 44.752)" fill="#db585a"/>
        <path id="Trazado_1006285" data-name="Trazado 1006285" d="M17.525,64.8l-3.755-.064-1.818.611-1.634-.517L9.71,62.838l1.649-1.224,1.42.216,1.945.525Z" transform="translate(6.533 41.45)" fill="#f7edd4"/>
        <path id="Trazado_1006286" data-name="Trazado 1006286" d="M6.876,64.378,4.663,62.6l-2.9-.216,3.4-2.243,4.54.5Z" transform="translate(1.184 40.461)" fill="#f7edd4"/>
        <path id="Trazado_1006287" data-name="Trazado 1006287" d="M5.017,64.624l-.773-2.618,1.75-1.862,2.031.5L10.5,62.07l5.13.293.826.457-1.039.13-1.2,1.288.522,1.288.895.81-1.459.209L9.723,64.667Z" transform="translate(2.855 40.461)" fill="#211a1a"/>
        <path id="Trazado_1006288" data-name="Trazado 1006288" d="M22.035,38.027H17.306l-2.661,6.338,6.4,4.751,4.332-4.475Z" transform="translate(9.852 25.582)" fill="#fff"/>
        <path id="Trazado_1006289" data-name="Trazado 1006289" d="M19.566,7.5,7.573,14.42.649,26.412v13.85L7.573,52.251l11.994,6.928H33.415l11.994-6.928L52.33,40.262V26.412L45.408,14.42,33.415,7.5Z" transform="translate(0.437 5.043)" fill="#86943f"/>
        <path id="Trazado_1006290" data-name="Trazado 1006290" d="M8.805,51.9,2.175,40.405V27.139L8.805,15.652,20.292,9.022H33.558L45.05,15.652l6.631,11.487V40.405L45.05,51.9,33.558,58.528H20.292ZM19.713,6.847l-12.5,7.218L0,26.559V40.991l7.215,12.5L19.708,60.7H34.142l12.5-7.215,7.215-12.5V26.559L46.639,14.065l-12.5-7.218Z" transform="translate(0 4.606)" fill="#ffc654"/>
        <path id="Trazado_1006291" data-name="Trazado 1006291" d="M39.946,25.4,33.1,21.451,23.752,20,14.4,21.451,7.563,25.4,5.058,30.8l2.506,5.4L14.4,40.146l9.347,1.447L33.1,40.146,39.946,36.2l2.506-5.4Z" transform="translate(3.402 13.455)" fill="#853e2a"/>
        <path id="Trazado_1006292" data-name="Trazado 1006292" d="M30.247,18.866l-7.5-2.262-7.5,2.262L6.556,27.684l16.189,4.757,16.194-4.757Z" transform="translate(4.41 11.17)" fill="#853e2a"/>
        <g id="Grupo_1190573" data-name="Grupo 1190573" transform="translate(0 0.001)">
          <g id="Grupo_1190572" data-name="Grupo 1190572" clip-path="url(#clip-path-2)">
            <g id="Grupo_1190571" data-name="Grupo 1190571" transform="translate(13.272 28.296)" opacity="0.3">
              <g id="Grupo_1190570" data-name="Grupo 1190570">
                <g id="Grupo_1190569" data-name="Grupo 1190569" clip-path="url(#clip-path-18)">
                  <path id="Trazado_1006293" data-name="Trazado 1006293" d="M37.393,27.545h0v0L29.06,19.086l-7.194-2.17,5.719,4.371-4.9,2.183L15.854,22.3l6.918,2.221,5.744-1.927,4.655,6.015-8.183,4.267-11.7-.221L7.935,30l5.04,3.5,12.014.771,9.431-3.476L36.3,35.365l-5.8,4.64-8.636,3.071,8.968-1.388,6.56-3.789,2.4-5.177Z" transform="translate(-7.934 -16.917)"/>
                </g>
              </g>
            </g>
          </g>
        </g>
        <path id="Trazado_1006294" data-name="Trazado 1006294" d="M25.888,21.685l-5.871,1.651L13.1,21.685l-1.781-1.917v3.091l2.307,2.479,6.873.478Z" transform="translate(7.613 13.298)" fill="#944e39"/>
        <path id="Trazado_1006295" data-name="Trazado 1006295" d="M6.971,24.736l5.093,4.309,13.31,1.218,6.529-1.87-3.093,3.09-4.3,2.576L14.241,33.18,8.93,31.223Z" transform="translate(4.69 16.641)" fill="#944e39"/>
        <g id="Grupo_1190578" data-name="Grupo 1190578" transform="translate(0 0.001)">
          <g id="Grupo_1190577" data-name="Grupo 1190577" clip-path="url(#clip-path-2)">
            <g id="Grupo_1190576" data-name="Grupo 1190576" transform="translate(15.705 -0.001)" opacity="0.3">
              <g id="Grupo_1190575" data-name="Grupo 1190575" transform="translate(0 0)">
                <g id="Grupo_1190574" data-name="Grupo 1190574" clip-path="url(#clip-path-20)">
                  <path id="Trazado_1006296" data-name="Trazado 1006296" d="M12.842,25.842l-3.453-7.43,4.2-14.762-1.636,13Z" transform="translate(-9.388 2.455)" fill="#9fb366"/>
                  <path id="Trazado_1006297" data-name="Trazado 1006297" d="M22.821,25.53,19.371,18.1l4.192-14.76-1.631,13Z" transform="translate(-2.674 2.245)" fill="#9fb366"/>
                  <path id="Trazado_1006298" data-name="Trazado 1006298" d="M18,26.015,13.95,17.3,17.484,0l-.532,15.242Z" transform="translate(-6.32 0)" fill="#9fb366"/>
                </g>
              </g>
            </g>
          </g>
        </g>
      </g>
    </g>
  </g>
</svg>
