<svg xmlns="http://www.w3.org/2000/svg" xmlns:xlink="http://www.w3.org/1999/xlink" width="124" height="124" viewBox="0 0 124 124">
  <defs>
    <clipPath id="clip-path">
      <rect id="Rectángulo_459165" data-name="Rectángulo 459165" width="63.099" height="63.04" fill="#004e3d"/>
    </clipPath>
  </defs>
  <g id="Grupo_1190153" data-name="Grupo 1190153" transform="translate(-1234.5 -458)">
    <g id="Elipse_12108" data-name="Elipse 12108" transform="translate(1241.5 465)" fill="#f3bc5b" stroke="rgba(255,255,255,0.4)" stroke-width="7">
      <circle cx="55" cy="55" r="55" stroke="none"/>
      <circle cx="55" cy="55" r="58.5" fill="none"/>
    </g>
    <g id="Grupo_1190502" data-name="Grupo 1190502" transform="translate(1264.95 488.48)">
      <g id="Grupo_1190501" data-name="Grupo 1190501" clip-path="url(#clip-path)">
        <path id="Trazado_1006103" data-name="Trazado 1006103" d="M11.2,15.433a23.5,23.5,0,0,0,2.756-.592,12.429,12.429,0,0,1,12.829,6.6l11.648-4.977a13.114,13.114,0,0,1-.617-4.713c.046-.689.421-1.692.444-2.244.007-.155,0-.181-.129-.277a24.405,24.405,0,0,0-3.217-1.165c-.076.018-.791.951-1.039,1.164a5.237,5.237,0,0,1-7.79-6.844C29.028-2.3,36.455.528,35.674,6l3.312,1.266a12.668,12.668,0,0,1,21.9-1.726c6.619,9.56-2.7,22.4-13.772,19.213L42.058,39a17.929,17.929,0,0,1,3.4,2.3c.306.28,1.094,1.427,1.344,1.36l5.909-3.879c-.122-1.553-.365-2.86.359-4.361a5.275,5.275,0,0,1,9.689.769c1.626,5.379-4.734,8.988-8.767,5.349l-5.952,3.834a.3.3,0,0,0-.119.292c.023.235.806,1.788.963,2.352A12.6,12.6,0,0,1,24.8,54.374c-.629.271-4.557.9-4.769,1.138-.1.107-.193,1.34-.293,1.676-1.423,4.778-8.249,5.019-9.943.388-2.3-6.278,6.614-10.1,9.681-4.13l4.762-1.135a13.729,13.729,0,0,1,3.175-10.462L23.4,37.4a12.711,12.711,0,0,1-12.771,1.4l-1.945,3.4A13.588,13.588,0,0,1,10.03,44.1a5.262,5.262,0,0,1-7.254,6.781C-2.185,48.344-.078,40.528,5.886,41c.278.022.714.309.887.228.377-.176,1.386-2.74,1.861-3.193.113-.44-1.111-1.108-1.478-1.457A12.635,12.635,0,0,1,7.48,17.821c.35-.31,1.8-1.162,1.81-1.494-.411-.7-2.432-5.718-2.706-5.891s-1.041.1-1.428.088C-.21,10.283-1.9,3.312,2.56.765A5.234,5.234,0,0,1,9.353,8.5c-.262.374-.9.681-.831,1.157ZM5,2.089c-3.983.321-3.812,6.628.583,6.269C9.6,8.03,9.028,1.764,5,2.089m25.217,0c-3.968.319-3.813,6.628.583,6.269,4.022-.328,3.467-6.6-.583-6.269m23.989,13.2a7.616,7.616,0,0,1,4.176,4.1,10.487,10.487,0,1,0-18.317-5,10.041,10.041,0,0,0,2.4,5,7.615,7.615,0,0,1,4.176-4.1A5.331,5.331,0,0,1,50.5,6.3c4.633.057,6.761,5.636,3.7,8.993M50.369,8.419c-4.2.081-4.09,6.682.448,6.246,3.916-.376,3.465-6.321-.448-6.246M23.786,34.206a26.2,26.2,0,0,0,1.556-2.622A10.515,10.515,0,0,0,12.043,17.5C5.376,19.934,2.987,28.739,7.791,34.047a8.421,8.421,0,0,1,4.174-4.173,5.227,5.227,0,1,1,7.571,0A13.982,13.982,0,0,1,22.117,31.7ZM48.494,16.912a5.03,5.03,0,0,0-3.613,2.533c-.9,1.591-.771,1.756.807,2.555a10.592,10.592,0,0,0,9.471,0c.942-.476,1.568-.628,1.216-1.7-1.114-3.406-4.782-3.8-7.881-3.385m-7,4.632c-.291-.289-.8-.885-1.066-1.219s-.932-1.707-1.264-1.717L27.732,23.343a12.615,12.615,0,0,1-1.452,10.913c-.241.384-1.269,1.42-1.206,1.741l3.92,4.286.313.01a12.462,12.462,0,0,1,10.645-2.031l.146-.107L45.077,24.2l-.033-.214a13.241,13.241,0,0,1-3.55-2.438M15.078,23.213c-3.711.632-2.987,6.35.736,6.252,4.3-.112,3.956-7.052-.736-6.252m-5.447,12.7a16.213,16.213,0,0,0,1.442.844,10.772,10.772,0,0,0,9.245.048c1.373-.674,1.87-.923,1.134-2.39-2.135-4.256-10.617-3.994-11.779.889-.043.183-.144.435-.042.608m48.011-2.3c-4.962.26-3.069,8.178,1.559,5.984,3-1.422,1.748-6.157-1.559-5.984m-13.049,23.6c2.968-2.876,3.369-7.675,1.633-11.327A10.5,10.5,0,1,0,28.752,57.214a7.942,7.942,0,0,1,4.176-4.1c.06-.365-.357-.5-.541-.8a5.222,5.222,0,0,1,1.6-7.366c5.454-3.222,10.6,3.634,6.509,8.162a6.934,6.934,0,0,1,4.1,4.1M5.153,43.075c-3.694.143-4.052,5.487-.76,6.192,4.932,1.057,5.234-6.366.76-6.192m33.866,4.112c-2.876-2.875-7.47,1.349-4.521,4.442,2.793,2.929,7.425-1.539,4.521-4.442M14.725,52.578c-4.031-.009-4.145,5.837-.474,6.215,4.516.465,4.777-6.206.474-6.215m20.057,2.158a5.439,5.439,0,0,0-3.617,2.53c-.913,1.628-.694,1.741.837,2.532a10.3,10.3,0,0,0,9.44.023c1.495-.784,1.809-.98.853-2.593-1.581-2.667-4.7-2.879-7.514-2.491" transform="translate(0 -0.001)" fill="#004e3d"/>
      </g>
    </g>
  </g>
</svg>
