<svg xmlns="http://www.w3.org/2000/svg" xmlns:xlink="http://www.w3.org/1999/xlink" width="124" height="124" viewBox="0 0 124 124">
  <defs>
    <clipPath id="clip-path">
      <rect id="Rectángulo_459163" data-name="Rectángulo 459163" width="59.916" height="61.839" fill="#004e3d"/>
    </clipPath>
  </defs>
  <g id="Grupo_1190151" data-name="Grupo 1190151" transform="translate(-1234.5 -458)">
    <g id="Elipse_12108" data-name="Elipse 12108" transform="translate(1241.5 465)" fill="#f3bc5b" stroke="rgba(255,255,255,0.4)" stroke-width="7">
      <circle cx="55" cy="55" r="55" stroke="none"/>
      <circle cx="55" cy="55" r="58.5" fill="none"/>
    </g>
    <g id="Grupo_1190498" data-name="Grupo 1190498" transform="translate(1266.542 489.08)">
      <g id="Grupo_1190497" data-name="Grupo 1190497" clip-path="url(#clip-path)">
        <path id="Trazado_1006089" data-name="Trazado 1006089" d="M69.985,32.773v7.354c0,3.165,2.952,4.807,4.648,6.653a4.325,4.325,0,0,1-2.73,7.186l-11.82.023c-2.055,9.809-15.1,10.729-18.478,1.048-.11-.314-.022-.919-.359-1.035l-11.572-.039a4.32,4.32,0,0,1-3.58-6.019c.642-1.552,2.772-2.49,3.857-4.039,2.929-4.182,1.248-14.249,1.641-19.568.561-7.585,6.268-14.3,13.392-16.641.068-2.216.073-4.344,1.716-6.024a5.707,5.707,0,0,1,9.379,2.045c.483,1.356.156,2.6.351,3.983l2.645,1.039c1.4-1.8,1.9-4.243,4.143-5.256,2.747-1.239,5.2-.044,6.734,2.3,2.533,3.889,5.033,8.824,7.333,12.947,1.049,1.881,3.758,6.048,4.237,7.838a5.029,5.029,0,0,1-4.651,6.2ZM52.8,6.919c.723-4.556-4.826-4.478-4.18,0ZM64.99,6.645a1.651,1.651,0,0,0-.865.529C60.814,13.5,56.861,19.541,53.548,25.857c-.591,1.126-1.72,2.612.1,3.208H76.881c1.165.055,1.371-1.045,1.033-1.977L66.953,7.706c-.464-.817-.961-1.265-1.964-1.061m1.434,26.128H53.807c-3.112,0-5.66-3.678-4.42-6.588l7.9-14.225c-7.628-3.787-17.018-.228-20.644,7.363C32.26,28.495,39.216,40.288,30.9,48.1c-.634.6-2.418,1.3-1.161,2.237l42,.05a.723.723,0,0,0,.339-1.049c-.149-.326-1.932-1.586-2.4-2.089-1.286-1.379-3.247-4.942-3.247-6.816ZM56.516,53.982H45.06a5.97,5.97,0,0,0,11.456,0" transform="translate(-21.761 0)" fill="#004e3d"/>
        <path id="Trazado_1006090" data-name="Trazado 1006090" d="M10.727,6.937c3.066-.219,3.072,3.032,1.281,3.447A22.192,22.192,0,0,0,8.594,11a8.288,8.288,0,0,0-4.92,5.762c-.2,1.26.19,3.362-1.831,3.437C-1.223,20.31.31,15.322.978,13.753a11.607,11.607,0,0,1,9.749-6.815" transform="translate(0 -5.855)" fill="#004e3d"/>
        <path id="Trazado_1006091" data-name="Trazado 1006091" d="M46.469,56.612A1.838,1.838,0,0,1,43.412,55.2a4.9,4.9,0,0,1,4.581-4.581,1.8,1.8,0,0,1,1.656,2.752c-.57,1.028-1.775.556-2.357,1.2-.468.521-.169,1.417-.823,2.041" transform="translate(-36.691 -42.779)" fill="#004e3d"/>
        <path id="Trazado_1006092" data-name="Trazado 1006092" d="M273.038,76.221a3.556,3.556,0,0,1,.515,1.266,30.374,30.374,0,0,1-.041,5.076,1.8,1.8,0,0,1-3.515.183,35.117,35.117,0,0,1,.028-5.683,1.815,1.815,0,0,1,3.012-.842" transform="translate(-228.113 -63.992)" fill="#004e3d"/>
        <path id="Trazado_1006093" data-name="Trazado 1006093" d="M271.649,144.578a1.773,1.773,0,0,1,1.584,3.131c-2.346,1.748-4.032-2.566-1.584-3.131" transform="translate(-228.58 -122.145)" fill="#004e3d"/>
      </g>
    </g>
  </g>
</svg>
