<svg xmlns="http://www.w3.org/2000/svg" xmlns:xlink="http://www.w3.org/1999/xlink" width="90.184" height="90.184" viewBox="0 0 90.184 90.184">
  <defs>
    <clipPath id="clip-path">
      <rect id="Rectángulo_459154" data-name="Rectángulo 459154" width="43.137" height="62.276" fill="#004e3d"/>
    </clipPath>
  </defs>
  <g id="Grupo_1189547" data-name="Grupo 1189547" transform="translate(-335.332 -4180)">
    <g id="Grupo_1110751" data-name="Grupo 1110751" transform="translate(0.332 -1714)">
      <g id="Grupo_1108938" data-name="Grupo 1108938" transform="translate(335 5894)">
        <g id="Grupo_1073526" data-name="Grupo 1073526" transform="translate(0 0)">
          <g id="Grupo_1072785" data-name="Grupo 1072785" transform="translate(0 0)">
            <path id="Trazado_608385" data-name="Trazado 608385" d="M45.092,0A45.092,45.092,0,1,1,0,45.092,45.092,45.092,0,0,1,45.092,0Z" transform="translate(0 0)" fill="none"/>
          </g>
          <g id="Grupo_1073383" data-name="Grupo 1073383" transform="translate(0 0)">
            <path id="Trazado_608385-2" data-name="Trazado 608385" d="M45.092,0A45.092,45.092,0,1,1,0,45.092,45.092,45.092,0,0,1,45.092,0Z" transform="translate(0 0)" fill="#d8dec8"/>
          </g>
        </g>
      </g>
    </g>
    <g id="Grupo_1190476" data-name="Grupo 1190476" transform="translate(358.855 4193.954)">
      <g id="Grupo_1190475" data-name="Grupo 1190475" clip-path="url(#clip-path)">
        <path id="Trazado_1006030" data-name="Trazado 1006030" d="M35.233,17.5v2.873a8.282,8.282,0,0,1,.6.793c.741,1.579.475,5.3-1.528,5.891-.379.112-.925-.03-1.177.22a18.542,18.542,0,0,0-.623,2.016,12.642,12.642,0,0,1-1.717,3.1c-.236.325-1.459,1.537-1.459,1.647v2.717c2.429-.806,3.3,2.532,4.51,3.331,1.148.756,4.013,1.13,5.509,1.944,6.017,3.278,2.849,13.4,3.65,19.029-.084,1.383-1.737,1.775-1.874.159-.344-4.075.3-8.635.013-12.746-.233-3.35-1.862-4.775-4.975-5.661V61.369c0,1.139-1.863.945-1.863.311v-7.22H28.168c-.748,0-1.109-1.651,0-1.859.38-.071,2.247.168,2.247-.237V45.3c-.73.226-1.191,1.085-1.789,1.549-2.866,2.226-4.382-.336-6.13-2.325v5.512c0,.634-1.863.634-1.863,0V44.522c-1.748,1.989-3.264,4.551-6.13,2.325-.6-.464-1.059-1.323-1.789-1.549v7.065a1.558,1.558,0,0,0,.233.233h11.8c.817,0,.817,1.863,0,1.863H8.836v7.22c0,.635-1.863.829-1.863-.311V42.813C3.859,43.7,2.23,45.124,2,48.475c-.285,4.11.357,8.671.013,12.746C1.873,62.837.22,62.445.136,61.062c.8-5.633-2.368-15.751,3.65-19.029,1.5-.815,4.361-1.188,5.509-1.944,1.213-.8,2.081-4.137,4.51-3.331V34.04c0-.11-1.222-1.322-1.459-1.647a12.642,12.642,0,0,1-1.717-3.1,18.541,18.541,0,0,0-.623-2.016c-.252-.25-.8-.108-1.177-.22-2-.59-2.269-4.313-1.528-5.891a8.282,8.282,0,0,1,.6-.793V17.5H.839c-.51,0-.993-1.5-.068-1.777L9,12c.607-2.436.784-4.962,1.278-7.417.5-2.491.961-4.262,3.9-4.481,4.562-.339,9.536.272,14.142,0a3.93,3.93,0,0,1,2.4,1.017c1.438,1.411,2.322,7.392,2.964,9.614A5.537,5.537,0,0,0,34.14,12l8.227,3.729c.925.278.442,1.777-.068,1.777ZM31.041,7.876c-.542-1.487-.642-5.265-2.354-5.8-4.586.057-9.629-.427-14.189-.109-3,.209-2.149,3.8-2.866,5.907Zm.932,3.882c-.155-.515-.116-1.91-.7-2.02L11.41,9.73l-.4,2.028H25.683a.941.941,0,0,1-.033,1.83l-15.485.043L5.73,15.64H37.407L33.1,13.656c-1.094-.225-3.336.247-4.2-.15a.966.966,0,0,1,.2-1.749ZM11.787,17.5H9.922v2.02h1.865Zm17.546,0H13.8c-.036,1.054.21,2.546-.614,3.345-1.143,1.108-3.432,0-4.115,1.009-.466.686-.393,3.777.746,3.393.267-.09.43-.837.979-.882,1.32-.107,1.012,2.134,1.177,2.958,2.041,10.219,17.142,10.214,19.182,0,.165-.825-.143-3.066,1.177-2.958.549.045.712.791.979.882,1.141.386,1.211-2.709.746-3.393-.683-1-2.972.1-4.115-1.009-.825-.8-.579-2.292-.614-3.345m3.883,0H31.35v2.02h1.865ZM27.468,35.516a13.583,13.583,0,0,0-2.295.887,12.255,12.255,0,0,1-7.21,0,13.583,13.583,0,0,0-2.295-.887c.1.6-.25,1.775.248,2.158l5.705,3.09,5.694-3.15c.344-.385.067-1.551.152-2.1M20.015,42.04l-6.3-3.414c-1.323-.267-1.8,1.3-2.531,2.121l.123.285c1.494,1.177,2.882,3.252,4.356,4.347a1.249,1.249,0,0,0,1.4.3,25.744,25.744,0,0,0,2.328-2.641c.131-.169.723-.864.624-1M30.53,38.823a1.631,1.631,0,0,0-1.361-.131L23.122,42.04c-.1.138.493.833.624,1a25.742,25.742,0,0,0,2.328,2.641,1.229,1.229,0,0,0,1.233-.159l4.6-4.577c.113-.223-1.135-1.932-1.375-2.124M10.854,52.6V43.2a9.7,9.7,0,0,0-1.091-1.09,1.524,1.524,0,0,0-.927.081V52.6ZM34.3,42.192c-.346-.065-.568-.243-.927-.081a9.7,9.7,0,0,0-1.091,1.09V52.6H34.3Z" transform="translate(0 0)" fill="#004e3d"/>
        <path id="Trazado_1006031" data-name="Trazado 1006031" d="M70.611,365.366a.973.973,0,0,1,1.044-1.587c1.229.555-.041,2.54-1.044,1.587" transform="translate(-59.407 -307.221)" fill="#004e3d"/>
        <path id="Trazado_1006032" data-name="Trazado 1006032" d="M197.214,365.366c-1,.953-2.273-1.032-1.044-1.587a.973.973,0,0,1,1.044,1.587" transform="translate(-165.282 -307.221)" fill="#004e3d"/>
        <path id="Trazado_1006033" data-name="Trazado 1006033" d="M106.724,169.244a50.142,50.142,0,0,1,7.66.03c1.818.433,1.565,2.455.534,3.661a5.875,5.875,0,0,1-8.994-.17c-.975-1.261-.981-3.2.8-3.521m7.184,1.827h-6.832a3.906,3.906,0,0,0,6.832,0" transform="translate(-88.923 -142.853)" fill="#004e3d"/>
        <path id="Trazado_1006034" data-name="Trazado 1006034" d="M102.291,131.976c1.252-.037,1.395,2.843-.027,2.841-1.26,0-1.268-2.8.027-2.841" transform="translate(-85.586 -111.483)" fill="#004e3d"/>
        <path id="Trazado_1006035" data-name="Trazado 1006035" d="M164.737,131.952c1.385-.144,1.439,2.839.134,2.841-1.38,0-1.287-2.721-.134-2.841" transform="translate(-138.411 -111.458)" fill="#004e3d"/>
      </g>
    </g>
  </g>
</svg>
