<svg xmlns="http://www.w3.org/2000/svg" xmlns:xlink="http://www.w3.org/1999/xlink" width="90.184" height="90.184" viewBox="0 0 90.184 90.184">
  <defs>
    <clipPath id="clip-path">
      <rect id="Rectángulo_459155" data-name="Rectángulo 459155" width="61.48" height="63.325" fill="#004e3d"/>
    </clipPath>
  </defs>
  <g id="Grupo_1189541" data-name="Grupo 1189541" transform="translate(-335.332 -4180)">
    <g id="Grupo_1110751" data-name="Grupo 1110751" transform="translate(0.332 -1714)">
      <g id="Grupo_1108938" data-name="Grupo 1108938" transform="translate(335 5894)">
        <g id="Grupo_1073526" data-name="Grupo 1073526" transform="translate(0 0)">
          <g id="Grupo_1072785" data-name="Grupo 1072785" transform="translate(0 0)">
            <path id="Trazado_608385" data-name="Trazado 608385" d="M45.092,0A45.092,45.092,0,1,1,0,45.092,45.092,45.092,0,0,1,45.092,0Z" transform="translate(0 0)" fill="none"/>
          </g>
          <g id="Grupo_1073383" data-name="Grupo 1073383" transform="translate(0 0)">
            <path id="Trazado_608385-2" data-name="Trazado 608385" d="M45.092,0A45.092,45.092,0,1,1,0,45.092,45.092,45.092,0,0,1,45.092,0Z" transform="translate(0 0)" fill="#d8dec8"/>
          </g>
        </g>
      </g>
    </g>
    <g id="Grupo_1190479" data-name="Grupo 1190479" transform="translate(349.684 4193.429)">
      <g id="Grupo_1190478" data-name="Grupo 1190478" clip-path="url(#clip-path)">
        <path id="Trazado_1006036" data-name="Trazado 1006036" d="M83.612,96.7c-3.789-4.562-5.929-8.418-5.464-14.686.069-.933.179-3.135,1.461-2.9s.47,2.057.427,2.893a17.206,17.206,0,0,0,3.646,12.015c1.734,2.209,4.395,4.009,4.744,7.032l16.259-.009c.84-4.171,4.693-6.25,6.525-9.993,9.145-18.688-17.164-34.681-28.925-16.121-.386.61-.727,2.063-1.655,1.92-1.64-.254-.164-2.527.293-3.282,10.982-18.119,39.214-5.583,33.145,15.283-1.43,4.917-3.823,6.078-6.335,9.788-2.357,3.481-.726,6.787-1.364,10.491-.317,1.836-1.689,2.121-2.061,3a23.135,23.135,0,0,0-.316,2.372,4.749,4.749,0,0,1-2.394,2.823c-1.509.7-6.258.653-8.047.5a4.794,4.794,0,0,1-4.271-3.633c-.1-.607.045-1.548-.1-1.959-.031-.09-1.106-.958-1.37-1.318-1.955-2.665-.327-7.091-1.375-10.322-.492-1.517-1.844-2.7-2.828-3.89m18.481,9.418a17.6,17.6,0,0,1,2.371,0,1.586,1.586,0,0,0,.237-.237v-2.687a1.586,1.586,0,0,0-.237-.237H88.737v3.161h9.721c.81,0,.58,1.739,0,1.739H88.737a3.01,3.01,0,0,0,2.488,3.123c3.324-.121,6.954.291,10.243.045a2.976,2.976,0,0,0,2.947-1.953c.081-.216.46-1.215.05-1.215h-2.529c-.342,0-.72-1.579.158-1.739m.237,6.8H91.108a2.694,2.694,0,0,0,1.766,2.9,38.921,38.921,0,0,0,6.7.113,2.8,2.8,0,0,0,2.76-3.01" transform="translate(-65.742 -54.591)" fill="#004e3d"/>
        <path id="Trazado_1006037" data-name="Trazado 1006037" d="M139.309,159.515a1.23,1.23,0,0,0,1.52.117l3.952-5.056a.948.948,0,0,1,1.474,1.155c-1.411,1.318-2.959,4.5-4.474,5.487-1.883,1.232-3.333.019-4.581-1.253-.958-.976-5.566-5.973-5.776-6.869a3,3,0,0,1,4.236-3.446c1.041.489,4,4.378,4.31,4.38l6.32-8.061a3.008,3.008,0,0,1,4.577,3.786,18.606,18.606,0,0,1-2.433,2.95,1,1,0,0,1-1.276-.656c-.195-1.373,3.225-3.2,1.91-4.584-.634-.667-1.189-.392-1.745.169-2.226,2.243-4.112,5.893-6.331,8.212-.5.521-.771.766-1.575.478l-4.525-4.957c-1.257-.66-2.108.63-1.4,1.711Z" transform="translate(-110.575 -122.264)" fill="#004e3d"/>
        <path id="Trazado_1006038" data-name="Trazado 1006038" d="M188.612.021c.715-.13,1.075.352,1.15,1a40.717,40.717,0,0,1-.012,6.158c-.2,1.249-1.729,1.26-1.891-.145a40.515,40.515,0,0,1,.014-6.158.951.951,0,0,1,.74-.855" transform="translate(-158.071 0)" fill="#004e3d"/>
        <path id="Trazado_1006039" data-name="Trazado 1006039" d="M60.387,293.928a.95.95,0,0,1,1,1.483l-4.662,4.662c-.9.552-1.738-.494-1.2-1.361,1-.629,4.092-4.554,4.863-4.785" transform="translate(-46.606 -247.432)" fill="#004e3d"/>
        <path id="Trazado_1006040" data-name="Trazado 1006040" d="M294.941,293.912a.785.785,0,0,1,.764.122l4.662,4.662c.536.867-.3,1.912-1.2,1.36l-4.662-4.662a1,1,0,0,1,.438-1.482" transform="translate(-247.805 -247.414)" fill="#004e3d"/>
        <path id="Trazado_1006041" data-name="Trazado 1006041" d="M56.074,55.087c.335-.051.51.117.755.292,1.51,1.079,2.981,3.313,4.513,4.495.536.867-.3,1.912-1.2,1.36l-4.662-4.662a.945.945,0,0,1,.6-1.485" transform="translate(-46.558 -46.372)" fill="#004e3d"/>
        <path id="Trazado_1006042" data-name="Trazado 1006042" d="M299.547,55.078a.939.939,0,0,1,.842,1.486l-4.662,4.662c-.9.552-1.738-.494-1.2-1.361.955-.652,4.227-4.663,5.022-4.787" transform="translate(-247.827 -46.363)" fill="#004e3d"/>
        <path id="Trazado_1006043" data-name="Trazado 1006043" d="M.5,189.024,7.422,189a.9.9,0,0,1,.331,1.589c-.672.481-5.919-.057-7.121.142a.928.928,0,0,1-.132-1.7" transform="translate(0 -159.122)" fill="#004e3d"/>
        <path id="Trazado_1006044" data-name="Trazado 1006044" d="M338.214,189.028l6.921-.027a.909.909,0,0,1,0,1.731h-6.79a.9.9,0,0,1-.131-1.7" transform="translate(-284.286 -159.125)" fill="#004e3d"/>
      </g>
    </g>
  </g>
</svg>
