<svg xmlns="http://www.w3.org/2000/svg" xmlns:xlink="http://www.w3.org/1999/xlink" width="150" height="150" viewBox="0 0 150 150">
  <defs>
    <clipPath id="clip-path">
      <rect id="Rectángulo_459296" data-name="Rectángulo 459296" width="150" height="142.906" fill="none"/>
    </clipPath>
    <clipPath id="clip-path-3">
      <rect id="Rectángulo_459284" data-name="Rectángulo 459284" width="123.835" height="56.278" fill="none"/>
    </clipPath>
    <clipPath id="clip-path-4">
      <rect id="Rectángulo_459285" data-name="Rectángulo 459285" width="10.258" height="12.909" fill="none"/>
    </clipPath>
    <clipPath id="clip-path-5">
      <rect id="Rectángulo_459286" data-name="Rectángulo 459286" width="22.285" height="71.39" fill="none"/>
    </clipPath>
    <clipPath id="clip-path-6">
      <rect id="Rectángulo_459287" data-name="Rectángulo 459287" width="5.482" height="7.576" fill="none"/>
    </clipPath>
    <clipPath id="clip-path-7">
      <rect id="Rectángulo_459288" data-name="Rectángulo 459288" width="9.211" height="1.153" fill="none"/>
    </clipPath>
    <clipPath id="clip-path-8">
      <rect id="Rectángulo_459289" data-name="Rectángulo 459289" width="79.844" height="42.651" fill="none"/>
    </clipPath>
    <clipPath id="clip-path-9">
      <rect id="Rectángulo_459290" data-name="Rectángulo 459290" width="80.949" height="38.893" fill="none"/>
    </clipPath>
    <clipPath id="clip-path-10">
      <rect id="Rectángulo_459291" data-name="Rectángulo 459291" width="17.803" height="6.525" fill="none"/>
    </clipPath>
    <clipPath id="clip-path-11">
      <rect id="Rectángulo_459292" data-name="Rectángulo 459292" width="17.648" height="5.964" fill="none"/>
    </clipPath>
    <clipPath id="clip-path-12">
      <rect id="Rectángulo_459293" data-name="Rectángulo 459293" width="20.566" height="33.004" fill="none"/>
    </clipPath>
    <clipPath id="clip-path-13">
      <rect id="Rectángulo_459294" data-name="Rectángulo 459294" width="5.74" height="7.018" fill="none"/>
    </clipPath>
  </defs>
  <g id="Grupo_1190893" data-name="Grupo 1190893" transform="translate(-468 -25642)">
    <g id="Grupo_1190875" data-name="Grupo 1190875" transform="translate(10.289 19749)">
      <rect id="Rectángulo_459312" data-name="Rectángulo 459312" width="150" height="150" transform="translate(457.711 5893)" fill="none"/>
    </g>
    <g id="Grupo_1190830" data-name="Grupo 1190830" transform="translate(468 25646)">
      <g id="Grupo_1190829" data-name="Grupo 1190829" clip-path="url(#clip-path)">
        <g id="Grupo_1190828" data-name="Grupo 1190828">
          <g id="Grupo_1190827" data-name="Grupo 1190827" clip-path="url(#clip-path)">
            <g id="Grupo_1190796" data-name="Grupo 1190796" transform="translate(25.732 86.628)" opacity="0.3" style="mix-blend-mode: multiply;isolation: isolate">
              <g id="Grupo_1190795" data-name="Grupo 1190795">
                <g id="Grupo_1190794" data-name="Grupo 1190794" clip-path="url(#clip-path-3)">
                  <path id="Trazado_1006532" data-name="Trazado 1006532" d="M99.574,159.588a2.045,2.045,0,0,0,.622-.432,3.438,3.438,0,0,0,.763-1.927,25.255,25.255,0,0,0-1.681-12.854,51.868,51.868,0,0,0-6.472-11.363,110.459,110.459,0,0,0-13.023-15.081c-2.169-2.095-4.617-4.194-7.605-4.6-3.078-.414-6.08,1.065-8.709,2.718a56.03,56.03,0,0,0-16.015,15.268c-1.184,1.693-1.813,2.939-3.813,3.578A18.143,18.143,0,0,0,36.6,138.63c-2.164,2.018-3.53,5.14-2.714,7.983.856,2.983,3.806,4.887,6.753,5.855s6.1,1.283,8.952,2.512c3.4,1.466,6.133,4.132,9.363,5.94,3.179,1.779,7.1,2.683,10.483,1.34s5.741-5.468,4.273-8.8c-.821-1.865-2.692-3.416-2.537-5.448.164-2.154,2.473-3.382,4.47-4.2,3.3,3.868,9.52,4.807,11.816,9.341.65,1.283.915,2.761,1.748,3.934,1.721,2.424,5.14,2.726,8.113,2.8,2.74.07,4.7-.229,7.423.8a58.391,58.391,0,0,1,7.71,3.947c4.08,2.277,8.725,4.341,13.286,3.326,2.017-.449,3.875-1.481,5.907-1.853,3.513-.642,7.036.742,10.4,1.935s7.119,2.209,10.434.88a7.974,7.974,0,0,0,2.182-13.491c-3.345-2.828-8.509-2.562-11.91-5.324-2-1.62-3.1-4.054-4.388-6.278s-3.015-4.455-5.5-5.1c-3.071-.793-6.138,1.068-8.766,2.844-2.93,1.98-5.933,4.032-7.918,6.958-1.559,2.3-2.436,5.068-4.346,7.086-2.486,2.628-6.249,3.515-9.786,4.279Z" transform="translate(-33.644 -113.264)" fill="#8c6239"/>
                </g>
              </g>
            </g>
            <path id="Trazado_1006533" data-name="Trazado 1006533" d="M111.166,36.136a12.643,12.643,0,0,0,4.683,1.515,32.017,32.017,0,0,0,5.41.173c1.325-.034,2.641-.094,3.913-.094a2.432,2.432,0,0,0,.935-.633c2.77-2.9,2.874-13.375,4.207-14.051l-4.45-7.332c-2.935,2.415-3.281,9.16-4.476,15.28l-9.479.493c-1.566.45-1.177,3.626-.744,4.648" transform="translate(-26.053 -3.696)" fill="#fff"/>
            <g id="Grupo_1190799" data-name="Grupo 1190799" transform="translate(89.797 21.256)" style="mix-blend-mode: multiply;isolation: isolate">
              <g id="Grupo_1190798" data-name="Grupo 1190798">
                <g id="Grupo_1190797" data-name="Grupo 1190797" clip-path="url(#clip-path-4)">
                  <path id="Trazado_1006534" data-name="Trazado 1006534" d="M117.408,40.491a32.094,32.094,0,0,0,5.41.173c1.325-.034,2.64-.095,3.913-.095a2.421,2.421,0,0,0,.935-.632l-2.528-12.146c-.866,3.471-.788,7.574-.978,10.085a1.824,1.824,0,0,1-1.315,1.6,29.554,29.554,0,0,1-5.436,1.013" transform="translate(-117.408 -27.792)" fill="#d1e1eb"/>
                </g>
              </g>
            </g>
            <path id="Trazado_1006535" data-name="Trazado 1006535" d="M109.144,38.631a2.231,2.231,0,0,0-1.256-.511l-2.466-.429a2.38,2.38,0,0,1-1.745-.954l-.185-.249a1.471,1.471,0,0,1-1.024-.884l-.353-.881-.706-1.236-1.094-2.33c-.247-.636.216-.665.636-.353l1.659,1.589.954.671,2.1-.141v-.671l-1.182-.953-.724-.43c-.618-.418-.336-.876.288-.733l1.618.563,2.171,1.659,1.342,2.682.811.2c.8.575.311,3.742-.842,3.39" transform="translate(-23.575 -7.081)" fill="#ffb294"/>
            <path id="Trazado_1006536" data-name="Trazado 1006536" d="M148.048,114.74c.556.731.554,2.424.424,4.337-.519,1.933-2.351,1.783-3.913,2.028-3.017.471-4.519,2.74-8.533,2.734-2.386,0-3.978-.515-4.479-2.028a2.576,2.576,0,0,1,1.179-2.122s5.469-2.451,5.61-2.545a28.476,28.476,0,0,0,2.64-2.075c.047-.188.943-4.384.943-4.384h5.893Z" transform="translate(-30.934 -26.03)"/>
            <path id="Trazado_1006537" data-name="Trazado 1006537" d="M153.909,126.989a6,6,0,0,1,.424,3.536,18.818,18.818,0,0,0-.8,1.933c-.333,1.166-.283,3.112-2.018,4.276-2.066,1.633-6.061,1.708-7.317-.033a9.146,9.146,0,0,1,1.609-4.239l2.029-3.771-.13-3.534,5.826-1.279Z" transform="translate(-33.911 -29.132)"/>
            <path id="Trazado_1006538" data-name="Trazado 1006538" d="M140.505,57.085V80.719c1.9,6.852,5.561,13.284,6.144,20.133,0,2.883-5.843,3.516-7.32,1.663-.58-5.3-5.062-12.5-7.783-20.868-1.8-8.444-3.295-17.2-2.792-24.252Z" transform="translate(-30.256 -13.425)" fill="#175279"/>
            <path id="Trazado_1006539" data-name="Trazado 1006539" d="M129.006,58.278c-.167,2.408,3.127,8.74,6.892,11.595.167,5.131.832,14.029,1.7,19.827,2.724,8.372,5.2,16.393,5.78,21.692.981,1.234,3.915,1.716,5.754,1.033a2.113,2.113,0,0,0,.368-.158c.035-.018.079-.044.122-.061a1.892,1.892,0,0,0,1.078-1.7,78.568,78.568,0,0,0-3.179-20.4l.57-30.423.018-.849Z" transform="translate(-30.337 -13.705)" fill="#2a7aad"/>
            <path id="Trazado_1006540" data-name="Trazado 1006540" d="M150.725,21.59,149.7,35.04l-.571,7.462a14.941,14.941,0,0,0-.741,3.156c-.147,1.026-.285,2.2-.687,4.012l-.038.039a3.032,3.032,0,0,1-.7.47.337.337,0,0,1-.07.039,23.922,23.922,0,0,1-2.74,1.2c-.525.154-1.065.286-1.6.409-4.152.525-10.294-1.7-13.92-4.252-.093-.363-.178-.71-.247-1.034a18.9,18.9,0,0,1-.347-2.083,41.39,41.39,0,0,1-.008-5.826c.1-3.7-.633-16.675-.633-16.675.486-3.773,1.2-6.574,4.36-8.812l3.688-.177,4.476-.216a52.216,52.216,0,0,1,8.249,6.281q1.331,1.228,2.554,2.562" transform="translate(-29.96 -2.998)" fill="#2a7aad"/>
            <path id="Trazado_1006541" data-name="Trazado 1006541" d="M148.662,19.028c-2.764.077-8.125,1.19-7.052,11.683-6.073-.194-11.621-5.155-11.621-5.155-2.091-7.153,2.847-10.965,5.949-12.593l4.476-.216a52.124,52.124,0,0,1,8.249,6.281" transform="translate(-30.452 -2.998)" fill="#fff"/>
            <g id="Grupo_1190802" data-name="Grupo 1190802" transform="translate(98.079 27.327)" opacity="0.3" style="mix-blend-mode: multiply;isolation: isolate">
              <g id="Grupo_1190801" data-name="Grupo 1190801">
                <g id="Grupo_1190800" data-name="Grupo 1190800" clip-path="url(#clip-path-5)">
                  <path id="Trazado_1006542" data-name="Trazado 1006542" d="M150.521,105.206a1.9,1.9,0,0,1-1.081,1.7.638.638,0,0,0-.123.061c-.17.07-.293.124-.363.154-.749-8.658-1.513-17.3-5.1-21.667.61-6.906,1.566-13.666,1.566-19.639a32.263,32.263,0,0,0-1.072-9c.07-1.528,1.1-4.329.872-5.664-.115-.779-4.244.355-8.334-.324-3.295,1.342-6.467,1.62-8.3,1.111a18.926,18.926,0,0,1-.347-2.083c2.1-1.065,6.366-2.932,9.152-4.97,2.669-1.959,8.534-4.1,8.387-4.614a24.27,24.27,0,0,0-1.612-4.545l5.733,4.714-.571,7.462a14.908,14.908,0,0,0-.74,3.156c-.147,1.026-.286,2.2-.687,4.013l-.556,29.73a78.812,78.812,0,0,1,3.179,20.4" transform="translate(-128.236 -35.73)" fill="#25435c"/>
                </g>
              </g>
            </g>
            <path id="Trazado_1006543" data-name="Trazado 1006543" d="M153.6,24.028A81.488,81.488,0,0,1,158.762,36.9a5.688,5.688,0,0,1-3.371,7.02c-3.982,1.513-8.5,1.91-13.928,2.463-1.468-.365-2.453-3.122-1.4-4.46l9.752-3.761-2.461-4.767c-3.312-5.488,2.659-12.868,6.24-9.365" transform="translate(-32.836 -5.437)" fill="#fff"/>
            <path id="Trazado_1006544" data-name="Trazado 1006544" d="M137.118,50.944c1.107-.222.432-3.863-.665-3.751l-1.24.392a31.55,31.55,0,0,0-3.683-1l-3,.794-1.545.811-.7.211c-.907.136-.811.909.039,1.1l1.321-.075,1.807-.686.792.374-3.033,2.317-2.857-.193c-1.012.009-1,.753-.32.964l1.17.353.656.652.7.463.893.386a13.209,13.209,0,0,0,3.876-.617l3.108-1.816Z" transform="translate(-29.058 -10.956)" fill="#ffb294"/>
            <path id="Trazado_1006545" data-name="Trazado 1006545" d="M136.914,19.9c.356.317.468.442.857.475,4.142.355,6.13-4.937,4.643-7.52a20.519,20.519,0,0,1-1.515-3.1l-5.872,4.154a2.965,2.965,0,0,0,.158,1.5c.509,1.488.668,3.551,1.729,4.5" transform="translate(-31.746 -2.294)" fill="#ffb294"/>
            <g id="Grupo_1190805" data-name="Grupo 1190805" transform="translate(103.75 10.455)" opacity="0.5" style="mix-blend-mode: multiply;isolation: isolate">
              <g id="Grupo_1190804" data-name="Grupo 1190804">
                <g id="Grupo_1190803" data-name="Grupo 1190803" clip-path="url(#clip-path-6)">
                  <path id="Trazado_1006546" data-name="Trazado 1006546" d="M137.514,21.183c1.911.434,4.57-1.332,3.278-7.514l-5.141,2.674c.509,1.488.28,3.962,1.863,4.84" transform="translate(-135.651 -13.67)" fill="#ffb294"/>
                </g>
              </g>
            </g>
            <path id="Trazado_1006547" data-name="Trazado 1006547" d="M139.475,8.811s.4,3.09-.383,4.8a8.174,8.174,0,0,1-3.3,3.442,2.174,2.174,0,0,1-2.1.121c-.725-.387-3.13-5.622-3.13-5.622a17.216,17.216,0,0,1-1.213-3.96c-.3-1.838-.55-6.079,4.659-7.341a5.117,5.117,0,0,1,5.8,2.529c.9,1.571.73,5.065.73,5.065Z" transform="translate(-30.387 -0.021)" fill="#ffb294"/>
            <path id="Trazado_1006548" data-name="Trazado 1006548" d="M140.5,8.149l-1.855,2.174-.728-1.335a1.229,1.229,0,0,0-1.68-.679,9.519,9.519,0,0,1-4.821.982,3.512,3.512,0,0,1-2.564-1.1c-1.989-2.736,1.1-6.664,4.17-7.749,3.723-1.319,6.178.564,7.039,2.74a12.585,12.585,0,0,1,.44,4.971" transform="translate(-30.154 0)"/>
            <path id="Trazado_1006549" data-name="Trazado 1006549" d="M142.458,8.34a.871.871,0,0,1,1.051-.239.839.839,0,0,1,.35.535,2.171,2.171,0,0,1,.019.653,10.791,10.791,0,0,1-.154,1.129,1.216,1.216,0,0,1-.4.809c-.26.181-.527.513-.78.324a2.586,2.586,0,0,1-.086-3.211" transform="translate(-33.381 -1.883)" fill="#ffb294"/>
            <path id="Trazado_1006550" data-name="Trazado 1006550" d="M47.2,85.939a10.362,10.362,0,0,0-4.6,1.134c-5.7,2.692-11.18,10.411-24.833,7.46A23.414,23.414,0,0,1,12.69,92.68a22.845,22.845,0,0,1-4.462-3.023l.522-.608a21.955,21.955,0,0,0,4.373,2.742,23.159,23.159,0,0,0,11.291,1.956c9.463-1.083,11.645-5.665,17.241-8.566a12.559,12.559,0,0,1,5.54-1.544Z" transform="translate(-1.935 -19.669)" fill="#8c6239"/>
            <path id="Trazado_1006551" data-name="Trazado 1006551" d="M154.343,159.85a10.287,10.287,0,0,1-4.847,3.394c-.771.121-4.94-1.524-7.619-2.7-4.149-1.828-8.926-1.217-12.534-1.507-.561-.044-1.082-.07-1.566-.081-2.99-.08-4.489.305-5.033-.817a4.645,4.645,0,0,1,5.643-6.216l.268.078a11.345,11.345,0,0,1-4.688-4.694c-.791-1.87,4.737-7.953,4.857-8.149l14.279,3.957a4.773,4.773,0,0,1,2.607,2.664c.777,2.015,11.133,10.092,8.632,14.074" transform="translate(-28.778 -32.725)" fill="#8c6239"/>
            <path id="Trazado_1006552" data-name="Trazado 1006552" d="M142.723,130.449l-10.631,6.59-.8,3.492a9.867,9.867,0,0,1-3.893,5.843l-5.182,3.7a20.961,20.961,0,0,1-17.2-1.021l-13.89-8.73a21.787,21.787,0,0,1-5.33-3.929l-8.85-7.047-8.885-8.871-5.935-4.512-.88-.669-.6-.45-9.962-7.561-.077-.556L48.86,94.656,48.445,91.8l2.548-7.519a4.919,4.919,0,0,1,1.45-2.141,4.671,4.671,0,0,1,1.091-.732l9.54-4.52a5,5,0,0,1,2.788-.415L76.67,78.005a6.884,6.884,0,0,1,2.816,1.056l7.407,4.851,15.531,6.6,9.434,4.006a6.961,6.961,0,0,1,2.217,1.5l3.6,3.583,5.752,5.716,8.688-.253.837-.021,3.182-.078a3.853,3.853,0,0,1,3.943,3.4l.33,2.774,1.585,13.293.2,1.584Z" transform="translate(-11.393 -17.974)" fill="#8c6239"/>
            <path id="Trazado_1006553" data-name="Trazado 1006553" d="M71.2,93.561c-1.268,2.54-2.143,5.742-.549,8.091,1.7,2.509,5.3,2.748,7.768,4.516,1.982,1.423,3.2,3.829,5.4,4.885,2.983,1.433,6.519-.148,9.226-2.053,2.4-1.687,4.8-4.083,4.649-7.01a7.292,7.292,0,0,0-3.371-5.252c-4.711-3.36-11.529-3.61-15.134-8.138-1.171-1.472-3.466-5.42-5.244-2.918-.47.662-.34,2.623-.609,3.464A32.316,32.316,0,0,1,71.2,93.561" transform="translate(-16.413 -19.959)" fill="#603813"/>
            <path id="Trazado_1006554" data-name="Trazado 1006554" d="M134.084,103.927a20.649,20.649,0,0,1-1.359,2.739c-.7,1.239-1.725,2.654-3.147,2.527a3,3,0,0,1-2.148-1.732,21.383,21.383,0,0,0-1.288-2.57c-1.7-2.359-5.407-2.513-7.1-4.879a5,5,0,0,1-.437-4.675,4.556,4.556,0,0,1,.226-.5l9.433,4.006a6.966,6.966,0,0,1,2.218,1.5Z" transform="translate(-27.804 -22.303)" fill="#603813"/>
            <path id="Trazado_1006555" data-name="Trazado 1006555" d="M105.631,131.813a4.5,4.5,0,0,0,2.708,5.033,1.329,1.329,0,0,0,.821.076c.564-.173.745-.867.834-1.451.206-1.348,1.924-7.195.486-7.969-1.726-.93-4.579,3-4.849,4.311" transform="translate(-24.821 -29.952)" fill="#603813"/>
            <path id="Trazado_1006556" data-name="Trazado 1006556" d="M120.138,152.682a8.553,8.553,0,0,0,5.423,7.621,7.7,7.7,0,0,0,8.782-2.791,7,7,0,0,0-1.223-8.979c-1.212-1-2.821-1.592-3.651-2.927-1.493-2.4-1.457-7.372-4.581-3.481-2.37,2.953-4.889,6.605-4.75,10.557" transform="translate(-28.252 -33.085)" fill="#603813"/>
            <path id="Trazado_1006557" data-name="Trazado 1006557" d="M161,144.527,153.791,149l-3.41,2.118-.745,3.264c-.018.072-.034.144-.055.216l-.015.064a1.719,1.719,0,0,1-.049.187,10.5,10.5,0,0,1-3.916,5.669c-.034.026-.069.052-.106.077l-3.68,2.625-1.312.935c-.3.115-.6.222-.909.323-.1.034-.207.069-.314.1l-.279.086c-.222.067-.443.127-.668.184-.348.092-.7.176-1.053.248-.621.126-1.246.227-1.873.3a20.948,20.948,0,0,1-6.357-.253l-2.86-.766,5.628-1.787a12.789,12.789,0,0,0,8.414-9.865,8.728,8.728,0,0,1,3.876-6l4.639-3.007,5.4-7.073.25-.327,5.876,2.187.19,1.585Z" transform="translate(-29.676 -32.059)" fill="#dbb78c"/>
            <g id="Grupo_1190808" data-name="Grupo 1190808" transform="translate(96.52 132.321)" opacity="0.5" style="mix-blend-mode: multiply;isolation: isolate">
              <g id="Grupo_1190807" data-name="Grupo 1190807">
                <g id="Grupo_1190806" data-name="Grupo 1190806" clip-path="url(#clip-path-7)">
                  <path id="Trazado_1006558" data-name="Trazado 1006558" d="M135.409,174.024a20.949,20.949,0,0,1-6.357-.253l-2.854-.764a20.957,20.957,0,0,0,9.211,1.017" transform="translate(-126.198 -173.007)" fill="#a67c52"/>
                </g>
              </g>
            </g>
            <g id="Grupo_1190811" data-name="Grupo 1190811" transform="translate(49.277 89.669)" opacity="0.5" style="mix-blend-mode: multiply;isolation: isolate">
              <g id="Grupo_1190810" data-name="Grupo 1190810">
                <g id="Grupo_1190809" data-name="Grupo 1190809" clip-path="url(#clip-path-8)">
                  <path id="Trazado_1006559" data-name="Trazado 1006559" d="M116.259,128.3a17.389,17.389,0,0,0,2.229,1.4,39.9,39.9,0,0,0,7.108,2.374,6.431,6.431,0,0,1,4.327,2.394,5.567,5.567,0,0,1-3.237,5.4,5.611,5.611,0,0,0-3.016,3.422l-.46,1.462a9.561,9.561,0,0,1-7.916,6.644l-6.549-1.907c-11.28-5.824-17.487-8.193-24.505-14.77-3.53-3.306-8.443-5.8-12.155-11.289-.921-1.372-1.868-2.823-2.834-4.388l-4.823,5.39,1.462,1.122,5.936,4.509,8.886,8.874,8.846,7.05a22.03,22.03,0,0,0,5.329,3.925l13.9,8.727a20.813,20.813,0,0,0,2.883,1.246l5.628-1.787a12.79,12.79,0,0,0,8.413-9.865,8.727,8.727,0,0,1,3.876-6l4.639-3.007,5.4-7.073L135.48,129.9a14.667,14.667,0,0,0,2.6-1.079,11.565,11.565,0,0,0,6.083-8.086,7.26,7.26,0,0,0,.089-.733,8.528,8.528,0,0,0-.259-2.763Z" transform="translate(-64.428 -117.24)" fill="#a67c52"/>
                </g>
              </g>
            </g>
            <g id="Grupo_1190814" data-name="Grupo 1190814" transform="translate(39.769 58.451)" opacity="0.25" style="mix-blend-mode: overlay;isolation: isolate">
              <g id="Grupo_1190813" data-name="Grupo 1190813">
                <g id="Grupo_1190812" data-name="Grupo 1190812" clip-path="url(#clip-path-9)">
                  <path id="Trazado_1006560" data-name="Trazado 1006560" d="M132.946,105.068a4.373,4.373,0,0,1-1.293,2.278,11.569,11.569,0,0,1-3.352,2.015q-5.454,2.471-10.914,4.948a7.291,7.291,0,0,1-4.067.959c-2.187-.354-3.513-2.522-4.955-4.208-3.482-4.093-8.822-6.042-14.009-7.458s-10.6-2.5-15.1-5.437c-3.617-2.369-6.441-5.8-10.058-8.185s-8.68-3.482-12.129-.863c-1.216.927-2.632,2.336-3.983,1.628-.952-.5-1.132-1.783-1.087-2.864a16.688,16.688,0,0,1,1.273-5.74,4.648,4.648,0,0,1,1.1-.727L63.914,76.9a4.89,4.89,0,0,1,2.786-.424L77.5,78a6.955,6.955,0,0,1,2.818,1.062l7.406,4.845,24.967,10.6a7.128,7.128,0,0,1,2.22,1.493l9.343,9.3Z" transform="translate(-51.997 -76.423)" fill="#fff"/>
                </g>
              </g>
            </g>
            <path id="Trazado_1006561" data-name="Trazado 1006561" d="M170.776,106.3c1.105-1.294,2.306-2.652,3.942-3.121,2.121-.607,4.326.441,6.283,1.459a2.994,2.994,0,0,1,1.67,1.532c.312,1.01-.491,1.994-1.231,2.748a7.94,7.94,0,0,1-7.829,3.091c-1.1-.048-6.064.4-6.426-.76-.4-1.278,2.912-4.153,3.591-4.948" transform="translate(-39.309 -24.222)" fill="#603813"/>
            <path id="Trazado_1006562" data-name="Trazado 1006562" d="M173.6,108.557a9.708,9.708,0,0,1,3.033-2.72,4.893,4.893,0,0,1,4.218.029,2.032,2.032,0,0,1,1.327,1.923,2.512,2.512,0,0,1-1.011,1.379,6.952,6.952,0,0,1-6.052,2.207c-.6-.011-3.066.273-3.306-.294s1.427-2.158,1.791-2.523" transform="translate(-40.399 -24.781)" fill="#1a1a1a"/>
            <path id="Trazado_1006563" data-name="Trazado 1006563" d="M167.453,107.948s4.122-3.25,3.547-7.625c0,0-.262-1.165.721,0s1.985,4.511,1.076,7.838c-.453,1.3-5.76.857-5.345-.213" transform="translate(-39.374 -23.471)" fill="#d9bc79"/>
            <path id="Trazado_1006564" data-name="Trazado 1006564" d="M179.842,144.755a9.709,9.709,0,0,1-5.218,1.6h-.141a4.916,4.916,0,0,1-4.311-2.232l-1.609-3.829-8.236-1.12a10.278,10.278,0,0,1-7.812-5.592l-3.577-7.156-1.062-8.256,10.38-7.053a3.841,3.841,0,0,1,2.168-.668h6.513a3.846,3.846,0,0,1,2.889,1.3l2.388,2.683a3.871,3.871,0,0,1,.926,1.956l.682,4.247,6,10.193,1.428,1.428,1.468,1.468c.122.276.238.54.36.8,2.239,4.987,3.211,6.087-3.237,10.231" transform="translate(-34.776 -25.975)" fill="#603813"/>
            <path id="Trazado_1006565" data-name="Trazado 1006565" d="M139.169,120.249a9.528,9.528,0,0,0-3.8.87c-1.592.873-2.537,2.556-3.4,4.154-.544,1.007-1.1,2.2-.642,3.247s1.729,1.46,2.849,1.742a25.808,25.808,0,0,0,5.277.941,8.653,8.653,0,0,0,5.131-1.26,10.861,10.861,0,0,0,3.248-3.95,8.2,8.2,0,0,0,1.208-3.5c.086-1.933-.823-2.993-2.639-2.875-2.413.157-4.825.422-7.234.633" transform="translate(-30.844 -28.128)" fill="#603813"/>
            <path id="Trazado_1006566" data-name="Trazado 1006566" d="M139.638,130.661c1.747.134,3.69-.03,4.929-1.269,1.27-1.27,1.4-3.252,1.462-5.047a1.362,1.362,0,0,0-.237-1.007,1.291,1.291,0,0,0-.847-.3,14.3,14.3,0,0,0-7.971,1.659c-1.654.885-5.854,3.375-2.6,4.825a16.274,16.274,0,0,0,5.263,1.137" transform="translate(-31.318 -28.922)" fill="#1a1a1a"/>
            <path id="Trazado_1006567" data-name="Trazado 1006567" d="M184.321,146.287a9.709,9.709,0,0,1-5.218,1.6h-.141a4.916,4.916,0,0,1-4.311-2.233l-1.609-3.829c1.1-.953,2.574-1.165,3.263-2.471,1.39-2.671.476-5.785-.792-8.295a49.906,49.906,0,0,0-4.659-7.091c-.122-.161-.245-.328-.367-.5-.656-.882-3.326-1.274-3.558-2.349s3.262-3.494,4.234-4.009c1.139-.611,1.467.714,2.194,1.776a11.727,11.727,0,0,1,1.3,3.623,16.854,16.854,0,0,0,5.6,8.513c2.188,1.763,2.954,2.458,4.472,2.992a1.272,1.272,0,0,0,1-.232l1.468,1.468c.122.276.238.54.36.8.187.418.366.8.528,1.171.225.5.431.952.6,1.371,1.21,3,.818,4.363-4.363,7.69" transform="translate(-39.254 -27.506)" fill="#dbb78c"/>
            <path id="Trazado_1006568" data-name="Trazado 1006568" d="M181.7,151.575a.6.6,0,0,0-.823.882,1.228,1.228,0,0,0,.979.216l3.31-.225c.174-.011.377-.042.457-.2.142-.275-.249-.512-.551-.57a13.947,13.947,0,0,0-3.522-.226Z" transform="translate(-42.498 -35.611)" fill="#1a1a1a"/>
            <path id="Trazado_1006569" data-name="Trazado 1006569" d="M194.9,144.828a.3.3,0,0,1-.013.083,7.228,7.228,0,0,1-.772,1.885c-.128.245-.4.535-.624.373-.142-.1-.135-.315-.109-.489.116-.759.251-2.548.8-3.121a.873.873,0,0,1,.116-.1c.225.5.431.952.6,1.371" transform="translate(-45.475 -33.737)" fill="#1a1a1a"/>
            <path id="Trazado_1006570" data-name="Trazado 1006570" d="M164.234,132.007a1.314,1.314,0,0,0,.665.963,1.755,1.755,0,0,0,1.176.177,1.26,1.26,0,0,0,.959-.654,1.172,1.172,0,0,0-.534-1.38c-.836-.525-2.418-.44-2.266.894" transform="translate(-38.62 -30.763)"/>
            <path id="Trazado_1006571" data-name="Trazado 1006571" d="M180.591,122.531a1.119,1.119,0,0,0,.059,1.052.687.687,0,0,0,.959.177,1.063,1.063,0,0,0,.255-.839,2.09,2.09,0,0,0-.109-.76c-.357-.9-.93-.2-1.164.371" transform="translate(-42.445 -28.627)"/>
            <path id="Trazado_1006572" data-name="Trazado 1006572" d="M68.721,113.112a1.363,1.363,0,0,1-.057.162,2.766,2.766,0,0,1-.718,1.055c-.084.085-.169.162-.26.24-.789.64-1.514,1.211-2.183,1.718-3.245,2.428-5.273,3.309-7.111,3.28s-3.485-.971-5.963-2.168c-.112-.057-.225-.106-.345-.162.444.3,8.167,7.6,10.469,11.856.063.106.113.211.162.31,2.112,4.252-.8,4.71-.8,4.71-5.985.837-6.344-1.718-6.414-2.669-.021-.288-.043-.662-.063-1.084a25.987,25.987,0,0,0-.331-3.091c-.268-1.4-1.718-2.31-4.949-3.922a30.189,30.189,0,0,1-10.1-7.8c-2.738-3.527-.408-2.7,2.612-3.816a4.513,4.513,0,0,0,3.218-4.083,17.067,17.067,0,0,0,.07-2.936c-.063-1.577-.035-3.316.028-4.78.077-1.937.2-3.4.2-3.4s24.374,10.4,22.536,16.58" transform="translate(-9.133 -22.701)" fill="#8c6239"/>
            <path id="Trazado_1006573" data-name="Trazado 1006573" d="M67.014,144.121c-5.982.841-6.345-1.718-6.412-2.662-.02-.291-.04-.668-.066-1.088.06-.337.1-.544.1-.544s3.1,1.87,5.407.814a3,3,0,0,0,1.615-1.54c.057.107.109.21.161.311,2.112,4.25-.805,4.708-.805,4.708" transform="translate(-14.236 -32.713)"/>
            <path id="Trazado_1006574" data-name="Trazado 1006574" d="M138.62,171.551c-1.077,1.718-3.556,4.041-4.33,4.161a22.7,22.7,0,0,1-7.942-1.485,43.593,43.593,0,0,0-12.728-3.492c-.557-.049-1.078-.07-1.563-.084-.331-.007-.648-.015-.944-.015-2.373,0-3.612.19-4.09-.8a4.646,4.646,0,0,1,5.647-6.217c.127.035.211.063.246.07A11.3,11.3,0,0,1,108.247,159c-.8-1.872,4.738-7.955,4.858-8.152l4.252,1.176,10.026,2.781s-1.225,2.95-.451,4.964a7.14,7.14,0,0,0,2.338,2.02c3.943,2.655,11.25,6.724,9.349,9.758" transform="translate(-25.081 -35.476)" fill="#8c6239"/>
            <path id="Trazado_1006575" data-name="Trazado 1006575" d="M132.442,162.153a7.834,7.834,0,0,1-6.878.9,8.551,8.551,0,0,1-5.421-7.618,10.078,10.078,0,0,1,.387-3.049l10.025,2.781s-1.225,2.95-.45,4.964a7.126,7.126,0,0,0,2.337,2.021" transform="translate(-28.253 -35.837)" fill="#603813"/>
            <path id="Trazado_1006576" data-name="Trazado 1006576" d="M112.054,174.515c-2.987-.08-4.486.305-5.03-.817a4.644,4.644,0,0,1,5.642-6.216l.268.077,2.052.993s-4.653,1.077-4.509,4.018a2.563,2.563,0,0,0,1.577,1.945" transform="translate(-25.081 -39.341)"/>
            <path id="Trazado_1006577" data-name="Trazado 1006577" d="M143.473,113.3s-.519,4.669,6.383,6.048c4.628.626,4.643-4.036,2.516-4.265,0,0-6.093,1.748-8.9-1.783" transform="translate(-33.739 -26.645)" fill="#d9bc79"/>
            <g id="Grupo_1190817" data-name="Grupo 1190817" transform="translate(41.884 90.342)" opacity="0.5" style="mix-blend-mode: multiply;isolation: isolate">
              <g id="Grupo_1190816" data-name="Grupo 1190816">
                <g id="Grupo_1190815" data-name="Grupo 1190815" clip-path="url(#clip-path-10)">
                  <path id="Trazado_1006578" data-name="Trazado 1006578" d="M72.566,118.121c-.049.078-.1.152-.152.227-.245.372-.483.723-.72,1.059-.086.083-.173.161-.265.236-.785.642-1.511,1.211-2.181,1.718-6.494,4.869-8.117,3.517-13.072,1.117a5.159,5.159,0,0,1-1.413-1.741c4.541,1.879,8.871,3.709,17.705-2.547l.1-.069" transform="translate(-54.763 -118.121)" fill="#a67c52"/>
                </g>
              </g>
            </g>
            <g id="Grupo_1190820" data-name="Grupo 1190820" transform="translate(89.904 129.212)" opacity="0.5" style="mix-blend-mode: multiply;isolation: isolate">
              <g id="Grupo_1190819" data-name="Grupo 1190819">
                <g id="Grupo_1190818" data-name="Grupo 1190818" clip-path="url(#clip-path-11)">
                  <path id="Trazado_1006579" data-name="Trazado 1006579" d="M117.548,168.942s11.8,3.487,15.154,5.964l2.493-1.7Z" transform="translate(-117.548 -168.942)" fill="#a67c52"/>
                </g>
              </g>
            </g>
            <path id="Trazado_1006580" data-name="Trazado 1006580" d="M57.758,103.474c.007,1.478-1.528,2.4-2.5,3.521a15.956,15.956,0,0,0-1.626,2.654,5.331,5.331,0,0,1-2.091,2.26,2.558,2.558,0,0,1-1.021.268,2.089,2.089,0,0,1-1.823-.74,3.519,3.519,0,0,1-.514-1.88c-.021-.317-.07-.718-.134-1.182a17.138,17.138,0,0,0,.07-2.936c-.063-1.577-.035-3.316.028-4.78a1.918,1.918,0,0,1,.62-.549c1.81-1.127,5.252-.07,6.836.725,1.07.535,2.148,1.443,2.155,2.64" transform="translate(-11.3 -23.427)" fill="#603813"/>
            <path id="Trazado_1006581" data-name="Trazado 1006581" d="M3.484,89.2A6.291,6.291,0,0,1,.967,86.066,18.689,18.689,0,0,1,0,82.1a45.214,45.214,0,0,1,5.066,3.147,7.248,7.248,0,0,1,1.927,1.81c1.815,2.769-1.641,3.241-3.51,2.148" transform="translate(0 -19.307)" fill="#603813"/>
            <path id="Trazado_1006582" data-name="Trazado 1006582" d="M38.97,138.447a.66.66,0,0,1-.331-1.232l8.586-4.957a.66.66,0,1,1,.66,1.144L39.3,138.359a.66.66,0,0,1-.33.088" transform="translate(-9.009 -31.082)" fill="#5e3930"/>
            <path id="Trazado_1006583" data-name="Trazado 1006583" d="M56.576,138.447a.66.66,0,0,1-.33-.088L47.661,133.4a.66.66,0,1,1,.66-1.144l8.585,4.957a.66.66,0,0,1-.33,1.232" transform="translate(-11.131 -31.082)" fill="#5e3930"/>
            <path id="Trazado_1006584" data-name="Trazado 1006584" d="M40.012,126.366l-3.277-.073-1.027,22.35a.576.576,0,0,0,.343.5,1.834,1.834,0,0,0,1.66,0,.6.6,0,0,0,.338-.444s1.964-22.329,1.964-22.329" transform="translate(-8.397 -29.7)" fill="#855044"/>
            <path id="Trazado_1006585" data-name="Trazado 1006585" d="M57.343,126.366l3.277-.073,1.027,22.35a.576.576,0,0,1-.343.5,1.834,1.834,0,0,1-1.66,0,.6.6,0,0,1-.338-.444s-1.964-22.329-1.964-22.329" transform="translate(-13.485 -29.7)" fill="#855044"/>
            <path id="Trazado_1006586" data-name="Trazado 1006586" d="M46.569,146.158a.653.653,0,0,1-.33-.089l-7.6-4.388a.661.661,0,1,1,.661-1.144l7.6,4.388a.661.661,0,0,1-.331,1.233" transform="translate(-9.009 -33.029)" fill="#5e3930"/>
            <path id="Trazado_1006587" data-name="Trazado 1006587" d="M49.094,146.24a.661.661,0,0,1-.33-1.233l7.742-4.47a.66.66,0,1,1,.66,1.144l-7.742,4.47a.66.66,0,0,1-.33.088" transform="translate(-11.39 -33.029)" fill="#5e3930"/>
            <path id="Trazado_1006588" data-name="Trazado 1006588" d="M50.431,132.169h-3.28l.46,23.2a.591.591,0,0,0,.343.471,1.834,1.834,0,0,0,1.66,0,.588.588,0,0,0,.343-.471l.474-23.2" transform="translate(-11.088 -31.082)" fill="#855044"/>
            <path id="Trazado_1006589" data-name="Trazado 1006589" d="M55.044,125.413a8.584,8.584,0,0,0-1.7-1.258,15.826,15.826,0,0,0-14.32,0,8.606,8.606,0,0,0-1.7,1.258H36.057v2.545c0,1.331.988,2.662,2.965,3.8a15.826,15.826,0,0,0,14.32,0c1.977-1.141,2.965-2.473,2.965-3.8v-2.545Z" transform="translate(-8.48 -28.795)" fill="#5e3930"/>
            <path id="Trazado_1006590" data-name="Trazado 1006590" d="M39.022,120.395c-3.954,2.283-3.954,5.985,0,8.267a15.826,15.826,0,0,0,14.32,0c3.954-2.282,3.954-5.984,0-8.267a15.826,15.826,0,0,0-14.32,0" transform="translate(-8.479 -27.91)" fill="#cc8b7c"/>
            <path id="Trazado_1006591" data-name="Trazado 1006591" d="M45.41,110.845c-1.722,3.821-1.446,7.53-.337,11.192,4.877,3.953,11.158,6.78,19,8.484-3.392,5.49-.882,9.269-1,15.827a7.116,7.116,0,0,0-.479,3.5,8.193,8.193,0,0,0,2.65,3.97c1.663,1.212,3.293,2.179,4.726,1.628l3.026-1.721-3.957-3.371c-1.145-1.464-2.489-2.407-2.284-3.915.328-4.166,2.477-9.636,3.477-14.832a7.328,7.328,0,0,0-2.032-6.89L53.6,112.553Z" transform="translate(-10.39 -26.067)" fill="#f29b79"/>
            <path id="Trazado_1006592" data-name="Trazado 1006592" d="M68.864,157.537a6.946,6.946,0,0,0-.737,5.582c.866,1.264,2.106,1.717,3.519,3.567l1.29,1.205c2.5,1.507,5.285,1.6,6.719.716.871-1.387.361-3.88-2.987-5.524,2.16,1.748.168,3.007-1.885,3.087-1.391-.164-2.426-1.6-4.077-3.535-1.533-2.041-2.3-3.467-1.842-5.1" transform="translate(-15.957 -37.048)"/>
            <path id="Trazado_1006593" data-name="Trazado 1006593" d="M35.424,113.077c-1.371,3.845-.731,7.622.746,11.375,5.319,4.139,12.328,7.257,20.426,9.183-2.9,5.5.224,9.322.737,15.987-.42,1.445-.932,2.33-.737,3.542a9.828,9.828,0,0,0,3.067,4.1c1.8,1.273,3.545,2.3,4.941,1.77l3.163-1.829-4.374-3.39c-1.3-1.516-2.3-3.225-2.238-4.755-.072-4.228.892-9,1.4-14.263a6.87,6.87,0,0,0-2.844-6.713l-17.2-13.237Z" transform="translate(-8.153 -26.592)" fill="#ffb294"/>
            <path id="Trazado_1006594" data-name="Trazado 1006594" d="M63.989,160.858a6.943,6.943,0,0,0-.737,5.582c.866,1.263,2.106,1.717,3.519,3.568l1.29,1.2c2.5,1.507,6.555.828,7.989-.053.872-1.387-.909-3.111-4.257-4.755,2.16,1.748.167,3.007-1.885,3.087-1.391-.164-2.426-1.6-4.077-3.535-1.533-2.041-2.3-3.467-1.842-5.1" transform="translate(-14.811 -37.829)"/>
            <path id="Trazado_1006595" data-name="Trazado 1006595" d="M60.956,81.6c3.573,5.382,5.429,8.37,7.091,11.246l1.238.719a12.548,12.548,0,0,0-3.155,4.215l-.167-.049a4.637,4.637,0,0,1-2.114-1.75c-2.363-3.022-4.34-6-8-11.429-3.178-5.255,2.535-6.794,5.1-2.952" transform="translate(-12.914 -18.687)" fill="#fff"/>
            <path id="Trazado_1006596" data-name="Trazado 1006596" d="M35.6,117.176c2.109,2.793,6.443,4.933,11.091,6.392a54.585,54.585,0,0,0,8.522,1.913c.046.005.1.016.145.021-.026-.077-.041-.156-.062-.233a3.582,3.582,0,0,1,1.494-3.579,5.334,5.334,0,0,1,3.377-1.174,2.409,2.409,0,0,0,2.017-1c1.339-1.852,2.347-3.061,3.164-2.523-4.374-5.321-9.989-7.973-12.849-11.3l-.119-.15a7.935,7.935,0,0,1,.315-5.73,4.878,4.878,0,0,0,.678-.144A4.817,4.817,0,0,0,57,95.9a7.108,7.108,0,0,0-1.107-3.947,8.058,8.058,0,0,1-.848-5.01c.492-3.257.109-6.22-3.5-7.368,0,0-13.661,3.686-15.263,9.778a10.221,10.221,0,0,0-.331,2.46,19.408,19.408,0,0,0,.507,4.09c.362,1.78.7,3.351.2,4.716-.791,2.131-1.613,4.866-2.047,6.371-.113.362-.2.672-.285.987-.021.083-.036.135-.036.135-.776,3.175-.615,6.5,1.319,9.063" transform="translate(-7.961 -18.714)" fill="#fff"/>
            <g id="Grupo_1190823" data-name="Grupo 1190823" transform="translate(25.892 71.849)" style="mix-blend-mode: multiply;isolation: isolate">
              <g id="Grupo_1190822" data-name="Grupo 1190822">
                <g id="Grupo_1190821" data-name="Grupo 1190821" clip-path="url(#clip-path-12)">
                  <path id="Trazado_1006597" data-name="Trazado 1006597" d="M34.292,111.5a.676.676,0,0,1,.031-.14c.083-.315.171-.625.268-.941.45-1.551,1.272-4.286,2.064-6.417.5-1.36.168-2.925-.193-4.7a19.516,19.516,0,0,1-.511-4.109l.109-.305,1.808,2.369,2.3-3.315c4.008.978,2.947,11.252,7.6,12.071,4.335.817,3.253-4.254,5.6-2.964a4.683,4.683,0,0,1-.677.145,7.938,7.938,0,0,0-.313,5.739,11.8,11.8,0,0,1-1.861,3.938l3.895,5.186c-2.793.478-6.107,3.753-16.035-5.878-1.016-.986-1.325,1.606-1.558,3.007a7.6,7.6,0,0,0,.114,2.988c1.814,3.806,5.459,6.071,9.762,8.77-4.653-1.458-8.987-3.6-11.1-6.391-1.933-2.564-2.094-5.889-1.313-9.059" transform="translate(-33.854 -93.941)" fill="#d1e1eb"/>
                </g>
              </g>
            </g>
            <path id="Trazado_1006598" data-name="Trazado 1006598" d="M53.4,81.8l3.233,3.4v6.961l-.948,3.95-5.3-8.867L48.129,83.21l.851-1.12Z" transform="translate(-11.319 -19.237)" fill="#ffb294"/>
            <path id="Trazado_1006599" data-name="Trazado 1006599" d="M49.888,80.549c-1.839,1.312-.965,4.032,1.045,6.561,1.812,2.279,4.674,7.325,4.885,10.976-1.756-3.627-4.944-8.164-6.727-9.493l.575-1.293-1.223.233a7.094,7.094,0,0,1-1.414-4.9Z" transform="translate(-11.049 -18.943)" fill="#dfecf5"/>
            <path id="Trazado_1006600" data-name="Trazado 1006600" d="M55.5,80.5l1.7.056,2.031,2.623-.653.6.968.527c-.042,5.537-.579,9.38-2.093,12.532l-.316-.825c.723-5.092.85-13.324-1.638-15.512" transform="translate(-13.053 -18.932)" fill="#dfecf5"/>
            <g id="Grupo_1190826" data-name="Grupo 1190826" transform="translate(38.751 63.014)" opacity="0.5" style="mix-blend-mode: multiply;isolation: isolate">
              <g id="Grupo_1190825" data-name="Grupo 1190825">
                <g id="Grupo_1190824" data-name="Grupo 1190824" clip-path="url(#clip-path-13)">
                  <path id="Trazado_1006601" data-name="Trazado 1006601" d="M50.666,82.39s1.957,7.439,4.312,7c1.687-.314,1.411-6.482,1.411-6.482Z" transform="translate(-50.666 -82.39)" fill="#ffb294"/>
                </g>
              </g>
            </g>
            <path id="Trazado_1006602" data-name="Trazado 1006602" d="M60.968,74.779s.172,6.945-3.93,9.229c-1.82,1.014-3.482-.839-3.482-.839-1.792-1.9-3.012-3.753-2.88-5.524l2.363-4.335Z" transform="translate(-11.915 -17.241)" fill="#ffb294"/>
            <path id="Trazado_1006603" data-name="Trazado 1006603" d="M47.966,82.155c1.968.692,5.538-1.755,5.619-1.31.07.385-.536,1.316-.964,2.1,2.141-.28,6.425-4.053,6.691-7.947a4.137,4.137,0,0,1,.173,3.319c2.035-.685,5.089-10.113-6.324-10.032-8.666.063-5.2,13.872-5.2,13.872" transform="translate(-11.119 -16.058)"/>
            <path id="Trazado_1006604" data-name="Trazado 1006604" d="M60.7,115.6a2.023,2.023,0,0,1-1.4-.468c-1.143-1.021-.831-3.485-.467-6.335a27.932,27.932,0,0,0,.347-5.4c-.387-5.1-1.192-5.654-1.2-5.66l.133-.278c.1.041.968.563,1.375,5.914a28.115,28.115,0,0,1-.349,5.463c-.337,2.65-.657,5.153.366,6.067a2.457,2.457,0,0,0,2.286.239,47.513,47.513,0,0,0,6.841-2.6c3.6-1.562,7.326-3.176,10.446-3.452a3.55,3.55,0,0,1,.6.024c.94.085,2.223.2,2.564-1.619l.3.057c-.392,2.092-1.958,1.955-2.894,1.87a3.584,3.584,0,0,0-.548-.024c-3.071.272-6.772,1.876-10.351,3.428a47.823,47.823,0,0,1-6.891,2.613,4.94,4.94,0,0,1-1.162.158" transform="translate(-13.635 -22.918)" fill="#4d4d4d"/>
            <path id="Trazado_1006605" data-name="Trazado 1006605" d="M90.654,111.653l.407.015a1.007,1.007,0,0,0,.81-.411,1.917,1.917,0,0,0,.124-2.132.961.961,0,0,0-.759-.472l-.406-.015Z" transform="translate(-21.319 -25.548)"/>
            <path id="Trazado_1006606" data-name="Trazado 1006606" d="M89.7,109.049a.917.917,0,0,1,1.569.06,1.917,1.917,0,0,1-.125,2.132.917.917,0,0,1-1.568-.06,1.917,1.917,0,0,1,.124-2.132" transform="translate(-21.004 -25.548)" fill="#999"/>
            <path id="Trazado_1006607" data-name="Trazado 1006607" d="M89.631,111.307l.752.028a.712.712,0,0,0,.573-.291,1.356,1.356,0,0,0,.088-1.508.678.678,0,0,0-.536-.333l-.753-.028Z" transform="translate(-21.079 -25.675)"/>
            <path id="Trazado_1006608" data-name="Trazado 1006608" d="M88.959,109.466a.649.649,0,0,1,1.109.042,1.355,1.355,0,0,1-.088,1.507.649.649,0,0,1-1.109-.042,1.355,1.355,0,0,1,.088-1.507" transform="translate(-20.856 -25.675)" fill="gray"/>
            <path id="Trazado_1006609" data-name="Trazado 1006609" d="M82.926,106.6l.405.218.986,1.668,1.238.828.713.545,1.078.3c.51.08.565-.5.067-.85l-.883-.472-.469-.781a1.491,1.491,0,0,1,1.384-.715s.9.757.933.8.781.786.781.786c.59.678,1.133.249.724-.35l-.862-1.01-.641-.8,1.354.631.923.691c.549.38,1.01.014.62-.418l-.774-.684-.818-.628,1.169.346.655.571a.64.64,0,0,0,.7.157.3.3,0,0,0-.05-.521c.077-.159-.111-.395-.257-.495l-1.246-.719-3.016-.761-2.626-.288-2.116-.087c-1.124-.275-.761,1.524.031,2.041" transform="translate(-19.327 -24.583)" fill="#ffb294"/>
            <path id="Trazado_1006610" data-name="Trazado 1006610" d="M72.733,97.9l8.906,5.168c-.923.077-1.323.839-1.273,2.188-5.656-1.69-6.952-2.024-10.789-3.141A12.556,12.556,0,0,1,72.733,97.9" transform="translate(-16.363 -23.024)" fill="#fff"/>
            <path id="Trazado_1006611" data-name="Trazado 1006611" d="M56.165,94.422a.175.175,0,0,1-.088-.024c-3.522-2.046-5.654-5.205-6.707-9.944a1.292,1.292,0,0,1,.746-1.461l.48-.21a.176.176,0,0,1,.141.322l-.48.21a.942.942,0,0,0-.545,1.064c1.031,4.636,3.109,7.722,6.541,9.716a.176.176,0,0,1-.089.327" transform="translate(-11.603 -19.465)" fill="#4d4d4d"/>
            <path id="Trazado_1006612" data-name="Trazado 1006612" d="M58.354,95.007a.17.17,0,0,1-.144.074.166.166,0,0,1-.1-.028.176.176,0,0,1-.045-.246,12.757,12.757,0,0,0,2.2-8.463c.109-.281.2-.527.285-.748a13.254,13.254,0,0,1-2.2,9.411" transform="translate(-13.648 -20.13)" fill="#4d4d4d"/>
            <path id="Trazado_1006613" data-name="Trazado 1006613" d="M50.34,83.451a.351.351,0,0,1-.141-.673l.48-.21a.351.351,0,1,1,.281.643l-.48.21a.348.348,0,0,1-.14.029" transform="translate(-11.756 -19.411)" fill="#4d4d4d"/>
            <path id="Trazado_1006614" data-name="Trazado 1006614" d="M54.72,124.546l.988.814a6.021,6.021,0,0,0,3.516,1.784l.775.586.547,1.116c.45.882.824.463.667-.215l-.33-.906-.568-.656.179-.063.768.418,1.033.906.234.407a.584.584,0,0,0,.638.277l.061-.014.1.084a.391.391,0,0,0,.533-.04.611.611,0,0,0,.126-.613l-.335-.971-.776-.993.216.528.521.578.3.583c.335.574.7.2.624-.314l-.321-.834-.545-1.472-1.879-1.049-3.859-.892-1.46-.982L55,122.027c-1-1-1.017,1.635-.281,2.519" transform="translate(-12.747 -28.644)" fill="#ffb294"/>
            <path id="Trazado_1006615" data-name="Trazado 1006615" d="M36.4,95.868c.926,6.478,1.068,8.542,1.878,12.292a4.074,4.074,0,0,0,1.368,2.267c3.042,2.542,6.481,5.544,11.987,7.831.324-1.166.828-2.066,1.933-2.079l-10.273-9.5a80.852,80.852,0,0,0-.99-12.972c-1.338-4.54-6.473-3.957-5.9,2.158" transform="translate(-8.549 -21.336)" fill="#fff"/>
            <path id="Trazado_1006616" data-name="Trazado 1006616" d="M164.877,127.3c.026-.014.221-.067.585-.16l.136-.088a.368.368,0,0,1,.4.008.49.49,0,0,1,.11.141,2.517,2.517,0,0,1-.043,1.033,2.143,2.143,0,0,0-.215.907c-.015.2-.04.415-.076.654a1.345,1.345,0,0,0-.054.7l.015.028a1.666,1.666,0,0,0,.7.434,5.979,5.979,0,0,0,.794.311,2.082,2.082,0,0,1,.825.475,2.164,2.164,0,0,1,.608.406c.055.1-.018.209-.217.312q-.086.045-.489.345a1.059,1.059,0,0,0-.346.378.345.345,0,0,1-.1.088,1.222,1.222,0,0,1-.818-.045q-.368-.178-1-.422a.51.51,0,0,0-.261-.119l-.071.037a2,2,0,0,0-.129.9,1.222,1.222,0,0,1-.2.843.484.484,0,0,1-.135.124,2.1,2.1,0,0,0-.457.128q-.359.258-.411.286-.532.254-.636.168l-.134-.257a1.848,1.848,0,0,1,.036-.976,5.829,5.829,0,0,0,.084-1.091l.2-.971a.827.827,0,0,0-.024-.187l-.045-.085a3.88,3.88,0,0,0-.716-.37q-.769-.481-1.254-.848l-.787-.3-.088-.171c.009-.161.135-.3.373-.428a2.764,2.764,0,0,1,.4-.135q.558-.31.775-.421a.52.52,0,0,1,.649.134,4.047,4.047,0,0,0,.932.438c.007.014.034.019.08.013a.919.919,0,0,0,.093-.553q.013-.044.045-.747a1.379,1.379,0,0,1,.45-.632c.033-.017.171-.112.411-.285" transform="translate(-37.785 -29.867)"/>
            <path id="Trazado_1006617" data-name="Trazado 1006617" d="M180.869,119.942c.016-.008.14-.042.37-.1l.086-.056a.234.234,0,0,1,.255.005.32.32,0,0,1,.07.089,1.588,1.588,0,0,1-.027.654,1.358,1.358,0,0,0-.136.574c-.009.125-.025.262-.048.414a.855.855,0,0,0-.034.441l.01.018a1.063,1.063,0,0,0,.44.275,3.811,3.811,0,0,0,.5.2,1.326,1.326,0,0,1,.522.3,1.354,1.354,0,0,1,.385.258c.034.066-.011.132-.138.2q-.054.029-.31.219a.666.666,0,0,0-.219.239.235.235,0,0,1-.063.055.77.77,0,0,1-.518-.028c-.155-.075-.366-.164-.631-.267a.319.319,0,0,0-.165-.075l-.044.024a1.253,1.253,0,0,0-.082.568.781.781,0,0,1-.123.534.315.315,0,0,1-.086.078,1.294,1.294,0,0,0-.289.082c-.151.109-.238.169-.26.18-.225.107-.359.143-.4.106l-.084-.162a1.167,1.167,0,0,1,.022-.618,3.668,3.668,0,0,0,.054-.691l.127-.615a.542.542,0,0,0-.016-.118l-.028-.054a2.454,2.454,0,0,0-.453-.234c-.324-.2-.589-.382-.794-.537l-.5-.187-.056-.109c.006-.1.086-.192.237-.271a1.663,1.663,0,0,1,.252-.086q.353-.2.49-.267a.329.329,0,0,1,.411.085,2.577,2.577,0,0,0,.59.277c0,.008.021.012.05.008a.59.59,0,0,0,.058-.35q.008-.028.028-.473a.881.881,0,0,1,.284-.4c.021-.011.109-.07.261-.181" transform="translate(-41.909 -28.162)"/>
          </g>
        </g>
      </g>
    </g>
  </g>
</svg>
