<svg xmlns="http://www.w3.org/2000/svg" xmlns:xlink="http://www.w3.org/1999/xlink" width="150" height="150" viewBox="0 0 150 150">
  <defs>
    <clipPath id="clip-path">
      <rect id="Rectángulo_459221" data-name="Rectángulo 459221" width="147.834" height="121.714" fill="none"/>
    </clipPath>
    <clipPath id="clip-path-3">
      <rect id="Rectángulo_459201" data-name="Rectángulo 459201" width="95.162" height="56.294" fill="none"/>
    </clipPath>
    <clipPath id="clip-path-5">
      <rect id="Rectángulo_459203" data-name="Rectángulo 459203" width="99.308" height="51.347" fill="none"/>
    </clipPath>
    <clipPath id="clip-path-6">
      <rect id="Rectángulo_459204" data-name="Rectángulo 459204" width="26.908" height="20.551" fill="none"/>
    </clipPath>
    <clipPath id="clip-path-7">
      <rect id="Rectángulo_459205" data-name="Rectángulo 459205" width="14.189" height="24.242" fill="none"/>
    </clipPath>
    <clipPath id="clip-path-8">
      <rect id="Rectángulo_459206" data-name="Rectángulo 459206" width="34.229" height="8.354" fill="none"/>
    </clipPath>
    <clipPath id="clip-path-9">
      <rect id="Rectángulo_459207" data-name="Rectángulo 459207" width="1.197" height="3.082" fill="none"/>
    </clipPath>
    <clipPath id="clip-path-10">
      <rect id="Rectángulo_459208" data-name="Rectángulo 459208" width="0.944" height="2.805" fill="none"/>
    </clipPath>
    <clipPath id="clip-path-11">
      <rect id="Rectángulo_459209" data-name="Rectángulo 459209" width="17.328" height="17.463" fill="none"/>
    </clipPath>
    <clipPath id="clip-path-12">
      <rect id="Rectángulo_459210" data-name="Rectángulo 459210" width="11.725" height="9.856" fill="none"/>
    </clipPath>
    <clipPath id="clip-path-13">
      <rect id="Rectángulo_459211" data-name="Rectángulo 459211" width="48.251" height="27.621" fill="none"/>
    </clipPath>
    <clipPath id="clip-path-14">
      <rect id="Rectángulo_459212" data-name="Rectángulo 459212" width="24.038" height="18.358" fill="none"/>
    </clipPath>
    <clipPath id="clip-path-15">
      <rect id="Rectángulo_459213" data-name="Rectángulo 459213" width="12.676" height="21.656" fill="none"/>
    </clipPath>
    <clipPath id="clip-path-16">
      <rect id="Rectángulo_459214" data-name="Rectángulo 459214" width="30.577" height="7.462" fill="none"/>
    </clipPath>
    <clipPath id="clip-path-17">
      <rect id="Rectángulo_459215" data-name="Rectángulo 459215" width="1.069" height="2.754" fill="none"/>
    </clipPath>
    <clipPath id="clip-path-18">
      <rect id="Rectángulo_459216" data-name="Rectángulo 459216" width="0.844" height="2.506" fill="none"/>
    </clipPath>
    <clipPath id="clip-path-19">
      <rect id="Rectángulo_459217" data-name="Rectángulo 459217" width="15.48" height="15.6" fill="none"/>
    </clipPath>
    <clipPath id="clip-path-20">
      <rect id="Rectángulo_459218" data-name="Rectángulo 459218" width="10.474" height="8.804" fill="none"/>
    </clipPath>
    <clipPath id="clip-path-21">
      <rect id="Rectángulo_459219" data-name="Rectángulo 459219" width="43.102" height="24.674" fill="none"/>
    </clipPath>
  </defs>
  <g id="Grupo_1190888" data-name="Grupo 1190888" transform="translate(-982 -24846)">
    <g id="Grupo_1190875" data-name="Grupo 1190875" transform="translate(524.289 18953)">
      <rect id="Rectángulo_459312" data-name="Rectángulo 459312" width="150" height="150" transform="translate(457.711 5893)" fill="none"/>
    </g>
    <g id="Grupo_1190640" data-name="Grupo 1190640" transform="translate(983 24860)">
      <g id="Grupo_1190639" data-name="Grupo 1190639" clip-path="url(#clip-path)">
        <g id="Grupo_1190585" data-name="Grupo 1190585">
          <g id="Grupo_1190584" data-name="Grupo 1190584" clip-path="url(#clip-path)">
            <g id="Grupo_1190583" data-name="Grupo 1190583" transform="translate(0.448 65.42)" opacity="0.5" style="mix-blend-mode: multiply;isolation: isolate">
              <g id="Grupo_1190582" data-name="Grupo 1190582">
                <g id="Grupo_1190581" data-name="Grupo 1190581" clip-path="url(#clip-path-3)">
                  <path id="Trazado_1006299" data-name="Trazado 1006299" d="M94.486,106.52,29.474,70.133l-27.481,16a3.041,3.041,0,0,0,0,5.257L60.3,125.277a8.493,8.493,0,0,0,8.514.012l25.7-14.835a2.262,2.262,0,0,0-.026-3.934" transform="translate(-0.481 -70.132)" fill="#90943e"/>
                </g>
              </g>
            </g>
            <path id="Trazado_1006300" data-name="Trazado 1006300" d="M62.74,114.711l.016,5.656c.006,1.95.694,3.322,1.8,3.966L1.82,87.873c-1.11-.646-1.8-2.017-1.8-3.967L0,78.25Z" transform="translate(0 -5.258)" fill="#754c24"/>
            <path id="Trazado_1006301" data-name="Trazado 1006301" d="M96.142,94.037,33.4,57.577,0,76.861l62.74,36.461Z" transform="translate(0 -3.869)" fill="#fbb03b"/>
            <path id="Trazado_1006302" data-name="Trazado 1006302" d="M91.2,94.252,33.781,60.885,5.711,77.092l57.416,33.367Z" transform="translate(-0.384 -4.091)" fill="#754c24"/>
            <path id="Trazado_1006303" data-name="Trazado 1006303" d="M67.259,115.948l.016,5.656c.011,3.925,2.788,5.507,6.2,3.535l21.035-12.144a13.581,13.581,0,0,0,6.163-10.676l-.016-5.656Z" transform="translate(-4.519 -6.495)" fill="#c4720e"/>
          </g>
        </g>
        <path id="Trazado_1006304" data-name="Trazado 1006304" d="M24.285,70.041,31.9,66.79l5.224,2.516L42,70.041l3.01,4.1,6.376,2.767,5.981,1.9,9.52,9.625,1.858,7.35h6.637l6.435,4.44L63.4,110.855,9.706,79.654l8.785-3.677.549-4.369Z" transform="translate(-0.652 -4.488)" fill="#452b11"/>
        <g id="Grupo_1190638" data-name="Grupo 1190638">
          <g id="Grupo_1190637" data-name="Grupo 1190637" clip-path="url(#clip-path)">
            <g id="Grupo_1190588" data-name="Grupo 1190588" transform="translate(43.972 33.906)" opacity="0.5" style="mix-blend-mode: multiply;isolation: isolate">
              <g id="Grupo_1190587" data-name="Grupo 1190587">
                <g id="Grupo_1190586" data-name="Grupo 1190586" clip-path="url(#clip-path-5)">
                  <path id="Trazado_1006305" data-name="Trazado 1006305" d="M102.221,84.024c4.92-1.062,9.475-3.349,13.969-5.614,7.619-3.839,15.273-7.7,22.21-12.667,3.442-2.464,6.9-5.506,7.821-9.638,1.213-5.421-2.574-11.013-7.543-13.494s-10.794-2.486-16.322-1.951-11.079,1.559-16.6.94c-8.65-.97-16.785-5.926-25.456-5.176-9.049.783-16.306,7.532-22.66,14.021a73.6,73.6,0,0,0-8.391,9.688,10,10,0,0,0-2.108,5.21c-.08,3.12,2.345,5.715,4.841,7.59,5.366,4.031,11.723,6.482,17.989,8.884l9.27,3.553c2.189.84,4.94,2.5,7.358,2.309,2.453-.191,4.913-1.787,7.373-2.282,2.547-.512,5.661-1.375,8.247-1.375" transform="translate(-47.139 -36.349)" fill="#90943e"/>
                </g>
              </g>
            </g>
            <path id="Trazado_1006306" data-name="Trazado 1006306" d="M64.72,26.329s-13.1,4.716-14.772,15.093,2.094,12.055,2.094,12.055l.208,8.59-1.022,1.713,5.008,3a15.233,15.233,0,0,0,1.988-4.189s-.107-8.917,2.936-14.476c4.824-8.791,3.56-21.789,3.56-21.789" transform="translate(-3.327 -1.769)" fill="#b85e5e"/>
            <path id="Trazado_1006307" data-name="Trazado 1006307" d="M87.394,46.079l-1.34,3.792,1.987-1.321v2.893s.944.1,3.145-1.993a9.114,9.114,0,0,0,1.132-1.326A15.189,15.189,0,0,0,94.33,43.9s-.107-8.918,2.936-14.476c4.824-8.792,3.56-21.789,3.56-21.789s-13.1,4.716-14.772,15.092,2.094,12.056,2.094,12.056l.207,8.589Z" transform="translate(-5.753 -0.513)" fill="#b85e5e"/>
            <path id="Trazado_1006308" data-name="Trazado 1006308" d="M86.086,52.632l1.986-1.321V54.2s.944.1,3.145-1.993a9.052,9.052,0,0,0,1.131-1.326,8,8,0,0,0-1.98-1.622,4.223,4.223,0,0,0-2.943-.422Z" transform="translate(-5.784 -3.275)"/>
            <path id="Trazado_1006309" data-name="Trazado 1006309" d="M41.525,38.4s.132,8.836,13.967,11.64a49.07,49.07,0,0,0,13.23.894,39.516,39.516,0,0,0,21.746-7.911,49,49,0,0,0,4.515-4.062,76.178,76.178,0,0,0,11.281-15.275c1.3-2.232,1.743-6.081,1.39-9.54a14.54,14.54,0,0,0-1.39-5.188C104.3,5.267,96.128,2.437,96.128,2.437c-2.023-.84-5.99-.626-8.667-.35A13.555,13.555,0,0,0,82.6,3.545c-6.13,3.191-23.6,12.363-27.732,15.393C49.832,22.636,41.525,38.4,41.525,38.4" transform="translate(-2.79 -0.124)" fill="#f2a2a2"/>
            <g id="Grupo_1190591" data-name="Grupo 1190591" transform="translate(65.284 30.259)" opacity="0.25" style="mix-blend-mode: multiply;isolation: isolate">
              <g id="Grupo_1190590" data-name="Grupo 1190590">
                <g id="Grupo_1190589" data-name="Grupo 1190589" clip-path="url(#clip-path-6)">
                  <path id="Trazado_1006310" data-name="Trazado 1006310" d="M69.987,49.606l.647,3.383A39.506,39.506,0,0,0,92.38,45.079,49.125,49.125,0,0,0,96.9,41.016l-2.27-8.577c-4.817,9.364-14.3,13.722-24.638,17.167" transform="translate(-69.987 -32.439)" fill="#d98080"/>
                </g>
              </g>
            </g>
            <path id="Trazado_1006311" data-name="Trazado 1006311" d="M98.262,52.43l-1.716,4.842,1.993-1.157v2.728s.943.1,3.144-1.993a9.606,9.606,0,0,0,1.541-1.943,15.66,15.66,0,0,0,1.6-3.61s-.113-8.917,2.936-14.475c4.817-8.792,3.56-21.789,3.56-21.789s-13.1,4.716-14.778,15.092,2.1,12.055,2.1,12.055l.208,8.59Z" transform="translate(-6.458 -1.01)" fill="#f2a2a2"/>
            <path id="Trazado_1006312" data-name="Trazado 1006312" d="M96.575,59.963l1.993-1.157v2.728s.943.1,3.145-1.993a9.569,9.569,0,0,0,1.54-1.943c-1.232-1.78-4.093-2.735-4.962-2.478Z" transform="translate(-6.489 -3.701)"/>
            <path id="Trazado_1006313" data-name="Trazado 1006313" d="M75.162,33.734s-5.081,11.03-14.778,15.093a1.954,1.954,0,0,0-1.119,1.754c-.422,3.447,3.219,10.3,3.219,10.3l.208,8.59-.358,1.006,4.932,2.78A15.95,15.95,0,0,0,68.666,70s-.113-8.917,2.936-14.476c4.817-8.791,3.56-21.789,3.56-21.789" transform="translate(-3.98 -2.267)" fill="#f2a2a2"/>
            <g id="Grupo_1190594" data-name="Grupo 1190594" transform="translate(55.252 42.962)" opacity="0.25" style="mix-blend-mode: multiply;isolation: isolate">
              <g id="Grupo_1190593" data-name="Grupo 1190593">
                <g id="Grupo_1190592" data-name="Grupo 1190592" clip-path="url(#clip-path-7)">
                  <path id="Trazado_1006314" data-name="Trazado 1006314" d="M62.486,61.709l.207,8.59-.382-12.6c6.393-.519,9.194-7.078,11.11-11.644L59.266,51.409c-.421,3.446,3.22,10.3,3.22,10.3" transform="translate(-59.232 -46.057)" fill="#d98080"/>
                </g>
              </g>
            </g>
            <g id="Grupo_1190597" data-name="Grupo 1190597" transform="translate(35.213 39.077)" opacity="0.25" style="mix-blend-mode: multiply;isolation: isolate">
              <g id="Grupo_1190596" data-name="Grupo 1190596">
                <g id="Grupo_1190595" data-name="Grupo 1190595" clip-path="url(#clip-path-8)">
                  <path id="Trazado_1006315" data-name="Trazado 1006315" d="M71.978,45.776,55.422,44.56s-7.782-3.8-14.152-2.332-2.15,8.017-2.15,8.017l28.141-.964Z" transform="translate(-37.75 -41.891)" fill="#d98080"/>
                </g>
              </g>
            </g>
            <path id="Trazado_1006316" data-name="Trazado 1006316" d="M34.872,73.739a1.879,1.879,0,0,0,.358-.245c1.422-.931,2.647-1.7,3.748-2.345a31.6,31.6,0,0,1,5.968-2.818c1.509-.509,6.974-2.37,9.319-5.194,2.724-3.27,2.082-7.628,1.654-9.426-.125-.529-.232-.837-.232-.837l-1.358-5.7c-2.842-3.772-9.974-6.515-14.52-6.13l-5.1,3.313c-4.862,5.729-2.862,8.918-2.968,11.238L31.2,58.307c-.541,2.566-1.956,7.711-3.88,10.464a2.069,2.069,0,0,0-.314.453c-.8,2.062,5.094,6.1,7.867,4.515" transform="translate(-1.81 -2.755)" fill="#f2a2a2"/>
            <path id="Trazado_1006317" data-name="Trazado 1006317" d="M42.6,42.709l-1.811-2.733A58.277,58.277,0,0,0,38.8,32.725a60.085,60.085,0,0,0-4.4-7.467S30.012,33.126,30.7,36.813s6.382,7.781,6.382,7.781Z" transform="translate(-2.058 -1.697)" fill="#f2a2a2"/>
            <path id="Trazado_1006318" data-name="Trazado 1006318" d="M34.886,75.677a1.55,1.55,0,0,0-.152-.647,4.121,4.121,0,0,0-.811-1.082q-.877-.943-1.749-1.886a8.669,8.669,0,0,0-1.654-1.5,2.9,2.9,0,0,0-2.118-.471,2.145,2.145,0,0,0-1.283.88c-.842,2.151,4.962,6.351,7.767,4.7" transform="translate(-1.817 -4.706)" fill="#d98080"/>
            <g id="Grupo_1190600" data-name="Grupo 1190600" transform="translate(29.144 67.632)" style="mix-blend-mode: multiply;isolation: isolate">
              <g id="Grupo_1190599" data-name="Grupo 1190599">
                <g id="Grupo_1190598" data-name="Grupo 1190598" clip-path="url(#clip-path-9)">
                  <path id="Trazado_1006319" data-name="Trazado 1006319" d="M31.779,72.714c-.076-.118-.2-.236-.332-.206-.177.039-.21.281-.2.466.011.3.021.592.033.888a2.978,2.978,0,0,0,.177,1.094c.118.271.436.658.767.628.36-.032.186-.353.11-.605a8.316,8.316,0,0,0-.551-2.265" transform="translate(-31.243 -72.504)" fill="#1a1a1a"/>
                </g>
              </g>
            </g>
            <g id="Grupo_1190603" data-name="Grupo 1190603" transform="translate(26.827 66.584)" style="mix-blend-mode: multiply;isolation: isolate">
              <g id="Grupo_1190602" data-name="Grupo 1190602">
                <g id="Grupo_1190601" data-name="Grupo 1190601" clip-path="url(#clip-path-10)">
                  <path id="Trazado_1006320" data-name="Trazado 1006320" d="M29.627,71.954a.87.87,0,0,0-.066-.372.353.353,0,0,0-.326-.2.346.346,0,0,0-.262.174.859.859,0,0,0-.093.294,4.1,4.1,0,0,0-.1,1.249c.03.241.531,1.473.854.965.141-.22.037-.674.031-.91l-.034-1.2" transform="translate(-28.76 -71.38)" fill="#1a1a1a"/>
                </g>
              </g>
            </g>
            <path id="Trazado_1006321" data-name="Trazado 1006321" d="M45.082,57.9a1.858,1.858,0,0,1-.632.761,1.414,1.414,0,0,1-.438.249.624.624,0,0,1-.492-.035.631.631,0,0,1-.281-.587,1.4,1.4,0,0,1,.235-.635,1.777,1.777,0,0,1,.618-.65c.7-.387,1.269.18.99.9" transform="translate(-2.905 -3.822)" fill="#1a1a1a"/>
            <path id="Trazado_1006322" data-name="Trazado 1006322" d="M33.291,53.969c-.069.181-.188.378-.382.4a.38.38,0,0,1-.352-.205.779.779,0,0,1-.075-.42,1.693,1.693,0,0,1,.368-.964.73.73,0,0,1,.262-.218c.626-.266.275,1.15.177,1.409" transform="translate(-2.182 -3.529)" fill="#1a1a1a"/>
            <g id="Grupo_1190606" data-name="Grupo 1190606" transform="translate(37.169 50.93)" opacity="0.25" style="mix-blend-mode: multiply;isolation: isolate">
              <g id="Grupo_1190605" data-name="Grupo 1190605">
                <g id="Grupo_1190604" data-name="Grupo 1190604" clip-path="url(#clip-path-11)">
                  <path id="Trazado_1006323" data-name="Trazado 1006323" d="M39.846,72.061a31.59,31.59,0,0,1,5.968-2.817c1.509-.509,6.974-2.371,9.319-5.195,2.723-3.27,2.082-7.628,1.654-9.426-.081-.007-.163-.012-.244-.025,0,0-2.585,11.256-10.521,11.974Z" transform="translate(-39.846 -54.598)" fill="#d98080"/>
                </g>
              </g>
            </g>
            <path id="Trazado_1006324" data-name="Trazado 1006324" d="M53.962,48.2c.215,0,3.059-1.717,5.225-2.078s13.919.144,13.719-.071S67.417,59.6,57.111,55.512,53.962,48.2,53.962,48.2" transform="translate(-3.463 -3.09)" fill="#f2a2a2"/>
            <path id="Trazado_1006325" data-name="Trazado 1006325" d="M71.3,47.633S67.839,58.675,57.61,55.216C55.4,54.47,55.721,51.9,55.721,51.9A121.974,121.974,0,0,0,71.3,47.633" transform="translate(-3.743 -3.201)" fill="#a65050"/>
            <g id="Grupo_1190609" data-name="Grupo 1190609" transform="translate(35.799 39.137)" opacity="0.3" style="mix-blend-mode: overlay;isolation: isolate">
              <g id="Grupo_1190608" data-name="Grupo 1190608">
                <g id="Grupo_1190607" data-name="Grupo 1190607" clip-path="url(#clip-path-12)">
                  <path id="Trazado_1006326" data-name="Trazado 1006326" d="M49.835,44.577a2.784,2.784,0,0,1-.533,3.142,6.918,6.918,0,0,1-3.379,1.3,9.161,9.161,0,0,0-3.443,2.165,2.478,2.478,0,0,1-4.094-2.1c.017-.211.027-.4.026-.555a7.283,7.283,0,0,1,1.324-4.444,5.521,5.521,0,0,1,3.724-2.108c1.786-.2,5.491.817,6.375,2.6" transform="translate(-38.378 -41.956)" fill="#fff"/>
                </g>
              </g>
            </g>
            <g id="Grupo_1190612" data-name="Grupo 1190612" transform="translate(50.213 2.565)" opacity="0.3" style="mix-blend-mode: overlay;isolation: isolate">
              <g id="Grupo_1190611" data-name="Grupo 1190611">
                <g id="Grupo_1190610" data-name="Grupo 1190610" clip-path="url(#clip-path-13)">
                  <path id="Trazado_1006327" data-name="Trazado 1006327" d="M98.933,9.435a7.746,7.746,0,0,1-1.629-.2c-3.168-.645-6.4,0-9.479.891C75.52,13.665,64.113,20.076,56.114,29.885a1.276,1.276,0,0,1-2.2-1.228A20.55,20.55,0,0,1,56.6,23.746c1.826-2.481,4.265-3.871,6.77-5.663,4.976-3.561,9.2-5.224,14.178-8.784,3.07-2.2,6.2-4.426,9.793-5.593a20.4,20.4,0,0,1,11.512-.238c2.882.861,5.483,5.9.077,5.967" transform="translate(-53.83 -2.75)" fill="#fff"/>
                </g>
              </g>
            </g>
            <path id="Trazado_1006328" data-name="Trazado 1006328" d="M110.386,6.643a8.315,8.315,0,0,1-3.672-.176A.629.629,0,0,1,107,5.241a9.087,9.087,0,0,0,2.062.276,3.8,3.8,0,0,1-.777-3.23A3.121,3.121,0,0,1,109.564.5a2.722,2.722,0,0,1,2.171-.427,2.671,2.671,0,0,1,1.643,1.283,3.221,3.221,0,0,1,.337,2.423,3.866,3.866,0,0,1-1.631,2.163,3.443,3.443,0,0,0,2.3-.34,3.4,3.4,0,0,0,1.641-3.55.629.629,0,0,1,1.23-.26A4.642,4.642,0,0,1,114.993,6.7a4.587,4.587,0,0,1-2.216.553,4.932,4.932,0,0,1-2.391-.613m-.878-4.048a2.7,2.7,0,0,0,.942,2.564c.049.043.1.083.148.122a2.906,2.906,0,0,0,1.9-1.836,1.937,1.937,0,0,0-.209-1.457,1.426,1.426,0,0,0-.864-.7,1.158,1.158,0,0,0-.289-.035,1.8,1.8,0,0,0-1.631,1.338" transform="translate(-7.138 0)" fill="#f2a2a2"/>
            <path id="Trazado_1006329" data-name="Trazado 1006329" d="M98.758,71.2l-1.2,3.388,1.775-1.18v2.584s.843.09,2.809-1.781a8.041,8.041,0,0,0,1.011-1.186,13.571,13.571,0,0,0,1.8-3.775s-.1-7.965,2.623-12.932c4.309-7.853,3.18-19.465,3.18-19.465s-11.7,4.213-13.2,13.482,1.871,10.769,1.871,10.769l.185,7.673Z" transform="translate(-6.529 -2.476)" fill="#b85e5e"/>
            <path id="Trazado_1006330" data-name="Trazado 1006330" d="M97.59,77.054l1.775-1.18v2.585s.842.09,2.808-1.782a8.082,8.082,0,0,0,1.011-1.185,7.15,7.15,0,0,0-1.77-1.45,3.772,3.772,0,0,0-2.629-.377Z" transform="translate(-6.557 -4.944)"/>
            <path id="Trazado_1006331" data-name="Trazado 1006331" d="M131.012,54.5l-1.2,3.387L131.59,56.7v2.584s.843.09,2.809-1.781a8.09,8.09,0,0,0,1.011-1.186,13.572,13.572,0,0,0,1.8-3.775s-.1-7.965,2.623-12.932c4.309-7.853,3.18-19.465,3.18-19.465s-11.7,4.213-13.2,13.482S131.687,44.4,131.687,44.4l.185,7.673Z" transform="translate(-8.697 -1.354)" fill="#b85e5e"/>
            <path id="Trazado_1006332" data-name="Trazado 1006332" d="M129.843,60.351l1.775-1.18v2.585s.842.09,2.809-1.782a8.084,8.084,0,0,0,1.011-1.185,7.167,7.167,0,0,0-1.77-1.45,3.767,3.767,0,0,0-2.629-.376Z" transform="translate(-8.724 -3.821)"/>
            <path id="Trazado_1006333" data-name="Trazado 1006333" d="M90.036,47.639s.118,7.892,12.476,10.4a43.837,43.837,0,0,0,11.82.8,35.288,35.288,0,0,0,19.426-7.067,43.865,43.865,0,0,0,4.033-3.629,68.111,68.111,0,0,0,10.078-13.645c1.163-1.994,1.556-5.433,1.242-8.522a12.984,12.984,0,0,0-1.242-4.634c-1.753-3.3-9.056-5.826-9.056-5.826-1.807-.75-5.351-.559-7.742-.312a12.069,12.069,0,0,0-4.345,1.3c-5.477,2.85-21.086,11.044-24.775,13.751-4.494,3.3-11.915,17.387-11.915,17.387" transform="translate(-6.05 -1.006)" fill="#ffbdbd"/>
            <g id="Grupo_1190615" data-name="Grupo 1190615" transform="translate(107.704 39.469)" opacity="0.25" style="mix-blend-mode: multiply;isolation: isolate">
              <g id="Grupo_1190614" data-name="Grupo 1190614">
                <g id="Grupo_1190613" data-name="Grupo 1190613" clip-path="url(#clip-path-14)">
                  <path id="Trazado_1006334" data-name="Trazado 1006334" d="M115.462,57.648l.578,3.022A35.292,35.292,0,0,0,135.466,53.6a44.138,44.138,0,0,0,4.033-3.629l-2.028-7.663c-4.3,8.364-12.774,12.258-22.01,15.336" transform="translate(-115.462 -42.312)" fill="#d98080"/>
                </g>
              </g>
            </g>
            <path id="Trazado_1006335" data-name="Trazado 1006335" d="M140.72,60.171,139.186,64.5l1.781-1.034V65.9s.842.09,2.809-1.781a8.617,8.617,0,0,0,1.377-1.736,13.96,13.96,0,0,0,1.432-3.225s-.1-7.966,2.624-12.932c4.3-7.853,3.179-19.465,3.179-19.465s-11.7,4.213-13.2,13.482,1.876,10.769,1.876,10.769l.186,7.673Z" transform="translate(-9.326 -1.798)" fill="#ffbdbd"/>
            <path id="Trazado_1006336" data-name="Trazado 1006336" d="M139.214,66.9l1.781-1.034V68.3s.842.09,2.809-1.782a8.612,8.612,0,0,0,1.377-1.735c-1.1-1.59-3.658-2.444-4.433-2.214Z" transform="translate(-9.354 -4.202)"/>
            <path id="Trazado_1006337" data-name="Trazado 1006337" d="M108.418,76.877,106.885,81.2l1.781-1.034v2.438s.842.09,2.809-1.781a8.617,8.617,0,0,0,1.377-1.736,14.007,14.007,0,0,0,1.432-3.225s-.1-7.966,2.624-12.932c4.3-7.853,3.179-19.465,3.179-19.465s-4.539,9.853-13.2,13.482a1.745,1.745,0,0,0-1,1.567c-.377,3.078,2.876,9.2,2.876,9.2l.186,7.673Z" transform="translate(-7.112 -2.921)" fill="#ffbdbd"/>
            <path id="Trazado_1006338" data-name="Trazado 1006338" d="M106.96,83.6l1.781-1.034v2.437s.842.09,2.809-1.781a8.574,8.574,0,0,0,1.376-1.735c-1.1-1.59-3.657-2.444-4.432-2.214Z" transform="translate(-7.187 -5.324)"/>
            <g id="Grupo_1190618" data-name="Grupo 1190618" transform="translate(98.742 50.817)" opacity="0.25" style="mix-blend-mode: multiply;isolation: isolate">
              <g id="Grupo_1190617" data-name="Grupo 1190617">
                <g id="Grupo_1190616" data-name="Grupo 1190616" clip-path="url(#clip-path-15)">
                  <path id="Trazado_1006339" data-name="Trazado 1006339" d="M108.761,68.459l.186,7.674L108.6,64.879c5.712-.463,8.213-6.323,9.925-10.4l-12.645,4.78c-.377,3.079,2.876,9.2,2.876,9.2" transform="translate(-105.854 -54.477)" fill="#d98080"/>
                </g>
              </g>
            </g>
            <g id="Grupo_1190621" data-name="Grupo 1190621" transform="translate(80.841 47.346)" opacity="0.25" style="mix-blend-mode: multiply;isolation: isolate">
              <g id="Grupo_1190620" data-name="Grupo 1190620">
                <g id="Grupo_1190619" data-name="Grupo 1190619" clip-path="url(#clip-path-16)">
                  <path id="Trazado_1006340" data-name="Trazado 1006340" d="M117.242,54.226l-14.791-1.087S95.5,49.749,89.809,51.056s-1.921,7.162-1.921,7.162l25.139-.861Z" transform="translate(-86.664 -50.756)" fill="#d98080"/>
                </g>
              </g>
            </g>
            <path id="Trazado_1006341" data-name="Trazado 1006341" d="M84.093,79.206a1.71,1.71,0,0,0,.32-.219c1.27-.831,2.366-1.517,3.349-2.1a28.2,28.2,0,0,1,5.331-2.517c1.348-.455,6.229-2.117,8.325-4.641,2.432-2.921,1.859-6.813,1.477-8.42-.112-.472-.207-.747-.207-.747l-1.214-5.1c-2.539-3.37-8.909-5.82-12.971-5.477l-4.557,2.961C79.6,58.072,81.391,60.921,81.3,62.993l-.483,2.426c-.483,2.292-1.747,6.888-3.466,9.349a1.8,1.8,0,0,0-.281.4c-.714,1.842,4.55,5.449,7.028,4.033" transform="translate(-5.174 -3.357)" fill="#ffbdbd"/>
            <path id="Trazado_1006342" data-name="Trazado 1006342" d="M91,51.486l-1.617-2.442a52.056,52.056,0,0,0-1.78-6.476A53.7,53.7,0,0,0,83.67,35.9s-3.917,7.03-3.3,10.322,5.7,6.952,5.7,6.952Z" transform="translate(-5.396 -2.412)" fill="#ffbdbd"/>
            <path id="Trazado_1006343" data-name="Trazado 1006343" d="M84.1,80.937a1.372,1.372,0,0,0-.135-.578,3.668,3.668,0,0,0-.724-.966c-.522-.562-1.046-1.124-1.562-1.686a7.687,7.687,0,0,0-1.478-1.337,2.6,2.6,0,0,0-1.893-.422,1.921,1.921,0,0,0-1.146.786c-.753,1.922,4.432,5.674,6.937,4.2" transform="translate(-5.18 -5.1)" fill="#d98080"/>
            <g id="Grupo_1190624" data-name="Grupo 1190624" transform="translate(75.419 72.855)" style="mix-blend-mode: multiply;isolation: isolate">
              <g id="Grupo_1190623" data-name="Grupo 1190623">
                <g id="Grupo_1190622" data-name="Grupo 1190622" clip-path="url(#clip-path-17)">
                  <path id="Trazado_1006344" data-name="Trazado 1006344" d="M81.331,78.29c-.068-.105-.176-.211-.3-.184-.159.035-.187.251-.181.416l.028.793a2.677,2.677,0,0,0,.159.979c.105.243.39.587.686.561.322-.029.165-.315.1-.541a7.435,7.435,0,0,0-.493-2.023" transform="translate(-80.852 -78.102)" fill="#1a1a1a"/>
                </g>
              </g>
            </g>
            <g id="Grupo_1190627" data-name="Grupo 1190627" transform="translate(73.35 71.918)" style="mix-blend-mode: multiply;isolation: isolate">
              <g id="Grupo_1190626" data-name="Grupo 1190626">
                <g id="Grupo_1190625" data-name="Grupo 1190625" clip-path="url(#clip-path-18)">
                  <path id="Trazado_1006345" data-name="Trazado 1006345" d="M79.409,77.611a.779.779,0,0,0-.06-.333.316.316,0,0,0-.29-.179.313.313,0,0,0-.235.156.793.793,0,0,0-.082.263,3.642,3.642,0,0,0-.094,1.116c.027.215.474,1.316.764.863.125-.2.033-.6.027-.813-.01-.357-.02-.715-.03-1.072" transform="translate(-78.633 -77.099)" fill="#1a1a1a"/>
                </g>
              </g>
            </g>
            <path id="Trazado_1006346" data-name="Trazado 1006346" d="M93.215,65.056a1.655,1.655,0,0,1-.565.68,1.258,1.258,0,0,1-.392.222.508.508,0,0,1-.689-.554,1.242,1.242,0,0,1,.21-.568,1.586,1.586,0,0,1,.552-.58c.621-.347,1.133.16.884.8" transform="translate(-6.153 -4.31)" fill="#1a1a1a"/>
            <path id="Trazado_1006347" data-name="Trazado 1006347" d="M82.681,61.545c-.062.162-.169.338-.34.356a.34.34,0,0,1-.314-.184.688.688,0,0,1-.066-.375,1.508,1.508,0,0,1,.329-.861.616.616,0,0,1,.233-.194c.56-.239.246,1.027.159,1.257" transform="translate(-5.507 -4.049)" fill="#1a1a1a"/>
            <g id="Grupo_1190630" data-name="Grupo 1190630" transform="translate(82.588 57.934)" opacity="0.25" style="mix-blend-mode: multiply;isolation: isolate">
              <g id="Grupo_1190629" data-name="Grupo 1190629">
                <g id="Grupo_1190628" data-name="Grupo 1190628" clip-path="url(#clip-path-19)">
                  <path id="Trazado_1006348" data-name="Trazado 1006348" d="M88.537,77.707a28.231,28.231,0,0,1,5.331-2.517c1.348-.455,6.23-2.117,8.325-4.64,2.433-2.922,1.859-6.814,1.478-8.421-.073-.006-.146-.011-.219-.022,0,0-2.309,10.056-9.4,10.7Z" transform="translate(-88.537 -62.107)" fill="#d98080"/>
                </g>
              </g>
            </g>
            <path id="Trazado_1006349" data-name="Trazado 1006349" d="M101.146,56.392a22.862,22.862,0,0,1,4.668-1.857c1.935-.323,12.434.129,12.254-.062s-4.9,12.1-14.109,8.451-2.813-6.532-2.813-6.532" transform="translate(-6.651 -3.656)" fill="#ffbdbd"/>
            <path id="Trazado_1006350" data-name="Trazado 1006350" d="M116.631,55.885s-3.088,9.864-12.225,6.774c-1.971-.667-1.687-2.965-1.687-2.965a108.864,108.864,0,0,0,13.913-3.809" transform="translate(-6.901 -3.755)" fill="#a65050"/>
            <g id="Grupo_1190633" data-name="Grupo 1190633" transform="translate(81.365 47.399)" opacity="0.3" style="mix-blend-mode: overlay;isolation: isolate">
              <g id="Grupo_1190632" data-name="Grupo 1190632">
                <g id="Grupo_1190631" data-name="Grupo 1190631" clip-path="url(#clip-path-20)">
                  <path id="Trazado_1006351" data-name="Trazado 1006351" d="M97.461,53.155a2.487,2.487,0,0,1-.477,2.806,6.193,6.193,0,0,1-3.019,1.165A8.173,8.173,0,0,0,90.89,59.06a2.214,2.214,0,0,1-3.658-1.875c.016-.188.024-.355.024-.5a6.5,6.5,0,0,1,1.182-3.969,4.935,4.935,0,0,1,3.326-1.883c1.6-.18,4.907.73,5.7,2.319" transform="translate(-87.225 -50.814)" fill="#fff"/>
                </g>
              </g>
            </g>
            <g id="Grupo_1190636" data-name="Grupo 1190636" transform="translate(94.241 14.73)" opacity="0.3" style="mix-blend-mode: overlay;isolation: isolate">
              <g id="Grupo_1190635" data-name="Grupo 1190635">
                <g id="Grupo_1190634" data-name="Grupo 1190634" clip-path="url(#clip-path-21)">
                  <path id="Trazado_1006352" data-name="Trazado 1006352" d="M141.321,21.762a6.9,6.9,0,0,1-1.454-.178,17.9,17.9,0,0,0-8.469.8c-10.992,3.161-21.182,8.888-28.328,17.652a1.141,1.141,0,0,1-1.965-1.1,18.386,18.386,0,0,1,2.4-4.388c1.631-2.216,3.811-3.458,6.048-5.059,4.445-3.181,8.221-4.667,12.666-7.848,2.742-1.962,5.541-3.953,8.747-5a18.216,18.216,0,0,1,10.284-.213c2.575.769,4.9,5.274.069,5.33" transform="translate(-101.029 -15.791)" fill="#fff"/>
                </g>
              </g>
            </g>
            <path id="Trazado_1006353" data-name="Trazado 1006353" d="M151.552,19.268a7.434,7.434,0,0,1-3.28-.158.562.562,0,0,1,.257-1.094,8.13,8.13,0,0,0,1.842.247,3.392,3.392,0,0,1-.694-2.886,2.787,2.787,0,0,1,1.14-1.6,2.427,2.427,0,0,1,1.938-.382,2.384,2.384,0,0,1,1.468,1.145,2.879,2.879,0,0,1,.3,2.164,3.455,3.455,0,0,1-1.457,1.933,3.076,3.076,0,0,0,2.055-.3,3.038,3.038,0,0,0,1.465-3.172.562.562,0,1,1,1.1-.232,4.146,4.146,0,0,1-2.02,4.387,4.092,4.092,0,0,1-1.98.494,4.411,4.411,0,0,1-2.135-.548m-.785-3.617a2.41,2.41,0,0,0,.841,2.291c.044.038.088.074.132.109a2.6,2.6,0,0,0,1.7-1.64,1.727,1.727,0,0,0-.187-1.3,1.274,1.274,0,0,0-.771-.622,1.048,1.048,0,0,0-.258-.032,1.611,1.611,0,0,0-1.457,1.195" transform="translate(-9.933 -0.896)" fill="#ffbdbd"/>
          </g>
        </g>
      </g>
    </g>
  </g>
</svg>
