<svg xmlns="http://www.w3.org/2000/svg" xmlns:xlink="http://www.w3.org/1999/xlink" width="124" height="124" viewBox="0 0 124 124">
  <defs>
    <clipPath id="clip-path">
      <rect id="Rectángulo_459109" data-name="Rectángulo 459109" width="58.829" height="58.86" fill="#004e3d"/>
    </clipPath>
  </defs>
  <g id="Grupo_1188960" data-name="Grupo 1188960" transform="translate(-1234.5 -458)">
    <g id="Elipse_12108" data-name="Elipse 12108" transform="translate(1241.5 465)" fill="#f3bc5b" stroke="rgba(255,255,255,0.4)" stroke-width="7">
      <circle cx="55" cy="55" r="55" stroke="none"/>
      <circle cx="55" cy="55" r="58.5" fill="none"/>
    </g>
    <g id="Grupo_1190407" data-name="Grupo 1190407" transform="translate(1271.23 489.533)">
      <g id="Grupo_1190406" data-name="Grupo 1190406" clip-path="url(#clip-path)">
        <path id="Trazado_1005485" data-name="Trazado 1005485" d="M7.086.913C7.211.321,8.073-.032,8.641,0L36.551.048l.785.365,9.437,9.465c.735,1.167-.082,5.2.327,6.741a15.076,15.076,0,0,1,8.634,5.172,14.185,14.185,0,0,1-8.685,22.782c-.248.387.169,5.273-.025,6.3-.057.3-.677.908-.9.908h-3.7c-.2,1.3.42,5.9-.375,6.693a2.411,2.411,0,0,1-.869.364L1.572,58.86C.469,58.76.11,58.4.01,57.3l0-48.666c-.1-.48.428-1.555.91-1.555H7.086ZM35.357,2.475H9.552V49.319H44.725v-4.6a14.135,14.135,0,1,1,0-28.271v-4.6H36.1a1.605,1.605,0,0,1-.74-.74Zm2.3,1.644v5.26h5.1ZM7.086,9.542h-4.6V56.386H39.959v-4.6H7.99a2.047,2.047,0,0,1-.9-.9ZM36.4,38.906a11.712,11.712,0,1,0,4.953-19.5,11.8,11.8,0,0,0-4.953,19.5" transform="translate(0 0)" fill="#004e3d"/>
        <path id="Trazado_1005486" data-name="Trazado 1005486" d="M86.906,43.136l14.42-.026a1.233,1.233,0,0,1-.151,2.46c-5.807.323-7.706-.016-13.81,0-1.658-.186-1.946-1.774-.458-2.43" transform="translate(-71.814 -36.024)" fill="#004e3d"/>
        <path id="Trazado_1005487" data-name="Trazado 1005487" d="M86.989,86.073l14.432-.038c1.559.181,1.518,2.411-.332,2.468-4.831.15-8.566.029-13.646,0-1.568-.134-1.969-1.832-.454-2.434" transform="translate(-71.896 -71.894)" fill="#004e3d"/>
        <path id="Trazado_1005488" data-name="Trazado 1005488" d="M88.506,174.855c.3.258.782.934,1.142.863.514-.1,2.946-3.292,3.763-3.629,1.323-.547,2.184.57,1.61,1.775-1.2.8-4.024,4.588-5.139,4.9a1.134,1.134,0,0,1-1.035-.225,23.023,23.023,0,0,1-2.64-2.787,1.189,1.189,0,0,1,1.409-1.579c.51.137.593.429.889.682" transform="translate(-71.984 -143.684)" fill="#004e3d"/>
        <path id="Trazado_1005489" data-name="Trazado 1005489" d="M93.651,229.008c1.223-.27,1.8.663,1.439,1.774l-5.053,4.975a.946.946,0,0,1-1.1-.132,27.3,27.3,0,0,1-2.677-2.745,1.165,1.165,0,0,1,1.767-1.437c.493.332.974,1.1,1.478,1.476.286,0,3.305-3.724,4.146-3.91" transform="translate(-71.982 -191.328)" fill="#004e3d"/>
        <path id="Trazado_1005490" data-name="Trazado 1005490" d="M86.869,129.141l7.681-.024c1.183.106,1.275,2.081.17,2.286a52.044,52.044,0,0,1-7.71-.006c-1.26-.2-1.139-1.744-.141-2.257" transform="translate(-71.942 -107.895)" fill="#004e3d"/>
        <path id="Trazado_1005491" data-name="Trazado 1005491" d="M243.244,156.143a1.21,1.21,0,0,1,1.169,1.842l-8.025,7.921a1.161,1.161,0,0,1-1.151-.184,53.74,53.74,0,0,1-3.991-4.06,1.207,1.207,0,0,1,1.4-1.734c.768.173,3.091,3.087,3.323,3.087l6.324-6.329a2.735,2.735,0,0,1,.95-.544" transform="translate(-193.135 -130.465)" fill="#004e3d"/>
      </g>
    </g>
  </g>
</svg>
