<svg xmlns="http://www.w3.org/2000/svg" xmlns:xlink="http://www.w3.org/1999/xlink" width="295.289" height="315" viewBox="0 0 295.289 315">
  <defs>
    <clipPath id="clip-path">
      <rect id="Rectángulo_459108" data-name="Rectángulo 459108" width="283.093" height="309.23" fill="none"/>
    </clipPath>
  </defs>
  <g id="Grupo_1190405" data-name="Grupo 1190405" transform="translate(-179.711 -26076)">
    <rect id="Rectángulo_458233" data-name="Rectángulo 458233" width="295" height="315" transform="translate(179.711 26076)" fill="none"/>
    <g id="Grupo_1190404" data-name="Grupo 1190404" transform="translate(191.907 26079)">
      <g id="Grupo_1190403" data-name="Grupo 1190403" clip-path="url(#clip-path)">
        <path id="Trazado_1005356" data-name="Trazado 1005356" d="M284.558,365.921a53.277,53.277,0,0,0,50.661-36.87c7.4-22.808,14.406-49.866,10.568-61.415-7.219-21.719-41.505,32.654-41.505,32.654s38.347-60.052,23.46-73.679-47.894,14.951-46.468,73.679l-6.1,65.63Z" transform="translate(-74.813 -60.698)" fill="#b2c9c4"/>
        <path id="Trazado_1005357" data-name="Trazado 1005357" d="M272.289,370.778c-2.966-10.875-10.194-44.02,7.978-55.865a19.281,19.281,0,0,0,8.938-16.387c-.1-7.564,1.083-16.557,6.511-21a8.644,8.644,0,0,0,3.019-4.865c.965-4.514,3.234-12.527,7.82-17.129a5.266,5.266,0,0,1,8.936,3.67,50.631,50.631,0,0,1-2.064,15.591,8.756,8.756,0,0,0,.668,6.643c2.259,4.284,4.826,13.047-2.01,25.115a18.838,18.838,0,0,0-1.623,14.541c4.4,15.093,8.4,46.938-33.543,52.767a4.216,4.216,0,0,1-4.631-3.081" transform="translate(-72.957 -69.06)" fill="#dae4e3"/>
        <path id="Trazado_1005358" data-name="Trazado 1005358" d="M287.039,257.856q4.447-7.391,8.743-14.861c2.829-5,5.615-10.022,8.27-15.112s5.154-10.258,7.578-15.458,4.7-10.47,6.86-15.807a.182.182,0,0,1,.237-.1.184.184,0,0,1,.106.221A148.926,148.926,0,0,1,312.93,213c-2.255,5.315-4.792,10.5-7.464,15.615s-5.464,10.162-8.43,15.106q-4.41,7.44-9.235,14.616a.452.452,0,0,1-.762-.485" transform="translate(-78.021 -53.424)" fill="#004e3d"/>
        <path id="Trazado_1005359" data-name="Trazado 1005359" d="M330.147,191.532a.19.19,0,0,1-.323-.09c-.524-2.077-3.22-13.906,3.2-14.812,6.743-.952-.789,12.7-2.877,14.9" transform="translate(-89.397 -48.008)" fill="#004e3d"/>
        <path id="Trazado_1005360" data-name="Trazado 1005360" d="M326.986,202.858a.19.19,0,0,1-.178-.283c1-1.892,6.946-12.47,12.313-8.834,5.638,3.82-9.111,8.889-12.134,9.116" transform="translate(-88.844 -52.468)" fill="#004e3d"/>
        <path id="Trazado_1005361" data-name="Trazado 1005361" d="M323.751,201.263a.19.19,0,0,0,.3-.156c.075-2.14.219-14.271-6.247-13.806-6.793.489,3.446,12.254,5.95,13.962" transform="translate(-85.779 -50.919)" fill="#8d83f2"/>
        <path id="Trazado_1005362" data-name="Trazado 1005362" d="M319.29,211.587a.19.19,0,0,0,.276-.189c-.176-2.134-1.457-14.2-7.824-12.977-6.689,1.282,4.86,11.764,7.548,13.167" transform="translate(-84.196 -53.922)" fill="#8d83f2"/>
        <path id="Trazado_1005363" data-name="Trazado 1005363" d="M314.511,220.38a.19.19,0,0,0,.2-.269c-.864-1.96-6.017-12.944-11.635-9.71-5.9,3.4,8.438,9.531,11.436,9.978" transform="translate(-82.015 -57.042)" fill="#8d83f2"/>
        <path id="Trazado_1005364" data-name="Trazado 1005364" d="M309.581,231.2a.19.19,0,0,0,.2-.269c-.864-1.96-6.017-12.944-11.635-9.71-5.9,3.4,8.438,9.531,11.436,9.978" transform="translate(-80.674 -59.983)" fill="#8d83f2"/>
        <path id="Trazado_1005365" data-name="Trazado 1005365" d="M304.239,240.589a.19.19,0,0,0,.2-.269c-.864-1.959-6.017-12.943-11.635-9.709-5.9,3.4,8.438,9.531,11.436,9.978" transform="translate(-79.222 -62.536)" fill="#8d83f2"/>
        <path id="Trazado_1005366" data-name="Trazado 1005366" d="M298.454,251.44a.19.19,0,0,0,.2-.269c-.864-1.96-6.017-12.944-11.635-9.71-5.9,3.4,8.438,9.531,11.436,9.978" transform="translate(-77.649 -65.486)" fill="#8d83f2"/>
        <path id="Trazado_1005367" data-name="Trazado 1005367" d="M293.421,260.086a.189.189,0,0,0,.133-.306c-1.282-1.716-8.77-11.262-13.518-6.848-4.988,4.636,10.363,7.391,13.385,7.154" transform="translate(-75.865 -68.452)" fill="#8d83f2"/>
        <path id="Trazado_1005368" data-name="Trazado 1005368" d="M286.725,270.557a.19.19,0,0,0,.133-.307c-1.282-1.715-8.77-11.261-13.518-6.848-4.988,4.637,10.363,7.392,13.385,7.155" transform="translate(-74.045 -71.298)" fill="#8d83f2"/>
        <path id="Trazado_1005369" data-name="Trazado 1005369" d="M322.424,214.026a.19.19,0,0,1-.082-.324c1.541-1.488,10.464-9.708,14.442-4.589,4.179,5.377-11.415,5.633-14.359,4.913" transform="translate(-87.62 -56.401)" fill="#004e3d"/>
        <path id="Trazado_1005370" data-name="Trazado 1005370" d="M319.552,223.4a.19.19,0,0,1,.012-.334c1.9-1,12.764-6.389,15.149-.36,2.506,6.333-12.536,2.211-15.161.695" transform="translate(-86.852 -59.783)" fill="#004e3d"/>
        <path id="Trazado_1005371" data-name="Trazado 1005371" d="M314.646,233.7a.19.19,0,0,1,.044-.331c1.986-.8,13.334-5.093,15.111,1.142,1.866,6.549-12.693.957-15.155-.81" transform="translate(-85.522 -62.854)" fill="#004e3d"/>
        <path id="Trazado_1005372" data-name="Trazado 1005372" d="M309.309,244.087a.19.19,0,0,1,.055-.33c2.01-.739,13.491-4.659,15.066,1.629,1.654,6.607-12.717.548-15.121-1.3" transform="translate(-84.073 -65.759)" fill="#004e3d"/>
        <path id="Trazado_1005373" data-name="Trazado 1005373" d="M303.594,254.784a.19.19,0,0,1,.069-.328c2.039-.657,13.669-4.109,14.988,2.238,1.385,6.668-12.729.032-15.056-1.911" transform="translate(-82.521 -68.765)" fill="#8d83f2"/>
        <path id="Trazado_1005374" data-name="Trazado 1005374" d="M298.948,263.063a.19.19,0,0,1,.15-.3c2.139-.114,14.265-.479,13.918,5.994-.365,6.8-12.315-3.222-14.068-5.695" transform="translate(-81.266 -71.426)" fill="#8d83f2"/>
        <path id="Trazado_1005375" data-name="Trazado 1005375" d="M292.831,273.525a.19.19,0,0,1,.15-.3c2.138-.114,14.265-.479,13.918,5.994-.365,6.8-12.315-3.222-14.068-5.695" transform="translate(-79.603 -74.271)" fill="#8d83f2"/>
        <path id="Trazado_1005376" data-name="Trazado 1005376" d="M106.859,320.748c-8.539-7.357-33.066-30.794-24.625-50.776a19.279,19.279,0,0,0-1.752-18.583c-4.316-6.215-8.36-14.332-6.346-21.052a8.641,8.641,0,0,0-.217-5.721c-1.724-4.281-4.324-12.194-3.1-18.574a5.266,5.266,0,0,1,9.461-1.954,50.608,50.608,0,0,1,7.007,14.08,8.758,8.758,0,0,0,4.269,5.134c4.268,2.288,11.3,8.118,12.377,21.944a18.84,18.84,0,0,0,6.785,12.964c12.088,10.053,33.207,34.219,1.7,62.5a4.214,4.214,0,0,1-5.561.036" transform="translate(-19.169 -54.879)" fill="#b2c9c4"/>
        <path id="Trazado_1005377" data-name="Trazado 1005377" d="M109.88,375.093H65.668c-31.76,0-59.435-22.532-64.9-53.818-1.473-8.43-1-15.824,3.034-20.3,15.067-16.7,39.5,31.366,39.5,31.366s-20.361-53.436-1.222-71.517S89.722,292.446,83.614,330.1c0,0,3.773-50.461,24.354-59.667s18,93.253,1.912,104.655" transform="translate(0 -69.87)" fill="#dae4e3"/>
        <path id="Trazado_1005378" data-name="Trazado 1005378" d="M117.267,378.451q-4.814-7.177-9.235-14.615-4.45-7.416-8.43-15.106c-2.672-5.112-5.21-10.3-7.465-15.616a149.012,149.012,0,0,1-5.9-16.266.182.182,0,0,1,.344-.119q3.238,8,6.86,15.806c2.424,5.2,4.934,10.361,7.578,15.457s5.441,10.112,8.269,15.112q4.285,7.477,8.743,14.862a.451.451,0,0,1-.762.484" transform="translate(-23.442 -86.079)" fill="#8d83f2"/>
        <path id="Trazado_1005379" data-name="Trazado 1005379" d="M84.222,311.643a.19.19,0,0,0,.323-.09c.524-2.077,3.22-13.906-3.2-14.812-6.743-.952.789,12.7,2.877,14.9" transform="translate(-21.369 -80.663)" fill="#004e3d"/>
        <path id="Trazado_1005380" data-name="Trazado 1005380" d="M84.9,322.968a.189.189,0,0,0,.178-.282c-1-1.892-6.946-12.471-12.313-8.834-5.639,3.82,9.111,8.889,12.134,9.116" transform="translate(-19.437 -85.123)" fill="#004e3d"/>
        <path id="Trazado_1005381" data-name="Trazado 1005381" d="M90.02,321.374a.19.19,0,0,1-.3-.156c-.075-2.14-.219-14.271,6.247-13.806,6.793.489-3.445,12.254-5.95,13.962" transform="translate(-24.389 -83.574)" fill="#8d83f2"/>
        <path id="Trazado_1005382" data-name="Trazado 1005382" d="M93.986,331.7a.19.19,0,0,1-.276-.189c.176-2.134,1.457-14.2,7.824-12.978,6.689,1.283-4.86,11.765-7.548,13.167" transform="translate(-25.477 -86.576)" fill="#8d83f2"/>
        <path id="Trazado_1005383" data-name="Trazado 1005383" d="M97.576,340.491a.19.19,0,0,1-.2-.269c.864-1.96,6.017-12.944,11.635-9.71,5.9,3.4-8.438,9.531-11.436,9.978" transform="translate(-26.47 -89.697)" fill="#8d83f2"/>
        <path id="Trazado_1005384" data-name="Trazado 1005384" d="M102.507,351.31a.19.19,0,0,1-.2-.269c.864-1.96,6.017-12.944,11.635-9.71,5.9,3.4-8.438,9.531-11.436,9.978" transform="translate(-27.81 -92.638)" fill="#8d83f2"/>
        <path id="Trazado_1005385" data-name="Trazado 1005385" d="M107.848,360.7a.19.19,0,0,1-.2-.269c.864-1.959,6.017-12.943,11.635-9.709,5.9,3.4-8.438,9.531-11.436,9.978" transform="translate(-29.262 -95.191)" fill="#8d83f2"/>
        <path id="Trazado_1005386" data-name="Trazado 1005386" d="M113.634,371.551a.19.19,0,0,1-.2-.269c.864-1.96,6.017-12.944,11.635-9.71,5.9,3.4-8.438,9.531-11.436,9.978" transform="translate(-30.835 -98.141)" fill="#8d83f2"/>
        <path id="Trazado_1005387" data-name="Trazado 1005387" d="M118.112,380.2a.19.19,0,0,1-.133-.307c1.282-1.715,8.77-11.262,13.518-6.848,4.988,4.637-10.363,7.392-13.385,7.155" transform="translate(-32.064 -101.106)" fill="#8d83f2"/>
        <path id="Trazado_1005388" data-name="Trazado 1005388" d="M124.809,390.667a.19.19,0,0,1-.133-.307c1.281-1.715,8.77-11.261,13.518-6.848,4.988,4.637-10.363,7.392-13.385,7.155" transform="translate(-33.885 -103.953)" fill="#8d83f2"/>
        <path id="Trazado_1005389" data-name="Trazado 1005389" d="M88.861,334.137a.19.19,0,0,0,.082-.324C87.4,332.325,78.48,324.1,74.5,329.223c-4.179,5.377,11.415,5.633,14.359,4.913" transform="translate(-20.063 -89.056)" fill="#004e3d"/>
        <path id="Trazado_1005390" data-name="Trazado 1005390" d="M91.613,343.509a.19.19,0,0,0-.012-.334c-1.9-1-12.764-6.389-15.149-.36-2.506,6.333,12.536,2.21,15.161.695" transform="translate(-20.709 -92.438)" fill="#004e3d"/>
        <path id="Trazado_1005391" data-name="Trazado 1005391" d="M96.571,353.814a.19.19,0,0,0-.044-.331c-1.986-.8-13.334-5.092-15.111,1.142-1.866,6.549,12.693.957,15.155-.811" transform="translate(-22.09 -95.508)" fill="#004e3d"/>
        <path id="Trazado_1005392" data-name="Trazado 1005392" d="M101.934,364.2a.19.19,0,0,0-.055-.33c-2.01-.739-13.491-4.659-15.066,1.629-1.654,6.607,12.717.548,15.121-1.3" transform="translate(-23.566 -98.414)" fill="#004e3d"/>
        <path id="Trazado_1005393" data-name="Trazado 1005393" d="M107.69,374.895a.19.19,0,0,0-.068-.328c-2.039-.657-13.669-4.109-14.988,2.238-1.385,6.668,12.729.032,15.056-1.911" transform="translate(-25.159 -101.42)" fill="#8d83f2"/>
        <path id="Trazado_1005394" data-name="Trazado 1005394" d="M112.748,383.174a.19.19,0,0,0-.15-.3c-2.139-.114-14.265-.479-13.918,5.994.365,6.8,12.315-3.222,14.068-5.695" transform="translate(-26.827 -104.081)" fill="#8d83f2"/>
        <path id="Trazado_1005395" data-name="Trazado 1005395" d="M118.866,393.635a.19.19,0,0,0-.15-.3c-2.139-.114-14.265-.479-13.918,5.994.365,6.8,12.315-3.222,14.068-5.695" transform="translate(-28.49 -106.925)" fill="#8d83f2"/>
        <path id="Trazado_1005396" data-name="Trazado 1005396" d="M284.467,415.407c0,2.936-62.549,5.316-139.707,5.316S5.053,418.343,5.053,415.407s62.548-5.316,139.706-5.316,139.707,2.38,139.707,5.316" transform="translate(-1.374 -111.493)" fill="#b2be91"/>
        <path id="Trazado_1005397" data-name="Trazado 1005397" d="M206.187,95.608l-3.6.057-.235-14.858a1.21,1.21,0,0,1,1.219.809L206.1,90.2Z" transform="translate(-55.014 -21.969)" fill="#011627"/>
        <path id="Trazado_1005398" data-name="Trazado 1005398" d="M295.771,87.5,285.1,76.55c-11.209-.382-40.019,4.892-40.019,4.892s-35.381,5.435-37.642,7.431l.015,5.629c11.528,3.336,35.723,3.336,42.973.338,11.126,2.2,31.683.5,42.963-.711a3.915,3.915,0,0,0,2.383-6.627" transform="translate(-56.397 -20.806)" fill="#ed6a5a"/>
        <path id="Trazado_1005399" data-name="Trazado 1005399" d="M262.9,104.986c-.947,18.217-1,66.48-1.5,113.543-.46,43.7-1.308,86.349-3.609,102.924a7.765,7.765,0,0,1-7.525,6.9H96.656a7.81,7.81,0,0,1-7.579-7.407c-1.137-14.139-2.527-47.433-3.735-84.517-1.606-49.319-2.915-105.342-2.9-131.995a7.879,7.879,0,0,1,7.209-8.066c27-1.489,105.043-5.73,166.344.1a7.949,7.949,0,0,1,6.9,8.518" transform="translate(-22.415 -25.415)" fill="#5148a3"/>
        <path id="Trazado_1005400" data-name="Trazado 1005400" d="M262.485,265.219c-.46,43.7-1.308,86.349-3.609,102.923a7.765,7.765,0,0,1-7.525,6.9H97.737a7.811,7.811,0,0,1-7.579-7.408c-1.137-14.138-2.527-47.432-3.735-84.516,37.011,21.3,109.834,47.956,176.062-17.9" transform="translate(-23.496 -72.106)" fill="#5e54b0"/>
        <rect id="Rectángulo_459095" data-name="Rectángulo 459095" width="210.135" height="155.682" transform="translate(70.157 289.433) rotate(-88.9)" fill="#dedcf2"/>
        <path id="Trazado_1005401" data-name="Trazado 1005401" d="M291.4,354.18l-.154,8.094c-10.565,15.095-26.139,22.3-38.1,25.715l-14.338-.271c.117-.144.234-.288.343-.442,5.576-.4,38.681-3.934,52.251-33.1" transform="translate(-64.924 -96.292)" fill="#cecbf2"/>
        <path id="Trazado_1005402" data-name="Trazado 1005402" d="M229.206,303.186a4.36,4.36,0,0,1,1.826-1.2c3.376-2.263,6.807-4.443,10.366-6.425a4.5,4.5,0,0,1,2.232-.606,31.191,31.191,0,0,0,5.449-4.873c1.43-1.691,3.543-4.5,5.725-5.213V111.1H99.121V321.233H200.365c.354-.574,3.055-1.083,3.738-1.459,8.768-4.83,16.759-10.857,25.008-16.488l.1-.1" transform="translate(-26.948 -30.205)" fill="#f0f0f2"/>
        <path id="Trazado_1005403" data-name="Trazado 1005403" d="M238.168,386.118s40.753-1.323,54.438-36.362c0,0-24.362,7.669-38.648,3.459,0,0-6.016,23.851-15.79,32.9" transform="translate(-64.751 -95.089)" fill="#dedcf2"/>
        <path id="Trazado_1005404" data-name="Trazado 1005404" d="M137.385,180.679H116.633V159.927h20.752Zm-19.353-1.4h17.954V161.326H118.032Z" transform="translate(-31.709 -43.48)" fill="#b2abf2"/>
        <path id="Trazado_1005405" data-name="Trazado 1005405" d="M134.882,150.953q-1.1,3.046-2.264,6.06l-2.31,6.038c-1.4,3.487-2.76,6.991-4.184,10.466a37.719,37.719,0,0,1-2.31-3.328c-1.025-1.635-2.012-3.3-2.9-5.066l-4.285,3.9c1.673,1.045,3.242,2.183,4.774,3.355a29.788,29.788,0,0,1,4.267,3.817l.959,1.091.749-1.337c2.1-3.751,4.319-7.447,6.478-11.171l3.329-5.541q1.657-2.775,3.376-5.519Z" transform="translate(-31.709 -41.04)" fill="#fb3569"/>
        <rect id="Rectángulo_459096" data-name="Rectángulo 459096" width="33.385" height="4.963" transform="translate(112.813 113.179)" fill="#5148a3"/>
        <rect id="Rectángulo_459097" data-name="Rectángulo 459097" width="69.137" height="4.963" transform="translate(112.814 121.074)" fill="#d7d5f2"/>
        <rect id="Rectángulo_459098" data-name="Rectángulo 459098" width="40.753" height="4.962" transform="translate(112.813 128.97)" fill="#d7d5f2"/>
        <path id="Trazado_1005406" data-name="Trazado 1005406" d="M137.385,236.369H116.633V215.617h20.752Zm-19.353-1.4h17.954V217.016H118.032Z" transform="translate(-31.709 -58.62)" fill="#b2abf2"/>
        <path id="Trazado_1005407" data-name="Trazado 1005407" d="M134.882,206.642q-1.1,3.046-2.264,6.06l-2.31,6.038c-1.4,3.487-2.76,6.991-4.184,10.466a37.713,37.713,0,0,1-2.31-3.328c-1.025-1.635-2.012-3.3-2.9-5.066l-4.285,3.9c1.673,1.045,3.242,2.183,4.774,3.355a29.789,29.789,0,0,1,4.267,3.817l.959,1.091.749-1.337c2.1-3.751,4.319-7.447,6.478-11.171l3.329-5.541q1.657-2.775,3.376-5.519Z" transform="translate(-31.709 -56.18)" fill="#fb3569"/>
        <rect id="Rectángulo_459099" data-name="Rectángulo 459099" width="33.385" height="4.963" transform="translate(112.813 153.729)" fill="#5148a3"/>
        <rect id="Rectángulo_459100" data-name="Rectángulo 459100" width="69.137" height="4.963" transform="translate(112.814 161.624)" fill="#d7d5f2"/>
        <rect id="Rectángulo_459101" data-name="Rectángulo 459101" width="40.753" height="4.963" transform="translate(112.813 169.519)" fill="#d7d5f2"/>
        <path id="Trazado_1005408" data-name="Trazado 1005408" d="M137.385,292.058H116.633V271.306h20.752Zm-19.353-1.4h17.954V272.705H118.032Z" transform="translate(-31.709 -73.761)" fill="#b2abf2"/>
        <rect id="Rectángulo_459102" data-name="Rectángulo 459102" width="33.385" height="4.962" transform="translate(112.813 194.278)" fill="#5148a3"/>
        <rect id="Rectángulo_459103" data-name="Rectángulo 459103" width="69.137" height="4.963" transform="translate(112.814 202.172)" fill="#d7d5f2"/>
        <rect id="Rectángulo_459104" data-name="Rectángulo 459104" width="40.753" height="4.963" transform="translate(112.813 210.067)" fill="#d7d5f2"/>
        <path id="Trazado_1005409" data-name="Trazado 1005409" d="M137.385,347.748H116.633V327h20.752Zm-19.353-1.4h17.954V328.395H118.032Z" transform="translate(-31.709 -88.901)" fill="#b2abf2"/>
        <rect id="Rectángulo_459105" data-name="Rectángulo 459105" width="33.385" height="4.963" transform="translate(112.813 234.827)" fill="#5148a3"/>
        <rect id="Rectángulo_459106" data-name="Rectángulo 459106" width="69.137" height="4.963" transform="translate(112.814 242.722)" fill="#d7d5f2"/>
        <rect id="Rectángulo_459107" data-name="Rectángulo 459107" width="40.753" height="4.963" transform="translate(112.813 250.617)" fill="#d7d5f2"/>
        <path id="Trazado_1005410" data-name="Trazado 1005410" d="M237.569,82.637a1.808,1.808,0,0,0-1.408-1.477c-3.518-.757-14.678-2.878-32.214-3.673,2.615-4.5,6.179-12.049,3.684-16.4-4.665-8.12-25.715-6.09-37.445-2.481-8.667,2.666-4.527,13.7-1.774,19.285-9.614.615-20.1,1.665-31.414,3.333a1.826,1.826,0,0,0-1.55,1.608c-.431,4.112-1.327,16.468,2.139,26.212a1.792,1.792,0,0,0,1.609,1.177c10.345.52,85.079,4.044,97.3-1.939a1.81,1.81,0,0,0,1-1.36,84.459,84.459,0,0,0,.068-24.287m-50.844-21.1a6.2,6.2,0,1,1-6.208,6.2,6.2,6.2,0,0,1,6.208-6.2" transform="translate(-36.707 -15.075)" fill="#f9b800"/>
        <path id="Trazado_1005411" data-name="Trazado 1005411" d="M141.4,96.907c-.783,4.462-2.126,14.745.919,20.152a.478.478,0,0,0,.409.24c5.064.1,79.373,1.438,93.058-4.39a.475.475,0,0,0-.175-.914l-86.643-1.765a.462.462,0,0,1-.368-.187,42.142,42.142,0,0,1-6.279-13.17.471.471,0,0,0-.921.033" transform="translate(-38.175 -26.241)" fill="#f9a200"/>
        <path id="Trazado_1005412" data-name="Trazado 1005412" d="M213.427,57.86a15.061,15.061,0,0,1,6.947.529,10.929,10.929,0,0,1,3.337,1.684,7.907,7.907,0,0,1,3.226,7.108,11.651,11.651,0,0,1-.957,3.615,16.911,16.911,0,0,1-4.078,5.593.462.462,0,0,1-.744-.507l0-.009a53.53,53.53,0,0,0,2.158-6.006,13.8,13.8,0,0,0,.387-2.828,6.024,6.024,0,0,0-.51-2.446,8.218,8.218,0,0,0-3.892-3.586,37.8,37.8,0,0,0-5.909-2.245l-.032-.01a.459.459,0,0,1,.063-.892" transform="translate(-57.92 -15.679)" fill="#f9ca43"/>
        <path id="Trazado_1005413" data-name="Trazado 1005413" d="M208.321,74.736a6.2,6.2,0,1,1-8.743-8.752,6.791,6.791,0,0,0-.343,2.147,6.951,6.951,0,0,0,6.948,6.948,6.713,6.713,0,0,0,2.139-.343" transform="translate(-53.695 -17.939)" fill="#f9a200"/>
        <path id="Trazado_1005414" data-name="Trazado 1005414" d="M197.506,91.01l48.5,2.273a.07.07,0,0,1,.066.077l-1,8.831a.069.069,0,0,1-.135.008l-1.552-6.653a.069.069,0,0,0-.06-.053Z" transform="translate(-53.697 -24.743)" fill="#f9ca43"/>
        <path id="Trazado_1005415" data-name="Trazado 1005415" d="M316.619,11.516a7.332,7.332,0,0,0-14.208-3.631c-1,3.923-.509,10.291,3.414,11.293a4.85,4.85,0,0,0,1.67.1l1.388,6.649,5.586-1.166-1.661-7.96a11.077,11.077,0,0,0,3.811-5.286" transform="translate(-82.096 -0.643)" fill="#f4c587"/>
        <path id="Trazado_1005416" data-name="Trazado 1005416" d="M315.943,8.716a9.225,9.225,0,0,1-2.818,6.458,6.37,6.37,0,0,0-.9,1.085,7.2,7.2,0,0,0-.961,2.068,2.906,2.906,0,0,1-2.272-3,5.962,5.962,0,0,0-.24-2.4.93.93,0,0,1,.357-1,4.1,4.1,0,0,0,.925-1.136.956.956,0,0,0-.291-1.274,2.355,2.355,0,0,0-2.039-.066c-.714,1.565-2.323.488-2.192-1.507.073-1-.277-1.42-.633-1.587a1.026,1.026,0,0,0-1.063.2,9.189,9.189,0,0,1-3.146,1.66,5.972,5.972,0,0,1-2.607.233c-3.968-.6-3.764-4.995-2.978-5.243.816-.255,2.621.954,2.818,1.092-.582-.575-1.849-4.536,2.592-3.437,4.485,1.114,7.616-.9,10.813-.859,2.73.029,2.476,1.558,2.345,2.01a.737.737,0,0,1-.044.124c2.548-.5,2.541,3.437,2.337,6.582" transform="translate(-80.1 0)" fill="#011627"/>
        <path id="Trazado_1005417" data-name="Trazado 1005417" d="M322.155,9.467a9.225,9.225,0,0,1-2.818,6.458,6.369,6.369,0,0,0-.9,1.085c-.765-2.556-.648-7.361-.932-9.444-.269-2,1.223-3.772,2.359-4.806a.737.737,0,0,1-.044.124c2.548-.5,2.541,3.437,2.337,6.582" transform="translate(-86.312 -0.751)" fill="#011d33"/>
        <path id="Trazado_1005418" data-name="Trazado 1005418" d="M309.56,24.852a5.273,5.273,0,0,0,3.24-1.991s-.106,3.4-2.886,3.69Z" transform="translate(-84.161 -6.215)" fill="#f2b35e"/>
        <path id="Trazado_1005419" data-name="Trazado 1005419" d="M304.7,116.711c1.085,7.354,1.667,20.89-3.371,39.872l-5.41-2.272c-.393-2.148-2.621-20.067-3.779-32.635-.437-4.689-.714-8.636-.7-10.733.015-1.6,8.6-29.759,18.64-34.753l8.781,2.876,4.369,1.434s-1.646,16.616-18.531,36.21" transform="translate(-79.236 -20.714)" fill="#ed6a5a"/>
        <path id="Trazado_1005420" data-name="Trazado 1005420" d="M318.865,79.067c-.677,2.6-8.031,29.708-21.006,40.447-2.5,2.068-4.354,2.629-5.716,2.163-.437-4.689-.714-8.636-.7-10.733.015-1.6,8.6-29.759,18.64-34.753Z" transform="translate(-79.236 -20.714)" fill="#ed7566"/>
        <path id="Trazado_1005421" data-name="Trazado 1005421" d="M299.458,185.2l-1.5,3.274-13.5-6.2a1.209,1.209,0,0,1,1.256-.75l8.834,1.42Z" transform="translate(-77.335 -49.346)" fill="#011627"/>
        <path id="Trazado_1005422" data-name="Trazado 1005422" d="M302.626,33.209c-.465-.491-1.933-.117-3.4.438a11.394,11.394,0,0,0-5.3,4.182L283.5,51.479a2.48,2.48,0,0,0,.2,3.238l9.9,10.143,3.153-3.486-7.027-7.581s17.259-15.982,12.9-20.585" transform="translate(-76.938 -8.967)" fill="#f4c587"/>
        <path id="Trazado_1005423" data-name="Trazado 1005423" d="M290.253,44.467l6.991,4.132s7.571-7.645,8.384-12.688a2.68,2.68,0,0,0-2.637-3.154,6.25,6.25,0,0,0-2.82.8,13.46,13.46,0,0,0-3.119,2.783Z" transform="translate(-78.912 -8.906)" fill="#ed2458"/>
        <path id="Trazado_1005424" data-name="Trazado 1005424" d="M325.539,67.885,300.66,64.16s-2.023-25.582.683-29.841,11.714-4.8,14.188-4.452c.39.055,1.517.3,2.7.572a4.283,4.283,0,0,1,3.331,4.237l-.205,14.188a8.954,8.954,0,0,0,.254,2.252Z" transform="translate(-81.544 -8.096)" fill="#fb3569"/>
        <path id="Trazado_1005425" data-name="Trazado 1005425" d="M327.656,59.208a1.126,1.126,0,0,1-.866,1.209c-4.012.954-19.55,4.493-25.011,3.379-.451-.087-.932-.721-1.34-1.464a18.727,18.727,0,0,1-1.165-2.643c4.238-1.667,20.963-4.514,20.963-4.514-.044-.058-.087-.109-.131-.167-4.5-5.73-6.9-12.793-8.06-17.3a5.3,5.3,0,0,1,3.7-6.429,7.773,7.773,0,0,1,1.9-.328,2.682,2.682,0,0,1,1.456.284c5.759,3.415,8.082,23.307,8.555,27.975" transform="translate(-81.365 -8.413)" fill="#f4c587"/>
        <path id="Trazado_1005426" data-name="Trazado 1005426" d="M321.089,69.132c-5.4,3.612-14.024,3.24-20.65,2.184a18.726,18.726,0,0,1-1.165-2.643c4.238-1.667,20.963-4.514,20.963-4.514-.044-.058-.087-.109-.131-.167a8.059,8.059,0,0,1,1.362,1.034,2.639,2.639,0,0,1-.379,4.107" transform="translate(-81.365 -17.397)" fill="#f4ce9c"/>
        <path id="Trazado_1005427" data-name="Trazado 1005427" d="M330.427,44.788l-10.141,3.5s-8.427-13.2-1.327-17.088c0,0,8.07-5.218,11.468,13.592" transform="translate(-85.943 -8.301)" fill="#fb3569"/>
        <path id="Trazado_1005428" data-name="Trazado 1005428" d="M316.111,39.112a20.146,20.146,0,0,0,4.167,11.505l.324-.111a29.9,29.9,0,0,0,4.074,6.721s-9.161-2.46-8.565-18.115" transform="translate(-85.934 -10.634)" fill="#ed2458"/>
        <path id="Trazado_1005429" data-name="Trazado 1005429" d="M293.626,72.185c-.058.575-.109,1.034-.153,1.354a.557.557,0,0,1-.532.517H269.19a.562.562,0,0,1-.524-.473q-.153-.721-.262-1.442a51.59,51.59,0,0,1,.269-17.249.555.555,0,0,1,.488-.473,201.206,201.206,0,0,1,22.23.131c.7.036,1.245.073,1.587.095a.559.559,0,0,1,.5.51,73.6,73.6,0,0,1,.153,17.031" transform="translate(-72.807 -14.723)" fill="#d7d5f2"/>
        <path id="Trazado_1005430" data-name="Trazado 1005430" d="M308.891,80.8h-16.6V78.917H307a1.887,1.887,0,0,1,1.887,1.887" transform="translate(-79.465 -21.455)" fill="#d7d5f2"/>
        <path id="Trazado_1005431" data-name="Trazado 1005431" d="M291.39,54.549c-2.68,4.194-12.284,17.912-22.987,17.592a51.59,51.59,0,0,1,.269-17.249.555.555,0,0,1,.488-.473,201.206,201.206,0,0,1,22.23.131" transform="translate(-72.807 -14.723)" fill="#dddcf2"/>
        <path id="Trazado_1005432" data-name="Trazado 1005432" d="M30.657,291.361s-4.368,23.231,5.979,42.1c0,0-8.363,16.413-4.134,45.087h5.412s9.04-41.84,9.366-46.681l-5.368-40.508Z" transform="translate(-8.086 -79.213)" fill="#f0295d"/>
        <path id="Trazado_1005433" data-name="Trazado 1005433" d="M47.16,333.046c-.568,3.954-2.687,14.461-4.755,24.378-.932-15.56,2.5-23,2.5-23-5.869-5.345-11.8-22.652-15.109-33.625a67.309,67.309,0,0,1,.881-9.437s8.1,31.674,16.485,41.685" transform="translate(-8.1 -79.213)" fill="#db1f51"/>
        <path id="Trazado_1005434" data-name="Trazado 1005434" d="M33.534,411.105v3.6h14.86a1.21,1.21,0,0,0-.828-1.207l-8.62-2.4Z" transform="translate(-9.117 -111.768)" fill="#011627"/>
        <path id="Trazado_1005435" data-name="Trazado 1005435" d="M59.67,334.743c-.007.335-.022.663-.029.99a312.446,312.446,0,0,1-4.325,42.814H49.629c-7.354-30-.845-44.124-.845-44.124C39.967,326.391,31,291.361,31,291.361H56.1c.218.874.422,1.755.6,2.65.036.131.058.262.087.4,2.68,12.487,3.247,26.941,2.876,40.331" transform="translate(-8.429 -79.213)" fill="#fb3569"/>
        <path id="Trazado_1005436" data-name="Trazado 1005436" d="M56.622,411.105v3.6h14.86a1.21,1.21,0,0,0-.828-1.207l-8.62-2.4Z" transform="translate(-15.394 -111.768)" fill="#011627"/>
        <path id="Trazado_1005437" data-name="Trazado 1005437" d="M64.5,335.732c-7.376-4.82-18.487-29.584-15.109-35.584,2.461-4.361,8.053-5.192,12.145-5.148.036.131.058.262.087.4,2.68,12.487,3.247,26.941,2.876,40.331" transform="translate(-13.259 -80.202)" fill="#fb3f70"/>
        <path id="Trazado_1005438" data-name="Trazado 1005438" d="M16.714,299.645s-2.181,4.969-1.271,6.185a.2.2,0,0,0,.259.045,3.19,3.19,0,0,0,1.224-1.908s-.8,2.452-.256,3.534a.26.26,0,0,0,.345.1c.375-.178,1.068-.85,1.215-3.366a7.707,7.707,0,0,0,1.285,2.878.25.25,0,0,0,.392-.079,6.681,6.681,0,0,0,.474-3.116s-.27-1.4.716-1.592a2.144,2.144,0,0,1,.721.219c.35.148,1.051.411,1.3.266.333-.2-1.294-3.205-3.243-4.363Z" transform="translate(-4.138 -81.141)" fill="#f4c587"/>
        <path id="Trazado_1005439" data-name="Trazado 1005439" d="M106.565,225.611s.887-3.344,1.434-3.745a6.575,6.575,0,0,1,1.863-.628,1.926,1.926,0,0,0,1.035-.612c.728-.841,1.716-1.846,2.275-1.635.75.282-1.681,3.854-1.772,4.388s-.021,1.566.564,1.2.321-1.632.81-1.814,1.3,2.038-.81,3.222l-2.534,1.373Z" transform="translate(-28.972 -59.53)" fill="#f4c587"/>
        <path id="Trazado_1005440" data-name="Trazado 1005440" d="M82.228,229.65c-.32,2.767-14.723,22.346-17.577,22.878-1.7.32-9.859-2.905-16.128-5.541a9.185,9.185,0,0,1-.735,2.84,17.4,17.4,0,0,1-1.092,2.112,3.261,3.261,0,0,0-.459,2.17l4.34,19.5a1.04,1.04,0,0,1-1.012,1.267H23.745a1.037,1.037,0,0,1-.961-1.427l5.323-13.325a13.866,13.866,0,0,0,.291-6.9c-.211-1-.444-2.141-.677-3.32-4.813,2.738-12.138,6.495-12.138,6.495l3.99,21.116s-5.672,3.655-6.983,2.643a.56.56,0,0,1-.131-.131c-.794-1.121-6.7-15.575-7.347-23.6v-.007c-.175-2.133.022-3.808.786-4.667.1-.116.226-.24.357-.371,2.9-2.781,12.16-7.7,18.291-10.8,1.289-.648,2.447-1.223,3.371-1.675a6.709,6.709,0,0,1,2.345-1.143c1.951-.583,5.09-.983,10.31-.917.291.015,1.216.182,2.541.451,4.274.852,12.648,2.723,16.783,3.655l2.425.546a17.732,17.732,0,0,1,2.068-2.09c3.772-3.495,11.453-10,13.667-11.868.393-.335.612-.517.612-.517Z" transform="translate(-1.374 -61.721)" fill="#ed6a5a"/>
        <path id="Trazado_1005441" data-name="Trazado 1005441" d="M33.453,243.6c-1.143,3.662-3.226,8.745-4.973,13.638-.561.306-1.114.6-1.646.881,1.689-4.82,3.779-9.924,5.039-13.74.568-.284,1.1-.546,1.58-.779" transform="translate(-7.295 -66.229)" fill="#e64b39"/>
        <path id="Trazado_1005442" data-name="Trazado 1005442" d="M63.082,253.514a9.185,9.185,0,0,1-.735,2.84l-.007-.007c-.808-.32-3.735-5.315-3.735-5.315Z" transform="translate(-15.933 -68.249)" fill="#e64b39"/>
        <path id="Trazado_1005443" data-name="Trazado 1005443" d="M18.807,264.111a1.68,1.68,0,0,1,.5,1.016,1.662,1.662,0,0,1-.224,1.108,1.758,1.758,0,0,1-.273-2.124" transform="translate(-5.049 -71.805)" fill="#e64b39"/>
        <path id="Trazado_1005444" data-name="Trazado 1005444" d="M14.6,266.28a3.4,3.4,0,0,1,1.642-.007,3.369,3.369,0,0,1,1.483.7,3.7,3.7,0,0,1-3.125-.7" transform="translate(-3.97 -72.366)" fill="#e64b39"/>
        <path id="Trazado_1005445" data-name="Trazado 1005445" d="M18.578,267.778a1.155,1.155,0,0,1-.789,1.487,1.155,1.155,0,0,1,.789-1.487" transform="translate(-4.819 -72.802)" fill="#e64b39"/>
        <path id="Trazado_1005446" data-name="Trazado 1005446" d="M82.822,247.349a1.338,1.338,0,0,1-.609.79,1.321,1.321,0,0,1-.984.165,1.324,1.324,0,0,1,.609-.789,1.339,1.339,0,0,1,.984-.166" transform="translate(-22.084 -67.239)" fill="#e64b39"/>
        <path id="Trazado_1005447" data-name="Trazado 1005447" d="M83.947,247.361a1.64,1.64,0,0,1,.227,2.048,1.558,1.558,0,0,1-.475-.984,1.575,1.575,0,0,1,.248-1.065" transform="translate(-22.753 -67.251)" fill="#e64b39"/>
        <path id="Trazado_1005448" data-name="Trazado 1005448" d="M84.354,246.458a1.205,1.205,0,0,1,.572-.748.51.51,0,1,1,.363.631,1.206,1.206,0,0,1-.934.117" transform="translate(-22.934 -66.757)" fill="#e64b39"/>
        <path id="Trazado_1005449" data-name="Trazado 1005449" d="M73.56,252.1c-1.573.852-13.165-4.369-15.939-6.837a2.958,2.958,0,0,1-.524-4.128c4.274.852,12.648,2.723,16.783,3.655.706,3.262.721,6.757-.32,7.31" transform="translate(-15.357 -65.557)" fill="#ed7f72"/>
        <path id="Trazado_1005450" data-name="Trazado 1005450" d="M24.995,245.641c.051,5.949-8.941,11.97-12.05,13.1a5.732,5.732,0,0,1-6.24-2.3c2.9-2.781,12.16-7.7,18.291-10.8" transform="translate(-1.823 -66.783)" fill="#ed7f72"/>
        <path id="Trazado_1005451" data-name="Trazado 1005451" d="M52.242,216.864a7.331,7.331,0,0,0-7.086-4.084,4.038,4.038,0,0,1-.3.861c-.9,1.85-1.9,3.665-2.712,5.557a26.4,26.4,0,0,1-2.447,5.107,12.37,12.37,0,0,0,4.194,3.409v8.135h5.707v-6.795a4.848,4.848,0,0,0,1.613-.438c3.636-1.783,2.819-8.117,1.035-11.753" transform="translate(-10.791 -57.844)" fill="#f4c587"/>
        <path id="Trazado_1005452" data-name="Trazado 1005452" d="M45.675,262.919s-8.963,5.556-12.364-.684c0,0-6.429,2.963-7.973-1.383A6.834,6.834,0,0,1,25,258.39c.182-7.755,9.189-25.346,8.8-29.635-.16-1.828-.4-3.852-.488-5.745-.124-2.556.029-4.878,1.012-6.145,1.711-2.206,6.094-10.7,10.281-11.876,4.15-1.172,8.65,4.136,3.328,8.8a.431.431,0,0,1-.167.095.456.456,0,0,1-.16.051,3.379,3.379,0,0,0-2.9,3.728,3.312,3.312,0,0,1-.553,2.527s-.663,1.1-2.862-1.937a.346.346,0,0,0-.342-.153c-.488.066-1.587.349-1.5,1.456a1.486,1.486,0,0,0,.815,1.056,10.044,10.044,0,0,1,4.638,6.2,11.847,11.847,0,0,1,.313,2.33,13.669,13.669,0,0,0,.379,2.4c1.107,4.966,4.325,14.315,5.563,19.186,1.646,6.473,1.42,12.9-5.49,12.2" transform="translate(-6.797 -55.686)" fill="#011627"/>
        <path id="Trazado_1005453" data-name="Trazado 1005453" d="M41.015,240.278c-.473,9.757-3.786,23.926-9.021,26.649a8.819,8.819,0,0,1-6.655.51A6.834,6.834,0,0,1,25,264.976c.182-7.755,9.189-25.346,8.8-29.635-.16-1.828-.4-3.852-.488-5.745a6.592,6.592,0,0,1,2.636-.546A4.921,4.921,0,0,1,40,231.461c.9,1.332,1.209,4.675,1.012,8.818" transform="translate(-6.797 -62.272)" fill="#011d33"/>
        <path id="Trazado_1005454" data-name="Trazado 1005454" d="M161.811,229.21l-1.651-13.134,1.705-.8,2.6-1.209,94.619-11.894,2.009,15.983-94.619,11.894Z" transform="translate(-43.543 -54.966)" fill="#fb4475"/>
        <path id="Trazado_1005455" data-name="Trazado 1005455" d="M162.5,215.28l2.6-1.209,94.619-11.894,2.009,15.983L168,229.942a.983.983,0,0,1,.858-1.11c18.855-2.677,77.961-8.5,76.139-16.692-2.029-9.121-69.821,4.784-82.492,3.14" transform="translate(-44.18 -54.967)" fill="#fb3569"/>
        <path id="Trazado_1005456" data-name="Trazado 1005456" d="M300.495,217.174l-2.009-15.983,14.356-1.8a.9.9,0,0,1,.573.116.919.919,0,0,1,.468.693l1.777,14.138a.928.928,0,0,1-.81,1.035Z" transform="translate(-81.15 -54.206)" fill="#ff6e69"/>
        <path id="Trazado_1005457" data-name="Trazado 1005457" d="M310.312,208.271c-.411-4.4,2.889-7.108,6.309-8.723a.921.921,0,0,1,.469.693l1.777,14.138a.928.928,0,0,1-.81,1.036l-.2.025c-3.137-.4-7.059-1.956-7.549-7.169" transform="translate(-84.356 -54.252)" fill="#ff8b87"/>
        <path id="Trazado_1005458" data-name="Trazado 1005458" d="M135.408,228.735l6.163-2.82.872-.4,15.292-7-3.984,4.557,4.989,3.435-3.984,4.562,4.988,3.43-14.182-2.564-3.317-.6-6.651-1.2Z" transform="translate(-36.814 -59.407)" fill="#f7929f"/>
        <path id="Trazado_1005459" data-name="Trazado 1005459" d="M143.976,226.719l-.175-.8.872-.4,15.292-7-3.984,4.557,10.318,2.765-9.312,5.232,4.988,3.429-14.182-2.564-3.317-.6a4.387,4.387,0,0,1-.865-.717s10.484,4.094,11.167-1.261-1.618-8.341-10.8-2.63" transform="translate(-39.044 -59.407)" fill="#f78392"/>
        <path id="Trazado_1005460" data-name="Trazado 1005460" d="M135.408,231.35l7.035-3.22,3.119,6.416-9.969-1.806Z" transform="translate(-36.814 -62.023)" fill="#fb3569"/>
        <path id="Trazado_1005461" data-name="Trazado 1005461" d="M291.871,200.977l2.576.513a.55.55,0,0,0,.346-.044l2.369-1.134a.55.55,0,0,1,.784.427l2.136,16.991a.551.551,0,0,1-.654.609l-2.576-.514a.555.555,0,0,0-.346.044L294.137,219a.55.55,0,0,1-.784-.428l-2.136-16.99a.551.551,0,0,1,.654-.609" transform="translate(-79.173 -54.445)" fill="#b2abf2"/>
        <path id="Trazado_1005462" data-name="Trazado 1005462" d="M298.656,217.082,296.9,203.113a.236.236,0,0,1,.111-.233l1.486-.915a.239.239,0,0,1,.363.178l1.7,15.3a.239.239,0,0,1-.305.256l-1.428-.42a.239.239,0,0,1-.17-.2" transform="translate(-80.719 -54.899)" fill="#beb8f2"/>
        <path id="Trazado_1005463" data-name="Trazado 1005463" d="M296.277,217.45l-1.757-13.969a.237.237,0,0,0-.166-.2l-1.667-.518a.238.238,0,0,0-.307.261l2.142,15.248a.24.24,0,0,0,.36.172l1.279-.76a.239.239,0,0,0,.116-.235" transform="translate(-79.49 -55.123)" fill="#beb8f2"/>
        <path id="Trazado_1005464" data-name="Trazado 1005464" d="M214.892,233.835c.013-.833-.059-2.462-.827-2.436-1.032.036-.61,2.185-.61,2.185l-.009.149-1.513.2v0l-3.6.456a3.754,3.754,0,0,0,1.732.245l.373,1.144,4.439-.182.008-1.739s0-.009,0-.014" transform="translate(-56.642 -62.911)" fill="#f4c587"/>
        <path id="Trazado_1005465" data-name="Trazado 1005465" d="M269.907,226.588c-.161-.817-.38-2.433.381-2.543,1.022-.149.989,2.041.989,2.041l.035.145,1.523-.077v0l3.62-.234a3.75,3.75,0,0,1-1.662.591l-.163,1.192-4.4.611-.317-1.71a.07.07,0,0,1-.005-.013" transform="translate(-73.338 -60.91)" fill="#f4c587"/>
        <path id="Trazado_1005466" data-name="Trazado 1005466" d="M258.948,302.961s-.044.065-.116.2c-1.07,1.748-8.963,14.65-17.6,26.016-4.376,5.759-8.941,11.126-12.91,14.453,3.852,6.357,9.619,18.618,12.313,38.066h-5.861c-.1-.153-.248-.4-.437-.735-2.971-5.293-16.572-32.3-19.834-38.78a2.708,2.708,0,0,1-.116-.255,3.028,3.028,0,0,1,.153-2.534c2.927-5.49,13.958-25.747,21.283-34.244l10.259-.968Z" transform="translate(-58.23 -82.367)" fill="#a9a1f0"/>
        <path id="Trazado_1005467" data-name="Trazado 1005467" d="M250.143,329.638c-1.019,1.34-2.046,2.658-3.073,3.932-.408-9.531.058-23,4.485-28.608l3.437-.32c-4.056,4.7-4.959,15.793-4.849,25" transform="translate(-67.14 -82.824)" fill="#948be8"/>
        <path id="Trazado_1005468" data-name="Trazado 1005468" d="M236.046,394.167c-.109.583-.714,1-1.631,1.281-2.971-5.293-16.572-32.3-19.834-38.78a2.709,2.709,0,0,1-.116-.255,9.779,9.779,0,0,1,8.839,2.461c4.369,4.369,13.288,32.358,12.742,35.292" transform="translate(-58.307 -96.85)" fill="#bbb5f2"/>
        <path id="Trazado_1005469" data-name="Trazado 1005469" d="M244.968,411.105v3.6h-14.86a1.21,1.21,0,0,1,.828-1.207l8.62-2.4Z" transform="translate(-62.56 -111.768)" fill="#011627"/>
        <path id="Trazado_1005470" data-name="Trazado 1005470" d="M284.774,411.105v3.6h-14.86a1.21,1.21,0,0,1,.827-1.207l8.62-2.4Z" transform="translate(-73.382 -111.768)" fill="#011627"/>
        <path id="Trazado_1005471" data-name="Trazado 1005471" d="M279.2,381.744h-5.861c-.218-.335-.692-1.121-1.369-2.264-4.369-7.449-17-29.795-19.536-35.991a4.424,4.424,0,0,1-.16-.706,104.851,104.851,0,0,1-.947-13.558c-.109-9.2.794-20.293,4.849-25l12.75-1.019,1.049-.087s4.908,15.953-3.087,40.557c3.852,6.357,9.619,18.618,12.313,38.066" transform="translate(-68.328 -82.41)" fill="#b2abf2"/>
        <path id="Trazado_1005472" data-name="Trazado 1005472" d="M272.33,393.451c-4.369-7.449-17-29.795-19.536-35.991a4.426,4.426,0,0,1-.16-.706c1.74-2.024,4.573-3.662,8.388-.349,6.08,5.286,15.262,30.559,11.308,37.047" transform="translate(-68.684 -96.382)" fill="#bbb5f2"/>
        <path id="Trazado_1005473" data-name="Trazado 1005473" d="M233.945,254.4s-1.194,5.592-1.959,9.043c-.335,1.544-.59,2.665-.612,2.665-.036-.124-19.7-.415-22.929-.9a.561.561,0,0,1-.488-.532c-.342-8.752-.036-21.523,1.835-27.232a.146.146,0,0,1,.131-.117l4.937-.175a.136.136,0,0,1,.146.138c-.036,4.726-.291,20.031.3,20.548h.007a106.617,106.617,0,0,1,18.633-3.444" transform="translate(-56.505 -64.478)" fill="#ed5442"/>
        <path id="Trazado_1005474" data-name="Trazado 1005474" d="M235.6,260.841s-1.194,5.592-1.959,9.043c-8.228.932-19.71-.357-19.71-1.624,0-1.041,1.544-2.658,3.029-3.976h.007a106.619,106.619,0,0,1,18.633-3.444" transform="translate(-58.163 -70.916)" fill="#ed6a5a"/>
        <path id="Trazado_1005475" data-name="Trazado 1005475" d="M266.462,290.746,242.2,292.573a.472.472,0,0,1-.51-.393c-.32-1.8-1.58-9.007-2.359-15.91-.655-5.84-.961-11.453-.066-13.39.874-1.879,2.876-3.277,5.111-4.259.255-.124.524-.233.786-.335a26.269,26.269,0,0,1,5.454-1.471v-.007l.335-.044q.251-.033.481-.066a10.976,10.976,0,0,1,1.318-.087c.466.007,1.981.138,3.4.277.7.066,1.376.138,1.893.189a1.139,1.139,0,0,1,1.019,1l1.893,16.194.051.408a9.174,9.174,0,0,0,.546,2.2l2.738,6.786,2.585,6.415a.485.485,0,0,1-.415.663" transform="translate(-64.899 -69.766)" fill="#ede4e4"/>
        <path id="Trazado_1005476" data-name="Trazado 1005476" d="M266.694,298.086l-24.261,1.828a.472.472,0,0,1-.51-.393c-.32-1.8-1.58-9.007-2.359-15.91,3.379,4.194,12.771,13.623,24.96,7.4l2.585,6.415a.485.485,0,0,1-.415.663" transform="translate(-65.131 -77.106)" fill="#e6d6d6"/>
        <path id="Trazado_1005477" data-name="Trazado 1005477" d="M266.484,274.379c-9.939-1.595-7.056-16.055-7.056-16.055l2.25-1.332c.7.066,1.376.138,1.893.189a1.139,1.139,0,0,1,1.019,1Z" transform="translate(-70.426 -69.869)" fill="#e6d6d6"/>
        <path id="Trazado_1005478" data-name="Trazado 1005478" d="M285.074,249.134a.811.811,0,0,1-.058.218,1.306,1.306,0,0,1-.684.765c-.218.1-.473.218-.75.357a.025.025,0,0,1-.015.007c-3.517,1.646-11.366,5.366-15.822,7.478-.459.218-.881.415-1.26.6a4.631,4.631,0,0,1-5.206-.757c-2.141-2.082-2.053-5.25-1.762-7.106a2.328,2.328,0,0,1,1.747-1.915,65.369,65.369,0,0,1,15.6-1.529s-8.352-13.456-9.684-17.81l1.675-.175,3.371-.342s10.055,10.8,12.808,19.594a1.278,1.278,0,0,1,.036.619" transform="translate(-70.514 -62.237)" fill="#ed6a5a"/>
        <path id="Trazado_1005479" data-name="Trazado 1005479" d="M285.074,249.262a.812.812,0,0,1-.058.218,1.306,1.306,0,0,1-.684.765c-.218.1-.473.218-.75.357a.025.025,0,0,1-.015.007c-3.517,1.646-11.366,5.366-15.822,7.478-.459.218-.881.415-1.26.6a4.631,4.631,0,0,1-5.206-.757c-2.141-2.082-2.053-5.25-1.762-7.106a2.328,2.328,0,0,1,1.747-1.915,65.371,65.371,0,0,1,15.6-1.529s-8.352-13.456-9.684-17.81l1.675-.175c1.231,3.255,8.745,21.094,16.215,19.871" transform="translate(-70.514 -62.365)" fill="#ed5442"/>
        <path id="Trazado_1005480" data-name="Trazado 1005480" d="M244.89,230.46a7.333,7.333,0,0,0-8.152,6.408c-.481,4.021.841,10.269,4.862,10.75a4.833,4.833,0,0,0,1.667-.117l1.3,3.716a2.86,2.86,0,0,0,5.387-1.886l-1.745-4.981a11.07,11.07,0,0,0,3.087-5.739,7.332,7.332,0,0,0-6.408-8.152" transform="translate(-64.337 -62.642)" fill="#f4c587"/>
        <path id="Trazado_1005481" data-name="Trazado 1005481" d="M253.55,256.731a3.041,3.041,0,0,1-.146.925,3.8,3.8,0,0,1-1.784,2.082,2.65,2.65,0,0,1-.9.335,3.97,3.97,0,0,1-.757.073,4.754,4.754,0,0,1-2.585-.808,6.967,6.967,0,0,1-.881-.684c.255-.124.524-.233.786-.335a4.7,4.7,0,0,0,1.281.815,3.107,3.107,0,0,0,3.888-1.274,2.421,2.421,0,0,0,.284-1.012v-.007l.335-.044q.251-.033.481-.065" transform="translate(-67.015 -69.798)" fill="#ed6a5a"/>
        <path id="Trazado_1005482" data-name="Trazado 1005482" d="M245.74,253.1a4.2,4.2,0,0,0,2.662-2.111,3.985,3.985,0,0,1-1.932,4.1Z" transform="translate(-66.81 -68.236)" fill="#f2b35e"/>
        <path id="Trazado_1005483" data-name="Trazado 1005483" d="M252.021,233.547c-.32,2.752-1.34,2.891-.75,4.573.422,1.187-1.5,4.456-2.665,6.269-.481.75-.83,1.252-.83,1.252a10.211,10.211,0,0,1-4-3.277c-.473-.721-.735-2.082,0-2.541.786-.488,1.711-1.223,1.762-2.01.066-1.048-1.5-1.165-2.257-1.158a.289.289,0,0,1-.284-.371c.211-.808.619-2.629.007-3.138-.786-.67-3.014-1.121-5.476-.248s-4.383,1.667-5.221.066c-1.34-2.578.641-2.643,2.636-3.247,0,0-.218-1.864.706-2.672s7.813-2.723,12.917,3.065c.058.058.1.109.153.167,0,0,3.619.524,3.3,3.269" transform="translate(-63.04 -61.468)" fill="#011627"/>
        <path id="Trazado_1005484" data-name="Trazado 1005484" d="M257.71,235.048c-.32,2.752-1.34,2.891-.75,4.573.422,1.187-1.5,4.456-2.665,6.269-3.08-1.682-.451-8.519-.451-8.519-1.609-1.951-.422-4.456.415-5.759.058.058.1.109.153.167,0,0,3.619.524,3.3,3.269" transform="translate(-68.729 -62.969)" fill="#011d33"/>
      </g>
    </g>
  </g>
</svg>
