<svg xmlns="http://www.w3.org/2000/svg" xmlns:xlink="http://www.w3.org/1999/xlink" width="150" height="150" viewBox="0 0 150 150">
  <defs>
    <clipPath id="clip-path">
      <rect id="Rectángulo_459120" data-name="Rectángulo 459120" width="150" height="124.27" fill="none"/>
    </clipPath>
    <clipPath id="clip-path-2">
      <path id="Trazado_1005528" data-name="Trazado 1005528" d="M84.494,53.684l59.8,34.53a15.392,15.392,0,0,1,2.26,1.576l3.441.128v6.536c.011,3.746-2.722,7.7-8.068,10.785l-43.469,25.1A38.287,38.287,0,0,1,79.871,137h-.11c-5.343-.008-10.441-1.091-14.253-3.293L5.7,99.174C1.918,96.989.043,94.072,0,91.01H0V84.345l2.7.1a20.571,20.571,0,0,1,5.367-4.3l43.469-25.1a38.313,38.313,0,0,1,18.644-4.658c5.365,0,10.484,1.082,14.312,3.291" transform="translate(-0.001 -50.393)" fill="none"/>
    </clipPath>
    <linearGradient id="linear-gradient" x1="1" y1="1" x2="0.995" y2="1" gradientUnits="objectBoundingBox">
      <stop offset="0" stop-color="#789401"/>
      <stop offset="0.425" stop-color="#789401"/>
      <stop offset="0.444" stop-color="#7d9b01"/>
      <stop offset="0.506" stop-color="#8dae01"/>
      <stop offset="0.549" stop-color="#93b501"/>
      <stop offset="1" stop-color="#93b501"/>
    </linearGradient>
    <clipPath id="clip-path-4">
      <rect id="Rectángulo_459116" data-name="Rectángulo 459116" width="46.368" height="26.771" fill="none"/>
    </clipPath>
    <clipPath id="clip-path-5">
      <rect id="Rectángulo_459117" data-name="Rectángulo 459117" width="46.563" height="26.883" fill="none"/>
    </clipPath>
  </defs>
  <g id="Grupo_1190881" data-name="Grupo 1190881" transform="translate(-981.711 -27547)">
    <g id="Grupo_1190880" data-name="Grupo 1190880" transform="translate(524 21654)">
      <rect id="Rectángulo_459312" data-name="Rectángulo 459312" width="150" height="150" transform="translate(457.711 5893)" fill="none"/>
    </g>
    <g id="Grupo_1190435" data-name="Grupo 1190435" transform="translate(981.711 27560)">
      <g id="Grupo_1190434" data-name="Grupo 1190434" clip-path="url(#clip-path)">
        <g id="Grupo_1190422" data-name="Grupo 1190422" transform="translate(0 37.668)">
          <g id="Grupo_1190421" data-name="Grupo 1190421" clip-path="url(#clip-path-2)">
            <rect id="Rectángulo_459115" data-name="Rectángulo 459115" width="150.01" height="86.603" transform="translate(0 -0.001)" fill="url(#linear-gradient)"/>
          </g>
        </g>
        <g id="Grupo_1190433" data-name="Grupo 1190433">
          <g id="Grupo_1190432" data-name="Grupo 1190432" clip-path="url(#clip-path)">
            <path id="Trazado_1005529" data-name="Trazado 1005529" d="M5.7,108.429l59.8,34.528c8.446,4.878,23.2,4.266,32.955-1.365l43.47-25.1c5.345-3.086,8.078-7.039,8.067-10.785v3.338c.011,3.746-2.722,7.7-8.067,10.785l-43.47,25.1c-9.753,5.631-24.509,6.243-32.955,1.366L5.7,111.767c-3.786-2.186-5.661-5.1-5.7-8.164H0v-3.338H0c.04,3.061,1.914,5.978,5.7,8.164" transform="translate(-0.001 -25.318)" fill="#7a3d23"/>
            <path id="Trazado_1005530" data-name="Trazado 1005530" d="M5.7,90.342l59.8,34.528c8.447,4.878,23.2,4.266,32.955-1.365l43.47-25.1c9.753-5.631,10.812-14.15,2.365-19.026l-59.8-34.53c-8.448-4.875-23.2-4.264-32.955,1.368l-43.47,25.1C-1.686,76.947-2.744,85.466,5.7,90.342" transform="translate(0 -10.495)" fill="#a6cc02"/>
            <g id="Grupo_1190425" data-name="Grupo 1190425" transform="translate(26.895 38.842)" style="mix-blend-mode: multiply;isolation: isolate">
              <g id="Grupo_1190424" data-name="Grupo 1190424" transform="translate(0)">
                <g id="Grupo_1190423" data-name="Grupo 1190423" transform="translate(0)" clip-path="url(#clip-path-4)">
                  <path id="Trazado_1005531" data-name="Trazado 1005531" d="M107.02,76.961l-1.289-.744c-4.551-2.627-3.975-7.26,1.28-10.294l19.83-11.448c5.255-3.034,13.278-3.367,17.829-.739l1.289.744c4.551,2.627,3.975,7.26-1.28,10.294l-19.83,11.448c-5.256,3.034-13.278,3.367-17.829.739" transform="translate(-102.66 -51.963)" fill="#a2b0e0"/>
                </g>
              </g>
            </g>
            <path id="Trazado_1005532" data-name="Trazado 1005532" d="M176.305,10.566c.025-.7,5.018,1.342,5.688,1.721a8.662,8.662,0,0,0,2.83,1.079c.9.087,1.225.992,1.9,1.167s-.186,2.221-.875,2.217-.087-.146-.73-.292-3.938-.641-5.105-1.429-3.734-3.646-3.7-4.463" transform="translate(-168.748 -2.631)" fill="#ffefb6"/>
            <path id="Trazado_1005533" data-name="Trazado 1005533" d="M181.635,11.564a10.349,10.349,0,0,1,1.615.725,8.723,8.723,0,0,1,1.52.9A12.969,12.969,0,0,1,187.308,16c-.076-.114-.826,0-.973-.021a6.613,6.613,0,0,1-1.417-.287,15.835,15.835,0,0,1-2.182-.737,7.98,7.98,0,0,1-1.582-1.42,22.425,22.425,0,0,1-1.755-2.174c-.072-.1-.13-.451-.226-.5a15.93,15.93,0,0,0,2.2.611c.09.026.179.054.267.084" transform="translate(-171.236 -2.745)" fill="#fae59b"/>
            <path id="Trazado_1005534" data-name="Trazado 1005534" d="M151,38.394a20.36,20.36,0,0,0,.714,4.245c.247,1.06,2.4,2.955,2.4,2.955a13.914,13.914,0,0,0,.3,2.8l.263.731a4.759,4.759,0,0,0,0,2.654c.437,1.283.934,1.606,1.2,2.683a20.412,20.412,0,0,1,.206,4.843,38.544,38.544,0,0,1-.813,3.918c-.023.088-.035.138-.035.138a7.376,7.376,0,0,0-.641,1.984c0,.611.35.466.35.466l.7-.614s-.292,1.109-.145,1.139a2.681,2.681,0,0,0,1.256-.026,3.9,3.9,0,0,0,.756-.266c1.122-.518,1.313-.438,1.633-1.138a2.758,2.758,0,0,0,.218-1.337c-.01-.187-.031-.357-.043-.5-.035-.446-.616-.584-.57-.992s.8-.906.862-1.809-.792-1.809-.862-3.24a19.333,19.333,0,0,1-.247-3.82,7.762,7.762,0,0,0-.32-2.831s1.4-1.633.875-5.368a55.214,55.214,0,0,0-1.069-5.657c-.712-2.8-1.742-5.374-3.19-5.836C152.307,32.73,151,38.394,151,38.394" transform="translate(-122.47 -8.445)" fill="#fae59b"/>
            <path id="Trazado_1005535" data-name="Trazado 1005535" d="M151.01,43.353a2.638,2.638,0,0,0,.283.736,26.575,26.575,0,0,1,2.074,5.631,3.018,3.018,0,0,1,.124,1.067c-.033.259-.126.511-.133.773a3.009,3.009,0,0,0,.793,1.627,2.525,2.525,0,0,1,.519,1.561,1.291,1.291,0,0,1-.983,1.2,1.07,1.07,0,0,1,.943.861,10.522,10.522,0,0,1,.141,1.367,8.532,8.532,0,0,0,.733,2.061,3.2,3.2,0,0,1,.268,2.133,1.391,1.391,0,0,1-1.689.982c-.129.786.52,1.459.905,2.157a.738.738,0,0,1,.124.486.841.841,0,0,1-.229.373,3.57,3.57,0,0,0-1.1,1.541c-.016.086-.028.173-.037.261a3.883,3.883,0,0,0,.756-.266c1.123-.517,1.314-.438,1.633-1.138a2.756,2.756,0,0,0,.218-1.337c-.01-.187-.031-.357-.042-.5-.035-.446-.617-.584-.57-.992s.8-.906.861-1.809-.792-1.809-.861-3.239a19.293,19.293,0,0,1-.247-3.821,7.745,7.745,0,0,0-.32-2.831s1.4-1.633.875-5.368a55.21,55.21,0,0,0-1.069-5.657,6.775,6.775,0,0,0-2.385-.4,1.322,1.322,0,0,0-.618.122,1.242,1.242,0,0,0-.446.5,4.542,4.542,0,0,0-.464,1.177,1.9,1.9,0,0,0-.058.733" transform="translate(-119.474 -10.307)" fill="#f0d773"/>
            <path id="Trazado_1005536" data-name="Trazado 1005536" d="M151.325,75.4c0,.611.35.466.35.466l.7-.614s-.292,1.109-.145,1.139a3.034,3.034,0,0,0,2.012-.292c1.123-.518,1.314-.439,1.633-1.139a2.756,2.756,0,0,0,.218-1.337,6.094,6.094,0,0,1-1.31.4,1.838,1.838,0,0,1-1.634-.175c-.153-.142-.265-.341-.454-.429-.164-.075-.327-.022-.486-.066a1.27,1.27,0,0,1-.208-.079c-.023.089-.034.138-.034.138a7.37,7.37,0,0,0-.642,1.984" transform="translate(-119.213 -18.505)" fill="#33373b"/>
            <path id="Trazado_1005537" data-name="Trazado 1005537" d="M113.143,49.257l.389.546.544-.9v1.129a2.173,2.173,0,0,0,1.1.156,1.834,1.834,0,0,0,.553-.156c.838-.39,2-.74,2.239-1.48a3.308,3.308,0,0,0,.111-.928c.01-.673-.074-1.437-.074-1.949,0-.777.7-.934.7-1.711a12.254,12.254,0,0,1,.467-2.373s-.1-4.988.718-6.232a7.36,7.36,0,0,0,1.322-3.811,58.4,58.4,0,0,1,1.54-5.806,24.373,24.373,0,0,0,1.027-5.436c0-3.151-7.585,3.93-7.585,3.93,0,.058,0,.114,0,.173-.091,3.494-.684,6.2,0,8.072a17.137,17.137,0,0,1,.549,1.718,2.71,2.71,0,0,1,.114.67s.021,5.865-.679,7.148-.934.584-1.324,1.907c-.188.644-.6,1.926-.97,3.069-.392,1.2-.74,2.259-.74,2.259" transform="translate(-58.35 -4.925)" fill="#f0d773"/>
            <path id="Trazado_1005538" data-name="Trazado 1005538" d="M115.755,51.807a1.846,1.846,0,0,0,.553-.156c.838-.389,2-.74,2.238-1.48a3.306,3.306,0,0,0,.112-.928c.009-.673-.075-1.437-.075-1.949,0-.777.7-.934.7-1.711a12.271,12.271,0,0,1,.466-2.373s-.1-4.988.718-6.232a7.356,7.356,0,0,0,1.321-3.811,58.421,58.421,0,0,1,1.541-5.806,9.674,9.674,0,0,1-.85-.6,2.753,2.753,0,0,0-1.916-.548,10.753,10.753,0,0,1-1.972-.168,4.271,4.271,0,0,0-1.414-.129,1.8,1.8,0,0,0-.411.112,2.436,2.436,0,0,0-1.022.8A4.842,4.842,0,0,0,115,28.389a11.11,11.11,0,0,0-.481,3.547,5.5,5.5,0,0,0,.306,1.819,2.771,2.771,0,0,0,1.129,1.421c.431.256.949.364,1.365.641.045.028.087.059.129.091a2.978,2.978,0,0,1,.929,2.887c-.623,2.124.218,4.489-.406,6.614a2.047,2.047,0,0,1-.259.621c-.3.427-.9.616-1.076,1.106a2.923,2.923,0,0,0,.01,1.038,3.228,3.228,0,0,1-.149.875q-.361,1.341-.724,2.681c-.007.023-.012.049-.019.075" transform="translate(-58.929 -6.538)" fill="#f0d773"/>
            <path id="Trazado_1005539" data-name="Trazado 1005539" d="M101.669,5.526c2.076-1.338,6.9,2.773,6.615,5.358s-1.931,1.289-4.859-.726-1.757-4.632-1.757-4.632" transform="translate(-34.12 -1.329)" fill="#fae59b"/>
            <path id="Trazado_1005540" data-name="Trazado 1005540" d="M103.078,5.507c2.076-1.338,6.135,1.817,5.855,4.4S107,11.2,104.074,9.183s-1-3.676-1-3.676" transform="translate(-35.528 -1.31)" fill="#ffefb6"/>
            <path id="Trazado_1005541" data-name="Trazado 1005541" d="M120.768,58.545l.389.546.544-.9v1.129a2.108,2.108,0,0,0,1.652,0c.838-.39,2-.74,2.239-1.48a3.308,3.308,0,0,0,.111-.928,2.807,2.807,0,0,1-1.055.306,7.3,7.3,0,0,1-1.853-.14,2.368,2.368,0,0,1-1.017-.509.539.539,0,0,1-.054-.047,2.484,2.484,0,0,1-.217-.24c-.392,1.2-.74,2.259-.74,2.259" transform="translate(-65.976 -14.213)" fill="#33373b"/>
            <path id="Trazado_1005542" data-name="Trazado 1005542" d="M109.549,25.073c-.466.62-1.069,3.384,2.023,4.376s4.084.828,5.6,2.369,1.692,1.949,1.926,3a13.431,13.431,0,0,0,1.984,3.559c.641.934,3.734,1.4,4.726,1.692s7-1.926,9.1-2.392a24.171,24.171,0,0,0,11.377-5.093c4.843-3.951,6.3-5.293,7.352-6.168a28.537,28.537,0,0,0,2.626-2.77c1.631-1.916,3.438-4.38,3.85-6.1.7-2.917,1.109-4.726.759-6.593s-1.517-4.434-3.793-5.484a17.99,17.99,0,0,0-9.82-1.239c-3.151.7-3.968.759-5.018,1.751a38.746,38.746,0,0,1-5.6,4.959c-2.1,1.284-4.3,1.711-7.333,1.867a11.476,11.476,0,0,0-6.339,1.9A4.171,4.171,0,0,1,119.9,15.8c-.74-.156-7.7-3.178-9.725-2.748s-5.991,12.135-5.991,12.135Z" transform="translate(-88.875 -1.005)" fill="#ffefb6"/>
            <path id="Trazado_1005543" data-name="Trazado 1005543" d="M113.2,28.633c-.466.62-1.069,3.384,2.023,4.376s4.084.828,5.6,2.369,1.692,1.949,1.926,3a13.431,13.431,0,0,0,1.984,3.559c.641.934,3.734,1.4,4.726,1.692s7-1.926,9.1-2.392a24.171,24.171,0,0,0,11.377-5.093c4.843-3.951,6.3-5.293,7.352-6.168a28.535,28.535,0,0,0,2.626-2.77,21.162,21.162,0,0,0-.89-5.316,8.244,8.244,0,0,0-1.722-3.352,1.539,1.539,0,0,0-1.886-.238,4.717,4.717,0,0,0-1.976,2.334,4.664,4.664,0,0,1-1.1,1.557.618.618,0,0,0-.233.336c-.021.18.126.33.247.462A5.492,5.492,0,0,1,153.4,26.4a6.2,6.2,0,0,1-.1,2.168,6.122,6.122,0,0,1-.7,1.412,10.175,10.175,0,0,1-3.6,4.063,17.164,17.164,0,0,1-6.194,1.55.861.861,0,0,1-.98-.35,21,21,0,0,0-2.093-2.175c-.575-.478-1.837-1.554-2.621-1.4a1.888,1.888,0,0,0-.807.46c-.892.73-1.909,2.411-3.153,1.8-.745-.364-.9-.387-1.37.224-.511.672-1.783,2.168-2.728,2.044-.917-.124-2.03-1.223-2.683-1.825-1.688-1.556-3.048-3.5-5.041-4.707a17.414,17.414,0,0,0-7.015-1.961,5.7,5.7,0,0,0-2.474.073,3.006,3.006,0,0,0-1.33.915Z" transform="translate(-92.528 -4.566)" fill="#fae59b"/>
            <path id="Trazado_1005544" data-name="Trazado 1005544" d="M162.974,34.5a1.391,1.391,0,0,0,.387,1.048,4.845,4.845,0,0,0,.507.493,3.962,3.962,0,0,0,3.151.271,4.251,4.251,0,0,0,2.023-1.361,4.866,4.866,0,0,0,1.866-.739,8.757,8.757,0,0,1,.894-.894s2.089-.712,3.281-.978a4.976,4.976,0,0,0,3.136-2.25,20.057,20.057,0,0,0,1.816-4.9c.1-.418.187-.815.247-1.172.31-1.866-1.283-4.046-1.866-5.33a3.651,3.651,0,0,0-2.579-2.5,6.51,6.51,0,0,1-2.869-1.425c-.7-.584-3.421.623-3.421.623l-1.517,2.568-.546,1.244s-1.71,1.283-1.9,2.14-.04,2.061-.2,3.421-1.011,4.98-1.71,5.757a4.506,4.506,0,0,0-1.244,2.257c-.2.894.543,1.237.543,1.727" transform="translate(-151.712 -3.688)" fill="#ffefb6"/>
            <path id="Trazado_1005545" data-name="Trazado 1005545" d="M173.219,29.147a5.772,5.772,0,0,1,1.235-1.1,2.889,2.889,0,0,1,3.551.081.184.184,0,0,1,.066.1.182.182,0,0,1-.024.1,6.234,6.234,0,0,1-.727,1.3,2.807,2.807,0,0,1-.8.733c-.286.147-.6.085-.783.409a.657.657,0,0,0-.016.662c.12.156,1.613.505.609.851a20.543,20.543,0,0,0-3.6,1.642q-.839.485-1.63,1.048c-.4.283-1,.981-1.461,1.071-.2-.439.211-1.2.444-1.578.312-.507.712-.955,1.051-1.444a7.226,7.226,0,0,0,.739-1.357c.172-.416.112-.892.276-1.274a5.671,5.671,0,0,1,1.061-1.236" transform="translate(-154.84 -6.938)" fill="#fae59b"/>
            <path id="Trazado_1005546" data-name="Trazado 1005546" d="M162.843,39.12a4.629,4.629,0,0,0,.507.493,3.961,3.961,0,0,0,3.151.271,4.242,4.242,0,0,0,2.023-1.36,4.873,4.873,0,0,0,1.867-.74,8.846,8.846,0,0,1,.894-.894s2.089-.712,3.281-.978a4.978,4.978,0,0,0,3.136-2.25,20.058,20.058,0,0,0,1.816-4.9l-.046-.014a20.361,20.361,0,0,1-2.031,3.622,6.085,6.085,0,0,1-2.324,2.115c-1.277.539-2.782.331-4.017,1.024-1.384.775-2.651,2.107-4.177,2.579a.909.909,0,0,1-.21.042c-.819.068-1.127-1.088-2.035-1.073-.639.012-1.834.665-1.888,1.342a2.264,2.264,0,0,0,.054.719" transform="translate(-151.194 -7.26)" fill="#fae59b"/>
            <path id="Trazado_1005547" data-name="Trazado 1005547" d="M169.839,29.627a3.059,3.059,0,0,1,1.547-1.2c.612-.23,1.576.324,1.576.324s-.875,1.138-1.371,1.254a4.751,4.751,0,0,1-1.751-.379" transform="translate(-149.913 -7.164)" fill="#33373b"/>
            <path id="Trazado_1005548" data-name="Trazado 1005548" d="M174.465,0a4.828,4.828,0,0,1,0,2.334,4.824,4.824,0,0,0-.9,2.568c.029,1.313-.656,6.913-.656,6.913a5.986,5.986,0,0,1-2.29.379c-1.024-.105-.981-.653-.981-.653s2.236-7.953,2.761-8.974A14.641,14.641,0,0,1,174.465,0" transform="translate(-151.418)" fill="#f2dd8b"/>
            <path id="Trazado_1005549" data-name="Trazado 1005549" d="M165.792,8.693c-.408.613-3.18.992-5.222,2.246s-5.272,2.876-5.6,3.705-.642,1.837-.846,2.217-1.313.321-2.538,0-1.284-.73-1.254-1.109a18.412,18.412,0,0,1,1.808-2.678s1.6-1.961,6.1-3.506a15.249,15.249,0,0,1,7.556-.875" transform="translate(-128.159 -2.159)" fill="#f2dd8b"/>
            <path id="Trazado_1005550" data-name="Trazado 1005550" d="M181.509,36.842c.35.2.408,1.313.408,1.313s.5.9,1.079.788,1.138-.788,1.634-.438a.864.864,0,0,1,.2,1.4c-.466.554-.846,1.079-.846,1.079a.861.861,0,0,0,.963.408c.642-.175-.117.911-1.4.718s-2.013-.806-2.042-1.156-.061-1.249-.061-1.249-.873-.735-.582-1.581a4.631,4.631,0,0,1,.642-1.283" transform="translate(-170.335 -9.303)" fill="#33373b"/>
            <path id="Trazado_1005551" data-name="Trazado 1005551" d="M175.648,42.118a2.167,2.167,0,0,0,2.159-.262c.875-.642.262-.992,1.663-1.867s1.458,0,1.721,0-.116.827-.962,1.051-1.051,1.021-1.459,1.254-2.626,1.086-3.5.514.379-.689.379-.689" transform="translate(-162.052 -9.999)" fill="#33373b"/>
            <path id="Trazado_1005552" data-name="Trazado 1005552" d="M138.926,66.537c.26.235.964-.84.964-.84l-.124,1.011s-.061.241.939.249a2.223,2.223,0,0,0,.961-.3h0a10.132,10.132,0,0,0,1.77-1.265,8.288,8.288,0,0,0-.173-1.822,1.941,1.941,0,0,0-.083-.263c-.284-.7-.6-.932-.434-1.538a8.142,8.142,0,0,0,.71-3.16,36.174,36.174,0,0,1,.034-4.258l.252-.38a19.749,19.749,0,0,0,.5-3.351,4.407,4.407,0,0,1,.616-2.221c.685-1.249.586-2.882.887-3.7s1.065-1.722,1.353-2.653a9.41,9.41,0,0,0-.44-4.021c-.312-1.062.825-4.983.337-6.221-.273-.691-.236-3.358-.283-5.848a15.593,15.593,0,0,0-.462-4.519c-.758-1.56-1.176-3.235-3.153-2.355a10.574,10.574,0,0,0-4.624,4.578,11.919,11.919,0,0,0-.81,3.53,12.662,12.662,0,0,0,.362,4.891c.893,2.8-.392,4.269-.9,5.6s-1.275,3.126-.427,4.442,2.046,1.424,2.283,2.255c0,0,.093.762.289,2.295s.887,3.279.923,3.862a21.207,21.207,0,0,0,.422,4.384,8.643,8.643,0,0,1-.446,4.51,15.19,15.19,0,0,0-.33,3.03c-.14.48-.475.521-.77,1.263l-.011.027a4.118,4.118,0,0,0-.2.816,3.676,3.676,0,0,0,.062,1.958" transform="translate(-99.102 -4.76)" fill="#ffefb6"/>
            <path id="Trazado_1005553" data-name="Trazado 1005553" d="M144.886,67.4a5.313,5.313,0,0,1,.363-.612,8.072,8.072,0,0,0,.744-1.136,4.8,4.8,0,0,0,.308-1.386,45.978,45.978,0,0,1,1.121-5.8l.662.04a1.218,1.218,0,0,1,.221-.98,3.078,3.078,0,0,1-1.449-1.39,6.067,6.067,0,0,1-.357-2.065.788.788,0,0,1,0-.364.957.957,0,0,1,.191-.286,2.428,2.428,0,0,0,.38-1.267,2.3,2.3,0,0,0-.419-1.9c-.271-.266-.656-.393-.927-.659a2.017,2.017,0,0,1-.286-2.049c.244-.363.445-.185.7.036a1.466,1.466,0,0,0,1.015.5c.179,0,.355-.036.534-.032a1.235,1.235,0,0,1,1.032.608,7.928,7.928,0,0,0-.851-2.158,5.548,5.548,0,0,0-.7-.984,19.478,19.478,0,0,1-2.4-2.364,2.438,2.438,0,0,1-.382-1.261,10.487,10.487,0,0,0,.01-1.532,3.962,3.962,0,0,1,.289-1.677,6.449,6.449,0,0,0,.189-2.26c-.06-.714-.311-1.421-.3-2.136a13.617,13.617,0,0,0-.883-4.266,12.664,12.664,0,0,0,.362,4.891c.893,2.8-.392,4.269-.9,5.6s-1.275,3.126-.427,4.442,2.046,1.424,2.283,2.255c0,0,.093.762.289,2.295s.887,3.279.923,3.862a21.208,21.208,0,0,0,.422,4.384,8.648,8.648,0,0,1-.446,4.509,15.2,15.2,0,0,0-.33,3.03c-.14.48-.475.521-.77,1.262l-.011.027a4.119,4.119,0,0,0-.2.816" transform="translate(-105.124 -7.581)" fill="#fae59b"/>
            <path id="Trazado_1005554" data-name="Trazado 1005554" d="M137.313,67.907a4.881,4.881,0,0,1-.127,1.157,10.153,10.153,0,0,0,1.771-1.265,8.259,8.259,0,0,0-.174-1.822,1.777,1.777,0,0,0-.083-.263c-.283-.7-.6-.931-.434-1.537a8.135,8.135,0,0,0,.711-3.16,36.169,36.169,0,0,1,.034-4.258l.252-.38a19.74,19.74,0,0,0,.5-3.351,4.417,4.417,0,0,1,.616-2.221c.685-1.248.586-2.881.886-3.7s1.065-1.723,1.353-2.654a9.406,9.406,0,0,0-.44-4.02c-.311-1.063.825-4.983.338-6.221-.273-.691-.236-3.357-.284-5.848a43.861,43.861,0,0,0-.26,4.613,13.7,13.7,0,0,1-.182,2.842c-.013.058-.025.116-.04.171-.215.873-.94,1.6-.989,2.506-.049.942.63,1.748.953,2.635a5.974,5.974,0,0,1,.044,3.214,3.23,3.23,0,0,1-.509,1.328,3,3,0,0,1-1.743,1.04,5.329,5.329,0,0,1-2.426-.84c.063.472.126.942.192,1.413a1.021,1.021,0,0,0,.152.488c.262.35.805.229,1.224.35a1.446,1.446,0,0,1,.913,1.351,5.638,5.638,0,0,1-.312,1.7,11.3,11.3,0,0,0-.3,1.57,1,1,0,0,1-.117.433c-.213.329-.718.279-1.039.506a2.285,2.285,0,0,1,1.1,1.936.894.894,0,0,1-.509.905,1.057,1.057,0,0,1-.506-.017c-.264-.051-.525-.1-.789-.155a.443.443,0,0,0-.256,0,.353.353,0,0,0-.15.16,1.216,1.216,0,0,0,.132,1.136,9.927,9.927,0,0,1,.625,1.014,3.885,3.885,0,0,1,.182,1.168,10.824,10.824,0,0,1,.16,1.571,7.789,7.789,0,0,1-.229,1.4c-.12.537-.241,1.072-.361,1.608a4.377,4.377,0,0,1-.876,2.078,1.443,1.443,0,0,1,.987,1.406" transform="translate(-94.62 -7.164)" fill="#fae59b"/>
            <path id="Trazado_1005555" data-name="Trazado 1005555" d="M141.511,81.644c.26.235.964-.84.964-.84l-.124,1.011s-.061.241.939.249,2.733-1.56,2.733-1.56a8.289,8.289,0,0,0-.173-1.822,3.368,3.368,0,0,1-1.336.708,3.408,3.408,0,0,1-1.96-.081,2.148,2.148,0,0,1-.886-.452l-.008-.013-.011.027a4.82,4.82,0,0,0-.138,2.774" transform="translate(-101.688 -19.868)" fill="#33373b"/>
            <path id="Trazado_1005556" data-name="Trazado 1005556" d="M103.567,50.559a1.5,1.5,0,0,0,.2.717.187.187,0,0,0,.186.063c.351-.079.817-.663.817-.663l-.077,1.05.777-.037a5.609,5.609,0,0,0,1.652-.518c.694-.315,1.322-.712,1.382-1,.1-.486-.255-1.123-.334-1.585v0a.861.861,0,0,1-.016-.164,4.872,4.872,0,0,1,.623-1.984c.466-1.013,0-1.167,0-2.1s.573-6.254.573-6.254a2.306,2.306,0,0,1,.453-1.338,18.441,18.441,0,0,0,1.246-2.49c.544-1.05-.466-2.334-.466-2.334a5.884,5.884,0,0,1-.117-1.594,15.914,15.914,0,0,1,.924-4.784c.653-1.6,1.6-7.352,1.984-8.518s.863-3-.129-4.163a3,3,0,0,0-.674-.591,6.686,6.686,0,0,0-3.622-.693,4.2,4.2,0,0,0-2.45.389c-1.246.623-1.48.894-1.79,3.734-.023.218-.044.425-.063.626a17.162,17.162,0,0,0,.14,5.286c.313,1.79-.777,4.084-.583,6.224a22.935,22.935,0,0,0,1.479,5.524,4.207,4.207,0,0,0,1.283,1.751c.388.427.178,5.413-.405,7.133s-1.283,2.444-1.323,3.246a25.675,25.675,0,0,1-.848,3.442v0c-.007.021-.009.031-.009.031Z" transform="translate(-41.25 -2.913)" fill="#ffefb6"/>
            <path id="Trazado_1005557" data-name="Trazado 1005557" d="M110.053,52.177a1.5,1.5,0,0,0,.2.717c.261-.6.492-1.216.7-1.84a4.078,4.078,0,0,1,.555-1.251,1.232,1.232,0,0,1,1.2-.518c.2.046.373.158.57.21a.483.483,0,0,0,.543-.155c.17-.287-.173-.6-.466-.76-.253-.135-.5-.271-.752-.407-.189-.1-.4-.235-.42-.448a.687.687,0,0,1,.091-.341c1.279-2.716.748-5.837,1.3-8.79a2.143,2.143,0,0,1,.244-.772.708.708,0,0,1,.684-.353c.292.056.534.357.821.283.387-.1-.086-1.388-.2-1.561-.268-.409-.724-.731-1.032-1.132a12.483,12.483,0,0,1-1.769-3.235,10.155,10.155,0,0,1-.714-3.808c.056-.994.473-1.944.537-2.946a15.478,15.478,0,0,0-.413-2.966c-.168-1.218-.17-2.408-.266-3.631-.019-.222-.093-.5-.312-.53a.052.052,0,0,0-.019,0,17.162,17.162,0,0,0,.14,5.286c.313,1.79-.777,4.084-.583,6.224a22.935,22.935,0,0,0,1.479,5.524,4.207,4.207,0,0,0,1.283,1.751c.388.427.178,5.413-.405,7.132s-1.283,2.444-1.323,3.246a25.678,25.678,0,0,1-.848,3.442v0c-.007.021-.009.031-.009.031Z" transform="translate(-47.736 -4.531)" fill="#fae59b"/>
            <path id="Trazado_1005558" data-name="Trazado 1005558" d="M103.568,47.232a.38.38,0,0,0,.21.266,3.77,3.77,0,0,0,1.148.266,1.477,1.477,0,0,1,.257.079.817.817,0,0,1,.585.635,1.193,1.193,0,0,1-.081.448q-.193.6-.385,1.194a4.733,4.733,0,0,0-.376,1.165,1.126,1.126,0,0,0,.01.133c.693-.315,1.321-.712,1.381-1,.1-.486-.254-1.123-.334-1.585v0a.859.859,0,0,1-.016-.164,4.874,4.874,0,0,1,.623-1.983c.467-1.014,0-1.168,0-2.1s.573-6.254.573-6.254a2.313,2.313,0,0,1,.453-1.339,18.356,18.356,0,0,0,1.246-2.49c.544-1.05-.466-2.334-.466-2.334a5.88,5.88,0,0,1-.117-1.594,15.914,15.914,0,0,1,.924-4.785c.654-1.6,1.6-7.352,1.984-8.518s.863-3-.129-4.163a3.02,3.02,0,0,0-.674-.591q.178.381.366.756a3.261,3.261,0,0,1,.362.931,3.015,3.015,0,0,1-.154,1.267c-.387,1.41-1.2,2.987-1.192,4.451a17.54,17.54,0,0,1-.586,3.941c-.318,1.424-1.088,2.654-1.393,4.08a12.509,12.509,0,0,0,.077,5c.063.336.38.709.247,1.048-.163.4-1.017.693-1.4.8a1.26,1.26,0,0,1-.255.042,1.755,1.755,0,0,0-.562.105.354.354,0,0,0-.22.4.488.488,0,0,0,.133.179c.28.268.558.54.836.808l.042.042a.469.469,0,0,1,.138.212.578.578,0,0,1-.058.348,14.1,14.1,0,0,0-.52,2.649,15.57,15.57,0,0,0-.467,3.968,6.475,6.475,0,0,1,.119,2.14.715.715,0,0,1-.135.278.929.929,0,0,1-.451.219,5.312,5.312,0,0,0-1.377.626,1.376,1.376,0,0,0-.121.077c-.122.084-.255.2-.243.345" transform="translate(-39.061 -3.161)" fill="#fae59b"/>
            <path id="Trazado_1005559" data-name="Trazado 1005559" d="M110.672,63.075s.04.857.389.78.817-.663.817-.663l-.077,1.05.777-.037c.777-.04,2.917-.973,3.034-1.517.1-.485-.255-1.123-.334-1.585a2.856,2.856,0,0,1-1.391.851,2.352,2.352,0,0,1-2.02-.235,2.784,2.784,0,0,1-.369-.268c-.007.021-.009.03-.009.03Z" transform="translate(-48.356 -15.429)" fill="#33373b"/>
            <path id="Trazado_1005560" data-name="Trazado 1005560" d="M159.028,21.352c.438.437,1.179.575,1.488.146s.584-.67,1.02-.292a9.5,9.5,0,0,0,2.452,1.517,1.968,1.968,0,0,1,1.079.788A1.1,1.1,0,0,1,164.746,25c-.845.73-1.341,1.167-1.954.788s-.7-.846-1.079-1.079-1.079.642-1.662.35-.73-1.458-.73-1.458a4.861,4.861,0,0,1-.758-1.138c-.147-.437.466-1.109.466-1.109" transform="translate(-133.735 -5.307)" fill="#ffefb6"/>
            <path id="Trazado_1005561" data-name="Trazado 1005561" d="M161.289,22.465c.66.535,1.552,1.339,2.437,1.291a.774.774,0,0,1,.285.016.46.46,0,0,1,.268.271.936.936,0,0,1-.257,1.032,5.343,5.343,0,0,1-.8.663c-.556.458-1.022.528-1.481-.137a1.355,1.355,0,0,0-.62-.595c-.54-.175-1.062.406-1.628.367a.124.124,0,0,1-.06-.015c-.433-.27-.528-1.34-.472-1.78a.959.959,0,0,1,.3.181.383.383,0,0,0,.33.087.424.424,0,0,0,.2-.2,2.166,2.166,0,0,0,.314-.659c.039-.212-.052-.386.1-.588.241-.323.829-.134,1.08.07" transform="translate(-133.156 -5.611)" fill="#fae59b"/>
            <g id="Grupo_1190428" data-name="Grupo 1190428" transform="translate(44.086 67.067)" style="mix-blend-mode: multiply;isolation: isolate">
              <g id="Grupo_1190427" data-name="Grupo 1190427" transform="translate(0)">
                <g id="Grupo_1190426" data-name="Grupo 1190426" transform="translate(0)" clip-path="url(#clip-path-5)">
                  <path id="Trazado_1005562" data-name="Trazado 1005562" d="M83.78,114.826l-1.3-.747c-4.569-2.639-3.992-7.29,1.286-10.337l19.913-11.5c5.277-3.046,13.334-3.38,17.9-.742l1.295.747c4.57,2.639,3.992,7.29-1.285,10.336l-19.914,11.5c-5.276,3.047-13.333,3.381-17.9.742" transform="translate(-79.401 -89.723)" fill="#c1c8e0"/>
                </g>
              </g>
            </g>
            <path id="Trazado_1005563" data-name="Trazado 1005563" d="M80.1,63.63a2.193,2.193,0,0,0,.645,1.809,2.607,2.607,0,0,0,1.772,1.01,1.6,1.6,0,0,0,1.7-1.233,2,2,0,0,0-.01-1.093,1.873,1.873,0,0,0-.642-.892,2.279,2.279,0,0,0-.974-.44.765.765,0,0,0-.694.231.9.9,0,0,0-.221.629,1.6,1.6,0,0,0,.434,1.014,2.607,2.607,0,0,0,.829.618,2.51,2.51,0,0,0,1,.192,1.5,1.5,0,0,0,1.008-.355,1.2,1.2,0,0,0,.352-1.006,1.732,1.732,0,0,0-.369-.9c-.017.631.08,1.265-.282,1.577a1.651,1.651,0,0,1-2.394-1.136c.019-.223.1-.283.229-.256a1.9,1.9,0,0,1,.685.338,1.183,1.183,0,0,1,.42,1.314,1,1,0,0,1-1.039.774,2.012,2.012,0,0,1-1.355-.768,9.908,9.908,0,0,0-1.1-1.425" transform="translate(4.842 -15.853)" fill="#ff919e"/>
            <path id="Trazado_1005564" data-name="Trazado 1005564" d="M98.138,96.439c.257.172.943,0,.943,0s-.257.3.3.514,2.011-.365,2.011-.365.118-.074.288-.187a7.025,7.025,0,0,0,1.082-.841,3.5,3.5,0,0,0,.815-1.67,13.361,13.361,0,0,0-.514-2.2,15.3,15.3,0,0,1,.663-1.8,12.812,12.812,0,0,0,.365-3.618s-2.183.105-2.42,1.22-1.112,5.525-1.177,5.673A6.571,6.571,0,0,1,99.4,94.3a1.334,1.334,0,0,0-.123.108,11.409,11.409,0,0,0-.925,1.218s-.473.643-.216.815" transform="translate(-27.39 -21.784)" fill="#f75466"/>
            <path id="Trazado_1005565" data-name="Trazado 1005565" d="M101.362,99.16c.257.172.943,0,.943,0s-.257.3.3.514,2.011-.365,2.011-.365.118-.074.288-.187a2.073,2.073,0,0,0-.149-.8.786.786,0,0,0-.7-.491c-.133.005-.259.059-.393.067a.306.306,0,0,1-.329-.172c-.087-.272.121-.481-.233-.637a.859.859,0,0,0-.6.043,11.409,11.409,0,0,0-.925,1.218s-.473.643-.216.815" transform="translate(-30.614 -24.505)" fill="#33373b"/>
            <path id="Trazado_1005566" data-name="Trazado 1005566" d="M86,82.273c1.155,2.207,3.743,3.523,6.44,4.3a61.228,61.228,0,0,1,6.931,2.446c.206.013.574.045,1.058.078a13.316,13.316,0,0,0,6.95-1.181c.206-.117.419-.226.632-.336.548-.277,1.1-.517,1.633-.729a37.767,37.767,0,0,1,5.233-1.5,32.192,32.192,0,0,0,6.466-3.949,20.875,20.875,0,0,0,2.136-1.787c.032-.032.064-.058.09-.09a16.111,16.111,0,0,0,2.31-3.471,36.24,36.24,0,0,0,2.7-6.5,1.545,1.545,0,0,0,.032-.161,11.528,11.528,0,0,0-.032-4.768.6.6,0,0,0-.013-.1.177.177,0,0,0-.013-.046,6.419,6.419,0,0,0-2.174-3.027l-.019-.019a16.116,16.116,0,0,0-5.44-2.8c-4.672-1.155-9.64.087-15.6,2.061s-9.95,5.107-13.364,7.785a50.788,50.788,0,0,0-6.227,5.5c-.942.684-2.594,2.775.271,8.3" transform="translate(-41.935 -14.69)" fill="#ff8795"/>
            <path id="Trazado_1005567" data-name="Trazado 1005567" d="M123.636,109.564c.342.3,1.177-.129,1.177-.129s-.3.792.366.876,1.156-.193,2.269-.706c.09-.041.172-.084.249-.126.853-.48.779-.986.779-.986a4.441,4.441,0,0,0,.989-1.306c.218-.6-.6-2.657-.6-2.657s.3-.963.537-2.076-.237-3.019,0-4.052c0,0-.987-4.19-2.164-3.186s-1.112,7.6-1.112,7.6l-1.221,3.81-.393.63-.914,1.47s-.3.534.043.835" transform="translate(-71.793 -24.004)" fill="#ff5c6f"/>
            <path id="Trazado_1005568" data-name="Trazado 1005568" d="M126.05,113.684c.342.3,1.177-.129,1.177-.129s-.3.792.366.876,1.156-.193,2.269-.706c.09-.041.172-.084.249-.126a1.031,1.031,0,0,1-.129-.028c-.3-.09-.424-.424-.611-.668a1.3,1.3,0,0,0-.943-.5.7.7,0,0,1-.54-.275c-.085-.095-.167-.206-.283-.313a2.269,2.269,0,0,0-.684-.434l-.914,1.47s-.3.534.043.835" transform="translate(-74.207 -28.125)" fill="#33373b"/>
            <path id="Trazado_1005569" data-name="Trazado 1005569" d="M83.051,83.519c.09,1.032,1.858,3.291,1.884,3.775.019.517-.645,4.562-.645,4.562s-.161.458-.3.916a4.369,4.369,0,0,0-.194.794,4.992,4.992,0,0,0,.149,1.245.336.336,0,0,0,.039.058.425.425,0,0,0,.5.194c.188-.052.458-.4.678-.717.167-.258.309-.5.342-.555l-.251.929s-.413.607.013.787a.791.791,0,0,0,.309.052,1.663,1.663,0,0,0,.975-.433,3.849,3.849,0,0,0,.374-.336,5.041,5.041,0,0,0,.535-.632s.052-.194.123-.471c.11-.446.271-1.123.348-1.6a22.726,22.726,0,0,0,0-2.484,25.267,25.267,0,0,1,.691-2.885,32.025,32.025,0,0,1,0-3.581,15.415,15.415,0,0,1,1.71-4.072c.535-1.085.961-4.769,1.142-6.918.064-.748.1-1.316.1-1.517a23.485,23.485,0,0,0-1.3-4,.229.229,0,0,0-.013-.046s-.123.039-.323.123a3.924,3.924,0,0,0-1.362,1.013c-.729.859-1.458,3.556-2.31,5.007A16.043,16.043,0,0,0,84.91,76.6l-.006.007c-.252,1.013-.458,2.052-.613,2.935,0,0-.2.529-.446,1.213a20.164,20.164,0,0,0-.794,2.575.6.6,0,0,0,0,.187" transform="translate(-3.65 -16.814)" fill="#ff8795"/>
            <path id="Trazado_1005570" data-name="Trazado 1005570" d="M83.524,93.769a5.074,5.074,0,0,0,.536-.632s.052-.194.123-.471c.109-.446.271-1.123.348-1.6a22.929,22.929,0,0,0,0-2.485,25.292,25.292,0,0,1,.69-2.884,32.019,32.019,0,0,1,0-3.581,15.455,15.455,0,0,1,1.71-4.072c.535-1.084.961-4.768,1.142-6.917.064-.748.1-1.316.1-1.517a8.29,8.29,0,0,0-3.491-7.072,8.83,8.83,0,0,1,1.852,3.149,12.438,12.438,0,0,1,.812,4.878c-.084,1.039-.226,2.11-.355,3.22-.465,4.129-1.8,3.768-2.354,5.9s.175,4.492,0,5.479c-1.245,2.439.271,3.975-.729,5.226s-1.142,1.858-.387,3.375" transform="translate(-0.25 -15.792)" fill="#ff5c6f"/>
            <path id="Trazado_1005571" data-name="Trazado 1005571" d="M109.9,92.553a9.689,9.689,0,0,0-.012,1.73.854.854,0,0,0,.012.129,3.364,3.364,0,0,0,.162.684c.1.342.251.659.419,1.123,0,0,2.33,3.962,2.523,4.478a33.979,33.979,0,0,1,.317,3.853s-.581.9-.916,1.561a3.152,3.152,0,0,0-.219.517,5.193,5.193,0,0,1-.174.528c-.155.426-.368.929-.517,1.265-.052.129-.1.239-.123.3-.129.323-.362,1.458.3,1.375a2,2,0,0,0,1.111-.839c-.039.084-.685,1.284-.213,1.368a.346.346,0,0,0,.084.013.811.811,0,0,0,.212-.013,4.155,4.155,0,0,0,1.846-.813,3.132,3.132,0,0,0,.878-1.523c.032-.1.045-.168.045-.168a3.042,3.042,0,0,0,.916-1.2,10.074,10.074,0,0,0-.471-2.652,24.331,24.331,0,0,1,.6-4.356c.181-.975,2.523-3.259,2.652-4.846a19.135,19.135,0,0,0-.232-3.033,31.648,31.648,0,0,1-.413-5.484,10.021,10.021,0,0,0-.174-2.465,18.786,18.786,0,0,0-1.574-5.207c-.49-.588-3.085.7-3.085.7a20.4,20.4,0,0,0-2.716,4.362c-.161.33-.317.678-.478,1.046a10.748,10.748,0,0,0-.788,2.7c-.283,1.929.136,3.316.025,4.871" transform="translate(-51.396 -19.88)" fill="#ff8795"/>
            <path id="Trazado_1005572" data-name="Trazado 1005572" d="M90.186,110.339a4.156,4.156,0,0,0,1.846-.813A3.126,3.126,0,0,0,92.909,108c.032-.1.045-.168.045-.168a3.042,3.042,0,0,0,.916-1.2,10.075,10.075,0,0,0-.471-2.652,24.331,24.331,0,0,1,.6-4.356c.181-.975,2.523-3.259,2.652-4.846a19.121,19.121,0,0,0-.232-3.033,37.8,37.8,0,0,1,5.233-1.5,32.227,32.227,0,0,0,6.466-3.949c.09,1.032,1.858,3.291,1.884,3.775.019.516-.645,4.562-.645,4.562s-.161.458-.3.916a4.37,4.37,0,0,0-.194.794,4.992,4.992,0,0,0,.149,1.245.349.349,0,0,0,.039.058.425.425,0,0,0,.5.194c.188-.052.52-1.579.739-1.9a3.238,3.238,0,0,1-.117-3.6c.348-.368,1.4-1.979.38-3.1-.7-.768-.415-2.945-.3-4.732a10.617,10.617,0,0,1,.5-2.595c.929-2.864.407-4.329.407-4.329a6.744,6.744,0,0,1-1.181,1.794l-.006.006c-3.756,3.407-1,3.415-3.142,5.137s-8.642,4.6-11-.724c-1.884,1.716-3.388,4.452-1.936,6.827a9.109,9.109,0,0,1,.89,1.852,6.847,6.847,0,0,1-.685,5.363c-1.251,1.626-1.576.44-1.393,5.13.185,4.741.277,3.264-1.1,5.161a6.743,6.743,0,0,0-1.425,2.207" transform="translate(-28.717 -19.591)" fill="#ff5c6f"/>
            <path id="Trazado_1005573" data-name="Trazado 1005573" d="M122.141,96.677a5.361,5.361,0,0,0,.645,1.839c.271.452,1.168,1.575,1.755,1.7.181.038.355.07.5.1.29.045.484.058.484.058a3.2,3.2,0,0,1,1.194-.432c.858-.167,5.226-1.535,5.226-1.535a9.928,9.928,0,0,1,3.169,0,15.3,15.3,0,0,0,4.7-.4,1.937,1.937,0,0,0,2.11.168c1.375-.555,4.329-2.252,4.846-3.407.026-.052.045-.1.071-.161a8.3,8.3,0,0,0,.271-.794,10.817,10.817,0,0,0,.348-3.375c-.013-.413-.046-.858-.1-1.322a4.123,4.123,0,0,0-.709-1.923,7.063,7.063,0,0,0-.717-.884A15.433,15.433,0,0,1,143,82.758a10.852,10.852,0,0,0-7.066-5.22l-1.794-.613s-.272-.146-.272-.139c-1.02,1.233-4.67,1.843-6.161,4.017a21.061,21.061,0,0,0-2.872,6.917,24.936,24.936,0,0,1-.555,4.149c-.239,1.142-2.323,2.574-2.665,2.8.019,0,0,.071-.2.419-.342.6.723,1.588.723,1.588" transform="translate(-88.186 -19.39)" fill="#ff8795"/>
            <path id="Trazado_1005574" data-name="Trazado 1005574" d="M117.111,101.854c.29.045.484.058.484.058a3.2,3.2,0,0,1,1.194-.432c.859-.167,5.227-1.535,5.227-1.535a9.924,9.924,0,0,1,3.168,0,15.268,15.268,0,0,0,4.7-.4,1.937,1.937,0,0,0,2.11.168c1.375-.555,4.33-2.252,4.846-3.407.026-.052.046-.1.071-.161.1.342.252.659.419,1.123,0,0,2.33,3.962,2.524,4.478a34.129,34.129,0,0,1,.316,3.853s-.581.9-.916,1.561a3.238,3.238,0,0,0-.22.517,4.834,4.834,0,0,1-.174.528c-.155.426-.368.929-.516,1.265.5-.342.557-.281.581-.554.241-2.669,2.213-2.52,1.681-3.737-.377-.86-.688-4.987-.217-5.936s.594-.329-.884-3.027a5.015,5.015,0,0,1-.381-.878c-.709-2.194.652-3.7-.464-5.988-.975-1.988-.632-2.478-.671-4.362a16.315,16.315,0,0,0-.167-2.11,5.838,5.838,0,0,0-1.813,4.969c.039,1.064.194,2.219.309,3.484a4.61,4.61,0,0,1-1.155,3.7,10.7,10.7,0,0,1-3.956,2.426,8.487,8.487,0,0,1-7.42-.3c-1.975-1.091-4.678.968-7.782,3.188,0,0-.362.574-.9,1.5" transform="translate(-80.251 -20.927)" fill="#ff5c6f"/>
            <path id="Trazado_1005575" data-name="Trazado 1005575" d="M115.244,119.7a1.978,1.978,0,0,0,1.112-.835c-.041.084-.683,1.285-.213,1.369a3.6,3.6,0,0,0,2.14-.815,3.123,3.123,0,0,0,.879-1.523,1.271,1.271,0,0,1-1.015.025,1.49,1.49,0,0,1-.6-.555.415.415,0,0,0-.136-.149.326.326,0,0,0-.221-.013,4.395,4.395,0,0,1-.737.175.965.965,0,0,1-.84-.542.319.319,0,0,1-.031-.077c-.214.583-.543,1.331-.638,1.567-.129.321-.363,1.457.3,1.372" transform="translate(-54.97 -29.484)" fill="#33373b"/>
            <path id="Trazado_1005576" data-name="Trazado 1005576" d="M130.7,87.963a2.808,2.808,0,0,1,.786-1.353l1.636-.5a10.74,10.74,0,0,1,2.485,1.59c.813.815,1.088.759,1.094,1.6a2.535,2.535,0,0,1-.7,1.911,1.767,1.767,0,0,1-1.807.676,4.689,4.689,0,0,1-1.224-.34,1.021,1.021,0,0,1-1.152-.509c-.38-.72-1.234-.967-1.257-1.656a6.71,6.71,0,0,1,.133-1.411" transform="translate(-84.295 -21.743)" fill="#ff8795"/>
            <path id="Trazado_1005577" data-name="Trazado 1005577" d="M131.837,88.554c-.12.087-.209.24-.348.253a.2.2,0,0,1-.194-.13,1.034,1.034,0,0,1,0-.624,1.913,1.913,0,0,1,.822-1.346,1.371,1.371,0,0,1,1.5.142,8.2,8.2,0,0,1,.884,1.064,7.819,7.819,0,0,0,1.556,1.144,1.531,1.531,0,0,1,.688.749,2.37,2.37,0,0,1-.567,1.745,1.249,1.249,0,0,1-.348.4.841.841,0,0,1-.64.1,2.147,2.147,0,0,1-.531-.239,5.1,5.1,0,0,0-1.822-.555c-.088-.071-.052-.221.044-.321a.949.949,0,0,1,.364-.209,4.809,4.809,0,0,1,.753-.217.543.543,0,0,0,.283-.113.353.353,0,0,0,.09-.247,3.257,3.257,0,0,0-.425-1.872,2.992,2.992,0,0,0-.321.623,2.3,2.3,0,0,1-.2.691c-.132.224-.887.959-1.159.765-.236-.168.156-.884.221-1.12.081-.295-.1-1.079-.652-.683" transform="translate(-84.891 -21.854)" fill="#ff5c6f"/>
            <path id="Trazado_1005578" data-name="Trazado 1005578" d="M146.087,77.458a3.839,3.839,0,0,1,1.756-.126s2.677.621,3.554.985,2.059,1.422,2.655,1.434.985.043.985.043a8.119,8.119,0,0,1-1.221,1.435c-.762.707-.853,2.579-1.028,2.376a12.218,12.218,0,0,1-1.221-1.884,14.884,14.884,0,0,0-3.169-2.847c-.771-.493-2.334-.643-2.484-.9s.171-.517.171-.517" transform="translate(-114.078 -19.515)" fill="#ff8795"/>
            <path id="Trazado_1005579" data-name="Trazado 1005579" d="M150.986,100.623c.685.129,1.712,1.365,2.2,2.077a17.139,17.139,0,0,1,1.49,2,1.054,1.054,0,0,1-.29,1.451c-.481.38-.806.369-1.59.089a3.953,3.953,0,0,1-1.943-1.607c-.435-.7-.8-1.476-1.094-1.949a1.65,1.65,0,0,1,0-1.745c.367-.611,1.224-.321,1.224-.321" transform="translate(-116.6 -25.391)" fill="#ff5c6f"/>
            <path id="Trazado_1005580" data-name="Trazado 1005580" d="M151.785,104.736a3.011,3.011,0,0,0,1.124,1.06s-.161.562-.466.321-1.092-1.06-.931-1.3.273-.08.273-.08" transform="translate(-116.147 -26.434)" fill="#33373b"/>
            <path id="Trazado_1005581" data-name="Trazado 1005581" d="M154.282,102.9a2.19,2.19,0,0,1,.739,1.51c-.064.209-.233.256-.366-.064a6.243,6.243,0,0,1-.164-.984,4.759,4.759,0,0,1-.209-.461" transform="translate(-120.351 -25.984)" fill="#33373b"/>
            <path id="Trazado_1005582" data-name="Trazado 1005582" d="M139.009,94.762a1.66,1.66,0,0,1,.5-.366,1.271,1.271,0,0,1,.564-.206,1.5,1.5,0,0,1,.847.4,4.35,4.35,0,0,0,1.6.7,9.718,9.718,0,0,1-1.257.149.977.977,0,0,1-.411-.041c-.108-.044-.2-.125-.306-.173-.286-.131-2.363.555-1.529-.462" transform="translate(-96.272 -23.784)" fill="#ff5c6f"/>
            <path id="Trazado_1005583" data-name="Trazado 1005583" d="M140.692,95.018c.311-.214.354-.771,1.147-.557a1.549,1.549,0,0,1,1.027.943,1.3,1.3,0,0,1-1.049.278,3.642,3.642,0,0,1-1.125-.664" transform="translate(-98.031 -23.841)" fill="#33373b"/>
            <path id="Trazado_1005584" data-name="Trazado 1005584" d="M88.542,103.6a.463.463,0,0,0,.534.257c.365-.108,1.028-1.285,1.028-1.285l-.257.943s-.578.835.321.835,1.886-1.4,1.886-1.4.049-.193.121-.473a2.072,2.072,0,0,0-.252-.521,1.125,1.125,0,0,0-1.126-.52,4.081,4.081,0,0,0-.82.46.391.391,0,0,1-.29.057c-.111-.036-.175-.144-.252-.229a.738.738,0,0,0-.827-.175c-.008.005-.019.008-.026.013a4.717,4.717,0,0,0-.19.794,5,5,0,0,0,.149,1.241" transform="translate(-8.244 -25.61)" fill="#33373b"/>
            <g id="Grupo_1190431" data-name="Grupo 1190431" transform="translate(90.799 68.718)" style="mix-blend-mode: multiply;isolation: isolate">
              <g id="Grupo_1190430" data-name="Grupo 1190430" transform="translate(0)">
                <g id="Grupo_1190429" data-name="Grupo 1190429" clip-path="url(#clip-path-5)">
                  <path id="Trazado_1005585" data-name="Trazado 1005585" d="M21.287,117.036l-1.3-.747C15.422,113.65,16,109,21.277,105.951l19.913-11.5c5.277-3.046,13.334-3.38,17.9-.742l1.295.747c4.57,2.639,3.992,7.29-1.285,10.336l-19.914,11.5c-5.276,3.047-13.333,3.381-17.9.742" transform="translate(-16.909 -91.932)" fill="#c1c8e0"/>
                </g>
              </g>
            </g>
            <path id="Trazado_1005586" data-name="Trazado 1005586" d="M66.3,112.322a1.652,1.652,0,1,0,1.652-1.652,1.652,1.652,0,0,0-1.652,1.652" transform="translate(30.842 -27.946)" fill="#ebcc7a"/>
            <path id="Trazado_1005587" data-name="Trazado 1005587" d="M66.158,109.587a1.652,1.652,0,1,0,1.652-1.652,1.652,1.652,0,0,0-1.652,1.652" transform="translate(31.087 -27.255)" fill="#ebcc7a"/>
            <path id="Trazado_1005588" data-name="Trazado 1005588" d="M68.384,109.587a1.652,1.652,0,0,0,1.652,1.652c.912,0,.2-.827.2-1.739s.708-1.565-.2-1.565a1.652,1.652,0,0,0-1.652,1.652" transform="translate(28.383 -27.255)" fill="#f5da93"/>
            <path id="Trazado_1005589" data-name="Trazado 1005589" d="M67.56,111.681a1.652,1.652,0,1,0,1.652-1.652,1.652,1.652,0,0,0-1.652,1.652" transform="translate(28.637 -27.784)" fill="#f5da93"/>
            <path id="Trazado_1005590" data-name="Trazado 1005590" d="M66.8,106.794a1.652,1.652,0,1,0,1.652-1.652,1.652,1.652,0,0,0-1.652,1.652" transform="translate(29.968 -26.55)" fill="#f5da93"/>
            <path id="Trazado_1005591" data-name="Trazado 1005591" d="M67.492,103.185a1.652,1.652,0,1,0,1.652-1.652,1.652,1.652,0,0,0-1.652,1.652" transform="translate(28.756 -25.639)" fill="#f5da93"/>
            <path id="Trazado_1005592" data-name="Trazado 1005592" d="M65.939,106.794a1.652,1.652,0,1,0,1.652-1.652,1.652,1.652,0,0,0-1.652,1.652" transform="translate(31.469 -26.55)" fill="#ebcc7a"/>
            <path id="Trazado_1005593" data-name="Trazado 1005593" d="M65.283,103.654A1.652,1.652,0,1,0,66.935,102a1.652,1.652,0,0,0-1.652,1.652" transform="translate(32.616 -25.757)" fill="#ebcc7a"/>
            <path id="Trazado_1005594" data-name="Trazado 1005594" d="M72.369,98.989c-.75,1.413-.984,4.925-.984,4.925s.256,1.542.277,2.184a6,6,0,0,1-.771,2.012l.024.1.169.733-.043.964a5.351,5.351,0,0,1-.6.706,2.79,2.79,0,0,1-1.254.425c-.3.049-.525.069-.525.069s-.17-.47-.213-.622-1.135-.149-1.135-.149.108-1.092.193-1.67a2.816,2.816,0,0,1,.141-.481c.3-.8.955-2.122,1.23-2.688a15.5,15.5,0,0,0-.257-6.017c-.449-.792-1.477-1.241-2.734-2.379s-.843-1.86-1.357-3.638l1.21-1.087,2.225-1.994,2.923-2.623.866,1.772,1.66,3.4s-.3,4.645-1.049,6.058" transform="translate(28.346 -22.161)" fill="#f5da93"/>
            <path id="Trazado_1005595" data-name="Trazado 1005595" d="M71.313,99.588c-.75,1.413-.984,4.925-.984,4.925s.256,1.542.277,2.184a6,6,0,0,1-.771,2.012l.024.1.169.733-.043.964a5.35,5.35,0,0,1-.6.706,2.79,2.79,0,0,1-1.254.425,3.2,3.2,0,0,1,.567-1.49,2.419,2.419,0,0,0,.026-1.48.547.547,0,0,1,.007-.334.485.485,0,0,1,.2-.2c.383-.244.861-.383,1.11-.761a1.572,1.572,0,0,0-.049-1.477,4.686,4.686,0,0,1-.552-1.434,3.591,3.591,0,0,1,.22-1.285A10.438,10.438,0,0,0,70,101.27c-.4.09-.763-.254-1.035-.565q-.744-.851-1.487-1.706a22.224,22.224,0,0,1-2.066-2.618,4.038,4.038,0,0,1-.743-3.35.532.532,0,0,1,.021-.054,3.784,3.784,0,0,1,2.225-1.994c.144-.061.29-.118.434-.17a11.952,11.952,0,0,1,3.111-.665c.082-.007.162-.013.244-.016l1.66,3.4s-.3,4.645-1.049,6.058" transform="translate(29.401 -22.76)" fill="#ebcc7a"/>
            <path id="Trazado_1005596" data-name="Trazado 1005596" d="M71.425,115.847l-.044.964a5.306,5.306,0,0,1-.6.706A4.375,4.375,0,0,1,69,118.01s-.17-.47-.213-.621-1.136-.149-1.136-.149.108-1.092.193-1.67a2.888,2.888,0,0,1,.141-.481.607.607,0,0,0,.2.09c.236.052.488-.067.722-.007a1.486,1.486,0,0,1,.437.254,1.5,1.5,0,0,0,1.906-.311Z" transform="translate(28.004 -29.062)" fill="#33373b"/>
            <path id="Trazado_1005597" data-name="Trazado 1005597" d="M39.468,87.611l-.994,3.114.051.209.3,1.238-.386,1.542a6.866,6.866,0,0,1-1.711.784.961.961,0,0,1-.262.017.436.436,0,0,1-.434-.578s-1.156.034-1.221-.095a15.2,15.2,0,0,1,.257-1.9,9,9,0,0,1,.524-.768,2.274,2.274,0,0,1,.44-.452c.386-.257.866-2.6.866-2.6s-.01-.29-.034-.712c-.031-.591-.085-1.438-.159-2.115-.059-.521-.188-1.534-.316-2.659-.162-1.372-.321-2.917-.357-3.957l1.7-3.373s.293.724.653,1.673a28.051,28.051,0,0,1,1.274,3.98,57.325,57.325,0,0,1-.193,6.65" transform="translate(84.263 -19.017)" fill="#ebcc7a"/>
            <path id="Trazado_1005598" data-name="Trazado 1005598" d="M35.221,93.584a1.652,1.652,0,1,0,1.652-1.652,1.652,1.652,0,0,0-1.652,1.652" transform="translate(85.149 -23.214)" fill="#ebcc7a"/>
            <path id="Trazado_1005599" data-name="Trazado 1005599" d="M34.658,90.914a1.652,1.652,0,1,0,1.652-1.652,1.652,1.652,0,0,0-1.652,1.652" transform="translate(86.133 -22.54)" fill="#ebcc7a"/>
            <path id="Trazado_1005600" data-name="Trazado 1005600" d="M34.266,88.169a1.652,1.652,0,1,0,1.652-1.652,1.652,1.652,0,0,0-1.652,1.652" transform="translate(86.818 -21.847)" fill="#ebcc7a"/>
            <path id="Trazado_1005601" data-name="Trazado 1005601" d="M34.592,86.873a1.652,1.652,0,1,0,1.652-1.652,1.652,1.652,0,0,0-1.652,1.652" transform="translate(86.248 -21.52)" fill="#ebcc7a"/>
            <path id="Trazado_1005602" data-name="Trazado 1005602" d="M36.8,88.7a1.652,1.652,0,1,0,1.653-1.652A1.653,1.653,0,0,0,36.8,88.7" transform="translate(82.387 -21.982)" fill="#ebcc7a"/>
            <path id="Trazado_1005603" data-name="Trazado 1005603" d="M39.3,90.07a1.652,1.652,0,1,0,1.653-1.652A1.653,1.653,0,0,0,39.3,90.07" transform="translate(78.018 -22.327)" fill="#f5da93"/>
            <path id="Trazado_1005604" data-name="Trazado 1005604" d="M38.092,88.176,37.1,91.29l.051.209.3,1.238-.386,1.542a6.867,6.867,0,0,1-1.711.784c.254-1,.914-1.925.9-2.963,0-.342-.082-.681-.059-1.02.075-1.152,1.269-2.084,1.1-3.225-.608.024-1.289.365-1.806.123-.031-.591-.085-1.438-.159-2.115-.059-.521-.188-1.534-.316-2.659a11.9,11.9,0,0,0-.141-2c-.2-1.2-.007-2.649,1.162-3.243a6.112,6.112,0,0,1,.976-.419,28.052,28.052,0,0,1,1.274,3.98,57.325,57.325,0,0,1-.193,6.65" transform="translate(85.639 -19.582)" fill="#ebcc7a"/>
            <path id="Trazado_1005605" data-name="Trazado 1005605" d="M37.092,88.7a1.652,1.652,0,1,0,1.652-1.652A1.652,1.652,0,0,0,37.092,88.7" transform="translate(81.879 -21.982)" fill="#f5da93"/>
            <path id="Trazado_1005606" data-name="Trazado 1005606" d="M34.8,87.07a1.652,1.652,0,1,0,1.652-1.652A1.652,1.652,0,0,0,34.8,87.07" transform="translate(85.877 -21.569)" fill="#f5da93"/>
            <path id="Trazado_1005607" data-name="Trazado 1005607" d="M41.9,91.489a1.652,1.652,0,1,0,1.653-1.652A1.653,1.653,0,0,0,41.9,91.489" transform="translate(73.482 -22.685)" fill="#f5da93"/>
            <path id="Trazado_1005608" data-name="Trazado 1005608" d="M44.107,92.663a1.652,1.652,0,1,0,1.652-1.652,1.652,1.652,0,0,0-1.652,1.652" transform="translate(69.621 -22.982)" fill="#f5da93"/>
            <path id="Trazado_1005609" data-name="Trazado 1005609" d="M46.763,93.584a1.652,1.652,0,1,0,1.652-1.652,1.652,1.652,0,0,0-1.652,1.652" transform="translate(64.979 -23.214)" fill="#f5da93"/>
            <path id="Trazado_1005610" data-name="Trazado 1005610" d="M48.973,96.3a1.652,1.652,0,1,0,1.652-1.652A1.652,1.652,0,0,0,48.973,96.3" transform="translate(61.117 -23.901)" fill="#f5da93"/>
            <path id="Trazado_1005611" data-name="Trazado 1005611" d="M49.535,98.932a1.652,1.652,0,1,0,1.652-1.652,1.652,1.652,0,0,0-1.652,1.652" transform="translate(60.135 -24.565)" fill="#f5da93"/>
            <path id="Trazado_1005612" data-name="Trazado 1005612" d="M50.317,101.241a1.652,1.652,0,1,0,1.652-1.652,1.652,1.652,0,0,0-1.652,1.652" transform="translate(58.769 -25.148)" fill="#f5da93"/>
            <path id="Trazado_1005613" data-name="Trazado 1005613" d="M51.182,103.451a1.652,1.652,0,1,0,1.653-1.652,1.653,1.653,0,0,0-1.653,1.652" transform="translate(57.256 -25.706)" fill="#f5da93"/>
            <path id="Trazado_1005614" data-name="Trazado 1005614" d="M52.01,106.169a1.652,1.652,0,1,0,1.652-1.652,1.652,1.652,0,0,0-1.652,1.652" transform="translate(55.81 -26.392)" fill="#f5da93"/>
            <path id="Trazado_1005615" data-name="Trazado 1005615" d="M52.526,109.356a1.652,1.652,0,1,0,1.652-1.652,1.652,1.652,0,0,0-1.652,1.652" transform="translate(54.908 -27.197)" fill="#f5da93"/>
            <path id="Trazado_1005616" data-name="Trazado 1005616" d="M53.156,112.044a1.652,1.652,0,1,0,1.652-1.652,1.652,1.652,0,0,0-1.652,1.652" transform="translate(53.808 -27.876)" fill="#f5da93"/>
            <path id="Trazado_1005617" data-name="Trazado 1005617" d="M53.955,114.531a1.652,1.652,0,1,0,1.652-1.652,1.652,1.652,0,0,0-1.652,1.652" transform="translate(52.411 -28.504)" fill="#f5da93"/>
            <path id="Trazado_1005618" data-name="Trazado 1005618" d="M54.427,111.566a1.652,1.652,0,1,0,1.652-1.652,1.652,1.652,0,0,0-1.652,1.652" transform="translate(51.587 -27.755)" fill="#f5da93"/>
            <path id="Trazado_1005619" data-name="Trazado 1005619" d="M55.114,108.691a1.652,1.652,0,1,0,1.652-1.652,1.652,1.652,0,0,0-1.652,1.652" transform="translate(50.386 -27.029)" fill="#f5da93"/>
            <path id="Trazado_1005620" data-name="Trazado 1005620" d="M56.32,105.66a1.652,1.652,0,1,0,1.652-1.652,1.652,1.652,0,0,0-1.652,1.652" transform="translate(48.279 -26.264)" fill="#f5da93"/>
            <path id="Trazado_1005621" data-name="Trazado 1005621" d="M57.9,104.129a1.652,1.652,0,1,0,1.652-1.651,1.652,1.652,0,0,0-1.652,1.651" transform="translate(45.516 -25.877)" fill="#f5da93"/>
            <path id="Trazado_1005622" data-name="Trazado 1005622" d="M59.83,101.75a1.652,1.652,0,1,0,1.652-1.652,1.652,1.652,0,0,0-1.652,1.652" transform="translate(42.145 -25.276)" fill="#f5da93"/>
            <path id="Trazado_1005623" data-name="Trazado 1005623" d="M63.158,101.553A1.652,1.652,0,1,0,64.81,99.9a1.652,1.652,0,0,0-1.652,1.652" transform="translate(36.329 -25.226)" fill="#f5da93"/>
            <path id="Trazado_1005624" data-name="Trazado 1005624" d="M65.908,101.046a1.652,1.652,0,1,0,1.652-1.652,1.652,1.652,0,0,0-1.652,1.652" transform="translate(31.524 -25.098)" fill="#f5da93"/>
            <path id="Trazado_1005625" data-name="Trazado 1005625" d="M68.845,100.067A1.652,1.652,0,1,0,70.5,98.415a1.652,1.652,0,0,0-1.652,1.652" transform="translate(26.391 -24.851)" fill="#f5da93"/>
            <path id="Trazado_1005626" data-name="Trazado 1005626" d="M71.439,98.512a1.652,1.652,0,1,0,1.652-1.652,1.652,1.652,0,0,0-1.652,1.652" transform="translate(21.858 -24.459)" fill="#f5da93"/>
            <path id="Trazado_1005627" data-name="Trazado 1005627" d="M73.264,96.067a1.652,1.652,0,1,0,1.653-1.652,1.653,1.653,0,0,0-1.653,1.652" transform="translate(18.668 -23.841)" fill="#f5da93"/>
            <path id="Trazado_1005628" data-name="Trazado 1005628" d="M75.007,93.858a1.652,1.652,0,1,0,1.652-1.652,1.652,1.652,0,0,0-1.652,1.652" transform="translate(15.623 -23.283)" fill="#f5da93"/>
            <path id="Trazado_1005629" data-name="Trazado 1005629" d="M76.632,91.076a1.652,1.652,0,1,0,1.652-1.652,1.652,1.652,0,0,0-1.652,1.652" transform="translate(12.784 -22.581)" fill="#f5da93"/>
            <path id="Trazado_1005630" data-name="Trazado 1005630" d="M77.382,87.92a1.652,1.652,0,1,0,1.652-1.652,1.652,1.652,0,0,0-1.652,1.652" transform="translate(11.473 -21.784)" fill="#f5da93"/>
            <path id="Trazado_1005631" data-name="Trazado 1005631" d="M78.2,85.206a1.652,1.652,0,1,0,1.652-1.652A1.652,1.652,0,0,0,78.2,85.206" transform="translate(10.042 -21.099)" fill="#f5da93"/>
            <path id="Trazado_1005632" data-name="Trazado 1005632" d="M78.625,82.641a1.652,1.652,0,1,0,1.652-1.652,1.652,1.652,0,0,0-1.652,1.652" transform="translate(9.301 -20.451)" fill="#f5da93"/>
            <path id="Trazado_1005633" data-name="Trazado 1005633" d="M79.2,80.191a1.652,1.652,0,1,0,1.652-1.652A1.651,1.651,0,0,0,79.2,80.191" transform="translate(8.294 -19.832)" fill="#f5da93"/>
            <path id="Trazado_1005634" data-name="Trazado 1005634" d="M79.592,77.444a1.652,1.652,0,1,0,1.652-1.652,1.652,1.652,0,0,0-1.652,1.652" transform="translate(7.611 -19.139)" fill="#f5da93"/>
            <path id="Trazado_1005635" data-name="Trazado 1005635" d="M54.111,116.741a1.652,1.652,0,1,0,1.652-1.652,1.652,1.652,0,0,0-1.652,1.652" transform="translate(52.139 -29.062)" fill="#f5da93"/>
            <path id="Trazado_1005636" data-name="Trazado 1005636" d="M53.955,118.438a1.652,1.652,0,1,0,1.652-1.652,1.652,1.652,0,0,0-1.652,1.652" transform="translate(52.411 -29.49)" fill="#f5da93"/>
            <path id="Trazado_1005637" data-name="Trazado 1005637" d="M40.025,97.452l-.386,1.541a5.213,5.213,0,0,1-1.973.8.436.436,0,0,1-.434-.579s-1.156.034-1.221-.095a15.059,15.059,0,0,1,.257-1.9,8.917,8.917,0,0,1,.524-.768,1.16,1.16,0,0,1,.763.12c.1.072.177.172.277.247a1.077,1.077,0,0,0,1.177-.105c.223-.141.463-.357.715-.506Z" transform="translate(83.064 -24.295)" fill="#33373b"/>
            <path id="Trazado_1005638" data-name="Trazado 1005638" d="M67.76,65.83a25.268,25.268,0,0,1-.8,3.965l-7.965,6.68c-.578.706-6.552,6.3-9.571,6.809s-5.075.771-5.075.771-3.918,3.983-6.1,4.946-6.3.129-7.9-.771a5.922,5.922,0,0,1-.527-.339,17.224,17.224,0,0,1-5.447-7.819c-.344-.963-.645-1.978-.9-2.991a47.069,47.069,0,0,1-1.344-8.314c-.043-1.13,2.47-5.316,4.7-8.024a7.1,7.1,0,0,1,2.69-2.382c1.927-.385-2.133-2.5-.783-2.242s5.257.694,6.606.887,3.6-.771,6.038-2.441,3.854-3.79,8.736-5.01,5.268-.9,7.322-.193,7.281,1.934,9.53,7.587a18.519,18.519,0,0,1,.8,8.882" transform="translate(65.512 -12.306)" fill="#fff0c5"/>
            <path id="Trazado_1005639" data-name="Trazado 1005639" d="M77.581,88.054c.812,1.331,1.893,2.521,2.606,3.893a17.218,17.218,0,0,1-5.448-7.819c-.344-.964-.645-1.978-.9-2.99a46.983,46.983,0,0,1-1.343-8.315c-.044-1.13,2.469-5.316,4.7-8.024a13.6,13.6,0,0,1,1.778.368,2.358,2.358,0,0,1,1.7,2.292,3.8,3.8,0,0,1-.594,2.269,10.357,10.357,0,0,0-1.239,1.881,2.638,2.638,0,0,1-.25.566,2.114,2.114,0,0,1-.493.462A9.217,9.217,0,0,1,74.8,74.469a2.09,2.09,0,0,0-.8.28c-.449.339-.383,1.079-.3,1.564.121.671.221,1.334.326,2.017a34.572,34.572,0,0,0,1.131,4.6,12.616,12.616,0,0,0,1.064,3.006c.17.275.419.478.6.742.29.429.486.933.758,1.378" transform="translate(15.14 -16.362)" fill="#f5da93"/>
            <path id="Trazado_1005640" data-name="Trazado 1005640" d="M66.677,70.784a25.268,25.268,0,0,1-.8,3.965l-7.965,6.68c-.578.706-6.552,6.3-9.571,6.809s-5.075.771-5.075.771-3.918,3.983-6.1,4.946-6.3.129-7.9-.771-4.432-3.854-5.974-8.158c-.344-.964-.645-1.978-.9-2.991a46.622,46.622,0,0,0,2.858,5.219,8.161,8.161,0,0,0,5.108,3.613A9.2,9.2,0,0,0,34.4,90.4a5.148,5.148,0,0,0,3.61-2.711c.663-1.665.727-3.407,1.866-4.895a3.99,3.99,0,0,1,4.494-1.55c1.405.6,2.089,2.159,2.991,3.394a2.37,2.37,0,0,0,.758.733,2.186,2.186,0,0,0,.94.206,5.8,5.8,0,0,0,3.2-.817,10.179,10.179,0,0,0,2.893-2.957,7.881,7.881,0,0,0,1.614-3.39c.105-.768,0-1.556.134-2.322.3-1.768,1.721-3.014,2.9-4.242.892-.93,1.419-2.171,2.372-3.048,1.267-1.164,2.014.182,3.055,1.043a8.229,8.229,0,0,0,1.444.935" transform="translate(66.595 -17.26)" fill="#f5da93"/>
            <path id="Trazado_1005641" data-name="Trazado 1005641" d="M83.1,64.514a7.278,7.278,0,0,0-3.148,1.156c-.077.067-.149.126-.215.18-.84.678-.845.449-1.262,1.1-.45.706-2.056,2.795-3.6,3.34a15.271,15.271,0,0,1-3.243.511,9.337,9.337,0,0,1-3.275,1.8,1.312,1.312,0,0,1-1.6-1.01c-.007-.031-.01-.049-.01-.049a3.368,3.368,0,0,1-.74-.964c-.256-.547.129-1.575.129-1.96a1.316,1.316,0,0,1,.706-1.123c.484-.257,2.207-4.25,2.248-4.338.622-1.325-.465-1.772-.416-2.569a6.763,6.763,0,0,1,3.564-5.075c2.86-1.606,3.6-1.285,4.946-1.028s3.309,1.67,4.753,3.79,1.67,2.377,1.832,3.6a4.956,4.956,0,0,1-.676,2.633" transform="translate(16.932 -13.707)" fill="#fff0c5"/>
            <path id="Trazado_1005642" data-name="Trazado 1005642" d="M76.043,54.985a1.652,1.652,0,1,0,1.652-1.652,1.652,1.652,0,0,0-1.652,1.652" transform="translate(13.813 -13.467)" fill="#fff0c5"/>
            <path id="Trazado_1005643" data-name="Trazado 1005643" d="M78.934,56.207a1.652,1.652,0,1,0,1.653-1.652,1.653,1.653,0,0,0-1.653,1.652" transform="translate(8.76 -13.776)" fill="#fff0c5"/>
            <path id="Trazado_1005644" data-name="Trazado 1005644" d="M80.77,57.9a1.652,1.652,0,1,0,1.652-1.652A1.652,1.652,0,0,0,80.77,57.9" transform="translate(5.553 -14.205)" fill="#fff0c5"/>
            <path id="Trazado_1005645" data-name="Trazado 1005645" d="M83.157,60.114a1.652,1.652,0,1,0,1.652-1.652,1.652,1.652,0,0,0-1.652,1.652" transform="translate(1.381 -14.763)" fill="#fff0c5"/>
            <path id="Trazado_1005646" data-name="Trazado 1005646" d="M82.98,61.029a1.652,1.652,0,1,0,1.652-1.652,1.652,1.652,0,0,0-1.652,1.652" transform="translate(1.691 -14.994)" fill="#fff0c5"/>
            <path id="Trazado_1005647" data-name="Trazado 1005647" d="M77.6,64.149a2.494,2.494,0,0,0-.446.2,22.944,22.944,0,0,0-3.56,2.33.917.917,0,0,0,1.134.4c.424-.123.79-.4,1.215-.52a5.042,5.042,0,0,1,2.426.309.455.455,0,0,0,.232.01.481.481,0,0,0,.253-.286,3.135,3.135,0,0,0,.38-1.233,1.218,1.218,0,0,0-1.635-1.2" transform="translate(15.748 -16.183)" fill="#f5da93"/>
            <path id="Trazado_1005648" data-name="Trazado 1005648" d="M83.483,65.7a4.191,4.191,0,0,1-1.857-.139c-.4-.2-.547-.685-.872-1a5.584,5.584,0,0,1,.237,2.926c-.84.678-.845.449-1.262,1.1-.45.706-2.056,2.8-3.6,3.34a15.3,15.3,0,0,1-3.243.512,9.345,9.345,0,0,1-3.276,1.8,1.312,1.312,0,0,1-1.6-1.01c.614-.149,1.557-.038,1.92-.115.881-.183,1.194-1.2,2-1.434a3.076,3.076,0,0,1,.372-.084,13.646,13.646,0,0,0,2.767-.326,3.667,3.667,0,0,0,.979-.614,3.538,3.538,0,0,0,.517-.5,5.008,5.008,0,0,0,.4-.6q.5-.857,1-1.707a1.492,1.492,0,0,1,.326-.429,4.255,4.255,0,0,1,.73-.342,1.579,1.579,0,0,0,.719-1.5,3.961,3.961,0,0,0-.4-1.308,3.567,3.567,0,0,1-.2-1.074,3.02,3.02,0,0,1,.449-2.161.7.7,0,0,1,.247-.218c.339-.162.717.159.879.5a5.263,5.263,0,0,0,1.153,2.071c.214.18.52.265.656.514.149.27.09.611.211.894.154.363.563.558.747.9" transform="translate(15.674 -15.346)" fill="#f5da93"/>
            <path id="Trazado_1005649" data-name="Trazado 1005649" d="M69.588,61.947c-.286-.5-.462-.688-1.055-.708a1.071,1.071,0,0,0-1,.494,1.865,1.865,0,0,0-.278.685s.085.685.6.857.578-.257,1.006.086S71,64.9,72.072,64.837c-.086-.428-.107-.535-.107-.535a19.778,19.778,0,0,1-2.377-2.355" transform="translate(27.657 -15.463)" fill="#fff5db"/>
            <path id="Trazado_1005650" data-name="Trazado 1005650" d="M77.237,65.452c-.214.45-.642.369-1.092.452s-.878.069-1.156.376.9.585,1.456.542a.922.922,0,0,0,.875-.542c.259-.657-.083-.828-.083-.828" transform="translate(16.561 -16.528)" fill="#33373b"/>
            <path id="Trazado_1005651" data-name="Trazado 1005651" d="M88.206,73.681a2.913,2.913,0,0,0-1.884.278,1.672,1.672,0,0,1-.535.386l-.149-.942s.114-.885,0-.792a5.488,5.488,0,0,0-.474.706s.152.942.174,1.263.064.514.3.642.342.043.771-.107.085-.557.449-.493a2.09,2.09,0,0,0,1.156.022c.493-.15,1.049-.916.193-.964" transform="translate(-2.308 -18.334)" fill="#33373b"/>
            <path id="Trazado_1005652" data-name="Trazado 1005652" d="M86.887,75.912a.206.206,0,0,0-.093.012c-.078.034-.162.149-.229.2a4.943,4.943,0,0,1-.576.412,3.7,3.7,0,0,1-1.429.546c-.964.129-1.413.043-1.584-.129a.625.625,0,0,0-.407-.17s.278.791.385,1A1.8,1.8,0,0,0,84.5,78.2a8.608,8.608,0,0,0,2.521-1.428c.172-.131.446-.269.36-.53a.442.442,0,0,0-.231-.248.789.789,0,0,0-.259-.081" transform="translate(0.887 -19.169)" fill="#f5da93"/>
            <path id="Trazado_1005653" data-name="Trazado 1005653" d="M86.536,58.4a2.593,2.593,0,0,0-1.52-.15,2.633,2.633,0,0,0-1.855.943c-.392.557-.157.664-.157.664a2.631,2.631,0,0,1,1.5-.193c.62.193.535.638,1.413.811s.621-2.074.621-2.074" transform="translate(1.438 -14.697)" fill="#fff5db"/>
            <path id="Trazado_1005654" data-name="Trazado 1005654" d="M69.72,63.843a1.892,1.892,0,0,0-1.577-.33c-.037,0-.082.012-.092.048a.083.083,0,0,0,.009.055,1.051,1.051,0,0,0,.774.529,5.788,5.788,0,0,1,.951.206,5.705,5.705,0,0,1,.89.593c.284.187.943.541,1.276.361-.76-.454-1.49-.973-2.23-1.463" transform="translate(27.184 -16.032)" fill="#33373b"/>
            <path id="Trazado_1005655" data-name="Trazado 1005655" d="M85.456,60.447c.25.068,1.073.56,1.272.191.157-.291-.456-.75-.662-.86a1.3,1.3,0,0,0-.243-.117.814.814,0,0,0-.276-.019c-.178.011-1.432.095-1.43.422a.071.071,0,0,0,.016.038.736.736,0,0,0,.553.251,4.9,4.9,0,0,1,.769.095" transform="translate(0.369 -15.059)" fill="#33373b"/>
            <path id="Trazado_1005656" data-name="Trazado 1005656" d="M51.124,81.129c1.354,1.863,1.253,4.374,1.1,6.672.839-2.873,1.675-5.97.7-8.8a7.3,7.3,0,0,1-.789-2.961c-.055.57-1.232,1.514-1.7,1.764-.574.309-1.767.206-2.2.73-.542.659.237.61.859.921a5.532,5.532,0,0,1,2.029,1.672" transform="translate(60.723 -19.202)" fill="#f5da93"/>
            <path id="Trazado_1005657" data-name="Trazado 1005657" d="M59.662,91.843a42.42,42.42,0,0,1-2.654,8.05s-.6,4.81-.815,5.624a17.022,17.022,0,0,0,.064,3.361,7.581,7.581,0,0,1-.835,1.842l.016.167.134,1.567s-.386.386-.813.856a.644.644,0,0,1-.138.116,3.346,3.346,0,0,1-1.511.377l-.663-.75-.665.172v-.04c0-.159.022-.743.022-1.308a2.488,2.488,0,0,1,.36-1.085,4.671,4.671,0,0,1,.3-.48s1.5-2.141,1.369-3.124a25.95,25.95,0,0,1-.128-3.127,22.9,22.9,0,0,0-1.242-4.167,17.788,17.788,0,0,1-2.41-3.263c-.606-1.141-.193-2.958.111-4.651a11.987,11.987,0,0,0,.244-2.063c0-2.056-1.2-10.356.815-12.07a4.134,4.134,0,0,1,6.424,1.786,56.074,56.074,0,0,1,1.772,6.3,22.2,22.2,0,0,1,.239,5.914" transform="translate(53.044 -19.433)" fill="#fff0c5"/>
            <path id="Trazado_1005658" data-name="Trazado 1005658" d="M61.114,110.921c-.164.871.283,1.852-.164,2.618-.2.349-.563.583-.783.92a6.942,6.942,0,0,0-.493,1.749,4.722,4.722,0,0,1-.478.951c-.218.368-.437.735-.658,1.1.005-.159.023-.742.023-1.307a2.494,2.494,0,0,1,.36-1.085,4.71,4.71,0,0,1,.3-.481s1.5-2.14,1.369-3.124a25.8,25.8,0,0,1-.129-3.127,22.912,22.912,0,0,0-1.241-4.167,17.819,17.819,0,0,1-2.41-3.263c-.606-1.141-.193-2.958.111-4.651.056.144.113.286.174.421a9.519,9.519,0,0,1,.922,2.59,10.673,10.673,0,0,0,.182,1.367,12.818,12.818,0,0,0,1.444,2.477c.54.974,1.031,3.273,1.475,4.3a2.938,2.938,0,0,1,.345,1.48c-.046.426-.272.814-.352,1.236" transform="translate(46.289 -24.508)" fill="#f5da93"/>
            <path id="Trazado_1005659" data-name="Trazado 1005659" d="M54.787,94.874a42.421,42.421,0,0,1-2.654,8.05s-.6,4.81-.815,5.624a17.022,17.022,0,0,0,.064,3.361,7.581,7.581,0,0,1-.835,1.842l.016.167.134,1.567s-.386.386-.813.856a.643.643,0,0,1-.138.116c0-.054,0-.108,0-.162a11.361,11.361,0,0,1,.47-3.4c.105-.3.237-.6.342-.912a10.28,10.28,0,0,0,.416-3.82,19.677,19.677,0,0,1,.3-3.795,4.559,4.559,0,0,0,.357-1.236c-.043-.368-.318-.712-.347-1.128a9.288,9.288,0,0,1,.052-1.812.579.579,0,0,1,.129-.349.656.656,0,0,1,.3-.129,1.927,1.927,0,0,0,1.274-.815,10.291,10.291,0,0,0,.555-2.289c.331-1.5.6-3.019.786-4.545.064-.522.12-2.582.161-3.106a22.2,22.2,0,0,1,.239,5.914" transform="translate(57.919 -22.464)" fill="#f5da93"/>
            <path id="Trazado_1005660" data-name="Trazado 1005660" d="M59.156,123.885s-.386.386-.811.856-1.65.493-1.65.493l-.662-.75-.666.172s.024-.686.024-1.348a2.486,2.486,0,0,1,.359-1.085.19.19,0,0,0,.045.028c.3.141.7-.049.952.161.073.062.119.15.2.2.628.419,1.473-.233,2.08-.3Z" transform="translate(49.459 -30.863)" fill="#33373b"/>
            <path id="Trazado_1005661" data-name="Trazado 1005661" d="M21.541,61.029a1.652,1.652,0,1,0,1.652-1.652,1.652,1.652,0,0,0-1.652,1.652" transform="translate(109.054 -14.994)" fill="#f5da93"/>
            <path id="Trazado_1005662" data-name="Trazado 1005662" d="M21.135,54.4a1.652,1.652,0,1,0,1.652-1.652A1.652,1.652,0,0,0,21.135,54.4" transform="translate(109.764 -13.32)" fill="#f5da93"/>
            <path id="Trazado_1005663" data-name="Trazado 1005663" d="M21.26,51.68a1.652,1.652,0,1,0,1.652-1.652A1.652,1.652,0,0,0,21.26,51.68" transform="translate(109.545 -12.633)" fill="#f5da93"/>
            <path id="Trazado_1005664" data-name="Trazado 1005664" d="M23.469,49.835a1.652,1.652,0,1,0,1.653-1.652,1.653,1.653,0,0,0-1.653,1.652" transform="translate(105.684 -12.167)" fill="#f5da93"/>
            <path id="Trazado_1005665" data-name="Trazado 1005665" d="M25.889,51.024a1.652,1.652,0,1,0,1.652-1.652,1.652,1.652,0,0,0-1.652,1.652" transform="translate(101.456 -12.467)" fill="#f5da93"/>
            <path id="Trazado_1005666" data-name="Trazado 1005666" d="M24.308,53.452A1.652,1.652,0,1,0,25.96,51.8a1.652,1.652,0,0,0-1.652,1.652" transform="translate(104.219 -13.08)" fill="#f5da93"/>
            <path id="Trazado_1005667" data-name="Trazado 1005667" d="M20.652,68.091A1.652,1.652,0,1,0,22.3,66.439a1.652,1.652,0,0,0-1.652,1.652" transform="translate(110.608 -16.777)" fill="#f5da93"/>
            <path id="Trazado_1005668" data-name="Trazado 1005668" d="M20.5,70.579a1.652,1.652,0,1,0,1.652-1.652A1.652,1.652,0,0,0,20.5,70.579" transform="translate(110.882 -17.405)" fill="#f5da93"/>
            <path id="Trazado_1005669" data-name="Trazado 1005669" d="M20.28,73.61a1.652,1.652,0,1,0,1.652-1.652A1.652,1.652,0,0,0,20.28,73.61" transform="translate(111.258 -18.17)" fill="#f5da93"/>
            <path id="Trazado_1005670" data-name="Trazado 1005670" d="M20.652,76.766A1.652,1.652,0,1,0,22.3,75.114a1.652,1.652,0,0,0-1.652,1.652" transform="translate(110.608 -18.967)" fill="#f5da93"/>
            <path id="Trazado_1005671" data-name="Trazado 1005671" d="M20.98,79.485a1.652,1.652,0,1,0,1.652-1.652,1.652,1.652,0,0,0-1.652,1.652" transform="translate(110.035 -19.654)" fill="#f5da93"/>
            <path id="Trazado_1005672" data-name="Trazado 1005672" d="M21.48,82.454A1.652,1.652,0,1,0,23.132,80.8a1.652,1.652,0,0,0-1.652,1.652" transform="translate(109.161 -20.404)" fill="#f5da93"/>
            <path id="Trazado_1005673" data-name="Trazado 1005673" d="M21.98,84.86a1.652,1.652,0,1,0,1.652-1.652A1.652,1.652,0,0,0,21.98,84.86" transform="translate(108.287 -21.011)" fill="#f5da93"/>
            <path id="Trazado_1005674" data-name="Trazado 1005674" d="M22.378,87.86a1.652,1.652,0,1,0,1.652-1.652,1.652,1.652,0,0,0-1.652,1.652" transform="translate(107.592 -21.769)" fill="#f5da93"/>
            <path id="Trazado_1005675" data-name="Trazado 1005675" d="M22.378,90.454A1.652,1.652,0,1,0,24.03,88.8a1.652,1.652,0,0,0-1.652,1.652" transform="translate(107.592 -22.424)" fill="#f5da93"/>
            <path id="Trazado_1005676" data-name="Trazado 1005676" d="M22.378,93.584a1.652,1.652,0,1,0,1.652-1.652,1.652,1.652,0,0,0-1.652,1.652" transform="translate(107.592 -23.214)" fill="#f5da93"/>
            <path id="Trazado_1005677" data-name="Trazado 1005677" d="M22.378,96.5a1.652,1.652,0,1,0,1.652-1.652A1.652,1.652,0,0,0,22.378,96.5" transform="translate(107.592 -23.95)" fill="#f5da93"/>
            <path id="Trazado_1005678" data-name="Trazado 1005678" d="M22.861,93.965a1.652,1.652,0,1,0,1.652-1.652,1.652,1.652,0,0,0-1.652,1.652" transform="translate(106.748 -23.31)" fill="#f5da93"/>
            <path id="Trazado_1005679" data-name="Trazado 1005679" d="M24.19,90.914a1.652,1.652,0,1,0,1.652-1.652,1.652,1.652,0,0,0-1.652,1.652" transform="translate(104.425 -22.54)" fill="#f5da93"/>
            <path id="Trazado_1005680" data-name="Trazado 1005680" d="M26.1,88.7a1.652,1.652,0,1,0,1.652-1.652A1.652,1.652,0,0,0,26.1,88.7" transform="translate(101.095 -21.982)" fill="#f5da93"/>
            <path id="Trazado_1005681" data-name="Trazado 1005681" d="M28.592,87.6a1.652,1.652,0,1,0,1.652-1.652A1.652,1.652,0,0,0,28.592,87.6" transform="translate(96.733 -21.703)" fill="#f5da93"/>
            <path id="Trazado_1005682" data-name="Trazado 1005682" d="M30.8,85.39a1.652,1.652,0,1,0,1.653-1.652A1.653,1.653,0,0,0,30.8,85.39" transform="translate(92.871 -21.145)" fill="#f5da93"/>
            <path id="Trazado_1005683" data-name="Trazado 1005683" d="M22.378,98.932A1.652,1.652,0,1,0,24.03,97.28a1.652,1.652,0,0,0-1.652,1.652" transform="translate(107.592 -24.565)" fill="#f5da93"/>
            <path id="Trazado_1005684" data-name="Trazado 1005684" d="M22.566,100.65A1.652,1.652,0,1,0,24.219,99a1.652,1.652,0,0,0-1.653,1.652" transform="translate(107.263 -24.998)" fill="#f5da93"/>
            <path id="Trazado_1005685" data-name="Trazado 1005685" d="M20.98,64.683a1.652,1.652,0,1,0,1.652-1.652,1.652,1.652,0,0,0-1.652,1.652" transform="translate(110.035 -15.916)" fill="#f5da93"/>
            <path id="Trazado_1005686" data-name="Trazado 1005686" d="M29.747,92.363a7,7,0,0,0,.386,1.573,3.744,3.744,0,0,1-.8.964,1.3,1.3,0,0,1-.311.17,6.735,6.735,0,0,1-1.348.318c-.27.041-.46.059-.46.059l-.385-.869-.8.291a5.735,5.735,0,0,1,.033-1.671,3.922,3.922,0,0,1,.658-1.189c.247-.332.466-.579.466-.579a29.3,29.3,0,0,0,.507-3.969c0-1.349-.663-5.013-1.344-5.332s-4.623-2.792-5.072-3.627a2.539,2.539,0,0,1-.026-1.562,15.123,15.123,0,0,0,.411-2.806c0-1.8-1.159-7.193.19-8.863s-.01-4.172,1.4-7.127,4.767-.39,5.73.573l.966,1.125.609.707A50.824,50.824,0,0,1,31.545,69c.034,2.377-1.572,10.487-1.637,11.644s.386,7.837.386,8.929a12.469,12.469,0,0,1-.529,2.675c-.007.046-.016.087-.018.12" transform="translate(102.656 -14.334)" fill="#fff0c5"/>
            <path id="Trazado_1005687" data-name="Trazado 1005687" d="M32.582,95.89a4.677,4.677,0,0,1-.336,2.158,4.408,4.408,0,0,0-.293.589,2.112,2.112,0,0,0-.07.65,15.58,15.58,0,0,1-.105,2.917c-.27.041-.46.059-.46.059l-.386-.869-.8.29a5.713,5.713,0,0,1,.034-1.67,3.925,3.925,0,0,1,.658-1.19c.247-.331.465-.578.465-.578a29.28,29.28,0,0,0,.508-3.969c0-1.349-.664-5.013-1.344-5.332s-4.623-2.792-5.073-3.627a2.534,2.534,0,0,1-.025-1.562,5.617,5.617,0,0,0,2.294,1.366c.663.262,1.351,2.663,2.074,2.679A10.1,10.1,0,0,0,31.49,87.5a5.79,5.79,0,0,1,.488,2.811c.067.8.291,1.57.422,2.358a19.843,19.843,0,0,1,.182,3.225" transform="translate(98.549 -21.15)" fill="#f5da93"/>
            <path id="Trazado_1005688" data-name="Trazado 1005688" d="M21.917,93.4a7,7,0,0,0,.386,1.573,3.744,3.744,0,0,1-.8.963,1.3,1.3,0,0,1-.311.17,15.25,15.25,0,0,1-.007-2.246,9.347,9.347,0,0,1,.73-2.633,8.848,8.848,0,0,0-.01-4.119c-.288-1.8-.161-3.6-.349-5.406-.059-.6-.309-1.151-.375-1.732a15.729,15.729,0,0,1-.039-1.66,1.871,1.871,0,0,1,.052-.537,2.09,2.09,0,0,1,.406-.653c1.108-1.419,1.848-5.315,1.542-7.109q-.42-2.49-.843-4.98a24.078,24.078,0,0,1-.182-4.152l.609.707a50.824,50.824,0,0,1,.994,8.445c.034,2.377-1.572,10.487-1.637,11.644s.386,7.837.386,8.929a12.469,12.469,0,0,1-.529,2.675c-.007.046-.016.087-.018.12" transform="translate(110.486 -15.374)" fill="#f5da93"/>
            <path id="Trazado_1005689" data-name="Trazado 1005689" d="M27.187,105.843a3.751,3.751,0,0,1-.8.964,6.14,6.14,0,0,1-2.12.547l-.386-.869-.8.291a5.718,5.718,0,0,1,.034-1.671,3.913,3.913,0,0,1,.658-1.189c.067,0,.134.005.2.01a3.184,3.184,0,0,1,1.455.537,1.016,1.016,0,0,0,.81.031,1.678,1.678,0,0,0,.419-.218c.059-.041.116-.084.173-.126-.008.046-.016.087-.019.12a7,7,0,0,0,.386,1.573" transform="translate(105.601 -26.24)" fill="#33373b"/>
            <path id="Trazado_1005690" data-name="Trazado 1005690" d="M29.3,61.523a6.323,6.323,0,0,1,4.625-1.674.942.942,0,0,1,.473.12.992.992,0,0,1,.287.911c-.131,2.466-1.074,4.863-.968,7.331.014.324.1.715.4.818a29.081,29.081,0,0,0,1.254-5.954,8.824,8.824,0,0,1,2.6-5.374c.17-.142.372-.336.3-.547a.493.493,0,0,0-.2-.226c-1.47-1.051-3.921-.759-5.427.066a6.679,6.679,0,0,0-3.352,4.53" transform="translate(89.805 -14.204)" fill="#f5da93"/>
            <path id="Trazado_1005691" data-name="Trazado 1005691" d="M30.2,51.024a1.652,1.652,0,1,0,1.653-1.652A1.653,1.653,0,0,0,30.2,51.024" transform="translate(93.928 -12.467)" fill="#fff0c5"/>
            <path id="Trazado_1005692" data-name="Trazado 1005692" d="M27.09,52.775a1.652,1.652,0,1,0,1.652-1.652,1.652,1.652,0,0,0-1.652,1.652" transform="translate(99.357 -12.909)" fill="#fff0c5"/>
            <path id="Trazado_1005693" data-name="Trazado 1005693" d="M24.588,54.985a1.652,1.652,0,1,0,1.652-1.652,1.652,1.652,0,0,0-1.652,1.652" transform="translate(103.73 -13.467)" fill="#fff0c5"/>
            <path id="Trazado_1005694" data-name="Trazado 1005694" d="M22.378,57.9A1.652,1.652,0,1,0,24.03,56.25,1.652,1.652,0,0,0,22.378,57.9" transform="translate(107.592 -14.204)" fill="#fff0c5"/>
            <path id="Trazado_1005695" data-name="Trazado 1005695" d="M33.638,49.47a1.652,1.652,0,1,0,1.652-1.652,1.652,1.652,0,0,0-1.652,1.652" transform="translate(87.915 -12.075)" fill="#fff0c5"/>
            <path id="Trazado_1005696" data-name="Trazado 1005696" d="M37.038,48.814a1.652,1.652,0,1,0,1.652-1.652,1.652,1.652,0,0,0-1.652,1.652" transform="translate(81.974 -11.909)" fill="#fff0c5"/>
            <path id="Trazado_1005697" data-name="Trazado 1005697" d="M40.493,49.033a1.652,1.652,0,1,0,1.652-1.652,1.652,1.652,0,0,0-1.652,1.652" transform="translate(75.936 -11.964)" fill="#fff0c5"/>
            <path id="Trazado_1005698" data-name="Trazado 1005698" d="M43.879,49.672a1.652,1.652,0,1,0,1.652-1.652,1.652,1.652,0,0,0-1.652,1.652" transform="translate(70.019 -12.126)" fill="#fff0c5"/>
            <path id="Trazado_1005699" data-name="Trazado 1005699" d="M47.348,51.024A1.652,1.652,0,1,0,49,49.372a1.652,1.652,0,0,0-1.652,1.652" transform="translate(63.957 -12.467)" fill="#fff0c5"/>
            <path id="Trazado_1005700" data-name="Trazado 1005700" d="M50.129,52.775a1.652,1.652,0,1,0,1.652-1.652,1.652,1.652,0,0,0-1.652,1.652" transform="translate(59.097 -12.909)" fill="#fff0c5"/>
            <path id="Trazado_1005701" data-name="Trazado 1005701" d="M52.94,54.626a1.652,1.652,0,1,0,1.652-1.652,1.652,1.652,0,0,0-1.652,1.652" transform="translate(54.185 -13.377)" fill="#fff0c5"/>
            <path id="Trazado_1005702" data-name="Trazado 1005702" d="M56.1,56.61a1.652,1.652,0,1,0,1.652-1.652A1.652,1.652,0,0,0,56.1,56.61" transform="translate(48.666 -13.878)" fill="#fff0c5"/>
            <path id="Trazado_1005703" data-name="Trazado 1005703" d="M59.161,58.416a1.652,1.652,0,1,0,1.652-1.652,1.652,1.652,0,0,0-1.652,1.652" transform="translate(43.314 -14.334)" fill="#fff0c5"/>
            <path id="Trazado_1005704" data-name="Trazado 1005704" d="M62.835,59.635a1.652,1.652,0,1,0,1.652-1.652,1.652,1.652,0,0,0-1.652,1.652" transform="translate(36.894 -14.642)" fill="#fff0c5"/>
            <path id="Trazado_1005705" data-name="Trazado 1005705" d="M65.922,59.635a1.652,1.652,0,1,0,1.652-1.652,1.652,1.652,0,0,0-1.652,1.652" transform="translate(31.499 -14.642)" fill="#fff0c5"/>
            <path id="Trazado_1005706" data-name="Trazado 1005706" d="M68.449,57.885A1.652,1.652,0,1,0,70.1,56.233a1.652,1.652,0,0,0-1.652,1.652" transform="translate(27.083 -14.2)" fill="#fff0c5"/>
            <path id="Trazado_1005707" data-name="Trazado 1005707" d="M70.817,55.443a1.652,1.652,0,1,0,1.652-1.652,1.652,1.652,0,0,0-1.652,1.652" transform="translate(22.945 -13.583)" fill="#fff0c5"/>
            <path id="Trazado_1005708" data-name="Trazado 1005708" d="M73.269,54.626a1.652,1.652,0,1,0,1.652-1.652,1.652,1.652,0,0,0-1.652,1.652" transform="translate(18.66 -13.377)" fill="#fff0c5"/>
          </g>
        </g>
      </g>
    </g>
  </g>
</svg>
