<svg xmlns="http://www.w3.org/2000/svg" xmlns:xlink="http://www.w3.org/1999/xlink" width="150" height="150" viewBox="0 0 150 150">
  <defs>
    <clipPath id="clip-path">
      <rect id="Rectángulo_459113" data-name="Rectángulo 459113" width="150" height="93.204" fill="none"/>
    </clipPath>
    <clipPath id="clip-path-2">
      <path id="Trazado_1005492" data-name="Trazado 1005492" d="M65.508,12.123,5.7,46.653a15.391,15.391,0,0,0-2.26,1.576L0,48.358v6.536c-.011,3.746,2.722,7.7,8.068,10.785l43.469,25.1A38.287,38.287,0,0,0,70.13,95.434h.11c5.343-.008,10.441-1.091,14.253-3.293l59.8-34.528c3.786-2.185,5.661-5.1,5.7-8.164h0V42.784l-2.7.1a20.571,20.571,0,0,0-5.367-4.3L98.463,13.49A38.313,38.313,0,0,0,79.82,8.832c-5.365,0-10.484,1.082-14.312,3.291" transform="translate(-0.001 -8.832)" fill="none"/>
    </clipPath>
    <linearGradient id="linear-gradient" y1="1" x2="0.005" y2="1" gradientUnits="objectBoundingBox">
      <stop offset="0" stop-color="#789401"/>
      <stop offset="0.425" stop-color="#789401"/>
      <stop offset="0.444" stop-color="#7d9b01"/>
      <stop offset="0.506" stop-color="#8dae01"/>
      <stop offset="0.549" stop-color="#93b501"/>
      <stop offset="1" stop-color="#93b501"/>
    </linearGradient>
    <clipPath id="clip-path-4">
      <rect id="Rectángulo_459111" data-name="Rectángulo 459111" width="30.519" height="19.391" fill="none"/>
    </clipPath>
    <clipPath id="clip-path-5">
      <rect id="Rectángulo_459114" data-name="Rectángulo 459114" width="74.355" height="77.537" fill="none"/>
    </clipPath>
  </defs>
  <g id="Grupo_1190879" data-name="Grupo 1190879" transform="translate(-467.711 -27547)">
    <g id="Grupo_1190878" data-name="Grupo 1190878" transform="translate(10 21654)">
      <rect id="Rectángulo_459312" data-name="Rectángulo 459312" width="150" height="150" transform="translate(457.711 5893)" fill="none"/>
    </g>
    <g id="Grupo_1190419" data-name="Grupo 1190419" transform="translate(-7.289 15.027)">
      <g id="Grupo_1190416" data-name="Grupo 1190416" transform="translate(475 27567.555)">
        <g id="Grupo_1190415" data-name="Grupo 1190415" clip-path="url(#clip-path)">
          <g id="Grupo_1190409" data-name="Grupo 1190409" transform="translate(0.001 6.602)">
            <g id="Grupo_1190408" data-name="Grupo 1190408" clip-path="url(#clip-path-2)">
              <rect id="Rectángulo_459110" data-name="Rectángulo 459110" width="150.01" height="86.603" transform="translate(-0.011 -0.001)" fill="url(#linear-gradient)"/>
            </g>
          </g>
          <g id="Grupo_1190414" data-name="Grupo 1190414">
            <g id="Grupo_1190413" data-name="Grupo 1190413" clip-path="url(#clip-path)">
              <path id="Trazado_1005493" data-name="Trazado 1005493" d="M144.3,66.868,84.493,101.4c-8.446,4.878-23.2,4.266-32.955-1.365l-43.47-25.1C2.723,71.848-.01,67.894,0,64.149v3.338c-.011,3.746,2.722,7.7,8.067,10.785l43.47,25.1c9.753,5.631,24.509,6.243,32.955,1.366l59.8-34.529c3.786-2.186,5.661-5.1,5.7-8.164h0V58.7h0c-.04,3.061-1.914,5.978-5.7,8.164" transform="translate(0 -14.824)" fill="#7a3d23"/>
              <path id="Trazado_1005494" data-name="Trazado 1005494" d="M144.3,48.781l-59.8,34.528c-8.447,4.878-23.2,4.266-32.955-1.365l-43.47-25.1C-1.686,51.215-2.744,42.7,5.7,37.82l59.8-34.53c8.448-4.875,23.2-4.264,32.955,1.368l43.47,25.1c9.753,5.631,10.812,14.15,2.365,19.026" transform="translate(0 0)" fill="#a6cc02"/>
              <g id="Grupo_1190412" data-name="Grupo 1190412" transform="translate(103.631 29.62)" style="mix-blend-mode: multiply;isolation: isolate">
                <g id="Grupo_1190411" data-name="Grupo 1190411">
                  <g id="Grupo_1190410" data-name="Grupo 1190410" clip-path="url(#clip-path-4)">
                    <path id="Trazado_1005495" data-name="Trazado 1005495" d="M138.64,47.456l20.024,11.561h10.495L152.2,39.626Z" transform="translate(-138.64 -39.626)" fill="#c1c8e0"/>
                  </g>
                </g>
              </g>
              <path id="Trazado_1005496" data-name="Trazado 1005496" d="M179.469,58.6l13.562-7.83V37.957l-13.562,7.83Z" transform="translate(-45.319 -9.585)" fill="#ffba17"/>
              <path id="Trazado_1005497" data-name="Trazado 1005497" d="M152.681,30.321l20.024,11.561,13.562-7.83L166.242,22.491Z" transform="translate(-38.554 -5.679)" fill="#ffda38"/>
              <path id="Trazado_1005498" data-name="Trazado 1005498" d="M152.681,45.774l20.024,11.561V44.527L152.681,32.966Z" transform="translate(-38.554 -8.324)" fill="#ffc626"/>
              <path id="Trazado_1005499" data-name="Trazado 1005499" d="M165.429,37.681l.967.558,13.562-7.83-.967-.558Z" transform="translate(-41.773 -7.538)" fill="#a15902"/>
              <path id="Trazado_1005500" data-name="Trazado 1005500" d="M165.429,53.134l.967.558V40.884l-.967-.558Z" transform="translate(-41.773 -10.183)" fill="#a15902"/>
              <path id="Trazado_1005501" data-name="Trazado 1005501" d="M182.1,38.916l-.967.558L161.106,27.913l.966-.558Z" transform="translate(-40.682 -6.908)" fill="#a15902"/>
              <path id="Trazado_1005502" data-name="Trazado 1005502" d="M188.861,55.63l-.966.558V43.379l.966-.558Z" transform="translate(-47.446 -10.813)" fill="#a15902"/>
            </g>
          </g>
        </g>
      </g>
      <g id="Grupo_1190418" data-name="Grupo 1190418" transform="translate(506.178 27552.973)">
        <g id="Grupo_1190417" data-name="Grupo 1190417" clip-path="url(#clip-path-5)">
          <path id="Trazado_1005503" data-name="Trazado 1005503" d="M22.113,75.413s-4.941,6.628-5.143,9.335-.917,3.186-.54,3.863,2.122,2.566,3.937,2.093,4.386,1.149,9.665-.407,7.473-1.518,9.3-2.041a78.019,78.019,0,0,0,21.6-9.057c11.6-6.836,18.367-17.6,15.254-20.575s1.774-7.525-15.254-4.169S22.113,75.413,22.113,75.413" transform="translate(-4.121 -13.452)" fill="#87a019"/>
          <path id="Trazado_1005504" data-name="Trazado 1005504" d="M94.4,34.424c-.32,2.237-2.078,17.474-1.973,18.588s-.744.431-1.063.964c-.265.441-.092,1.172-.416,2.195a4.568,4.568,0,0,1-.277.682c-.693,1.385-3.409,2.184-3.409,2.184V57.6l-1.492.373s2.026-4.5,2.4-5.327c1.385-3.09,1.811-8.95,1.279-12.254s-4.369-2.876-7.885-11.081-1.491-13.319-1.491-13.319c1.811-5.807,8.471-5.754,10.442-4s1.172,9.057,1.172,13.266,3.037,6.925,2.717,9.163" transform="translate(-20.073 -2.766)" fill="#ffdcb3"/>
          <path id="Trazado_1005505" data-name="Trazado 1005505" d="M93.075,71.023a4.481,4.481,0,0,1-.277.682c-.692,1.385-3.409,2.184-3.409,2.184V72.451l-1.492.373s.541-1.2,1.375-3.052a2.673,2.673,0,0,0,2.372,1.2c.58.034,1.052.045,1.432.047" transform="translate(-22.195 -17.618)" fill="#614f4e"/>
          <path id="Trazado_1005506" data-name="Trazado 1005506" d="M75.673,23.608c-.32,2.238-2.078,17.474-1.973,18.589s-.744.43-1.064.963c-.264.441-.091,1.172-.415,2.2a4.592,4.592,0,0,1-.277.682c-.693,1.385-3.41,2.184-3.41,2.184V46.783l-1.491.373s2.026-4.5,2.4-5.328c1.385-3.089,1.811-8.95,1.279-12.253S66.349,26.7,62.833,18.494,61.342,5.175,61.342,5.175c1.811-5.807,8.471-5.754,10.442-4s1.172,9.057,1.172,13.266,3.037,6.926,2.717,9.163" transform="translate(-15.343 -0.035)" fill="#efc8a0"/>
          <path id="Trazado_1005507" data-name="Trazado 1005507" d="M74.342,60.209a4.482,4.482,0,0,1-.277.682c-.692,1.385-3.409,2.185-3.409,2.185V61.636l-1.492.373s.541-1.2,1.375-3.051a2.673,2.673,0,0,0,2.372,1.2c.58.034,1.053.045,1.432.047" transform="translate(-17.465 -14.888)" fill="#614f4e"/>
          <path id="Trazado_1005508" data-name="Trazado 1005508" d="M32.321,51.587c-.533,1.811-1.9,10.069-1.583,11.774s.878,2.238.451,2.93c-.343.558-.72.511-.937,1.375a5.4,5.4,0,0,0-.128.81,3.509,3.509,0,0,1-2.611,3.278c-1.464.4-1.012-1.076-1.012-1.076s-1.651.942-1.758-.044a8.134,8.134,0,0,1,.51-2.869,10.421,10.421,0,0,1,.769-1.792c.8-1.413,1.078-5.089.918-8.258s-1.491-1.278-1.423-5.14c.032-1.8-.533-7.561-.533-7.561s-2.158-6.559-2.1-7.2,4.449-4.8,6.048-8.9.984-10.549.984-10.549l2.983,4.658s3.836,4.957,3.836,7.195-4.262,6.5-3.836,11.4a27.965,27.965,0,0,1-.573,9.962" transform="translate(-5.777 -4.639)" fill="#efc8a0"/>
          <path id="Trazado_1005509" data-name="Trazado 1005509" d="M30.877,84.318a5.294,5.294,0,0,0-.129.81,3.509,3.509,0,0,1-2.609,3.278c-1.465.4-1.014-1.076-1.014-1.076s-1.651.942-1.758-.045a8.134,8.134,0,0,1,.51-2.868,4.16,4.16,0,0,0,3.379,1.1c.6-.137,1.236-1.015,1.621-1.2" transform="translate(-6.403 -21.292)" fill="#614f4e"/>
          <path id="Trazado_1005510" data-name="Trazado 1005510" d="M67.762,20.721c-.16,1.419-4.066,4.4-6.836,8.878s-3.471,6.73-9.732,8.933-13,2.361-14.634,3.073-3.186,5.3-9.021,3.267a69.542,69.542,0,0,1-7.478-3.326c-5.786-2.907-6.925-14.313-7.973-15.791-1.561-2.2-6.869-10.968.9-14.229,2.54-1.065,10.4,5.15,13.38,2.237s6.6-3.017,11.076-4.439C33.925,10.439,59.916.6,55.46.119a19.938,19.938,0,0,1,8.528,3.522c1.492.989,2.792,2.006,3.817,2.8a14.379,14.379,0,0,0,1.929,1.355c1.765.842-1.811,11.507-1.971,12.928" transform="translate(-2.239 -0.03)" fill="#ffe6c5"/>
          <path id="Trazado_1005511" data-name="Trazado 1005511" d="M66.742,43.944s8.12-2.15,10.464-4.841a8.16,8.16,0,0,0,1.875-6.879c-.268-.922-8.058,1.206-7.939,1.3s-4.4,10.424-4.4,10.424" transform="translate(-16.853 -8.079)" fill="#f0b9b6"/>
          <path id="Trazado_1005512" data-name="Trazado 1005512" d="M69.809,22.767c-.16,1.419-4.066,4.4-6.836,8.878s-3.471,6.73-9.732,8.933-13,2.361-14.634,3.073-3.186,5.3-9.021,3.267a69.608,69.608,0,0,1-7.478-3.326A11.738,11.738,0,0,1,19.5,41.462c-1.564-2.2-7.814-12.715,2.911-12.715,0,0,9.519-.853,12.5-3.766s2.628-2.77,7.1-4.19,8.809-1.421,11.65-2.77S61.49,7.434,68.022,8.146a13.092,13.092,0,0,1,1.831.336,14.43,14.43,0,0,0,1.929,1.356c1.765.842-1.811,11.507-1.971,12.928" transform="translate(-4.109 -2.047)" fill="#f4d6b3"/>
          <path id="Trazado_1005513" data-name="Trazado 1005513" d="M9.615,16.074a6.387,6.387,0,0,1-3.112-3.8,11.332,11.332,0,0,1,.171-5.624c.029-.114.257,4.111,1.913,5.081s3.14.543,3.169,1.742-.966,3.275-2.141,2.6" transform="translate(-1.567 -1.679)" fill="#614f4e"/>
          <path id="Trazado_1005514" data-name="Trazado 1005514" d="M20.551,30.737c-1.456,1.97-5.625,2.826-7.908,2.855-2.214.028-1.743.752-2.73,2.021l-.1.12a12.337,12.337,0,0,1-4.4,2.854,2.282,2.282,0,0,1-.326.123c-1.564.46-3.758-.682-4.584-2.492-.769-1.687-.568-2.577-.072-3.041a1.5,1.5,0,0,1,.243-.185c.656-.4,2.426-3.626,2.969-4.683S3.994,25.4,4.108,23s3-4.711,3.539-5.91a4.79,4.79,0,0,1,2.371-2.227s4.383,1.3,5.416,2.743a1.2,1.2,0,0,1,.179.341c.5,1.57,2.312,2.456,4.282,5.082s2.114,5.738.658,7.707" transform="translate(0 -3.753)" fill="#ffdba6"/>
          <path id="Trazado_1005515" data-name="Trazado 1005515" d="M22.065,31.663c-1.456,1.97-5.625,2.826-7.908,2.855-2.214.028-1.743.752-2.73,2.021a2.239,2.239,0,0,0-2.151-.8c-1.914.343-3.854-1.94-3.122-3.34s2.922-1.541,3.494-3.169-.514-1.94.285-3.426,1.37-.685,3.145-1.683S14.329,19.9,14.329,19.9c.32-1.249,2.206-1.36,2.618-1.369a1.2,1.2,0,0,1,.179.341c.5,1.57,2.312,2.456,4.282,5.082s2.114,5.738.658,7.707" transform="translate(-1.514 -4.68)" fill="#3f1916"/>
          <path id="Trazado_1005516" data-name="Trazado 1005516" d="M5.1,44.9c-1.564.46-3.758-.682-4.584-2.492-.769-1.687-.569-2.576-.072-3.04.557.428,1.156,1.97,2.483,2.183s2.912.48,3.041,1.268A2.824,2.824,0,0,1,5.1,44.9" transform="translate(0 -9.94)" fill="#ffcfca"/>
          <path id="Trazado_1005517" data-name="Trazado 1005517" d="M4,46.2s1.419.47,1.377-.3.771-.771.856-.543a.761.761,0,0,1-.3,1.124C5.261,46.863,4,46.2,4,46.2" transform="translate(-1.01 -11.419)" fill="#e8a6a0"/>
          <path id="Trazado_1005518" data-name="Trazado 1005518" d="M17.154,30.063a1.551,1.551,0,0,1-.517.939.353.353,0,0,1-.093.052,3.161,3.161,0,0,1-1.356-.013c-.561-.089-1.061-.217-1.061-.217a2.982,2.982,0,0,1,.617-.78.941.941,0,0,1,.345-.193,6.275,6.275,0,0,1,1.919.181c.092.018.147.031.147.031" transform="translate(-3.567 -7.53)" fill="#614f4e"/>
          <path id="Trazado_1005519" data-name="Trazado 1005519" d="M17.218,30.137a1.136,1.136,0,0,1-.467.918,3.161,3.161,0,0,1-1.356-.013,1.133,1.133,0,0,1-.449-.905c0-.031,0-.061,0-.091a.923.923,0,0,1,.345-.193,6.272,6.272,0,0,1,1.918.18c0,.035,0,.069,0,.1" transform="translate(-3.774 -7.53)" fill="#070709"/>
          <path id="Trazado_1005520" data-name="Trazado 1005520" d="M15.522,19.551s-.4,1.085,1,1.712,2.2,1.342,4.253.486,2.6-3.683,2.6-3.683-1.6,2.141-3.254,1.77-2.628-1.982-3.369-1.77-.685.771-1.227,1.485" transform="translate(-3.906 -4.557)" fill="#614f4e"/>
          <path id="Trazado_1005521" data-name="Trazado 1005521" d="M26.4,23.592c-.09.155-.223.358-.4.62-1.042,1.513-2.526,2.513-3.5,2.342a9.569,9.569,0,0,1-2.8-1.713s-.034-.025-.086-.068c-.24-.208-.827-.839.342-1.245a3.85,3.85,0,0,0,2.627-.543,4.414,4.414,0,0,1,3.654.058c.142.119.594-.194.159.55" transform="translate(-4.863 -5.706)" fill="#632f2c"/>
          <path id="Trazado_1005522" data-name="Trazado 1005522" d="M26.523,23.886c-.09.155-.223.358-.4.62-1.042,1.513-2.526,2.513-3.5,2.342a9.569,9.569,0,0,1-2.8-1.713s-.034-.025-.086-.068a1.224,1.224,0,0,1,.289-.05c1.252-.082,2.338.432,3.85-.368a7.479,7.479,0,0,1,2.63-.884s.007.043.013.122" transform="translate(-4.985 -6.001)" fill="#330e0c"/>
          <path id="Trazado_1005523" data-name="Trazado 1005523" d="M48.259,58.262c-.533,1.811-1.788,11.09-1.469,12.8s.878,2.238.452,2.93c-.343.558-.721.511-.938,1.375a5.4,5.4,0,0,0-.128.81,3.508,3.508,0,0,1-2.61,3.278c-1.464.4-1.012-1.076-1.012-1.076s-1.652.942-1.758-.045A8.147,8.147,0,0,1,41.3,75.46a10.479,10.479,0,0,1,.769-1.792,12.729,12.729,0,0,0,1.47-6.919c-.16-3.169-1.576-2.4-1.15-5.174.274-1.782-1.357-8.865-1.357-8.865s-2.159-6.559-2.106-7.2,4.45-4.794,6.048-8.894.984-10.549.984-10.549l2.983,4.658s3.836,4.957,3.836,7.195-4.262,6.5-3.836,11.4-.155,7.13-.688,8.941" transform="translate(-9.83 -6.583)" fill="#ffdcb3"/>
          <path id="Trazado_1005524" data-name="Trazado 1005524" d="M46.931,92.015a5.4,5.4,0,0,0-.128.81,3.509,3.509,0,0,1-2.61,3.278c-1.464.4-1.013-1.076-1.013-1.076s-1.651.942-1.758-.045a8.133,8.133,0,0,1,.51-2.868,4.156,4.156,0,0,0,3.379,1.1c.6-.136,1.236-1.015,1.62-1.2" transform="translate(-10.456 -23.235)" fill="#614f4e"/>
          <path id="Trazado_1005525" data-name="Trazado 1005525" d="M22.777,28.478a5.845,5.845,0,0,1,2.553,3.806c.568,2.706,9.942.859,9.446,3.629s2.843,4.12,5.4-.5,2.79-9.335-.132-11.771-5.125-4.282-8.037-2.293-2.2,4.333-4.617,4.546-5.959.543-4.613,2.58" transform="translate(-5.677 -5.179)" fill="#3f1916"/>
          <path id="Trazado_1005526" data-name="Trazado 1005526" d="M61.524,8.643c-3.054,3.906-6.108,5.185-8.951,3.339-1.159-.754-3.649-2.676-5.469-2.689.939-.688,6.25-3.234,7.565-4.806C56.687,2.075,58.761-.595,65.293.117A19.939,19.939,0,0,1,73.821,3.64a4.86,4.86,0,0,1,.631,1.025c1.705,3.836-9.873.073-12.928,3.979" transform="translate(-11.894 0)" fill="#632f2c"/>
          <path id="Trazado_1005527" data-name="Trazado 1005527" d="M53.856,20.824s-5.725,1.3-.8,4S63.8,25.886,63.943,29.192s6.1,5.478,9.3,1.721S80.28,25.4,78.007,19.855s-5.5-6.777-8.237-5.824S62.1,20,60.959,20.139s-7.1.685-7.1.685" transform="translate(-12.892 -3.469)" fill="#3f1916"/>
        </g>
      </g>
    </g>
  </g>
</svg>
