<svg xmlns="http://www.w3.org/2000/svg" width="124" height="124" viewBox="0 0 124 124">
  <g id="Grupo_1188959" data-name="Grupo 1188959" transform="translate(-1234.5 -458)">
    <g id="Elipse_12108" data-name="Elipse 12108" transform="translate(1241.5 465)" fill="#f3bc5b" stroke="rgba(255,255,255,0.4)" stroke-width="7">
      <circle cx="55" cy="55" r="55" stroke="none"/>
      <circle cx="55" cy="55" r="58.5" fill="none"/>
    </g>
    <g id="Layer_x0020_1" transform="translate(1256.51 145.977)">
      <path id="Trazado_928660" data-name="Trazado 928660" d="M573.825,1044.65a7.825,7.825,0,1,1,7.872-7.825A7.86,7.86,0,0,1,573.825,1044.65Zm0-13.741a5.916,5.916,0,1,0,5.964,5.916A5.915,5.915,0,0,0,573.825,1030.909Z" transform="translate(-539.709 -646.603)" fill="#004e3d" fill-rule="evenodd"/>
      <path id="Trazado_928661" data-name="Trazado 928661" d="M188.825,1044.65a7.825,7.825,0,1,1,7.825-7.825A7.829,7.829,0,0,1,188.825,1044.65Zm0-13.741a5.916,5.916,0,1,0,0,11.833,5.916,5.916,0,1,0,0-11.833Z" transform="translate(-173.078 -646.603)" fill="#004e3d" fill-rule="evenodd"/>
      <path id="Trazado_928662" data-name="Trazado 928662" d="M82.239,942.55H73.174a.954.954,0,1,1,0-1.908h8.111v-9.733H34.908v9.733h6.107a.955.955,0,0,1,0,1.908H33.954A.957.957,0,0,1,33,941.6V929.954a.957.957,0,0,1,.954-.954H82.191a.957.957,0,0,1,.954.954V941.6A.889.889,0,0,1,82.239,942.55Zm-22.854,0H54.757a.955.955,0,0,1,0-1.908h4.628A.955.955,0,0,1,59.385,942.55Z" transform="translate(-32.14 -551.375)" fill="#004e3d" fill-rule="evenodd"/>
      <path id="Trazado_928663" data-name="Trazado 928663" d="M50,356.25H1.862c-3.483,0-3.483-6.25,0-6.25H50C53.535,350,53.535,356.25,50,356.25ZM1.862,351.908c-.954,0-.954,2.433,0,2.433H50c1,0,1-2.433,0-2.433Z" transform="translate(0)" fill="#004e3d" fill-rule="evenodd"/>
      <path id="Trazado_928664" data-name="Trazado 928664" d="M82.239,465.954a.957.957,0,0,1-.954-.954l-.1-23.284a.954.954,0,1,1,1.908,0l.1,23.284A.957.957,0,0,1,82.239,465.954Zm-48.285,0A.957.957,0,0,1,33,465V441.716a.954.954,0,1,1,1.908,0V465A.957.957,0,0,1,33.954,465.954Z" transform="translate(-32.14 -86.42)" fill="#004e3d" fill-rule="evenodd"/>
      <path id="Trazado_928665" data-name="Trazado 928665" d="M82.715,542.908H34.43a.955.955,0,0,1,0-1.908H82.667A.955.955,0,0,1,82.715,542.908Z" transform="translate(-32.616 -181.887)" fill="#004e3d" fill-rule="evenodd"/>
      <path id="Trazado_928666" data-name="Trazado 928666" d="M82.715,673.908H34.43a.955.955,0,0,1,0-1.908H82.667A.955.955,0,0,1,82.715,673.908Z" transform="translate(-32.616 -306.637)" fill="#004e3d" fill-rule="evenodd"/>
      <path id="Trazado_928667" data-name="Trazado 928667" d="M82.715,803.908H34.43a.955.955,0,0,1,0-1.908H82.667A.955.955,0,0,1,82.715,803.908Z" transform="translate(-32.616 -430.434)" fill="#004e3d" fill-rule="evenodd"/>
      <path id="Trazado_928668" data-name="Trazado 928668" d="M183.954,465.954A.957.957,0,0,1,183,465V441.716a.954.954,0,1,1,1.908,0V465A.957.957,0,0,1,183.954,465.954Z" transform="translate(-174.983 -86.42)" fill="#004e3d" fill-rule="evenodd"/>
      <path id="Trazado_928669" data-name="Trazado 928669" d="M361.954,465.954A.957.957,0,0,1,361,465V441.716a.954.954,0,1,1,1.908,0V465A.957.957,0,0,1,361.954,465.954Z" transform="translate(-344.49 -86.42)" fill="#004e3d" fill-rule="evenodd"/>
      <path id="Trazado_928670" data-name="Trazado 928670" d="M539.954,465.954A.957.957,0,0,1,539,465V441.716a.954.954,0,1,1,1.908,0V465A.957.957,0,0,1,539.954,465.954Z" transform="translate(-513.997 -86.42)" fill="#004e3d" fill-rule="evenodd"/>
      <path id="Trazado_928671" data-name="Trazado 928671" d="M717.954,465.954A.928.928,0,0,1,717,465V441.716a.954.954,0,1,1,1.908,0V465A.957.957,0,0,1,717.954,465.954Z" transform="translate(-683.505 -86.42)" fill="#004e3d" fill-rule="evenodd"/>
      <path id="Trazado_928672" data-name="Trazado 928672" d="M894.954,465.954A.957.957,0,0,1,894,465V441.716a.954.954,0,1,1,1.909,0V465A.957.957,0,0,1,894.954,465.954Z" transform="translate(-852.06 -86.42)" fill="#004e3d" fill-rule="evenodd"/>
      <path id="Trazado_928673" data-name="Trazado 928673" d="M657.15,1122.4c-4.867,0-4.867-7.4,0-7.4S662.064,1122.4,657.15,1122.4Zm0-5.487a1.814,1.814,0,0,0,0,3.626A1.814,1.814,0,0,0,657.15,1116.908Z" transform="translate(-623.034 -728.5)" fill="#004e3d" fill-rule="evenodd"/>
      <path id="Trazado_928674" data-name="Trazado 928674" d="M272.15,1122.4c-4.867,0-4.867-7.4,0-7.4S277.017,1122.4,272.15,1122.4Zm0-5.487a1.813,1.813,0,0,0,0,3.626A1.813,1.813,0,0,0,272.15,1116.908Z" transform="translate(-256.404 -728.5)" fill="#004e3d" fill-rule="evenodd"/>
      <path id="Trazado_928675" data-name="Trazado 928675" d="M82.715,930.908H34.43a.955.955,0,0,1,0-1.908H82.667A.955.955,0,0,1,82.715,930.908Z" transform="translate(-32.616 -551.375)" fill="#004e3d" fill-rule="evenodd"/>
      <path id="Trazado_928676" data-name="Trazado 928676" d="M1180.383,482.8h-24.429a.928.928,0,0,1-.954-.954v-16.89a.957.957,0,0,1,.954-.954h13.884a.984.984,0,0,1,.811.477l10.5,16.89A.918.918,0,0,1,1180.383,482.8Zm-23.474-1.908h21.709l-9.3-14.982h-12.405Z" transform="translate(-1100.607 -108.561)" fill="#004e3d" fill-rule="evenodd"/>
      <path id="Trazado_928677" data-name="Trazado 928677" d="M1260.954,581.837a.928.928,0,0,1-.954-.954V568.954a.957.957,0,0,1,.954-.954h11.976a.955.955,0,0,1,0,1.909h-11.021v10.974A.928.928,0,0,1,1260.954,581.837Z" transform="translate(-1200.597 -207.599)" fill="#004e3d" fill-rule="evenodd"/>
      <path id="Trazado_928678" data-name="Trazado 928678" d="M1181.335,836.846h-5.344a.955.955,0,0,1,0-1.908h4.39V819.908h-22.472v15.029h4.342a.955.955,0,0,1,0,1.908h-5.3a.957.957,0,0,1-.954-.954V818.954a.957.957,0,0,1,.954-.954h24.381a.957.957,0,0,1,.954.954v16.938A.957.957,0,0,1,1181.335,836.846Z" transform="translate(-1101.559 -445.671)" fill="#004e3d" fill-rule="evenodd"/>
      <path id="Trazado_928679" data-name="Trazado 928679" d="M1586.058,939.512c-1.813,0-5.057.477-5.057-2.433v-3.1c0-2.863,3.244-2.433,5.057-2.433a.955.955,0,0,1,0,1.909c-3.817,0-3.149-.716-3.149,3.626,0,1.384,4.1-.525,4.1,1.479A.957.957,0,0,1,1586.058,939.512Z" transform="translate(-1506.281 -553.775)" fill="#004e3d" fill-rule="evenodd"/>
      <path id="Trazado_928680" data-name="Trazado 928680" d="M1274.825,1044.65a7.825,7.825,0,1,1,7.825-7.825A7.829,7.829,0,0,1,1274.825,1044.65Zm0-13.741a5.916,5.916,0,1,0,5.916,5.916A5.915,5.915,0,0,0,1274.825,1030.909Z" transform="translate(-1207.263 -646.603)" fill="#004e3d" fill-rule="evenodd"/>
      <path id="Trazado_928681" data-name="Trazado 928681" d="M1358.15,1122.4c-4.867,0-4.867-7.4,0-7.4S1363.017,1122.4,1358.15,1122.4Zm0-5.487a1.814,1.814,0,0,0,0,3.626A1.814,1.814,0,0,0,1358.15,1116.908Z" transform="translate(-1290.588 -728.5)" fill="#004e3d" fill-rule="evenodd"/>
      <path id="Trazado_928682" data-name="Trazado 928682" d="M1050.726,997.684h-5.3a.955.955,0,0,1,0-1.909h5.3A.954.954,0,1,1,1050.726,997.684Zm0-6.775h-5.3a.955.955,0,0,1,0-1.908h5.3A.954.954,0,1,1,1050.726,990.908Z" transform="translate(-995.379 -608.512)" fill="#004e3d" fill-rule="evenodd"/>
      <path id="Trazado_928683" data-name="Trazado 928683" d="M1272.249,936.909h-4.819a.955.955,0,0,1,0-1.909h4.819A.955.955,0,0,1,1272.249,936.909Z" transform="translate(-1206.787 -557.088)" fill="#004e3d" fill-rule="evenodd"/>
    </g>
  </g>
</svg>
